<?xml version="1.0" standalone="no"?>
<!DOCTYPE svg PUBLIC "-//W3C//DTD SVG 20010904//EN"
 "http://www.w3.org/TR/2001/REC-SVG-20010904/DTD/svg10.dtd">
<svg version="1.0" xmlns="http://www.w3.org/2000/svg"
 width="980.000000pt" height="190.000000pt" viewBox="0 0 980.000000 190.000000"
 preserveAspectRatio="xMidYMid meet">
<metadata>
Created by potrace 1.16, written by Peter Selinger 2001-2019
</metadata>
<g transform="translate(0.000000,190.000000) scale(0.100000,-0.100000)"
fill="#f1ead8" stroke="none">
<path d="M2646 1625 c-32 -13 -83 -40 -112 -59 l-54 -36 -49 25 c-187 94 -507
100 -763 15 -364 -122 -649 -404 -648 -642 1 -136 90 -215 256 -226 220 -13
479 113 623 305 191 256 94 432 -185 334 -168 -58 -334 -202 -438 -378 -18
-31 14 -9 37 25 98 148 264 280 417 332 88 30 193 25 221 -9 78 -96 -125 -359
-384 -496 -108 -57 -184 -78 -282 -79 -146 0 -217 55 -223 174 -7 117 50 231
180 360 195 193 474 313 763 327 169 8 345 -25 414 -76 l23 -18 -33 -23 c-51
-36 -213 -196 -283 -280 -35 -41 -125 -158 -201 -260 -326 -436 -483 -581
-694 -644 -70 -21 -200 -21 -249 -1 -67 28 -112 88 -58 78 75 -15 105 93 31
111 -60 15 -113 -50 -94 -118 21 -73 89 -108 221 -114 124 -5 222 15 344 73
238 111 365 241 649 660 151 222 232 329 320 421 l76 79 28 -33 c133 -155 -6
-479 -256 -599 -65 -31 -79 -34 -140 -31 -37 2 -75 6 -83 8 -9 3 -15 -1 -15
-10 0 -23 81 -42 156 -36 267 23 481 245 467 485 -5 86 -27 138 -85 202 -30
33 -34 42 -22 50 59 39 149 89 172 94 15 4 27 13 27 21 0 18 -5 18 -74 -11z
M5625 1479 c-304 -57 -507 -255 -456 -446 27 -99 99 -146 278 -179 20 -4 18
-9 -32 -83 -140 -209 -141 -403 -2 -482 37 -21 54 -24 142 -23 88 0 109 4 180
32 201 80 365 246 365 369 0 131 -177 133 -364 4 -56 -39 -174 -166 -205 -221
-34 -60 -12 -46 45 30 136 179 383 307 467 240 57 -45 18 -141 -102 -252 -154
-143 -369 -213 -488 -159 -120 55 -99 212 55 416 86 115 108 135 143 135 56 0
232 40 354 81 347 115 625 315 625 449 0 12 -13 35 -29 51 -26 26 -36 29 -94
29 -232 0 -641 -228 -954 -533 l-61 -60 -49 7 c-164 23 -260 112 -238 219 28
133 172 253 385 323 75 24 103 28 240 31 85 2 157 6 160 11 14 20 -268 28
-365 11z m946 -49 c28 -15 24 -66 -7 -112 -116 -167 -566 -387 -864 -422 l-55
-7 90 87 c228 218 505 403 670 449 61 16 140 19 166 5z M9175 1271 c-118 -53
-318 -256 -627 -634 -85 -103 -223 -229 -317 -289 -45 -28 -91 -37 -91 -17 0
26 64 115 192 266 43 51 78 95 78 98 0 3 -20 5 -44 5 -39 0 -48 -4 -75 -37
-26 -32 -31 -34 -31 -17 0 32 -32 54 -77 54 -70 0 -175 -61 -283 -165 -153
-148 -249 -215 -305 -215 -55 0 -27 51 144 265 l113 140 71 5 c89 6 107 30 23
30 -31 0 -56 3 -56 6 0 3 34 45 75 94 41 48 72 89 70 91 -2 3 -24 3 -49 1 -44
-4 -48 -7 -121 -97 l-75 -94 -57 -3 c-70 -4 -84 -25 -20 -30 l45 -3 -76 -92
c-143 -171 -367 -341 -412 -313 -23 14 5 59 139 223 67 81 121 149 121 152 0
2 -21 2 -47 -1 -41 -5 -53 -12 -82 -47 -154 -187 -425 -383 -439 -317 -1 9 38
63 88 120 116 135 137 179 110 231 -25 45 -157 3 -253 -81 -25 -22 -48 -40
-51 -40 -3 0 29 44 72 98 43 53 109 137 147 186 l69 89 -44 -7 c-24 -4 -45 -8
-45 -9 0 -1 -34 -42 -75 -92 -239 -291 -590 -582 -590 -490 0 25 85 141 227
309 42 50 41 56 -6 56 -32 0 -44 -6 -70 -35 -24 -28 -31 -32 -31 -17 0 58 -93
67 -192 19 -159 -79 -274 -234 -247 -332 22 -79 111 -70 217 21 l42 36 0 -40
c0 -44 23 -72 59 -72 49 0 164 78 296 200 l69 65 -75 -90 c-196 -234 -369
-445 -369 -450 0 -3 20 -5 43 -5 l44 0 108 133 c199 241 278 329 357 396 128
108 233 163 252 132 7 -10 -23 -49 -122 -163 -79 -91 -103 -142 -84 -183 30
-65 147 -26 287 97 l47 41 -21 -39 c-39 -72 -19 -134 43 -134 50 0 150 59 245
144 34 30 34 30 18 4 -29 -46 -33 -102 -8 -127 44 -44 131 -16 249 79 l63 51
-7 -50 c-6 -44 -4 -52 19 -75 41 -41 96 -29 192 43 l50 38 -3 -38 c-3 -31 0
-40 22 -54 49 -33 125 2 257 116 l59 51 -15 -36 c-21 -49 -19 -109 3 -129 49
-44 174 11 305 134 101 94 108 127 9 41 -133 -116 -190 -152 -242 -152 -43 0
-40 31 9 107 103 160 171 232 293 314 286 192 508 411 508 501 0 23 -28 48
-53 48 -12 0 -40 -9 -62 -19z m74 -25 c32 -38 -107 -196 -314 -357 -133 -103
-216 -160 -194 -133 8 10 46 57 84 104 150 184 310 351 368 382 40 21 42 21
56 4z m-2771 -604 c5 -35 -44 -108 -132 -198 -83 -83 -145 -124 -191 -124 -47
0 -29 57 51 161 114 149 262 236 272 161z m1750 1 c5 -35 -32 -95 -113 -181
-83 -89 -158 -142 -198 -142 -64 0 -9 114 117 243 97 99 186 136 194 80z
M4706 1260 c-119 -60 -346 -289 -583 -590 -115 -145 -363 -350 -425 -350 -17
0 -28 5 -28 14 0 21 69 119 169 241 50 61 91 113 91 116 0 3 -18 6 -40 7 -33
2 -45 -3 -67 -28 l-27 -31 -13 25 c-41 77 -190 32 -335 -101 -181 -167 -317
-261 -354 -246 -25 9 -15 26 76 138 95 115 118 163 100 209 -25 66 -131 36
-249 -70 -57 -52 -67 -55 -46 -14 20 39 19 83 -3 103 -44 40 -102 9 -236 -121
-194 -189 -263 -242 -316 -242 -44 0 -13 54 138 240 56 69 102 129 102 133 0
18 -86 -6 -112 -31 -21 -19 -28 -22 -28 -10 0 25 -34 48 -73 48 -114 0 -312
-146 -356 -263 -19 -48 -14 -114 10 -138 39 -39 94 -20 224 76 20 14 21 13 17
-21 -5 -43 19 -74 58 -74 57 0 131 52 291 205 156 150 221 197 241 177 17 -17
-25 -79 -185 -267 l-85 -100 44 -3 45 -3 121 126 c67 70 148 147 180 171 70
54 146 90 160 76 14 -14 0 -37 -87 -139 -108 -127 -128 -180 -84 -224 43 -43
146 -1 267 106 33 29 52 42 47 30 -4 -11 -10 -39 -13 -62 -5 -51 29 -93 76
-93 36 0 118 41 160 80 l32 31 0 -39 c0 -115 113 -89 300 70 44 38 80 67 80
65 0 -2 -7 -19 -16 -37 -66 -132 16 -210 154 -145 74 34 135 78 219 158 90 86
86 109 -5 29 -176 -155 -303 -216 -326 -156 -9 23 18 77 81 168 98 142 130
174 252 253 328 213 527 436 455 507 -20 21 -50 20 -98 -4z m84 -35 c0 -74
-176 -249 -432 -429 -38 -26 -68 -45 -68 -42 0 23 325 393 393 448 52 40 107
52 107 23z m-2302 -586 c6 -55 -161 -250 -259 -299 -136 -70 -97 65 65 225 77
76 126 106 166 103 19 -2 26 -10 28 -29z m1263 15 c53 -64 -280 -390 -338
-331 -53 52 203 345 303 347 12 0 28 -7 35 -16z M7608 918 c-25 -20 -31 -54
-12 -72 22 -23 53 -17 77 15 35 48 -18 94 -65 57z"/>
</g>
</svg>
