<?xml version="1.0" standalone="no"?>
<!DOCTYPE svg PUBLIC "-//W3C//DTD SVG 20010904//EN"
 "http://www.w3.org/TR/2001/REC-SVG-20010904/DTD/svg10.dtd">
<svg version="1.0" xmlns="http://www.w3.org/2000/svg"
 width="980.000000pt" height="190.000000pt" viewBox="0 0 980.000000 190.000000"
 preserveAspectRatio="xMidYMid meet">
<metadata>
Created by potrace 1.16, written by Peter Selinger 2001-2019
</metadata>
<g transform="translate(0.000000,190.000000) scale(0.100000,-0.100000)"
fill="#f1ead8" stroke="none">
<path d="M2646 1625 c-32 -13 -83 -40 -112 -59 l-54 -36 -49 25 c-446 225
-1240 -67 -1390 -512 -125 -371 348 -472 740 -157 165 131 263 346 197 429
-124 158 -518 -40 -702 -352 -18 -31 14 -9 37 25 136 206 378 360 551 350 277
-16 -68 -476 -439 -584 -462 -135 -490 324 -40 636 307 212 837 279 1034 131
l23 -18 -33 -23 c-112 -78 -273 -258 -484 -540 -326 -436 -483 -581 -694 -644
-70 -21 -200 -21 -249 -1 -67 28 -112 88 -58 78 51 -10 91 41 67 85 -26 49
-113 28 -129 -31 -48 -181 273 -239 564 -102 238 111 365 241 649 660 151 222
232 329 320 421 l76 79 28 -33 c194 -228 -180 -713 -479 -622 -9 3 -15 -1 -15
-10 0 -23 81 -42 156 -36 375 32 603 442 382 687 -30 33 -34 42 -22 50 59 39
149 89 172 94 15 4 27 13 27 21 0 18 -5 18 -74 -11z M5625 1479 c-304 -57
-507 -255 -456 -446 27 -99 99 -146 278 -179 20 -4 18 -9 -32 -83 -140 -209
-141 -403 -2 -482 205 -118 687 148 687 378 0 213 -418 53 -569 -217 -34 -60
-12 -46 45 30 136 179 383 307 467 240 132 -105 -245 -431 -498 -430 -209 1
-225 186 -37 435 86 115 108 135 143 135 17 0 77 9 132 21 490 99 958 419 818
560 -126 126 -668 -135 -1048 -504 l-61 -60 -49 7 c-382 54 -288 400 147 542
75 24 103 28 240 31 85 2 157 6 160 11 14 20 -268 28 -365 11z m946 -49 c28
-15 24 -66 -7 -112 -116 -167 -566 -387 -864 -422 l-55 -7 90 87 c330 316 709
522 836 454z M9175 1271 c-118 -53 -318 -256 -627 -634 -121 -147 -327 -317
-385 -317 -50 0 -8 68 169 277 92 108 90 103 34 103 -39 0 -48 -4 -75 -37 -26
-32 -31 -34 -31 -17 0 111 -191 52 -360 -111 -153 -148 -249 -215 -305 -215
-55 0 -27 51 144 265 l113 140 71 5 c89 6 107 30 23 30 -70 0 -71 -6 19 100
83 98 83 97 21 92 -44 -4 -48 -7 -121 -97 l-75 -94 -57 -3 c-70 -4 -84 -25
-20 -30 l45 -3 -76 -92 c-143 -171 -367 -341 -412 -313 -23 14 5 59 139 223
140 171 134 157 74 151 -41 -5 -53 -12 -82 -47 -154 -187 -425 -383 -439 -317
-1 9 38 63 88 120 116 135 137 179 110 231 -25 45 -157 3 -253 -81 -68 -60
-64 -49 21 58 43 53 109 137 147 186 l69 89 -44 -7 c-24 -4 -45 -8 -45 -9 0
-1 -34 -42 -75 -92 -239 -291 -590 -582 -590 -490 0 25 85 141 227 309 42 50
41 56 -6 56 -32 0 -44 -6 -70 -35 -24 -28 -31 -32 -31 -17 0 123 -281 14 -396
-153 -127 -185 1 -287 174 -139 l42 36 0 -40 c0 -128 131 -81 355 128 l69 65
-75 -90 c-196 -234 -369 -445 -369 -450 0 -3 20 -5 43 -5 l44 0 108 133 c199
241 278 329 357 396 128 108 233 163 252 132 7 -10 -23 -49 -122 -163 -202
-231 -40 -300 203 -86 l47 41 -21 -39 c-96 -179 84 -173 288 10 34 30 34 30
18 4 -102 -164 58 -196 241 -48 l63 51 -7 -50 c-15 -117 79 -131 211 -32 l50
38 -3 -38 c-11 -111 110 -84 279 62 l59 51 -15 -36 c-80 -192 101 -189 308 5
101 94 108 127 9 41 -219 -191 -343 -215 -233 -45 103 160 171 232 293 314
341 229 560 466 492 533 -20 21 -50 20 -99 -3z m74 -25 c32 -38 -107 -196
-314 -357 -133 -103 -216 -160 -194 -133 8 10 46 57 84 104 231 285 389 428
424 386z m-2771 -604 c11 -78 -233 -322 -323 -322 -47 0 -29 57 51 161 114
149 262 236 272 161z m1750 1 c11 -76 -227 -323 -311 -323 -64 0 -9 114 117
243 97 99 186 136 194 80z M4706 1260 c-119 -60 -346 -289 -583 -590 -150
-190 -453 -415 -453 -336 0 21 69 119 169 241 105 127 103 121 51 123 -33 2
-45 -3 -67 -28 l-27 -31 -13 25 c-41 77 -190 32 -335 -101 -181 -167 -317
-261 -354 -246 -25 9 -15 26 76 138 95 115 118 163 100 209 -25 66 -131 36
-249 -70 -57 -52 -67 -55 -46 -14 20 39 19 83 -3 103 -44 40 -102 9 -236 -121
-194 -189 -263 -242 -316 -242 -44 0 -13 54 138 240 56 69 102 129 102 133 0
18 -86 -6 -112 -31 -21 -19 -28 -22 -28 -10 0 47 -75 61 -160 29 -191 -73
-344 -297 -259 -382 39 -39 94 -20 224 76 20 14 21 13 17 -21 -5 -43 19 -74
58 -74 57 0 131 52 291 205 156 150 221 197 241 177 17 -17 -25 -79 -185 -267
l-85 -100 44 -3 45 -3 121 126 c168 175 309 278 340 247 14 -14 0 -37 -87
-139 -108 -127 -128 -180 -84 -224 43 -43 146 -1 267 106 33 29 52 42 47 30
-67 -154 84 -205 223 -75 l32 31 0 -39 c0 -115 113 -89 300 70 44 38 80 67 80
65 0 -2 -7 -19 -16 -37 -66 -132 16 -210 154 -145 74 34 135 78 219 158 90 86
86 109 -5 29 -282 -248 -422 -241 -245 12 98 142 130 174 252 253 328 213 527
436 455 507 -20 21 -50 20 -98 -4z m84 -35 c0 -74 -176 -249 -432 -429 -38
-26 -68 -45 -68 -42 0 23 325 393 393 448 52 40 107 52 107 23z m-2302 -586
c6 -55 -161 -250 -259 -299 -136 -70 -97 65 65 225 105 104 187 135 194 74z
m1263 15 c53 -64 -280 -390 -338 -331 -53 52 203 345 303 347 12 0 28 -7 35
-16z M7608 918 c-25 -20 -31 -54 -12 -72 22 -23 53 -17 77 15 35 48 -18 94
-65 57z"/>
</g>
</svg>
