<?xml version="1.0" standalone="no"?>
<!DOCTYPE svg PUBLIC "-//W3C//DTD SVG 20010904//EN"
 "http://www.w3.org/TR/2001/REC-SVG-20010904/DTD/svg10.dtd">
<svg version="1.0" xmlns="http://www.w3.org/2000/svg"
 width="600.000000pt" height="430.000000pt" viewBox="0 0 600.000000 430.000000"
 preserveAspectRatio="xMidYMid meet">
<metadata>
Created by potrace 1.16, written by Peter Selinger 2001-2019
</metadata>
<g transform="translate(0.000000,430.000000) scale(0.100000,-0.100000)"
fill="#f1ead8" stroke="none">
<path d="M4265 3844 c-156 -31 -185 -43 -301 -121 -71 -47 -93 -57 -138 -61
-35 -3 -72 2 -106 13 -28 9 -53 15 -56 12 -3 -3 11 -18 32 -35 42 -35 100 -52
176 -52 50 -1 52 -2 33 -16 -44 -34 -224 -114 -283 -125 -88 -17 -169 -7 -248
30 -36 17 -68 31 -70 31 -12 0 0 -23 28 -51 35 -35 153 -95 205 -105 36 -7 45
-24 13 -24 -41 0 -133 -44 -193 -92 -103 -83 -129 -93 -230 -92 -72 1 -85 -1
-76 -12 18 -21 89 -37 141 -31 58 7 109 33 173 87 72 60 114 79 257 116 118
30 168 48 168 59 0 3 -33 2 -73 -1 -55 -5 -95 -2 -153 12 l-79 18 85 6 c47 4
103 13 125 20 53 17 162 72 232 117 96 61 219 114 281 120 52 6 56 5 43 -10
-7 -10 -19 -17 -26 -17 -24 0 -196 -116 -280 -190 -48 -41 -160 -154 -250
-251 -90 -97 -200 -210 -245 -250 -287 -260 -529 -369 -970 -434 -215 -32
-281 -47 -378 -86 -105 -42 -183 -91 -262 -166 l-67 -63 -99 0 c-111 0 -197
-17 -294 -57 -225 -92 -390 -273 -487 -533 -13 -36 -35 -83 -48 -106 -37 -63
-109 -123 -198 -164 -183 -84 -283 -197 -322 -362 -16 -67 -20 -158 -7 -158 4
0 20 20 35 44 36 57 93 109 156 140 27 14 98 39 157 55 155 43 245 90 325 170
78 78 127 168 165 304 37 135 70 214 120 288 51 77 119 143 204 198 61 40 147
77 203 88 l29 6 -26 -41 c-37 -59 -75 -177 -82 -258 -3 -38 -1 -109 5 -159 23
-177 24 -199 7 -257 -20 -72 -84 -144 -165 -187 -33 -17 -69 -43 -81 -58 -11
-14 -27 -51 -35 -82 -63 -233 -110 -333 -197 -417 -33 -31 -59 -64 -60 -77 -1
-12 -2 -31 -2 -42 -1 -17 -10 -21 -57 -25 -30 -3 -67 -13 -82 -23 -15 -9 -38
-40 -52 -67 -27 -53 -52 -176 -42 -203 10 -25 40 -21 124 18 55 25 95 54 151
108 43 41 96 86 119 100 54 34 84 75 130 178 61 136 113 217 196 306 95 100
154 145 351 268 83 52 177 115 208 140 68 53 138 139 175 213 28 57 63 91 126
124 109 55 211 77 542 113 227 25 394 56 517 96 87 28 232 98 298 144 50 35
62 38 125 40 87 2 131 22 385 175 192 116 258 150 292 150 17 0 19 -4 13 -32
-11 -52 -54 -123 -101 -168 -24 -23 -45 -49 -46 -58 -1 -10 -2 -26 -2 -37 -1
-18 -7 -20 -53 -17 -35 3 -59 -1 -76 -13 -36 -23 -97 -144 -104 -206 l-6 -52
53 6 c69 8 187 64 242 115 24 22 61 49 83 60 22 11 48 29 58 40 10 11 34 68
53 128 19 60 55 145 78 189 24 44 46 94 50 112 10 46 -10 108 -44 137 -49 41
-82 41 -231 3 -73 -19 -154 -38 -177 -42 l-44 -7 15 23 c29 47 38 101 41 246
3 166 16 221 69 299 36 54 96 99 145 109 32 7 32 6 32 -31 0 -21 9 -57 21 -80
24 -51 71 -95 137 -128 26 -13 80 -58 120 -99 70 -73 72 -76 72 -125 0 -44 4
-54 31 -76 17 -14 34 -26 39 -26 5 0 15 -3 24 -6 31 -12 16 24 -19 45 -33 19
-35 24 -35 70 0 42 -5 57 -32 88 -75 90 -127 136 -179 163 -128 65 -167 167
-108 281 10 21 15 40 10 44 -5 3 -25 -13 -44 -35 -22 -27 -42 -40 -58 -40 -14
0 -48 -12 -77 -26 -123 -61 -198 -219 -190 -401 3 -72 3 -72 -17 -53 -36 34
-96 53 -166 53 -63 -1 -139 -23 -139 -40 0 -5 44 -7 98 -5 115 5 161 -9 192
-60 11 -18 20 -49 20 -69 0 -48 -39 -121 -70 -130 -107 -29 -140 -42 -169 -63
-41 -31 -81 -84 -81 -109 0 -16 10 -10 50 27 28 26 70 56 93 66 23 10 94 28
157 40 63 11 168 34 233 51 147 36 180 37 212 4 39 -38 34 -88 -20 -192 -24
-49 -58 -131 -75 -183 -17 -52 -38 -105 -46 -117 -8 -13 -33 -32 -57 -44 -23
-12 -63 -41 -88 -64 -47 -44 -116 -80 -174 -91 -30 -5 -35 -3 -35 12 0 26 53
136 73 152 10 9 34 12 64 10 44 -3 48 -5 53 -33 l6 -30 21 34 c17 26 19 39 12
64 -5 18 -9 35 -9 40 0 4 22 30 49 57 52 52 111 157 111 197 0 45 -17 63 -61
63 -49 0 -100 -25 -338 -169 -100 -61 -208 -119 -237 -131 -115 -43 -172 -18
-215 91 -36 95 -127 175 -161 141 -7 -7 -2 -15 18 -25 45 -23 72 -57 100 -128
14 -35 34 -75 44 -89 l18 -26 -71 -46 c-123 -78 -265 -132 -442 -168 -55 -12
-212 -34 -350 -50 -137 -17 -274 -35 -303 -41 -75 -15 -186 -54 -238 -83 -24
-14 -44 -23 -44 -21 0 2 22 54 49 116 27 62 47 117 44 122 -10 17 -45 -29 -88
-118 -24 -49 -66 -138 -93 -196 -39 -83 -63 -121 -115 -176 -40 -42 -107 -96
-164 -133 -296 -192 -360 -237 -433 -309 -91 -90 -175 -214 -226 -332 -50
-118 -70 -147 -128 -184 -28 -18 -64 -47 -81 -64 -26 -28 -30 -30 -37 -14 -14
36 -8 78 12 91 14 8 20 23 20 49 0 31 9 46 65 104 79 82 130 182 173 345 17
61 35 121 41 133 7 11 35 33 63 47 62 32 141 104 174 160 13 22 29 67 35 98 8
45 7 80 -7 168 -21 137 -15 256 17 353 34 101 125 233 213 306 82 69 218 139
326 168 41 11 154 32 250 46 286 42 450 89 630 180 185 93 322 205 571 467
237 248 295 305 399 384 76 58 231 145 300 169 20 7 11 10 -42 12 -38 2 -68 8
-68 12 0 12 161 31 260 31 67 0 81 3 72 12 -8 8 -53 14 -126 16 -133 5 -225
-11 -389 -68 -103 -35 -223 -64 -171 -41 11 5 55 32 98 59 95 63 160 87 263
102 137 18 320 -13 451 -77 48 -24 54 -25 69 -11 14 15 12 18 -28 39 -139 70
-378 116 -494 93z m-2608 -1700 c-32 -8 -100 -35 -150 -61 -74 -38 -110 -65
-183 -138 -74 -73 -98 -106 -132 -175 -23 -47 -58 -141 -77 -210 -20 -69 -52
-153 -72 -188 -49 -88 -127 -163 -215 -206 -40 -20 -122 -50 -181 -66 -126
-35 -192 -66 -249 -118 -38 -34 -40 -35 -34 -12 4 14 23 57 42 96 47 99 123
167 257 233 141 69 186 111 238 219 145 302 149 310 221 387 39 42 100 97 135
122 114 81 265 131 398 131 l60 0 -58 -14z m-610 -1736 c11 -62 11 -63 -15
-86 -25 -21 -122 -72 -138 -72 -4 0 -4 23 -1 50 8 67 54 152 87 161 53 15 56
12 67 -53z M4925 3814 c-60 -40 -83 -63 -126 -126 -21 -31 -52 -62 -69 -69
-16 -8 -30 -17 -30 -21 0 -14 55 -9 77 7 12 8 42 43 66 78 25 35 57 71 71 81
25 16 26 16 26 -7 0 -13 -13 -51 -30 -83 -16 -32 -27 -60 -25 -62 10 -10 48
24 61 53 7 19 24 37 36 41 13 3 35 15 51 26 15 11 27 17 27 13 0 -10 -32 -69
-51 -94 -11 -13 -19 -19 -19 -12 0 6 -7 11 -15 11 -8 0 -15 -4 -15 -8 0 -4 36
-75 79 -158 59 -111 85 -172 100 -237 11 -48 41 -157 66 -243 25 -86 45 -169
45 -186 0 -16 -5 -39 -11 -51 -15 -28 -50 -67 -61 -67 -11 0 -10 87 1 94 5 4
11 1 13 -6 7 -19 28 1 28 27 0 30 -14 39 -40 25 -33 -18 -53 -68 -46 -117 5
-39 4 -43 -15 -43 -18 0 -19 -2 -9 -15 32 -38 118 0 157 70 13 23 23 57 23 81
0 23 -25 128 -55 234 -30 106 -59 217 -65 247 -5 29 -27 84 -48 121 -22 37
-54 95 -71 129 l-31 63 35 45 c31 41 65 126 65 162 0 17 -15 17 -30 -2 -7 -8
-35 -28 -62 -45 l-50 -31 6 36 c4 20 10 43 13 51 9 23 -28 17 -72 -12z M4910
3371 c0 -16 73 -71 93 -71 11 0 32 -8 48 -17 32 -19 44 -14 34 16 -11 34 -34
51 -73 51 -20 1 -48 7 -62 15 -30 17 -40 18 -40 6z M3545 3162 c-57 -20 -93
-43 -174 -115 -66 -58 -137 -94 -204 -103 -26 -4 -50 -10 -53 -15 -8 -13 44
-22 93 -15 73 10 126 39 214 121 46 42 105 88 131 101 43 22 70 44 51 44 -4
-1 -31 -8 -58 -18z M1457 1888 c-17 -26 -36 -89 -71 -235 -29 -121 -83 -233
-161 -338 -59 -78 -149 -165 -223 -217 -67 -46 -166 -89 -276 -118 -75 -21
-96 -30 -82 -36 29 -11 167 12 236 40 96 38 167 85 256 169 131 123 221 257
267 397 14 41 33 122 41 180 9 58 21 120 27 138 13 41 6 52 -14 20z"/>
</g>
</svg>
