<?xml version="1.0" standalone="no"?>
<!DOCTYPE svg PUBLIC "-//W3C//DTD SVG 20010904//EN"
 "http://www.w3.org/TR/2001/REC-SVG-20010904/DTD/svg10.dtd">
<svg role="img" version="1.0" xmlns="http://www.w3.org/2000/svg"
 width="600.000000pt" height="430.000000pt" viewBox="0 0 600.000000 430.000000"
 preserveAspectRatio="xMidYMid meet">
<metadata>
Created by potrace 1.16, written by Peter Selinger 2001-2019
</metadata>
<g transform="translate(0.000000,430.000000) scale(0.100000,-0.100000)"
fill="#f1ead8" stroke="none">
<path d="M0 2150 l0 -2150 3000 0 3000 0 0 2150 0 2150 -3000 0 -3000 0 0
-2150z m4491 1685 c92 -16 201 -50 268 -84 40 -21 42 -24 28 -39 -15 -14 -21
-13 -69 11 -131 64 -314 95 -451 77 -103 -15 -168 -39 -263 -102 -43 -27 -87
-54 -98 -59 -52 -23 68 6 171 41 164 57 256 73 389 68 73 -2 118 -8 126 -16 9
-9 -5 -12 -72 -12 -99 0 -260 -19 -260 -31 0 -4 30 -10 68 -12 53 -2 62 -5 42
-12 -69 -24 -224 -111 -300 -169 -104 -79 -162 -136 -399 -384 -249 -262 -386
-374 -571 -467 -180 -91 -344 -138 -630 -180 -217 -32 -300 -54 -415 -110
-124 -61 -219 -143 -292 -252 -104 -156 -132 -297 -99 -511 20 -127 12 -197
-28 -266 -33 -56 -112 -128 -174 -160 -28 -14 -56 -36 -63 -47 -6 -12 -24 -72
-41 -133 -43 -163 -94 -263 -173 -345 -56 -58 -65 -73 -65 -104 0 -26 -6 -41
-20 -49 -20 -13 -26 -55 -12 -91 7 -16 11 -14 37 14 17 17 53 46 81 64 58 37
78 66 128 184 51 118 135 242 226 332 73 72 137 117 433 309 140 90 217 176
279 309 27 58 69 147 93 196 43 89 78 135 88 118 3 -5 -17 -60 -44 -122 -27
-62 -49 -114 -49 -116 0 -2 20 7 44 21 52 29 163 68 238 83 29 6 166 24 303
41 138 16 295 38 350 50 177 36 319 90 442 168 l71 46 -18 26 c-10 14 -30 54
-44 89 -28 71 -55 105 -100 128 -20 10 -25 18 -18 25 34 34 125 -46 161 -141
43 -109 100 -134 215 -91 29 12 137 70 237 131 238 144 289 169 338 169 44 0
61 -18 61 -63 0 -40 -59 -145 -111 -197 -27 -27 -49 -53 -49 -57 0 -5 4 -22 9
-40 7 -25 5 -38 -12 -64 l-21 -34 -6 30 c-5 28 -9 30 -53 33 -30 2 -54 -1 -64
-10 -20 -16 -73 -126 -73 -152 0 -15 5 -17 35 -12 58 11 127 47 174 91 25 23
65 52 88 64 24 12 49 31 57 44 8 12 29 65 46 117 17 52 51 134 75 183 54 104
59 154 20 192 -32 33 -65 32 -212 -4 -65 -17 -170 -40 -233 -51 -141 -27 -185
-45 -250 -106 -40 -37 -50 -43 -50 -27 0 25 40 78 81 109 29 21 62 34 169 63
31 9 70 82 70 130 0 20 -9 51 -20 69 -31 51 -77 65 -192 60 -54 -2 -98 0 -98
5 0 17 76 39 139 40 70 0 130 -19 166 -53 20 -19 20 -19 17 53 -8 182 67 340
190 401 29 14 63 26 77 26 16 0 36 13 58 40 19 22 39 38 44 35 5 -4 0 -23 -10
-44 -59 -114 -20 -216 108 -281 52 -27 104 -73 179 -163 27 -31 32 -46 32 -88
0 -46 2 -51 35 -70 35 -21 50 -57 19 -45 -9 3 -19 6 -24 6 -5 0 -22 12 -39 26
-27 22 -31 32 -31 76 0 49 -2 52 -72 125 -40 41 -94 86 -120 99 -98 50 -158
129 -158 208 0 37 0 38 -32 31 -49 -10 -109 -55 -145 -109 -53 -78 -66 -133
-69 -299 -3 -145 -12 -199 -41 -246 l-15 -23 44 7 c23 4 104 23 177 42 149 38
182 38 231 -3 34 -29 54 -91 44 -137 -4 -18 -26 -68 -50 -112 -23 -44 -59
-129 -78 -189 -19 -60 -43 -117 -53 -128 -10 -11 -36 -29 -58 -40 -22 -11 -59
-38 -83 -60 -55 -51 -173 -107 -242 -115 l-53 -6 6 52 c7 62 68 183 104 206
17 12 41 16 76 13 46 -3 52 -1 53 17 0 11 1 27 2 37 1 9 22 35 46 58 47 45 90
116 101 168 6 28 4 32 -13 32 -34 0 -100 -34 -292 -150 -254 -153 -298 -173
-385 -175 -63 -2 -75 -5 -125 -40 -66 -46 -211 -116 -298 -144 -123 -40 -290
-71 -517 -96 -331 -36 -433 -58 -542 -113 -63 -33 -98 -67 -126 -124 -37 -74
-107 -160 -175 -213 -31 -25 -125 -88 -208 -140 -197 -123 -256 -168 -351
-268 -83 -89 -135 -170 -196 -306 -46 -103 -76 -144 -130 -178 -23 -14 -76
-59 -119 -100 -56 -54 -96 -83 -151 -108 -122 -57 -138 -48 -119 67 14 82 52
161 89 185 15 10 52 20 82 23 47 4 56 8 57 25 0 11 1 30 2 42 1 13 27 46 60
77 87 84 134 184 197 417 19 73 43 101 116 140 81 43 145 115 165 187 17 58
16 80 -7 257 -6 50 -8 121 -5 159 7 81 45 199 82 258 l26 41 -29 -6 c-56 -11
-142 -48 -203 -88 -170 -110 -255 -237 -324 -486 -38 -136 -87 -226 -165 -304
-80 -80 -170 -127 -325 -170 -171 -47 -252 -98 -313 -195 -15 -24 -31 -44 -35
-44 -13 0 -9 91 7 158 39 165 139 278 322 362 130 61 193 130 246 270 79 213
199 366 367 472 125 79 262 118 414 118 l99 0 67 63 c79 75 157 124 262 166
97 39 163 54 378 86 441 65 683 174 970 434 45 40 155 153 245 250 90 97 202
210 250 251 84 74 256 190 280 190 7 0 19 7 26 17 13 15 9 16 -43 10 -62 -6
-185 -59 -281 -120 -70 -45 -179 -100 -232 -117 -22 -7 -78 -16 -125 -20 l-85
-6 79 -18 c58 -14 98 -17 153 -12 122 10 88 -11 -95 -58 -143 -37 -185 -56
-257 -116 -64 -54 -115 -80 -173 -87 -52 -6 -123 10 -141 31 -9 11 4 13 76 12
101 -1 127 9 230 92 60 48 152 92 193 92 32 0 23 17 -13 24 -80 15 -237 112
-237 147 0 13 0 13 74 -22 79 -37 160 -47 248 -30 59 11 239 91 283 125 19 14
17 15 -33 16 -76 0 -134 17 -176 52 -21 17 -35 32 -32 35 3 3 28 -3 56 -12 34
-11 71 -16 106 -13 45 4 67 14 138 61 116 78 145 90 301 121 46 9 148 5 226
-9z m506 -9 c-3 -8 -9 -31 -13 -51 l-6 -36 50 31 c27 17 55 37 62 45 15 19 30
19 30 2 0 -36 -34 -121 -65 -162 l-35 -45 31 -63 c17 -34 49 -92 71 -129 21
-37 43 -92 48 -121 6 -30 35 -141 65 -247 30 -106 55 -211 55 -234 0 -24 -10
-58 -23 -81 -39 -70 -125 -108 -157 -70 -10 13 -9 15 9 15 19 0 20 4 15 43 -7
49 13 99 46 117 26 14 40 5 40 -25 0 -26 -21 -46 -28 -27 -2 7 -8 10 -13 6
-11 -7 -12 -94 -1 -94 11 0 46 39 61 67 18 36 13 74 -34 237 -25 86 -55 195
-66 243 -15 65 -41 126 -100 237 -43 83 -79 154 -79 158 0 4 7 8 15 8 8 0 15
-5 15 -11 0 -15 32 26 54 68 22 44 20 47 -11 25 -16 -11 -38 -23 -51 -26 -12
-4 -29 -22 -36 -41 -13 -29 -51 -63 -61 -53 -2 2 9 30 25 62 17 32 30 70 30
83 0 23 -1 23 -26 7 -14 -10 -46 -46 -71 -81 -52 -73 -77 -93 -115 -93 -37 0
-36 12 2 29 17 7 48 38 69 69 43 63 66 86 126 126 44 29 81 35 72 12z m-47
-461 c14 -8 42 -14 62 -15 39 0 62 -17 73 -51 10 -30 -2 -35 -34 -16 -16 9
-37 17 -48 17 -20 0 -93 55 -93 71 0 12 10 11 40 -6z m-1345 -195 c-4 -6 -27
-21 -53 -34 -26 -13 -85 -59 -131 -101 -88 -82 -141 -111 -214 -121 -49 -7
-101 2 -93 15 3 5 27 11 53 15 67 9 138 45 204 103 81 72 117 95 174 115 59
20 68 22 60 8z m-2134 -1302 c-6 -18 -18 -80 -27 -138 -36 -239 -125 -405
-308 -577 -89 -84 -160 -131 -256 -169 -69 -28 -207 -51 -236 -40 -14 6 7 15
82 36 167 45 261 95 381 204 135 123 237 295 279 469 35 146 54 209 71 235 20
32 27 21 14 -20z M1529 2145 c-151 -30 -284 -109 -407 -240 -72 -77 -76 -85
-221 -387 -52 -108 -97 -150 -238 -219 -134 -66 -210 -134 -257 -233 -19 -39
-38 -82 -42 -96 -6 -23 -4 -22 34 12 57 52 123 83 249 118 207 58 320 135 396
272 20 35 52 119 72 188 19 69 54 163 77 210 34 69 58 102 132 175 73 73 109
100 183 138 50 26 118 53 150 61 l58 14 -60 0 c-33 0 -90 -6 -126 -13z M980
461 c-33 -9 -79 -94 -87 -161 -3 -27 -3 -50 1 -50 16 0 113 51 138 72 26 23
26 24 15 86 -11 65 -14 68 -67 53z"/>
</g>
</svg>
