<?xml version="1.0" standalone="no"?>
<!DOCTYPE svg PUBLIC "-//W3C//DTD SVG 20010904//EN"
 "http://www.w3.org/TR/2001/REC-SVG-20010904/DTD/svg10.dtd">
<svg version="1.0" xmlns="http://www.w3.org/2000/svg"
 width="980.000000pt" height="190.000000pt" viewBox="0 0 980.000000 190.000000"
 preserveAspectRatio="xMidYMid meet">
<metadata>
Created by potrace 1.16, written by Peter Selinger 2001-2019
</metadata>
<g transform="translate(0.000000,190.000000) scale(0.100000,-0.100000)"
fill="#f1ead8" stroke="none">
<path d="M2654 1629 c-28 -10 -79 -36 -114 -58 l-64 -38 -60 28 c-117 55 -173
64 -376 63 -167 0 -194 -3 -283 -27 -242 -65 -458 -191 -591 -345 -64 -75 -93
-121 -122 -198 -55 -148 -12 -278 111 -330 54 -22 177 -29 261 -15 184 32 383
157 491 308 113 159 123 292 24 339 -44 21 -143 15 -225 -15 -154 -54 -319
-196 -415 -353 -35 -58 -9 -45 34 17 20 30 77 93 125 138 70 67 109 94 193
137 91 46 114 53 179 58 90 5 133 -12 143 -57 14 -66 -29 -153 -134 -264 -164
-172 -372 -280 -542 -280 -80 0 -143 20 -183 59 -62 61 -63 166 -1 290 71 144
259 312 446 398 216 99 470 138 669 102 78 -14 174 -47 203 -69 14 -11 7 -19
-56 -72 -116 -96 -248 -244 -405 -454 -80 -108 -182 -241 -228 -296 -93 -114
-237 -257 -304 -302 -114 -77 -222 -113 -339 -113 -77 0 -131 17 -168 52 -32
30 -29 45 6 40 34 -5 71 26 71 58 0 24 -34 60 -55 60 -34 0 -74 -30 -85 -64
-9 -27 -8 -41 3 -69 18 -42 68 -81 122 -96 22 -6 80 -11 128 -11 99 0 208 24
303 66 157 69 338 223 473 401 34 46 125 176 202 289 151 223 229 325 323 419
l59 59 27 -33 c79 -94 61 -268 -44 -415 -59 -82 -123 -138 -205 -179 -55 -27
-77 -32 -136 -32 -38 0 -79 2 -90 5 -13 3 -20 0 -20 -10 0 -10 19 -20 54 -29
78 -21 191 -3 291 46 99 48 194 142 241 238 32 65 34 77 34 170 0 85 -3 106
-23 143 -13 24 -39 60 -58 82 l-35 38 33 26 c18 13 68 41 111 61 42 21 74 41
71 46 -7 12 -10 11 -70 -12z M5627 1480 c-26 -5 -78 -18 -115 -30 -199 -64
-335 -194 -349 -334 -7 -65 9 -116 50 -162 39 -45 92 -72 176 -90 36 -7 70
-14 74 -14 4 0 -8 -21 -28 -47 -20 -26 -55 -85 -78 -131 -36 -74 -41 -93 -45
-170 -3 -77 -1 -92 20 -132 16 -29 41 -55 71 -74 122 -75 354 -26 527 113 111
89 170 178 170 256 0 35 -6 52 -23 69 -34 33 -93 41 -169 21 -91 -23 -161 -68
-263 -170 -81 -81 -150 -175 -128 -175 5 0 29 28 53 62 57 77 175 180 254 218
34 17 86 35 116 42 45 9 61 9 85 -3 67 -32 52 -117 -38 -215 -158 -173 -400
-265 -534 -205 -51 24 -73 63 -73 131 0 94 83 247 206 383 28 30 39 35 100 40
81 8 264 55 384 99 115 41 307 140 378 193 136 102 199 199 173 263 -7 16 -24
34 -37 41 -39 17 -142 13 -224 -9 -90 -25 -283 -116 -400 -190 -118 -74 -247
-174 -367 -286 l-103 -96 -63 10 c-78 13 -126 33 -171 73 -83 72 -65 191 44
300 63 63 125 102 224 140 114 44 211 60 351 58 119 -1 157 9 80 23 -53 9
-267 8 -328 -2z m947 -56 c56 -55 -39 -171 -239 -294 -157 -97 -376 -182 -564
-220 -57 -11 -108 -19 -113 -18 -6 2 27 39 73 82 171 159 384 318 521 387 138
70 286 99 322 63z M9163 1265 c-111 -56 -292 -235 -539 -535 -155 -189 -258
-289 -381 -373 -56 -37 -103 -48 -103 -24 0 19 83 134 184 255 47 56 86 104
86 107 0 3 -20 5 -44 5 -39 0 -48 -4 -75 -37 -26 -32 -31 -34 -31 -17 0 12 -9
29 -20 39 -15 14 -31 17 -69 13 -79 -8 -155 -53 -266 -159 -160 -153 -253
-219 -310 -219 -55 0 -30 47 140 259 l120 149 69 4 c89 4 103 26 20 30 l-58 3
78 93 c43 52 76 95 74 96 -1 1 -24 1 -50 -2 -46 -4 -49 -6 -123 -97 l-76 -94
-56 -3 c-70 -4 -84 -25 -19 -30 l44 -3 -77 -91 c-91 -108 -188 -197 -289 -265
-74 -49 -132 -65 -132 -35 0 20 41 78 161 223 60 72 109 134 109 137 0 3 -20
6 -44 6 -42 0 -45 -2 -119 -89 -142 -167 -393 -341 -405 -281 -1 9 37 62 87
118 115 132 138 181 111 233 -25 47 -146 8 -254 -81 -27 -22 -50 -40 -52 -40
-2 0 41 55 94 123 54 67 119 150 146 185 43 57 45 62 24 61 -13 -1 -32 -4 -44
-7 -11 -4 -66 -61 -121 -127 -144 -172 -341 -358 -477 -449 -46 -31 -86 -35
-86 -8 0 20 97 151 198 269 39 44 68 84 65 87 -4 3 -23 6 -44 6 -30 0 -43 -7
-68 -35 -24 -28 -31 -32 -31 -17 0 10 -9 27 -20 37 -15 14 -31 17 -69 13 -65
-6 -141 -44 -221 -111 -84 -70 -133 -150 -134 -219 -1 -41 3 -53 23 -69 13
-10 35 -19 50 -19 35 1 97 30 146 70 l40 32 6 -42 c3 -23 12 -46 20 -51 19
-12 52 -11 86 2 39 15 165 111 247 188 l70 66 -75 -90 c-299 -357 -369 -443
-369 -449 0 -4 20 -6 45 -4 l45 3 188 225 c194 233 298 335 414 403 70 41 108
48 108 18 0 -10 -34 -56 -76 -102 -130 -143 -159 -204 -114 -249 11 -11 31
-20 45 -20 37 0 130 50 203 109 34 28 62 49 62 47 0 -2 -7 -17 -15 -32 -21
-41 -19 -87 5 -109 41 -37 148 5 260 103 28 24 50 41 50 39 0 -3 -7 -18 -15
-33 -21 -41 -19 -80 6 -105 17 -17 30 -20 65 -16 49 5 133 52 200 110 l43 38
-5 -48 c-5 -40 -2 -53 16 -75 13 -17 31 -28 46 -28 36 0 91 26 149 69 l51 38
-4 -34 c-3 -23 1 -40 13 -53 38 -42 110 -16 235 85 47 39 80 60 76 49 -16 -37
-24 -87 -19 -103 25 -70 96 -67 213 7 64 40 202 171 194 183 -3 5 -39 -21 -80
-57 -141 -123 -243 -173 -261 -128 -9 24 17 71 117 203 85 113 99 127 198 193
158 106 257 183 355 277 95 91 167 189 167 226 0 30 -25 55 -54 55 -12 0 -45
-11 -73 -25z m86 -18 c13 -17 -10 -65 -63 -131 -61 -73 -272 -250 -426 -356
l-35 -24 40 49 c214 269 412 471 466 475 4 0 12 -6 18 -13z m-2775 -600 c9
-13 6 -27 -12 -61 -34 -63 -143 -178 -213 -225 -64 -43 -119 -55 -119 -26 0
52 96 186 193 268 79 68 127 82 151 44z m1754 -4 c5 -35 -32 -95 -113 -181
-83 -89 -158 -142 -198 -142 -23 0 -27 4 -27 28 0 15 18 54 39 87 48 74 161
189 210 215 47 25 85 22 89 -7z M4694 1254 c-122 -65 -294 -241 -590 -606 -64
-77 -217 -216 -319 -287 -59 -42 -115 -55 -115 -27 0 21 70 121 170 239 49 59
90 112 90 117 0 6 -18 10 -41 10 -32 0 -46 -6 -68 -30 l-28 -31 -11 25 c-21
47 -103 47 -197 2 -29 -15 -92 -61 -140 -104 -154 -137 -209 -182 -260 -212
-47 -28 -105 -40 -105 -21 0 11 32 55 109 148 92 112 110 164 71 203 -39 39
-113 17 -209 -61 -29 -24 -63 -51 -74 -59 -19 -14 -19 -14 -3 17 21 42 20 86
-2 106 -48 43 -112 6 -280 -161 -66 -66 -149 -138 -182 -161 -62 -41 -110 -53
-110 -28 0 20 47 87 159 227 56 69 101 128 101 133 0 4 -17 7 -37 7 -28 0 -45
-8 -70 -32 -23 -22 -33 -27 -33 -17 0 9 -9 24 -20 34 -50 45 -211 -16 -316
-120 -71 -72 -107 -140 -107 -203 0 -36 5 -49 24 -65 37 -30 90 -17 174 41
l71 49 -4 -34 c-5 -41 20 -73 57 -73 31 0 94 29 138 62 18 14 94 84 169 157
133 128 199 177 221 163 21 -13 -12 -64 -139 -217 l-125 -150 43 -3 43 -3 143
145 c148 150 249 226 300 226 15 0 28 -4 28 -8 0 -12 -48 -76 -113 -150 -88
-101 -108 -161 -66 -203 17 -17 29 -20 61 -16 48 6 131 55 204 120 47 43 53
45 44 22 -5 -14 -10 -42 -10 -61 0 -42 37 -84 75 -84 36 0 89 24 146 66 l49
36 0 -35 c0 -41 25 -67 64 -67 44 0 134 53 228 135 l86 74 -19 -50 c-26 -67
-24 -105 6 -134 17 -18 35 -25 62 -25 75 0 219 88 331 203 60 61 56 87 -4 31
-68 -64 -168 -141 -218 -168 -52 -28 -121 -35 -129 -13 -9 23 18 81 71 158 95
137 141 189 203 227 142 87 281 194 380 292 136 134 177 211 133 254 -22 23
-54 20 -110 -10z m96 -32 c0 -50 -126 -191 -280 -312 -83 -66 -220 -162 -220
-155 0 6 188 232 269 324 85 96 168 161 204 161 19 0 27 -5 27 -18z m-2302
-580 c5 -32 -38 -101 -111 -179 -100 -107 -217 -172 -233 -129 -3 8 9 43 27
77 38 70 175 215 229 242 47 23 84 19 88 -11z m1261 9 c17 -31 -33 -114 -123
-207 -88 -90 -174 -141 -207 -123 -14 7 -16 15 -9 38 12 44 29 71 86 141 107
133 225 203 253 151z M7600 910 c-11 -11 -20 -25 -20 -31 0 -24 22 -49 44 -49
25 0 66 38 66 61 0 40 -57 52 -90 19z"/>
</g>
</svg>
