<?xml version="1.0" standalone="no"?>
<!DOCTYPE svg PUBLIC "-//W3C//DTD SVG 20010904//EN"
 "http://www.w3.org/TR/2001/REC-SVG-20010904/DTD/svg10.dtd">
<svg role="img" version="1.0" xmlns="http://www.w3.org/2000/svg"
 width="980.000000pt" height="190.000000pt" viewBox="0 0 980.000000 190.000000"
 preserveAspectRatio="xMidYMid meet">
<metadata>
Created by potrace 1.16, written by Peter Selinger 2001-2019
</metadata>
<g transform="translate(0.000000,190.000000) scale(0.100000,-0.100000)"
fill="#f1ead8" stroke="none">
<path d="M0 950 l0 -950 3153 1 3152 1 140 170 c77 94 178 216 224 272 l84
101 -69 -66 c-81 -77 -207 -173 -247 -188 -65 -25 -98 -10 -106 49 l-6 42 -40
-32 c-49 -40 -111 -69 -146 -70 -15 0 -37 9 -50 19 -20 16 -24 28 -23 69 0 38
8 64 35 108 39 65 137 152 217 191 70 34 145 42 172 18 11 -10 20 -27 20 -37
0 -15 7 -11 31 17 25 28 38 35 68 35 21 0 40 -3 44 -6 3 -3 -26 -43 -65 -87
-101 -118 -198 -249 -198 -269 0 -27 40 -23 86 8 136 91 333 277 477 449 98
117 117 132 165 134 21 1 19 -4 -24 -62 -27 -34 -92 -117 -146 -185 -53 -67
-96 -122 -94 -122 2 0 25 18 52 40 108 89 229 128 254 81 27 -52 4 -101 -111
-233 -50 -56 -88 -109 -87 -118 12 -60 263 114 405 281 74 87 77 89 119 89 24
0 44 -3 44 -6 0 -3 -49 -65 -109 -137 -169 -205 -187 -237 -132 -237 63 0 259
157 392 314 l77 91 -44 3 c-65 5 -51 26 19 30 l56 3 76 94 c74 91 77 93 123
97 26 3 49 3 50 2 2 -1 -31 -44 -74 -96 l-78 -93 58 -3 c83 -4 69 -26 -20 -30
l-69 -4 -120 -149 c-170 -212 -195 -259 -140 -259 57 0 150 66 310 219 111
106 187 151 266 159 38 4 54 1 69 -13 11 -10 20 -27 20 -39 0 -17 5 -15 31 17
27 33 36 37 75 37 24 0 44 -2 44 -5 0 -3 -39 -51 -86 -107 -101 -121 -184
-236 -184 -255 0 -24 47 -13 103 25 125 84 226 183 382 374 179 218 422 466
507 516 69 41 118 50 141 27 26 -26 20 -58 -23 -122 -75 -113 -251 -266 -482
-421 -99 -66 -113 -80 -198 -193 -100 -132 -126 -179 -117 -203 18 -45 120 5
261 128 41 36 77 62 80 57 8 -12 -130 -143 -194 -183 -117 -74 -188 -77 -213
-7 -5 16 3 66 19 103 4 11 -29 -10 -76 -49 -125 -101 -197 -127 -235 -85 -12
13 -16 30 -13 53 l4 34 -51 -38 c-58 -43 -113 -69 -149 -69 -15 0 -33 11 -46
28 -18 22 -21 35 -16 75 l5 48 -43 -38 c-67 -58 -151 -105 -200 -110 -35 -4
-48 -1 -65 16 -25 25 -27 64 -6 105 8 15 15 30 15 33 0 2 -22 -15 -50 -39
-112 -98 -219 -140 -260 -103 -24 22 -26 68 -5 109 8 15 15 30 15 32 0 2 -28
-19 -62 -47 -73 -59 -166 -109 -203 -109 -14 0 -34 9 -45 20 -45 45 -16 106
114 249 79 86 94 121 53 121 -34 0 -136 -64 -229 -144 -68 -59 -315 -339 -434
-493 l-25 -33 1700 0 1701 0 0 950 0 950 -4900 0 -4900 0 0 -950z m2724 691
c3 -5 -29 -25 -71 -46 -43 -20 -93 -48 -111 -61 l-33 -26 35 -38 c19 -22 45
-58 58 -82 20 -37 23 -58 23 -143 0 -93 -2 -105 -34 -170 -47 -96 -142 -190
-241 -238 -100 -49 -213 -67 -291 -46 -35 9 -54 19 -54 29 0 10 7 13 20 10 11
-3 52 -5 90 -5 59 0 81 5 136 32 82 41 146 97 205 179 105 147 123 321 44 415
l-27 33 -59 -59 c-94 -94 -172 -196 -323 -419 -187 -275 -247 -354 -355 -462
-190 -191 -408 -294 -623 -294 -103 0 -155 12 -202 47 -46 35 -65 84 -51 129
11 34 51 64 85 64 21 0 55 -36 55 -60 0 -32 -37 -63 -71 -58 -35 5 -38 -10 -6
-40 76 -72 264 -69 411 5 83 42 136 82 230 172 107 104 206 224 398 482 157
210 289 358 405 454 82 68 82 69 -16 106 -218 83 -532 56 -800 -67 -187 -86
-375 -254 -446 -398 -62 -124 -61 -229 1 -290 82 -79 248 -80 421 -1 197 90
405 294 437 429 20 84 -25 121 -142 114 -65 -5 -88 -12 -179 -58 -84 -43 -123
-70 -193 -137 -48 -45 -105 -108 -125 -138 -43 -62 -69 -75 -34 -17 96 157
261 299 415 353 82 30 181 36 225 15 158 -75 26 -368 -243 -540 -127 -81 -281
-123 -417 -113 -123 8 -193 48 -232 132 -37 80 -15 213 54 321 124 197 374
363 664 441 89 24 116 27 283 27 203 1 259 -8 376 -63 l60 -28 64 38 c55 34
150 77 172 78 4 1 9 -3 12 -8z m3231 -159 c77 -14 39 -24 -80 -23 -140 2 -237
-14 -351 -58 -99 -38 -161 -77 -224 -140 -109 -109 -127 -228 -44 -300 45 -40
93 -60 171 -73 l63 -10 103 96 c190 177 360 295 572 397 140 68 245 99 332 99
76 0 108 -13 124 -52 26 -64 -37 -161 -173 -263 -71 -53 -263 -152 -378 -193
-120 -44 -303 -91 -384 -99 -61 -5 -72 -10 -100 -40 -70 -77 -148 -192 -176
-260 -53 -126 -37 -217 43 -254 134 -60 376 32 534 205 90 98 105 183 38 215
-65 31 -213 -27 -336 -132 -41 -35 -94 -91 -119 -125 -24 -34 -48 -62 -53 -62
-22 0 47 94 128 175 102 102 172 147 263 170 120 31 192 -3 192 -90 0 -78 -59
-167 -170 -256 -173 -139 -405 -188 -527 -113 -30 19 -55 45 -71 74 -21 40
-23 55 -20 132 4 77 9 96 45 170 23 46 58 105 78 131 20 26 32 47 28 47 -32 1
-148 32 -180 49 -50 25 -97 78 -113 127 -18 53 -7 134 26 195 66 121 242 227
431 259 61 10 275 11 328 2z m-1151 -218 c44 -43 3 -120 -133 -254 -99 -98
-238 -205 -380 -292 -62 -38 -108 -90 -203 -227 -53 -77 -80 -135 -71 -158 8
-22 77 -15 129 13 50 27 150 104 218 168 60 56 64 30 4 -31 -112 -115 -256
-203 -331 -203 -27 0 -45 7 -62 25 -30 29 -32 67 -6 134 l19 50 -86 -74 c-94
-82 -184 -135 -228 -135 -39 0 -64 26 -64 67 l0 35 -49 -36 c-94 -69 -156 -82
-196 -41 -27 26 -33 73 -15 120 9 23 3 21 -44 -22 -73 -65 -156 -114 -204
-120 -32 -4 -44 -1 -61 16 -42 42 -22 102 66 203 65 74 113 138 113 150 0 4
-13 8 -28 8 -51 0 -152 -76 -300 -226 l-143 -145 -43 3 -43 3 125 150 c127
153 160 204 139 217 -22 14 -88 -35 -221 -163 -75 -73 -151 -143 -169 -157
-44 -33 -107 -62 -138 -62 -37 0 -62 32 -57 73 l4 34 -71 -49 c-84 -58 -137
-71 -174 -41 -19 16 -24 29 -24 65 0 63 36 131 107 203 105 104 266 165 316
120 11 -10 20 -25 20 -34 0 -10 10 -5 33 17 25 24 42 32 70 32 20 0 37 -3 37
-7 0 -5 -45 -64 -101 -133 -112 -140 -159 -207 -159 -227 0 -25 48 -13 110 28
33 23 116 95 182 161 168 167 232 204 280 161 22 -20 23 -64 2 -106 -16 -31
-16 -31 3 -17 11 8 45 35 74 59 96 78 170 100 209 61 39 -39 21 -91 -71 -203
-77 -93 -109 -137 -109 -148 0 -19 58 -7 105 21 51 30 106 75 260 212 48 43
111 89 140 104 94 45 176 45 197 -2 l11 -25 28 31 c22 24 36 30 68 30 23 0 41
-4 41 -10 0 -5 -41 -58 -90 -117 -100 -118 -170 -218 -170 -239 0 -28 56 -15
115 27 102 71 255 210 319 287 296 365 468 541 590 606 56 30 88 33 110 10z
m2874 -346 c18 -18 15 -39 -10 -65 -26 -28 -64 -30 -78 -4 -14 28 -13 38 10
61 22 22 60 26 78 8z M6382 1415 c-139 -48 -288 -138 -467 -282 -130 -105
-270 -236 -257 -241 19 -6 219 40 322 75 373 126 685 366 594 457 -23 24 -107
20 -192 -9z M4680 1196 c-30 -24 -85 -76 -121 -117 -81 -92 -269 -318 -269
-324 0 -7 137 89 220 155 154 121 280 262 280 312 0 33 -51 22 -110 -26z
M2400 653 c-54 -27 -191 -172 -229 -242 -18 -34 -30 -69 -27 -77 16 -43 133
22 233 129 108 116 141 199 83 205 -14 1 -41 -6 -60 -15z M3664 652 c-72 -40
-195 -167 -234 -241 -46 -88 -24 -114 61 -75 109 51 285 265 258 315 -12 23
-44 24 -85 1z M9190 1241 c-57 -31 -257 -245 -425 -456 l-40 -49 35 24 c154
106 365 283 426 356 53 66 76 114 63 131 -14 16 -16 16 -59 -6z M6401 659
c-65 -26 -224 -195 -256 -272 -22 -54 -20 -67 14 -67 42 0 140 69 215 152 80
87 116 150 100 175 -13 21 -40 26 -73 12z M8139 650 c-86 -45 -249 -244 -249
-302 0 -24 4 -28 27 -28 40 0 115 53 198 142 81 86 118 146 113 181 -4 29 -42
32 -89 7z"/>
</g>
</svg>
