<?xml version="1.0" encoding="UTF-8"?>
<svg version="1.0" xmlns="http://www.w3.org/2000/svg"
 width="512" height="512" viewBox="0 0 512 512"
 preserveAspectRatio="xMidYMid meet">
<title>Panal Capital favicon</title>
<rect width="512" height="512" fill="#000000"/>
<g transform="translate(17.6 62.2) scale(0.85)">
<g transform="translate(0.000000,430.000000) scale(0.100000,-0.100000)"
fill="#ffffff" stroke="none">
<path d="M4232 3839 c-87 -15 -156 -44 -257 -110 -112 -72 -166 -84 -251 -55
-63 21 -71 20 -48 -5 34 -38 95 -61 174 -68 l75 -6 -70 -40 c-196 -113 -339
-133 -481 -66 -37 17 -69 29 -72 26 -23 -22 154 -136 235 -151 44 -8 42 -20
-4 -27 -52 -9 -128 -48 -188 -98 -87 -72 -118 -84 -218 -83 -97 1 -105 -13
-22 -36 86 -24 155 -3 260 80 81 64 121 83 250 114 61 15 126 36 145 46 l35
18 -81 -5 c-61 -4 -100 -1 -155 13 l-74 19 87 6 c126 10 191 36 376 147 110
67 220 112 273 112 51 0 46 -7 -36 -51 -151 -80 -259 -173 -489 -419 -295
-317 -443 -435 -668 -539 -165 -76 -271 -103 -576 -151 -112 -17 -232 -40
-266 -51 -145 -44 -272 -118 -361 -208 l-49 -51 -99 0 c-122 0 -218 -21 -326
-71 -215 -100 -349 -252 -457 -517 -65 -158 -103 -201 -240 -268 -195 -94
-290 -199 -329 -366 -16 -67 -20 -158 -7 -158 4 0 20 20 35 44 61 97 139 146
312 195 290 83 416 206 493 483 55 195 107 293 206 386 92 87 220 159 318 179
l28 5 -30 -53 c-71 -128 -91 -266 -66 -443 9 -60 16 -126 16 -146 0 -98 -66
-194 -181 -261 -38 -22 -77 -51 -85 -65 -9 -13 -30 -75 -46 -137 -41 -160
-101 -277 -177 -349 -53 -51 -60 -63 -63 -100 l-3 -43 -55 -5 c-73 -7 -107
-30 -137 -96 -28 -61 -50 -171 -40 -197 18 -47 168 22 275 126 43 41 96 86
119 100 55 35 86 77 130 178 114 264 231 381 613 616 168 103 257 191 319 318
22 45 41 67 73 86 127 79 220 102 544 139 463 52 657 107 865 247 58 38 72 43
101 38 65 -12 165 28 349 140 285 174 369 213 369 169 0 -37 -50 -125 -101
-179 -37 -39 -52 -63 -54 -87 l-2 -33 -51 3 c-35 3 -58 -1 -76 -13 -34 -22
-97 -150 -103 -209 -6 -45 -5 -46 24 -46 67 0 202 60 266 119 23 21 61 48 84
59 55 28 75 60 107 163 14 47 48 131 75 185 61 122 66 143 51 191 -16 50 -46
81 -90 94 -32 10 -57 6 -181 -24 -79 -20 -161 -39 -181 -42 l-36 -7 21 44 c19
37 23 67 28 213 5 114 12 184 22 211 46 124 107 190 195 209 32 7 32 6 32 -31
0 -79 60 -158 158 -208 26 -13 80 -58 120 -99 70 -73 72 -76 72 -125 0 -44 4
-54 31 -76 17 -14 34 -26 39 -26 5 0 15 -3 24 -6 31 -12 16 24 -19 45 -33 19
-35 24 -35 71 0 48 -3 54 -73 133 -49 55 -91 92 -130 113 -139 74 -179 172
-117 286 11 21 16 39 11 42 -9 6 -55 -41 -64 -65 -4 -12 -13 -15 -31 -12 -38
8 -129 -41 -171 -90 -72 -84 -110 -209 -103 -341 3 -65 3 -65 -17 -46 -53 49
-174 67 -259 38 -70 -24 -53 -34 48 -30 149 7 205 -24 213 -115 6 -59 -30
-134 -68 -145 -112 -31 -139 -41 -168 -62 -42 -31 -81 -84 -81 -110 0 -17 9
-12 48 26 60 60 110 82 252 108 63 12 168 35 232 51 149 37 190 38 217 3 33
-42 27 -91 -24 -193 -25 -49 -59 -131 -75 -182 -38 -116 -49 -133 -103 -160
-23 -12 -63 -41 -89 -66 -47 -43 -101 -72 -172 -92 -33 -9 -36 -8 -36 12 0 27
51 138 72 154 9 8 37 12 70 10 50 -2 54 -4 50 -24 -6 -32 15 -29 31 5 10 18
11 36 6 57 -12 41 -6 53 46 104 46 45 105 151 105 191 0 41 -18 60 -58 60 -51
-1 -96 -23 -320 -157 -214 -128 -287 -162 -348 -163 -58 0 -85 25 -133 124
-41 85 -73 118 -123 131 -37 9 -44 -11 -10 -29 42 -22 77 -67 102 -132 11 -31
30 -68 41 -82 l20 -26 -68 -44 c-191 -124 -400 -181 -833 -227 -265 -29 -401
-61 -506 -119 -24 -14 -44 -23 -44 -21 0 2 22 55 49 117 27 62 47 117 43 122
-12 20 -64 -63 -133 -216 -40 -88 -85 -179 -101 -203 -46 -70 -156 -166 -268
-235 -369 -225 -506 -362 -615 -610 -52 -120 -71 -148 -129 -185 -28 -18 -64
-47 -80 -64 -34 -35 -46 -28 -46 29 0 24 6 39 20 48 14 8 20 23 20 49 0 31 9
46 64 102 86 90 129 177 180 367 31 119 37 129 98 160 28 14 73 47 100 72 103
96 129 183 104 344 -9 54 -16 131 -16 171 1 298 225 566 552 661 46 13 164 36
263 51 287 42 423 80 601 164 206 98 343 207 600 478 240 252 323 332 424 404
76 55 215 131 281 154 18 7 8 10 -43 12 -38 2 -68 8 -68 12 0 12 161 31 260
31 121 0 90 22 -40 28 -130 6 -224 -9 -385 -63 -71 -24 -148 -46 -170 -50
l-40 -6 50 28 c28 16 72 44 100 61 112 72 245 100 399 83 99 -11 231 -48 298
-83 36 -19 41 -19 55 -5 14 14 11 17 -28 38 -154 78 -369 114 -527 88z m-2575
-1695 c-180 -43 -384 -207 -465 -374 -23 -47 -58 -141 -77 -210 -80 -275 -189
-383 -469 -461 -126 -35 -191 -65 -248 -117 -38 -34 -40 -35 -34 -12 4 14 23
57 42 96 48 100 122 167 261 235 162 79 201 124 286 329 52 127 101 204 184
291 147 154 327 237 513 237 l65 0 -58 -14z m-610 -1736 c11 -62 11 -63 -15
-86 -25 -21 -122 -72 -138 -72 -14 0 6 101 29 147 24 48 55 73 93 73 17 0 22
-10 31 -62z M4925 3814 c-58 -39 -92 -72 -126 -126 -17 -26 -47 -58 -67 -70
l-37 -23 27 -3 c38 -4 73 22 119 89 33 49 85 99 103 99 9 0 -21 -88 -43 -126
-12 -20 -20 -39 -17 -41 11 -11 49 21 62 52 7 19 24 37 36 41 13 3 35 15 51
26 31 22 33 19 11 -25 -26 -49 -52 -79 -59 -67 -9 14 -27 13 -23 -2 2 -7 37
-78 80 -158 56 -106 82 -168 96 -230 12 -47 41 -156 66 -242 58 -196 58 -231
7 -285 -32 -33 -41 -28 -41 21 0 43 14 70 22 44 7 -19 28 1 28 27 0 30 -14 39
-40 25 -41 -22 -63 -98 -40 -141 9 -17 7 -19 -16 -19 -22 0 -25 -2 -14 -15 32
-38 118 0 157 70 33 59 29 102 -31 312 -30 104 -59 216 -65 247 -6 32 -26 83
-45 114 -18 32 -50 90 -71 131 l-36 73 20 22 c27 29 68 114 76 159 8 39 -3 49
-25 22 -7 -8 -35 -28 -62 -45 l-50 -31 6 36 c4 20 10 43 13 51 9 23 -28 17
-72 -12z M4910 3371 c0 -16 73 -71 93 -71 11 0 32 -8 48 -17 35 -21 43 -15 29
23 -14 36 -26 44 -70 44 -19 0 -46 7 -60 15 -30 17 -40 18 -40 6z M3545 3162
c-58 -20 -97 -46 -174 -116 -61 -55 -144 -97 -208 -104 -51 -6 -64 -19 -28
-28 81 -20 177 20 286 121 46 42 105 88 131 101 80 41 76 55 -7 26z M1444
1864 c-8 -20 -26 -84 -39 -143 -41 -186 -94 -300 -202 -434 -124 -154 -283
-257 -476 -308 -120 -31 -112 -50 13 -31 145 21 271 86 400 208 180 170 261
322 304 572 13 76 27 145 31 155 4 10 3 17 -4 17 -7 0 -19 -16 -27 -36z"/>
</g>
</g>
</svg>
