<?xml version="1.0" encoding="UTF-8"?>
<svg xmlns="http://www.w3.org/2000/svg" viewBox="0 0 720 420" fill="none" aria-labelledby="title desc" role="img">
  <title id="title">Panal Capital jumping horse mark</title>
  <desc id="desc">A refined warm ivory monoline drawing of an elegant jumping horse in full profile on a transparent background.</desc>
  <g stroke="#f1ead8" stroke-width="3.4" stroke-linecap="round" stroke-linejoin="round" vector-effect="non-scaling-stroke">
    <path d="M119 250 C158 222 196 214 231 202 C278 185 318 176 356 147 C386 124 410 90 448 71 C480 55 514 57 540 74" />
    <path d="M538 73 C548 55 563 42 582 33 C579 50 571 63 558 73 C575 80 589 98 596 119 C603 141 600 161 589 173 C581 181 568 177 563 166 C559 158 566 151 576 148" />
    <path d="M576 148 C556 153 539 148 527 135 C518 125 516 113 506 109 C492 104 477 116 466 134 C455 153 437 170 411 181" />
    <path d="M448 71 C431 90 413 112 392 130 C375 145 359 158 341 168" />
    <path d="M411 181 C401 207 377 227 339 238 C296 249 248 243 209 224" />
    <path d="M231 202 C211 209 197 223 189 240 C184 252 186 262 195 270" />
    <path d="M389 191 C412 199 424 212 424 227 C424 241 413 251 397 253 C385 253 379 247 381 238 C383 228 397 220 411 216" />
    <path d="M414 184 C436 189 451 200 456 214 C460 227 451 239 434 247 C426 238 428 226 439 215" />
    <path d="M214 225 C199 251 184 277 158 302 C141 319 124 331 106 340 C96 345 87 344 81 337 C91 330 104 322 117 311 C134 297 144 278 151 259" />
    <path d="M194 244 C179 267 159 290 134 308 C119 319 104 326 92 328" />
    <path d="M190 239 C156 230 119 240 88 263 C66 280 48 289 28 289" />
    <path d="M193 252 C160 254 130 271 102 295 C82 314 63 322 46 321" />
    <path d="M200 264 C171 280 151 307 124 333 C104 351 84 359 67 354" />
    <path d="M525 76 C503 68 479 72 456 87" />
    <path d="M515 88 C490 83 466 93 444 110" />
    <path d="M500 102 C476 101 453 115 431 134" />
    <path d="M481 119 C459 124 439 140 421 157" />
    <path d="M548 73 C550 61 557 50 567 43" />
    <path d="M580 35 C589 40 594 49 592 59" />
    <path d="M551 111 C554 109 557 109 560 111" />
    <path d="M585 155 C588 152 592 151 594 154" />
    <path d="M392 189 C372 177 350 172 326 174" />
    <path d="M317 238 C309 249 304 261 305 274" />
  </g>
</svg>
