<?xml version="1.0" encoding="UTF-8"?>
<!-- Panal Capital outlined wordmark. Generated from local Apple Chancery and retained as editable SVG paths for consistent rendering. -->
<svg xmlns="http://www.w3.org/2000/svg" viewBox="0 0 765 237" role="img" aria-label="Panal Capital wordmark">
  <g transform="translate(36 20)">
    <path fill="#f1ead8" d="M31.63 125.61L31.63 125.61L46.84 126.47L39.93 133.15L13.37 131.89L20.80 124.74L27.02 125.43Q34.05 121.00 35.67 107.28L35.67 107.28L36.30 101.69L41.20 58.02Q14.98 62.98 14.98 77.78L14.98 77.78Q14.98 83.72 17.46 88.33L17.46 88.33L8.18 96.51Q6.97 92.07 6.97 87.52L6.97 87.52Q6.97 71.85 20.28 61.97Q33.59 52.09 54.74 52.09L54.74 52.09Q83.08 52.09 83.08 70.64L83.08 70.64Q83.08 82.39 72.54 90.75Q62.00 99.10 45.81 100.08L45.81 100.08Q44.42 113.51 42.18 117.60Q39.93 121.69 31.63 125.61ZM50.53 57.33L50.53 57.33L46.44 94.09Q49.67 94.67 52.09 94.67L52.09 94.67Q74.15 94.67 74.15 75.36L74.15 75.36Q74.15 57.33 50.53 57.33ZM120.25 113.28L120.88 109.01Q114.37 119.73 106.56 126.56Q98.76 133.38 92.99 133.38L92.99 133.38Q85.10 133.38 85.10 120.65L85.10 120.65Q85.10 103.13 96.60 90.31Q108.09 77.50 123.82 77.50L123.82 77.50Q129.81 77.50 134.02 78.99L134.02 78.99Q133.73 80.03 133.67 80.26L133.67 80.26L132.98 83.31Q132.29 86.48 132.23 87.00L132.23 87.00L128.54 112.47L128.03 116.16Q127.28 121.63 127.28 123.47L127.28 123.47Q127.28 125.95 128.72 125.95L128.72 125.95Q133.56 125.95 138.63 115.12L138.63 115.12Q140.18 116.04 140.18 116.96L140.18 116.96Q140.18 118.98 135.23 125.09L135.23 125.09Q128.49 133.38 122.72 133.38L122.72 133.38Q118.52 133.38 118.52 127.74L118.52 127.74Q118.52 126.01 118.92 122.96L118.92 122.96L119.50 118.35L120.25 113.28ZM123.24 92.36L124.17 86.14Q118.92 83.20 113.56 83.20L113.56 83.20Q105.50 83.20 100.02 93.05Q94.55 102.90 94.55 117.48L94.55 117.48Q94.55 124.97 98.99 124.97L98.99 124.97Q104.11 124.97 111.37 117.14L111.37 117.14Q121.17 106.59 123.24 92.36L123.24 92.36ZM162.71 116.04L161.16 129.87L152.57 133.38L152.74 131.77L153.20 127.51L153.67 123.47L156.66 96.74L157.01 93.69Q157.35 90.11 157.35 87.92L157.35 87.92Q157.35 84.24 155.51 84.24L155.51 84.24Q151.19 84.24 146.23 94.03L146.23 94.03Q144.91 92.94 144.91 92.13L144.91 92.13Q144.91 88.67 151.22 82.71Q157.53 76.75 161.16 76.75L161.16 76.75Q166.11 76.75 166.11 83.08L166.11 83.08Q166.11 84.70 165.82 87.41L165.82 87.41L165.36 92.07L164.90 95.99L164.44 100.08Q171.24 89.94 179.33 83.34Q187.43 76.75 193.13 76.75L193.13 76.75Q198.72 76.75 198.72 84.52L198.72 84.52Q198.72 86.89 198.09 91.61L198.09 91.61L194.98 113.10Q194.05 119.56 194.05 123.30L194.05 123.30Q194.05 126.30 195.67 126.30L195.67 126.30Q199.64 126.30 205.46 115.70L205.46 115.70Q206.85 116.56 206.85 117.48L206.85 117.48Q206.85 121.23 200.42 127.31Q194.00 133.38 189.96 133.38L189.96 133.38Q185.47 133.38 185.47 126.93L185.47 126.93Q185.47 122.21 186.68 113.85L186.68 113.85L188.70 99.91Q189.68 93.11 189.68 89.13L189.68 89.13Q189.68 84.58 186.51 84.58L186.51 84.58Q179.13 84.58 171.56 94.58Q163.98 104.58 162.71 116.04L162.71 116.04ZM247.41 113.28L248.04 109.01Q241.53 119.73 233.72 126.56Q225.92 133.38 220.16 133.38L220.16 133.38Q212.26 133.38 212.26 120.65L212.26 120.65Q212.26 103.13 223.76 90.31Q235.25 77.50 250.98 77.50L250.98 77.50Q256.97 77.50 261.18 78.99L261.18 78.99Q260.89 80.03 260.83 80.26L260.83 80.26L260.14 83.31Q259.45 86.48 259.39 87.00L259.39 87.00L255.71 112.47L255.19 116.16Q254.44 121.63 254.44 123.47L254.44 123.47Q254.44 125.95 255.88 125.95L255.88 125.95Q260.72 125.95 265.79 115.12L265.79 115.12Q267.34 116.04 267.34 116.96L267.34 116.96Q267.34 118.98 262.39 125.09L262.39 125.09Q255.65 133.38 249.89 133.38L249.89 133.38Q245.68 133.38 245.68 127.74L245.68 127.74Q245.68 126.01 246.08 122.96L246.08 122.96L246.66 118.35L247.41 113.28ZM250.40 92.36L251.33 86.14Q246.08 83.20 240.72 83.20L240.72 83.20Q232.66 83.20 227.18 93.05Q221.71 102.90 221.71 117.48L221.71 117.48Q221.71 124.97 226.15 124.97L226.15 124.97Q231.28 124.97 238.54 117.14L238.54 117.14Q248.33 106.59 250.40 92.36L250.40 92.36ZM296.15 114.95L296.15 114.95Q297.82 115.75 297.82 117.02L297.82 117.02Q297.82 121.17 291.63 127.28Q285.44 133.38 281.23 133.38L281.23 133.38Q276.45 133.38 276.45 126.47L276.45 126.47Q276.45 122.26 276.97 117.88L276.97 117.88L277.60 112.76L282.04 72.66Q284.11 54.33 294.63 42.06Q305.14 29.79 318.85 29.79L318.85 29.79Q322.20 29.79 324.50 30.36L324.50 30.36L316.32 38.72Q313.61 37.80 309.98 37.80L309.98 37.80Q301.34 37.80 297.05 43.88Q292.75 49.95 291.14 64.47L291.14 64.47L285.78 112.76Q285.15 118.35 285.15 120.77L285.15 120.77Q285.15 125.95 286.93 125.95L286.93 125.95Q289.07 125.95 291.95 122.52Q294.83 119.09 296.15 114.95ZM398.37 111.78L398.37 111.78Q399.69 112.41 399.69 113.62L399.69 113.62Q399.69 117.42 392.72 123.65L392.72 123.65Q380.91 134.19 365.87 134.19L365.87 134.19Q353.71 134.19 346.48 125.40Q339.25 116.62 339.25 101.81L339.25 101.81Q339.25 80.66 352.79 66.38Q366.33 52.09 386.38 52.09L386.38 52.09Q396.58 52.09 407.53 55.95L407.53 55.95L403.67 64.42L402.57 66.89Q401.19 69.83 399.17 69.83L399.17 69.83Q398.77 69.83 397.96 69.66L397.96 69.66Q398.77 67.87 398.77 66.72L398.77 66.72Q398.77 62.86 393.61 59.98Q388.46 57.10 381.60 57.10L381.60 57.10Q367.54 57.10 358.75 68.22Q349.97 79.34 349.97 97.14L349.97 97.14Q349.97 110.91 356.13 119.09Q362.30 127.28 372.61 127.28L372.61 127.28Q380.04 127.28 387.45 122.81Q394.85 118.35 398.37 111.78ZM445.67 113.28L446.30 109.01Q439.79 119.73 431.98 126.56Q424.18 133.38 418.42 133.38L418.42 133.38Q410.52 133.38 410.52 120.65L410.52 120.65Q410.52 103.13 422.02 90.31Q433.51 77.50 449.24 77.50L449.24 77.50Q455.23 77.50 459.44 78.99L459.44 78.99Q459.15 80.03 459.09 80.26L459.09 80.26L458.40 83.31Q457.71 86.48 457.65 87.00L457.65 87.00L453.97 112.47L453.45 116.16Q452.70 121.63 452.70 123.47L452.70 123.47Q452.70 125.95 454.14 125.95L454.14 125.95Q458.98 125.95 464.05 115.12L464.05 115.12Q465.60 116.04 465.60 116.96L465.60 116.96Q465.60 118.98 460.65 125.09L460.65 125.09Q453.91 133.38 448.15 133.38L448.15 133.38Q443.94 133.38 443.94 127.74L443.94 127.74Q443.94 126.01 444.34 122.96L444.34 122.96L444.92 118.35L445.67 113.28ZM448.67 92.36L449.59 86.14Q444.34 83.20 438.99 83.20L438.99 83.20Q430.92 83.20 425.45 93.05Q419.97 102.90 419.97 117.48L419.97 117.48Q419.97 124.97 424.41 124.97L424.41 124.97Q429.54 124.97 436.80 117.14L436.80 117.14Q446.59 106.59 448.67 92.36L448.67 92.36ZM485.77 132.63L483.81 132.58L483.35 137.13Q481.56 154.99 470.44 167.67Q459.32 180.34 445.44 180.34L445.44 180.34Q442.56 180.34 439.91 179.65L439.91 179.65L448.26 171.35Q451.55 172.33 454.48 172.33L454.48 172.33Q471.65 172.33 474.30 145.60L474.30 145.60L480.30 85.85Q477.59 87.87 474.48 90.52L474.48 90.52Q470.67 93.74 467.79 95.59L467.79 95.59L468.25 90.98Q477.99 85.22 489.63 74.50L489.63 74.50L486.98 101.18Q493.09 90.46 500.69 83.60Q508.30 76.75 514.06 76.75L514.06 76.75Q522.36 76.75 522.36 90.92L522.36 90.92Q522.36 107.80 511.47 120.22Q500.58 132.63 485.77 132.63L485.77 132.63ZM485.31 117.77L484.68 123.99Q489.34 126.93 495.22 126.93L495.22 126.93Q503.11 126.93 508.04 117.71Q512.97 108.49 512.97 93.80L512.97 93.80Q512.97 85.22 508.30 85.22L508.30 85.22Q503.17 85.22 496.14 93.05L496.14 93.05Q486.75 103.48 485.31 117.77L485.31 117.77ZM557.68 115.12L557.68 115.12Q559.23 116.04 559.23 116.91L559.23 116.91Q559.23 118.98 554.22 125.09L554.22 125.09Q547.48 133.38 541.72 133.38L541.72 133.38Q537.51 133.38 537.51 127.79L537.51 127.79Q537.51 125.43 539.24 113.28L539.24 113.28L541.49 97.60L542.06 93.63L542.52 90.46Q542.81 88.44 542.81 87.06L542.81 87.06Q542.81 84.18 541.20 84.18L541.20 84.18Q536.70 84.18 531.52 94.09L531.52 94.09Q530.42 93.11 530.42 92.13L530.42 92.13Q530.42 88.62 536.91 82.68Q543.39 76.75 547.25 76.75L547.25 76.75Q551.57 76.75 551.57 82.74L551.57 82.74Q551.57 83.89 551.11 87.46L551.11 87.46L550.59 91.32Q550.53 91.78 549.96 95.99L549.96 95.99L547.59 112.47L547.02 116.16Q546.27 121.63 546.27 123.47L546.27 123.47Q546.27 125.95 547.71 125.95L547.71 125.95Q552.55 125.95 557.68 115.12ZM546.10 69.31L546.10 69.31L550.94 57.39Q557.39 54.74 561.54 50.07L561.54 50.07Q562.11 50.88 562.11 51.74L562.11 51.74Q562.11 59.46 546.10 69.31ZM601.18 84.93L582.74 84.93L579.86 110.39Q579.11 117.25 579.11 120.54L579.11 120.54Q579.11 127.05 583.55 127.05L583.55 127.05Q588.33 127.05 593.46 119.21L593.46 119.21Q594.32 120.30 594.32 121.17L594.32 121.17Q594.32 124.40 588.65 128.89Q582.97 133.38 578.88 133.38L578.88 133.38Q570.70 133.38 570.70 122.90L570.70 122.90Q570.70 119.04 571.68 110.39L571.68 110.39L574.50 84.93L562.34 84.93L569.08 78.24L575.25 78.24L576.46 67.76L584.93 64.93L583.49 78.24L607.92 78.24L601.18 84.93ZM641.63 113.28L642.26 109.01Q635.75 119.73 627.94 126.56Q620.13 133.38 614.37 133.38L614.37 133.38Q606.48 133.38 606.48 120.65L606.48 120.65Q606.48 103.13 617.97 90.31Q629.47 77.50 645.20 77.50L645.20 77.50Q651.19 77.50 655.40 78.99L655.40 78.99Q655.11 80.03 655.05 80.26L655.05 80.26L654.36 83.31Q653.67 86.48 653.61 87.00L653.61 87.00L649.92 112.47L649.40 116.16Q648.65 121.63 648.65 123.47L648.65 123.47Q648.65 125.95 650.09 125.95L650.09 125.95Q654.93 125.95 660.00 115.12L660.00 115.12Q661.56 116.04 661.56 116.96L661.56 116.96Q661.56 118.98 656.61 125.09L656.61 125.09Q649.86 133.38 644.10 133.38L644.10 133.38Q639.90 133.38 639.90 127.74L639.90 127.74Q639.90 126.01 640.30 122.96L640.30 122.96L640.88 118.35L641.63 113.28ZM644.62 92.36L645.54 86.14Q640.30 83.20 634.94 83.20L634.94 83.20Q626.88 83.20 621.40 93.05Q615.93 102.90 615.93 117.48L615.93 117.48Q615.93 124.97 620.36 124.97L620.36 124.97Q625.49 124.97 632.75 117.14L632.75 117.14Q642.55 106.59 644.62 92.36L644.62 92.36ZM690.37 114.95L690.37 114.95Q692.04 115.75 692.04 117.02L692.04 117.02Q692.04 121.17 685.85 127.28Q679.65 133.38 675.45 133.38L675.45 133.38Q670.66 133.38 670.66 126.47L670.66 126.47Q670.66 122.26 671.18 117.88L671.18 117.88L671.82 112.76L676.25 72.66Q678.33 54.33 688.84 42.06Q699.36 29.79 713.07 29.79L713.07 29.79Q716.41 29.79 718.72 30.36L718.72 30.36L710.54 38.72Q707.83 37.80 704.20 37.80L704.20 37.80Q695.55 37.80 691.26 43.88Q686.97 49.95 685.36 64.47L685.36 64.47L680.00 112.76Q679.36 118.35 679.36 120.77L679.36 120.77Q679.36 125.95 681.15 125.95L681.15 125.95Q683.28 125.95 686.16 122.52Q689.04 119.09 690.37 114.95Z"/>
  </g>
</svg>
