<?xml version="1.0" standalone="no"?>
<!DOCTYPE svg PUBLIC "-//W3C//DTD SVG 20010904//EN"
 "http://www.w3.org/TR/2001/REC-SVG-20010904/DTD/svg10.dtd">
<svg version="1.0" xmlns="http://www.w3.org/2000/svg"
 width="980" height="190" viewBox="0 0 980.000000 190.000000"
 preserveAspectRatio="xMidYMid meet">
<g transform="translate(0.000000,190.000000) scale(0.100000,-0.100000)"
fill="#f1ead8" stroke="none">
<path d="M2654 1629 c-28 -10 -79 -36 -114 -58 l-64 -38 -60 28 c-117 55 -173
64 -376 63 l-185 0 -98 -27 c-347 -93 -622 -303 -713 -543 -55 -148 -12 -278
111 -330 54 -22 177 -29 261 -15 184 32 383 157 491 308 149 209 115 365 -76
350 -191 -14 -413 -170 -540 -379 -35 -58 -9 -45 34 17 20 30 77 93 125 138
70 67 109 94 193 137 l105 53 74 5 c90 5 133 -12 143 -57 14 -66 -29 -153
-134 -264 -164 -172 -372 -280 -542 -280 -213 0 -287 141 -184 349 71 144 259
312 446 398 216 99 470 138 669 102 78 -14 174 -47 203 -69 l16 -12 -72 -60
c-116 -96 -248 -244 -405 -454 -306 -411 -455 -567 -628 -654 -147 -74 -335
-77 -411 -5 -32 30 -29 45 6 40 34 -5 71 26 71 58 0 24 -34 60 -55 60 -34 0
-74 -30 -85 -64 -21 -66 35 -140 125 -165 22 -6 80 -11 128 -11 215 0 433 103
623 294 108 108 168 187 355 462 151 223 229 325 323 419 l59 59 27 -33 c79
-94 61 -268 -44 -415 -59 -82 -123 -138 -205 -179 l-65 -32 -71 0 c-38 0 -79
2 -90 5 -13 3 -20 0 -20 -10 0 -10 19 -20 54 -29 l54 -15 81 12 c167 24 324
138 397 287 l34 70 0 100 0 100 -23 43 c-13 24 -39 60 -58 82 l-35 38 33 26
c18 13 68 41 111 61 42 21 74 41 71 46 -7 12 -10 11 -70 -12z"/>
<path d="M5627 1480 c-249 -42 -447 -197 -464 -364 -13 -130 66 -218 226 -252
36 -7 70 -14 74 -14 4 0 -8 -21 -28 -47 -20 -26 -55 -85 -78 -131 l-41 -83 -4
-87 -4 -87 24 -45 c68 -127 254 -145 463 -46 119 56 237 163 286 258 27 53 25
123 -4 152 -50 50 -175 39 -287 -27 -67 -39 -227 -196 -258 -254 -34 -63 -13
-52 38 19 90 124 247 234 370 260 l56 11 29 -14 c67 -32 52 -117 -38 -215
-158 -173 -400 -265 -534 -205 -135 62 -77 283 133 514 l32 34 68 6 c154 15
399 94 587 189 245 125 386 273 348 366 -16 39 -48 52 -124 52 -87 0 -192 -31
-332 -99 -212 -102 -382 -220 -572 -397 l-103 -96 -63 10 c-237 38 -294 205
-127 373 63 63 125 102 224 140 114 44 211 60 351 58 119 -1 157 9 80 23 -53
9 -267 8 -328 -2z m947 -56 c91 -91 -221 -331 -594 -457 -103 -35 -303 -81
-322 -75 -6 2 27 39 73 82 171 159 384 318 521 387 138 70 286 99 322 63z"/>
<path d="M9163 1265 c-111 -56 -292 -235 -539 -535 -155 -189 -258 -289 -381
-373 -56 -37 -103 -48 -103 -24 0 19 83 134 184 255 47 56 86 104 86 107 0 3
-20 5 -44 5 l-45 0 -30 -37 -31 -38 0 21 c0 38 -34 57 -89 52 -79 -8 -155 -53
-266 -159 -160 -153 -253 -219 -310 -219 -55 0 -30 47 140 259 l120 149 69 4
c89 4 103 26 20 30 l-58 3 78 93 c43 52 76 95 74 96 -1 1 -24 1 -50 -2 l-47
-4 -76 -93 -76 -94 -56 -3 c-70 -4 -84 -25 -19 -30 l44 -3 -77 -91 c-133 -157
-329 -314 -392 -314 -55 0 -37 32 132 237 60 72 109 134 109 137 0 3 -20 6
-44 6 l-43 0 -76 -89 c-142 -167 -393 -341 -405 -281 -1 9 37 62 87 118 115
132 138 181 111 233 -25 47 -146 8 -254 -81 -27 -22 -50 -40 -52 -40 -2 0 41
55 94 123 54 67 119 150 146 185 l47 62 -23 -1 c-48 -2 -67 -17 -165 -134
-144 -172 -341 -358 -477 -449 -46 -31 -86 -35 -86 -8 0 20 97 151 198 269 39
44 68 84 65 87 -4 3 -23 6 -44 6 l-37 0 -31 -35 c-24 -28 -31 -32 -31 -17 0
36 -35 55 -89 50 -153 -15 -353 -201 -355 -330 l-1 -50 24 -19 c42 -34 113
-16 196 51 l40 32 6 -42 c8 -59 41 -74 106 -49 39 15 165 111 247 188 l70 66
-75 -90 c-299 -357 -369 -443 -369 -449 0 -4 20 -6 45 -4 l45 3 188 225 c194
233 298 335 414 403 70 41 108 48 108 18 0 -10 -34 -56 -76 -102 -130 -143
-159 -204 -114 -249 11 -11 31 -20 45 -20 37 0 130 50 203 109 34 28 62 49 62
47 0 -2 -7 -17 -15 -32 -21 -41 -19 -87 5 -109 41 -37 148 5 260 103 55 48 57
48 35 6 -21 -41 -19 -80 6 -105 l21 -21 44 5 c49 5 133 52 200 110 l43 38 -5
-48 -6 -48 22 -27 c35 -46 98 -32 195 41 l51 38 -4 -34 c-3 -23 1 -40 13 -53
38 -42 110 -16 235 85 47 39 80 60 76 49 -16 -37 -24 -87 -19 -103 25 -70 96
-67 213 7 64 40 202 171 194 183 -3 5 -39 -21 -80 -57 -141 -123 -243 -173
-261 -128 -9 24 17 71 117 203 l92 122 106 71 c231 155 407 308 482 421 43 64
49 96 24 121 -22 22 -52 20 -111 -9z m86 -18 c41 -50 -195 -285 -489 -487
l-35 -24 40 49 c214 269 412 471 466 475 4 0 12 -6 18 -13z m-2775 -600 c36
-57 -223 -327 -315 -327 -34 0 -36 13 -14 67 32 77 191 246 256 272 33 14 60
9 73 -12z m1754 -4 c5 -35 -32 -95 -113 -181 -83 -89 -158 -142 -198 -142
l-27 0 0 28 c0 58 163 257 249 302 47 25 85 22 89 -7z"/>
<path d="M4694 1254 c-122 -65 -294 -241 -590 -606 -64 -77 -217 -216 -319
-287 -59 -42 -115 -55 -115 -27 0 21 70 121 170 239 49 59 90 112 90 117 0 6
-18 10 -41 10 -32 0 -46 -6 -68 -30 l-28 -31 -11 25 c-21 47 -103 47 -197 2
-29 -15 -92 -61 -140 -104 -154 -137 -209 -182 -260 -212 -47 -28 -105 -40
-105 -21 0 11 32 55 109 148 92 112 110 164 71 203 -39 39 -113 17 -209 -61
-29 -24 -63 -51 -74 -59 l-20 -14 17 31 c21 42 20 86 -2 106 -48 43 -112 6
-280 -161 -127 -126 -228 -202 -268 -202 -48 0 -25 40 135 240 56 69 101 128
101 133 0 4 -17 7 -37 7 -28 0 -45 -8 -70 -32 -23 -22 -33 -27 -33 -17 0 33
-36 52 -90 47 -111 -11 -276 -132 -330 -243 -32 -66 -32 -131 1 -158 37 -30
90 -17 174 41 l71 49 -4 -34 c-8 -67 45 -90 123 -54 58 27 89 53 241 200 133
128 199 177 221 163 21 -13 -12 -64 -139 -217 l-125 -150 43 -3 43 -3 143 145
c148 150 249 226 300 226 15 0 28 -4 28 -8 0 -12 -48 -76 -113 -150 -88 -101
-108 -161 -66 -203 42 -42 146 -1 265 104 l54 49 -10 -27 c-18 -47 -12 -94 15
-120 40 -41 102 -28 196 41 l49 36 0 -35 c0 -41 25 -67 64 -67 44 0 134 53
228 135 l86 74 -19 -50 c-26 -67 -24 -105 6 -134 17 -18 35 -25 62 -25 75 0
219 88 331 203 60 61 56 87 -4 31 -68 -64 -168 -141 -218 -168 -52 -28 -121
-35 -129 -13 -9 23 18 81 71 158 95 137 141 189 203 227 142 87 281 194 380
292 136 134 177 211 133 254 -22 23 -54 20 -110 -10z m96 -32 c0 -50 -126
-191 -280 -312 -83 -66 -220 -162 -220 -155 0 6 188 232 269 324 85 96 168
161 204 161 19 0 27 -5 27 -18z m-2302 -580 c14 -97 -313 -389 -344 -308 -17
45 168 276 256 319 47 23 84 19 88 -11z m1261 9 c27 -50 -149 -264 -258 -315
-116 -54 -114 18 5 164 107 133 225 203 253 151z"/>
<path d="M7600 910 c-11 -11 -20 -25 -20 -31 0 -24 22 -49 44 -49 25 0 66 38
66 61 0 40 -57 52 -90 19z"/>
</g>
</svg>
