<?xml version="1.0" standalone="no"?>
<!DOCTYPE svg PUBLIC "-//W3C//DTD SVG 20010904//EN"
 "http://www.w3.org/TR/2001/REC-SVG-20010904/DTD/svg10.dtd">
<svg version="1.0" xmlns="http://www.w3.org/2000/svg"
 width="980" height="190" viewBox="0 0 980.000000 190.000000"
 preserveAspectRatio="xMidYMid meet">
<g transform="translate(0.000000,190.000000) scale(0.100000,-0.100000)"
fill="#f1ead8" stroke="none">
<path d="M2654 1629 c-28 -10 -79 -36 -114 -58 l-64 -38 -60 28 c-117 55 -173
64 -376 63 l-185 0 -98 -27 c-243 -65 -461 -194 -596 -351 -155 -181 -185
-374 -75 -478 88 -83 290 -90 472 -18 236 95 441 323 442 493 l0 47 -34 38
-35 37 -83 -1 c-59 0 -100 -6 -142 -22 -156 -57 -320 -197 -415 -354 -35 -58
-9 -45 34 17 20 30 77 93 125 138 70 67 109 94 193 137 l105 53 74 5 c90 5
133 -12 143 -57 14 -66 -29 -153 -134 -264 -170 -178 -376 -282 -556 -280
-202 3 -271 145 -170 350 l38 78 101 101 c111 110 205 175 344 234 281 120
612 132 815 28 22 -11 37 -21 35 -22 -1 -2 -35 -30 -73 -62 -115 -96 -244
-242 -401 -452 -312 -418 -454 -565 -626 -653 -152 -77 -337 -80 -415 -7 -32
30 -29 45 6 40 34 -5 71 26 71 58 0 24 -34 60 -55 60 -34 0 -74 -30 -85 -64
-21 -66 35 -140 125 -165 22 -6 80 -11 128 -11 215 0 433 103 623 294 107 108
163 181 354 461 154 226 231 326 324 420 l59 59 27 -33 c79 -94 61 -268 -44
-415 -59 -82 -123 -138 -205 -179 l-65 -32 -71 0 c-38 0 -79 2 -90 5 -13 3
-20 0 -20 -10 0 -10 19 -20 54 -29 l54 -15 81 12 c167 24 324 138 397 287 l34
70 0 100 0 100 -23 43 c-13 24 -39 60 -58 82 l-35 38 33 25 c35 27 115 69 161
86 16 6 25 15 22 21 -8 13 -11 13 -71 -11z"/>
<path d="M5627 1480 c-249 -42 -447 -197 -464 -364 -13 -130 66 -218 226 -252
36 -7 70 -14 74 -14 4 0 -8 -21 -28 -47 -20 -26 -55 -85 -78 -131 l-41 -83 -4
-87 -4 -87 24 -45 c69 -128 258 -146 466 -44 171 84 302 230 302 339 0 57 -29
90 -88 100 -54 9 -151 -16 -222 -58 -67 -39 -227 -196 -258 -254 -34 -62 -13
-52 38 18 84 115 217 215 333 251 201 61 224 -80 42 -250 -157 -146 -371 -217
-492 -163 -135 62 -78 282 133 514 l32 34 68 6 c154 15 399 94 587 189 245
125 386 273 348 366 -16 38 -48 52 -123 52 -92 0 -204 -35 -356 -111 -212
-105 -358 -208 -555 -390 l-98 -91 -47 6 c-127 18 -222 82 -236 158 -25 138
134 302 364 376 101 32 181 43 308 41 117 -1 153 9 77 23 -53 9 -267 8 -328
-2z m947 -56 c87 -86 -194 -311 -556 -445 -82 -30 -242 -71 -328 -84 l-45 -7
30 32 c41 44 227 206 300 262 80 60 218 149 282 182 134 67 282 95 317 60z"/>
<path d="M9163 1265 c-111 -56 -292 -235 -539 -535 -155 -189 -258 -289 -381
-373 -56 -37 -103 -48 -103 -24 0 20 84 135 184 255 47 56 86 105 86 107 0 3
-20 5 -44 5 l-45 0 -30 -37 -31 -38 0 21 c0 38 -34 57 -89 52 -79 -8 -155 -53
-266 -159 -160 -153 -253 -219 -310 -219 -55 0 -31 44 139 257 l121 152 69 3
c89 4 103 26 20 30 l-58 3 78 93 c43 52 76 95 74 96 -1 1 -24 1 -50 -2 l-47
-4 -76 -93 -76 -94 -56 -3 c-70 -4 -84 -25 -19 -30 l44 -3 -77 -91 c-133 -157
-329 -314 -392 -314 -55 0 -37 32 132 237 60 72 109 134 109 137 0 3 -19 6
-41 6 l-42 0 -45 -52 c-124 -143 -309 -295 -390 -323 -79 -27 -70 1 37 124
116 132 138 180 111 232 -26 47 -155 5 -254 -83 -24 -21 -47 -38 -50 -38 -3 0
39 55 92 123 54 67 119 150 146 185 l47 62 -23 -1 c-48 -2 -67 -17 -143 -109
-192 -233 -492 -500 -561 -500 -34 0 -30 24 13 84 50 71 186 237 211 260 28
25 19 36 -28 36 l-38 0 -31 -35 c-24 -28 -31 -32 -31 -17 0 29 -33 52 -73 52
-160 0 -396 -226 -371 -356 16 -85 110 -82 219 6 l40 32 6 -42 c8 -59 41 -74
106 -49 39 15 165 111 247 188 l70 66 -75 -90 c-243 -291 -369 -444 -369 -450
0 -3 20 -5 45 -3 l45 3 188 225 c194 233 298 335 414 403 70 41 108 48 108 18
0 -10 -38 -61 -85 -112 -86 -94 -125 -157 -125 -197 0 -29 34 -62 63 -62 36 0
137 54 205 109 34 28 62 49 62 47 0 -2 -7 -17 -15 -32 -20 -39 -19 -87 3 -107
43 -39 133 -5 251 93 l71 60 -20 -37 c-25 -48 -25 -88 0 -113 42 -42 132 -14
247 79 l62 50 -6 -47 -5 -47 22 -27 c35 -46 98 -32 195 41 l51 38 -4 -34 c-3
-23 1 -40 13 -53 38 -42 110 -16 235 85 47 39 80 60 76 49 -16 -37 -24 -87
-19 -103 25 -70 96 -67 213 7 64 40 202 171 194 183 -3 5 -39 -21 -80 -57
-141 -123 -243 -173 -261 -128 -9 24 17 71 117 203 l92 122 106 71 c231 155
407 308 482 421 43 64 49 96 24 121 -22 22 -52 20 -111 -9z m86 -18 c41 -50
-195 -285 -489 -487 l-35 -24 40 49 c214 269 412 471 466 475 4 0 12 -6 18
-13z m-2785 -583 c44 -17 -7 -110 -124 -226 -43 -42 -96 -86 -119 -97 -48 -25
-91 -28 -91 -6 0 88 222 330 307 334 6 1 18 -2 27 -5z m1764 -21 c5 -35 -32
-95 -113 -181 -83 -89 -158 -142 -198 -142 l-27 0 0 29 c0 58 163 255 249 301
47 25 85 22 89 -7z"/>
<path d="M4694 1254 c-122 -65 -294 -241 -590 -606 -64 -78 -217 -216 -318
-287 -60 -42 -116 -55 -116 -27 0 21 70 121 170 239 49 59 90 112 90 117 0 6
-18 10 -39 10 l-40 0 -30 -32 c-17 -18 -31 -27 -31 -20 0 26 -40 52 -80 52
-85 0 -165 -45 -296 -165 -109 -100 -200 -172 -246 -196 -37 -19 -88 -26 -88
-11 0 14 39 67 99 137 64 74 101 137 101 173 0 31 -35 62 -69 62 -35 0 -112
-40 -169 -88 -24 -21 -53 -44 -64 -52 l-21 -14 17 31 c32 64 11 123 -45 123
-41 0 -107 -50 -237 -178 -67 -66 -150 -139 -183 -161 -61 -41 -109 -53 -109
-28 0 20 48 89 159 227 56 69 101 128 101 133 0 4 -17 7 -37 7 -28 0 -45 -8
-70 -32 -23 -22 -33 -27 -33 -17 0 33 -36 52 -90 47 -111 -11 -276 -132 -330
-243 -32 -66 -32 -131 1 -158 37 -30 90 -17 174 41 l71 49 -4 -34 c-5 -42 20
-73 58 -73 57 0 131 52 288 202 148 142 212 191 239 181 27 -10 -17 -74 -212
-305 l-57 -68 46 0 46 0 142 144 c148 150 249 226 300 226 15 0 28 -4 28 -8 0
-12 -48 -76 -113 -150 -88 -101 -108 -161 -66 -203 42 -42 146 -1 265 104 l54
49 -10 -27 c-28 -72 6 -145 68 -145 36 0 117 40 160 79 l32 30 0 -38 c0 -113
116 -88 292 64 l86 74 -19 -50 c-26 -67 -24 -105 6 -134 17 -18 35 -25 62 -25
75 0 219 88 331 203 66 67 54 84 -14 21 -121 -112 -234 -184 -293 -186 -66 -2
-59 46 24 167 95 139 143 194 206 233 142 87 281 194 380 292 136 134 177 211
133 254 -22 23 -54 20 -110 -10z m96 -32 c0 -51 -127 -192 -280 -312 -92 -73
-220 -163 -220 -156 0 8 191 237 279 335 42 46 96 99 121 117 50 38 100 45
100 16z m-2302 -583 c9 -77 -232 -319 -318 -319 -34 0 -34 25 2 92 37 71 173
214 228 241 49 24 84 19 88 -14z m1261 12 c15 -28 -26 -103 -102 -186 -69 -75
-119 -115 -178 -139 l-36 -15 -18 13 -17 13 21 48 c12 26 46 78 77 116 110
135 225 203 253 150z"/>
<path d="M7600 910 c-11 -11 -20 -25 -20 -31 0 -24 22 -49 44 -49 25 0 66 38
66 61 0 40 -57 52 -90 19z"/>
</g>
</svg>
