<?xml version="1.0" standalone="no"?>
<!DOCTYPE svg PUBLIC "-//W3C//DTD SVG 20010904//EN"
 "http://www.w3.org/TR/2001/REC-SVG-20010904/DTD/svg10.dtd">
<svg version="1.0" xmlns="http://www.w3.org/2000/svg"
 width="980" height="190" viewBox="0 0 980.000000 190.000000"
 preserveAspectRatio="xMidYMid meet">
<g transform="translate(0.000000,190.000000) scale(0.100000,-0.100000)"
fill="#f1ead8" stroke="none">
<path d="M2654 1629 c-28 -10 -79 -36 -114 -58 l-64 -38 -60 28 c-159 74 -459
90 -659 36 -412 -111 -738 -405 -737 -665 2 -349 619 -290 887 85 98 138 119
245 59 311 l-35 37 -83 -1 c-195 -1 -423 -155 -557 -376 -35 -58 -9 -45 34 17
151 220 470 390 602 321 169 -87 -209 -501 -527 -577 -371 -88 -462 212 -156
517 307 306 837 426 1159 262 22 -11 37 -21 35 -22 -1 -2 -35 -30 -73 -62
-115 -96 -244 -242 -401 -452 -312 -418 -454 -565 -626 -653 -152 -77 -337
-80 -415 -7 -32 30 -29 45 6 40 57 -8 92 57 51 98 -59 59 -151 -30 -117 -113
69 -163 415 -143 697 40 163 106 279 239 530 608 154 226 231 326 324 420 l59
59 27 -33 c190 -227 -170 -697 -475 -621 -13 3 -20 0 -20 -10 0 -10 19 -20 54
-29 180 -48 437 88 532 284 32 65 34 77 34 170 0 112 -14 151 -81 225 l-35 38
33 25 c35 27 115 69 161 86 16 6 25 15 22 21 -8 13 -11 13 -71 -11z"/>
<path d="M5627 1480 c-473 -80 -648 -529 -238 -616 36 -7 70 -14 74 -14 4 0
-8 -21 -28 -47 -200 -262 -157 -525 88 -541 244 -15 577 217 577 403 0 116
-149 136 -310 42 -67 -39 -227 -196 -258 -254 -34 -62 -13 -52 38 18 138 190
396 320 482 242 91 -82 -168 -348 -398 -408 -286 -74 -364 130 -157 407 105
139 111 144 189 151 358 34 881 305 935 485 48 161 -169 166 -479 11 -212
-105 -358 -208 -555 -390 l-98 -91 -47 6 c-268 38 -318 238 -104 412 137 112
318 167 540 163 117 -1 153 9 77 23 -53 9 -267 8 -328 -2z m947 -56 c126 -125
-437 -462 -884 -529 l-45 -7 30 32 c130 139 428 366 582 444 134 67 282 95
317 60z"/>
<path d="M9163 1265 c-111 -56 -292 -235 -539 -535 -155 -189 -258 -289 -381
-373 -56 -37 -103 -48 -103 -24 0 20 84 135 184 255 47 56 86 105 86 107 0 3
-20 5 -44 5 -39 0 -48 -4 -75 -37 -26 -32 -31 -34 -31 -17 0 38 -34 57 -89 52
-79 -8 -155 -53 -266 -159 -160 -153 -253 -219 -310 -219 -55 0 -31 44 139
257 l121 152 69 3 c89 4 103 26 20 30 l-58 3 78 93 c43 52 76 95 74 96 -1 1
-24 1 -50 -2 -46 -4 -49 -6 -123 -97 l-76 -94 -56 -3 c-70 -4 -84 -25 -19 -30
l44 -3 -77 -91 c-133 -157 -329 -314 -392 -314 -55 0 -37 32 132 237 60 72
109 134 109 137 0 3 -19 6 -41 6 -38 0 -46 -5 -87 -52 -181 -208 -442 -393
-442 -314 0 7 40 59 89 115 116 132 138 180 111 232 -26 47 -155 5 -254 -83
-69 -60 -62 -47 42 85 188 235 196 247 170 246 -48 -2 -67 -17 -143 -109 -239
-289 -585 -576 -585 -484 0 26 189 275 248 328 28 25 19 36 -28 36 -31 0 -44
-6 -69 -35 -24 -28 -31 -32 -31 -17 0 117 -269 20 -386 -139 -139 -190 -22
-307 161 -159 l40 32 6 -42 c15 -112 140 -63 353 139 l70 66 -75 -90 c-243
-291 -369 -444 -369 -450 0 -3 20 -5 45 -3 l45 3 188 225 c194 233 298 335
414 403 132 78 142 37 23 -94 -120 -132 -148 -196 -105 -239 38 -38 133 -4
248 89 34 28 62 49 62 47 0 -2 -7 -17 -15 -32 -20 -39 -19 -87 3 -107 43 -39
133 -5 251 93 l71 60 -20 -37 c-25 -48 -25 -88 0 -113 42 -42 132 -14 247 79
l62 50 -6 -47 c-13 -119 79 -133 212 -33 l51 38 -4 -34 c-13 -108 92 -95 248
32 47 39 80 60 76 49 -49 -117 -3 -179 105 -142 57 19 140 77 216 151 94 91
84 106 -13 21 -141 -123 -243 -173 -261 -128 -9 24 17 71 117 203 85 113 99
127 198 193 358 239 576 473 506 542 -22 22 -52 20 -111 -9z m86 -18 c41 -50
-195 -285 -489 -487 l-35 -24 40 49 c214 269 412 471 466 475 4 0 12 -6 18
-13z m-2785 -583 c82 -31 -199 -344 -309 -344 -104 0 173 343 282 349 6 1 18
-2 27 -5z m1764 -21 c11 -76 -227 -323 -311 -323 -65 0 -9 114 118 243 100
101 185 136 193 80z"/>
<path d="M4694 1254 c-122 -65 -294 -241 -590 -606 -145 -178 -434 -387 -434
-314 0 21 70 121 170 239 103 123 104 127 51 127 -32 0 -46 -6 -70 -32 -17
-18 -31 -27 -31 -20 0 26 -40 52 -80 52 -85 0 -165 -45 -296 -165 -165 -151
-256 -215 -309 -215 -41 0 -26 30 74 145 96 111 121 175 81 215 -39 39 -122
13 -218 -68 -81 -68 -87 -71 -68 -35 32 64 11 123 -45 123 -41 0 -107 -50
-237 -178 -129 -127 -228 -202 -268 -202 -48 0 -24 42 135 240 56 69 101 128
101 133 0 23 -76 5 -107 -25 -23 -22 -33 -27 -33 -17 0 95 -207 42 -336 -86
-191 -192 -119 -373 91 -227 l71 49 -4 -34 c-5 -42 20 -73 58 -73 57 0 131 52
288 202 148 142 212 191 239 181 27 -10 -17 -74 -212 -305 l-57 -68 46 0 c46
0 46 1 188 144 148 150 249 226 300 226 44 0 30 -27 -85 -158 -88 -101 -108
-161 -66 -203 42 -42 146 -1 265 104 47 43 53 45 44 22 -28 -72 6 -145 68
-145 36 0 117 40 160 79 l32 30 0 -38 c0 -113 116 -88 292 64 l86 74 -19 -50
c-26 -67 -24 -105 6 -134 63 -64 232 13 393 178 66 67 54 84 -14 21 -121 -112
-234 -184 -293 -186 -66 -2 -59 46 24 167 95 139 143 194 206 233 285 176 529
409 529 506 0 58 -50 70 -126 30z m96 -32 c0 -51 -127 -192 -280 -312 -92 -73
-220 -163 -220 -156 0 23 340 408 400 452 50 38 100 45 100 16z m-2302 -583
c11 -98 -313 -385 -344 -305 -18 46 167 275 256 319 49 24 84 19 88 -14z
m1261 12 c31 -57 -156 -274 -280 -325 -93 -39 -80 44 27 175 110 135 225 203
253 150z"/>
<path d="M7600 910 c-32 -32 -18 -80 24 -80 25 0 66 38 66 61 0 40 -57 52 -90
19z"/>
</g>
</svg>
