<?xml version="1.0" standalone="no"?>
<!DOCTYPE svg PUBLIC "-//W3C//DTD SVG 20010904//EN"
 "http://www.w3.org/TR/2001/REC-SVG-20010904/DTD/svg10.dtd">
<svg version="1.0" xmlns="http://www.w3.org/2000/svg"
 width="980" height="190" viewBox="0 0 980.000000 190.000000"
 preserveAspectRatio="xMidYMid meet">
<g transform="translate(0.000000,190.000000) scale(0.100000,-0.100000)"
fill="#f1ead8" stroke="none">
<path d="M2654 1629 c-28 -10 -79 -36 -114 -58 -64 -38 -64 -38 -124 -10 -159
74 -459 90 -659 36 -412 -111 -738 -405 -737 -665 2 -349 619 -290 887 85 149
209 115 365 -76 350 -191 -14 -413 -170 -540 -379 -35 -58 -9 -45 34 17 151
220 470 390 602 321 169 -87 -210 -502 -527 -576 -362 -85 -460 203 -171 503
285 296 780 427 1122 298 98 -37 98 -38 16 -106 -116 -96 -248 -244 -405 -454
-306 -411 -455 -567 -628 -654 -147 -74 -335 -77 -411 -5 -32 30 -29 45 6 40
57 -8 92 57 51 98 -59 59 -151 -30 -117 -113 69 -163 415 -143 697 40 163 106
283 244 531 609 151 223 229 325 323 419 59 59 59 59 86 26 190 -227 -170
-697 -475 -621 -13 3 -20 0 -20 -10 0 -10 19 -20 54 -29 180 -48 437 88 532
284 32 65 34 77 34 170 0 112 -14 151 -81 225 -35 38 -35 38 -2 64 18 13 68
41 111 61 42 21 74 41 71 46 -7 12 -10 11 -70 -12z"/>
<path d="M5627 1480 c-473 -80 -648 -529 -238 -616 36 -7 70 -14 74 -14 4 0
-8 -21 -28 -47 -200 -262 -157 -525 88 -541 244 -15 577 217 577 403 0 116
-149 136 -310 42 -67 -39 -227 -196 -258 -254 -34 -63 -13 -52 38 19 120 165
362 302 455 257 142 -68 -111 -356 -372 -424 -284 -74 -362 131 -156 407 105
139 111 144 189 151 214 21 596 167 762 292 220 165 243 315 49 315 -215 0
-596 -209 -904 -496 -103 -96 -103 -96 -166 -86 -237 38 -294 205 -127 373
132 132 334 201 575 198 119 -1 157 9 80 23 -53 9 -267 8 -328 -2z m947 -56
c91 -91 -221 -331 -594 -457 -103 -35 -303 -81 -322 -75 -26 9 291 278 447
381 208 137 416 204 469 151z"/>
<path d="M9163 1265 c-111 -56 -292 -235 -539 -535 -155 -189 -258 -289 -381
-373 -56 -37 -103 -48 -103 -24 0 19 83 134 184 255 47 56 86 104 86 107 0 3
-20 5 -44 5 -39 0 -48 -4 -75 -37 -26 -32 -31 -34 -31 -17 0 38 -34 57 -89 52
-79 -8 -155 -53 -266 -159 -160 -153 -253 -219 -310 -219 -55 0 -30 47 140
259 120 149 120 149 189 153 89 4 103 26 20 30 -58 3 -58 3 20 96 43 52 76 95
74 96 -1 1 -24 1 -50 -2 -46 -4 -49 -6 -123 -97 -76 -94 -76 -94 -132 -97 -70
-4 -84 -25 -19 -30 44 -3 44 -3 -33 -94 -133 -157 -329 -314 -392 -314 -55 0
-37 32 132 237 60 72 109 134 109 137 0 3 -20 6 -44 6 -42 0 -45 -2 -119 -89
-142 -167 -393 -341 -405 -281 -1 9 37 62 87 118 115 132 138 181 111 233 -25
47 -146 8 -254 -81 -27 -22 -50 -40 -52 -40 -2 0 41 55 94 123 188 235 196
247 170 246 -48 -2 -67 -17 -165 -134 -237 -283 -563 -548 -563 -457 0 20 97
151 198 269 76 88 78 93 21 93 -30 0 -43 -7 -68 -35 -24 -28 -31 -32 -31 -17
0 129 -306 0 -409 -172 -105 -176 18 -260 184 -126 40 32 40 32 46 -10 15
-112 140 -63 353 139 70 66 70 66 -5 -24 -299 -357 -369 -443 -369 -449 0 -4
20 -6 45 -4 45 3 45 3 233 228 194 233 298 335 414 403 128 76 143 37 32 -84
-130 -143 -159 -204 -114 -249 40 -40 129 -7 248 89 34 28 62 49 62 47 0 -2
-7 -17 -15 -32 -21 -41 -19 -87 5 -109 41 -37 148 5 260 103 55 48 57 48 35 6
-21 -41 -19 -80 6 -105 43 -43 154 -3 265 94 43 38 43 38 38 -10 -14 -120 78
-135 211 -34 51 38 51 38 47 4 -13 -108 92 -95 248 32 47 39 80 60 76 49 -49
-117 -3 -179 105 -142 57 19 140 77 216 151 94 91 84 106 -13 21 -141 -123
-243 -173 -261 -128 -9 24 17 71 117 203 85 113 99 127 198 193 358 239 576
473 506 542 -22 22 -52 20 -111 -9z m86 -18 c41 -50 -195 -285 -489 -487 -35
-24 -35 -24 5 25 214 269 412 471 466 475 4 0 12 -6 18 -13z m-2775 -600 c36
-57 -223 -327 -315 -327 -51 0 -30 65 56 170 117 146 225 211 259 157z m1754
-4 c11 -76 -227 -323 -311 -323 -63 0 -7 116 118 243 100 101 185 136 193 80z"/>
<path d="M4694 1254 c-122 -65 -294 -241 -590 -606 -145 -177 -434 -387 -434
-314 0 21 70 121 170 239 103 123 104 127 49 127 -32 0 -46 -6 -68 -30 -28
-31 -28 -31 -39 -6 -35 78 -186 33 -337 -102 -213 -190 -285 -242 -337 -242
-44 0 -38 13 81 157 92 112 110 164 71 203 -39 39 -113 17 -209 -61 -95 -78
-96 -79 -77 -42 21 42 20 86 -2 106 -48 43 -112 6 -280 -161 -127 -126 -228
-202 -268 -202 -48 0 -25 40 135 240 56 69 101 128 101 133 0 23 -76 5 -107
-25 -23 -22 -33 -27 -33 -17 0 95 -207 42 -336 -86 -191 -192 -119 -373 91
-227 71 49 71 49 67 15 -8 -67 45 -90 123 -54 58 27 89 53 241 200 133 128
199 177 221 163 21 -13 -12 -64 -139 -217 -125 -150 -125 -150 -82 -153 43 -3
43 -3 186 142 148 150 249 226 300 226 44 0 30 -27 -85 -158 -88 -101 -108
-161 -66 -203 42 -42 146 -1 265 104 47 43 53 45 44 22 -18 -47 -12 -94 15
-120 40 -41 102 -28 196 41 49 36 49 36 49 1 0 -109 119 -81 292 68 86 74 86
74 67 24 -26 -67 -24 -105 6 -134 63 -64 232 13 393 178 60 61 56 87 -4 31
-127 -120 -243 -194 -304 -194 -65 0 -57 48 28 171 95 137 141 189 203 227
285 176 529 409 529 506 0 58 -50 70 -126 30z m96 -32 c0 -50 -126 -191 -280
-312 -83 -66 -220 -162 -220 -155 0 6 188 232 269 324 117 132 231 202 231
143z m-2302 -580 c14 -97 -313 -389 -344 -308 -17 45 168 276 256 319 47 23
84 19 88 -11z m1261 9 c39 -72 -258 -369 -330 -330 -71 38 193 347 298 349 12
0 27 -8 32 -19z"/>
<path d="M7600 910 c-32 -32 -18 -80 24 -80 25 0 66 38 66 61 0 40 -57 52 -90
19z"/>
</g>
</svg>
