<?xml version="1.0" standalone="no"?>
<!DOCTYPE svg PUBLIC "-//W3C//DTD SVG 20010904//EN"
 "http://www.w3.org/TR/2001/REC-SVG-20010904/DTD/svg10.dtd">
<svg version="1.0" xmlns="http://www.w3.org/2000/svg"
 width="980" height="190" viewBox="0 0 980.000000 190.000000"
 preserveAspectRatio="xMidYMid meet">
<g transform="translate(0.000000,190.000000) scale(0.100000,-0.100000)"
fill="#f1ead8" stroke="none">
<path d="M2654 1629 c-28 -10 -79 -36 -114 -58 l-64 -38 -60 28 c-315 147
-829 55 -1140 -202 -399 -330 -313 -728 140 -650 282 49 583 322 584 529 1
275 -498 98 -709 -250 -35 -58 -9 -45 34 17 151 220 470 390 602 321 169 -87
-210 -502 -527 -576 -362 -85 -460 203 -171 503 285 296 780 427 1122 298 98
-37 98 -38 16 -106 -116 -96 -248 -244 -405 -454 -306 -411 -455 -567 -628
-654 -147 -74 -335 -77 -411 -5 -32 30 -29 45 6 40 57 -8 92 57 51 98 -59 59
-151 -30 -117 -113 69 -163 415 -143 697 40 163 106 283 244 531 609 151 223
229 325 323 419 l59 59 27 -33 c190 -227 -170 -697 -475 -621 -13 3 -20 0 -20
-10 0 -29 97 -45 189 -32 357 52 561 448 350 682 l-35 38 33 26 c18 13 68 41
111 61 99 48 101 73 1 34z"/>
<path d="M5627 1480 c-473 -80 -648 -529 -238 -616 36 -7 70 -14 74 -14 4 0
-8 -21 -28 -47 -286 -375 -59 -677 360 -479 333 157 426 511 113 431 -118 -30
-314 -187 -376 -302 -34 -63 -13 -52 38 19 120 165 362 302 455 257 142 -68
-111 -356 -372 -424 -284 -74 -362 131 -156 407 105 139 111 144 189 151 430
41 1006 383 935 555 -72 173 -620 -65 -1028 -444 l-103 -96 -63 10 c-237 38
-294 205 -127 373 132 132 334 201 575 198 119 -1 157 9 80 23 -53 9 -267 8
-328 -2z m947 -56 c115 -115 -373 -427 -803 -514 -136 -28 -137 -27 -40 64
353 329 752 542 843 450z"/>
<path d="M9163 1265 c-111 -56 -292 -235 -539 -535 -192 -234 -390 -410 -460
-410 -47 0 -5 71 160 268 101 120 98 112 42 112 -39 0 -48 -4 -75 -37 -26 -32
-31 -34 -31 -17 0 111 -185 56 -355 -107 -160 -153 -253 -219 -310 -219 -55 0
-30 47 140 259 l120 149 69 4 c89 4 103 26 20 30 l-58 3 78 93 c43 52 76 95
74 96 -36 27 -100 -10 -173 -99 l-76 -94 -56 -3 c-70 -4 -84 -25 -19 -30 l44
-3 -77 -91 c-133 -157 -329 -314 -392 -314 -55 0 -37 32 132 237 126 152 122
143 65 143 -42 0 -45 -2 -119 -89 -142 -167 -393 -341 -405 -281 -1 9 37 62
87 118 115 132 138 181 111 233 -25 47 -146 8 -254 -81 -27 -22 -50 -40 -52
-40 -2 0 41 55 94 123 188 235 196 247 170 246 -48 -2 -67 -17 -165 -134 -237
-283 -563 -548 -563 -457 0 20 97 151 198 269 76 88 78 93 21 93 -30 0 -43 -7
-68 -35 -24 -28 -31 -32 -31 -17 0 129 -306 0 -409 -172 -105 -176 18 -260
184 -126 l40 32 6 -42 c15 -112 140 -63 353 139 l70 66 -75 -90 c-424 -507
-388 -457 -324 -453 l45 3 188 225 c194 233 298 335 414 403 128 76 143 37 32
-84 -130 -143 -159 -204 -114 -249 40 -40 129 -7 248 89 34 28 62 49 62 47 0
-2 -7 -17 -15 -32 -81 -156 89 -160 265 -6 55 48 57 48 35 6 -80 -153 100
-160 271 -11 l43 38 -5 -48 c-14 -120 78 -135 211 -34 l51 38 -4 -34 c-13
-108 92 -95 248 32 47 39 80 60 76 49 -86 -207 103 -202 321 9 94 91 84 106
-13 21 -141 -123 -243 -173 -261 -128 -21 55 177 304 315 396 358 239 576 473
506 542 -22 22 -52 20 -111 -9z m86 -18 c41 -50 -195 -285 -489 -487 l-35 -24
40 49 c262 329 447 506 484 462z m-2775 -600 c36 -57 -223 -327 -315 -327 -51
0 -30 65 56 170 117 146 225 211 259 157z m1754 -4 c11 -76 -227 -323 -311
-323 -63 0 -7 116 118 243 100 101 185 136 193 80z"/>
<path d="M4694 1254 c-122 -65 -294 -241 -590 -606 -145 -177 -434 -387 -434
-314 0 21 70 121 170 239 103 123 104 127 49 127 -32 0 -46 -6 -68 -30 l-28
-31 -11 25 c-35 78 -186 33 -337 -102 -213 -190 -285 -242 -337 -242 -44 0
-38 13 81 157 170 207 69 311 -138 142 -95 -78 -96 -79 -77 -42 21 42 20 86
-2 106 -48 43 -112 6 -280 -161 -127 -126 -228 -202 -268 -202 -48 0 -25 40
135 240 56 69 101 128 101 133 0 23 -76 5 -107 -25 -23 -22 -33 -27 -33 -17 0
95 -207 42 -336 -86 -191 -192 -119 -373 91 -227 l71 49 -4 -34 c-8 -67 45
-90 123 -54 58 27 89 53 241 200 133 128 199 177 221 163 21 -13 -12 -64 -139
-217 l-125 -150 43 -3 43 -3 143 145 c148 150 249 226 300 226 44 0 30 -27
-85 -158 -198 -226 -35 -307 199 -99 47 43 53 45 44 22 -54 -143 64 -187 211
-79 l49 36 0 -35 c0 -109 119 -81 292 68 l86 74 -19 -50 c-87 -229 158 -202
399 44 60 61 56 87 -4 31 -267 -253 -446 -267 -276 -23 95 137 141 189 203
227 285 176 529 409 529 506 0 58 -50 70 -126 30z m96 -32 c0 -50 -126 -191
-280 -312 -83 -66 -220 -162 -220 -155 0 6 188 232 269 324 117 132 231 202
231 143z m-2302 -580 c14 -97 -313 -389 -344 -308 -17 45 168 276 256 319 47
23 84 19 88 -11z m1261 9 c39 -72 -258 -369 -330 -330 -71 38 193 347 298 349
12 0 27 -8 32 -19z"/>
<path d="M7600 910 c-32 -32 -18 -80 24 -80 25 0 66 38 66 61 0 40 -57 52 -90
19z"/>
</g>
</svg>
