<?xml version="1.0" standalone="no"?>
<!DOCTYPE svg PUBLIC "-//W3C//DTD SVG 20010904//EN"
 "http://www.w3.org/TR/2001/REC-SVG-20010904/DTD/svg10.dtd">
<svg version="1.0" xmlns="http://www.w3.org/2000/svg"
 width="980" height="190" viewBox="0 0 980.000000 190.000000"
 preserveAspectRatio="xMidYMid meet">
<g transform="translate(0.000000,190.000000) scale(0.100000,-0.100000)"
fill="#f1ead8" stroke="none">
<path d="M2649 1626 c-58 -23 -122 -59 -151 -83 l-16 -14 -50 25 c-28 14 -86
36 -129 48 l-78 23 -185 -1 -185 -1 -98 -26 c-166 -44 -328 -122 -450 -214
-265 -203 -364 -480 -221 -615 88 -83 290 -90 472 -18 236 95 441 323 442 493
l0 47 -34 37 -33 37 -61 4 c-186 13 -446 -157 -581 -380 -35 -58 -9 -45 33 16
84 122 236 246 376 305 72 31 184 40 227 17 80 -41 42 -162 -96 -309 -170
-178 -375 -282 -556 -280 -84 1 -154 29 -188 77 l-22 31 0 85 1 85 34 70 c47
96 211 261 329 333 284 173 632 228 901 142 36 -12 75 -29 88 -38 l23 -17 -49
-38 c-99 -75 -278 -273 -426 -472 -315 -422 -454 -567 -628 -656 -152 -77
-337 -80 -415 -7 -32 30 -29 45 6 40 34 -5 71 26 71 58 0 24 -34 60 -55 60
-58 0 -101 -63 -85 -121 22 -77 89 -111 227 -117 225 -9 449 91 649 292 101
101 168 189 364 476 145 212 223 313 314 405 l59 59 27 -32 c127 -153 -3 -470
-245 -595 l-60 -31 -80 -1 c-44 0 -87 2 -95 5 -9 3 -15 -1 -15 -10 0 -10 19
-20 54 -29 l54 -15 79 12 c169 25 326 137 399 287 l34 70 0 100 0 100 -23 43
c-13 24 -39 60 -58 82 l-35 38 33 25 c38 29 150 87 167 87 6 0 11 7 11 15 0
19 -4 19 -71 -9z"/>
<path d="M5610 1475 c-194 -39 -348 -134 -413 -254 -69 -125 -32 -262 86 -322
32 -17 148 -48 179 -49 4 0 -12 -28 -36 -62 -84 -122 -116 -206 -116 -308 1
-216 220 -285 488 -154 171 84 302 230 302 339 0 122 -155 136 -326 30 -79
-49 -206 -177 -243 -244 -33 -61 -12 -48 45 29 98 130 272 245 387 257 l52 5
28 -22 c56 -44 18 -140 -98 -248 -157 -146 -371 -217 -492 -163 -90 41 -100
147 -27 291 23 48 124 186 167 231 l25 26 68 6 c153 15 410 98 597 194 235
120 375 270 338 361 -16 38 -48 52 -123 52 -92 0 -204 -35 -356 -111 -208
-103 -376 -222 -565 -399 l-87 -82 -48 6 c-124 18 -213 74 -232 147 -38 139
123 311 360 387 101 33 181 43 308 41 117 -1 153 9 77 23 -65 11 -275 7 -345
-7z m964 -51 c93 -92 -234 -340 -612 -463 -111 -36 -299 -78 -308 -68 -6 6
170 169 261 242 167 134 378 259 492 290 69 19 148 19 167 -1z"/>
<path d="M9183 1275 c-122 -53 -315 -246 -634 -635 -85 -104 -205 -215 -308
-284 -54 -37 -101 -47 -101 -23 0 20 84 135 184 255 47 56 86 105 86 107 0 3
-20 5 -44 5 l-45 0 -30 -37 -31 -38 0 21 c0 50 -68 68 -149 40 -58 -21 -147
-84 -211 -151 -114 -118 -251 -215 -305 -215 -54 0 -31 44 131 248 l126 157
71 5 c44 3 72 10 75 18 3 8 -12 12 -52 12 -31 0 -56 3 -56 6 0 3 34 45 75 94
41 48 72 89 70 91 -2 3 -24 3 -49 1 l-45 -4 -76 -93 -76 -94 -56 -3 c-72 -4
-87 -28 -18 -28 l46 0 -59 -72 c-105 -128 -208 -223 -326 -300 -60 -38 -116
-50 -116 -24 0 20 41 78 161 223 60 72 109 135 109 139 0 3 -21 4 -46 1 l-47
-5 -40 -48 c-124 -150 -330 -314 -407 -325 -46 -7 -32 25 60 131 116 135 137
179 110 231 -26 47 -155 5 -254 -83 -24 -21 -47 -38 -50 -38 -3 0 30 44 72 98
43 53 109 137 147 186 l69 89 -43 -7 c-30 -5 -50 -15 -65 -34 -130 -166 -335
-374 -476 -483 -96 -75 -120 -89 -149 -89 -32 0 -26 26 24 96 53 73 205 257
217 262 20 8 -6 22 -42 22 l-38 0 -31 -35 c-24 -28 -31 -32 -31 -17 0 29 -33
52 -73 52 -112 0 -288 -128 -357 -259 -7 -13 -13 -47 -13 -74 l-1 -50 23 -18
c42 -34 103 -19 188 46 l48 37 3 -34 c12 -121 133 -76 357 132 l69 65 -75 -90
c-213 -254 -369 -444 -369 -449 0 -3 20 -6 43 -6 l44 0 108 133 c199 241 278
329 357 396 137 116 248 171 248 122 0 -10 -37 -60 -82 -110 -88 -98 -128
-159 -128 -198 0 -29 33 -63 63 -63 49 0 159 65 246 144 l33 31 -21 -40 c-40
-75 -19 -135 46 -135 48 0 146 58 242 144 l35 31 -17 -27 c-9 -15 -19 -44 -23
-66 l-6 -40 21 -21 c43 -43 131 -16 248 78 l62 50 -6 -47 -5 -47 22 -27 c35
-46 98 -32 195 41 l50 38 -3 -38 -4 -37 26 -17 c50 -33 125 1 259 118 l60 51
-17 -31 c-23 -45 -24 -108 -1 -133 48 -53 173 2 319 141 42 39 73 75 70 80 -3
5 -39 -21 -80 -57 -141 -123 -243 -173 -261 -128 -9 24 17 71 117 203 l92 122
106 71 c156 104 250 178 352 274 96 92 170 192 170 229 0 50 -45 67 -107 40z
m66 -28 c41 -50 -195 -285 -489 -487 l-35 -24 40 49 c220 276 412 471 466 475
4 0 12 -6 18 -13z m-2785 -583 c44 -17 -7 -110 -124 -226 -81 -79 -141 -118
-185 -118 -49 0 -28 61 61 171 79 99 174 176 221 178 6 1 18 -2 27 -5z m1764
-21 c5 -35 -32 -95 -113 -181 -83 -89 -158 -142 -198 -142 l-27 0 0 29 c0 58
163 255 249 301 47 25 85 22 89 -7z"/>
<path d="M4721 1269 c-108 -43 -332 -266 -590 -587 -127 -158 -371 -362 -433
-362 -16 0 -28 5 -28 13 0 22 52 97 158 226 56 68 102 128 102 133 0 4 -18 8
-40 8 -32 0 -45 -6 -67 -30 l-27 -31 -13 25 c-16 30 -49 41 -104 33 -66 -9
-142 -53 -231 -133 -118 -108 -221 -191 -270 -219 -41 -24 -98 -34 -98 -17 0
14 39 67 99 137 64 74 101 137 101 173 0 31 -35 62 -69 62 -35 0 -112 -40
-169 -88 -24 -21 -53 -44 -64 -52 l-21 -14 17 31 c32 63 11 123 -43 123 -40 0
-85 -32 -201 -144 -187 -180 -260 -236 -310 -236 -44 0 -14 51 139 240 55 69
101 128 101 133 0 4 -17 7 -37 7 -28 0 -45 -8 -70 -32 -23 -22 -33 -27 -33
-17 0 33 -36 52 -89 47 -174 -17 -386 -236 -350 -363 21 -72 87 -71 194 3 l71
49 -4 -34 c-5 -42 20 -73 58 -73 57 0 131 52 291 205 87 84 175 160 195 170
44 20 62 9 44 -26 -12 -22 -147 -192 -235 -296 l-37 -43 47 0 47 0 115 120
c116 121 212 204 270 234 34 17 83 22 83 8 0 -12 -48 -76 -113 -150 -88 -101
-108 -161 -66 -203 42 -42 146 -1 265 104 l54 49 -10 -27 c-28 -72 6 -145 68
-145 36 0 117 40 160 79 l32 30 0 -38 c0 -44 24 -71 61 -71 53 1 126 45 257
158 34 29 62 52 62 49 0 -2 -7 -19 -16 -37 -9 -18 -19 -52 -22 -76 l-4 -42 25
-26 c46 -46 134 -27 254 55 64 44 194 169 187 180 -3 5 -42 -23 -86 -61 -136
-117 -249 -181 -293 -164 -27 11 -22 54 11 111 38 65 170 239 196 257 12 10
68 47 123 83 256 168 455 367 455 454 0 51 -42 71 -99 48z m69 -47 c0 -51
-124 -190 -277 -310 -110 -86 -228 -169 -218 -151 43 73 333 399 395 445 50
38 100 45 100 16z m-2302 -583 c9 -77 -232 -319 -318 -319 -34 0 -34 25 2 92
37 71 173 214 228 241 49 24 84 19 88 -14z m1261 12 c15 -28 -26 -103 -102
-186 -69 -75 -119 -115 -178 -139 l-36 -15 -18 13 -17 13 21 47 c26 60 107
163 169 214 85 71 142 90 161 53z"/>
<path d="M7600 910 c-11 -11 -20 -25 -20 -31 0 -24 22 -49 44 -49 25 0 66 38
66 61 0 40 -57 52 -90 19z"/>
</g>
</svg>
