<?xml version="1.0" standalone="no"?>
<!DOCTYPE svg PUBLIC "-//W3C//DTD SVG 20010904//EN"
 "http://www.w3.org/TR/2001/REC-SVG-20010904/DTD/svg10.dtd">
<svg version="1.0" xmlns="http://www.w3.org/2000/svg"
 width="980" height="190" viewBox="0 0 980.000000 190.000000"
 preserveAspectRatio="xMidYMid meet">
<g transform="translate(0.000000,190.000000) scale(0.100000,-0.100000)"
fill="#f1ead8" stroke="none">
<path d="M2654 1629 c-28 -10 -79 -36 -114 -58 -64 -38 -64 -38 -124 -10 -453
211 -1206 -68 -1372 -507 -195 -519 718 -436 932 84 160 389 -438 258 -685
-150 -35 -58 -9 -45 34 17 240 349 774 475 609 144 -173 -346 -819 -556 -870
-283 -81 430 767 882 1287 685 98 -37 98 -38 16 -106 -116 -96 -248 -244 -405
-454 -306 -411 -455 -567 -628 -654 -147 -74 -335 -77 -411 -5 -32 30 -29 45
6 40 57 -8 92 57 51 98 -59 59 -151 -30 -117 -113 69 -163 415 -143 697 40
163 106 283 244 531 609 253 373 367 497 409 445 190 -227 -170 -697 -475
-621 -13 3 -20 0 -20 -10 0 -29 97 -45 189 -32 357 52 561 448 350 682 -41 46
-29 60 109 125 99 48 101 73 1 34z"/>
<path d="M5627 1480 c-509 -86 -649 -619 -164 -630 4 0 -8 -21 -28 -47 -286
-375 -59 -677 360 -479 333 157 426 511 113 431 -118 -30 -314 -187 -376 -302
-34 -63 -13 -52 38 19 120 165 362 302 455 257 142 -68 -111 -356 -372 -424
-284 -74 -362 131 -156 407 105 139 111 144 189 151 430 41 1006 383 935 555
-72 173 -620 -65 -1028 -444 -103 -96 -103 -96 -166 -86 -504 81 -113 579 448
571 119 -1 157 9 80 23 -53 9 -267 8 -328 -2z m947 -56 c115 -115 -373 -427
-803 -514 -136 -28 -137 -27 -40 64 353 329 752 542 843 450z"/>
<path d="M9163 1265 c-111 -56 -292 -235 -539 -535 -192 -234 -390 -410 -460
-410 -47 0 -5 71 160 268 101 120 98 112 42 112 -39 0 -48 -4 -75 -37 -26 -32
-31 -34 -31 -17 0 111 -185 56 -355 -107 -231 -220 -408 -304 -312 -147 107
177 263 336 331 340 89 4 103 26 20 30 -58 3 -58 3 20 96 43 52 76 95 74 96
-36 27 -100 -10 -173 -99 -76 -94 -76 -94 -132 -97 -70 -4 -84 -25 -19 -30 98
-7 -319 -408 -425 -408 -55 0 -37 32 132 237 126 152 122 143 65 143 -42 0
-45 -2 -119 -89 -142 -167 -393 -341 -405 -281 -1 9 37 62 87 118 215 247 109
360 -143 152 -27 -22 -50 -40 -52 -40 -2 0 41 55 94 123 188 235 196 247 170
246 -48 -2 -67 -17 -165 -134 -237 -283 -563 -548 -563 -457 0 20 97 151 198
269 76 88 78 93 21 93 -30 0 -43 -7 -68 -35 -24 -28 -31 -32 -31 -17 0 129
-306 0 -409 -172 -105 -176 18 -260 184 -126 40 32 40 32 46 -10 15 -112 140
-63 353 139 70 66 70 66 -5 -24 -424 -507 -388 -457 -324 -453 45 3 45 3 233
228 194 233 298 335 414 403 128 76 143 37 32 -84 -234 -257 -133 -377 134
-160 34 28 62 49 62 47 0 -2 -7 -17 -15 -32 -81 -156 89 -160 265 -6 55 48 57
48 35 6 -80 -153 100 -160 271 -11 43 38 43 38 38 -10 -14 -120 78 -135 211
-34 51 38 51 38 47 4 -13 -108 92 -95 248 32 47 39 80 60 76 49 -86 -207 103
-202 321 9 94 91 84 106 -13 21 -141 -123 -243 -173 -261 -128 -21 55 177 304
315 396 358 239 576 473 506 542 -22 22 -52 20 -111 -9z m86 -18 c41 -50 -195
-285 -489 -487 -35 -24 -35 -24 5 25 262 329 447 506 484 462z m-2775 -600
c36 -57 -223 -327 -315 -327 -51 0 -30 65 56 170 117 146 225 211 259 157z
m1754 -4 c11 -76 -227 -323 -311 -323 -63 0 -7 116 118 243 100 101 185 136
193 80z"/>
<path d="M4694 1254 c-122 -65 -294 -241 -590 -606 -145 -177 -434 -387 -434
-314 0 21 70 121 170 239 103 123 104 127 49 127 -32 0 -46 -6 -68 -30 -28
-31 -28 -31 -39 -6 -35 78 -186 33 -337 -102 -213 -190 -285 -242 -337 -242
-44 0 -38 13 81 157 170 207 69 311 -138 142 -95 -78 -96 -79 -77 -42 21 42
20 86 -2 106 -48 43 -112 6 -280 -161 -304 -302 -387 -278 -133 38 56 69 101
128 101 133 0 23 -76 5 -107 -25 -23 -22 -33 -27 -33 -17 0 95 -207 42 -336
-86 -191 -192 -119 -373 91 -227 71 49 71 49 67 15 -17 -146 118 -92 364 146
265 257 314 225 82 -54 -125 -150 -125 -150 -82 -153 43 -3 43 -3 186 142 148
150 249 226 300 226 44 0 30 -27 -85 -158 -198 -226 -35 -307 199 -99 47 43
53 45 44 22 -54 -143 64 -187 211 -79 49 36 49 36 49 1 0 -109 119 -81 292 68
86 74 86 74 67 24 -87 -229 158 -202 399 44 60 61 56 87 -4 31 -267 -253 -446
-267 -276 -23 95 137 141 189 203 227 285 176 529 409 529 506 0 58 -50 70
-126 30z m96 -32 c0 -50 -126 -191 -280 -312 -83 -66 -220 -162 -220 -155 0 6
188 232 269 324 117 132 231 202 231 143z m-2302 -580 c14 -97 -313 -389 -344
-308 -17 45 168 276 256 319 47 23 84 19 88 -11z m1261 9 c39 -72 -258 -369
-330 -330 -71 38 193 347 298 349 12 0 27 -8 32 -19z"/>
<path d="M7600 910 c-32 -32 -18 -80 24 -80 25 0 66 38 66 61 0 40 -57 52 -90
19z"/>
</g>
</svg>
