<?xml version="1.0" standalone="no"?>
<!DOCTYPE svg PUBLIC "-//W3C//DTD SVG 20010904//EN"
 "http://www.w3.org/TR/2001/REC-SVG-20010904/DTD/svg10.dtd">
<svg version="1.0" xmlns="http://www.w3.org/2000/svg"
 width="980" height="190" viewBox="0 0 980.000000 190.000000"
 preserveAspectRatio="xMidYMid meet">
<g transform="translate(0.000000,190.000000) scale(0.100000,-0.100000)"
fill="#f1ead8" stroke="none">
<path d="M2649 1626 c-58 -23 -122 -59 -151 -83 l-16 -14 -50 25 c-28 14 -86
36 -129 48 l-78 23 -185 -1 -185 -1 -98 -26 c-472 -126 -834 -511 -718 -762
154 -332 959 9 961 408 l0 47 -34 37 -33 37 -61 4 c-186 13 -446 -157 -581
-380 -35 -58 -9 -45 34 17 20 30 78 93 126 140 l89 84 105 52 104 52 73 5
c194 12 198 -121 9 -321 -389 -410 -936 -358 -726 70 l38 78 101 101 c229 228
550 350 876 331 125 -8 343 -70 318 -91 -1 -2 -35 -30 -73 -62 -115 -96 -244
-241 -401 -451 -313 -420 -453 -565 -626 -654 -152 -77 -337 -80 -415 -7 -32
30 -29 45 6 40 57 -8 92 57 51 98 -59 59 -151 -30 -117 -113 54 -128 321 -146
557 -38 233 105 372 248 670 686 154 226 231 326 324 420 l59 59 27 -33 c127
-151 -5 -470 -245 -594 l-60 -31 -75 -1 c-41 0 -84 2 -95 5 -13 3 -20 0 -20
-10 0 -10 19 -20 54 -29 l54 -15 81 12 c167 24 324 138 397 287 l34 70 0 100
0 100 -23 43 c-13 24 -39 60 -58 82 l-35 38 33 25 c35 27 115 69 161 86 16 6
25 15 22 21 -8 14 -12 13 -76 -14z"/>
<path d="M5627 1480 c-473 -80 -648 -529 -238 -616 36 -7 70 -14 74 -14 4 0
-8 -21 -28 -47 -20 -26 -55 -85 -78 -131 l-41 -83 -4 -87 -4 -87 24 -45 c133
-247 768 -3 768 295 0 211 -425 52 -568 -212 -33 -61 -12 -53 33 12 187 272
607 383 479 127 -73 -148 -329 -303 -499 -302 -220 1 -224 205 -7 473 79 99
69 93 150 101 428 40 1004 383 933 554 -72 174 -617 -63 -1034 -449 l-98 -91
-47 6 c-427 60 -237 480 256 566 35 6 116 10 180 9 117 -1 153 9 77 23 -53 9
-267 8 -328 -2z m947 -56 c115 -115 -382 -433 -805 -515 -128 -25 -128 -25
-93 12 301 318 802 599 898 503z"/>
<path d="M9163 1265 c-111 -56 -292 -235 -539 -535 -192 -234 -390 -410 -460
-410 -47 0 -4 73 160 268 101 120 98 112 42 112 l-45 0 -30 -37 -31 -38 0 21
c0 111 -207 47 -360 -111 -114 -118 -251 -215 -305 -215 -55 0 -31 44 139 257
l121 152 69 3 c89 4 103 26 20 30 l-58 3 78 93 c43 52 76 95 74 96 -1 1 -24 1
-50 -2 l-47 -4 -76 -93 -76 -94 -56 -3 c-70 -4 -84 -25 -19 -30 l44 -3 -81
-96 c-132 -156 -325 -309 -388 -309 -55 0 -37 32 132 237 125 152 121 143 68
143 l-42 0 -45 -52 c-181 -208 -442 -393 -442 -314 0 7 40 59 89 115 116 132
138 180 111 232 -26 47 -155 5 -254 -83 -69 -60 -62 -47 42 85 54 67 119 150
146 185 l47 62 -23 -1 c-48 -2 -67 -17 -165 -134 -237 -282 -563 -548 -563
-459 0 26 189 275 248 328 28 25 19 36 -28 36 l-38 0 -31 -35 c-24 -28 -31
-32 -31 -17 0 117 -269 20 -386 -139 -138 -188 -29 -303 153 -164 l48 37 3
-34 c12 -121 145 -71 361 136 l64 61 -75 -90 c-422 -507 -386 -457 -323 -453
l45 3 188 225 c194 233 298 335 414 403 132 78 142 37 23 -94 -223 -246 -115
-360 143 -150 34 28 62 49 62 47 0 -2 -7 -17 -15 -32 -80 -154 77 -162 254
-14 l71 60 -20 -37 c-83 -156 70 -176 247 -34 l62 50 -6 -47 -5 -47 22 -27
c35 -46 98 -32 195 41 l51 38 -4 -34 c-13 -108 92 -95 248 32 47 39 80 60 76
49 -86 -207 103 -202 321 9 94 91 84 106 -13 21 -267 -233 -345 -192 -144 75
l92 122 106 71 c358 239 576 473 506 542 -22 22 -52 20 -111 -9z m86 -18 c41
-50 -195 -285 -489 -487 l-35 -24 40 49 c267 335 447 506 484 462z m-2785
-583 c82 -31 -199 -344 -309 -344 -104 0 173 343 282 349 6 1 18 -2 27 -5z
m1764 -21 c11 -76 -227 -323 -311 -323 l-27 0 0 29 c0 117 323 399 338 294z"/>
<path d="M4694 1254 c-122 -65 -294 -241 -590 -606 -108 -131 -350 -328 -406
-328 -53 0 -27 47 130 239 116 141 116 141 63 141 l-40 0 -30 -32 c-17 -18
-31 -27 -31 -20 0 26 -40 52 -80 52 -84 0 -160 -42 -291 -162 -168 -153 -261
-218 -314 -218 -41 0 -26 30 74 145 186 214 79 328 -137 147 -24 -21 -53 -44
-64 -52 l-21 -14 17 31 c32 64 11 123 -45 123 -40 0 -105 -49 -237 -178 -130
-128 -229 -202 -268 -202 -48 0 -24 42 135 240 56 69 101 128 101 133 0 23
-76 5 -107 -25 -23 -22 -33 -27 -33 -17 0 33 -36 52 -90 47 -156 -15 -350
-199 -353 -335 l0 -46 24 -20 c37 -30 90 -17 174 41 l71 49 -4 -34 c-5 -42 20
-73 58 -73 57 0 131 52 287 202 147 141 213 191 240 181 27 -10 -17 -74 -212
-305 l-57 -68 46 0 46 0 142 144 c148 150 249 226 300 226 44 0 30 -27 -85
-158 -198 -226 -35 -307 199 -99 l54 49 -10 -27 c-56 -148 91 -191 228 -66
l32 30 0 -38 c0 -113 107 -91 285 59 52 44 95 78 95 76 0 -1 -7 -18 -16 -36
-9 -18 -19 -52 -22 -76 l-4 -42 25 -26 c65 -65 232 11 395 177 66 67 54 84
-14 21 -262 -244 -431 -255 -269 -19 95 139 143 194 206 233 285 176 529 409
529 506 0 58 -50 70 -126 30z m96 -32 c0 -51 -127 -192 -280 -312 -92 -73
-220 -163 -220 -156 0 23 340 408 400 452 50 38 100 45 100 16z m-2302 -583
c11 -98 -313 -385 -344 -305 -18 46 167 275 256 319 49 24 84 19 88 -14z
m1261 12 c31 -57 -156 -274 -280 -325 l-36 -15 -18 13 -17 13 21 48 c69 157
293 337 330 266z"/>
<path d="M7600 910 c-32 -32 -18 -80 24 -80 25 0 66 38 66 61 0 40 -57 52 -90
19z"/>
</g>
</svg>
