<?xml version="1.0" standalone="no"?>
<!DOCTYPE svg PUBLIC "-//W3C//DTD SVG 20010904//EN"
 "http://www.w3.org/TR/2001/REC-SVG-20010904/DTD/svg10.dtd">
<svg version="1.0" xmlns="http://www.w3.org/2000/svg"
 width="980" height="190" viewBox="0 0 980.000000 190.000000"
 preserveAspectRatio="xMidYMid meet">
<g transform="translate(0.000000,190.000000) scale(0.100000,-0.100000)"
fill="#f1ead8" stroke="none">
<path d="M2649 1626 c-58 -23 -122 -59 -151 -83 -14 -13 -23 -11 -66 11 -28
14 -86 36 -129 48 -69 20 -99 23 -263 22 -167 0 -195 -3 -283 -27 -166 -44
-328 -122 -450 -214 -265 -203 -364 -480 -221 -615 88 -83 290 -90 472 -18
236 95 441 323 442 493 0 40 -5 53 -34 84 -30 33 -39 37 -94 41 -186 13 -446
-157 -581 -380 -35 -58 -9 -45 34 17 20 30 78 93 126 140 73 68 109 94 194
136 89 45 114 53 177 57 90 5 133 -12 143 -57 14 -66 -29 -153 -134 -264 -170
-178 -376 -282 -556 -280 -102 2 -180 43 -205 108 -29 75 1 202 70 305 53 78
191 207 283 264 307 191 730 242 977 116 43 -22 43 -22 22 -39 -139 -106 -286
-267 -483 -531 -297 -396 -429 -533 -601 -621 -152 -77 -337 -80 -415 -7 -32
30 -29 45 6 40 34 -5 71 26 71 58 0 24 -34 60 -55 60 -31 0 -73 -30 -83 -59
-24 -68 34 -148 124 -170 23 -6 82 -11 129 -11 212 0 431 104 621 294 102 102
171 193 364 476 144 211 222 312 314 405 l59 59 27 -33 c127 -151 -5 -470
-245 -594 -52 -27 -71 -31 -140 -32 -44 0 -87 2 -95 5 -9 3 -15 -1 -15 -10 0
-10 19 -20 54 -29 44 -12 68 -13 133 -3 169 25 326 137 399 287 32 65 34 77
34 170 0 112 -14 151 -81 225 l-35 38 33 25 c35 27 115 69 161 86 16 6 25 15
22 21 -8 14 -12 13 -76 -14z"/>
<path d="M5610 1475 c-252 -51 -430 -194 -447 -359 -13 -130 66 -218 226 -252
36 -7 70 -14 74 -14 4 0 -8 -21 -28 -47 -20 -26 -55 -85 -78 -131 -37 -75 -41
-92 -44 -170 -3 -76 -1 -93 20 -132 67 -128 257 -146 465 -44 171 84 302 230
302 339 0 122 -155 136 -326 30 -78 -49 -206 -177 -242 -243 -33 -60 -12 -52
33 13 77 112 220 221 338 256 201 62 224 -79 42 -249 -157 -146 -371 -217
-492 -163 -96 44 -100 171 -8 327 27 46 150 203 167 215 6 4 40 9 76 13 152
14 398 93 585 188 244 124 386 274 348 366 -16 38 -48 52 -123 52 -92 0 -204
-35 -356 -111 -212 -105 -358 -208 -555 -390 l-98 -91 -47 6 c-162 23 -259
113 -237 219 27 128 173 254 365 315 101 33 181 43 308 41 117 -1 153 9 77 23
-65 11 -275 7 -345 -7z m964 -51 c93 -92 -234 -340 -612 -463 -111 -36 -299
-78 -308 -68 -6 6 170 169 261 242 167 134 378 259 492 290 69 19 148 19 167
-1z"/>
<path d="M9183 1275 c-122 -53 -315 -246 -634 -635 -85 -104 -205 -215 -308
-284 -54 -37 -101 -47 -101 -23 0 20 84 135 184 255 47 56 86 105 86 107 0 3
-20 5 -44 5 -39 0 -48 -4 -75 -37 -26 -32 -31 -34 -31 -17 0 50 -68 68 -149
40 -58 -21 -147 -84 -211 -151 -114 -118 -251 -215 -305 -215 -55 0 -31 44
139 257 l121 152 69 3 c89 4 103 26 20 30 l-58 3 77 91 c41 51 74 94 72 96 -2
2 -24 2 -49 0 -44 -4 -48 -7 -121 -97 l-76 -94 -56 -3 c-72 -4 -87 -28 -18
-28 l46 0 -59 -72 c-105 -128 -208 -223 -326 -300 -60 -38 -116 -50 -116 -24
0 20 41 78 161 223 60 72 109 134 109 137 0 3 -19 6 -41 6 -38 0 -46 -5 -88
-52 -81 -93 -164 -172 -246 -234 -89 -68 -128 -90 -165 -95 -47 -7 -32 26 59
130 116 132 138 180 111 232 -26 47 -155 5 -254 -83 -24 -21 -47 -38 -50 -38
-3 0 30 44 72 98 43 53 109 137 147 186 l69 89 -43 -7 c-30 -5 -50 -15 -65
-34 -130 -166 -335 -374 -476 -483 -96 -75 -120 -89 -149 -89 -32 0 -26 26 24
96 53 73 205 257 217 262 20 8 -6 22 -42 22 -31 0 -44 -6 -69 -35 -24 -28 -31
-32 -31 -17 0 29 -33 52 -73 52 -160 0 -396 -226 -371 -356 16 -84 100 -84
211 1 l48 37 3 -34 c7 -64 46 -82 114 -54 45 19 166 112 247 190 l64 61 -75
-90 c-285 -343 -368 -444 -368 -449 0 -3 20 -6 43 -6 l44 0 108 133 c199 241
278 329 357 396 138 117 248 171 248 122 0 -10 -38 -61 -85 -112 -86 -94 -125
-157 -125 -197 0 -29 34 -62 63 -62 49 0 159 65 246 144 l33 31 -21 -40 c-40
-75 -19 -135 46 -135 49 0 150 61 242 144 l33 31 -21 -40 c-26 -50 -27 -89 -1
-115 42 -42 132 -14 247 79 l62 50 -6 -47 c-4 -38 -1 -52 17 -74 35 -46 98
-32 195 41 l50 38 -3 -37 c-3 -30 1 -41 19 -54 48 -33 106 -10 227 88 82 67
91 71 72 36 -6 -10 -11 -37 -12 -59 -3 -97 79 -107 209 -25 63 40 205 173 197
185 -3 5 -39 -21 -80 -57 -141 -123 -243 -173 -261 -128 -9 24 17 71 117 203
85 113 99 127 198 193 231 155 407 308 482 421 43 64 49 96 24 121 -19 19 -49
20 -91 1z m66 -28 c41 -50 -195 -285 -489 -487 l-35 -24 40 49 c220 276 412
471 466 475 4 0 12 -6 18 -13z m-2785 -583 c44 -17 -7 -110 -124 -226 -43 -42
-96 -86 -119 -97 -48 -25 -91 -28 -91 -6 0 88 222 330 307 334 6 1 18 -2 27
-5z m1764 -21 c5 -35 -32 -95 -113 -181 -83 -89 -158 -142 -198 -142 -23 0
-27 4 -27 29 0 58 163 255 249 301 47 25 85 22 89 -7z"/>
<path d="M4721 1269 c-108 -43 -332 -266 -590 -587 -127 -158 -371 -362 -433
-362 -16 0 -28 5 -28 13 0 22 52 97 158 226 56 68 102 128 102 133 0 4 -18 8
-40 8 -32 0 -45 -6 -67 -30 l-27 -31 -13 25 c-16 30 -49 41 -104 33 -66 -9
-142 -53 -231 -133 -118 -108 -221 -191 -270 -219 -41 -24 -98 -34 -98 -17 0
14 39 67 99 137 64 74 101 137 101 173 0 31 -35 62 -69 62 -35 0 -112 -40
-169 -88 -24 -21 -53 -44 -64 -52 -20 -14 -20 -14 -4 17 32 64 11 123 -45 123
-37 0 -105 -48 -184 -129 -88 -90 -226 -211 -268 -233 -38 -21 -77 -23 -77 -5
0 21 51 93 159 227 55 69 101 128 101 133 0 4 -17 7 -37 7 -28 0 -45 -8 -70
-32 -23 -22 -33 -27 -33 -17 0 9 -9 24 -20 34 -72 65 -328 -82 -399 -228 -32
-66 -32 -134 0 -160 37 -30 90 -17 174 41 l71 49 -4 -34 c-5 -42 20 -73 58
-73 57 0 131 52 287 202 145 139 221 197 243 183 23 -14 -23 -80 -215 -307
l-57 -68 46 0 c46 0 46 1 188 144 148 150 249 226 300 226 15 0 28 -4 28 -8 0
-12 -48 -76 -113 -150 -88 -101 -108 -161 -66 -203 42 -42 146 -1 265 104 47
43 53 45 44 22 -28 -72 6 -145 68 -145 36 0 117 40 160 79 l32 30 0 -38 c0
-44 24 -71 61 -71 53 1 126 45 257 158 34 29 62 52 62 49 0 -2 -7 -19 -16 -37
-9 -18 -19 -52 -22 -76 -6 -56 28 -94 85 -94 75 0 219 88 331 203 66 67 54 84
-14 20 -118 -110 -234 -183 -293 -185 -66 -2 -59 46 24 167 95 139 143 194
206 233 283 174 529 409 529 503 0 51 -42 71 -99 48z m69 -47 c0 -51 -127
-192 -280 -312 -107 -85 -225 -166 -215 -149 43 73 333 399 395 445 50 38 100
45 100 16z m-2302 -583 c9 -77 -232 -319 -318 -319 -34 0 -34 25 2 92 37 71
173 214 228 241 49 24 84 19 88 -14z m1261 12 c15 -28 -26 -103 -102 -186 -99
-108 -196 -168 -232 -141 -17 12 -16 15 4 61 12 26 46 78 77 116 110 135 225
203 253 150z"/>
<path d="M7600 910 c-11 -11 -20 -25 -20 -31 0 -24 22 -49 44 -49 25 0 66 38
66 61 0 40 -57 52 -90 19z"/>
</g>
</svg>
