<?xml version="1.0" standalone="no"?>
<!DOCTYPE svg PUBLIC "-//W3C//DTD SVG 20010904//EN"
 "http://www.w3.org/TR/2001/REC-SVG-20010904/DTD/svg10.dtd">
<svg version="1.0" xmlns="http://www.w3.org/2000/svg"
 width="980" height="190" viewBox="0 0 980.000000 190.000000"
 preserveAspectRatio="xMidYMid meet">
<g transform="translate(0.000000,190.000000) scale(0.100000,-0.100000)"
fill="#f1ead8" stroke="none">
<path d="M2649 1626 c-58 -23 -122 -59 -151 -83 -14 -13 -23 -11 -66 11 -442
224 -1221 -56 -1387 -499 -196 -520 717 -438 931 83 160 388 -440 256 -685
-150 -35 -58 -9 -45 34 17 240 349 775 475 609 144 -173 -347 -819 -557 -870
-283 -66 352 526 761 1056 731 125 -8 343 -70 318 -91 -1 -2 -35 -30 -73 -62
-115 -96 -244 -241 -401 -451 -456 -612 -727 -804 -982 -698 -71 30 -109 86
-53 77 57 -8 92 57 51 98 -59 59 -151 -30 -117 -113 54 -128 321 -146 557 -38
233 105 372 248 670 686 154 226 231 326 324 420 l59 59 27 -33 c190 -227
-169 -697 -475 -621 -13 3 -20 0 -20 -10 0 -29 97 -45 189 -32 357 52 561 448
350 682 l-35 38 33 25 c35 27 115 69 161 86 16 6 25 15 22 21 -8 14 -12 13
-76 -14z"/>
<path d="M5627 1480 c-509 -86 -649 -619 -164 -630 4 0 -8 -21 -28 -47 -287
-376 -55 -681 363 -477 333 163 423 509 110 429 -118 -30 -314 -187 -376 -302
-33 -61 -12 -53 33 12 187 272 607 383 479 127 -73 -148 -329 -303 -499 -302
-220 1 -224 205 -7 473 79 99 69 93 150 101 428 40 1004 383 933 554 -72 174
-617 -63 -1034 -449 l-98 -91 -47 6 c-524 74 -138 584 436 575 117 -1 153 9
77 23 -53 9 -267 8 -328 -2z m947 -56 c115 -115 -382 -433 -805 -515 -128 -25
-128 -25 -93 12 301 318 802 599 898 503z"/>
<path d="M9163 1265 c-111 -56 -292 -235 -539 -535 -192 -234 -390 -410 -460
-410 -47 0 -4 73 160 268 101 120 98 112 42 112 -39 0 -48 -4 -75 -37 -26 -32
-31 -34 -31 -17 0 111 -207 47 -360 -111 -114 -118 -251 -215 -305 -215 -55 0
-31 44 139 257 l121 152 69 3 c89 4 103 26 20 30 l-58 3 78 93 c43 52 76 95
74 96 -36 27 -100 -10 -173 -99 l-76 -94 -56 -3 c-70 -4 -84 -25 -19 -30 l44
-3 -81 -96 c-132 -156 -325 -309 -388 -309 -55 0 -37 32 132 237 125 152 121
143 68 143 -38 0 -46 -5 -87 -52 -181 -208 -442 -393 -442 -314 0 7 40 59 89
115 213 244 99 363 -143 149 -69 -60 -62 -47 42 85 188 235 196 247 170 246
-48 -2 -67 -17 -165 -134 -237 -282 -563 -548 -563 -459 0 26 189 275 248 328
28 25 19 36 -28 36 -31 0 -44 -6 -69 -35 -24 -28 -31 -32 -31 -17 0 117 -269
20 -386 -139 -138 -188 -29 -303 153 -164 l48 37 3 -34 c12 -121 145 -71 361
136 l64 61 -75 -90 c-422 -507 -386 -457 -323 -453 l45 3 188 225 c194 233
298 335 414 403 132 78 142 37 23 -94 -223 -246 -115 -360 143 -150 34 28 62
49 62 47 0 -2 -7 -17 -15 -32 -80 -154 77 -162 254 -14 l71 60 -20 -37 c-83
-156 70 -176 247 -34 l62 50 -6 -47 c-13 -119 79 -133 212 -33 l51 38 -4 -34
c-13 -108 92 -95 248 32 47 39 80 60 76 49 -86 -207 103 -202 321 9 94 91 84
106 -13 21 -141 -123 -243 -173 -261 -128 -21 55 177 304 315 396 358 239 576
473 506 542 -22 22 -52 20 -111 -9z m86 -18 c41 -50 -195 -285 -489 -487 l-35
-24 40 49 c267 335 447 506 484 462z m-2785 -583 c82 -31 -199 -344 -309 -344
-104 0 173 343 282 349 6 1 18 -2 27 -5z m1764 -21 c11 -76 -227 -323 -311
-323 -65 0 -9 114 118 243 100 101 185 136 193 80z"/>
<path d="M4694 1254 c-122 -65 -294 -241 -590 -606 -108 -131 -350 -328 -406
-328 -53 0 -27 47 130 239 116 141 116 141 63 141 -32 0 -46 -6 -70 -32 -17
-18 -31 -27 -31 -20 0 111 -190 56 -371 -110 -290 -265 -448 -313 -240 -73
186 214 79 328 -137 147 -81 -68 -87 -71 -68 -35 32 64 11 123 -45 123 -40 0
-105 -49 -237 -178 -307 -302 -387 -279 -133 38 56 69 101 128 101 133 0 23
-76 5 -107 -25 -23 -22 -33 -27 -33 -17 0 95 -207 42 -336 -86 -191 -191 -119
-373 91 -227 l71 49 -4 -34 c-17 -140 118 -89 345 129 147 141 213 191 240
181 27 -10 -17 -74 -212 -305 l-57 -68 46 0 c46 0 46 1 188 144 148 150 249
226 300 226 44 0 30 -27 -85 -158 -198 -226 -35 -307 199 -99 47 43 53 45 44
22 -56 -148 91 -191 228 -66 l32 30 0 -38 c0 -113 107 -91 285 59 52 44 95 78
95 76 0 -1 -7 -18 -16 -36 -119 -237 152 -214 394 33 66 67 54 84 -14 21 -262
-244 -431 -255 -269 -19 95 139 143 194 206 233 285 176 529 409 529 506 0 58
-50 70 -126 30z m96 -32 c0 -51 -127 -192 -280 -312 -92 -73 -220 -163 -220
-156 0 23 340 408 400 452 50 38 100 45 100 16z m-2302 -583 c11 -98 -313
-385 -344 -305 -18 46 167 275 256 319 49 24 84 19 88 -14z m1261 12 c31 -57
-156 -274 -280 -325 -93 -39 -80 44 27 175 110 135 225 203 253 150z"/>
<path d="M7600 910 c-32 -32 -18 -80 24 -80 25 0 66 38 66 61 0 40 -57 52 -90
19z"/>
</g>
</svg>
