<?xml version="1.0" standalone="no"?>
<!DOCTYPE svg PUBLIC "-//W3C//DTD SVG 20010904//EN"
 "http://www.w3.org/TR/2001/REC-SVG-20010904/DTD/svg10.dtd">
<svg version="1.0" xmlns="http://www.w3.org/2000/svg"
 width="980" height="190" viewBox="0 0 980.000000 190.000000"
 preserveAspectRatio="xMidYMid meet">
<g transform="translate(0.000000,190.000000) scale(0.100000,-0.100000)"
fill="#f1ead8" stroke="none">
<path d="M2649 1626 c-58 -23 -122 -59 -151 -83 l-16 -14 -50 25 c-28 14 -86
36 -129 48 l-78 23 -185 -1 -185 -1 -98 -26 c-411 -110 -737 -405 -737 -667 0
-296 454 -311 783 -27 110 95 196 244 197 340 l0 47 -34 37 -33 37 -61 4
c-186 13 -446 -157 -581 -380 -35 -58 -9 -45 33 16 153 223 470 392 603 322
169 -87 -209 -501 -527 -577 -132 -31 -264 -4 -313 65 l-22 31 0 85 1 85 34
70 c93 189 365 390 630 467 247 71 573 57 688 -30 l23 -17 -49 -38 c-99 -75
-278 -273 -426 -472 -315 -422 -454 -567 -628 -656 -152 -77 -337 -80 -415 -7
-32 30 -29 45 6 40 57 -8 92 57 51 98 -54 54 -143 -20 -120 -101 39 -134 300
-162 545 -57 239 103 380 246 695 708 145 212 223 313 314 405 l59 59 27 -32
c127 -153 -3 -470 -245 -595 l-60 -31 -80 -1 c-44 0 -87 2 -95 5 -9 3 -15 -1
-15 -10 0 -10 19 -20 54 -29 l54 -15 79 12 c169 25 326 137 399 287 l34 70 0
100 0 100 -23 43 c-13 24 -39 60 -58 82 l-35 38 33 25 c38 29 150 87 167 87 6
0 11 7 11 15 0 19 -4 19 -71 -9z"/>
<path d="M5610 1475 c-299 -61 -492 -254 -441 -443 26 -95 160 -179 293 -182
4 0 -12 -28 -36 -62 -267 -385 -42 -665 372 -462 272 133 405 406 214 439
-132 22 -388 -144 -481 -314 -33 -61 -12 -48 45 29 98 130 272 245 387 257
l52 5 28 -22 c132 -105 -245 -431 -498 -430 -236 1 -212 271 48 541 l25 26 68
6 c214 21 596 167 764 293 216 163 239 314 48 314 -218 0 -607 -215 -921 -510
l-87 -82 -48 6 c-427 60 -238 480 256 566 35 6 116 10 180 9 117 -1 153 9 77
23 -65 11 -275 7 -345 -7z m964 -51 c93 -92 -234 -340 -612 -463 -111 -36
-299 -78 -308 -68 -6 6 170 169 261 242 281 226 588 361 659 289z"/>
<path d="M9183 1275 c-122 -53 -315 -246 -634 -635 -154 -188 -409 -379 -409
-307 0 20 84 135 184 255 47 56 86 105 86 107 0 3 -20 5 -44 5 l-45 0 -30 -37
-31 -38 0 21 c0 111 -207 47 -360 -111 -114 -118 -251 -215 -305 -215 -54 0
-31 44 131 248 l126 157 71 5 c89 6 107 30 23 30 -31 0 -56 3 -56 6 0 3 34 45
75 94 41 48 72 89 70 91 -2 3 -24 3 -49 1 l-45 -4 -76 -93 -76 -94 -56 -3
c-72 -4 -87 -28 -18 -28 l46 0 -59 -72 c-140 -172 -344 -338 -414 -338 -54 0
-35 32 133 237 60 72 109 135 109 139 0 3 -21 4 -46 1 l-47 -5 -40 -48 c-156
-188 -421 -380 -435 -314 -1 9 38 63 88 120 116 135 137 179 110 231 -26 47
-155 5 -254 -83 -67 -58 -63 -47 22 60 43 53 109 137 147 186 l69 89 -43 -7
c-30 -5 -50 -15 -65 -34 -244 -312 -646 -657 -646 -556 0 27 232 330 262 342
20 8 -6 22 -42 22 l-38 0 -31 -35 c-24 -28 -31 -32 -31 -17 0 83 -148 63 -282
-38 -103 -78 -160 -163 -161 -243 l-1 -50 23 -18 c42 -34 103 -19 188 46 l48
37 3 -34 c12 -121 133 -76 357 132 l69 65 -75 -90 c-213 -254 -369 -444 -369
-449 0 -3 20 -6 43 -6 l44 0 108 133 c265 322 358 415 497 500 131 79 142 38
26 -92 -124 -137 -151 -198 -108 -241 44 -44 158 5 289 124 l33 31 -21 -40
c-40 -75 -19 -135 46 -135 48 0 146 58 242 144 l35 31 -17 -27 c-9 -15 -19
-44 -23 -66 l-6 -40 21 -21 c43 -43 131 -16 248 78 l62 50 -6 -47 -5 -47 22
-27 c35 -46 98 -32 195 41 l50 38 -3 -38 -4 -37 26 -17 c50 -33 125 1 259 118
l60 51 -17 -31 c-23 -45 -24 -108 -1 -133 48 -53 173 2 319 141 97 91 89 110
-10 23 -141 -123 -243 -173 -261 -128 -9 24 17 71 117 203 l92 122 106 71
c357 238 576 473 506 542 -19 19 -49 20 -91 1z m66 -28 c41 -50 -195 -285
-489 -487 l-35 -24 40 49 c220 276 412 471 466 475 4 0 12 -6 18 -13z m-2785
-583 c82 -31 -199 -344 -309 -344 -49 0 -28 61 61 171 101 127 196 193 248
173z m1764 -21 c11 -76 -227 -323 -311 -323 l-27 0 0 29 c0 58 163 255 249
301 47 25 85 22 89 -7z"/>
<path d="M4721 1269 c-108 -43 -332 -266 -590 -587 -127 -158 -371 -362 -433
-362 -53 0 -27 47 130 239 56 68 102 128 102 133 0 24 -81 7 -107 -22 l-27
-31 -13 25 c-40 77 -188 33 -335 -100 -188 -172 -289 -244 -340 -244 -44 0
-30 28 71 145 96 111 121 175 81 215 -39 39 -122 13 -218 -68 -24 -21 -53 -44
-64 -52 l-21 -14 17 31 c32 63 11 123 -43 123 -40 0 -85 -32 -201 -144 -187
-180 -260 -236 -310 -236 -44 0 -14 51 139 240 55 69 101 128 101 133 0 23
-76 5 -107 -25 -23 -22 -33 -27 -33 -17 0 82 -167 53 -298 -51 -225 -177 -176
-421 53 -262 l71 49 -4 -34 c-5 -42 20 -73 58 -73 57 0 131 52 291 205 156
150 221 197 241 177 17 -17 -51 -110 -237 -329 l-37 -43 47 0 47 0 115 120
c163 170 268 250 328 250 41 0 25 -30 -88 -158 -88 -101 -108 -161 -66 -203
42 -42 146 -1 265 104 l54 49 -10 -27 c-28 -72 6 -145 68 -145 36 0 117 40
160 79 l32 30 0 -38 c0 -121 112 -90 318 87 34 29 62 52 62 49 0 -2 -7 -19
-16 -37 -9 -18 -19 -52 -22 -76 l-4 -42 25 -26 c63 -63 204 -4 374 157 97 93
83 105 -19 17 -136 -117 -249 -181 -293 -164 -27 11 -22 54 11 111 38 65 170
239 196 257 12 10 68 47 123 83 316 208 510 427 439 497 -17 18 -47 20 -83 5z
m69 -47 c0 -69 -185 -252 -429 -424 -87 -61 -86 -58 33 87 130 160 244 283
296 321 50 38 100 45 100 16z m-2302 -583 c11 -98 -313 -385 -344 -305 -18 46
167 275 256 319 49 24 84 19 88 -14z m1261 12 c31 -57 -156 -274 -280 -325
l-36 -15 -18 13 -17 13 21 47 c70 159 292 338 330 267z"/>
<path d="M7600 910 c-32 -32 -18 -80 24 -80 25 0 66 38 66 61 0 40 -57 52 -90
19z"/>
</g>
</svg>
