<?xml version="1.0" standalone="no"?>
<!DOCTYPE svg PUBLIC "-//W3C//DTD SVG 20010904//EN"
 "http://www.w3.org/TR/2001/REC-SVG-20010904/DTD/svg10.dtd">
<svg version="1.0" xmlns="http://www.w3.org/2000/svg"
 width="980" height="190" viewBox="0 0 980.000000 190.000000"
 preserveAspectRatio="xMidYMid meet">
<g transform="translate(0.000000,190.000000) scale(0.100000,-0.100000)"
fill="#f1ead8" stroke="none">
<path d="M2654 1629 c-28 -10 -79 -36 -114 -58 -64 -38 -64 -38 -124 -10 -117
55 -173 64 -376 63 -167 0 -194 -3 -283 -27 -347 -93 -622 -303 -713 -543 -55
-148 -12 -278 111 -330 54 -22 177 -29 261 -15 184 32 383 157 491 308 149
209 115 365 -76 350 -191 -14 -413 -170 -540 -379 -35 -58 -9 -45 34 17 20 30
77 93 125 138 70 67 109 94 193 137 91 46 114 53 179 58 90 5 133 -12 143 -57
14 -66 -29 -153 -134 -264 -164 -172 -372 -280 -542 -280 -213 0 -287 141
-184 349 71 144 259 312 446 398 268 123 582 150 800 67 98 -37 98 -38 16
-106 -116 -96 -248 -244 -405 -454 -306 -411 -455 -567 -628 -654 -147 -74
-335 -77 -411 -5 -32 30 -29 45 6 40 34 -5 71 26 71 58 0 24 -34 60 -55 60
-34 0 -74 -30 -85 -64 -21 -66 35 -140 125 -165 22 -6 80 -11 128 -11 215 0
433 103 623 294 108 108 168 187 355 462 151 223 229 325 323 419 59 59 59 59
86 26 79 -94 61 -268 -44 -415 -59 -82 -123 -138 -205 -179 -55 -27 -77 -32
-136 -32 -38 0 -79 2 -90 5 -13 3 -20 0 -20 -10 0 -10 19 -20 54 -29 78 -21
191 -3 291 46 99 48 194 142 241 238 32 65 34 77 34 170 0 112 -14 151 -81
225 -35 38 -35 38 -2 64 18 13 68 41 111 61 42 21 74 41 71 46 -7 12 -10 11
-70 -12z"/>
<path d="M5627 1480 c-249 -42 -447 -197 -464 -364 -13 -130 66 -218 226 -252
36 -7 70 -14 74 -14 4 0 -8 -21 -28 -47 -20 -26 -55 -85 -78 -131 -36 -74 -41
-93 -45 -170 -3 -77 -1 -92 20 -132 68 -127 254 -145 463 -46 119 56 237 163
286 258 27 53 25 123 -4 152 -50 50 -175 39 -287 -27 -67 -39 -227 -196 -258
-254 -34 -63 -13 -52 38 19 120 165 362 302 455 257 142 -68 -111 -356 -372
-424 -118 -31 -225 -8 -257 54 -41 78 -1 216 101 353 105 139 111 144 189 151
154 15 399 94 587 189 245 125 386 273 348 366 -16 39 -48 52 -124 52 -87 0
-192 -31 -332 -99 -212 -102 -382 -220 -572 -397 -103 -96 -103 -96 -166 -86
-237 38 -294 205 -127 373 63 63 125 102 224 140 114 44 211 60 351 58 119 -1
157 9 80 23 -53 9 -267 8 -328 -2z m947 -56 c91 -91 -221 -331 -594 -457 -103
-35 -303 -81 -322 -75 -6 2 27 39 73 82 171 159 384 318 521 387 138 70 286
99 322 63z"/>
<path d="M9163 1265 c-111 -56 -292 -235 -539 -535 -155 -189 -258 -289 -381
-373 -56 -37 -103 -48 -103 -24 0 19 83 134 184 255 47 56 86 104 86 107 0 3
-20 5 -44 5 -39 0 -48 -4 -75 -37 -26 -32 -31 -34 -31 -17 0 38 -34 57 -89 52
-79 -8 -155 -53 -266 -159 -160 -153 -253 -219 -310 -219 -55 0 -30 47 140
259 120 149 120 149 189 153 89 4 103 26 20 30 -58 3 -58 3 20 96 43 52 76 95
74 96 -1 1 -24 1 -50 -2 -46 -4 -49 -6 -123 -97 -76 -94 -76 -94 -132 -97 -70
-4 -84 -25 -19 -30 44 -3 44 -3 -33 -94 -133 -157 -329 -314 -392 -314 -55 0
-37 32 132 237 60 72 109 134 109 137 0 3 -20 6 -44 6 -42 0 -45 -2 -119 -89
-142 -167 -393 -341 -405 -281 -1 9 37 62 87 118 115 132 138 181 111 233 -25
47 -146 8 -254 -81 -27 -22 -50 -40 -52 -40 -2 0 41 55 94 123 188 235 196
247 170 246 -48 -2 -67 -17 -165 -134 -144 -172 -341 -358 -477 -449 -46 -31
-86 -35 -86 -8 0 20 97 151 198 269 39 44 68 84 65 87 -4 3 -23 6 -44 6 -30 0
-43 -7 -68 -35 -24 -28 -31 -32 -31 -17 0 36 -35 55 -89 50 -103 -10 -258
-117 -320 -222 -44 -74 -49 -147 -12 -177 42 -34 113 -16 196 51 40 32 40 32
46 -10 8 -59 41 -74 106 -49 39 15 165 111 247 188 70 66 70 66 -5 -24 -299
-357 -369 -443 -369 -449 0 -4 20 -6 45 -4 45 3 45 3 233 228 194 233 298 335
414 403 70 41 108 48 108 18 0 -10 -34 -56 -76 -102 -130 -143 -159 -204 -114
-249 11 -11 31 -20 45 -20 37 0 130 50 203 109 34 28 62 49 62 47 0 -2 -7 -17
-15 -32 -21 -41 -19 -87 5 -109 41 -37 148 5 260 103 55 48 57 48 35 6 -21
-41 -19 -80 6 -105 43 -43 154 -3 265 94 43 38 43 38 38 -10 -5 -40 -2 -53 16
-75 35 -46 98 -32 195 41 51 38 51 38 47 4 -3 -23 1 -40 13 -53 38 -42 110
-16 235 85 47 39 80 60 76 49 -16 -37 -24 -87 -19 -103 25 -70 96 -67 213 7
64 40 202 171 194 183 -3 5 -39 -21 -80 -57 -141 -123 -243 -173 -261 -128 -9
24 17 71 117 203 85 113 99 127 198 193 231 155 407 308 482 421 43 64 49 96
24 121 -22 22 -52 20 -111 -9z m86 -18 c41 -50 -195 -285 -489 -487 -35 -24
-35 -24 5 25 214 269 412 471 466 475 4 0 12 -6 18 -13z m-2775 -600 c36 -57
-223 -327 -315 -327 -34 0 -36 13 -14 67 32 77 191 246 256 272 33 14 60 9 73
-12z m1754 -4 c5 -35 -32 -95 -113 -181 -83 -89 -158 -142 -198 -142 -23 0
-27 4 -27 28 0 58 163 257 249 302 47 25 85 22 89 -7z"/>
<path d="M4694 1254 c-122 -65 -294 -241 -590 -606 -64 -77 -217 -216 -319
-287 -59 -42 -115 -55 -115 -27 0 21 70 121 170 239 49 59 90 112 90 117 0 6
-18 10 -41 10 -32 0 -46 -6 -68 -30 -28 -31 -28 -31 -39 -6 -21 47 -103 47
-197 2 -29 -15 -92 -61 -140 -104 -154 -137 -209 -182 -260 -212 -47 -28 -105
-40 -105 -21 0 11 32 55 109 148 92 112 110 164 71 203 -39 39 -113 17 -209
-61 -29 -24 -63 -51 -74 -59 -19 -14 -19 -14 -3 17 21 42 20 86 -2 106 -48 43
-112 6 -280 -161 -127 -126 -228 -202 -268 -202 -48 0 -25 40 135 240 56 69
101 128 101 133 0 4 -17 7 -37 7 -28 0 -45 -8 -70 -32 -23 -22 -33 -27 -33
-17 0 33 -36 52 -90 47 -111 -11 -276 -132 -330 -243 -32 -66 -32 -131 1 -158
37 -30 90 -17 174 41 71 49 71 49 67 15 -8 -67 45 -90 123 -54 58 27 89 53
241 200 133 128 199 177 221 163 21 -13 -12 -64 -139 -217 -125 -150 -125
-150 -82 -153 43 -3 43 -3 186 142 148 150 249 226 300 226 15 0 28 -4 28 -8
0 -12 -48 -76 -113 -150 -88 -101 -108 -161 -66 -203 42 -42 146 -1 265 104
47 43 53 45 44 22 -18 -47 -12 -94 15 -120 40 -41 102 -28 196 41 49 36 49 36
49 1 0 -41 25 -67 64 -67 44 0 134 53 228 135 86 74 86 74 67 24 -26 -67 -24
-105 6 -134 17 -18 35 -25 62 -25 75 0 219 88 331 203 60 61 56 87 -4 31 -68
-64 -168 -141 -218 -168 -52 -28 -121 -35 -129 -13 -9 23 18 81 71 158 95 137
141 189 203 227 142 87 281 194 380 292 136 134 177 211 133 254 -22 23 -54
20 -110 -10z m96 -32 c0 -50 -126 -191 -280 -312 -83 -66 -220 -162 -220 -155
0 6 188 232 269 324 85 96 168 161 204 161 19 0 27 -5 27 -18z m-2302 -580
c14 -97 -313 -389 -344 -308 -17 45 168 276 256 319 47 23 84 19 88 -11z
m1261 9 c27 -50 -149 -264 -258 -315 -116 -54 -114 18 5 164 107 133 225 203
253 151z"/>
<path d="M7600 910 c-11 -11 -20 -25 -20 -31 0 -24 22 -49 44 -49 25 0 66 38
66 61 0 40 -57 52 -90 19z"/>
</g>
</svg>
