<?xml version="1.0" standalone="no"?>
<!DOCTYPE svg PUBLIC "-//W3C//DTD SVG 20010904//EN"
 "http://www.w3.org/TR/2001/REC-SVG-20010904/DTD/svg10.dtd">
<svg version="1.0" xmlns="http://www.w3.org/2000/svg"
 width="980" height="190" viewBox="0 0 980.000000 190.000000"
 preserveAspectRatio="xMidYMid meet">
<g transform="translate(0.000000,190.000000) scale(0.100000,-0.100000)"
fill="#f1ead8" stroke="none">
<path d="M2654 1629 c-28 -10 -79 -36 -114 -58 -64 -38 -64 -38 -124 -10 -318
148 -838 53 -1146 -208 -393 -335 -305 -722 146 -644 348 61 699 456 550 619
-124 135 -503 -57 -675 -340 -35 -58 -9 -45 34 17 151 220 470 390 602 321
169 -87 -209 -501 -527 -577 -371 -88 -462 212 -156 517 229 228 549 349 876
331 121 -7 343 -71 318 -91 -1 -2 -35 -30 -73 -62 -115 -96 -244 -242 -401
-452 -312 -418 -454 -565 -626 -653 -152 -77 -337 -80 -415 -7 -32 30 -29 45
6 40 57 -8 92 57 51 98 -59 59 -151 -30 -117 -113 69 -163 415 -143 697 40
163 106 279 239 530 608 154 226 231 326 324 420 59 59 59 59 86 26 190 -227
-170 -697 -475 -621 -13 3 -20 0 -20 -10 0 -29 97 -45 189 -32 357 52 561 448
350 682 -35 38 -35 38 -2 63 35 27 115 69 161 86 16 6 25 15 22 21 -8 13 -11
13 -71 -11z"/>
<path d="M5627 1480 c-473 -80 -648 -529 -238 -616 36 -7 70 -14 74 -14 4 0
-8 -21 -28 -47 -287 -376 -55 -681 363 -477 333 163 423 509 110 429 -118 -30
-314 -187 -376 -302 -34 -62 -13 -52 38 18 138 190 396 320 482 242 91 -82
-168 -348 -398 -408 -286 -74 -364 130 -157 407 105 139 111 144 189 151 430
41 1006 383 935 555 -72 174 -617 -63 -1034 -449 -98 -91 -98 -91 -145 -85
-268 38 -318 238 -104 412 137 112 318 167 540 163 117 -1 153 9 77 23 -53 9
-267 8 -328 -2z m947 -56 c107 -107 -331 -403 -739 -499 -180 -42 -195 -43
-160 -5 293 314 803 600 899 504z"/>
<path d="M9163 1265 c-111 -56 -292 -235 -539 -535 -192 -234 -390 -410 -460
-410 -47 0 -4 73 160 268 101 120 98 112 42 112 -39 0 -48 -4 -75 -37 -26 -32
-31 -34 -31 -17 0 111 -185 56 -355 -107 -160 -153 -253 -219 -310 -219 -55 0
-31 44 139 257 121 152 121 152 190 155 89 4 103 26 20 30 -58 3 -58 3 20 96
43 52 76 95 74 96 -36 27 -100 -10 -173 -99 -76 -94 -76 -94 -132 -97 -70 -4
-84 -25 -19 -30 44 -3 44 -3 -33 -94 -133 -157 -329 -314 -392 -314 -55 0 -37
32 132 237 125 152 121 143 68 143 -38 0 -46 -5 -87 -52 -181 -208 -442 -393
-442 -314 0 7 40 59 89 115 116 132 138 180 111 232 -26 47 -155 5 -254 -83
-69 -60 -62 -47 42 85 188 235 196 247 170 246 -48 -2 -67 -17 -143 -109 -239
-289 -585 -576 -585 -484 0 26 189 275 248 328 28 25 19 36 -28 36 -31 0 -44
-6 -69 -35 -24 -28 -31 -32 -31 -17 0 117 -269 20 -386 -139 -139 -190 -22
-307 161 -159 40 32 40 32 46 -10 15 -112 140 -63 353 139 70 66 70 66 -5 -24
-243 -291 -369 -444 -369 -450 0 -3 20 -5 45 -3 45 3 45 3 233 228 194 233
298 335 414 403 132 78 142 37 23 -94 -223 -246 -115 -360 143 -150 34 28 62
49 62 47 0 -2 -7 -17 -15 -32 -80 -154 77 -162 254 -14 71 60 71 60 51 23 -83
-156 70 -176 247 -34 62 50 62 50 56 3 -13 -119 79 -133 212 -33 51 38 51 38
47 4 -13 -108 92 -95 248 32 47 39 80 60 76 49 -86 -207 103 -202 321 9 94 91
84 106 -13 21 -141 -123 -243 -173 -261 -128 -21 55 177 304 315 396 358 239
576 473 506 542 -22 22 -52 20 -111 -9z m86 -18 c41 -50 -195 -285 -489 -487
-35 -24 -35 -24 5 25 262 329 447 506 484 462z m-2785 -583 c82 -31 -199 -344
-309 -344 -104 0 173 343 282 349 6 1 18 -2 27 -5z m1764 -21 c11 -76 -227
-323 -311 -323 -65 0 -9 114 118 243 100 101 185 136 193 80z"/>
<path d="M4694 1254 c-122 -65 -294 -241 -590 -606 -145 -178 -434 -387 -434
-314 0 21 70 121 170 239 103 123 104 127 51 127 -32 0 -46 -6 -70 -32 -17
-18 -31 -27 -31 -20 0 26 -40 52 -80 52 -85 0 -165 -45 -296 -165 -165 -151
-256 -215 -309 -215 -41 0 -26 30 74 145 186 214 79 328 -137 147 -81 -68 -87
-71 -68 -35 32 64 11 123 -45 123 -41 0 -107 -50 -237 -178 -129 -127 -228
-202 -268 -202 -48 0 -24 42 135 240 56 69 101 128 101 133 0 23 -76 5 -107
-25 -23 -22 -33 -27 -33 -17 0 95 -207 42 -336 -86 -191 -192 -119 -373 91
-227 71 49 71 49 67 15 -5 -42 20 -73 58 -73 57 0 131 52 288 202 148 142 212
191 239 181 27 -10 -17 -74 -212 -305 -57 -68 -57 -68 -11 -68 46 0 46 1 188
144 148 150 249 226 300 226 44 0 30 -27 -85 -158 -198 -226 -35 -307 199 -99
47 43 53 45 44 22 -56 -148 91 -191 228 -66 32 30 32 30 32 -8 0 -113 116 -88
292 64 86 74 86 74 67 24 -87 -229 158 -202 399 44 66 67 54 84 -14 21 -262
-244 -431 -255 -269 -19 95 139 143 194 206 233 285 176 529 409 529 506 0 58
-50 70 -126 30z m96 -32 c0 -51 -127 -192 -280 -312 -92 -73 -220 -163 -220
-156 0 23 340 408 400 452 50 38 100 45 100 16z m-2302 -583 c11 -98 -313
-385 -344 -305 -18 46 167 275 256 319 49 24 84 19 88 -14z m1261 12 c31 -57
-156 -274 -280 -325 -93 -39 -80 44 27 175 110 135 225 203 253 150z"/>
<path d="M7600 910 c-32 -32 -18 -80 24 -80 25 0 66 38 66 61 0 40 -57 52 -90
19z"/>
</g>
</svg>
