<?xml version="1.0" standalone="no"?>
<!DOCTYPE svg PUBLIC "-//W3C//DTD SVG 20010904//EN"
 "http://www.w3.org/TR/2001/REC-SVG-20010904/DTD/svg10.dtd">
<svg version="1.0" xmlns="http://www.w3.org/2000/svg"
 width="980" height="190" viewBox="0 0 980.000000 190.000000"
 preserveAspectRatio="xMidYMid meet">
<g transform="translate(0.000000,190.000000) scale(0.100000,-0.100000)"
fill="#f1ead8" stroke="none">
<path d="M2646 1625 c-32 -13 -83 -40 -112 -59 -54 -36 -54 -36 -103 -11 -357
180 -987 28 -1266 -305 -272 -324 -141 -609 249 -541 347 61 701 455 553 617
-124 136 -504 -54 -676 -338 -35 -58 -9 -45 33 16 155 225 470 392 606 321
161 -83 -200 -488 -511 -571 -284 -75 -440 86 -319 331 182 369 818 614 1232
474 104 -35 116 -47 76 -78 -127 -97 -270 -256 -481 -537 -283 -378 -422 -520
-589 -605 -153 -77 -337 -80 -415 -7 -32 30 -29 45 6 40 57 -8 92 57 51 98
-54 54 -143 -20 -120 -101 39 -133 304 -161 545 -57 247 107 388 254 740 774
96 141 188 257 268 339 60 59 60 59 87 27 190 -228 -189 -719 -480 -622 -9 3
-15 -1 -15 -10 0 -29 97 -45 187 -32 359 52 563 448 352 682 -35 38 -35 38 -2
63 38 29 150 87 167 87 6 0 11 7 11 15 0 20 -4 19 -74 -10z"/>
<path d="M5610 1475 c-299 -61 -492 -254 -441 -443 26 -95 160 -179 293 -182
4 0 -12 -28 -36 -62 -267 -384 -41 -664 372 -462 260 127 399 389 231 434
-135 37 -396 -126 -498 -310 -34 -60 -12 -46 45 30 135 178 383 306 467 240
132 -105 -245 -431 -498 -430 -208 1 -224 187 -37 435 95 126 101 131 173 138
434 41 1011 382 940 555 -73 175 -631 -70 -1044 -458 -87 -82 -87 -82 -135
-76 -427 60 -238 480 256 566 35 6 116 10 180 9 117 -1 153 9 77 23 -65 11
-275 7 -345 -7z m964 -51 c126 -125 -575 -534 -916 -534 -46 0 342 323 508
423 181 108 362 158 408 111z"/>
<path d="M9175 1271 c-122 -57 -312 -248 -626 -631 -154 -189 -409 -379 -409
-306 0 19 97 153 191 263 93 108 91 103 35 103 -39 0 -48 -4 -75 -37 -26 -32
-31 -34 -31 -17 0 111 -207 47 -360 -111 -114 -118 -251 -215 -305 -215 -54 0
-31 44 131 248 126 157 126 157 197 162 89 6 107 30 23 30 -70 0 -71 -6 19
100 83 98 83 97 21 92 -44 -4 -48 -7 -121 -97 -76 -94 -76 -94 -132 -97 -72
-4 -87 -28 -18 -28 46 0 46 0 -13 -72 -140 -172 -344 -338 -414 -338 -54 0
-35 32 134 238 119 144 120 148 55 138 -39 -6 -50 -15 -107 -82 -95 -114 -278
-262 -356 -289 -81 -28 -73 -1 36 126 116 134 137 178 110 230 -25 45 -157 3
-253 -81 -68 -60 -64 -49 21 58 220 275 221 276 173 268 -30 -5 -50 -15 -65
-34 -243 -310 -646 -657 -646 -557 0 25 154 232 244 326 30 32 25 39 -25 39
-30 0 -43 -7 -68 -35 -24 -28 -31 -32 -31 -17 0 115 -270 19 -383 -136 -138
-191 -29 -313 149 -167 52 43 54 43 54 2 0 -123 134 -72 355 133 69 65 69 65
-6 -25 -213 -254 -369 -444 -369 -449 0 -3 20 -6 43 -6 44 0 44 0 152 133 199
241 278 329 357 396 127 108 233 163 252 133 7 -12 -23 -52 -116 -157 -209
-236 -51 -311 197 -93 47 41 47 41 26 2 -97 -180 83 -173 288 10 34 30 34 30
18 4 -102 -163 58 -196 240 -49 62 50 62 50 56 3 -13 -119 79 -133 212 -33 50
38 50 38 47 0 -11 -111 110 -84 281 64 56 48 59 49 43 20 -23 -45 -24 -108 -1
-133 48 -53 173 2 319 141 97 91 89 110 -10 23 -202 -175 -328 -196 -225 -37
100 155 172 233 281 306 352 236 573 472 505 540 -21 22 -50 21 -100 -2z m74
-24 c41 -50 -195 -285 -489 -487 -35 -24 -35 -24 5 25 267 335 447 506 484
462z m-2785 -583 c82 -32 -198 -344 -309 -344 -49 0 -28 61 61 171 101 127
196 193 248 173z m1764 -21 c11 -76 -227 -323 -311 -323 -65 0 -9 114 118 243
100 101 185 136 193 80z"/>
<path d="M4721 1269 c-108 -43 -330 -264 -583 -579 -131 -163 -377 -370 -440
-370 -53 0 -28 47 130 239 56 68 102 128 102 133 0 24 -81 7 -107 -22 -27 -31
-27 -31 -40 -6 -40 77 -190 32 -334 -100 -180 -165 -290 -244 -341 -244 -44 0
-30 28 71 145 186 214 79 328 -137 147 -81 -68 -87 -71 -68 -35 32 63 11 123
-43 123 -40 0 -85 -32 -201 -144 -187 -180 -260 -236 -310 -236 -44 0 -14 51
139 240 55 69 101 128 101 133 0 23 -76 5 -107 -25 -23 -22 -33 -27 -33 -17 0
113 -264 19 -381 -136 -136 -181 -43 -302 136 -177 71 49 71 49 67 15 -5 -42
20 -73 58 -73 57 0 131 52 291 205 156 150 221 197 241 177 17 -17 -51 -110
-237 -329 -37 -43 -37 -43 10 -43 47 0 47 0 162 120 163 170 268 250 328 250
41 0 25 -30 -88 -158 -198 -226 -35 -307 199 -99 47 43 53 45 44 22 -56 -148
94 -191 228 -65 32 31 32 31 32 -8 0 -122 111 -92 318 86 34 29 62 52 62 49 0
-2 -7 -19 -16 -37 -66 -132 16 -210 154 -145 74 34 135 78 219 158 97 93 83
105 -19 17 -215 -186 -367 -225 -294 -76 31 62 175 257 207 280 13 10 69 47
124 83 316 208 510 427 439 497 -17 18 -47 20 -83 5z m69 -47 c0 -51 -124
-190 -277 -310 -110 -86 -228 -169 -218 -151 42 70 330 397 394 445 49 38 101
46 101 16z m-2302 -583 c9 -79 -243 -328 -321 -317 -101 14 189 356 293 346
19 -2 26 -10 28 -29z m1262 16 c36 -43 -149 -268 -264 -321 -110 -50 -108 20
4 161 105 132 223 205 260 160z"/>
<path d="M7601 911 c-24 -24 -26 -40 -8 -65 29 -39 116 21 91 62 -16 25 -59
27 -83 3z"/>
</g>
</svg>
