<?xml version="1.0" standalone="no"?>
<!DOCTYPE svg PUBLIC "-//W3C//DTD SVG 20010904//EN"
 "http://www.w3.org/TR/2001/REC-SVG-20010904/DTD/svg10.dtd">
<svg version="1.0" xmlns="http://www.w3.org/2000/svg"
 width="980" height="190" viewBox="0 0 980.000000 190.000000"
 preserveAspectRatio="xMidYMid meet">
<g transform="translate(0.000000,190.000000) scale(0.100000,-0.100000)"
fill="#f1ead8" stroke="none">
<path d="M2646 1625 c-32 -13 -83 -40 -112 -59 l-54 -36 -49 25 c-236 119
-630 96 -933 -55 -587 -293 -651 -890 -84 -791 286 50 585 322 586 534 l0 47
-33 36 -32 35 -62 6 c-183 17 -446 -155 -582 -379 -35 -58 -9 -45 33 16 155
225 470 392 606 321 132 -68 -96 -378 -386 -523 -181 -91 -387 -86 -457 12
l-22 31 0 85 1 85 34 70 c73 148 284 327 488 415 281 121 663 132 829 23 l25
-16 -34 -26 c-127 -97 -270 -256 -481 -537 -283 -378 -422 -520 -589 -605
-153 -77 -337 -80 -415 -7 -32 30 -29 45 6 40 57 -8 92 57 51 98 -54 54 -143
-20 -120 -101 39 -133 304 -161 545 -57 247 107 388 254 740 774 96 141 188
257 268 339 l60 59 27 -32 c127 -153 -3 -470 -245 -595 l-60 -31 -80 -1 c-44
0 -87 2 -95 5 -9 3 -15 -1 -15 -10 0 -10 19 -20 54 -29 l54 -15 79 12 c169 25
326 137 399 287 l34 70 0 100 0 100 -23 43 c-13 24 -39 60 -58 82 l-35 38 33
25 c38 29 150 87 167 87 6 0 11 7 11 15 0 20 -4 19 -74 -10z"/>
<path d="M5610 1475 c-299 -61 -492 -254 -441 -443 26 -95 160 -179 293 -182
4 0 -12 -28 -36 -62 -267 -384 -41 -664 372 -462 260 127 399 389 231 434
-135 37 -396 -126 -498 -310 -34 -60 -12 -46 45 30 98 130 272 245 387 257
l52 5 28 -22 c132 -105 -245 -431 -498 -430 -208 1 -224 187 -37 435 95 126
101 131 173 138 218 21 600 167 769 293 216 163 239 314 48 314 -218 0 -607
-215 -921 -510 l-87 -82 -48 6 c-427 60 -238 480 256 566 35 6 116 10 180 9
117 -1 153 9 77 23 -65 11 -275 7 -345 -7z m964 -51 c115 -114 -384 -433 -805
-515 -55 -10 -105 -19 -111 -19 -46 0 342 323 508 423 181 108 362 158 408
111z"/>
<path d="M9175 1271 c-122 -57 -312 -248 -626 -631 -154 -189 -409 -379 -409
-306 0 19 97 153 191 263 44 51 79 95 79 98 0 3 -20 5 -44 5 l-45 0 -30 -37
-31 -38 0 21 c0 111 -207 47 -360 -111 -114 -118 -251 -215 -305 -215 -54 0
-31 44 131 248 l126 157 71 5 c89 6 107 30 23 30 -31 0 -56 3 -56 6 0 3 34 45
75 94 41 48 72 89 70 91 -2 3 -24 3 -49 1 l-45 -4 -76 -93 -76 -94 -56 -3
c-72 -4 -87 -28 -18 -28 l46 0 -59 -72 c-140 -172 -344 -338 -414 -338 -54 0
-35 32 134 238 61 73 108 136 105 139 -4 3 -26 2 -50 -1 l-43 -7 -64 -75 c-95
-114 -278 -262 -356 -289 -81 -28 -73 -1 36 126 116 134 137 178 110 230 -25
45 -157 3 -253 -81 -68 -60 -64 -49 21 58 43 53 109 137 147 186 l69 89 -43
-7 c-30 -5 -50 -15 -65 -34 -243 -310 -646 -657 -646 -557 0 25 154 232 244
326 30 32 25 39 -25 39 l-37 0 -31 -35 c-24 -28 -31 -32 -31 -17 0 83 -148 63
-282 -38 -103 -78 -160 -163 -161 -243 l-1 -50 23 -18 c42 -34 109 -17 187 46
52 43 54 43 54 2 0 -123 134 -72 355 133 l69 65 -75 -90 c-213 -254 -369 -444
-369 -449 0 -3 20 -6 43 -6 l44 0 108 133 c199 241 278 329 357 396 127 108
233 163 252 133 7 -12 -23 -52 -116 -157 -85 -95 -109 -147 -90 -190 30 -65
147 -26 287 97 l47 41 -21 -39 c-40 -74 -19 -134 46 -134 48 0 146 58 242 144
l35 31 -17 -27 c-9 -15 -19 -44 -23 -66 l-6 -40 21 -21 c43 -43 131 -16 248
78 l62 50 -6 -47 -5 -47 22 -27 c35 -46 98 -32 195 41 l50 38 -3 -38 -4 -37
26 -17 c50 -33 125 1 259 118 l60 51 -17 -31 c-23 -45 -24 -108 -1 -133 48
-53 173 2 319 141 97 91 89 110 -10 23 -108 -94 -191 -146 -229 -142 -61 6
-34 67 112 253 l68 88 105 70 c352 236 573 472 505 540 -21 22 -50 21 -100 -2z
m74 -24 c41 -50 -195 -285 -489 -487 l-35 -24 40 49 c220 276 412 471 466 475
4 0 12 -6 18 -13z m-2785 -583 c82 -32 -198 -344 -309 -344 -49 0 -28 61 61
171 101 127 196 193 248 173z m1764 -21 c11 -76 -227 -323 -311 -323 l-27 0 0
29 c0 58 163 255 249 301 47 25 85 22 89 -7z"/>
<path d="M4721 1269 c-108 -43 -330 -264 -583 -579 -131 -163 -377 -370 -440
-370 -53 0 -28 47 130 239 56 68 102 128 102 133 0 24 -81 7 -107 -22 l-27
-31 -13 25 c-40 77 -190 32 -334 -100 -180 -165 -290 -244 -341 -244 -44 0
-30 28 71 145 96 111 121 175 81 215 -39 39 -122 13 -218 -68 -24 -21 -53 -44
-64 -52 l-21 -14 17 31 c32 63 11 123 -43 123 -40 0 -85 -32 -201 -144 -187
-180 -260 -236 -310 -236 -44 0 -14 51 139 240 55 69 101 128 101 133 0 23
-76 5 -107 -25 -23 -22 -33 -27 -33 -17 0 33 -36 52 -89 47 -174 -17 -386
-237 -350 -363 21 -72 87 -71 194 3 l71 49 -4 -34 c-5 -42 20 -73 58 -73 57 0
131 52 291 205 156 150 221 197 241 177 17 -17 -51 -110 -237 -329 l-37 -43
47 0 47 0 115 120 c163 170 268 250 328 250 41 0 25 -30 -88 -158 -88 -101
-108 -161 -66 -203 42 -42 146 -1 265 104 l54 49 -10 -27 c-28 -72 6 -145 68
-145 36 0 118 41 160 80 l32 31 0 -39 c0 -122 111 -92 318 86 34 29 62 52 62
49 0 -2 -7 -19 -16 -37 -9 -18 -19 -52 -22 -76 l-4 -42 25 -26 c63 -63 204 -4
374 157 97 93 83 105 -19 17 -215 -186 -367 -225 -294 -76 31 62 175 257 207
280 13 10 69 47 124 83 316 208 510 427 439 497 -17 18 -47 20 -83 5z m69 -47
c0 -51 -124 -190 -277 -310 -110 -86 -228 -169 -218 -151 42 70 330 397 394
445 49 38 101 46 101 16z m-2302 -583 c9 -79 -243 -328 -321 -317 -101 14 189
356 293 346 19 -2 26 -10 28 -29z m1262 16 l12 -15 -27 -56 c-39 -80 -174
-216 -249 -250 l-58 -26 -15 15 -15 15 21 47 c69 155 282 329 331 270z"/>
<path d="M7601 911 c-24 -24 -26 -40 -8 -65 29 -39 116 21 91 62 -16 25 -59
27 -83 3z"/>
</g>
</svg>
