<?xml version="1.0" standalone="no"?>
<!DOCTYPE svg PUBLIC "-//W3C//DTD SVG 20010904//EN"
 "http://www.w3.org/TR/2001/REC-SVG-20010904/DTD/svg10.dtd">
<svg version="1.0" xmlns="http://www.w3.org/2000/svg"
 width="980" height="190" viewBox="0 0 980.000000 190.000000"
 preserveAspectRatio="xMidYMid meet">
<g transform="translate(0.000000,190.000000) scale(0.100000,-0.100000)"
fill="#f1ead8" stroke="none">
<path d="M2654 1629 c-28 -10 -79 -36 -114 -58 l-64 -38 -60 28 c-117 55 -173
64 -376 63 l-185 0 -98 -27 c-412 -111 -738 -405 -737 -665 2 -408 772 -242
956 206 160 389 -438 258 -685 -150 -35 -58 -9 -45 34 17 71 104 201 216 318
275 l105 53 74 5 c349 22 -22 -495 -422 -588 -527 -124 -403 479 151 734 297
137 715 153 872 33 l16 -12 -72 -60 c-116 -96 -248 -244 -405 -454 -306 -411
-455 -567 -628 -654 -147 -74 -335 -77 -411 -5 -32 30 -29 45 6 40 57 -8 92
57 51 98 -59 59 -151 -30 -117 -113 69 -163 415 -143 697 40 163 106 283 244
531 609 151 223 229 325 323 419 l59 59 27 -33 c128 -153 -6 -474 -249 -594
l-65 -32 -71 0 c-38 0 -79 2 -90 5 -13 3 -20 0 -20 -10 0 -10 19 -20 54 -29
l54 -15 81 12 c167 24 324 138 397 287 l34 70 0 100 0 100 -23 43 c-13 24 -39
60 -58 82 l-35 38 33 26 c18 13 68 41 111 61 99 48 101 73 1 34z"/>
<path d="M5627 1480 c-509 -86 -649 -619 -164 -630 4 0 -8 -21 -28 -47 -20
-26 -55 -85 -78 -131 l-41 -83 -4 -87 -4 -87 24 -45 c133 -247 768 -3 768 295
0 211 -425 52 -568 -212 -34 -63 -13 -52 38 19 90 124 247 234 370 260 l56 11
29 -14 c142 -68 -111 -356 -372 -424 -330 -86 -366 190 -67 518 l32 34 68 6
c430 41 1006 383 935 555 -72 173 -620 -65 -1028 -444 l-103 -96 -63 10 c-504
81 -113 579 448 571 119 -1 157 9 80 23 -53 9 -267 8 -328 -2z m947 -56 c115
-115 -373 -427 -803 -514 -136 -28 -137 -27 -40 64 353 329 752 542 843 450z"/>
<path d="M9163 1265 c-111 -56 -292 -235 -539 -535 -192 -234 -390 -410 -460
-410 -47 0 -5 71 160 268 101 120 98 112 42 112 l-45 0 -30 -37 -31 -38 0 21
c0 111 -185 56 -355 -107 -160 -153 -253 -219 -310 -219 -55 0 -30 47 140 259
l120 149 69 4 c89 4 103 26 20 30 l-58 3 78 93 c43 52 76 95 74 96 -1 1 -24 1
-50 -2 l-47 -4 -76 -93 -76 -94 -56 -3 c-70 -4 -84 -25 -19 -30 l44 -3 -77
-91 c-133 -157 -329 -314 -392 -314 -55 0 -37 32 132 237 126 152 122 143 65
143 l-43 0 -76 -89 c-142 -167 -393 -341 -405 -281 -1 9 37 62 87 118 215 247
109 360 -143 152 -27 -22 -50 -40 -52 -40 -2 0 41 55 94 123 54 67 119 150
146 185 l47 62 -23 -1 c-48 -2 -67 -17 -165 -134 -237 -283 -563 -548 -563
-457 0 20 97 151 198 269 76 88 78 93 21 93 l-37 0 -31 -35 c-24 -28 -31 -32
-31 -17 0 36 -35 55 -89 50 -153 -15 -353 -201 -355 -330 l-1 -50 24 -19 c42
-34 113 -16 196 51 l40 32 6 -42 c15 -112 140 -63 353 139 l70 66 -75 -90
c-424 -507 -388 -457 -324 -453 l45 3 188 225 c194 233 298 335 414 403 128
76 143 37 32 -84 -234 -257 -133 -377 134 -160 34 28 62 49 62 47 0 -2 -7 -17
-15 -32 -81 -156 89 -160 265 -6 55 48 57 48 35 6 -21 -41 -19 -80 6 -105 l21
-21 44 5 c49 5 133 52 200 110 l43 38 -5 -48 -6 -48 22 -27 c35 -46 98 -32
195 41 l51 38 -4 -34 c-13 -108 92 -95 248 32 47 39 80 60 76 49 -86 -207 103
-202 321 9 94 91 84 106 -13 21 -267 -233 -345 -192 -144 75 l92 122 106 71
c358 239 576 473 506 542 -22 22 -52 20 -111 -9z m86 -18 c41 -50 -195 -285
-489 -487 l-35 -24 40 49 c262 329 447 506 484 462z m-2775 -600 c36 -57 -223
-327 -315 -327 -51 0 -30 65 56 170 117 146 225 211 259 157z m1754 -4 c11
-76 -227 -323 -311 -323 l-27 0 0 28 c0 117 323 400 338 295z"/>
<path d="M4694 1254 c-122 -65 -294 -241 -590 -606 -145 -177 -434 -387 -434
-314 0 21 70 121 170 239 103 123 104 127 49 127 -32 0 -46 -6 -68 -30 l-28
-31 -11 25 c-35 78 -186 33 -337 -102 -213 -190 -285 -242 -337 -242 -44 0
-38 13 81 157 170 207 69 311 -138 142 -29 -24 -63 -51 -74 -59 l-20 -14 17
31 c21 42 20 86 -2 106 -48 43 -112 6 -280 -161 -304 -302 -387 -278 -133 38
56 69 101 128 101 133 0 23 -76 5 -107 -25 -23 -22 -33 -27 -33 -17 0 95 -207
42 -336 -86 -191 -192 -119 -373 91 -227 l71 49 -4 -34 c-17 -146 118 -92 364
146 265 257 314 225 82 -54 l-125 -150 43 -3 43 -3 143 145 c148 150 249 226
300 226 44 0 30 -27 -85 -158 -198 -226 -35 -307 199 -99 l54 49 -10 -27 c-54
-143 64 -187 211 -79 l49 36 0 -35 c0 -109 119 -81 292 68 l86 74 -19 -50
c-87 -229 158 -202 399 44 60 61 56 87 -4 31 -267 -253 -446 -267 -276 -23 95
137 141 189 203 227 285 176 529 409 529 506 0 58 -50 70 -126 30z m96 -32 c0
-50 -126 -191 -280 -312 -83 -66 -220 -162 -220 -155 0 6 188 232 269 324 117
132 231 202 231 143z m-2302 -580 c14 -97 -313 -389 -344 -308 -17 45 168 276
256 319 47 23 84 19 88 -11z m1261 9 c39 -72 -258 -369 -330 -330 -71 38 193
347 298 349 12 0 27 -8 32 -19z"/>
<path d="M7600 910 c-32 -32 -18 -80 24 -80 25 0 66 38 66 61 0 40 -57 52 -90
19z"/>
</g>
</svg>
