<?xml version="1.0" standalone="no"?>
<!DOCTYPE svg PUBLIC "-//W3C//DTD SVG 20010904//EN"
 "http://www.w3.org/TR/2001/REC-SVG-20010904/DTD/svg10.dtd">
<svg version="1.0" xmlns="http://www.w3.org/2000/svg"
 width="980" height="190" viewBox="0 0 980.000000 190.000000"
 preserveAspectRatio="xMidYMid meet">
<g transform="translate(0.000000,190.000000) scale(0.100000,-0.100000)"
fill="#f1ead8" stroke="none">
<path d="M2649 1626 c-58 -23 -122 -59 -151 -83 -14 -13 -23 -11 -66 11 -444
225 -1232 -61 -1388 -503 -183 -517 718 -433 932 87 160 388 -440 256 -685
-150 -35 -58 -9 -45 34 17 240 349 775 475 609 144 -167 -334 -772 -546 -864
-304 -105 276 359 681 855 746 214 28 571 -43 497 -100 -139 -106 -286 -267
-483 -531 -435 -581 -706 -769 -957 -665 -71 30 -109 86 -53 77 57 -8 92 57
51 98 -56 56 -142 -20 -119 -104 37 -134 317 -158 559 -47 234 106 372 249
680 701 144 211 222 312 314 405 l59 59 27 -33 c190 -227 -189 -718 -480 -621
-9 3 -15 -1 -15 -10 0 -29 97 -45 187 -32 359 52 563 448 352 682 l-35 38 33
25 c35 27 115 69 161 86 16 6 25 15 22 21 -8 14 -12 13 -76 -14z"/>
<path d="M5610 1475 c-504 -102 -625 -614 -147 -625 4 0 -8 -21 -28 -47 -199
-261 -156 -525 88 -541 244 -15 577 217 577 403 0 212 -422 54 -568 -213 -33
-60 -12 -52 33 13 187 272 607 383 479 127 -73 -148 -329 -303 -499 -302 -220
1 -224 205 -7 473 79 99 69 93 150 101 428 40 1004 383 933 554 -72 174 -617
-63 -1034 -449 l-98 -91 -47 6 c-524 74 -138 584 436 575 117 -1 153 9 77 23
-65 11 -275 7 -345 -7z m964 -51 c117 -117 -399 -442 -822 -518 -120 -22 -120
-24 -5 82 348 322 737 527 827 436z"/>
<path d="M9183 1275 c-122 -53 -315 -246 -634 -635 -154 -188 -409 -379 -409
-307 0 20 84 135 184 255 101 120 98 112 42 112 -39 0 -48 -4 -75 -37 -26 -32
-31 -34 -31 -17 0 111 -207 47 -360 -111 -114 -118 -251 -215 -305 -215 -55 0
-31 44 139 257 l121 152 69 3 c89 4 103 26 20 30 l-58 3 77 91 c85 103 85 101
23 96 -44 -4 -48 -7 -121 -97 l-76 -94 -56 -3 c-72 -4 -87 -28 -18 -28 l46 0
-59 -72 c-140 -172 -344 -338 -414 -338 -54 0 -35 32 133 237 125 152 121 143
68 143 -38 0 -46 -5 -88 -52 -147 -169 -334 -318 -411 -329 -47 -7 -32 26 59
130 213 244 100 363 -143 149 -67 -58 -63 -47 22 60 43 53 109 137 147 186
l69 89 -43 -7 c-30 -5 -50 -15 -65 -34 -244 -312 -646 -657 -646 -556 0 27
232 330 262 342 20 8 -6 22 -42 22 -31 0 -44 -6 -69 -35 -24 -28 -31 -32 -31
-17 0 117 -269 20 -386 -139 -138 -188 -29 -303 153 -164 l48 37 3 -34 c12
-121 145 -71 361 136 l64 61 -75 -90 c-422 -508 -385 -455 -325 -455 l44 0
108 133 c265 322 358 415 497 500 132 80 142 37 23 -94 -244 -269 -89 -365
184 -115 l33 31 -21 -40 c-95 -180 87 -174 288 9 l33 31 -21 -40 c-83 -158 68
-180 246 -36 l62 50 -6 -47 c-13 -119 79 -133 212 -33 l50 38 -3 -37 c-10
-104 94 -90 246 34 82 67 91 71 72 36 -102 -190 117 -176 324 21 97 91 89 110
-10 23 -141 -123 -243 -173 -261 -128 -21 55 177 304 315 396 358 239 576 473
506 542 -19 19 -49 20 -91 1z m66 -28 c41 -50 -195 -285 -489 -487 l-35 -24
40 49 c267 335 447 506 484 462z m-2785 -583 c82 -31 -199 -344 -309 -344
-104 0 173 343 282 349 6 1 18 -2 27 -5z m1764 -21 c11 -76 -227 -323 -311
-323 -65 0 -9 114 118 243 100 101 185 136 193 80z"/>
<path d="M4721 1269 c-108 -43 -332 -266 -590 -587 -127 -158 -371 -362 -433
-362 -53 0 -27 47 130 239 56 68 102 128 102 133 0 24 -81 7 -107 -22 l-27
-31 -13 25 c-40 77 -188 33 -335 -100 -188 -172 -289 -244 -340 -244 -44 0
-30 28 71 145 186 214 79 328 -137 147 -81 -68 -87 -71 -68 -35 84 163 -69
159 -229 -6 -147 -151 -274 -250 -322 -251 -47 0 -19 49 136 240 55 69 101
128 101 133 0 23 -76 5 -107 -25 -23 -22 -33 -27 -33 -17 0 95 -207 42 -336
-86 -191 -191 -119 -373 91 -227 l71 49 -4 -34 c-17 -140 118 -89 345 129 145
139 221 197 243 183 23 -14 -23 -80 -215 -307 l-57 -68 46 0 c46 0 46 1 188
144 148 150 249 226 300 226 44 0 30 -27 -85 -158 -198 -226 -35 -307 199 -99
47 43 53 45 44 22 -56 -148 91 -191 228 -66 l32 30 0 -38 c0 -121 112 -90 318
87 34 29 62 52 62 49 0 -2 -7 -19 -16 -37 -119 -237 152 -214 394 33 66 67 54
84 -14 20 -259 -242 -430 -254 -269 -18 95 139 143 194 206 233 283 174 529
409 529 503 0 51 -42 71 -99 48z m69 -47 c0 -69 -187 -253 -429 -424 -87 -61
-86 -58 33 87 240 294 396 426 396 337z m-2302 -583 c11 -98 -313 -385 -344
-305 -18 46 167 275 256 319 49 24 84 19 88 -14z m1261 12 c31 -57 -156 -274
-280 -325 -93 -39 -80 44 27 175 110 135 225 203 253 150z"/>
<path d="M7600 910 c-32 -32 -18 -80 24 -80 25 0 66 38 66 61 0 40 -57 52 -90
19z"/>
</g>
</svg>
