<?xml version="1.0" standalone="no"?>
<!DOCTYPE svg PUBLIC "-//W3C//DTD SVG 20010904//EN"
 "http://www.w3.org/TR/2001/REC-SVG-20010904/DTD/svg10.dtd">
<svg version="1.0" xmlns="http://www.w3.org/2000/svg"
 width="980" height="190" viewBox="0 0 980.000000 190.000000"
 preserveAspectRatio="xMidYMid meet">
<g transform="translate(0.000000,190.000000) scale(0.100000,-0.100000)"
fill="#f1ead8" stroke="none">
<path d="M2649 1626 c-58 -23 -122 -59 -151 -83 -14 -13 -23 -11 -66 11 -156
79 -467 99 -675 43 -410 -110 -738 -405 -737 -665 2 -349 619 -290 887 85 175
245 90 411 -169 333 -168 -50 -345 -193 -447 -362 -35 -58 -9 -45 34 17 152
221 469 390 602 321 169 -87 -209 -501 -527 -577 -371 -88 -462 212 -156 517
270 269 719 400 1046 306 62 -18 156 -60 148 -66 -1 -2 -35 -30 -73 -62 -115
-96 -244 -241 -401 -451 -313 -420 -453 -565 -626 -654 -152 -77 -337 -80
-415 -7 -32 30 -29 45 6 40 57 -8 92 57 51 98 -59 59 -151 -30 -117 -113 54
-128 321 -146 557 -38 233 105 372 248 670 686 154 226 231 326 324 420 l59
59 27 -33 c162 -194 -99 -624 -380 -626 -41 0 -84 2 -95 5 -13 3 -20 0 -20
-10 0 -10 19 -20 54 -29 180 -48 437 88 532 284 32 65 34 77 34 170 0 112 -14
151 -81 225 l-35 38 33 25 c35 27 115 69 161 86 16 6 25 15 22 21 -8 14 -12
13 -76 -14z"/>
<path d="M5627 1480 c-473 -80 -648 -529 -238 -616 36 -7 70 -14 74 -14 4 0
-8 -21 -28 -47 -200 -262 -157 -525 88 -541 244 -15 577 217 577 403 0 116
-149 136 -310 42 -67 -39 -227 -196 -258 -254 -33 -61 -12 -53 33 12 187 272
607 383 479 127 -73 -148 -329 -303 -499 -302 -220 1 -224 205 -7 473 79 99
69 93 150 101 213 20 594 167 761 292 217 163 240 314 49 314 -218 0 -592
-206 -911 -501 l-98 -91 -47 6 c-427 60 -237 480 256 566 35 6 116 10 180 9
117 -1 153 9 77 23 -53 9 -267 8 -328 -2z m947 -56 c91 -91 -227 -335 -598
-459 -91 -31 -279 -75 -318 -75 -42 0 287 279 462 392 202 131 403 194 454
142z"/>
<path d="M9163 1265 c-111 -56 -292 -235 -539 -535 -155 -189 -258 -289 -381
-373 -56 -37 -103 -48 -103 -24 0 20 84 135 184 255 47 56 86 105 86 107 0 3
-20 5 -44 5 -39 0 -48 -4 -75 -37 -26 -32 -31 -34 -31 -17 0 111 -207 47 -360
-111 -114 -118 -251 -215 -305 -215 -55 0 -31 44 139 257 l121 152 69 3 c89 4
103 26 20 30 l-58 3 78 93 c43 52 76 95 74 96 -1 1 -24 1 -50 -2 -46 -4 -49
-6 -123 -97 l-76 -94 -56 -3 c-70 -4 -84 -25 -19 -30 l44 -3 -81 -96 c-132
-156 -325 -309 -388 -309 -55 0 -37 32 132 237 60 72 109 134 109 137 0 3 -19
6 -41 6 -38 0 -46 -5 -87 -52 -181 -208 -442 -393 -442 -314 0 7 40 59 89 115
116 132 138 180 111 232 -26 47 -155 5 -254 -83 -69 -60 -62 -47 42 85 188
235 196 247 170 246 -48 -2 -67 -17 -165 -134 -237 -282 -563 -548 -563 -459
0 26 189 275 248 328 28 25 19 36 -28 36 -31 0 -44 -6 -69 -35 -24 -28 -31
-32 -31 -17 0 117 -269 20 -386 -139 -138 -188 -29 -303 153 -164 l48 37 3
-34 c12 -121 145 -71 361 136 l64 61 -75 -90 c-288 -346 -368 -444 -368 -450
0 -3 20 -5 45 -3 l45 3 188 225 c194 233 298 335 414 403 132 78 142 37 23
-94 -120 -132 -148 -196 -105 -239 38 -38 133 -4 248 89 34 28 62 49 62 47 0
-2 -7 -17 -15 -32 -20 -39 -19 -87 3 -107 43 -39 133 -5 251 93 l71 60 -20
-37 c-25 -48 -25 -88 0 -113 42 -42 132 -14 247 79 l62 50 -6 -47 c-13 -119
79 -133 212 -33 l51 38 -4 -34 c-13 -108 92 -95 248 32 47 39 80 60 76 49 -49
-117 -3 -179 105 -142 57 19 140 77 216 151 94 91 84 106 -13 21 -141 -123
-243 -173 -261 -128 -9 24 17 71 117 203 85 113 99 127 198 193 358 239 576
473 506 542 -22 22 -52 20 -111 -9z m86 -18 c41 -50 -195 -285 -489 -487 l-35
-24 40 49 c220 276 412 471 466 475 4 0 12 -6 18 -13z m-2785 -583 c82 -31
-199 -344 -309 -344 -104 0 173 343 282 349 6 1 18 -2 27 -5z m1764 -21 c11
-76 -227 -323 -311 -323 -65 0 -9 114 118 243 100 101 185 136 193 80z"/>
<path d="M4694 1254 c-122 -65 -294 -241 -590 -606 -108 -131 -350 -328 -406
-328 -53 0 -27 47 130 239 56 68 102 128 102 133 0 24 -80 7 -109 -24 -17 -18
-31 -27 -31 -20 0 26 -40 52 -80 52 -84 0 -160 -42 -291 -162 -168 -153 -261
-218 -314 -218 -41 0 -26 30 74 145 96 111 121 175 81 215 -39 39 -122 13
-218 -68 -81 -68 -87 -71 -68 -35 32 64 11 123 -45 123 -40 0 -105 -49 -237
-178 -130 -128 -229 -202 -268 -202 -48 0 -24 42 135 240 56 69 101 128 101
133 0 23 -76 5 -107 -25 -23 -22 -33 -27 -33 -17 0 95 -207 42 -336 -86 -191
-191 -119 -373 91 -227 l71 49 -4 -34 c-5 -42 20 -73 58 -73 57 0 131 52 287
202 147 141 213 191 240 181 27 -10 -17 -74 -212 -305 l-57 -68 46 0 c46 0 46
1 188 144 148 150 249 226 300 226 44 0 30 -27 -85 -158 -88 -101 -108 -161
-66 -203 42 -42 146 -1 265 104 47 43 53 45 44 22 -28 -72 6 -145 68 -145 36
0 117 40 160 79 l32 30 0 -38 c0 -113 107 -91 285 59 52 44 95 78 95 76 0 -1
-7 -18 -16 -36 -47 -92 -18 -170 63 -170 75 0 219 88 331 203 66 67 54 84 -14
21 -121 -112 -234 -184 -293 -186 -66 -2 -59 46 24 167 95 139 143 194 206
233 285 176 529 409 529 506 0 58 -50 70 -126 30z m96 -32 c0 -51 -127 -192
-280 -312 -92 -73 -220 -163 -220 -156 0 23 340 408 400 452 50 38 100 45 100
16z m-2302 -583 c11 -98 -313 -385 -344 -305 -18 46 167 275 256 319 49 24 84
19 88 -14z m1261 12 c31 -57 -156 -274 -280 -325 -93 -39 -80 44 27 175 110
135 225 203 253 150z"/>
<path d="M7600 910 c-32 -32 -18 -80 24 -80 25 0 66 38 66 61 0 40 -57 52 -90
19z"/>
</g>
</svg>
