<?xml version="1.0" standalone="no"?>
<!DOCTYPE svg PUBLIC "-//W3C//DTD SVG 20010904//EN"
 "http://www.w3.org/TR/2001/REC-SVG-20010904/DTD/svg10.dtd">
<svg version="1.0" xmlns="http://www.w3.org/2000/svg"
 width="980" height="190" viewBox="0 0 980.000000 190.000000"
 preserveAspectRatio="xMidYMid meet">
<g transform="translate(0.000000,190.000000) scale(0.100000,-0.100000)"
fill="#f1ead8" stroke="none">
<path d="M2649 1626 c-58 -23 -122 -59 -151 -83 -14 -13 -23 -11 -66 11 -444
225 -1232 -61 -1388 -503 -183 -517 718 -433 932 87 160 388 -440 256 -685
-150 -35 -58 -9 -45 33 16 241 351 776 477 610 145 -197 -394 -870 -564 -869
-219 2 442 983 872 1353 592 l23 -17 -49 -38 c-99 -75 -278 -273 -426 -472
-458 -614 -729 -806 -984 -700 -71 30 -109 86 -53 77 57 -8 92 57 51 98 -54
54 -143 -20 -120 -101 39 -134 300 -162 545 -57 239 103 380 246 695 708 145
212 223 313 314 405 l59 59 27 -32 c190 -228 -189 -719 -480 -622 -9 3 -15 -1
-15 -10 0 -29 97 -45 187 -32 359 52 563 448 352 682 l-35 38 33 25 c38 29
150 87 167 87 6 0 11 7 11 15 0 19 -4 19 -71 -9z"/>
<path d="M5610 1475 c-504 -102 -625 -613 -148 -625 4 0 -12 -28 -36 -62 -267
-385 -42 -665 372 -462 272 133 405 406 214 439 -132 22 -388 -144 -481 -314
-33 -61 -12 -48 45 29 135 178 383 306 467 240 132 -105 -245 -431 -498 -430
-208 1 -224 187 -37 435 96 128 100 131 178 138 430 41 1006 383 935 555 -73
175 -631 -70 -1044 -458 l-87 -82 -48 6 c-524 74 -138 584 436 575 117 -1 153
9 77 23 -65 11 -275 7 -345 -7z m964 -51 c117 -117 -399 -442 -822 -518 -120
-22 -120 -24 -5 82 348 322 737 527 827 436z"/>
<path d="M9183 1275 c-122 -53 -315 -246 -634 -635 -154 -188 -409 -379 -409
-307 0 20 84 135 184 255 101 120 98 112 42 112 -39 0 -48 -4 -75 -37 -26 -32
-31 -34 -31 -17 0 111 -207 47 -360 -111 -114 -118 -251 -215 -305 -215 -54 0
-31 44 131 248 l126 157 71 5 c89 6 107 30 23 30 -70 0 -71 -6 19 100 83 98
83 97 21 92 -44 -4 -48 -7 -121 -97 l-76 -94 -56 -3 c-72 -4 -87 -28 -18 -28
l46 0 -59 -72 c-140 -172 -344 -338 -414 -338 -54 0 -35 32 133 237 125 152
124 147 63 140 -41 -4 -52 -11 -87 -53 -156 -188 -421 -380 -435 -314 -1 9 38
63 88 120 211 246 98 362 -144 148 -67 -58 -63 -47 22 60 43 53 109 137 147
186 l69 89 -43 -7 c-30 -5 -50 -15 -65 -34 -244 -312 -646 -657 -646 -556 0
27 232 330 262 342 20 8 -6 22 -42 22 -31 0 -44 -6 -69 -35 -24 -28 -31 -32
-31 -17 0 115 -270 19 -383 -136 -140 -192 -35 -309 150 -167 l48 37 3 -34
c12 -121 133 -76 357 132 l69 65 -75 -90 c-404 -482 -385 -455 -326 -455 l44
0 108 133 c265 322 358 415 497 500 131 79 142 38 26 -92 -245 -272 -95 -369
181 -117 l33 31 -21 -40 c-95 -181 82 -175 288 9 34 30 34 30 18 4 -102 -163
58 -196 240 -49 l62 50 -6 -47 c-13 -119 79 -133 212 -33 l50 38 -3 -38 c-11
-111 110 -84 281 64 56 48 59 49 43 20 -104 -202 103 -197 318 8 97 91 89 110
-10 23 -141 -123 -243 -173 -261 -128 -21 55 177 304 315 396 357 238 576 473
506 542 -19 19 -49 20 -91 1z m66 -28 c41 -50 -195 -285 -489 -487 l-35 -24
40 49 c267 335 447 506 484 462z m-2785 -583 c82 -31 -199 -344 -309 -344 -49
0 -28 61 61 171 101 127 196 193 248 173z m1764 -21 c11 -76 -227 -323 -311
-323 -65 0 -9 114 118 243 100 101 185 136 193 80z"/>
<path d="M4721 1269 c-108 -43 -332 -266 -590 -587 -127 -158 -371 -362 -433
-362 -53 0 -27 47 130 239 56 68 102 128 102 133 0 24 -81 7 -107 -22 l-27
-31 -13 25 c-40 77 -188 33 -335 -100 -188 -172 -289 -244 -340 -244 -44 0
-30 28 71 145 186 214 79 328 -137 147 -81 -68 -87 -71 -68 -35 32 63 11 123
-43 123 -40 0 -85 -32 -201 -144 -187 -180 -260 -236 -310 -236 -44 0 -14 51
139 240 55 69 101 128 101 133 0 23 -76 5 -107 -25 -23 -22 -33 -27 -33 -17 0
82 -167 53 -298 -51 -225 -177 -176 -421 53 -262 l71 49 -4 -34 c-17 -140 118
-89 349 132 156 150 221 197 241 177 17 -17 -51 -110 -237 -329 l-37 -43 47 0
c47 0 47 0 162 120 163 170 268 250 328 250 41 0 25 -30 -88 -158 -198 -226
-35 -307 199 -99 47 43 53 45 44 22 -56 -148 91 -191 228 -66 l32 30 0 -38 c0
-121 112 -90 318 87 34 29 62 52 62 49 0 -2 -7 -19 -16 -37 -115 -229 126
-221 373 13 97 93 83 105 -19 17 -136 -117 -249 -181 -293 -164 -27 11 -22 54
11 111 38 65 170 239 196 257 12 10 68 47 123 83 316 208 510 427 439 497 -17
18 -47 20 -83 5z m69 -47 c0 -69 -185 -252 -429 -424 -87 -61 -86 -58 33 87
240 294 396 426 396 337z m-2302 -583 c11 -98 -313 -385 -344 -305 -18 46 167
275 256 319 49 24 84 19 88 -14z m1261 12 c31 -57 -156 -274 -280 -325 -91
-38 -81 41 21 169 107 134 231 209 259 156z"/>
<path d="M7600 910 c-32 -32 -18 -80 24 -80 25 0 66 38 66 61 0 40 -57 52 -90
19z"/>
</g>
</svg>
