<?xml version="1.0" encoding="UTF-8"?>
<svg xmlns="http://www.w3.org/2000/svg" viewBox="0 0 600 430" width="600" height="430">
  <title>Banded alpha spline reconstruction</title>
  <g fill="#f1ead8" fill-opacity="0.04166667" stroke="none" transform="translate(0,430) scale(0.100000,-0.100000)">
    <path d="M0 2150 l0 -2150 3000 0 3000 0 0 2150 0 2150 -3000 0 -3000 0 0
    -2150z m4575 1670 c98 -26 225 -81 225 -97 0 -6 -9 -14 -19 -18 -12 -3 -41 5
    -72 21 -29 14 -95 37 -147 50 -72 18 -121 24 -208 24 -93 0 -127 -4 -193 -25
    -47 -15 -108 -44 -144 -69 -35 -24 -77 -51 -93 -60 l-29 -16 30 6 c17 3 84 23
    150 45 213 69 329 87 440 69 39 -6 74 -15 78 -19 4 -4 -45 -11 -110 -14 -144
    -8 -213 -17 -213 -28 0 -4 28 -10 63 -11 l62 -4 -35 -14 c-84 -33 -211 -105
    -290 -164 -47 -36 -143 -124 -215 -198 -349 -360 -403 -413 -469 -467 -39 -31
    -99 -76 -133 -99 -99 -67 -239 -135 -361 -175 -62 -21 -154 -46 -205 -57 -50
    -10 -156 -28 -235 -39 -78 -12 -173 -28 -210 -38 -94 -23 -207 -72 -277 -120
    -72 -49 -153 -127 -195 -188 -50 -73 -90 -162 -106 -233 -7 -37 -14 -95 -14
    -130 0 -34 7 -106 16 -160 9 -53 13 -119 10 -145 -3 -27 -16 -73 -30 -103 -14
    -30 -47 -75 -75 -102 -27 -26 -74 -60 -104 -76 -30 -15 -60 -38 -66 -50 -6
    -11 -27 -76 -46 -143 -19 -67 -51 -155 -71 -195 -22 -45 -61 -98 -100 -139
    -53 -54 -64 -71 -64 -99 0 -20 -8 -43 -21 -56 -17 -19 -20 -30 -14 -64 l7 -42
    42 40 c22 21 61 53 86 69 46 31 57 48 124 195 19 42 56 110 81 150 26 40 86
    111 134 158 83 82 209 172 406 291 54 33 121 86 171 135 86 85 80 73 219 371
    49 103 87 154 100 134 3 -6 -16 -61 -44 -122 -28 -60 -51 -112 -51 -115 0 -2
    18 7 40 21 53 33 174 73 274 90 45 8 164 23 266 35 215 24 369 51 495 86 94
    26 289 117 339 157 l28 23 -26 49 c-14 28 -35 72 -47 99 -15 32 -36 59 -66 79
    -23 17 -43 34 -43 39 0 13 39 9 70 -7 16 -8 40 -30 53 -47 14 -18 37 -61 52
    -96 16 -35 39 -72 53 -83 16 -12 40 -19 67 -19 29 0 69 13 131 44 49 24 150
    81 224 126 142 87 283 160 310 160 8 0 26 -7 38 -16 15 -10 22 -25 22 -47 0
    -50 -56 -157 -106 -204 -25 -23 -46 -50 -46 -60 -1 -10 2 -32 6 -49 6 -26 2
    -37 -18 -60 l-25 -29 -1 30 c0 30 -1 30 -56 30 -47 0 -58 -4 -74 -25 -20 -25
    -60 -121 -60 -142 0 -7 12 -8 32 -4 56 11 142 56 183 95 22 22 58 48 81 59 22
    11 46 27 52 35 6 7 30 67 52 133 23 65 59 151 81 191 27 51 39 84 39 113 0 30
    -6 47 -25 65 -15 16 -36 25 -55 25 -17 0 -75 -11 -128 -24 -53 -14 -167 -39
    -252 -56 -101 -21 -170 -40 -197 -56 -24 -14 -55 -40 -70 -59 -16 -19 -31 -35
    -35 -35 -17 0 -6 39 21 78 20 27 50 50 93 70 35 17 82 34 106 37 39 6 45 11
    67 56 14 26 25 60 25 74 0 14 -7 41 -15 61 -11 26 -26 40 -62 56 -41 18 -59
    20 -145 15 -54 -3 -98 -2 -98 2 0 13 72 39 127 47 28 3 68 1 93 -6 25 -6 60
    -23 78 -36 l32 -25 0 74 c0 41 5 98 10 127 6 30 21 77 34 105 13 29 41 72 62
    95 41 45 122 90 163 90 15 0 37 15 61 43 21 23 41 39 45 35 3 -3 -1 -21 -11
    -40 -10 -18 -21 -51 -25 -73 -4 -22 -3 -57 2 -78 5 -20 23 -52 39 -71 16 -18
    55 -47 87 -64 54 -29 124 -92 186 -170 20 -24 27 -45 27 -75 0 -23 4 -47 8
    -52 4 -6 19 -18 35 -28 15 -10 27 -24 27 -33 0 -11 -6 -14 -22 -8 -46 14 -77
    34 -84 56 -4 13 -6 40 -5 61 2 35 -4 45 -71 114 -44 45 -95 86 -128 103 -30
    16 -69 43 -87 62 -18 18 -39 50 -47 70 -9 21 -16 53 -16 72 l0 34 -42 -10
    c-24 -5 -56 -20 -73 -32 -17 -13 -43 -41 -58 -63 -14 -21 -36 -65 -48 -98 -18
    -51 -22 -85 -23 -215 -2 -135 -5 -161 -24 -204 -12 -27 -22 -50 -22 -51 0 -5
    99 16 218 46 82 21 136 29 159 26 20 -4 47 -17 61 -29 13 -13 31 -37 38 -55 8
    -18 14 -45 14 -61 0 -16 -23 -74 -50 -128 -28 -54 -64 -142 -81 -196 -18 -56
    -42 -112 -57 -130 -14 -17 -42 -37 -61 -45 -20 -9 -59 -37 -88 -63 -57 -52
    -157 -98 -235 -107 l-48 -6 0 36 c0 20 8 59 18 85 11 27 33 69 50 94 17 25 44
    51 60 57 22 9 40 10 66 3 34 -10 36 -9 36 14 0 14 5 35 11 46 7 12 33 43 59
    69 31 31 56 68 69 104 12 31 21 60 21 65 0 22 -48 8 -134 -39 -50 -27 -143
    -81 -206 -120 -63 -40 -153 -91 -199 -114 -73 -36 -93 -42 -152 -43 -61 0 -72
    -4 -131 -42 -91 -59 -191 -107 -298 -142 -50 -16 -137 -39 -192 -50 -55 -12
    -180 -30 -277 -40 -271 -30 -340 -40 -426 -62 -85 -21 -184 -64 -228 -98 -15
    -12 -43 -52 -62 -89 -20 -37 -59 -94 -86 -125 -28 -31 -76 -76 -107 -100 -32
    -24 -122 -83 -200 -131 -79 -48 -176 -113 -215 -145 -40 -31 -99 -85 -131
    -121 -33 -35 -75 -88 -94 -118 -19 -30 -59 -106 -89 -170 -30 -64 -66 -129
    -81 -144 -15 -16 -43 -38 -62 -49 -19 -12 -65 -51 -101 -88 -48 -49 -89 -79
    -149 -109 -45 -22 -96 -41 -113 -41 l-30 0 6 67 c3 38 13 89 22 115 9 25 31
    63 49 84 30 34 38 38 94 42 61 4 62 5 62 34 0 16 5 39 12 51 6 12 37 47 67 77
    81 79 131 188 181 396 6 23 20 56 33 75 12 18 49 48 82 67 33 18 74 47 91 64
    18 16 43 51 57 77 15 26 29 65 33 88 3 23 -1 92 -11 159 -22 149 -16 261 19
    362 14 41 35 89 47 108 12 19 19 37 16 40 -10 10 -134 -38 -202 -78 -38 -23
    -101 -73 -140 -112 -48 -49 -83 -96 -112 -151 -23 -44 -58 -136 -78 -205 -19
    -69 -49 -153 -66 -188 -17 -34 -56 -90 -87 -124 -31 -34 -83 -78 -114 -99 -33
    -21 -102 -51 -160 -69 -191 -59 -249 -82 -298 -121 -26 -21 -62 -60 -81 -88
    -18 -28 -37 -51 -42 -51 -17 0 0 151 24 215 12 33 40 86 61 118 23 33 66 78
    101 104 34 25 105 67 157 93 63 32 109 63 135 91 22 24 53 73 69 109 83 188
    138 289 193 355 32 38 88 93 123 122 36 29 101 71 145 93 44 22 116 49 160 61
    51 13 117 22 185 23 l105 3 50 47 c59 56 140 113 210 148 61 31 190 73 265 87
    30 6 120 20 200 31 80 12 181 30 225 40 116 27 245 74 362 132 157 78 295 187
    478 377 281 291 393 400 473 459 43 32 108 73 145 92 37 19 67 38 67 43 0 4
    -15 7 -32 7 -18 0 -69 -15 -113 -33 -44 -18 -126 -61 -183 -95 -102 -61 -170
    -95 -227 -114 -16 -5 -70 -13 -120 -17 l-90 -7 60 -14 c66 -16 187 -20 223 -7
    33 12 28 -10 -7 -27 -16 -9 -83 -29 -150 -45 -66 -17 -133 -37 -148 -45 -15
    -8 -63 -41 -106 -74 -44 -33 -96 -64 -117 -71 -20 -6 -56 -11 -78 -11 -43 0
    -122 26 -122 40 0 4 39 7 88 7 71 -1 94 3 127 20 22 12 62 40 90 63 27 23 70
    52 95 65 26 13 63 26 83 30 20 4 37 10 37 14 0 3 -27 14 -61 25 -33 10 -86 35
    -117 56 -32 20 -65 49 -75 63 -10 15 -13 27 -7 27 6 0 32 -11 58 -24 71 -35
    145 -50 219 -42 35 4 93 17 128 30 35 13 99 43 141 67 l77 44 -74 5 c-47 4
    -91 14 -121 28 -49 24 -75 48 -64 59 3 4 28 -1 54 -10 26 -9 65 -17 87 -17 22
    0 58 9 80 19 22 10 70 39 107 64 37 25 92 55 123 66 31 12 80 26 108 31 29 5
    102 7 162 5 69 -2 140 -12 190 -25z m421 -5 c-3 -14 -9 -37 -12 -51 l-7 -26
    29 18 c16 10 45 31 65 46 20 15 40 28 43 28 12 0 6 -40 -14 -92 -11 -28 -33
    -68 -50 -89 l-30 -38 71 -133 c50 -93 76 -154 86 -203 8 -38 37 -146 64 -240
    27 -93 49 -189 49 -213 0 -23 -6 -57 -14 -75 -7 -18 -30 -47 -50 -65 -28 -24
    -46 -32 -75 -32 -25 0 -41 5 -45 15 -3 10 1 15 13 15 15 0 17 7 13 55 -4 50
    -2 56 27 85 17 18 37 30 44 27 16 -5 16 -69 0 -74 -7 -3 -13 3 -13 14 0 15 -2
    16 -10 3 -12 -19 -13 -90 -1 -90 5 0 21 14 35 30 14 17 28 47 32 67 5 28 -3
    71 -36 182 -24 80 -55 196 -70 256 -22 90 -41 137 -104 253 -42 78 -76 147
    -76 153 0 6 9 9 20 6 15 -4 27 4 45 31 14 20 25 42 25 48 0 7 -17 3 -44 -10
    -29 -13 -48 -31 -55 -48 -5 -14 -21 -34 -36 -44 -14 -9 -28 -14 -31 -11 -3 3
    6 25 19 49 14 24 28 61 32 83 l7 40 -54 -56 c-29 -32 -64 -72 -77 -89 -14 -18
    -40 -39 -58 -47 -32 -13 -53 -11 -53 5 0 4 15 15 33 25 18 10 42 32 52 49 29
    50 86 109 134 140 25 15 54 28 64 28 15 0 18 -5 13 -25z m-11 -457 c82 -20 90
    -24 99 -50 5 -15 6 -31 2 -35 -4 -4 -15 -2 -24 4 -10 6 -32 14 -51 18 -18 4
    -48 20 -67 37 -36 32 -45 55 -16 43 9 -4 35 -12 57 -17z m-1375 -187 c0 -5
    -24 -20 -52 -34 -29 -15 -90 -60 -136 -101 -45 -42 -101 -86 -125 -98 -31 -16
    -61 -22 -111 -22 -84 -1 -102 18 -26 27 29 4 75 17 103 31 29 13 84 52 122 86
    68 60 123 95 175 111 35 10 50 10 50 0z m-2134 -1283 c-3 -13 -15 -76 -26
    -140 -11 -65 -30 -148 -41 -185 -42 -136 -112 -247 -237 -375 -47 -48 -117
    -109 -156 -135 -39 -26 -107 -60 -151 -76 -84 -30 -217 -47 -228 -30 -4 7 28
    19 79 32 48 12 113 33 147 46 71 29 142 73 208 130 72 61 166 172 211 247 22
    37 53 102 70 144 16 42 39 120 50 173 21 102 54 191 70 191 6 0 8 -10 4 -22z
    M1580 2153 c-100 -15 -193 -48 -283 -101 -32 -19 -90 -63 -128 -99 -38 -36
    -91 -98 -118 -138 -26 -40 -69 -123 -96 -186 -26 -63 -61 -135 -77 -161 -16
    -26 -47 -63 -69 -83 -22 -20 -88 -59 -147 -88 -80 -39 -121 -67 -167 -112 -59
    -58 -104 -131 -125 -203 l-9 -33 39 35 c22 19 65 49 97 65 32 16 103 41 158
    55 55 14 128 40 163 57 87 43 181 133 225 216 19 38 52 124 72 191 20 68 45
    144 56 169 28 66 80 141 144 205 30 32 83 76 116 99 73 49 157 89 224 105 l50
    12 -50 0 c-27 0 -61 -2 -75 -5z M954 443 c-25 -25 -53 -94 -60 -147 l-7 -46
    31 11 c35 12 138 72 136 79 -1 3 -5 31 -9 63 -7 56 -8 57 -40 57 -19 0 -41 -8
    -51 -17z"/>
  </g>
  <g fill="#f1ead8" fill-opacity="0.12500000" stroke="none" transform="translate(0,430) scale(0.100000,-0.100000)">
    <path d="M4393 3753 c4 -3 10 -3 14 0 3 4 0 7 -7 7 -7 0 -10 -3 -7 -7z M4463
    3753 c4 -3 10 -3 14 0 3 4 0 7 -7 7 -7 0 -10 -3 -7 -7z M4423 3713 c4 -3 10
    -3 14 0 3 4 0 7 -7 7 -7 0 -10 -3 -7 -7z M3734 3248 c-4 -7 -3 -8 4 -4 12 7
    16 16 8 16 -3 0 -8 -5 -12 -12z M1708 2203 c7 -3 16 -2 19 1 4 3 -2 6 -13 5
    -11 0 -14 -3 -6 -6z M949 1253 c-13 -16 -12 -17 4 -4 9 7 17 15 17 17 0 8 -8
    3 -21 -13z M1149 1233 c-13 -16 -12 -17 4 -4 9 7 17 15 17 17 0 8 -8 3 -21
    -13z"/>
  </g>
  <g fill="#f1ead8" fill-opacity="0.20833333" stroke="none" transform="translate(0,430) scale(0.100000,-0.100000)">
    <path d="M4328 3803 c6 -2 18 -2 25 0 6 3 1 5 -13 5 -14 0 -19 -2 -12 -5z
    M4879 3733 c-13 -16 -12 -17 4 -4 9 7 17 15 17 17 0 8 -8 3 -21 -13z M3559
    2993 c-13 -16 -12 -17 4 -4 16 13 21 21 13 21 -2 0 -10 -8 -17 -17z M5200
    2780 c-9 -6 -10 -10 -3 -10 6 0 15 5 18 10 3 6 5 10 3 10 -2 0 -10 -5 -18 -10z
    M1678 2203 c7 -3 16 -2 19 1 4 3 -2 6 -13 5 -11 0 -14 -3 -6 -6z M1314 1948
    c-4 -7 -3 -8 4 -4 7 4 12 9 12 12 0 8 -9 4 -16 -8z"/>
  </g>
  <g fill="#f1ead8" fill-opacity="0.29166667" stroke="none" transform="translate(0,430) scale(0.100000,-0.100000)">
    <path d="M4363 3803 c4 -3 10 -3 14 0 3 4 0 7 -7 7 -7 0 -10 -3 -7 -7z M4428
    3753 c7 -3 16 -2 19 1 4 3 -2 6 -13 5 -11 0 -14 -3 -6 -6z M4260 3690 c0 -7 3
    -10 7 -7 3 4 3 10 0 14 -4 3 -7 0 -7 -7z M3889 3343 c-13 -16 -12 -17 4 -4 9
    7 17 15 17 17 0 8 -8 3 -21 -13z M3624 3128 c-4 -7 -3 -8 4 -4 12 7 16 16 8
    16 -3 0 -8 -5 -12 -12z M4380 2780 c0 -7 3 -10 7 -7 3 4 3 10 0 14 -4 3 -7 0
    -7 -7z M1653 2203 c4 -3 10 -3 14 0 3 4 0 7 -7 7 -7 0 -10 -3 -7 -7z M4363
    2083 c4 -3 10 -3 14 0 3 4 0 7 -7 7 -7 0 -10 -3 -7 -7z M1574 1248 c-4 -7 -3
    -8 4 -4 12 7 16 16 8 16 -3 0 -8 -5 -12 -12z M1008 463 c7 -3 16 -2 19 1 4 3
    -2 6 -13 5 -11 0 -14 -3 -6 -6z"/>
  </g>
  <g fill="#f1ead8" fill-opacity="0.37500000" stroke="none" transform="translate(0,430) scale(0.100000,-0.100000)">
    <path d="M3325 3470 c3 -5 8 -10 11 -10 3 0 2 5 -1 10 -3 6 -8 10 -11 10 -3 0
    -2 -4 1 -10z M3914 3368 c-4 -7 -3 -8 4 -4 12 7 16 16 8 16 -3 0 -8 -5 -12
    -12z M3859 3313 c-13 -16 -12 -17 4 -4 16 13 21 21 13 21 -2 0 -10 -8 -17 -17z
    M4634 3268 c-4 -7 -3 -8 4 -4 7 4 12 9 12 12 0 8 -9 4 -16 -8z M4380 2760 c0
    -7 3 -10 7 -7 3 4 3 10 0 14 -4 3 -7 0 -7 -7z M4380 2730 c0 -7 3 -10 7 -7 3
    4 3 10 0 14 -4 3 -7 0 -7 -7z M1070 530 c0 -7 3 -10 7 -7 3 4 3 10 0 14 -4 3
    -7 0 -7 -7z"/>
  </g>
  <g fill="#f1ead8" fill-opacity="0.45833333" stroke="none" transform="translate(0,430) scale(0.100000,-0.100000)">
    <path d="M4173 2843 c4 -3 10 -3 14 0 3 4 0 7 -7 7 -7 0 -10 -3 -7 -7z M4054
    2448 c-4 -7 -3 -8 4 -4 12 7 16 16 8 16 -3 0 -8 -5 -12 -12z M784 1428 c-4 -7
    -3 -8 4 -4 12 7 16 16 8 16 -3 0 -8 -5 -12 -12z M1584 1018 c-4 -7 -3 -8 4 -4
    12 7 16 16 8 16 -3 0 -8 -5 -12 -12z M1579 953 c-13 -16 -12 -17 4 -4 16 13
    21 21 13 21 -2 0 -10 -8 -17 -17z M1070 550 c0 -7 3 -10 7 -7 3 4 3 10 0 14
    -4 3 -7 0 -7 -7z"/>
  </g>
  <g fill="#f1ead8" fill-opacity="0.54166667" stroke="none" transform="translate(0,430) scale(0.100000,-0.100000)">
    <path d="M3824 3278 c-4 -7 -3 -8 4 -4 7 4 12 9 12 12 0 8 -9 4 -16 -8z M1139
    1933 c-13 -16 -12 -17 4 -4 9 7 17 15 17 17 0 8 -8 3 -21 -13z M1104 628 c-4
    -7 -3 -8 4 -4 7 4 12 9 12 12 0 8 -9 4 -16 -8z"/>
  </g>
  <g fill="#f1ead8" fill-opacity="0.62500000" stroke="none" transform="translate(0,430) scale(0.100000,-0.100000)">
    <path d="M4705 3340 c3 -5 8 -10 11 -10 3 0 2 5 -1 10 -3 6 -8 10 -11 10 -3 0
    -2 -4 1 -10z M4148 2803 c7 -3 16 -2 19 1 4 3 -2 6 -13 5 -11 0 -14 -3 -6 -6z
    M4494 1928 l-19 -23 23 19 c12 11 22 21 22 23 0 8 -8 2 -26 -19z"/>
  </g>
  <g fill="#f1ead8" fill-opacity="0.70833333" stroke="none" transform="translate(0,430) scale(0.100000,-0.100000)">
    <path d="M5160 2740 c0 -7 3 -10 7 -7 3 4 3 10 0 14 -4 3 -7 0 -7 -7z M4683
    2583 c4 -3 10 -3 14 0 3 4 0 7 -7 7 -7 0 -10 -3 -7 -7z M4821 2484 c0 -11 3
    -14 6 -6 3 7 2 16 -1 19 -3 4 -6 -2 -5 -13z"/>
  </g>
  <g fill="#f1ead8" fill-opacity="0.79166667" stroke="none" transform="translate(0,430) scale(0.100000,-0.100000)">
    <path d="M3625 2350 c3 -5 8 -10 11 -10 3 0 2 5 -1 10 -3 6 -8 10 -11 10 -3 0
    -2 -4 1 -10z M1124 1978 c-4 -7 -3 -8 4 -4 7 4 12 9 12 12 0 8 -9 4 -16 -8z
    M1670 1480 c0 -7 3 -10 7 -7 3 4 3 10 0 14 -4 3 -7 0 -7 -7z"/>
  </g>
  <g fill="#f1ead8" fill-opacity="0.87500000" stroke="none" transform="translate(0,430) scale(0.100000,-0.100000)">
    <path d="M4250 3690 c0 -7 3 -10 7 -7 3 4 3 10 0 14 -4 3 -7 0 -7 -7z M4865
    2930 c3 -5 8 -10 11 -10 3 0 2 5 -1 10 -3 6 -8 10 -11 10 -3 0 -2 -4 1 -10z
    M4363 2043 c4 -3 10 -3 14 0 3 4 0 7 -7 7 -7 0 -10 -3 -7 -7z M1099 1953 c-13
    -16 -12 -17 4 -4 9 7 17 15 17 17 0 8 -8 3 -21 -13z M993 503 c4 -3 10 -3 14
    0 3 4 0 7 -7 7 -7 0 -10 -3 -7 -7z"/>
  </g>
  <g fill="#f1ead8" fill-opacity="0.95833333" stroke="none" transform="translate(0,430) scale(0.100000,-0.100000)">
    <path d="M4260 3841 c-30 -5 -75 -14 -100 -21 -56 -15 -132 -53 -191 -95 -26
    -18 -62 -41 -80 -51 -19 -9 -55 -17 -84 -17 -27 0 -68 8 -89 17 -22 9 -42 14
    -45 10 -3 -3 7 -16 22 -30 39 -33 128 -57 193 -52 30 3 54 4 54 2 0 -1 -37
    -24 -81 -50 -45 -26 -111 -59 -148 -73 -55 -20 -84 -25 -171 -25 -98 -1 -110
    1 -172 31 -38 17 -68 28 -68 23 0 -4 21 -26 46 -48 25 -23 78 -54 119 -71 40
    -17 83 -31 94 -31 37 0 22 -17 -20 -24 -22 -4 -66 -20 -97 -36 -31 -16 -79
    -47 -107 -70 -81 -68 -99 -75 -203 -75 -77 0 -90 -2 -75 -13 10 -7 35 -17 57
    -23 29 -8 56 -8 96 0 53 11 67 19 208 121 36 26 78 44 135 59 121 31 216 61
    221 70 3 4 -30 6 -74 3 -54 -3 -100 1 -149 13 -39 9 -73 20 -75 24 -2 3 35 6
    82 6 70 0 102 6 165 29 42 15 114 51 160 78 45 28 124 71 175 96 64 31 110 47
    148 50 30 2 54 1 54 -4 0 -5 -38 -29 -85 -53 -47 -24 -122 -74 -167 -110 -46
    -36 -139 -124 -208 -196 -262 -273 -418 -423 -505 -488 -94 -71 -259 -161
    -372 -203 -108 -41 -247 -72 -463 -104 -233 -35 -353 -71 -475 -141 -43 -24
    -108 -72 -145 -106 l-68 -63 -86 0 c-48 0 -121 -7 -163 -16 -42 -8 -106 -27
    -141 -41 -35 -14 -96 -47 -135 -73 -40 -26 -109 -86 -155 -134 -72 -76 -91
    -105 -141 -210 -32 -66 -71 -150 -87 -185 -16 -35 -47 -83 -70 -106 -26 -27
    -83 -64 -153 -100 -127 -65 -208 -133 -258 -217 -18 -29 -42 -89 -53 -132 -20
    -80 -27 -166 -12 -166 4 0 16 16 26 35 28 52 119 133 178 159 29 13 98 36 153
    50 55 15 133 44 174 64 51 25 95 57 140 102 36 36 80 93 98 125 17 33 48 116
    67 185 20 69 55 163 78 210 33 69 57 101 127 170 63 63 107 96 166 127 73 38
    185 78 185 67 0 -2 -13 -28 -29 -57 -16 -28 -39 -85 -52 -126 -15 -51 -22
    -102 -23 -160 0 -47 6 -130 13 -184 8 -54 11 -120 8 -147 -3 -27 -15 -66 -26
    -87 -10 -21 -41 -59 -69 -85 -27 -25 -72 -58 -99 -72 -27 -13 -57 -36 -66 -50
    -9 -14 -28 -67 -41 -118 -29 -112 -68 -218 -98 -267 -12 -20 -51 -66 -85 -103
    -51 -55 -63 -73 -63 -101 0 -18 -5 -38 -12 -45 -7 -7 -35 -12 -64 -12 -43 0
    -56 -5 -79 -27 -15 -16 -36 -47 -46 -71 -22 -51 -43 -166 -35 -188 5 -12 14
    -15 36 -11 16 4 60 21 97 39 45 22 92 56 138 101 39 38 93 84 121 102 28 18
    62 50 75 71 13 22 42 80 65 130 23 51 63 125 90 165 27 41 78 103 114 139 36
    36 95 88 132 116 37 27 126 85 198 129 72 44 160 102 196 129 37 27 86 74 110
    105 24 31 58 83 75 116 17 33 41 68 53 78 33 28 145 83 204 101 30 8 79 20
    110 26 32 5 161 21 287 35 238 27 379 51 500 87 106 31 232 88 315 143 70 47
    79 50 141 51 55 1 80 7 141 36 41 19 154 83 250 142 97 58 202 118 233 132 70
    32 84 24 66 -37 -7 -23 -23 -58 -36 -78 -13 -20 -41 -54 -64 -76 -34 -32 -41
    -46 -41 -77 l0 -38 -53 6 c-50 6 -56 4 -89 -25 -19 -17 -47 -57 -62 -90 -14
    -32 -29 -79 -32 -105 -6 -44 -6 -46 18 -46 33 0 124 27 173 52 22 11 61 40 86
    63 25 23 66 52 91 63 26 11 54 32 64 46 9 15 34 78 54 141 21 62 56 147 79
    188 33 59 41 85 41 124 0 36 -7 60 -23 84 -14 21 -37 39 -62 47 -35 11 -51 9
    -179 -22 -78 -20 -161 -38 -184 -42 l-44 -7 23 44 c20 39 24 63 29 214 5 124
    11 183 24 219 10 28 25 61 34 75 27 45 76 92 114 112 21 10 46 19 58 19 16 0
    20 -6 20 -30 0 -37 23 -93 55 -135 13 -18 54 -48 92 -68 49 -26 88 -58 137
    -113 66 -72 69 -79 67 -120 -1 -35 3 -49 23 -69 26 -26 72 -42 84 -30 4 4 -2
    12 -12 19 -11 6 -31 21 -44 34 -18 18 -22 29 -17 52 4 16 1 39 -6 52 -7 13
    -40 54 -73 91 -38 42 -83 80 -117 99 -32 16 -72 44 -89 61 -18 18 -39 46 -46
    64 -8 18 -14 49 -14 70 0 21 9 58 20 82 11 24 18 46 15 49 -7 8 -35 -19 -50
    -48 -11 -21 -22 -27 -51 -28 -20 -1 -56 -11 -80 -23 -25 -11 -60 -40 -79 -63
    -19 -23 -46 -67 -59 -97 -14 -30 -30 -87 -37 -128 -6 -40 -8 -98 -4 -127 4
    -33 3 -54 -3 -54 -6 0 -12 6 -15 14 -3 7 -25 23 -49 35 -32 15 -62 21 -109 20
    -69 -1 -140 -18 -146 -35 -2 -7 17 -8 64 -2 38 5 86 6 108 2 22 -4 52 -12 67
    -20 14 -7 36 -26 47 -40 37 -46 24 -139 -27 -196 -8 -10 -25 -18 -38 -18 -39
    0 -134 -40 -170 -73 -36 -31 -70 -85 -60 -94 3 -4 28 15 56 41 28 26 65 53 83
    61 18 7 73 21 123 30 49 9 164 34 255 56 92 22 175 36 185 33 34 -12 64 -47
    70 -80 5 -27 -3 -52 -44 -132 -27 -54 -64 -143 -82 -198 -18 -54 -42 -110 -54
    -123 -11 -13 -36 -30 -54 -37 -17 -8 -56 -36 -86 -63 -49 -45 -113 -77 -190
    -95 -21 -5 -27 -4 -24 6 3 7 13 37 22 66 10 29 33 68 51 88 27 29 39 34 57 28
    13 -4 36 -7 51 -6 26 1 28 -2 23 -24 -4 -13 -2 -24 3 -24 20 0 33 42 26 88 -6
    46 -5 48 41 92 27 26 60 74 80 115 19 38 34 79 34 91 0 11 -8 28 -18 37 -10
    10 -31 17 -47 17 -15 0 -59 -16 -97 -35 -38 -20 -135 -76 -217 -125 -81 -49
    -183 -106 -226 -126 -95 -46 -152 -50 -191 -13 -15 13 -41 56 -59 94 -18 39
    -46 82 -62 98 -16 15 -44 31 -61 36 -18 6 -32 7 -32 3 0 -4 22 -26 49 -49 36
    -31 54 -56 66 -92 9 -28 28 -67 41 -87 14 -20 21 -40 17 -43 -5 -3 -30 -21
    -57 -39 -64 -46 -195 -105 -297 -136 -104 -31 -253 -60 -379 -75 -317 -37
    -433 -54 -502 -72 -42 -11 -106 -36 -142 -54 -63 -32 -67 -32 -60 -12 3 12 24
    60 45 106 21 46 39 90 39 97 0 8 -4 14 -9 14 -17 0 -69 -94 -126 -225 -30 -71
    -72 -155 -92 -185 -20 -30 -61 -79 -91 -108 -30 -29 -100 -80 -154 -115 -239
    -150 -319 -207 -405 -290 -50 -48 -112 -120 -138 -159 -26 -38 -69 -118 -96
    -176 -26 -58 -58 -119 -69 -135 -12 -15 -46 -44 -76 -63 -29 -19 -64 -48 -76
    -64 -16 -22 -24 -27 -30 -18 -4 7 -8 31 -8 52 0 25 6 43 17 51 12 9 16 24 15
    49 -2 32 4 42 66 103 49 49 78 89 105 145 20 42 48 118 62 170 14 51 34 113
    43 137 14 36 28 51 82 83 36 22 84 58 107 80 23 22 54 68 68 101 25 55 27 66
    21 156 -3 53 -9 142 -12 199 -4 66 -2 125 6 165 6 34 25 90 41 125 16 35 48
    92 73 126 24 34 64 80 90 104 61 56 166 123 244 156 34 15 100 35 145 46 45
    10 134 26 197 35 170 23 312 53 430 91 58 19 146 54 195 79 50 24 128 69 175
    101 47 31 124 90 172 131 47 40 151 142 229 225 79 84 191 200 250 258 58 58
    142 131 186 162 87 63 246 148 275 148 10 0 18 5 18 11 0 8 -12 10 -36 6 -39
    -7 -94 1 -94 13 0 11 157 30 255 30 66 0 86 3 78 11 -18 18 -184 23 -270 9
    -43 -6 -147 -34 -230 -61 -84 -27 -163 -49 -175 -49 -15 0 -3 12 43 40 105 66
    200 109 279 126 54 11 101 14 166 10 50 -3 126 -15 169 -27 42 -11 106 -33
    141 -49 54 -24 65 -26 81 -15 16 12 11 17 -52 45 -38 18 -110 42 -160 55 -49
    13 -128 25 -175 28 -47 3 -110 2 -140 -2z m-2585 -1696 c-33 -7 -85 -24 -116
    -38 -78 -34 -162 -89 -221 -145 -28 -26 -70 -75 -95 -109 -24 -34 -56 -90 -70
    -125 -14 -35 -39 -110 -55 -166 -16 -57 -45 -136 -65 -175 -45 -91 -135 -180
    -223 -224 -36 -17 -114 -45 -174 -62 -60 -17 -133 -42 -163 -57 -29 -15 -72
    -44 -94 -65 l-40 -37 6 32 c14 65 65 152 122 209 42 42 89 74 173 117 63 33
    129 72 146 87 17 16 43 45 58 65 15 20 49 89 76 152 26 64 59 135 73 159 49
    83 119 167 185 222 37 31 104 74 149 97 45 22 115 49 155 59 40 9 109 18 153
    17 l80 0 -60 -13z m-629 -1705 c2 -14 6 -42 9 -62 4 -33 1 -40 -27 -61 -41
    -31 -112 -67 -132 -67 -11 0 -13 8 -9 38 10 64 43 141 71 162 16 13 37 20 56
    18 23 -2 30 -9 32 -28z M4945 3823 c-56 -30 -103 -73 -140 -129 -21 -31 -54
    -66 -74 -77 -28 -17 -32 -23 -18 -25 36 -7 78 21 117 79 22 31 56 71 77 88 20
    17 38 29 39 28 2 -1 -2 -23 -7 -49 -6 -26 -21 -63 -34 -82 -13 -20 -20 -38
    -16 -41 12 -7 61 41 61 59 0 8 25 28 55 45 53 28 56 29 49 8 -4 -12 -18 -39
    -32 -59 -20 -31 -28 -36 -39 -27 -7 7 -16 9 -19 6 -3 -3 31 -73 75 -155 61
    -114 85 -171 101 -238 11 -49 41 -158 65 -242 25 -84 45 -172 45 -196 0 -28
    -8 -55 -23 -77 -12 -19 -30 -35 -39 -37 -21 -4 -31 39 -17 74 7 21 12 25 18
    15 5 -8 14 -10 20 -7 6 4 11 18 11 32 0 17 -5 24 -20 24 -11 0 -29 -9 -39 -19
    -11 -11 -23 -35 -26 -53 -4 -18 -2 -46 4 -61 9 -24 8 -27 -10 -27 -31 0 -17
    -24 15 -28 40 -5 99 38 125 90 11 25 21 58 21 75 0 16 -25 117 -55 223 -30
    107 -60 219 -66 249 -7 34 -39 109 -83 190 l-72 135 24 23 c24 24 65 108 76
    156 4 17 2 27 -5 27 -6 0 -28 -13 -48 -29 -35 -27 -74 -51 -85 -51 -2 0 0 15
    5 32 11 40 12 68 2 68 -5 -1 -21 -8 -38 -17z M4920 3365 c0 -19 69 -65 97 -65
    12 0 28 -7 37 -15 8 -8 17 -15 20 -15 3 0 6 11 6 23 0 13 -8 31 -18 40 -10 10
    -34 17 -53 17 -19 0 -46 7 -61 14 -24 13 -28 13 -28 1z M3550 3163 c-25 -9
    -61 -26 -80 -38 -19 -13 -64 -49 -100 -80 -36 -32 -83 -66 -105 -75 -22 -10
    -67 -24 -100 -31 -57 -11 -58 -12 -30 -20 38 -11 122 4 173 30 22 11 76 53
    120 94 45 41 102 85 127 97 25 12 45 26 45 31 0 5 -1 9 -2 8 -2 0 -23 -8 -48
    -16z M1446 1860 c-8 -22 -29 -96 -46 -165 -16 -69 -45 -158 -64 -199 -18 -40
    -53 -102 -77 -137 -23 -35 -74 -97 -112 -136 -39 -40 -102 -95 -141 -122 -39
    -27 -99 -61 -134 -75 -35 -15 -102 -37 -150 -50 -47 -12 -81 -26 -75 -29 20
    -12 162 12 235 41 40 15 101 47 135 70 34 23 89 67 123 98 33 31 88 93 121
    137 33 44 75 109 93 146 19 36 43 96 54 132 11 36 28 114 37 175 10 60 21 119
    26 132 5 12 5 22 0 22 -5 0 -16 -18 -25 -40z"/>
  </g>
</svg>
