<?xml version="1.0" encoding="UTF-8"?>
<svg xmlns="http://www.w3.org/2000/svg" viewBox="0 0 600 430" width="600" height="430">
  <title>Banded alpha spline reconstruction</title>
  <g fill="#f1ead8" fill-opacity="0.01562500" stroke="none" transform="translate(0,430) scale(0.100000,-0.100000)">
    <path d="M0 2150 l0 -2150 3000 0 3000 0 0 2150 0 2150 -3000 0 -3000 0 0
    -2150z m4571 1672 c97 -26 229 -83 229 -98 0 -26 -39 -23 -104 6 -36 17 -103
    39 -149 50 -56 14 -117 20 -194 20 -92 0 -126 -5 -190 -25 -43 -13 -103 -41
    -133 -61 -30 -21 -73 -48 -95 -61 -38 -22 -38 -23 -10 -17 17 3 91 25 165 49
    74 24 162 49 195 56 78 17 251 15 290 -2 27 -12 17 -14 -120 -25 -82 -7 -158
    -13 -167 -13 -10 -1 -18 -5 -18 -11 0 -5 28 -10 63 -12 46 -2 57 -6 42 -12
    -223 -98 -303 -154 -490 -341 -83 -82 -212 -213 -287 -291 -75 -78 -169 -168
    -210 -201 -96 -79 -214 -156 -313 -203 -102 -50 -267 -105 -388 -130 -52 -11
    -159 -29 -238 -40 -79 -11 -177 -30 -217 -40 -40 -11 -100 -31 -134 -45 -34
    -14 -90 -44 -124 -66 -35 -22 -96 -75 -136 -117 -49 -51 -88 -105 -116 -160
    -24 -45 -49 -112 -57 -150 -8 -37 -15 -95 -15 -130 0 -34 7 -106 16 -160 9
    -53 13 -119 10 -145 -3 -27 -16 -73 -30 -103 -14 -31 -47 -75 -76 -103 -28
    -27 -75 -61 -105 -76 -29 -15 -58 -37 -64 -49 -6 -11 -26 -76 -46 -143 -19
    -67 -51 -155 -71 -195 -22 -45 -61 -98 -100 -139 -53 -54 -64 -71 -64 -99 0
    -20 -8 -43 -21 -56 -17 -19 -20 -30 -14 -64 l7 -42 42 40 c22 21 61 53 86 70
    25 16 53 45 62 63 9 19 37 77 61 130 24 53 64 125 87 160 24 35 82 102 129
    149 83 81 199 165 404 291 49 30 115 78 147 107 32 29 75 75 96 103 21 28 65
    113 99 188 33 75 70 154 82 176 26 49 58 81 68 66 3 -6 -16 -61 -44 -122 -28
    -60 -51 -112 -51 -115 0 -2 17 6 38 20 55 34 171 74 265 90 45 8 147 22 227
    31 282 31 399 50 545 92 94 26 291 117 338 156 l27 23 -25 49 c-13 28 -34 72
    -46 99 -15 32 -36 59 -66 79 -23 17 -43 34 -43 39 0 13 39 9 70 -7 16 -8 40
    -30 53 -47 14 -18 37 -61 52 -95 15 -34 36 -70 47 -80 14 -12 36 -18 72 -18
    38 0 70 9 127 36 42 20 139 75 215 121 157 96 265 154 307 164 18 4 36 1 52
    -10 19 -13 25 -25 25 -52 0 -51 -64 -168 -113 -207 -39 -31 -39 -33 -34 -85 5
    -46 2 -56 -18 -80 l-24 -27 -1 30 c0 30 -1 30 -56 30 -47 0 -58 -4 -74 -25
    -19 -25 -60 -121 -60 -141 0 -7 12 -8 33 -4 57 12 140 55 174 90 19 20 56 46
    82 59 26 14 53 31 59 38 6 8 30 68 52 134 23 65 59 151 81 191 27 51 39 84 39
    113 0 30 -6 47 -25 65 -15 16 -36 25 -55 25 -17 0 -84 -13 -148 -29 -64 -16
    -178 -41 -252 -56 -87 -17 -150 -35 -177 -51 -24 -14 -55 -40 -70 -59 -16 -19
    -31 -35 -35 -35 -17 0 -6 39 21 78 20 27 50 50 93 70 35 17 83 34 106 37 41 7
    46 11 68 59 13 28 24 61 24 74 0 12 -7 38 -15 58 -11 26 -26 40 -62 56 -41 18
    -59 20 -145 15 -54 -3 -98 -2 -98 2 0 13 72 39 127 47 28 3 68 1 93 -6 25 -6
    60 -23 78 -36 l32 -25 0 83 c0 90 18 175 50 239 12 22 37 58 57 80 41 46 119
    89 159 89 18 0 38 13 64 43 21 23 41 39 45 35 4 -4 -2 -27 -14 -51 -25 -51
    -28 -135 -6 -176 8 -16 29 -41 46 -55 18 -15 53 -38 78 -51 43 -22 114 -88
    174 -163 20 -25 27 -45 27 -77 0 -45 15 -69 50 -80 11 -3 20 -15 20 -26 0 -10
    -5 -19 -10 -19 -6 0 -28 9 -49 20 -43 22 -61 57 -54 106 4 28 -3 40 -67 108
    -44 46 -93 87 -124 102 -28 14 -66 40 -85 57 -18 18 -42 50 -52 72 -10 22 -19
    56 -19 76 l0 37 -41 -9 c-23 -5 -56 -21 -74 -35 -19 -14 -47 -47 -64 -72 -16
    -26 -37 -74 -47 -107 -13 -44 -18 -98 -19 -205 -1 -127 -3 -151 -23 -194 -12
    -27 -22 -50 -22 -51 0 -5 138 24 234 50 65 18 114 25 139 22 21 -3 50 -16 64
    -29 14 -13 32 -37 39 -55 8 -18 14 -45 14 -61 0 -16 -22 -73 -50 -127 -27 -53
    -64 -142 -80 -196 -18 -57 -42 -111 -57 -130 -15 -17 -43 -38 -62 -46 -20 -9
    -59 -37 -88 -63 -37 -34 -77 -58 -133 -79 -44 -17 -95 -31 -115 -31 -33 0 -35
    2 -35 35 0 45 33 133 69 182 16 22 42 45 59 52 21 9 40 10 66 3 34 -10 36 -9
    36 14 0 14 5 35 11 47 7 12 32 41 56 65 43 41 73 96 87 155 5 23 3 27 -15 27
    -27 0 -167 -74 -309 -164 -58 -36 -147 -87 -199 -113 -83 -43 -100 -48 -161
    -49 -61 0 -73 -4 -131 -41 -35 -22 -80 -50 -100 -61 -51 -31 -201 -87 -294
    -111 -120 -30 -229 -47 -450 -71 -110 -11 -245 -30 -300 -41 -107 -22 -194
    -55 -262 -101 -30 -20 -53 -48 -78 -97 -20 -37 -59 -94 -86 -125 -28 -31 -76
    -76 -107 -100 -32 -24 -124 -84 -206 -135 -82 -50 -177 -114 -211 -141 -80
    -64 -178 -168 -222 -238 -19 -30 -61 -109 -92 -176 -43 -90 -69 -131 -99 -159
    -23 -20 -47 -37 -53 -37 -6 0 -44 -33 -84 -74 -54 -55 -94 -84 -155 -115 -45
    -22 -95 -41 -111 -41 -28 0 -29 2 -29 49 0 70 34 171 73 216 31 35 38 39 95
    43 61 4 62 5 62 34 0 16 5 39 12 51 6 12 37 47 67 77 38 37 69 80 93 130 20
    41 46 111 58 155 42 152 52 180 73 203 12 13 43 35 69 48 26 13 63 38 83 55
    20 18 47 50 60 73 13 22 29 62 35 88 10 38 9 70 -4 163 -9 64 -16 144 -16 178
    0 34 7 93 15 130 8 38 30 101 49 140 19 40 33 73 31 75 -1 2 -31 -7 -66 -18
    -35 -12 -95 -40 -134 -62 -38 -23 -102 -74 -141 -113 -56 -56 -81 -92 -118
    -166 -25 -52 -58 -139 -72 -194 -14 -55 -41 -132 -60 -172 -20 -42 -58 -98
    -92 -134 -31 -35 -83 -79 -114 -100 -33 -21 -102 -51 -160 -69 -191 -59 -249
    -82 -297 -120 -26 -21 -65 -64 -87 -96 l-39 -59 -3 58 c-2 32 4 85 12 118 9
    33 28 86 43 117 16 33 54 83 90 119 48 47 91 75 181 122 82 41 131 73 157 102
    20 23 53 76 72 118 95 210 122 260 174 325 31 39 74 87 95 107 45 42 139 107
    201 138 23 11 81 32 130 47 67 20 115 27 198 29 l110 3 55 51 c30 28 79 68
    108 87 74 50 184 99 274 123 42 11 157 32 255 46 98 15 214 35 258 46 158 37
    313 99 443 175 42 25 114 75 161 111 47 37 156 139 241 227 287 297 385 392
    465 452 45 33 111 75 148 94 37 19 67 38 67 43 0 14 -60 7 -117 -15 -63 -23
    -132 -59 -232 -121 -79 -48 -170 -90 -235 -106 -28 -7 -79 -12 -114 -12 -35 0
    -62 -2 -60 -4 2 -3 40 -12 83 -21 75 -15 156 -15 198 1 29 12 19 -13 -11 -29
    -16 -8 -84 -29 -152 -46 -68 -17 -136 -38 -151 -46 -16 -8 -54 -35 -84 -59
    -30 -25 -74 -55 -97 -67 -56 -29 -137 -35 -193 -13 -25 9 -45 20 -45 25 0 4
    39 7 88 7 71 -1 94 3 127 20 22 12 62 40 90 63 27 23 68 51 90 63 22 11 60 26
    85 32 37 10 42 14 25 20 -124 48 -169 71 -212 112 -27 25 -43 47 -36 50 6 2
    29 -5 50 -15 21 -11 65 -28 98 -37 43 -13 77 -16 125 -11 99 9 195 45 305 115
    l46 29 -57 1 c-31 0 -77 7 -103 16 -52 17 -110 59 -98 71 4 4 29 0 55 -9 26
    -9 65 -17 87 -17 22 0 58 9 81 19 22 10 63 35 91 55 27 19 75 47 106 61 31 15
    84 33 119 40 86 20 269 13 369 -13z m424 -14 c-4 -18 -9 -41 -12 -51 -5 -18
    -4 -18 24 -1 15 10 44 31 64 46 20 15 40 28 43 28 12 0 6 -40 -14 -92 -11 -28
    -33 -68 -50 -89 l-30 -38 74 -138 c40 -76 76 -156 79 -179 4 -22 31 -128 62
    -235 30 -107 55 -213 55 -237 0 -23 -6 -57 -14 -75 -16 -40 -79 -97 -109 -98
    -34 -2 -51 2 -59 14 -9 15 0 27 16 21 10 -4 12 7 8 49 -4 46 -1 57 23 85 15
    18 33 32 41 32 7 0 17 -8 22 -17 11 -20 -2 -63 -18 -63 -5 0 -10 8 -10 18 0
    14 -2 15 -10 2 -12 -19 -13 -90 -1 -90 18 0 60 61 67 95 4 25 -8 85 -50 232
    -31 109 -61 223 -67 253 -7 31 -44 116 -90 202 -44 82 -79 155 -79 164 0 11 4
    12 19 4 16 -8 23 -5 39 18 11 15 22 37 26 48 l6 21 -44 -21 c-29 -13 -48 -31
    -55 -48 -5 -14 -21 -34 -36 -44 -14 -9 -28 -14 -31 -11 -3 3 6 25 19 49 14 24
    29 61 33 83 l7 40 -33 -30 c-18 -16 -50 -54 -71 -82 -22 -29 -50 -59 -62 -67
    -12 -8 -34 -18 -49 -21 -20 -5 -28 -3 -28 7 0 7 15 21 33 31 18 10 42 32 52
    49 29 50 86 109 134 140 25 15 53 28 64 28 16 0 18 -5 12 -32z m-42 -443 c20
    -8 52 -15 71 -15 25 0 39 -7 50 -22 9 -12 16 -30 16 -40 0 -10 -6 -18 -14 -18
    -8 0 -17 4 -20 9 -3 5 -22 12 -41 15 -20 4 -51 21 -70 38 -19 16 -35 34 -35
    39 0 5 2 9 4 9 2 0 20 -7 39 -15z m-1343 -194 c0 -5 -24 -20 -52 -34 -29 -15
    -90 -60 -136 -101 -45 -42 -101 -86 -125 -98 -31 -16 -61 -22 -111 -22 -85 -1
    -101 18 -24 28 29 4 76 18 103 31 28 13 81 51 118 85 66 58 124 94 177 111 35
    10 50 10 50 0z m-2134 -1283 c-3 -13 -15 -77 -26 -143 -11 -66 -30 -149 -41
    -185 -11 -36 -38 -98 -60 -138 -21 -41 -59 -99 -83 -131 -60 -78 -212 -219
    -277 -258 -83 -50 -193 -85 -281 -91 -49 -3 -78 -1 -78 5 0 6 39 20 86 32 47
    12 114 33 147 46 33 14 89 43 123 66 34 22 104 84 156 137 52 53 113 129 136
    167 23 39 53 99 68 135 14 36 37 115 51 175 26 116 59 205 75 205 6 0 8 -10 4
    -22z M1540 2145 c-36 -7 -92 -23 -124 -35 -33 -13 -86 -38 -119 -57 -32 -19
    -90 -64 -128 -100 -38 -36 -91 -98 -118 -138 -26 -40 -69 -123 -96 -186 -26
    -63 -61 -135 -77 -161 -16 -26 -47 -63 -69 -82 -21 -20 -87 -60 -146 -90 -60
    -30 -129 -72 -154 -95 -26 -22 -61 -62 -78 -89 -17 -27 -40 -75 -51 -106 l-20
    -58 40 36 c22 19 65 49 97 65 32 16 103 41 158 55 55 14 128 40 163 57 87 43
    181 133 225 216 19 38 52 124 72 192 20 68 49 151 64 185 15 33 54 94 86 133
    31 40 87 95 123 123 36 28 98 67 138 87 41 19 97 41 126 49 l53 12 -50 0 c-27
    0 -79 -6 -115 -13z M946 430 c-26 -32 -56 -115 -56 -157 0 -23 0 -23 37 -8 21
    9 59 29 85 46 44 29 46 31 37 62 -5 17 -9 44 -9 59 0 25 -4 28 -34 28 -26 0
    -41 -7 -60 -30z"/>
  </g>
  <g fill="#f1ead8" fill-opacity="0.04687500" stroke="none" transform="translate(0,430) scale(0.100000,-0.100000)">
    <path d="M4453 3713 c4 -3 10 -3 14 0 3 4 0 7 -7 7 -7 0 -10 -3 -7 -7z M4670
    3200 c0 -7 3 -10 7 -7 3 4 3 10 0 14 -4 3 -7 0 -7 -7z M1839 2203 c-13 -16
    -12 -17 4 -4 9 7 17 15 17 17 0 8 -8 3 -21 -13z M1109 1193 c-13 -16 -12 -17
    4 -4 9 7 17 15 17 17 0 8 -8 3 -21 -13z"/>
  </g>
  <g fill="#f1ead8" fill-opacity="0.07812500" stroke="none" transform="translate(0,430) scale(0.100000,-0.100000)">
    <path d="M1134 1218 c-4 -7 -3 -8 4 -4 7 4 12 9 12 12 0 8 -9 4 -16 -8z"/>
  </g>
  <g fill="#f1ead8" fill-opacity="0.10937500" stroke="none" transform="translate(0,430) scale(0.100000,-0.100000)">
    <path d="M944 1248 c-4 -7 -3 -8 4 -4 12 7 16 16 8 16 -3 0 -8 -5 -12 -12z"/>
  </g>
  <g fill="#f1ead8" fill-opacity="0.14062500" stroke="none" transform="translate(0,430) scale(0.100000,-0.100000)">
    <path d=""/>
  </g>
  <g fill="#f1ead8" fill-opacity="0.17187500" stroke="none" transform="translate(0,430) scale(0.100000,-0.100000)">
    <path d="M3665 3670 c3 -5 8 -10 11 -10 3 0 2 5 -1 10 -3 6 -8 10 -11 10 -3 0
    -2 -4 1 -10z M5193 2773 c4 -3 10 -3 14 0 3 4 0 7 -7 7 -7 0 -10 -3 -7 -7z
    M1314 1948 c-4 -7 -3 -8 4 -4 7 4 12 9 12 12 0 8 -9 4 -16 -8z"/>
  </g>
  <g fill="#f1ead8" fill-opacity="0.20312500" stroke="none" transform="translate(0,430) scale(0.100000,-0.100000)">
    <path d="M3554 2988 c-4 -7 -3 -8 4 -4 12 7 16 16 8 16 -3 0 -8 -5 -12 -12z"/>
  </g>
  <g fill="#f1ead8" fill-opacity="0.23437500" stroke="none" transform="translate(0,430) scale(0.100000,-0.100000)">
    <path d="M4323 3803 c4 -3 10 -3 14 0 3 4 0 7 -7 7 -7 0 -10 -3 -7 -7z M1673
    2203 c4 -3 10 -3 14 0 3 4 0 7 -7 7 -7 0 -10 -3 -7 -7z"/>
  </g>
  <g fill="#f1ead8" fill-opacity="0.26562500" stroke="none" transform="translate(0,430) scale(0.100000,-0.100000)">
    <path d="M4428 3753 c7 -3 16 -2 19 1 4 3 -2 6 -13 5 -11 0 -14 -3 -6 -6z
    M3624 3128 c-4 -7 -3 -8 4 -4 12 7 16 16 8 16 -3 0 -8 -5 -12 -12z M1653 2203
    c4 -3 10 -3 14 0 3 4 0 7 -7 7 -7 0 -10 -3 -7 -7z M1013 463 c4 -3 10 -3 14 0
    3 4 0 7 -7 7 -7 0 -10 -3 -7 -7z"/>
  </g>
  <g fill="#f1ead8" fill-opacity="0.29687500" stroke="none" transform="translate(0,430) scale(0.100000,-0.100000)">
    <path d=""/>
  </g>
  <g fill="#f1ead8" fill-opacity="0.32812500" stroke="none" transform="translate(0,430) scale(0.100000,-0.100000)">
    <path d=""/>
  </g>
  <g fill="#f1ead8" fill-opacity="0.35937500" stroke="none" transform="translate(0,430) scale(0.100000,-0.100000)">
    <path d=""/>
  </g>
  <g fill="#f1ead8" fill-opacity="0.39062500" stroke="none" transform="translate(0,430) scale(0.100000,-0.100000)">
    <path d="M3325 3470 c3 -5 8 -10 11 -10 3 0 2 5 -1 10 -3 6 -8 10 -11 10 -3 0
    -2 -4 1 -10z M3914 3368 c-4 -7 -3 -8 4 -4 12 7 16 16 8 16 -3 0 -8 -5 -12
    -12z"/>
  </g>
  <g fill="#f1ead8" fill-opacity="0.42187500" stroke="none" transform="translate(0,430) scale(0.100000,-0.100000)">
    <path d="M4381 2744 c0 -11 3 -14 6 -6 3 7 2 16 -1 19 -3 4 -6 -2 -5 -13z
    M1071 544 c0 -11 3 -14 6 -6 3 7 2 16 -1 19 -3 4 -6 -2 -5 -13z"/>
  </g>
  <g fill="#f1ead8" fill-opacity="0.45312500" stroke="none" transform="translate(0,430) scale(0.100000,-0.100000)">
    <path d=""/>
  </g>
  <g fill="#f1ead8" fill-opacity="0.48437500" stroke="none" transform="translate(0,430) scale(0.100000,-0.100000)">
    <path d=""/>
  </g>
  <g fill="#f1ead8" fill-opacity="0.51562500" stroke="none" transform="translate(0,430) scale(0.100000,-0.100000)">
    <path d=""/>
  </g>
  <g fill="#f1ead8" fill-opacity="0.54687500" stroke="none" transform="translate(0,430) scale(0.100000,-0.100000)">
    <path d="M3824 3278 c-4 -7 -3 -8 4 -4 7 4 12 9 12 12 0 8 -9 4 -16 -8z"/>
  </g>
  <g fill="#f1ead8" fill-opacity="0.57812500" stroke="none" transform="translate(0,430) scale(0.100000,-0.100000)">
    <path d="M444 1208 c-4 -7 -3 -8 4 -4 12 7 16 16 8 16 -3 0 -8 -5 -12 -12z"/>
  </g>
  <g fill="#f1ead8" fill-opacity="0.60937500" stroke="none" transform="translate(0,430) scale(0.100000,-0.100000)">
    <path d="M4504 1938 c-4 -7 -3 -8 4 -4 12 7 16 16 8 16 -3 0 -8 -5 -12 -12z"/>
  </g>
  <g fill="#f1ead8" fill-opacity="0.64062500" stroke="none" transform="translate(0,430) scale(0.100000,-0.100000)">
    <path d="M4153 2803 c4 -3 10 -3 14 0 3 4 0 7 -7 7 -7 0 -10 -3 -7 -7z M4484
    1918 c-4 -7 -3 -8 4 -4 12 7 16 16 8 16 -3 0 -8 -5 -12 -12z"/>
  </g>
  <g fill="#f1ead8" fill-opacity="0.67187500" stroke="none" transform="translate(0,430) scale(0.100000,-0.100000)">
    <path d=""/>
  </g>
  <g fill="#f1ead8" fill-opacity="0.70312500" stroke="none" transform="translate(0,430) scale(0.100000,-0.100000)">
    <path d=""/>
  </g>
  <g fill="#f1ead8" fill-opacity="0.73437500" stroke="none" transform="translate(0,430) scale(0.100000,-0.100000)">
    <path d="M4683 2583 c4 -3 10 -3 14 0 3 4 0 7 -7 7 -7 0 -10 -3 -7 -7z M4820
    2490 c0 -7 3 -10 7 -7 3 4 3 10 0 14 -4 3 -7 0 -7 -7z"/>
  </g>
  <g fill="#f1ead8" fill-opacity="0.76562500" stroke="none" transform="translate(0,430) scale(0.100000,-0.100000)">
    <path d="M1670 1480 c0 -7 3 -10 7 -7 3 4 3 10 0 14 -4 3 -7 0 -7 -7z"/>
  </g>
  <g fill="#f1ead8" fill-opacity="0.79687500" stroke="none" transform="translate(0,430) scale(0.100000,-0.100000)">
    <path d=""/>
  </g>
  <g fill="#f1ead8" fill-opacity="0.82812500" stroke="none" transform="translate(0,430) scale(0.100000,-0.100000)">
    <path d=""/>
  </g>
  <g fill="#f1ead8" fill-opacity="0.85937500" stroke="none" transform="translate(0,430) scale(0.100000,-0.100000)">
    <path d=""/>
  </g>
  <g fill="#f1ead8" fill-opacity="0.89062500" stroke="none" transform="translate(0,430) scale(0.100000,-0.100000)">
    <path d=""/>
  </g>
  <g fill="#f1ead8" fill-opacity="0.92187500" stroke="none" transform="translate(0,430) scale(0.100000,-0.100000)">
    <path d="M4603 3263 c4 -3 10 -3 14 0 3 4 0 7 -7 7 -7 0 -10 -3 -7 -7z M1344
    1918 c-4 -7 -3 -8 4 -4 12 7 16 16 8 16 -3 0 -8 -5 -12 -12z"/>
  </g>
  <g fill="#f1ead8" fill-opacity="0.95312500" stroke="none" transform="translate(0,430) scale(0.100000,-0.100000)">
    <path d=""/>
  </g>
  <g fill="#f1ead8" fill-opacity="0.98437500" stroke="none" transform="translate(0,430) scale(0.100000,-0.100000)">
    <path d="M4260 3841 c-30 -5 -75 -14 -100 -21 -57 -15 -132 -53 -190 -95 -25
    -18 -58 -39 -75 -48 -16 -8 -48 -17 -70 -21 -27 -4 -58 0 -95 13 -30 11 -57
    18 -59 15 -2 -2 4 -13 14 -24 29 -33 103 -55 182 -55 40 0 73 -1 73 -2 0 0
    -37 -23 -81 -49 -45 -26 -111 -59 -148 -73 -55 -20 -84 -25 -171 -25 -98 -1
    -109 1 -172 31 -38 18 -68 28 -68 24 0 -5 19 -26 41 -46 45 -41 143 -89 202
    -100 20 -4 37 -11 37 -15 0 -4 -17 -10 -37 -14 -55 -9 -151 -58 -208 -106 -27
    -24 -70 -52 -94 -63 -37 -16 -58 -19 -125 -14 -72 5 -79 4 -61 -9 11 -8 37
    -19 59 -25 29 -8 56 -8 96 0 53 11 67 19 208 121 36 26 78 44 135 59 121 31
    216 61 221 70 3 4 -30 6 -74 3 -54 -3 -100 1 -149 13 -39 9 -73 20 -75 24 -2
    3 35 6 82 6 70 0 102 6 165 29 42 15 114 51 160 78 112 69 222 123 282 140 50
    14 95 13 95 -1 0 -4 -19 -17 -42 -27 -76 -34 -210 -129 -304 -215 -50 -46
    -152 -149 -226 -229 -74 -80 -175 -183 -224 -229 -49 -47 -127 -113 -174 -148
    -90 -67 -257 -158 -367 -199 -108 -41 -247 -72 -463 -104 -233 -35 -353 -71
    -475 -141 -43 -24 -108 -72 -145 -106 l-68 -63 -86 0 c-48 0 -121 -7 -163 -16
    -42 -8 -106 -27 -141 -41 -35 -14 -96 -47 -135 -73 -40 -26 -109 -86 -154
    -134 -67 -70 -92 -107 -135 -194 -29 -59 -66 -138 -82 -176 -16 -37 -46 -89
    -66 -115 -31 -39 -61 -60 -161 -111 -98 -51 -138 -78 -190 -130 -41 -40 -76
    -87 -93 -123 -30 -64 -56 -170 -56 -229 0 -21 3 -38 8 -38 4 0 16 16 26 35 28
    52 119 133 178 159 29 13 98 36 153 50 55 15 133 44 174 64 52 25 95 57 142
    104 48 48 78 89 103 140 19 40 48 123 66 183 17 61 44 138 60 172 16 35 42 82
    59 106 37 55 113 130 169 169 23 16 68 42 100 58 56 28 162 63 162 54 0 -2
    -13 -28 -29 -57 -16 -28 -39 -83 -51 -122 -16 -51 -22 -97 -22 -170 -1 -55 5
    -135 12 -178 7 -42 10 -103 7 -135 -2 -32 -14 -76 -25 -98 -11 -22 -42 -60
    -70 -86 -27 -25 -72 -58 -99 -72 -27 -13 -57 -36 -66 -49 -9 -14 -25 -61 -37
    -106 -28 -109 -66 -216 -98 -271 -14 -24 -54 -75 -89 -112 -51 -55 -63 -73
    -63 -101 0 -18 -5 -38 -12 -45 -7 -7 -35 -12 -63 -12 -45 0 -55 -4 -82 -32
    -17 -18 -38 -50 -47 -71 -21 -50 -39 -153 -31 -177 4 -11 15 -20 25 -20 10 0
    58 20 107 45 66 33 104 60 144 102 30 32 81 76 114 98 58 39 62 44 135 190 41
    83 90 172 109 199 47 67 151 171 234 232 38 28 123 84 189 124 66 40 155 99
    197 130 81 60 154 147 198 235 14 27 35 58 47 68 39 33 155 87 228 106 83 23
    160 34 373 56 83 9 193 23 245 31 133 21 299 66 402 109 47 20 123 60 168 90
    78 51 84 53 147 53 58 0 76 5 157 45 50 25 150 82 221 127 72 44 167 99 213
    122 63 32 85 39 94 30 9 -9 8 -25 -6 -67 -13 -41 -33 -72 -77 -119 -50 -53
    -59 -69 -59 -100 l0 -36 -53 6 c-50 6 -56 4 -89 -25 -19 -17 -47 -57 -62 -90
    -14 -32 -29 -79 -32 -105 -6 -44 -6 -46 18 -46 32 0 123 27 173 52 22 11 58
    37 80 58 22 21 65 51 95 67 44 22 60 37 77 73 12 25 34 83 49 130 14 47 46
    122 70 167 34 63 44 92 44 128 0 25 -7 59 -14 74 -8 15 -27 36 -43 46 -15 10
    -44 18 -68 17 -22 0 -102 -16 -178 -36 -76 -20 -149 -36 -162 -36 l-24 0 22
    48 c18 40 22 72 27 212 5 135 10 176 28 225 12 32 35 75 50 94 44 54 95 91
    135 98 36 5 37 5 37 -26 0 -38 22 -94 55 -136 13 -18 54 -48 92 -68 49 -26 88
    -58 137 -113 66 -72 69 -79 67 -120 -1 -35 3 -49 23 -69 26 -26 72 -42 84 -30
    4 4 -2 12 -12 19 -11 6 -31 21 -44 34 -18 18 -22 29 -17 52 4 16 1 39 -6 52
    -7 13 -40 54 -73 91 -34 38 -79 78 -101 89 -74 38 -125 81 -145 123 -11 23
    -20 59 -20 81 0 21 9 59 20 83 11 24 18 46 15 49 -7 8 -35 -19 -51 -50 -12
    -23 -21 -28 -51 -28 -20 0 -56 -9 -80 -21 -24 -11 -59 -40 -78 -63 -19 -23
    -46 -67 -59 -97 -14 -30 -30 -87 -37 -128 -6 -40 -8 -98 -4 -127 3 -30 4 -54
    1 -54 -3 0 -17 11 -32 25 -15 14 -45 30 -68 36 -53 14 -163 7 -201 -14 -29
    -15 -26 -16 75 -14 82 1 112 -2 137 -16 17 -9 41 -29 52 -43 37 -46 24 -139
    -27 -196 -8 -10 -25 -18 -38 -18 -39 0 -134 -40 -170 -73 -36 -31 -70 -85 -60
    -94 3 -4 28 15 56 41 28 26 65 53 83 61 17 7 93 25 167 40 74 14 188 40 253
    56 67 17 128 27 140 23 35 -10 66 -45 73 -80 5 -27 -3 -52 -44 -132 -27 -54
    -64 -143 -82 -198 -18 -54 -42 -110 -54 -122 -11 -13 -39 -33 -61 -44 -22 -11
    -60 -40 -86 -63 -41 -38 -108 -71 -182 -89 -26 -6 -28 -5 -22 16 26 82 50 130
    77 153 17 14 37 24 45 21 8 -4 31 -6 50 -6 33 0 35 -2 29 -25 -4 -14 -2 -25 3
    -25 20 0 33 42 26 88 -6 46 -5 48 41 92 27 26 60 74 80 115 19 38 34 76 34 85
    0 9 -7 26 -16 38 -10 14 -25 22 -45 22 -16 0 -61 -16 -100 -35 -38 -20 -133
    -74 -211 -122 -77 -47 -179 -104 -225 -126 -60 -28 -98 -40 -129 -40 -33 0
    -51 6 -70 24 -15 13 -41 56 -59 94 -18 39 -46 82 -62 98 -16 15 -44 31 -61 36
    -18 6 -32 7 -32 3 0 -4 22 -26 49 -49 36 -31 54 -56 66 -92 9 -28 28 -67 41
    -87 14 -20 21 -40 17 -43 -5 -3 -30 -21 -57 -40 -65 -45 -194 -104 -296 -135
    -47 -14 -130 -34 -185 -45 -55 -11 -203 -32 -329 -46 -126 -14 -259 -32 -297
    -40 -86 -18 -201 -58 -245 -85 -19 -12 -34 -17 -34 -11 0 6 20 55 45 108 25
    53 45 102 45 109 0 8 -4 14 -9 14 -17 0 -69 -94 -126 -225 -30 -71 -72 -155
    -92 -185 -20 -30 -61 -79 -91 -108 -30 -29 -100 -80 -154 -115 -239 -150 -319
    -207 -405 -290 -50 -48 -112 -120 -138 -159 -26 -38 -69 -118 -96 -176 -26
    -58 -58 -119 -69 -135 -12 -15 -46 -44 -76 -63 -29 -19 -64 -48 -76 -64 -16
    -22 -24 -27 -30 -18 -4 7 -8 31 -8 52 0 25 6 43 17 51 12 9 16 24 15 49 -2 32
    4 42 66 103 49 49 78 89 105 145 20 42 48 118 62 170 14 51 34 113 43 137 14
    36 28 51 82 83 36 22 84 58 107 80 23 22 54 68 68 101 26 56 27 66 21 156 -18
    284 -18 325 -1 390 9 36 28 87 42 115 36 73 104 165 154 212 65 59 160 121
    239 155 38 16 107 38 152 49 46 10 135 26 198 35 173 23 313 53 430 92 58 19
    146 54 196 79 189 92 356 223 562 443 223 238 360 370 452 436 88 63 242 145
    272 145 10 0 18 5 18 11 0 7 -12 9 -33 5 -36 -7 -97 2 -97 14 0 12 151 30 250
    30 71 0 91 3 83 11 -7 7 -56 14 -110 17 -66 3 -126 -1 -183 -12 -47 -9 -146
    -36 -220 -61 -74 -25 -145 -45 -159 -45 -20 0 -12 8 40 40 94 59 187 105 244
    121 32 9 93 14 170 13 88 -1 141 -7 200 -23 44 -12 108 -34 142 -50 52 -25 64
    -27 79 -16 17 12 16 13 -2 23 -49 26 -175 71 -239 85 -90 20 -215 28 -285 18z
    m-2585 -1696 c-116 -25 -245 -96 -342 -188 -30 -28 -74 -80 -98 -116 -24 -37
    -55 -95 -69 -131 -14 -36 -37 -107 -51 -159 -14 -51 -42 -126 -62 -165 -45
    -90 -135 -180 -223 -223 -36 -17 -114 -45 -174 -62 -60 -17 -133 -42 -163 -57
    -29 -15 -72 -45 -94 -65 l-41 -38 6 30 c3 17 19 59 36 93 18 38 52 86 87 120
    42 41 88 72 173 116 64 32 135 77 157 99 23 21 52 59 66 83 14 23 40 79 57
    123 17 44 47 109 67 145 19 35 56 91 81 123 26 33 76 84 111 113 36 29 94 69
    130 88 63 33 168 70 221 79 14 2 61 5 105 5 l80 0 -60 -13z m-629 -1705 c2
    -14 6 -42 9 -62 4 -33 1 -40 -27 -61 -42 -31 -113 -67 -133 -67 -8 0 -15 2
    -15 5 0 2 5 28 11 57 6 29 20 70 30 90 10 20 29 44 41 53 13 8 36 14 52 13 23
    -2 30 -9 32 -28z M4945 3823 c-58 -31 -97 -67 -137 -126 -22 -32 -56 -69 -76
    -80 -29 -17 -33 -23 -19 -25 36 -7 78 21 117 79 22 31 56 71 77 88 20 17 38
    29 39 28 2 -1 -2 -23 -7 -49 -6 -26 -21 -63 -34 -82 -13 -20 -20 -38 -16 -40
    11 -7 48 29 56 53 3 11 31 33 61 50 53 28 55 29 48 8 -3 -12 -17 -39 -31 -60
    -21 -29 -29 -35 -40 -26 -7 7 -16 9 -19 6 -3 -3 31 -73 75 -155 61 -114 85
    -171 101 -238 11 -49 41 -157 65 -241 25 -83 45 -171 45 -196 0 -29 -8 -55
    -23 -78 -12 -19 -30 -35 -39 -37 -23 -4 -32 35 -18 73 8 22 13 26 19 16 5 -8
    14 -10 20 -7 6 4 11 18 11 32 0 17 -5 24 -20 24 -10 0 -28 -10 -39 -22 -12
    -12 -23 -35 -27 -52 -3 -17 -1 -44 5 -59 9 -24 8 -27 -10 -27 -31 0 -17 -24
    15 -28 40 -5 99 38 125 90 11 25 21 58 21 75 0 17 -24 116 -54 220 -30 104
    -60 216 -66 249 -8 38 -37 105 -84 193 l-72 134 24 24 c24 24 65 108 76 156 5
    20 3 27 -8 27 -8 0 -18 -5 -22 -11 -7 -12 -94 -69 -105 -69 -4 0 -3 15 2 32
    11 40 12 68 2 68 -5 -1 -21 -8 -38 -17z M4920 3365 c0 -19 69 -65 97 -65 12 0
    28 -7 37 -15 8 -8 17 -15 20 -15 3 0 6 11 6 24 0 14 -10 32 -22 40 -12 9 -36
    16 -53 16 -16 0 -42 7 -57 14 -24 13 -28 13 -28 1z M3505 3141 c-33 -16 -93
    -59 -134 -95 -47 -42 -93 -73 -128 -86 -29 -11 -64 -20 -76 -21 -12 0 -31 -4
    -42 -8 -16 -7 -14 -9 13 -14 41 -8 121 7 172 33 22 11 71 50 109 85 37 36 94
    81 126 100 72 43 45 47 -40 6z M1442 1848 c-11 -29 -27 -87 -35 -130 -9 -42
    -26 -105 -37 -140 -28 -81 -88 -194 -144 -266 -57 -75 -166 -177 -241 -227
    -65 -43 -195 -95 -288 -116 -37 -8 -53 -15 -45 -20 23 -13 154 9 230 39 40 15
    100 46 133 69 33 22 84 62 113 88 75 68 176 197 221 285 21 41 48 105 60 142
    11 37 27 114 36 172 8 58 20 117 25 131 5 14 6 25 0 25 -4 0 -17 -24 -28 -52z"/>
  </g>
</svg>
