<?xml version="1.0" encoding="UTF-8"?>
<svg xmlns="http://www.w3.org/2000/svg" viewBox="0 0 600 430" width="600" height="430">
  <title>Banded alpha spline reconstruction</title>
  <g fill="#f1ead8" fill-opacity="0.03125000" stroke="none" transform="translate(0,430) scale(0.100000,-0.100000)">
    <path d="M0 2150 l0 -2150 3000 0 3000 0 0 2150 0 2150 -3000 0 -3000 0 0
    -2150z m4571 1672 c97 -26 229 -83 229 -98 0 -26 -39 -25 -91 2 -29 14 -95 37
    -147 50 -72 18 -121 24 -208 24 -92 0 -127 -4 -191 -25 -43 -13 -103 -41 -133
    -61 -30 -21 -73 -48 -95 -61 -38 -22 -38 -23 -10 -17 17 3 91 25 165 49 205
    66 315 83 425 65 39 -6 74 -15 78 -19 4 -4 -47 -11 -114 -15 -148 -8 -209 -16
    -209 -27 0 -4 28 -9 63 -11 46 -2 57 -6 42 -12 -223 -98 -303 -154 -490 -341
    -83 -82 -213 -214 -289 -293 -76 -78 -170 -169 -210 -201 -94 -77 -213 -154
    -311 -201 -162 -79 -393 -141 -625 -170 -52 -6 -135 -21 -185 -32 -49 -12
    -124 -35 -165 -53 -42 -17 -103 -50 -135 -72 -71 -48 -153 -127 -193 -186 -50
    -72 -93 -167 -108 -236 -7 -36 -14 -94 -14 -129 0 -34 7 -106 16 -160 9 -53
    13 -119 10 -145 -3 -27 -16 -73 -30 -103 -14 -30 -47 -75 -75 -102 -27 -26
    -74 -60 -104 -76 -30 -15 -60 -38 -66 -50 -6 -11 -26 -76 -46 -143 -19 -67
    -51 -155 -71 -195 -22 -45 -61 -98 -100 -139 -53 -54 -64 -71 -64 -99 0 -20
    -8 -43 -21 -56 -17 -19 -20 -30 -14 -64 l7 -42 42 40 c22 21 61 53 86 69 46
    31 57 48 124 195 19 42 56 110 81 150 26 40 86 111 134 158 82 81 200 165 404
    291 49 30 115 78 147 107 32 29 75 75 96 103 21 28 65 113 99 188 33 75 70
    154 82 176 26 49 58 81 68 66 3 -6 -16 -61 -44 -122 -28 -60 -51 -112 -51
    -115 0 -2 17 6 38 20 56 35 173 74 271 91 47 8 167 24 266 35 99 11 223 27
    275 36 133 22 270 59 354 95 76 32 176 87 214 117 l24 19 -26 49 c-14 27 -35
    71 -47 98 -15 32 -36 59 -66 79 -23 17 -43 34 -43 39 0 13 39 9 70 -7 16 -8
    40 -30 53 -47 14 -18 37 -61 52 -95 15 -34 36 -70 47 -80 14 -12 36 -18 72
    -18 38 0 70 9 129 37 42 20 141 76 220 124 149 91 290 164 317 164 8 0 26 -7
    38 -16 33 -23 29 -73 -15 -156 -21 -41 -53 -83 -76 -101 -39 -31 -39 -33 -34
    -85 5 -46 2 -56 -18 -80 l-24 -27 -1 30 c0 30 -1 30 -56 30 -47 0 -58 -4 -74
    -25 -20 -25 -60 -121 -60 -142 0 -6 12 -8 31 -4 57 11 143 56 179 92 19 20 55
    47 81 59 25 13 51 30 57 37 6 8 30 68 52 134 23 65 59 151 81 191 27 51 39 84
    39 113 0 30 -6 47 -25 65 -15 16 -36 25 -55 25 -17 0 -75 -11 -128 -24 -53
    -14 -167 -39 -252 -56 -101 -21 -170 -40 -197 -56 -24 -14 -55 -40 -70 -59
    -16 -19 -31 -35 -35 -35 -17 0 -6 39 21 78 20 27 50 50 93 70 35 17 83 34 106
    37 41 7 46 11 68 59 13 28 24 61 24 74 0 12 -7 38 -15 58 -11 26 -26 40 -62
    56 -41 18 -59 20 -145 15 -54 -3 -98 -2 -98 2 0 13 72 39 127 47 28 3 68 1 93
    -6 25 -6 60 -23 78 -36 l32 -25 0 74 c0 41 5 98 10 127 6 30 21 77 34 105 13
    29 41 72 62 95 41 45 122 90 163 90 15 0 37 15 61 43 21 23 41 39 45 35 3 -3
    -3 -25 -15 -48 -26 -52 -29 -133 -7 -177 9 -17 31 -43 48 -57 18 -15 53 -38
    78 -51 43 -22 114 -88 174 -163 20 -24 27 -45 27 -75 0 -23 4 -47 8 -52 4 -6
    19 -18 35 -28 15 -10 27 -24 27 -33 0 -11 -6 -14 -22 -8 -48 14 -76 35 -86 61
    -5 16 -7 42 -5 59 4 28 -3 40 -68 109 -46 48 -94 87 -129 105 -30 16 -69 43
    -87 62 -18 18 -39 50 -47 70 -9 21 -16 53 -16 72 l0 34 -42 -9 c-22 -6 -54
    -19 -69 -30 -16 -11 -43 -40 -60 -65 -16 -24 -39 -70 -51 -102 -17 -47 -21
    -84 -22 -212 -2 -136 -5 -161 -24 -204 -12 -27 -22 -50 -22 -51 0 -5 138 24
    234 50 65 18 114 25 139 22 21 -3 50 -16 64 -29 14 -13 32 -37 39 -55 8 -18
    14 -45 14 -61 0 -16 -23 -74 -50 -128 -28 -54 -64 -142 -81 -196 -18 -56 -42
    -112 -57 -130 -14 -17 -42 -37 -61 -45 -20 -9 -59 -37 -88 -63 -37 -34 -77
    -58 -133 -79 -44 -17 -95 -31 -115 -31 -33 0 -35 2 -35 35 0 42 27 115 63 172
    15 23 41 50 58 59 25 12 40 14 70 6 37 -9 39 -9 39 15 0 13 5 34 11 46 7 12
    33 43 60 69 31 31 55 67 68 103 12 31 21 60 21 65 0 22 -48 8 -134 -39 -50
    -27 -143 -81 -206 -120 -63 -40 -153 -91 -199 -114 -73 -36 -93 -42 -151 -43
    -62 0 -72 -3 -141 -48 -41 -26 -101 -60 -134 -76 -86 -41 -224 -85 -340 -109
    -55 -12 -203 -32 -330 -47 -126 -14 -275 -34 -330 -45 -106 -22 -194 -55 -262
    -101 -30 -20 -53 -48 -78 -97 -20 -37 -59 -94 -86 -125 -28 -31 -76 -76 -107
    -100 -32 -24 -122 -83 -200 -131 -79 -48 -176 -113 -215 -145 -40 -31 -99 -85
    -131 -121 -33 -35 -75 -88 -94 -117 -19 -30 -60 -109 -91 -176 -43 -90 -69
    -131 -99 -159 -23 -20 -47 -37 -53 -37 -6 0 -44 -33 -84 -74 -54 -55 -94 -84
    -155 -115 -45 -22 -96 -41 -113 -41 l-30 0 6 68 c3 37 13 88 22 114 9 25 31
    63 49 84 30 34 38 38 94 42 61 4 62 5 62 34 0 16 5 39 12 51 6 12 37 47 67 77
    38 37 69 80 93 130 20 41 46 111 58 155 42 152 52 180 73 203 12 13 44 35 70
    48 26 14 65 40 85 59 21 19 50 56 64 82 14 26 29 66 33 89 3 23 -1 93 -11 160
    -20 150 -14 262 20 362 14 41 35 89 47 108 12 19 19 37 16 40 -10 10 -134 -38
    -202 -78 -38 -23 -101 -73 -140 -112 -49 -49 -83 -96 -112 -152 -23 -44 -54
    -123 -69 -175 -40 -145 -64 -206 -104 -268 -20 -31 -64 -82 -98 -113 -34 -31
    -90 -70 -125 -87 -34 -16 -110 -43 -169 -60 -59 -17 -129 -41 -155 -52 -26
    -11 -66 -36 -90 -55 -23 -19 -56 -57 -74 -84 -18 -28 -36 -50 -41 -50 -13 0
    -9 101 7 164 8 32 27 83 43 114 15 33 53 83 88 117 45 45 91 76 181 123 82 42
    133 75 159 104 22 24 52 72 68 108 83 188 138 289 193 355 32 38 88 93 123
    122 36 29 101 71 145 92 116 58 219 83 345 86 l105 2 50 47 c59 56 140 113
    211 149 59 30 186 71 264 86 30 6 120 20 200 31 163 24 273 49 375 83 174 60
    309 132 454 244 47 37 156 139 241 227 273 283 388 395 468 454 43 32 108 73
    145 92 37 19 67 38 67 43 0 16 -69 5 -137 -22 -40 -16 -121 -58 -182 -95 -105
    -64 -172 -97 -236 -118 -16 -5 -70 -13 -120 -17 l-90 -7 60 -14 c66 -16 174
    -19 218 -7 36 10 35 -8 -2 -27 -16 -9 -83 -29 -150 -45 -66 -17 -133 -37 -148
    -45 -15 -8 -63 -41 -106 -74 -44 -33 -96 -64 -117 -71 -20 -6 -56 -11 -78 -11
    -43 0 -122 26 -122 40 0 4 39 7 88 7 71 -1 94 3 127 20 22 12 62 40 90 63 27
    23 70 52 95 65 26 13 63 26 83 30 20 4 37 11 37 15 0 4 -14 10 -31 14 -54 10
    -158 66 -201 107 -23 21 -38 42 -35 45 4 4 34 -5 67 -20 33 -15 84 -32 114
    -38 40 -9 73 -9 123 -1 38 6 96 22 130 35 34 14 91 43 127 64 l65 39 -72 5
    c-45 4 -90 14 -119 28 -49 24 -75 48 -64 59 3 4 28 -1 54 -10 26 -9 65 -17 87
    -17 22 0 58 9 81 19 22 10 63 35 91 55 27 19 75 47 106 61 31 15 84 33 119 40
    86 20 269 13 369 -13z m424 -14 c-4 -18 -9 -41 -12 -51 -5 -18 -4 -18 24 -1
    15 10 44 31 64 46 20 15 40 28 43 28 12 0 6 -40 -14 -92 -11 -28 -33 -68 -50
    -89 l-30 -38 71 -133 c48 -90 76 -155 85 -199 8 -36 37 -144 64 -240 27 -96
    50 -193 50 -217 0 -23 -6 -57 -14 -75 -7 -18 -30 -47 -50 -65 -28 -24 -46 -32
    -75 -32 -25 0 -41 5 -45 15 -3 10 1 15 13 15 15 0 17 7 13 53 -4 46 -1 57 23
    85 15 18 33 32 41 32 7 0 17 -8 22 -17 11 -20 -2 -63 -18 -63 -5 0 -10 8 -10
    18 0 14 -2 15 -10 2 -12 -19 -13 -90 -1 -90 16 0 59 59 66 90 4 16 4 45 0 63
    -4 17 -26 98 -50 178 -24 80 -51 181 -60 225 -13 58 -39 118 -97 227 -43 81
    -78 153 -78 158 0 6 9 9 20 6 15 -4 27 4 45 31 14 20 25 42 25 48 0 7 -17 3
    -44 -10 -29 -13 -48 -31 -55 -48 -5 -14 -21 -34 -36 -44 -14 -9 -28 -14 -31
    -11 -3 3 6 25 19 49 14 24 29 61 33 83 l7 40 -33 -30 c-18 -16 -50 -54 -71
    -82 -22 -29 -50 -59 -62 -67 -12 -8 -34 -18 -49 -21 -20 -5 -28 -3 -28 7 0 7
    15 21 33 31 18 10 42 32 52 49 29 50 86 109 134 140 25 15 53 28 64 28 16 0
    18 -5 12 -32z m-42 -443 c20 -8 52 -15 71 -15 25 0 39 -7 50 -22 9 -12 16 -30
    16 -40 0 -10 -6 -18 -14 -18 -8 0 -17 4 -20 9 -3 5 -22 12 -41 15 -20 4 -51
    21 -70 38 -19 16 -35 34 -35 39 0 5 2 9 4 9 2 0 20 -7 39 -15z m-1343 -194 c0
    -5 -24 -20 -52 -34 -29 -15 -90 -60 -136 -101 -45 -42 -101 -86 -125 -98 -31
    -16 -61 -22 -111 -22 -85 -1 -101 18 -24 28 29 4 76 18 103 31 28 13 81 51
    118 85 66 58 124 94 177 111 35 10 50 10 50 0z m-2134 -1283 c-3 -13 -15 -76
    -26 -140 -11 -64 -30 -147 -41 -185 -42 -136 -112 -246 -237 -375 -47 -48
    -117 -109 -156 -135 -39 -26 -107 -60 -151 -76 -84 -30 -217 -47 -228 -30 -4
    7 28 19 79 32 48 12 113 33 147 46 71 29 144 75 207 129 73 63 169 175 212
    248 22 37 53 102 70 144 16 42 39 120 50 173 21 102 54 191 70 191 6 0 8 -10
    4 -22z M1554 2149 c-72 -12 -185 -54 -256 -96 -33 -19 -91 -64 -129 -100 -38
    -36 -91 -98 -118 -138 -26 -40 -69 -123 -96 -186 -26 -63 -61 -135 -77 -161
    -16 -26 -47 -63 -69 -83 -22 -20 -87 -59 -144 -87 -57 -28 -126 -70 -153 -94
    -27 -24 -64 -65 -81 -92 -17 -27 -40 -75 -51 -106 l-20 -58 40 36 c22 19 65
    49 97 65 32 16 103 41 158 55 55 14 128 40 163 57 87 43 181 133 225 216 19
    38 52 124 72 193 20 69 50 153 66 187 16 34 55 94 86 133 31 39 86 94 122 121
    37 27 98 66 138 86 40 19 96 41 125 49 l53 12 -50 0 c-27 0 -73 -4 -101 -9z
    M954 443 c-25 -25 -53 -94 -60 -147 l-7 -46 31 11 c35 12 138 72 136 79 -1 3
    -5 31 -9 63 -7 56 -8 57 -40 57 -19 0 -41 -8 -51 -17z"/>
  </g>
  <g fill="#f1ead8" fill-opacity="0.09375000" stroke="none" transform="translate(0,430) scale(0.100000,-0.100000)">
    <path d="M4433 3713 c4 -3 10 -3 14 0 3 4 0 7 -7 7 -7 0 -10 -3 -7 -7z M4970
    2750 c0 -7 3 -10 7 -7 3 4 3 10 0 14 -4 3 -7 0 -7 -7z M4480 2100 c0 -7 3 -10
    7 -7 3 4 3 10 0 14 -4 3 -7 0 -7 -7z M1334 1968 c-4 -7 -3 -8 4 -4 12 7 16 16
    8 16 -3 0 -8 -5 -12 -12z M944 1248 c-4 -7 -3 -8 4 -4 12 7 16 16 8 16 -3 0
    -8 -5 -12 -12z M1139 1223 c-13 -16 -12 -17 4 -4 16 13 21 21 13 21 -2 0 -10
    -8 -17 -17z"/>
  </g>
  <g fill="#f1ead8" fill-opacity="0.15625000" stroke="none" transform="translate(0,430) scale(0.100000,-0.100000)">
    <path d="M3660 3676 c0 -2 8 -10 18 -17 15 -13 16 -12 3 4 -13 16 -21 21 -21
    13z M3744 3258 c-4 -7 -3 -8 4 -4 7 4 12 9 12 12 0 8 -9 4 -16 -8z M5193 2773
    c4 -3 10 -3 14 0 3 4 0 7 -7 7 -7 0 -10 -3 -7 -7z M4995 2690 c3 -5 8 -10 11
    -10 3 0 2 5 -1 10 -3 6 -8 10 -11 10 -3 0 -2 -4 1 -10z M1703 2203 c4 -3 10
    -3 14 0 3 4 0 7 -7 7 -7 0 -10 -3 -7 -7z M1314 1948 c-4 -7 -3 -8 4 -4 7 4 12
    9 12 12 0 8 -9 4 -16 -8z"/>
  </g>
  <g fill="#f1ead8" fill-opacity="0.21875000" stroke="none" transform="translate(0,430) scale(0.100000,-0.100000)">
    <path d="M4328 3803 c6 -2 18 -2 25 0 6 3 1 5 -13 5 -14 0 -19 -2 -12 -5z
    M3554 2988 c-4 -7 -3 -8 4 -4 12 7 16 16 8 16 -3 0 -8 -5 -12 -12z M1678 2203
    c7 -3 16 -2 19 1 4 3 -2 6 -13 5 -11 0 -14 -3 -6 -6z"/>
  </g>
  <g fill="#f1ead8" fill-opacity="0.28125000" stroke="none" transform="translate(0,430) scale(0.100000,-0.100000)">
    <path d="M4363 3803 c4 -3 10 -3 14 0 3 4 0 7 -7 7 -7 0 -10 -3 -7 -7z M4428
    3753 c7 -3 16 -2 19 1 4 3 -2 6 -13 5 -11 0 -14 -3 -6 -6z M4260 3690 c0 -7 3
    -10 7 -7 3 4 3 10 0 14 -4 3 -7 0 -7 -7z M3894 3348 c-4 -7 -3 -8 4 -4 12 7
    16 16 8 16 -3 0 -8 -5 -12 -12z M3624 3128 c-4 -7 -3 -8 4 -4 12 7 16 16 8 16
    -3 0 -8 -5 -12 -12z M1653 2203 c4 -3 10 -3 14 0 3 4 0 7 -7 7 -7 0 -10 -3 -7
    -7z M1574 1248 c-4 -7 -3 -8 4 -4 12 7 16 16 8 16 -3 0 -8 -5 -12 -12z M1008
    463 c7 -3 16 -2 19 1 4 3 -2 6 -13 5 -11 0 -14 -3 -6 -6z"/>
  </g>
  <g fill="#f1ead8" fill-opacity="0.34375000" stroke="none" transform="translate(0,430) scale(0.100000,-0.100000)">
    <path d="M3560 3350 c0 -7 3 -10 7 -7 3 4 3 10 0 14 -4 3 -7 0 -7 -7z M3869
    3323 c-13 -16 -12 -17 4 -4 9 7 17 15 17 17 0 8 -8 3 -21 -13z M4573 2433 c4
    -3 10 -3 14 0 3 4 0 7 -7 7 -7 0 -10 -3 -7 -7z"/>
  </g>
  <g fill="#f1ead8" fill-opacity="0.40625000" stroke="none" transform="translate(0,430) scale(0.100000,-0.100000)">
    <path d="M3325 3470 c3 -5 8 -10 11 -10 3 0 2 5 -1 10 -3 6 -8 10 -11 10 -3 0
    -2 -4 1 -10z M3914 3368 c-4 -7 -3 -8 4 -4 12 7 16 16 8 16 -3 0 -8 -5 -12
    -12z M4634 3268 c-4 -7 -3 -8 4 -4 7 4 12 9 12 12 0 8 -9 4 -16 -8z M4382
    2750 c0 -14 2 -19 5 -12 2 6 2 18 0 25 -3 6 -5 1 -5 -13z M1071 544 c0 -11 3
    -14 6 -6 3 7 2 16 -1 19 -3 4 -6 -2 -5 -13z"/>
  </g>
  <g fill="#f1ead8" fill-opacity="0.46875000" stroke="none" transform="translate(0,430) scale(0.100000,-0.100000)">
    <path d="M4054 2448 c-4 -7 -3 -8 4 -4 12 7 16 16 8 16 -3 0 -8 -5 -12 -12z
    M1584 958 c-4 -7 -3 -8 4 -4 12 7 16 16 8 16 -3 0 -8 -5 -12 -12z"/>
  </g>
  <g fill="#f1ead8" fill-opacity="0.53125000" stroke="none" transform="translate(0,430) scale(0.100000,-0.100000)">
    <path d="M3824 3278 c-4 -7 -3 -8 4 -4 7 4 12 9 12 12 0 8 -9 4 -16 -8z M1144
    1938 c-4 -7 -3 -8 4 -4 7 4 12 9 12 12 0 8 -9 4 -16 -8z M1104 628 c-4 -7 -3
    -8 4 -4 7 4 12 9 12 12 0 8 -9 4 -16 -8z"/>
  </g>
  <g fill="#f1ead8" fill-opacity="0.59375000" stroke="none" transform="translate(0,430) scale(0.100000,-0.100000)">
    <path d="M4504 1938 c-4 -7 -3 -8 4 -4 12 7 16 16 8 16 -3 0 -8 -5 -12 -12z
    M444 1208 c-4 -7 -3 -8 4 -4 12 7 16 16 8 16 -3 0 -8 -5 -12 -12z"/>
  </g>
  <g fill="#f1ead8" fill-opacity="0.65625000" stroke="none" transform="translate(0,430) scale(0.100000,-0.100000)">
    <path d="M4148 2803 c6 -2 18 -2 25 0 6 3 1 5 -13 5 -14 0 -19 -2 -12 -5z
    M5010 2750 c0 -7 3 -10 7 -7 3 4 3 10 0 14 -4 3 -7 0 -7 -7z M4484 1918 c-4
    -7 -3 -8 4 -4 12 7 16 16 8 16 -3 0 -8 -5 -12 -12z"/>
  </g>
  <g fill="#f1ead8" fill-opacity="0.71875000" stroke="none" transform="translate(0,430) scale(0.100000,-0.100000)">
    <path d="M5160 2740 c0 -7 3 -10 7 -7 3 4 3 10 0 14 -4 3 -7 0 -7 -7z M4683
    2583 c4 -3 10 -3 14 0 3 4 0 7 -7 7 -7 0 -10 -3 -7 -7z M4821 2484 c0 -11 3
    -14 6 -6 3 7 2 16 -1 19 -3 4 -6 -2 -5 -13z"/>
  </g>
  <g fill="#f1ead8" fill-opacity="0.78125000" stroke="none" transform="translate(0,430) scale(0.100000,-0.100000)">
    <path d="M3625 2350 c3 -5 8 -10 11 -10 3 0 2 5 -1 10 -3 6 -8 10 -11 10 -3 0
    -2 -4 1 -10z M1670 1480 c0 -7 3 -10 7 -7 3 4 3 10 0 14 -4 3 -7 0 -7 -7z"/>
  </g>
  <g fill="#f1ead8" fill-opacity="0.84375000" stroke="none" transform="translate(0,430) scale(0.100000,-0.100000)">
    <path d="M3570 3350 c0 -7 3 -10 7 -7 3 4 3 10 0 14 -4 3 -7 0 -7 -7z M1114
    1968 c-4 -7 -3 -8 4 -4 7 4 12 9 12 12 0 8 -9 4 -16 -8z"/>
  </g>
  <g fill="#f1ead8" fill-opacity="0.90625000" stroke="none" transform="translate(0,430) scale(0.100000,-0.100000)">
    <path d="M4603 3263 c4 -3 10 -3 14 0 3 4 0 7 -7 7 -7 0 -10 -3 -7 -7z M1344
    1918 c-4 -7 -3 -8 4 -4 12 7 16 16 8 16 -3 0 -8 -5 -12 -12z"/>
  </g>
  <g fill="#f1ead8" fill-opacity="0.96875000" stroke="none" transform="translate(0,430) scale(0.100000,-0.100000)">
    <path d="M4260 3841 c-30 -5 -75 -14 -100 -21 -56 -15 -132 -53 -191 -95 -26
    -18 -60 -40 -75 -48 -16 -8 -47 -17 -69 -21 -27 -4 -58 0 -95 13 -30 11 -57
    17 -60 14 -3 -2 8 -15 23 -29 39 -33 128 -57 193 -52 30 3 54 4 54 2 0 -1 -37
    -24 -81 -50 -45 -26 -111 -59 -148 -73 -55 -20 -84 -25 -171 -25 -98 -1 -110
    1 -172 31 -38 17 -68 28 -68 23 0 -4 21 -26 46 -48 25 -23 78 -54 119 -71 40
    -17 83 -31 94 -31 37 0 22 -17 -20 -24 -22 -4 -66 -20 -97 -36 -31 -16 -79
    -47 -107 -70 -81 -68 -99 -75 -203 -75 -77 0 -90 -2 -75 -13 10 -7 35 -17 57
    -23 29 -8 56 -8 96 0 53 11 67 19 208 121 36 26 78 44 135 59 121 31 216 61
    221 70 3 4 -30 6 -74 3 -54 -3 -100 1 -149 13 -39 9 -73 20 -75 24 -2 3 35 6
    82 6 70 0 102 6 165 29 42 15 114 51 160 78 112 69 222 123 282 140 49 14 95
    14 95 0 0 -4 -38 -27 -85 -51 -47 -24 -122 -74 -167 -110 -46 -36 -137 -122
    -203 -191 -264 -275 -444 -447 -530 -509 -95 -67 -247 -148 -354 -188 -106
    -40 -246 -71 -461 -103 -233 -35 -353 -71 -475 -141 -43 -24 -108 -72 -145
    -106 l-68 -63 -86 0 c-48 0 -121 -7 -163 -16 -42 -8 -106 -27 -141 -41 -35
    -14 -96 -47 -135 -73 -40 -26 -109 -86 -155 -134 -72 -76 -91 -105 -141 -210
    -32 -66 -71 -150 -87 -185 -16 -35 -47 -83 -70 -106 -26 -27 -83 -64 -153
    -100 -127 -65 -208 -133 -258 -217 -18 -29 -42 -89 -53 -132 -20 -80 -27 -166
    -12 -166 4 0 16 16 26 35 28 52 119 133 178 159 29 13 98 36 153 50 55 15 133
    44 174 64 51 25 95 57 140 102 36 36 80 93 98 125 17 33 48 116 67 185 20 69
    54 161 76 205 21 44 57 102 80 129 83 100 224 193 348 229 28 9 52 14 52 11 0
    -2 -13 -28 -29 -57 -16 -28 -40 -86 -52 -127 -16 -53 -23 -101 -23 -165 0 -49
    6 -127 13 -173 8 -46 11 -109 8 -141 -2 -32 -14 -75 -25 -97 -11 -22 -42 -60
    -70 -86 -27 -25 -72 -58 -99 -72 -27 -13 -57 -36 -66 -50 -9 -14 -28 -67 -41
    -118 -29 -112 -68 -218 -98 -267 -12 -20 -51 -66 -85 -103 -51 -55 -63 -73
    -63 -101 0 -18 -5 -38 -12 -45 -7 -7 -35 -12 -64 -12 -43 0 -56 -5 -79 -27
    -15 -16 -36 -47 -46 -71 -22 -51 -43 -166 -35 -188 5 -12 14 -15 36 -11 16 4
    60 21 97 39 44 22 94 58 143 105 41 39 98 87 125 105 46 30 56 44 125 183 41
    83 90 172 109 199 47 67 151 171 233 232 37 27 126 85 198 129 72 44 160 102
    196 129 37 27 86 74 110 105 24 31 58 83 75 116 17 33 41 68 53 78 39 33 154
    87 228 106 83 23 160 34 373 56 83 9 193 23 245 31 138 21 302 66 405 111 50
    21 124 61 165 88 71 47 79 50 143 51 59 1 79 6 160 47 50 25 151 82 222 127
    72 44 167 99 213 122 62 31 85 39 94 30 9 -9 8 -22 -1 -53 -7 -23 -23 -58 -36
    -78 -13 -20 -41 -54 -64 -76 -34 -32 -41 -46 -41 -77 l0 -38 -53 6 c-50 6 -56
    4 -89 -25 -19 -17 -47 -57 -62 -90 -14 -32 -29 -79 -32 -105 -6 -44 -6 -46 18
    -46 33 0 124 27 173 52 22 11 61 40 86 63 25 23 66 52 91 63 26 11 54 32 64
    46 9 15 34 78 54 141 21 62 56 147 79 188 32 57 41 85 41 121 0 26 -7 60 -14
    75 -17 31 -48 55 -87 64 -16 4 -86 -8 -185 -33 -87 -22 -169 -40 -182 -40
    l-22 0 22 43 c19 37 23 63 28 212 5 124 11 183 24 220 10 28 23 58 28 68 5 10
    26 37 46 59 38 42 98 78 132 78 16 0 20 -6 20 -30 0 -37 23 -93 55 -135 13
    -18 54 -48 92 -68 49 -26 88 -58 137 -113 66 -72 69 -79 67 -120 -1 -35 3 -49
    23 -69 26 -26 72 -42 84 -30 4 4 -2 12 -12 19 -11 6 -31 21 -44 34 -18 18 -22
    29 -17 52 4 16 1 39 -6 52 -7 13 -40 54 -73 91 -38 42 -83 80 -117 99 -32 16
    -72 44 -89 61 -18 18 -39 46 -46 64 -8 18 -14 49 -14 70 0 21 9 58 20 82 11
    24 18 46 15 49 -7 8 -35 -19 -51 -50 -12 -23 -21 -28 -51 -28 -20 0 -56 -9
    -80 -21 -24 -11 -59 -40 -78 -63 -19 -23 -46 -67 -59 -97 -14 -30 -30 -87 -37
    -128 -6 -40 -8 -98 -4 -127 3 -30 4 -54 1 -54 -3 0 -17 11 -32 25 -15 14 -45
    30 -68 36 -23 6 -70 9 -106 6 -62 -4 -120 -22 -120 -37 0 -3 30 -3 68 2 37 5
    85 6 107 2 22 -4 52 -12 67 -20 14 -7 36 -26 47 -40 37 -46 24 -139 -27 -196
    -8 -10 -25 -18 -38 -18 -39 0 -134 -40 -170 -73 -36 -31 -70 -85 -60 -94 3 -4
    28 15 56 41 28 26 65 53 83 61 17 7 93 25 167 40 74 14 188 40 253 56 67 17
    128 27 140 23 35 -10 66 -45 73 -80 5 -27 -3 -52 -44 -132 -27 -54 -64 -143
    -82 -198 -18 -54 -42 -110 -54 -123 -11 -13 -36 -30 -54 -37 -17 -8 -56 -36
    -86 -63 -49 -45 -113 -77 -190 -95 -21 -5 -27 -4 -24 6 3 7 13 37 22 66 10 29
    33 68 51 88 27 29 39 34 57 28 13 -4 36 -7 51 -6 26 1 28 -2 23 -24 -4 -13 -2
    -24 3 -24 20 0 33 42 26 88 -6 46 -5 48 41 92 27 26 60 74 80 115 19 38 34 76
    34 85 0 9 -7 26 -16 38 -10 14 -25 22 -45 22 -16 0 -58 -14 -92 -31 -34 -17
    -132 -74 -219 -125 -86 -52 -191 -111 -233 -131 -95 -45 -152 -48 -191 -12
    -15 13 -41 56 -59 94 -18 39 -46 82 -62 98 -16 15 -44 31 -61 36 -18 6 -32 7
    -32 3 0 -4 22 -26 49 -49 36 -31 54 -56 66 -92 9 -28 28 -67 41 -87 14 -20 21
    -40 17 -43 -5 -3 -30 -21 -57 -39 -64 -45 -194 -105 -297 -136 -46 -14 -129
    -34 -184 -45 -55 -11 -203 -32 -330 -46 -126 -14 -263 -33 -302 -41 -83 -17
    -193 -56 -242 -86 l-33 -21 7 24 c4 13 25 62 46 108 21 46 39 90 39 97 0 8 -4
    14 -9 14 -17 0 -69 -94 -126 -225 -30 -71 -72 -155 -92 -185 -20 -30 -61 -79
    -91 -108 -30 -29 -100 -80 -154 -115 -239 -150 -319 -207 -405 -290 -50 -48
    -112 -120 -138 -159 -26 -38 -69 -118 -96 -176 -26 -58 -58 -119 -69 -135 -12
    -15 -46 -44 -76 -63 -29 -19 -64 -48 -76 -64 -16 -22 -24 -27 -30 -18 -4 7 -8
    31 -8 52 0 25 6 43 17 51 12 9 16 24 15 49 -2 32 4 42 66 103 49 49 78 89 105
    145 20 42 48 118 62 170 14 51 34 113 43 137 14 36 28 51 82 83 36 22 84 58
    107 80 23 22 54 68 68 101 26 56 27 66 21 156 -18 284 -18 325 -1 390 9 36 28
    87 42 115 37 74 104 165 157 214 61 56 166 123 244 156 34 15 100 35 145 46
    45 10 134 26 197 35 172 23 313 53 430 92 58 19 146 54 196 79 191 93 356 224
    562 443 217 232 360 369 449 433 87 63 246 148 275 148 10 0 18 5 18 11 0 7
    -12 9 -33 5 -36 -7 -97 2 -97 14 0 11 157 30 255 30 67 0 86 3 78 11 -7 7 -56
    14 -110 17 -66 3 -126 -1 -183 -12 -47 -9 -146 -36 -220 -61 -74 -25 -145 -45
    -159 -45 -20 0 -12 8 40 40 105 66 200 109 279 126 53 11 101 14 165 10 50 -3
    125 -15 169 -26 43 -12 107 -34 142 -50 54 -24 65 -26 81 -15 16 12 11 17 -52
    45 -38 18 -110 42 -160 55 -49 13 -128 25 -175 28 -47 3 -110 2 -140 -2z
    m-2585 -1696 c-116 -25 -245 -96 -342 -188 -30 -28 -74 -80 -98 -116 -24 -37
    -55 -95 -69 -131 -14 -36 -37 -107 -51 -159 -14 -51 -42 -126 -62 -165 -45
    -90 -135 -180 -223 -223 -36 -17 -114 -45 -174 -62 -60 -17 -133 -42 -163 -57
    -29 -15 -72 -45 -94 -65 l-41 -38 6 30 c3 17 19 59 35 92 18 37 53 86 88 120
    42 42 89 74 173 117 63 33 129 72 146 87 17 16 43 45 58 65 15 20 49 89 76
    152 26 64 59 135 73 159 49 83 119 167 185 222 37 31 104 74 149 97 45 22 115
    49 155 59 40 9 109 18 153 17 l80 0 -60 -13z m-629 -1705 c2 -14 6 -42 9 -62
    4 -33 1 -40 -27 -61 -41 -31 -112 -67 -132 -67 -11 0 -13 8 -9 38 10 64 43
    141 71 162 16 13 37 20 56 18 23 -2 30 -9 32 -28z M4945 3823 c-56 -30 -103
    -73 -140 -129 -21 -31 -54 -66 -74 -77 -28 -17 -32 -23 -18 -25 36 -7 78 21
    117 79 22 31 56 71 77 88 20 17 38 29 39 28 2 -1 -2 -23 -7 -49 -6 -26 -21
    -63 -34 -82 -13 -20 -20 -38 -16 -40 11 -7 48 29 56 53 3 11 31 33 61 50 52
    28 55 29 48 8 -4 -12 -18 -39 -32 -59 -20 -31 -28 -36 -39 -27 -7 7 -16 9 -19
    6 -3 -3 31 -73 75 -155 61 -114 85 -171 101 -238 11 -49 41 -158 65 -242 25
    -84 45 -172 45 -196 0 -28 -8 -55 -23 -77 -12 -19 -30 -35 -39 -37 -23 -4 -32
    35 -18 73 8 22 13 26 19 16 5 -8 14 -10 20 -7 6 4 11 18 11 32 0 17 -5 24 -20
    24 -11 0 -29 -9 -39 -19 -11 -11 -23 -35 -26 -53 -4 -18 -2 -46 4 -61 9 -24 8
    -27 -10 -27 -31 0 -17 -24 15 -28 40 -5 99 38 125 90 11 25 21 58 21 75 0 17
    -24 116 -54 220 -30 104 -60 216 -66 249 -8 38 -37 105 -84 193 l-72 134 24
    24 c24 24 65 108 76 156 5 20 3 27 -8 27 -8 0 -18 -5 -22 -11 -7 -12 -94 -69
    -105 -69 -4 0 -3 15 2 32 11 40 12 68 2 68 -5 -1 -21 -8 -38 -17z M4920 3365
    c0 -19 69 -65 97 -65 12 0 28 -7 37 -15 8 -8 17 -15 20 -15 3 0 6 11 6 24 0
    14 -10 32 -22 40 -12 9 -36 16 -53 16 -16 0 -42 7 -57 14 -24 13 -28 13 -28 1z
    M3535 3158 c-46 -17 -93 -49 -169 -117 -42 -37 -89 -68 -123 -81 -29 -11 -64
    -20 -76 -21 -12 0 -31 -4 -42 -8 -16 -7 -14 -9 13 -14 41 -8 121 7 172 33 22
    11 71 50 109 85 37 36 94 81 126 100 57 34 52 45 -10 23z M1442 1848 c-11 -29
    -27 -87 -35 -130 -9 -42 -26 -105 -37 -140 -28 -81 -88 -194 -144 -266 -56
    -73 -166 -177 -238 -224 -67 -45 -179 -91 -277 -115 -43 -10 -66 -20 -58 -24
    22 -13 153 9 229 39 40 15 101 47 135 70 34 23 89 67 123 98 33 31 88 93 121
    137 33 44 75 109 93 146 19 36 43 96 54 132 11 36 28 114 37 175 10 60 21 119
    26 132 5 13 5 22 -1 22 -4 0 -17 -24 -28 -52z"/>
  </g>
</svg>
