<?xml version="1.0" encoding="UTF-8"?>
<svg xmlns="http://www.w3.org/2000/svg" viewBox="0 0 600 430" width="600" height="430">
  <title>Banded alpha spline reconstruction</title>
  <g fill="#f1ead8" fill-opacity="0.06250000" stroke="none" transform="translate(0,430) scale(0.100000,-0.100000)">
    <path d="M0 2150 l0 -2150 3000 0 3000 0 0 2150 0 2150 -3000 0 -3000 0 0
    -2150z m4575 1670 c98 -26 225 -81 225 -97 0 -6 -9 -14 -19 -18 -12 -3 -41 5
    -72 21 -29 14 -95 37 -147 50 -72 18 -121 24 -208 24 -93 0 -127 -4 -192 -25
    -43 -14 -107 -44 -143 -67 -35 -24 -77 -51 -94 -61 l-30 -17 30 6 c17 3 84 23
    150 44 66 22 139 44 162 50 23 6 77 15 121 20 54 7 103 7 153 0 40 -6 77 -14
    82 -19 4 -4 -47 -11 -115 -15 -146 -8 -208 -16 -208 -27 0 -4 28 -10 63 -11
    l62 -4 -35 -14 c-86 -34 -212 -105 -290 -164 -47 -35 -143 -124 -215 -198 -71
    -73 -186 -191 -254 -262 -132 -136 -247 -237 -348 -305 -99 -66 -240 -134
    -361 -174 -62 -21 -154 -46 -205 -57 -50 -10 -157 -28 -237 -40 -80 -11 -174
    -28 -210 -37 -92 -23 -205 -72 -278 -121 -72 -50 -148 -124 -192 -187 -50 -73
    -90 -162 -106 -233 -7 -37 -14 -95 -14 -130 0 -34 7 -106 16 -160 9 -57 13
    -118 9 -148 -3 -27 -16 -72 -29 -100 -13 -27 -44 -70 -70 -96 -26 -26 -73 -61
    -105 -78 -32 -17 -63 -41 -70 -53 -6 -12 -27 -77 -46 -144 -19 -67 -51 -155
    -71 -195 -22 -45 -61 -98 -100 -139 -53 -54 -64 -71 -64 -99 0 -20 -8 -43 -21
    -56 -17 -19 -20 -30 -14 -64 l7 -41 47 44 c26 25 62 52 79 61 17 9 39 28 50
    43 11 16 40 73 64 128 24 55 65 132 90 170 25 39 71 98 102 132 67 74 214 186
    341 263 163 97 231 148 294 217 63 68 80 99 201 360 44 94 82 144 95 124 3 -6
    -16 -61 -44 -122 -28 -60 -51 -111 -51 -113 0 -2 29 12 65 31 35 19 106 45
    158 58 51 13 212 38 358 55 263 31 396 55 519 92 76 23 272 117 314 151 l28
    23 -26 49 c-14 28 -35 72 -47 99 -15 32 -36 59 -66 79 -23 17 -43 34 -43 39 0
    13 39 9 70 -7 16 -8 40 -30 53 -47 14 -18 37 -61 52 -96 16 -35 39 -72 53 -83
    16 -12 40 -19 67 -19 29 0 69 13 131 43 49 24 150 81 224 127 142 87 283 160
    310 160 8 0 26 -7 38 -16 15 -10 22 -25 22 -47 0 -50 -56 -156 -107 -203 -45
    -42 -46 -45 -42 -122 2 -23 -5 -40 -19 -55 l-22 -21 0 29 c0 30 -1 30 -56 30
    -47 0 -58 -4 -74 -25 -20 -25 -60 -121 -60 -142 0 -7 12 -8 32 -4 56 11 142
    56 183 95 22 22 58 48 81 59 22 11 46 27 52 35 6 7 30 67 53 133 22 65 58 151
    80 190 28 51 39 83 39 113 0 31 -6 48 -25 66 -15 16 -36 25 -55 25 -17 0 -75
    -11 -128 -24 -53 -14 -167 -39 -252 -56 -102 -21 -169 -40 -197 -56 -24 -14
    -55 -40 -70 -59 -16 -19 -31 -35 -35 -35 -17 0 -6 39 21 78 20 27 50 50 93 70
    35 17 82 34 106 37 39 6 45 11 67 56 14 26 25 63 25 81 0 18 -9 47 -19 64 -13
    21 -36 38 -65 49 -38 15 -64 17 -141 12 -52 -4 -95 -3 -95 2 0 13 71 39 127
    47 28 3 68 1 93 -6 25 -6 60 -23 78 -36 l32 -25 0 74 c0 41 5 98 10 127 6 30
    21 77 34 105 13 29 41 72 62 95 41 45 122 90 163 90 15 0 37 15 61 43 21 23
    41 39 45 35 3 -3 -2 -23 -13 -45 -10 -21 -22 -53 -26 -72 -3 -18 -1 -51 4 -72
    6 -22 24 -54 40 -73 16 -18 55 -47 87 -64 54 -29 124 -92 186 -170 21 -26 27
    -44 27 -82 0 -44 3 -50 35 -69 19 -11 35 -27 35 -36 0 -8 -2 -15 -5 -15 -2 0
    -23 7 -45 16 -22 9 -45 25 -50 35 -6 10 -10 39 -10 64 0 45 -4 51 -72 122 -44
    45 -95 86 -128 103 -30 16 -69 43 -87 62 -18 18 -39 50 -47 70 -9 21 -16 53
    -16 71 l0 34 -40 -7 c-22 -4 -54 -19 -73 -32 -18 -14 -45 -43 -60 -65 -14 -21
    -36 -65 -48 -98 -18 -51 -22 -84 -24 -215 -1 -135 -4 -161 -23 -204 -12 -27
    -22 -50 -22 -52 0 -5 14 -2 194 42 98 23 162 34 184 30 19 -3 46 -16 60 -28
    30 -28 52 -77 52 -116 0 -15 -23 -72 -50 -126 -28 -54 -64 -143 -81 -198 -34
    -110 -69 -160 -123 -178 -18 -6 -48 -26 -67 -46 -18 -19 -52 -46 -74 -59 -53
    -30 -156 -65 -195 -65 -28 0 -30 3 -30 35 0 43 31 124 70 180 36 53 74 70 124
    57 34 -10 36 -9 36 14 0 14 5 35 11 46 7 12 33 43 59 69 31 31 56 68 69 104
    12 31 21 60 21 65 0 31 -94 -9 -255 -108 -191 -117 -312 -183 -364 -199 -32
    -9 -70 -13 -95 -10 -36 5 -48 1 -98 -34 -81 -56 -198 -113 -307 -149 -51 -16
    -138 -39 -193 -50 -55 -12 -180 -30 -277 -40 -271 -30 -339 -40 -426 -62 -44
    -10 -113 -35 -153 -55 -40 -20 -82 -48 -95 -63 -12 -16 -38 -56 -57 -91 -19
    -34 -55 -84 -79 -111 -24 -27 -69 -68 -100 -92 -31 -24 -117 -80 -191 -125
    -74 -46 -160 -101 -190 -124 -82 -61 -187 -164 -236 -234 -25 -33 -72 -119
    -105 -190 -33 -70 -73 -141 -87 -156 -15 -16 -43 -38 -62 -49 -19 -12 -65 -51
    -101 -88 -48 -49 -89 -79 -149 -109 -45 -22 -96 -41 -113 -41 l-30 0 6 67 c3
    38 14 90 24 117 10 26 32 64 49 84 27 32 36 36 92 40 61 4 62 5 62 34 0 16 5
    39 12 51 6 12 37 47 68 77 39 38 68 79 93 130 31 64 72 191 91 281 10 46 51
    93 111 127 33 18 74 47 91 64 18 16 45 53 60 81 23 42 28 65 29 117 0 36 -6
    112 -14 170 -8 59 -11 134 -8 175 7 76 44 196 78 251 12 19 19 38 15 41 -10
    10 -127 -37 -201 -80 -38 -22 -101 -72 -140 -111 -48 -49 -83 -96 -112 -151
    -23 -44 -58 -136 -78 -205 -20 -69 -50 -154 -67 -190 -22 -46 -53 -87 -107
    -140 -51 -50 -98 -86 -141 -107 -36 -17 -121 -48 -189 -68 -68 -20 -138 -43
    -155 -52 -53 -27 -114 -81 -147 -133 -18 -28 -37 -50 -42 -50 -17 0 -1 151 22
    211 35 93 94 174 163 225 35 26 101 65 148 87 47 23 105 60 130 83 28 27 57
    68 77 111 94 206 125 268 153 308 53 76 136 160 215 214 41 29 101 63 132 77
    98 44 199 66 313 68 l105 2 50 48 c28 26 83 70 123 96 75 50 190 100 290 125
    31 8 136 26 232 40 96 15 211 35 255 45 125 29 230 67 350 126 61 30 160 91
    220 135 75 56 162 135 275 253 277 287 387 394 468 454 43 32 108 73 145 92
    37 19 67 38 67 43 0 16 -68 5 -136 -22 -39 -15 -124 -59 -190 -98 -65 -38
    -150 -83 -189 -98 -48 -19 -97 -29 -160 -34 l-90 -7 78 -18 c49 -12 99 -17
    135 -14 31 3 65 9 75 13 10 4 17 3 17 -4 0 -7 -16 -19 -36 -27 -21 -9 -89 -29
    -152 -45 -64 -16 -134 -40 -157 -53 -22 -14 -63 -43 -90 -65 -27 -23 -65 -48
    -85 -58 -19 -9 -59 -19 -88 -21 -35 -3 -67 1 -97 13 -25 9 -45 20 -45 25 0 4
    39 7 88 7 72 -2 94 2 127 20 22 12 63 41 90 64 54 45 130 85 183 95 32 6 45
    24 17 24 -25 0 -136 50 -182 81 -41 28 -70 65 -60 76 3 2 27 -7 54 -20 72 -36
    145 -51 220 -43 35 4 93 17 128 30 35 13 99 43 141 67 l77 44 -74 5 c-47 4
    -91 14 -121 28 -49 24 -75 48 -64 59 3 4 28 -1 54 -10 26 -9 66 -17 90 -17 23
    0 59 9 80 19 20 11 67 39 104 64 37 25 92 55 123 66 31 12 80 26 108 31 29 5
    102 7 162 5 69 -2 140 -12 190 -25z m421 -5 c-3 -14 -9 -37 -12 -51 l-7 -26
    29 18 c16 10 45 31 65 46 20 15 40 28 43 28 12 0 6 -40 -14 -92 -11 -28 -33
    -68 -50 -89 l-30 -38 70 -130 c53 -100 74 -151 90 -218 10 -48 40 -157 65
    -242 25 -85 45 -175 45 -199 0 -24 -7 -59 -16 -78 -9 -19 -32 -47 -50 -64 -26
    -22 -45 -30 -73 -30 -25 0 -41 5 -45 15 -3 10 1 15 13 15 15 0 17 7 13 55 -4
    50 -2 56 27 85 17 18 37 30 44 27 16 -5 16 -69 0 -74 -7 -3 -13 3 -13 14 0 15
    -2 16 -10 3 -12 -19 -13 -90 -1 -90 5 0 21 14 35 30 46 56 44 81 -22 319 -34
    119 -64 232 -68 251 -4 19 -42 102 -85 184 -44 81 -79 153 -79 158 0 6 9 8 20
    5 15 -4 27 4 45 31 14 20 25 42 25 48 0 7 -17 3 -44 -10 -29 -13 -48 -31 -55
    -48 -5 -14 -21 -34 -36 -44 -14 -9 -28 -14 -31 -11 -3 3 6 25 19 49 14 24 28
    61 32 83 l7 40 -54 -56 c-29 -32 -64 -72 -77 -89 -14 -18 -40 -39 -58 -47 -32
    -13 -53 -11 -53 5 0 4 15 15 33 25 18 10 42 32 52 49 29 50 86 109 134 140 25
    15 54 28 64 28 15 0 18 -5 13 -25z m-11 -457 c82 -20 88 -23 98 -51 5 -16 7
    -31 3 -34 -3 -3 -21 2 -40 11 -19 9 -41 16 -50 16 -18 0 -86 57 -86 72 0 6 8
    7 18 3 9 -4 35 -12 57 -17z m-1375 -187 c0 -5 -24 -20 -52 -34 -29 -15 -90
    -60 -136 -101 -45 -42 -101 -86 -125 -98 -31 -16 -61 -22 -111 -22 -84 -1
    -102 18 -26 27 29 4 75 17 103 30 29 13 84 52 122 87 67 60 122 95 175 111 35
    10 50 10 50 0z m-2139 -1303 c-5 -18 -15 -71 -22 -118 -6 -47 -23 -123 -36
    -170 -13 -46 -40 -114 -59 -150 -19 -36 -56 -94 -83 -131 -62 -81 -188 -202
    -264 -252 -32 -22 -95 -52 -140 -69 -48 -17 -111 -32 -153 -35 -43 -4 -74 -2
    -77 4 -4 7 29 19 81 33 48 12 116 34 152 49 36 15 93 46 127 69 73 49 173 146
    230 222 56 75 108 173 137 258 14 39 32 108 41 152 17 81 38 144 57 168 6 7
    13 10 15 8 3 -3 0 -20 -6 -38z M1585 2154 c-102 -20 -133 -29 -188 -51 -34
    -14 -92 -45 -129 -69 -37 -25 -97 -78 -135 -118 -37 -40 -83 -99 -101 -129
    -19 -31 -51 -98 -73 -149 -21 -51 -49 -113 -61 -137 -12 -24 -42 -65 -66 -92
    -33 -37 -70 -62 -160 -106 -91 -45 -131 -71 -178 -118 -58 -57 -103 -132 -124
    -203 l-9 -33 39 35 c22 19 65 49 97 65 32 16 103 40 158 55 55 14 133 42 173
    62 44 22 94 58 126 91 30 31 70 85 90 122 19 36 51 122 71 191 21 69 52 157
    71 195 35 72 98 153 169 217 60 54 180 125 249 147 34 11 70 22 81 24 25 6
    -72 6 -100 1z M954 443 c-25 -25 -53 -94 -60 -147 l-7 -46 31 11 c35 12 138
    72 136 79 -1 3 -5 31 -9 63 -7 56 -8 57 -40 57 -19 0 -41 -8 -51 -17z"/>
  </g>
  <g fill="#f1ead8" fill-opacity="0.18750000" stroke="none" transform="translate(0,430) scale(0.100000,-0.100000)">
    <path d="M4328 3803 c6 -2 18 -2 25 0 6 3 1 5 -13 5 -14 0 -19 -2 -12 -5z
    M4403 3753 c4 -3 10 -3 14 0 3 4 0 7 -7 7 -7 0 -10 -3 -7 -7z M4453 3753 c4
    -3 10 -3 14 0 3 4 0 7 -7 7 -7 0 -10 -3 -7 -7z M4879 3733 c-13 -16 -12 -17 4
    -4 9 7 17 15 17 17 0 8 -8 3 -21 -13z M4413 3713 c4 -3 10 -3 14 0 3 4 0 7 -7
    7 -7 0 -10 -3 -7 -7z M3660 3676 c0 -2 8 -10 18 -17 15 -13 16 -12 3 4 -13 16
    -21 21 -21 13z M3744 3258 c-4 -7 -3 -8 4 -4 7 4 12 9 12 12 0 8 -9 4 -16 -8z
    M4603 3223 c4 -3 10 -3 14 0 3 4 0 7 -7 7 -7 0 -10 -3 -7 -7z M3554 2988 l-19
    -23 23 19 c21 18 27 26 19 26 -2 0 -12 -10 -23 -22z M5200 2780 c-9 -6 -10
    -10 -3 -10 6 0 15 5 18 10 3 6 5 10 3 10 -2 0 -10 -5 -18 -10z M4995 2690 c3
    -5 8 -10 11 -10 3 0 2 5 -1 10 -3 6 -8 10 -11 10 -3 0 -2 -4 1 -10z M4024
    2358 c-4 -7 -3 -8 4 -4 12 7 16 16 8 16 -3 0 -8 -5 -12 -12z M1633 2203 c4 -3
    10 -3 14 0 3 4 0 7 -7 7 -7 0 -10 -3 -7 -7z M1683 2203 c9 -2 23 -2 30 0 6 3
    -1 5 -18 5 -16 0 -22 -2 -12 -5z M1314 1948 c-4 -7 -3 -8 4 -4 7 4 12 9 12 12
    0 8 -9 4 -16 -8z"/>
  </g>
  <g fill="#f1ead8" fill-opacity="0.31250000" stroke="none" transform="translate(0,430) scale(0.100000,-0.100000)">
    <path d="M4368 3803 c7 -3 16 -2 19 1 4 3 -2 6 -13 5 -11 0 -14 -3 -6 -6z
    M4428 3753 c7 -3 16 -2 19 1 4 3 -2 6 -13 5 -11 0 -14 -3 -6 -6z M4260 3690
    c0 -7 3 -10 7 -7 3 4 3 10 0 14 -4 3 -7 0 -7 -7z M3560 3350 c0 -7 3 -10 7 -7
    3 4 3 10 0 14 -4 3 -7 0 -7 -7z M3879 3333 l-24 -28 28 24 c25 23 32 31 24 31
    -2 0 -14 -12 -28 -27z M3629 3133 c-13 -16 -12 -17 4 -4 9 7 17 15 17 17 0 8
    -8 3 -21 -13z M4380 2780 c0 -7 3 -10 7 -7 3 4 3 10 0 14 -4 3 -7 0 -7 -7z
    M4380 2720 c0 -7 3 -10 7 -7 3 4 3 10 0 14 -4 3 -7 0 -7 -7z M4573 2433 c4 -3
    10 -3 14 0 3 4 0 7 -7 7 -7 0 -10 -3 -7 -7z M1653 2203 c4 -3 10 -3 14 0 3 4
    0 7 -7 7 -7 0 -10 -3 -7 -7z M4363 2083 c4 -3 10 -3 14 0 3 4 0 7 -7 7 -7 0
    -10 -3 -7 -7z M1174 1258 c-4 -7 -3 -8 4 -4 7 4 12 9 12 12 0 8 -9 4 -16 -8z
    M1574 1248 c-4 -7 -3 -8 4 -4 12 7 16 16 8 16 -3 0 -8 -5 -12 -12z M1008 463
    c7 -3 16 -2 19 1 4 3 -2 6 -13 5 -11 0 -14 -3 -6 -6z M1104 328 c-4 -7 -3 -8
    4 -4 7 4 12 9 12 12 0 8 -9 4 -16 -8z"/>
  </g>
  <g fill="#f1ead8" fill-opacity="0.43750000" stroke="none" transform="translate(0,430) scale(0.100000,-0.100000)">
    <path d="M3325 3470 c3 -5 8 -10 11 -10 3 0 2 5 -1 10 -3 6 -8 10 -11 10 -3 0
    -2 -4 1 -10z M3919 3373 c-13 -16 -12 -17 4 -4 16 13 21 21 13 21 -2 0 -10 -8
    -17 -17z M3844 3298 c-4 -7 -3 -8 4 -4 7 4 12 9 12 12 0 8 -9 4 -16 -8z M4634
    3268 c-4 -7 -3 -8 4 -4 7 4 12 9 12 12 0 8 -9 4 -16 -8z M4173 2843 c4 -3 10
    -3 14 0 3 4 0 7 -7 7 -7 0 -10 -3 -7 -7z M4382 2750 c0 -14 2 -19 5 -12 2 6 2
    18 0 25 -3 6 -5 1 -5 -13z M5204 2718 c-4 -7 -3 -8 4 -4 7 4 12 9 12 12 0 8
    -9 4 -16 -8z M4049 2443 c-13 -16 -12 -17 4 -4 16 13 21 21 13 21 -2 0 -10 -8
    -17 -17z M2324 1608 c-4 -7 -3 -8 4 -4 12 7 16 16 8 16 -3 0 -8 -5 -12 -12z
    M784 1428 c-4 -7 -3 -8 4 -4 12 7 16 16 8 16 -3 0 -8 -5 -12 -12z M1584 1018
    c-4 -7 -3 -8 4 -4 12 7 16 16 8 16 -3 0 -8 -5 -12 -12z M1579 953 c-13 -16
    -12 -17 4 -4 16 13 21 21 13 21 -2 0 -10 -8 -17 -17z M1071 544 c0 -11 3 -14
    6 -6 3 7 2 16 -1 19 -3 4 -6 -2 -5 -13z"/>
  </g>
  <g fill="#f1ead8" fill-opacity="0.56250000" stroke="none" transform="translate(0,430) scale(0.100000,-0.100000)">
    <path d="M4303 3673 c4 -3 10 -3 14 0 3 4 0 7 -7 7 -7 0 -10 -3 -7 -7z M3824
    3278 c-4 -7 -3 -8 4 -4 7 4 12 9 12 12 0 8 -9 4 -16 -8z M1139 1933 c-13 -16
    -12 -17 4 -4 9 7 17 15 17 17 0 8 -8 3 -21 -13z M4504 1938 c-4 -7 -3 -8 4 -4
    12 7 16 16 8 16 -3 0 -8 -5 -12 -12z M449 1213 c-13 -16 -12 -17 4 -4 9 7 17
    15 17 17 0 8 -8 3 -21 -13z M1604 978 c-4 -7 -3 -8 4 -4 12 7 16 16 8 16 -3 0
    -8 -5 -12 -12z M1104 628 c-4 -7 -3 -8 4 -4 7 4 12 9 12 12 0 8 -9 4 -16 -8z"/>
  </g>
  <g fill="#f1ead8" fill-opacity="0.68750000" stroke="none" transform="translate(0,430) scale(0.100000,-0.100000)">
    <path d="M3804 3258 c-4 -7 -3 -8 4 -4 7 4 12 9 12 12 0 8 -9 4 -16 -8z M4143
    2803 c9 -2 23 -2 30 0 6 3 -1 5 -18 5 -16 0 -22 -2 -12 -5z M4340 2800 c0 -7
    3 -10 7 -7 3 4 3 10 0 14 -4 3 -7 0 -7 -7z M5010 2750 c0 -7 3 -10 7 -7 3 4 3
    10 0 14 -4 3 -7 0 -7 -7z M5160 2740 c0 -7 3 -10 7 -7 3 4 3 10 0 14 -4 3 -7
    0 -7 -7z M4683 2583 c4 -3 10 -3 14 0 3 4 0 7 -7 7 -7 0 -10 -3 -7 -7z M4821
    2484 c0 -11 3 -14 6 -6 3 7 2 16 -1 19 -3 4 -6 -2 -5 -13z M4615 2420 c3 -5 8
    -10 11 -10 3 0 2 5 -1 10 -3 6 -8 10 -11 10 -3 0 -2 -4 1 -10z M4484 1918 c-4
    -7 -3 -8 4 -4 12 7 16 16 8 16 -3 0 -8 -5 -12 -12z M1670 1500 c0 -7 3 -10 7
    -7 3 4 3 10 0 14 -4 3 -7 0 -7 -7z"/>
  </g>
  <g fill="#f1ead8" fill-opacity="0.81250000" stroke="none" transform="translate(0,430) scale(0.100000,-0.100000)">
    <path d="M3874 3388 c-4 -7 -3 -8 4 -4 7 4 12 9 12 12 0 8 -9 4 -16 -8z M3570
    3350 c0 -7 3 -10 7 -7 3 4 3 10 0 14 -4 3 -7 0 -7 -7z M3625 2350 c3 -5 8 -10
    11 -10 3 0 2 5 -1 10 -3 6 -8 10 -11 10 -3 0 -2 -4 1 -10z M3908 2103 c7 -3
    16 -2 19 1 4 3 -2 6 -13 5 -11 0 -14 -3 -6 -6z M1119 1973 c-13 -16 -12 -17 4
    -4 9 7 17 15 17 17 0 8 -8 3 -21 -13z M1670 1480 c0 -7 3 -10 7 -7 3 4 3 10 0
    14 -4 3 -7 0 -7 -7z M1040 430 c0 -7 3 -10 7 -7 3 4 3 10 0 14 -4 3 -7 0 -7
    -7z"/>
  </g>
  <g fill="#f1ead8" fill-opacity="0.93750000" stroke="none" transform="translate(0,430) scale(0.100000,-0.100000)">
    <path d="M4252 3840 c-35 -5 -80 -14 -100 -21 -54 -17 -130 -57 -183 -94 -59
    -42 -96 -61 -136 -68 -17 -4 -53 0 -80 7 -107 31 -102 31 -66 -3 42 -39 128
    -65 199 -59 30 3 54 4 54 3 0 -1 -37 -24 -82 -50 -45 -27 -111 -60 -147 -74
    -55 -20 -84 -25 -171 -25 -98 -1 -110 1 -172 31 -38 17 -68 28 -68 23 0 -4 21
    -26 46 -48 25 -23 78 -54 119 -71 40 -17 83 -31 94 -31 37 0 22 -17 -21 -24
    -23 -4 -65 -18 -92 -32 -28 -14 -72 -43 -97 -64 -26 -22 -64 -50 -85 -62 -33
    -20 -53 -23 -132 -23 -77 0 -90 -2 -75 -13 10 -7 36 -17 58 -24 58 -16 137 3
    200 48 27 19 74 53 103 74 36 26 78 44 135 59 121 31 216 61 221 70 3 4 -30 6
    -74 3 -54 -3 -100 1 -149 13 -39 9 -73 20 -75 24 -2 3 35 6 82 6 70 0 102 6
    165 29 42 15 114 51 160 78 45 28 124 71 175 96 64 31 110 47 148 50 30 2 54
    1 54 -4 0 -5 -38 -29 -85 -53 -47 -24 -122 -74 -167 -110 -46 -36 -139 -124
    -208 -196 -262 -273 -418 -423 -504 -487 -95 -71 -261 -162 -369 -203 -108
    -40 -259 -74 -471 -106 -228 -34 -349 -70 -471 -140 -43 -24 -108 -72 -145
    -106 l-68 -63 -86 0 c-48 0 -122 -7 -164 -16 -42 -9 -108 -29 -147 -45 -38
    -16 -97 -47 -130 -69 -32 -21 -90 -70 -128 -107 -38 -37 -88 -97 -111 -133
    -23 -36 -56 -96 -73 -135 -88 -195 -104 -226 -141 -263 -23 -23 -88 -65 -152
    -97 -126 -65 -207 -133 -257 -217 -18 -29 -42 -89 -53 -132 -20 -80 -27 -166
    -12 -166 4 0 16 16 27 36 10 19 45 59 76 89 41 37 78 60 126 78 37 14 104 35
    148 47 44 12 113 38 154 58 100 49 197 145 245 244 19 40 52 129 71 198 20 69
    53 157 73 195 25 48 63 97 122 155 63 64 105 96 165 127 77 40 190 80 183 65
    -2 -4 -15 -30 -30 -57 -14 -28 -36 -84 -49 -125 -15 -50 -22 -101 -23 -159 0
    -47 6 -130 13 -184 8 -54 11 -120 8 -147 -3 -27 -15 -66 -26 -87 -10 -21 -41
    -59 -69 -85 -27 -25 -72 -58 -99 -72 -27 -13 -57 -36 -66 -50 -9 -14 -28 -67
    -41 -118 -29 -112 -68 -218 -98 -267 -12 -20 -51 -66 -85 -103 -52 -55 -63
    -73 -63 -101 0 -19 -6 -39 -13 -45 -7 -6 -34 -11 -59 -10 -27 0 -55 -6 -71
    -17 -15 -9 -38 -40 -51 -68 -27 -56 -52 -177 -42 -203 5 -12 14 -15 36 -11 16
    4 60 21 97 39 44 21 96 59 148 108 44 42 99 88 123 103 24 16 53 44 65 64 11
    20 40 78 63 129 22 50 63 125 90 165 27 41 78 103 114 139 36 36 96 88 133
    116 38 28 123 84 190 124 67 41 155 98 196 129 40 30 93 80 117 110 24 31 60
    85 79 121 20 38 48 74 67 87 64 42 165 83 254 102 49 11 194 31 322 45 128 15
    280 35 338 47 119 23 249 63 347 107 36 17 98 52 139 79 68 45 77 48 139 49
    55 1 80 7 141 36 41 20 151 81 243 137 92 56 188 113 214 125 25 13 57 26 71
    27 22 4 25 1 24 -28 -1 -17 -12 -52 -24 -76 -13 -25 -45 -67 -71 -93 -42 -41
    -49 -54 -49 -86 l0 -38 -53 6 c-50 6 -56 4 -89 -25 -19 -17 -47 -57 -62 -90
    -14 -32 -29 -79 -32 -105 -6 -44 -6 -46 18 -46 33 0 124 27 173 52 22 11 61
    40 86 63 25 23 66 52 91 63 26 11 54 32 63 46 9 14 35 78 57 143 21 65 57 150
    79 189 31 56 39 82 39 121 0 36 -7 60 -23 84 -14 21 -37 39 -62 47 -35 11 -51
    9 -179 -22 -78 -20 -161 -38 -184 -42 l-44 -7 23 44 c20 39 24 63 29 214 5
    124 11 183 24 219 10 28 25 61 34 75 27 45 76 92 114 112 21 10 46 19 58 19
    16 0 20 -6 20 -33 0 -37 40 -125 69 -151 10 -9 45 -31 78 -49 39 -21 86 -60
    133 -110 70 -75 74 -81 71 -123 -1 -35 3 -49 23 -69 26 -26 72 -42 84 -30 4 4
    -2 12 -12 19 -11 6 -31 21 -44 34 -18 18 -22 29 -17 52 4 16 1 39 -6 52 -7 13
    -41 55 -76 94 -41 45 -83 81 -117 98 -29 15 -68 41 -86 59 -18 18 -39 46 -46
    64 -8 18 -14 49 -14 70 0 21 9 58 20 82 11 24 18 46 15 49 -7 8 -35 -19 -50
    -48 -11 -21 -21 -26 -55 -27 -24 -1 -60 -13 -85 -27 -23 -14 -55 -40 -69 -57
    -70 -83 -112 -225 -102 -341 3 -38 2 -68 -3 -68 -5 0 -11 6 -14 14 -3 7 -25
    23 -49 35 -33 16 -62 21 -114 20 -70 -1 -135 -17 -141 -35 -2 -7 20 -8 64 -2
    38 5 86 6 108 2 22 -4 52 -12 67 -20 14 -7 36 -26 47 -40 37 -46 24 -139 -27
    -196 -8 -10 -25 -18 -38 -18 -39 0 -134 -40 -170 -73 -35 -30 -64 -75 -64 -98
    0 -7 25 11 55 40 30 29 70 58 88 66 18 7 73 21 123 30 49 9 164 34 255 56 178
    42 195 42 234 -1 32 -35 25 -92 -23 -180 -22 -41 -57 -124 -78 -185 -20 -60
    -46 -121 -58 -133 -12 -13 -35 -30 -52 -37 -17 -7 -56 -35 -87 -63 -50 -46
    -113 -77 -191 -96 -21 -5 -27 -4 -24 6 3 7 13 37 22 66 19 55 78 128 96 117 5
    -3 28 -7 51 -7 38 0 40 -2 35 -24 -4 -13 -2 -24 3 -24 6 0 15 10 22 21 7 13 8
    39 4 67 -6 44 -5 46 44 96 51 52 96 130 107 185 5 23 2 37 -11 51 -10 11 -31
    20 -48 20 -16 0 -61 -16 -99 -35 -38 -20 -135 -76 -217 -125 -81 -49 -183
    -106 -226 -126 -95 -46 -152 -50 -191 -13 -15 13 -41 56 -59 94 -18 39 -45 82
    -61 97 -31 28 -83 52 -93 43 -3 -4 14 -23 38 -43 32 -26 54 -57 78 -112 19
    -41 42 -83 51 -93 10 -11 12 -21 6 -25 -5 -4 -31 -22 -58 -40 -64 -46 -195
    -105 -297 -136 -46 -13 -131 -34 -189 -45 -58 -11 -206 -32 -330 -46 -124 -15
    -258 -33 -299 -41 -86 -18 -188 -55 -239 -86 l-34 -21 7 24 c4 13 25 62 46
    108 21 46 39 90 39 97 0 8 -4 14 -9 14 -17 0 -70 -95 -126 -225 -31 -71 -72
    -155 -92 -185 -67 -101 -151 -170 -363 -298 -47 -28 -116 -74 -155 -102 -38
    -27 -105 -85 -148 -128 -43 -42 -98 -106 -122 -142 -24 -37 -69 -120 -100
    -185 -31 -66 -66 -130 -77 -143 -12 -12 -41 -33 -64 -47 -22 -13 -55 -40 -72
    -59 -23 -27 -32 -31 -36 -20 -3 9 -6 32 -6 51 0 22 7 41 17 48 12 9 16 24 15
    47 -2 30 6 43 66 104 46 47 79 93 104 144 20 41 49 118 63 170 14 52 34 115
    43 139 14 36 28 51 82 83 36 22 84 58 107 80 23 22 54 68 68 101 25 55 27 66
    21 156 -3 53 -9 142 -12 199 -4 66 -2 125 6 165 6 34 25 90 41 125 16 35 48
    92 73 126 24 34 64 80 90 104 66 61 171 126 257 160 87 35 179 56 304 72 154
    20 343 60 454 96 58 19 147 54 196 78 50 25 128 70 174 101 46 31 123 90 172
    131 48 41 152 143 230 227 210 224 346 355 437 420 84 61 245 147 275 147 9 0
    17 5 17 11 0 8 -13 9 -39 5 -23 -3 -52 -1 -68 6 -27 11 -24 12 47 24 41 7 120
    13 175 13 73 1 96 4 88 12 -18 18 -184 23 -270 9 -43 -6 -147 -34 -230 -61
    -84 -27 -163 -49 -175 -49 -15 0 -3 12 43 40 105 66 200 109 279 126 54 11
    101 14 166 10 50 -3 126 -15 169 -27 42 -11 106 -33 141 -49 54 -24 65 -26 81
    -15 16 12 11 17 -52 45 -38 18 -110 42 -160 55 -49 13 -128 25 -175 28 -47 3
    -113 2 -148 -3z m-2580 -1695 c-35 -8 -87 -25 -116 -38 -77 -35 -160 -91 -218
    -145 -28 -26 -70 -75 -94 -108 -24 -34 -55 -86 -68 -116 -13 -29 -38 -104 -55
    -167 -17 -62 -48 -145 -68 -184 -45 -91 -135 -180 -223 -224 -36 -17 -114 -45
    -174 -62 -60 -17 -134 -42 -163 -57 -30 -14 -72 -43 -94 -64 l-40 -38 6 32
    c14 62 67 154 123 210 42 42 87 72 165 112 59 30 122 64 138 77 17 12 47 44
    66 70 19 26 57 100 84 164 26 63 63 140 81 170 53 88 125 168 201 227 40 30
    103 69 142 87 38 18 101 41 140 50 38 10 106 18 150 17 l80 0 -63 -13z m-628
    -1702 c18 -102 19 -100 -16 -126 -41 -31 -112 -67 -132 -67 -11 0 -13 8 -9 38
    10 64 43 141 70 162 14 11 38 20 54 20 22 0 28 -5 33 -27z M4945 3823 c-57
    -30 -108 -77 -142 -131 -19 -29 -51 -63 -71 -75 -29 -17 -33 -23 -19 -25 36
    -7 78 21 117 79 22 31 56 71 77 88 20 17 38 29 39 28 2 -1 -2 -23 -7 -47 -6
    -25 -21 -62 -34 -82 -14 -20 -21 -39 -16 -42 12 -8 61 39 61 58 0 8 25 28 55
    45 53 28 56 29 49 8 -4 -12 -18 -39 -32 -59 -20 -31 -28 -36 -39 -27 -7 7 -16
    9 -19 6 -3 -3 30 -73 74 -155 62 -114 86 -171 102 -238 11 -49 41 -158 65
    -242 25 -84 45 -172 45 -196 0 -28 -8 -55 -23 -77 -12 -19 -30 -35 -39 -37
    -21 -4 -31 39 -17 74 7 21 12 25 18 15 5 -8 14 -10 20 -7 6 4 11 18 11 32 0
    17 -5 24 -20 24 -11 0 -29 -9 -39 -19 -11 -11 -23 -35 -26 -53 -4 -18 -2 -46
    4 -61 9 -24 8 -27 -10 -27 -31 0 -17 -24 15 -28 40 -5 99 38 125 90 11 25 21
    58 21 75 0 16 -25 117 -55 223 -30 107 -60 219 -66 249 -7 34 -39 109 -83 190
    l-72 135 24 23 c24 24 65 108 76 156 4 17 2 27 -5 27 -6 0 -28 -13 -48 -29
    -35 -27 -74 -51 -85 -51 -2 0 0 15 5 32 11 40 12 68 2 68 -5 -1 -21 -8 -38
    -17z M4920 3365 c0 -19 69 -65 97 -65 12 0 28 -7 37 -15 8 -8 17 -15 20 -15 3
    0 6 11 6 23 0 13 -8 31 -18 40 -10 10 -34 17 -53 17 -19 0 -46 7 -61 14 -24
    13 -28 13 -28 1z M3550 3163 c-25 -9 -61 -26 -80 -38 -19 -13 -64 -49 -100
    -80 -36 -32 -83 -66 -105 -75 -22 -10 -67 -24 -100 -31 l-60 -12 34 -9 c40
    -11 114 3 172 33 23 11 76 53 119 93 43 40 99 83 124 95 25 13 46 27 46 32 0
    5 -1 9 -2 8 -2 0 -23 -8 -48 -16z M1441 1845 c-12 -31 -28 -90 -37 -133 -9
    -42 -25 -104 -36 -137 -11 -33 -35 -89 -54 -125 -19 -36 -57 -95 -84 -131 -27
    -37 -79 -94 -115 -127 -35 -34 -91 -79 -123 -101 -32 -21 -86 -51 -121 -66
    -34 -14 -101 -36 -149 -49 -47 -12 -80 -26 -74 -30 20 -12 159 13 235 42 40
    15 100 47 134 70 34 23 89 67 123 98 33 31 88 93 121 137 33 44 75 109 93 146
    19 36 43 96 54 132 11 36 28 114 37 175 10 60 21 119 26 132 5 13 5 22 -1 22
    -4 0 -18 -25 -29 -55z"/>
  </g>
</svg>
