<?xml version="1.0" encoding="UTF-8"?>
<svg xmlns="http://www.w3.org/2000/svg" viewBox="0 0 600 430" width="600" height="430">
  <title>Banded alpha spline reconstruction</title>
  <g fill="#f1ead8" fill-opacity="0.12500000" stroke="none" transform="translate(0,430) scale(0.100000,-0.100000)">
    <path d="M0 2150 l0 -2150 3000 0 3000 0 0 2150 0 2150 -3000 0 -3000 0 0
    -2150z m4523 1679 c56 -11 140 -36 187 -56 47 -20 87 -38 89 -40 3 -2 -3 -11
    -12 -20 -15 -15 -21 -14 -85 15 -105 49 -211 72 -332 74 -58 1 -130 -5 -160
    -12 -30 -7 -77 -23 -105 -35 -27 -12 -86 -45 -130 -74 -57 -38 -72 -51 -50
    -46 17 4 84 24 150 45 66 22 138 44 160 49 74 19 199 28 274 20 41 -4 78 -12
    83 -17 5 -5 -44 -12 -119 -15 -142 -7 -203 -15 -203 -28 0 -4 28 -10 63 -11
    l62 -4 -33 -13 c-82 -33 -193 -93 -262 -141 -48 -34 -185 -163 -385 -365 -199
    -201 -342 -336 -399 -378 -49 -36 -137 -91 -196 -121 -59 -31 -150 -71 -201
    -90 -112 -40 -281 -79 -439 -101 -170 -23 -266 -44 -352 -77 -42 -16 -111 -51
    -151 -78 -41 -26 -99 -73 -129 -103 -30 -30 -76 -88 -101 -128 -25 -41 -55
    -103 -67 -139 -31 -91 -36 -210 -15 -344 10 -66 14 -128 10 -155 -3 -25 -17
    -68 -29 -96 -13 -27 -45 -72 -72 -99 -27 -26 -75 -61 -106 -77 -32 -16 -62
    -37 -67 -48 -6 -10 -24 -70 -41 -132 -17 -62 -49 -151 -70 -197 -29 -60 -57
    -102 -105 -151 -56 -58 -65 -73 -65 -104 0 -26 -6 -41 -20 -49 -20 -13 -25
    -43 -14 -86 6 -22 8 -21 54 20 26 24 66 55 88 70 30 20 48 44 72 95 86 183
    116 237 178 314 101 126 158 170 497 388 79 51 141 100 183 145 61 66 82 102
    196 351 44 95 84 151 98 137 6 -6 -9 -50 -41 -120 -28 -61 -51 -113 -51 -115
    0 -1 35 14 77 35 43 20 116 46 163 57 47 11 146 27 220 36 285 33 388 48 478
    66 52 10 134 32 183 49 99 33 187 74 271 128 l56 36 -18 26 c-10 14 -30 54
    -44 89 -14 36 -36 76 -49 89 -12 13 -35 31 -51 39 -20 10 -25 18 -18 25 6 6
    22 8 35 4 14 -3 39 -17 56 -31 16 -14 48 -63 69 -109 22 -46 51 -91 63 -100
    13 -9 41 -16 61 -16 21 0 64 10 96 23 31 13 140 73 242 134 102 61 209 123
    239 138 66 33 118 37 137 10 8 -10 14 -30 14 -44 0 -45 -55 -145 -110 -200
    -42 -42 -51 -57 -46 -76 3 -13 8 -29 11 -37 3 -7 -5 -29 -17 -48 l-22 -35 -6
    30 c-5 28 -8 30 -56 33 -46 3 -54 1 -72 -23 -20 -26 -62 -124 -62 -146 0 -17
    66 -1 129 31 31 15 70 42 86 60 17 18 51 43 77 56 26 13 54 34 62 47 8 12 28
    65 45 117 17 52 51 135 76 183 54 105 59 154 20 192 -16 17 -35 25 -57 25 -18
    0 -89 -14 -158 -31 -69 -17 -180 -41 -246 -54 -67 -13 -137 -31 -155 -40 -17
    -10 -54 -38 -81 -62 -35 -34 -48 -41 -48 -28 0 31 39 83 85 113 24 16 66 35
    92 42 26 6 59 15 73 19 30 9 69 82 70 131 0 53 -31 95 -84 115 -36 14 -65 17
    -136 13 -50 -3 -93 -2 -95 2 -3 5 16 16 42 26 62 24 166 24 213 0 19 -10 44
    -27 55 -37 20 -18 20 -17 17 59 -4 87 16 189 48 253 12 22 38 58 58 81 39 43
    120 88 161 88 16 0 36 14 58 40 19 22 39 38 44 35 5 -4 0 -23 -10 -44 -11 -20
    -22 -53 -26 -73 -4 -21 -2 -52 5 -73 7 -20 26 -52 43 -72 17 -19 55 -47 86
    -63 52 -27 104 -73 179 -163 27 -31 32 -46 32 -88 0 -46 2 -51 35 -70 19 -12
    35 -28 35 -36 0 -10 -6 -13 -16 -9 -9 3 -19 6 -24 6 -5 0 -22 12 -39 26 -27
    22 -31 32 -31 76 0 49 -2 52 -72 125 -45 46 -95 86 -129 103 -31 16 -71 45
    -89 66 -18 21 -39 52 -46 70 -8 19 -14 50 -14 69 0 36 -1 36 -32 30 -18 -4
    -51 -19 -73 -34 -22 -14 -55 -48 -72 -75 -53 -78 -65 -133 -68 -301 -2 -108
    -7 -162 -19 -194 -9 -24 -22 -51 -28 -58 -10 -12 -6 -14 28 -8 21 4 101 22
    176 41 75 19 148 34 161 34 13 0 39 -10 58 -23 19 -12 42 -38 51 -57 10 -19
    18 -49 18 -67 0 -18 -20 -68 -47 -120 -25 -48 -63 -139 -84 -201 -20 -62 -45
    -122 -55 -134 -11 -11 -37 -29 -59 -40 -22 -11 -58 -37 -80 -58 -42 -41 -134
    -91 -200 -109 -22 -6 -53 -11 -69 -11 -28 0 -29 0 -23 48 10 86 72 197 122
    218 24 10 42 11 66 4 19 -6 35 -10 36 -10 2 0 3 11 3 25 0 15 6 38 14 53 8 15
    30 39 48 53 36 28 82 105 93 157 6 28 4 32 -15 32 -13 0 -50 -14 -84 -31 -33
    -17 -139 -78 -234 -136 -96 -58 -199 -117 -230 -131 -42 -19 -76 -26 -127 -27
    -63 -2 -76 -5 -120 -37 -71 -51 -195 -111 -302 -147 -51 -17 -137 -40 -190
    -51 -54 -11 -183 -29 -288 -40 -104 -11 -245 -29 -312 -40 -127 -20 -238 -57
    -311 -104 -24 -15 -51 -41 -60 -58 -50 -91 -115 -179 -169 -228 -34 -30 -101
    -80 -150 -110 -218 -134 -314 -202 -391 -275 -46 -43 -104 -107 -128 -141 -25
    -34 -73 -123 -108 -196 -45 -95 -74 -143 -100 -166 -20 -17 -49 -38 -64 -46
    -15 -8 -55 -44 -90 -80 -46 -47 -86 -77 -144 -106 -44 -22 -93 -40 -109 -40
    -27 0 -29 2 -29 43 0 53 20 129 49 185 12 23 36 52 54 62 20 13 50 20 80 20
    43 0 47 2 47 24 0 14 5 37 10 52 6 15 36 52 68 83 32 31 72 83 89 116 28 55
    56 137 97 286 9 31 25 68 36 82 12 15 48 41 81 58 33 18 80 55 105 82 30 33
    49 68 61 106 15 52 15 65 -2 203 -12 97 -16 169 -11 214 8 82 48 204 83 258
    l25 39 -29 -6 c-61 -12 -147 -51 -218 -98 -41 -28 -99 -77 -129 -111 -30 -33
    -73 -95 -95 -137 -21 -42 -56 -132 -76 -201 -20 -69 -51 -154 -68 -190 -21
    -42 -57 -91 -102 -136 -48 -49 -92 -83 -142 -107 -39 -20 -119 -50 -177 -66
    -57 -16 -129 -40 -159 -54 -30 -14 -73 -41 -95 -62 -23 -20 -54 -56 -69 -81
    -15 -24 -32 -44 -37 -44 -13 0 0 135 18 195 25 82 87 175 152 228 32 26 105
    71 162 99 78 39 114 64 151 104 34 37 58 78 81 136 55 139 116 249 183 328 34
    41 94 99 132 127 38 29 103 69 143 88 40 20 108 45 150 56 53 14 110 20 181
    20 l105 0 58 57 c32 31 96 80 142 108 46 28 126 65 179 82 53 18 158 41 234
    53 219 32 391 68 487 100 49 16 131 50 182 74 51 25 130 70 176 101 46 31 121
    89 167 128 47 39 171 163 277 276 105 113 229 237 274 275 82 70 219 164 272
    186 15 6 28 15 28 20 0 19 -68 7 -145 -24 -44 -18 -118 -55 -165 -84 -121 -72
    -201 -111 -267 -128 -31 -8 -87 -15 -123 -16 l-65 -1 45 -15 c62 -20 177 -28
    223 -15 49 14 49 -4 1 -24 -21 -9 -89 -29 -152 -45 -64 -16 -134 -40 -157 -54
    -23 -13 -62 -40 -85 -60 -24 -20 -61 -45 -83 -57 -22 -11 -64 -22 -93 -25 -38
    -4 -67 -1 -99 11 -25 10 -45 21 -45 25 0 5 39 8 88 7 100 -1 119 6 220 87 61
    48 158 96 195 97 9 0 17 5 17 10 0 6 -6 10 -13 10 -8 0 -42 12 -78 26 -70 29
    -153 85 -163 111 -4 9 -5 18 -3 20 2 2 33 -10 68 -27 38 -17 90 -33 126 -36
    37 -4 88 -2 125 6 68 13 174 58 253 108 l50 32 -56 0 c-30 0 -78 7 -105 15
    -28 8 -62 28 -79 45 -16 16 -24 30 -18 30 6 0 30 -7 53 -15 23 -8 62 -15 86
    -15 24 0 56 6 71 12 15 7 57 32 93 57 36 24 90 55 120 69 30 13 84 30 120 37
    36 7 98 14 138 14 41 1 120 -8 175 -20z m473 -14 c-3 -14 -9 -37 -12 -51 l-7
    -26 29 18 c16 10 45 31 65 46 20 15 40 28 43 28 12 0 6 -40 -14 -92 -11 -28
    -33 -68 -50 -89 l-30 -38 70 -131 c49 -92 75 -151 85 -201 8 -38 35 -141 60
    -227 25 -86 49 -176 52 -199 9 -70 -4 -110 -52 -159 -35 -35 -52 -44 -79 -44
    -18 0 -39 7 -46 15 -10 12 -9 15 7 15 16 0 19 8 18 61 0 55 3 63 29 85 15 14
    33 23 40 21 15 -5 20 -47 6 -61 -8 -8 -13 -7 -19 2 -7 11 -10 10 -15 -3 -9
    -24 -7 -85 2 -85 11 0 46 39 61 67 6 12 11 35 11 51 0 16 -22 105 -49 198 -28
    93 -57 203 -67 244 -12 53 -40 119 -95 224 -44 81 -79 153 -79 158 0 6 9 8 21
    5 16 -4 27 4 50 41 16 25 28 47 26 48 -2 2 -24 -7 -49 -19 -30 -14 -51 -32
    -59 -50 -12 -28 -55 -64 -64 -55 -3 3 6 25 19 49 14 24 28 61 32 83 l7 39 -31
    -23 c-17 -13 -50 -50 -73 -82 -22 -32 -50 -65 -62 -73 -28 -17 -69 -23 -74
    -10 -1 6 11 16 28 24 18 8 45 35 64 65 18 28 48 65 67 83 42 39 98 73 122 73
    14 0 17 -5 12 -25z m-11 -457 c82 -20 88 -23 98 -51 5 -16 7 -31 3 -34 -3 -3
    -21 2 -40 11 -19 9 -40 16 -48 16 -7 0 -30 14 -51 31 -39 32 -50 57 -19 44 9
    -4 35 -12 57 -17z m-1375 -185 c0 -5 -25 -21 -54 -36 -30 -16 -93 -64 -141
    -107 -61 -56 -102 -85 -142 -100 -37 -14 -74 -20 -106 -18 -28 2 -52 8 -54 14
    -2 7 17 14 47 17 29 4 75 17 103 30 29 13 84 52 122 87 39 34 84 69 100 78 28
    14 100 40 118 41 4 1 7 -2 7 -6z m-2138 -1305 c-6 -18 -18 -80 -27 -138 -8
    -57 -29 -142 -44 -188 -16 -46 -51 -120 -78 -164 -26 -44 -86 -121 -132 -170
    -85 -90 -170 -157 -251 -198 -24 -12 -69 -31 -100 -42 -67 -23 -194 -35 -204
    -20 -4 6 15 15 50 22 74 16 177 51 240 83 29 15 85 53 125 85 77 62 153 144
    208 225 52 77 107 204 130 302 12 50 28 115 37 145 17 57 42 105 51 97 3 -3 0
    -21 -5 -39z M1526 2143 c-39 -8 -96 -25 -128 -38 -32 -13 -90 -44 -128 -70
    -38 -25 -99 -79 -137 -119 -37 -40 -83 -99 -102 -130 -18 -31 -56 -109 -84
    -174 -27 -64 -63 -136 -78 -159 -16 -23 -48 -57 -72 -76 -23 -20 -87 -57 -142
    -83 -77 -36 -114 -61 -161 -108 -62 -62 -103 -129 -122 -199 l-11 -38 39 35
    c22 19 61 46 88 60 27 14 105 41 172 61 67 20 143 47 169 59 25 13 65 39 88
    58 24 18 62 58 84 88 23 30 52 78 64 105 13 28 37 101 54 164 17 62 50 149 73
    194 32 65 60 101 132 173 79 79 105 98 196 143 58 28 125 55 150 60 l45 9 -60
    0 c-33 0 -91 -6 -129 -15z M1015 462 c-57 -9 -64 -14 -89 -65 -14 -28 -29 -74
    -32 -100 l-7 -48 39 16 c47 19 122 62 126 73 2 4 -1 34 -7 67 -9 52 -13 60
    -30 57z"/>
  </g>
  <g fill="#f1ead8" fill-opacity="0.37500000" stroke="none" transform="translate(0,430) scale(0.100000,-0.100000)">
    <path d="M4303 3803 c4 -3 10 -3 14 0 3 4 0 7 -7 7 -7 0 -10 -3 -7 -7z M4368
    3803 c6 -2 18 -2 25 0 6 3 1 5 -13 5 -14 0 -19 -2 -12 -5z M4428 3753 c7 -3
    16 -2 19 1 4 3 -2 6 -13 5 -11 0 -14 -3 -6 -6z M4393 3713 c4 -3 10 -3 14 0 3
    4 0 7 -7 7 -7 0 -10 -3 -7 -7z M4260 3690 c0 -7 3 -10 7 -7 3 4 3 10 0 14 -4
    3 -7 0 -7 -7z M3915 3640 c3 -5 8 -10 11 -10 3 0 2 5 -1 10 -3 6 -8 10 -11 10
    -3 0 -2 -4 1 -10z M4986 3638 c3 -5 10 -6 15 -3 5 4 9 7 9 9 0 1 -7 3 -15 3
    -8 0 -12 -4 -9 -9z M3310 3486 c0 -2 8 -10 18 -17 15 -13 16 -12 3 4 -13 16
    -21 21 -21 13z M3885 3338 l-50 -53 53 50 c48 46 57 55 49 55 -1 0 -25 -24
    -52 -52z M3560 3350 c0 -7 3 -10 7 -7 3 4 3 10 0 14 -4 3 -7 0 -7 -7z M3764
    3278 c-4 -7 -3 -8 4 -4 7 4 12 9 12 12 0 8 -9 4 -16 -8z M4634 3268 c-4 -7 -3
    -8 4 -4 7 4 12 9 12 12 0 8 -9 4 -16 -8z M3704 3148 c-4 -7 -3 -8 4 -4 7 4 12
    9 12 12 0 8 -9 4 -16 -8z M3629 3133 c-13 -16 -12 -17 4 -4 9 7 17 15 17 17 0
    8 -8 3 -21 -13z M3424 2868 c-4 -7 -3 -8 4 -4 7 4 12 9 12 12 0 8 -9 4 -16 -8z
    M4143 2843 c4 -3 10 -3 14 0 3 4 0 7 -7 7 -7 0 -10 -3 -7 -7z M4178 2843 c7
    -3 16 -2 19 1 4 3 -2 6 -13 5 -11 0 -14 -3 -6 -6z M4043 2793 c4 -3 10 -3 14
    0 3 4 0 7 -7 7 -7 0 -10 -3 -7 -7z M4383 2750 c0 -25 2 -35 4 -22 2 12 2 32 0
    45 -2 12 -4 2 -4 -23z M5204 2718 c-4 -7 -3 -8 4 -4 7 4 12 9 12 12 0 8 -9 4
    -16 -8z M4049 2443 c-13 -16 -12 -17 4 -4 16 13 21 21 13 21 -2 0 -10 -8 -17
    -17z M4573 2433 c4 -3 10 -3 14 0 3 4 0 7 -7 7 -7 0 -10 -3 -7 -7z M1653 2203
    c4 -3 10 -3 14 0 3 4 0 7 -7 7 -7 0 -10 -3 -7 -7z M4469 2173 c-13 -16 -12
    -17 4 -4 16 13 21 21 13 21 -2 0 -10 -8 -17 -17z M4363 2083 c4 -3 10 -3 14 0
    3 4 0 7 -7 7 -7 0 -10 -3 -7 -7z M1154 2008 c-4 -7 -3 -8 4 -4 7 4 12 9 12 12
    0 8 -9 4 -16 -8z M2450 1910 c0 -7 3 -10 7 -7 3 4 3 10 0 14 -4 3 -7 0 -7 -7z
    M2903 1823 c4 -3 10 -3 14 0 3 4 0 7 -7 7 -7 0 -10 -3 -7 -7z M2863 1773 c4
    -3 10 -3 14 0 3 4 0 7 -7 7 -7 0 -10 -3 -7 -7z M2324 1608 c-4 -7 -3 -8 4 -4
    12 7 16 16 8 16 -3 0 -8 -5 -12 -12z M1670 1520 c0 -7 3 -10 7 -7 3 4 3 10 0
    14 -4 3 -7 0 -7 -7z M784 1428 c-4 -7 -3 -8 4 -4 12 7 16 16 8 16 -3 0 -8 -5
    -12 -12z M974 1278 c-4 -7 -3 -8 4 -4 7 4 12 9 12 12 0 8 -9 4 -16 -8z M1174
    1258 c-4 -7 -3 -8 4 -4 7 4 12 9 12 12 0 8 -9 4 -16 -8z M1574 1248 c-4 -7 -3
    -8 4 -4 12 7 16 16 8 16 -3 0 -8 -5 -12 -12z M424 1188 c-4 -7 -3 -8 4 -4 12
    7 16 16 8 16 -3 0 -8 -5 -12 -12z M1589 1023 c-13 -16 -12 -17 4 -4 16 13 21
    21 13 21 -2 0 -10 -8 -17 -17z M1579 953 c-13 -16 -12 -17 4 -4 16 13 21 21
    13 21 -2 0 -10 -8 -17 -17z M723 943 c4 -3 10 -3 14 0 3 4 0 7 -7 7 -7 0 -10
    -3 -7 -7z M1504 938 c-4 -7 -3 -8 4 -4 12 7 16 16 8 16 -3 0 -8 -5 -12 -12z
    M1072 545 c0 -16 2 -22 5 -12 2 9 2 23 0 30 -3 6 -5 -1 -5 -18z M998 463 c6
    -2 18 -2 25 0 6 3 1 5 -13 5 -14 0 -19 -2 -12 -5z M1104 328 c-4 -7 -3 -8 4
    -4 7 4 12 9 12 12 0 8 -9 4 -16 -8z"/>
  </g>
  <g fill="#f1ead8" fill-opacity="0.62500000" stroke="none" transform="translate(0,430) scale(0.100000,-0.100000)">
    <path d="M4283 3843 c4 -3 10 -3 14 0 3 4 0 7 -7 7 -7 0 -10 -3 -7 -7z M4413
    3843 c4 -3 10 -3 14 0 3 4 0 7 -7 7 -7 0 -10 -3 -7 -7z M4283 3803 c4 -3 10
    -3 14 0 3 4 0 7 -7 7 -7 0 -10 -3 -7 -7z M4403 3803 c4 -3 10 -3 14 0 3 4 0 7
    -7 7 -7 0 -10 -3 -7 -7z M4585 3730 c3 -5 8 -10 11 -10 3 0 2 5 -1 10 -3 6 -8
    10 -11 10 -3 0 -2 -4 1 -10z M4308 3673 c7 -3 16 -2 19 1 4 3 -2 6 -13 5 -11
    0 -14 -3 -6 -6z M3920 3600 c0 -7 3 -10 7 -7 3 4 3 10 0 14 -4 3 -7 0 -7 -7z
    M3475 3410 c3 -5 8 -10 11 -10 3 0 2 5 -1 10 -3 6 -8 10 -11 10 -3 0 -2 -4 1
    -10z M4705 3340 c3 -5 8 -10 11 -10 3 0 2 5 -1 10 -3 6 -8 10 -11 10 -3 0 -2
    -4 1 -10z M3814 3268 l-19 -23 23 19 c21 18 27 26 19 26 -2 0 -12 -10 -23 -22z
    M3654 3158 c-4 -7 -3 -8 4 -4 7 4 12 9 12 12 0 8 -9 4 -16 -8z M4830 2966 c0
    -2 8 -10 18 -17 15 -13 16 -12 3 4 -13 16 -21 21 -21 13z M3123 2933 c4 -3 10
    -3 14 0 3 4 0 7 -7 7 -7 0 -10 -3 -7 -7z M3203 2913 c4 -3 10 -3 14 0 3 4 0 7
    -7 7 -7 0 -10 -3 -7 -7z M4935 2910 c3 -5 8 -10 11 -10 3 0 2 5 -1 10 -3 6 -8
    10 -11 10 -3 0 -2 -4 1 -10z M4143 2803 c9 -2 23 -2 30 0 6 3 -1 5 -18 5 -16
    0 -22 -2 -12 -5z M4340 2800 c0 -7 3 -10 7 -7 3 4 3 10 0 14 -4 3 -7 0 -7 -7z
    M5010 2750 c0 -7 3 -10 7 -7 3 4 3 10 0 14 -4 3 -7 0 -7 -7z M5160 2740 c0 -7
    3 -10 7 -7 3 4 3 10 0 14 -4 3 -7 0 -7 -7z M4683 2583 c4 -3 10 -3 14 0 3 4 0
    7 -7 7 -7 0 -10 -3 -7 -7z M4780 2500 c0 -7 3 -10 7 -7 3 4 3 10 0 14 -4 3 -7
    0 -7 -7z M4822 2485 c0 -16 2 -22 5 -12 2 9 2 23 0 30 -3 6 -5 -1 -5 -18z
    M4615 2420 c3 -5 8 -10 11 -10 3 0 2 5 -1 10 -3 6 -8 10 -11 10 -3 0 -2 -4 1
    -10z M1563 2193 c4 -3 10 -3 14 0 3 4 0 7 -7 7 -7 0 -10 -3 -7 -7z M4441 2104
    c0 -11 3 -14 6 -6 3 7 2 16 -1 19 -3 4 -6 -2 -5 -13z M4450 2020 c0 -7 3 -10
    7 -7 3 4 3 10 0 14 -4 3 -7 0 -7 -7z M1139 1933 l-24 -28 28 24 c25 23 32 31
    24 31 -2 0 -14 -12 -28 -27z M4494 1928 l-29 -33 33 29 c30 28 37 36 29 36 -2
    0 -16 -15 -33 -32z M4250 1860 c0 -7 3 -10 7 -7 3 4 3 10 0 14 -4 3 -7 0 -7
    -7z M1600 1700 c0 -7 3 -10 7 -7 3 4 3 10 0 14 -4 3 -7 0 -7 -7z M1670 1500
    c0 -7 3 -10 7 -7 3 4 3 10 0 14 -4 3 -7 0 -7 -7z M1670 1460 c0 -7 3 -10 7 -7
    3 4 3 10 0 14 -4 3 -7 0 -7 -7z M2139 1413 c-13 -16 -12 -17 4 -4 9 7 17 15
    17 17 0 8 -8 3 -21 -13z M449 1213 c-13 -16 -12 -17 4 -4 9 7 17 15 17 17 0 8
    -8 3 -21 -13z M1604 978 c-4 -7 -3 -8 4 -4 12 7 16 16 8 16 -3 0 -8 -5 -12
    -12z M1524 958 c-4 -7 -3 -8 4 -4 12 7 16 16 8 16 -3 0 -8 -5 -12 -12z M635
    950 c3 -5 8 -10 11 -10 3 0 2 5 -1 10 -3 6 -8 10 -11 10 -3 0 -2 -4 1 -10z
    M1554 928 c-4 -7 -3 -8 4 -4 12 7 16 16 8 16 -3 0 -8 -5 -12 -12z M1104 628
    c-4 -7 -3 -8 4 -4 7 4 12 9 12 12 0 8 -9 4 -16 -8z M1134 598 c-4 -7 -3 -8 4
    -4 7 4 12 9 12 12 0 8 -9 4 -16 -8z M1110 540 c0 -7 3 -10 7 -7 3 4 3 10 0 14
    -4 3 -7 0 -7 -7z M1013 503 c4 -3 10 -3 14 0 3 4 0 7 -7 7 -7 0 -10 -3 -7 -7z"/>
  </g>
  <g fill="#f1ead8" fill-opacity="0.87500000" stroke="none" transform="translate(0,430) scale(0.100000,-0.100000)">
    <path d="M4245 3840 c-32 -6 -75 -15 -95 -21 -53 -18 -129 -57 -184 -96 -27
    -20 -65 -42 -85 -50 -19 -8 -56 -15 -82 -15 -26 1 -64 8 -84 16 -21 9 -43 16
    -49 16 -6 0 4 -14 21 -30 18 -16 58 -37 89 -46 35 -10 77 -15 110 -12 30 3 54
    4 54 3 0 -2 -40 -26 -89 -54 -49 -28 -116 -61 -148 -72 -32 -11 -92 -23 -133
    -26 -56 -4 -92 -1 -135 11 -33 10 -75 26 -94 37 -18 11 -36 17 -39 14 -3 -3
    10 -22 29 -41 36 -39 151 -100 206 -110 18 -3 33 -10 33 -14 0 -4 -16 -11 -35
    -14 -61 -12 -118 -41 -190 -100 -39 -30 -92 -63 -119 -72 -36 -12 -67 -15
    -120 -10 -65 5 -69 4 -51 -9 30 -24 95 -38 140 -31 22 4 58 16 80 26 22 11 62
    38 90 61 27 22 71 52 96 65 26 13 96 35 156 50 59 15 120 33 136 40 15 8 27
    16 27 18 0 2 -33 1 -74 -2 -49 -3 -99 1 -150 12 -41 10 -77 20 -80 24 -2 4 35
    7 83 7 62 1 104 7 152 23 36 12 104 45 150 72 46 28 130 73 187 102 75 37 118
    53 158 56 29 2 54 0 54 -5 0 -5 -33 -25 -73 -45 -40 -20 -111 -64 -157 -99
    -47 -35 -146 -127 -220 -204 -283 -292 -428 -433 -515 -497 -98 -73 -237 -150
    -355 -196 -83 -33 -240 -75 -340 -91 -36 -6 -128 -20 -205 -32 -77 -11 -176
    -32 -220 -46 -89 -28 -177 -70 -245 -116 -25 -17 -70 -54 -100 -83 l-55 -51
    -120 -6 c-130 -6 -230 -29 -318 -74 -83 -41 -165 -101 -228 -165 -32 -32 -79
    -90 -104 -128 -26 -39 -62 -107 -81 -152 -68 -161 -89 -202 -131 -244 -27 -28
    -80 -63 -154 -99 -78 -40 -130 -74 -171 -112 -32 -31 -69 -76 -84 -100 -14
    -24 -34 -70 -45 -101 -23 -68 -37 -202 -21 -202 6 0 14 9 17 20 4 11 31 47 61
    80 34 36 76 69 108 84 30 14 102 39 162 57 60 17 142 47 183 66 52 25 93 55
    141 102 47 47 78 90 103 142 20 41 51 124 68 184 17 61 49 148 71 195 33 68
    57 101 127 170 71 72 103 95 181 134 52 26 112 49 133 53 l37 6 -25 -44 c-33
    -58 -71 -179 -80 -254 -4 -39 0 -108 10 -190 10 -72 15 -153 12 -181 -3 -29
    -13 -67 -22 -85 -27 -53 -94 -117 -163 -156 -35 -19 -69 -45 -77 -57 -8 -12
    -26 -64 -39 -116 -14 -52 -31 -113 -39 -136 -31 -87 -81 -169 -143 -235 -54
    -57 -64 -74 -64 -103 0 -26 -6 -38 -21 -46 -11 -7 -32 -9 -45 -6 -39 10 -91
    -21 -120 -70 -28 -48 -61 -190 -51 -218 6 -14 14 -17 38 -12 17 3 60 20 96 37
    41 20 96 60 153 112 49 45 108 96 131 112 24 17 52 50 65 75 13 25 46 92 73
    150 31 64 76 137 115 186 36 45 103 112 150 150 46 38 153 111 238 163 84 52
    181 116 216 143 34 28 82 75 106 107 24 31 57 83 74 116 24 48 40 66 84 92 29
    18 80 43 114 57 33 14 98 32 145 40 46 9 186 27 312 41 125 14 273 35 328 46
    124 25 285 77 370 119 35 18 91 51 124 74 55 38 65 41 125 41 56 0 78 6 150
    41 47 23 156 84 243 137 86 53 179 108 205 121 26 13 58 26 72 27 22 4 25 1
    24 -27 -1 -17 -10 -48 -20 -69 -9 -21 -42 -64 -71 -95 -44 -48 -53 -64 -53
    -94 l0 -36 -56 6 c-53 7 -57 5 -89 -26 -18 -18 -45 -58 -59 -90 -14 -32 -29
    -78 -32 -104 -6 -44 -6 -46 18 -46 34 0 125 28 178 55 25 13 59 37 75 55 17
    18 56 45 87 61 32 16 65 40 74 54 8 13 33 76 55 140 21 64 57 149 79 189 31
    57 40 83 40 122 0 31 -7 61 -20 82 -12 19 -37 40 -57 49 -36 14 -44 13 -208
    -26 -95 -23 -179 -41 -189 -41 -15 0 -14 5 6 43 19 37 23 64 29 212 4 113 12
    184 22 211 26 70 54 118 89 151 33 32 94 63 123 63 10 0 15 -10 15 -32 0 -18
    11 -56 24 -84 25 -54 78 -102 143 -131 22 -10 72 -53 113 -96 72 -76 73 -79
    71 -126 -2 -43 2 -51 29 -75 17 -14 42 -26 56 -26 13 0 24 4 24 10 0 5 -13 16
    -30 25 -16 8 -33 22 -38 32 -5 9 -7 32 -5 52 5 33 -1 43 -72 123 -53 61 -92
    95 -128 113 -29 15 -67 41 -86 58 -18 18 -40 46 -47 64 -8 18 -14 49 -14 70 0
    21 9 58 20 82 11 24 18 46 16 48 -8 8 -27 -8 -46 -39 -15 -25 -26 -31 -61 -34
    -24 -3 -62 -15 -85 -29 -23 -14 -54 -39 -69 -57 -43 -50 -82 -142 -95 -221 -7
    -39 -10 -97 -6 -129 l6 -57 -46 32 c-40 28 -55 32 -122 35 -48 2 -92 -2 -116
    -11 -64 -22 -54 -34 21 -25 88 9 166 -6 204 -40 22 -19 32 -39 36 -70 4 -28 0
    -57 -11 -86 -9 -24 -24 -50 -34 -58 -9 -9 -37 -18 -60 -22 -80 -12 -167 -68
    -198 -128 -26 -50 -14 -52 34 -6 26 25 65 55 87 66 23 11 83 28 135 37 52 10
    166 34 253 55 106 26 166 36 185 31 29 -8 72 -62 72 -91 0 -9 -22 -61 -48
    -116 -27 -54 -63 -143 -81 -196 -18 -53 -41 -109 -53 -123 -11 -14 -35 -32
    -53 -39 -18 -8 -57 -36 -88 -64 -32 -29 -77 -58 -108 -69 -59 -22 -109 -35
    -109 -30 0 2 9 30 20 62 11 32 32 73 46 92 24 32 28 33 85 31 57 -2 60 -3 54
    -25 -3 -13 -1 -23 4 -23 6 0 15 10 22 21 6 13 8 39 4 64 -6 42 -4 45 54 110
    38 42 67 86 80 121 12 30 21 63 21 73 0 10 -8 25 -18 34 -10 10 -33 17 -50 17
    -17 0 -64 -17 -104 -38 -40 -22 -134 -76 -208 -122 -74 -46 -171 -100 -214
    -122 -61 -29 -92 -38 -131 -38 -43 0 -55 4 -77 27 -14 16 -39 57 -56 93 -16
    36 -41 77 -56 91 -14 15 -40 32 -57 39 -21 9 -33 10 -41 2 -7 -7 -2 -15 18
    -25 16 -8 39 -26 51 -39 12 -12 36 -54 53 -93 17 -38 39 -78 47 -88 15 -16 15
    -19 -3 -32 -48 -38 -158 -98 -238 -130 -98 -40 -243 -77 -386 -99 -52 -8 -183
    -25 -290 -37 -107 -11 -237 -32 -288 -45 -51 -13 -125 -38 -163 -57 -63 -30
    -69 -31 -63 -13 3 12 24 59 45 105 21 46 39 90 39 97 0 26 -20 14 -47 -28 -15
    -24 -53 -102 -84 -174 -31 -72 -73 -156 -92 -186 -19 -30 -61 -81 -93 -112
    -33 -32 -106 -87 -164 -123 -269 -168 -369 -243 -462 -350 -25 -28 -60 -72
    -78 -98 -17 -25 -60 -105 -95 -178 -34 -73 -73 -141 -86 -153 -13 -11 -40 -30
    -59 -42 -19 -11 -48 -34 -64 -51 -22 -23 -32 -28 -38 -19 -4 7 -8 28 -8 46 0
    19 8 40 21 53 13 13 18 27 14 39 -3 11 -1 28 4 39 6 10 37 45 69 78 70 69 119
    164 157 303 14 52 34 115 43 140 15 37 27 50 80 80 35 20 82 56 106 79 24 23
    53 62 65 86 12 25 26 67 30 94 4 27 3 79 -3 117 -5 38 -10 130 -10 204 0 121
    2 142 26 202 14 37 41 93 59 125 19 31 63 87 99 124 70 71 172 141 260 179 30
    12 83 31 118 41 34 10 145 30 245 44 100 15 232 40 292 55 61 15 157 46 215
    69 58 22 141 61 186 87 178 100 280 192 684 610 80 82 179 175 220 206 90 68
    196 129 268 154 28 10 52 23 52 28 0 5 -15 6 -33 3 -37 -6 -87 2 -87 13 0 12
    143 30 242 30 72 0 89 3 80 12 -18 18 -193 23 -276 8 -39 -7 -140 -34 -223
    -61 -84 -27 -163 -49 -175 -49 -18 0 -13 6 24 28 25 15 70 42 100 60 29 17 77
    41 107 52 29 12 87 26 127 32 56 9 99 9 172 0 97 -11 226 -48 291 -83 25 -13
    39 -15 53 -8 10 5 18 12 18 15 0 12 -142 68 -227 90 -51 13 -132 25 -180 28
    -49 3 -115 1 -148 -4z m-2574 -1695 c-35 -8 -92 -28 -126 -44 -35 -16 -90 -47
    -123 -70 -88 -59 -185 -171 -231 -266 -22 -44 -54 -132 -72 -195 -17 -63 -47
    -146 -67 -185 -22 -41 -62 -95 -97 -130 -37 -36 -86 -73 -126 -92 -36 -18
    -117 -46 -179 -63 -63 -17 -136 -43 -162 -57 -27 -15 -66 -42 -89 -61 l-40
    -34 7 28 c15 63 59 139 117 200 50 54 78 74 174 121 76 37 130 71 162 102 48
    47 75 95 150 271 25 57 66 129 105 180 37 50 95 110 138 144 40 33 105 74 143
    92 39 19 104 43 145 53 45 12 107 20 155 20 l80 -1 -64 -13z m-623 -1737 c10
    -54 9 -64 -5 -80 -17 -19 -129 -78 -148 -78 -9 0 -10 13 -4 48 4 27 14 65 23
    85 21 52 59 87 94 87 27 0 29 -3 40 -62z M4925 3814 c-22 -15 -51 -36 -64 -48
    -13 -12 -39 -45 -58 -74 -19 -30 -51 -63 -71 -75 -33 -19 -34 -22 -15 -25 12
    -2 35 4 52 12 16 9 46 41 66 71 35 53 87 105 105 105 13 0 -16 -96 -40 -130
    -12 -17 -20 -34 -16 -37 3 -3 17 2 31 11 13 9 27 27 31 41 4 17 24 34 60 54
    30 16 54 26 54 23 0 -4 -14 -31 -31 -60 -25 -45 -33 -51 -45 -41 -8 6 -17 9
    -20 6 -4 -3 30 -74 74 -157 65 -121 86 -170 106 -253 13 -56 43 -165 65 -241
    23 -76 41 -157 41 -179 0 -22 -9 -54 -20 -72 -20 -32 -47 -51 -58 -40 -8 8 -5
    71 3 85 6 9 9 9 15 0 4 -7 13 -9 19 -6 16 10 14 53 -3 59 -23 9 -55 -21 -67
    -62 -8 -29 -9 -48 -1 -70 10 -28 9 -31 -9 -31 -31 0 -17 -24 15 -28 41 -5 99
    38 126 93 17 36 21 57 17 93 -3 26 -31 134 -61 240 -31 106 -56 203 -56 216 0
    13 -34 89 -75 169 l-76 146 30 42 c28 37 71 135 71 159 0 6 -4 10 -10 10 -5 0
    -35 -18 -66 -40 -32 -22 -61 -40 -65 -40 -5 0 -2 20 5 44 8 25 11 47 8 50 -10
    11 -28 6 -67 -20z M4920 3361 c13 -25 71 -61 98 -61 11 0 27 -7 36 -15 8 -8
    17 -15 20 -15 3 0 6 11 6 23 0 13 -8 31 -18 40 -10 10 -34 17 -53 17 -19 0
    -47 7 -63 15 -15 8 -30 15 -32 15 -3 0 0 -9 6 -19z M3541 3160 c-29 -11 -68
    -31 -87 -45 -19 -14 -59 -48 -90 -75 -30 -26 -74 -57 -97 -68 -23 -11 -69 -25
    -102 -32 -54 -11 -58 -14 -35 -22 14 -5 45 -6 70 -3 25 4 68 17 96 30 28 12
    88 57 134 98 45 42 102 86 126 97 24 12 44 26 44 31 0 5 -1 9 -2 9 -2 -1 -27
    -9 -57 -20z M1442 1853 c-11 -27 -28 -86 -37 -133 -10 -47 -30 -120 -45 -162
    -15 -43 -49 -114 -76 -159 -27 -44 -79 -114 -117 -154 -37 -41 -95 -95 -130
    -121 -34 -26 -98 -64 -142 -85 -44 -21 -119 -48 -167 -60 -48 -12 -85 -26 -82
    -31 9 -13 116 0 194 24 36 11 86 31 111 44 63 31 182 128 247 199 29 32 72 85
    94 118 22 33 58 97 79 142 27 57 45 117 59 196 12 63 27 140 34 172 7 31 9 57
    6 57 -4 0 -17 -21 -28 -47z"/>
  </g>
</svg>
