<?xml version="1.0" encoding="UTF-8"?>
<svg xmlns="http://www.w3.org/2000/svg" viewBox="0 0 980 190" width="980" height="190">
  <title>Banded alpha spline reconstruction</title>
  <g fill="#f1ead8" fill-opacity="0.12500000" stroke="none" transform="translate(0,190) scale(0.100000,-0.100000)">
    <path d="M0 950 l0 -950 3151 0 3151 0 22 27 c21 28 360 436 400 483 11 13
    -15 -9 -59 -49 -44 -41 -111 -96 -149 -122 -38 -27 -83 -51 -101 -55 -18 -3
    -42 -3 -54 1 -22 7 -47 68 -35 87 5 7 -3 5 -16 -5 -74 -53 -117 -77 -149 -83
    -45 -9 -83 12 -94 52 -5 19 -5 45 2 70 6 22 25 62 42 88 18 26 59 70 93 97 33
    27 89 63 122 79 73 36 142 40 167 12 10 -10 17 -26 17 -36 0 -12 9 -7 31 19
    27 30 37 35 75 35 24 0 44 -4 44 -9 0 -5 -7 -15 -16 -22 -26 -21 -180 -211
    -219 -269 -19 -29 -35 -58 -35 -66 0 -26 46 -14 106 27 89 63 219 176 315 275
    47 49 121 132 164 184 43 52 87 99 99 103 11 4 30 7 43 5 20 -3 9 -20 -98
    -158 -67 -85 -133 -168 -148 -184 -32 -35 -11 -25 49 25 25 20 69 49 98 63 65
    33 119 37 138 11 8 -10 14 -33 14 -50 0 -17 -12 -48 -27 -70 -14 -22 -56 -74
    -93 -115 -60 -68 -90 -109 -90 -124 0 -3 13 -6 28 -6 60 0 266 159 380 292 73
    86 76 88 118 88 24 0 44 -3 44 -6 0 -3 -49 -65 -109 -138 -60 -72 -120 -149
    -135 -170 -14 -21 -26 -45 -26 -52 0 -9 11 -14 29 -14 35 0 140 68 239 155 37
    33 105 103 150 155 l81 95 -45 3 c-65 4 -51 26 18 30 l56 3 77 94 c71 88 79
    94 121 101 25 3 47 4 50 1 3 -3 -29 -47 -72 -99 l-78 -93 58 -3 c39 -2 56 -7
    53 -15 -2 -7 -31 -13 -73 -15 l-69 -4 -120 -150 c-66 -82 -130 -166 -142 -186
    -13 -20 -23 -45 -23 -54 0 -13 8 -18 25 -18 14 0 43 9 64 19 55 28 133 92 248
    202 72 69 120 106 166 128 43 21 80 31 110 31 49 0 77 -18 77 -51 0 -16 6 -13
    31 16 27 30 37 35 75 35 24 0 44 -2 44 -5 0 -3 -41 -53 -90 -112 -50 -60 -111
    -138 -136 -175 -26 -36 -43 -71 -40 -77 4 -6 15 -11 26 -11 51 0 274 189 383
    325 160 199 297 353 409 461 131 125 224 186 278 182 28 -2 37 -9 44 -31 8
    -23 6 -37 -14 -75 -14 -26 -61 -85 -105 -131 -44 -46 -116 -112 -160 -148 -44
    -35 -139 -104 -211 -153 -126 -86 -135 -94 -223 -211 -51 -67 -100 -136 -108
    -154 -9 -18 -13 -41 -9 -50 5 -14 14 -16 43 -12 20 4 60 22 89 41 29 19 86 65
    127 101 42 36 78 61 81 57 7 -12 -124 -138 -187 -181 -26 -18 -68 -39 -92 -47
    -24 -9 -56 -14 -71 -12 -15 2 -36 15 -47 30 -19 26 -20 30 -6 81 l15 54 -80
    -65 c-44 -36 -98 -73 -120 -83 -23 -10 -53 -19 -67 -19 -14 0 -34 9 -44 20
    -12 13 -16 30 -13 53 l4 34 -51 -37 c-27 -21 -64 -45 -82 -54 -18 -9 -45 -16
    -62 -16 -20 0 -36 9 -51 28 -18 21 -21 36 -18 74 l5 47 -51 -45 c-28 -25 -78
    -58 -110 -74 -33 -17 -74 -30 -93 -30 -20 0 -41 8 -53 20 -11 11 -20 31 -20
    45 0 14 7 41 15 61 l14 35 -49 -43 c-27 -24 -74 -58 -104 -77 -30 -18 -73 -35
    -96 -38 -30 -4 -45 -1 -60 12 -13 12 -20 31 -20 55 0 20 7 45 15 56 28 37 14
    35 -32 -6 -67 -58 -158 -111 -202 -117 -30 -4 -43 -1 -60 16 -11 11 -21 34
    -21 49 0 15 13 48 29 73 16 24 63 82 105 128 42 46 76 92 76 102 0 30 -39 23
    -108 -18 -117 -71 -226 -176 -404 -391 -94 -114 -178 -215 -186 -224 -14 -17
    67 -18 1686 -18 l1702 0 0 950 0 950 -4900 0 -4900 0 0 -950z m2724 691 c3 -5
    -29 -25 -71 -46 -43 -20 -93 -48 -111 -62 l-34 -25 35 -37 c19 -20 45 -56 58
    -81 21 -39 24 -59 24 -145 0 -94 -2 -105 -34 -170 -47 -96 -142 -190 -241
    -238 -44 -22 -105 -42 -148 -49 -56 -9 -85 -9 -129 0 -31 6 -61 16 -66 21 -5
    5 -6 14 -3 20 4 7 16 6 37 -1 16 -6 56 -8 88 -6 73 5 166 49 238 113 28 25 72
    76 96 113 25 37 55 96 67 132 17 50 21 80 18 130 -5 65 -32 134 -62 159 -14
    12 -25 4 -82 -55 -36 -37 -94 -104 -129 -149 -34 -44 -122 -168 -195 -275 -73
    -107 -158 -229 -188 -270 -85 -113 -235 -260 -334 -324 -47 -31 -118 -70 -157
    -86 -38 -17 -98 -37 -133 -45 -81 -19 -230 -19 -294 0 -27 8 -62 27 -76 42
    -15 16 -32 41 -38 57 -15 41 3 92 40 111 16 8 36 15 45 15 21 0 55 -36 55 -60
    0 -11 -9 -29 -21 -41 -15 -15 -30 -20 -50 -17 -16 3 -29 0 -29 -5 0 -4 13 -21
    28 -37 16 -15 46 -33 68 -39 21 -6 68 -11 103 -11 109 0 220 38 331 113 67 45
    211 188 304 302 46 55 148 188 228 295 80 107 186 239 236 293 49 54 124 126
    166 160 66 55 73 63 59 74 -29 22 -125 55 -203 69 -41 7 -111 13 -155 14 -44
    0 -123 -7 -175 -15 -52 -8 -138 -28 -190 -44 -52 -17 -135 -51 -184 -76 -48
    -24 -119 -68 -157 -96 -37 -27 -102 -86 -143 -130 -51 -54 -88 -105 -113 -157
    -34 -69 -38 -83 -38 -156 0 -65 4 -86 20 -108 11 -15 42 -39 69 -53 41 -21 64
    -25 132 -25 95 0 185 24 284 76 36 19 95 56 131 84 36 27 96 81 132 120 37 38
    80 93 96 121 16 29 32 67 36 87 4 19 1 47 -5 62 -7 16 -25 34 -41 40 -43 18
    -144 8 -217 -22 -34 -14 -88 -41 -119 -59 -32 -19 -94 -69 -139 -112 -45 -43
    -99 -103 -120 -133 -20 -30 -41 -54 -46 -54 -15 0 35 80 98 154 34 40 93 96
    130 125 38 28 96 65 129 82 34 16 85 36 115 44 30 8 77 15 103 15 27 0 64 -7
    83 -16 19 -9 42 -30 51 -47 41 -80 -20 -238 -142 -362 -38 -40 -104 -95 -146
    -122 -42 -27 -108 -61 -146 -76 -38 -14 -97 -31 -131 -37 -34 -7 -100 -11
    -146 -8 -69 4 -96 10 -143 34 -48 24 -62 38 -85 83 -21 41 -28 67 -28 112 0
    36 9 82 23 121 13 35 40 89 61 120 20 32 63 83 94 115 31 32 89 82 127 111 39
    28 115 74 170 101 55 27 137 61 181 75 45 14 121 32 170 41 67 13 125 16 239
    12 161 -5 227 -18 331 -66 l60 -28 64 38 c35 22 86 48 114 58 28 11 54 20 58
    20 4 1 9 -3 12 -8z m3231 -159 c22 -4 38 -11 35 -15 -3 -4 -72 -9 -155 -11
    -118 -2 -166 -8 -225 -25 -118 -34 -232 -96 -298 -160 -60 -57 -95 -112 -105
    -167 -3 -16 -2 -47 3 -68 5 -21 21 -51 35 -66 15 -16 50 -38 77 -50 27 -12 76
    -26 109 -32 l59 -10 92 87 c110 104 240 207 358 283 110 72 297 164 385 191
    38 12 98 26 132 31 68 9 122 0 148 -26 8 -9 18 -27 21 -40 10 -41 -22 -106
    -84 -168 -31 -32 -87 -78 -124 -102 -84 -56 -219 -124 -338 -169 -117 -45
    -306 -93 -393 -102 -67 -6 -69 -7 -118 -62 -68 -76 -136 -180 -165 -251 -28
    -68 -31 -147 -9 -189 20 -39 89 -71 151 -71 97 0 220 47 329 124 127 91 211
    212 189 274 -5 15 -21 32 -34 40 -15 7 -42 11 -66 8 -72 -9 -153 -46 -235
    -108 -70 -53 -132 -118 -190 -200 -10 -13 -20 -20 -23 -17 -11 10 59 109 124
    174 35 36 88 82 118 102 30 20 76 44 101 54 68 25 134 33 175 19 20 -6 43 -21
    51 -33 8 -12 15 -41 15 -65 0 -23 -9 -59 -19 -80 -30 -58 -81 -117 -150 -172
    -35 -28 -89 -64 -120 -79 -90 -46 -185 -71 -265 -71 -58 0 -83 5 -125 26 -34
    17 -62 41 -79 67 -25 37 -27 49 -27 136 0 91 2 101 38 176 21 44 56 104 78
    133 22 28 36 52 32 52 -4 0 -38 7 -74 14 -37 8 -85 24 -106 35 -22 11 -54 35
    -70 55 -17 19 -36 51 -43 72 -7 21 -10 59 -7 90 3 31 17 76 33 105 16 28 51
    72 80 98 28 26 83 64 121 84 61 32 170 68 243 80 42 7 273 6 315 -1z m-1147
    -214 c7 -7 12 -25 12 -40 0 -16 -9 -47 -20 -69 -12 -22 -53 -74 -93 -116 -40
    -41 -108 -104 -152 -140 -44 -35 -137 -102 -207 -148 -109 -73 -135 -95 -186
    -163 -100 -130 -142 -202 -142 -239 0 -31 2 -33 36 -33 64 0 163 61 292 181
    50 47 72 59 72 41 0 -14 -140 -145 -192 -181 -72 -48 -148 -81 -191 -81 -27 0
    -45 7 -62 25 -18 17 -25 35 -25 62 0 21 9 57 20 81 l19 42 -86 -75 c-48 -41
    -113 -88 -144 -105 -31 -16 -69 -30 -85 -30 -15 0 -36 7 -46 17 -11 9 -18 30
    -18 50 l0 35 -47 -35 c-27 -19 -62 -42 -80 -51 -47 -23 -89 -20 -118 9 -19 18
    -25 35 -25 65 0 23 5 51 11 63 7 12 -12 0 -44 -28 -30 -28 -80 -65 -110 -83
    -68 -41 -118 -50 -152 -28 -18 12 -25 25 -25 47 0 17 7 46 16 64 8 18 49 72
    90 120 69 81 94 115 94 129 0 3 -13 6 -28 6 -17 0 -57 -18 -93 -41 -36 -23
    -126 -104 -207 -185 l-143 -145 -44 3 -44 3 105 125 c58 69 119 144 135 167
    16 23 29 49 29 57 0 9 -8 16 -17 16 -10 0 -31 -8 -48 -19 -16 -10 -92 -78
    -167 -152 -75 -74 -161 -149 -192 -167 -30 -19 -72 -36 -93 -39 -30 -4 -42 -1
    -57 16 -13 14 -17 31 -14 55 l4 35 -46 -35 c-57 -44 -117 -73 -151 -74 -15 0
    -37 9 -50 19 -19 15 -24 28 -23 63 0 23 10 64 22 90 11 26 49 75 84 110 34 35
    91 78 126 96 39 21 83 36 117 39 45 5 59 2 75 -12 11 -10 20 -25 20 -34 0 -10
    10 -5 33 17 25 25 42 32 71 32 27 0 37 -4 33 -13 -3 -7 -53 -73 -112 -146 -59
    -74 -116 -148 -126 -165 -10 -17 -19 -37 -19 -43 0 -25 48 -13 106 26 33 22
    119 98 192 170 73 72 151 140 172 151 22 11 49 20 61 20 12 0 31 -7 41 -17 10
    -9 18 -29 18 -45 0 -16 -7 -43 -16 -60 l-16 -31 24 19 c106 82 155 115 188
    125 21 6 50 9 64 5 15 -4 32 -18 38 -31 8 -19 8 -35 0 -62 -6 -21 -42 -75 -79
    -121 -82 -100 -113 -142 -113 -153 0 -15 49 -10 83 7 48 25 142 99 237 188 47
    44 112 96 144 117 32 22 75 43 95 49 49 14 104 13 123 -2 8 -7 20 -21 25 -32
    9 -17 12 -16 32 13 19 27 29 31 66 31 24 0 46 -4 49 -9 3 -4 -4 -17 -15 -27
    -29 -26 -202 -241 -228 -284 -11 -19 -21 -41 -21 -47 0 -22 43 -14 95 16 28
    16 102 74 166 129 72 61 149 140 200 204 172 214 350 411 443 488 36 30 89 67
    117 83 28 15 63 27 78 27 15 0 32 -5 39 -12z m2870 -350 c7 -7 12 -19 12 -28
    0 -25 -38 -60 -66 -60 -16 0 -28 8 -36 25 -9 19 -8 29 6 50 11 17 26 25 44 25
    16 0 33 -5 40 -12z M6410 1424 c-30 -8 -97 -35 -148 -60 -96 -48 -261 -158
    -366 -246 -90 -74 -247 -220 -243 -224 2 -2 43 3 92 11 111 20 311 84 429 139
    50 24 123 62 161 86 39 23 98 65 133 93 68 55 122 127 122 162 0 12 -8 29 -18
    38 -23 21 -86 21 -162 1z M4685 1201 c-27 -21 -82 -74 -121 -117 -81 -91 -274
    -322 -274 -329 0 -6 69 42 175 121 86 63 213 178 261 235 19 23 42 56 50 72 9
    16 13 35 10 43 -9 25 -50 15 -101 -25z M2405 654 c-53 -29 -114 -84 -169 -152
    -61 -76 -100 -147 -92 -168 3 -8 16 -14 30 -14 13 0 51 18 84 40 70 47 169
    150 207 214 32 55 30 90 -5 93 -14 2 -38 -5 -55 -13z M3646 640 c-27 -18 -74
    -57 -104 -88 -30 -32 -72 -84 -94 -116 -21 -33 -38 -71 -38 -88 0 -23 4 -28
    25 -28 14 0 44 9 67 21 53 27 186 160 222 221 17 29 26 58 24 75 -2 21 -9 29
    -28 31 -15 2 -45 -10 -74 -28z M9193 1239 c-23 -11 -85 -66 -140 -122 -54 -56
    -143 -156 -198 -222 -54 -66 -105 -129 -114 -139 -18 -21 100 60 199 138 82
    64 213 187 262 245 45 55 62 95 44 110 -9 7 -24 4 -53 -10z M6390 653 c-47
    -24 -168 -145 -214 -214 -20 -31 -38 -69 -39 -85 -2 -23 2 -30 21 -32 12 -2
    44 9 70 24 26 15 84 65 129 111 88 90 133 165 116 192 -6 9 -19 17 -29 18 -10
    2 -35 -5 -54 -14z M8142 652 c-47 -25 -156 -136 -204 -205 -22 -32 -42 -74
    -45 -92 -5 -33 -4 -35 25 -35 19 0 50 15 88 43 70 52 177 167 205 220 11 21
    19 48 17 60 -2 15 -11 23 -28 24 -14 2 -40 -5 -58 -15z"/>
  </g>
  <g fill="#f1ead8" fill-opacity="0.37500000" stroke="none" transform="translate(0,190) scale(0.100000,-0.100000)">
    <path d="M6508 1473 c7 -3 16 -2 19 1 4 3 -2 6 -13 5 -11 0 -14 -3 -6 -6z
    M2274 1368 l-19 -23 23 19 c21 18 27 26 19 26 -2 0 -12 -10 -23 -22z M1965
    1330 c3 -5 8 -10 11 -10 3 0 2 5 -1 10 -3 6 -8 10 -11 10 -3 0 -2 -4 1 -10z
    M1224 1318 c-4 -7 -3 -8 4 -4 12 7 16 16 8 16 -3 0 -8 -5 -12 -12z M9024 1168
    c-4 -7 -3 -8 4 -4 7 4 12 9 12 12 0 8 -9 4 -16 -8z M4524 1128 c-4 -7 -3 -8 4
    -4 7 4 12 9 12 12 0 8 -9 4 -16 -8z M9114 1048 l-29 -33 33 29 c17 17 32 31
    32 33 0 8 -8 1 -36 -29z M4434 1038 c-4 -7 -3 -8 4 -4 12 7 16 16 8 16 -3 0
    -8 -5 -12 -12z M4649 1033 c-13 -16 -12 -17 4 -4 9 7 17 15 17 17 0 8 -8 3
    -21 -13z M7988 953 c6 -2 18 -2 25 0 6 3 1 5 -13 5 -14 0 -19 -2 -12 -5z
    M8804 948 c-4 -7 -3 -8 4 -4 12 7 16 16 8 16 -3 0 -8 -5 -12 -12z M1075 770
    c3 -5 8 -10 11 -10 3 0 2 5 -1 10 -3 6 -8 10 -11 10 -3 0 -2 -4 1 -10z M1273
    733 c9 -2 23 -2 30 0 6 3 -1 5 -18 5 -16 0 -22 -2 -12 -5z M7448 693 c7 -3 16
    -2 19 1 4 3 -2 6 -13 5 -11 0 -14 -3 -6 -6z M3924 678 c-4 -7 -3 -8 4 -4 7 4
    12 9 12 12 0 8 -9 4 -16 -8z M2922 656 c7 -8 15 -12 17 -11 5 6 -10 25 -20 25
    -5 0 -4 -6 3 -14z M3750 640 c0 -7 3 -10 7 -7 3 4 3 10 0 14 -4 3 -7 0 -7 -7z
    M2740 575 c-24 -25 -42 -45 -39 -45 3 0 25 20 49 45 24 25 42 45 39 45 -3 0
    -25 -20 -49 -45z M2974 558 c-4 -7 -3 -8 4 -4 7 4 12 9 12 12 0 8 -9 4 -16 -8z
    M3414 538 l-29 -33 33 29 c30 28 37 36 29 36 -2 0 -16 -15 -33 -32z M8024 558
    c-4 -7 -3 -8 4 -4 12 7 16 16 8 16 -3 0 -8 -5 -12 -12z M1589 533 c-13 -16
    -12 -17 4 -4 16 13 21 21 13 21 -2 0 -10 -8 -17 -17z M3514 528 c-4 -7 -3 -8
    4 -4 7 4 12 9 12 12 0 8 -9 4 -16 -8z M2719 513 c-13 -16 -12 -17 4 -4 16 13
    21 21 13 21 -2 0 -10 -8 -17 -17z M4349 503 c-13 -16 -12 -17 4 -4 16 13 21
    21 13 21 -2 0 -10 -8 -17 -17z M2664 458 l-29 -33 33 29 c30 28 37 36 29 36
    -2 0 -16 -15 -33 -32z M7820 400 c0 -7 3 -10 7 -7 3 4 3 10 0 14 -4 3 -7 0 -7
    -7z M6317 359 c4 -13 8 -18 11 -10 2 7 -1 18 -6 23 -8 8 -9 4 -5 -13z M8380
    360 c0 -7 3 -10 7 -7 3 4 3 10 0 14 -4 3 -7 0 -7 -7z M2070 350 c0 -7 3 -10 7
    -7 3 4 3 10 0 14 -4 3 -7 0 -7 -7z M4010 350 c0 -7 3 -10 7 -7 3 4 3 10 0 14
    -4 3 -7 0 -7 -7z M3400 340 c0 -7 3 -10 7 -7 3 4 3 10 0 14 -4 3 -7 0 -7 -7z
    M3423 313 c4 -3 10 -3 14 0 3 4 0 7 -7 7 -7 0 -10 -3 -7 -7z M4043 313 c4 -3
    10 -3 14 0 3 4 0 7 -7 7 -7 0 -10 -3 -7 -7z"/>
  </g>
  <g fill="#f1ead8" fill-opacity="0.62500000" stroke="none" transform="translate(0,190) scale(0.100000,-0.100000)">
    <path d="M1199 1293 c-13 -16 -12 -17 4 -4 9 7 17 15 17 17 0 8 -8 3 -21 -13z
    M1234 1268 l-29 -33 33 29 c30 28 37 36 29 36 -2 0 -16 -15 -33 -32z M1444
    1178 c-4 -7 -3 -8 4 -4 12 7 16 16 8 16 -3 0 -8 -5 -12 -12z M9064 1138 l-19
    -23 23 19 c12 11 22 21 22 23 0 8 -8 2 -26 -19z M1424 1128 l-19 -23 23 19
    c21 18 27 26 19 26 -2 0 -12 -10 -23 -22z M4489 1093 l-24 -28 28 24 c25 23
    32 31 24 31 -2 0 -14 -12 -28 -27z M4554 1078 c-4 -7 -3 -8 4 -4 7 4 12 9 12
    12 0 8 -9 4 -16 -8z M4624 1008 c-4 -7 -3 -8 4 -4 7 4 12 9 12 12 0 8 -9 4
    -16 -8z M1050 920 c0 -7 3 -10 7 -7 3 4 3 10 0 14 -4 3 -7 0 -7 -7z M2598 693
    c12 -2 30 -2 40 0 9 3 -1 5 -23 4 -22 0 -30 -2 -17 -4z M3873 693 c9 -2 25 -2
    35 0 9 3 1 5 -18 5 -19 0 -27 -2 -17 -5z M6588 693 c12 -2 30 -2 40 0 9 3 -1
    5 -23 4 -22 0 -30 -2 -17 -4z M7478 693 c6 -2 18 -2 25 0 6 3 1 5 -13 5 -14 0
    -19 -2 -12 -5z M8328 693 c7 -3 16 -2 19 1 4 3 -2 6 -13 5 -11 0 -14 -3 -6 -6z
    M8368 693 c7 -3 16 -2 19 1 4 3 -2 6 -13 5 -11 0 -14 -3 -6 -6z M3783 633 c4
    -3 10 -3 14 0 3 4 0 7 -7 7 -7 0 -10 -3 -7 -7z M6164 558 c-4 -7 -3 -8 4 -4
    12 7 16 16 8 16 -3 0 -8 -5 -12 -12z M6843 553 c4 -3 10 -3 14 0 3 4 0 7 -7 7
    -7 0 -10 -3 -7 -7z M2154 538 c-4 -7 -3 -8 4 -4 7 4 12 9 12 12 0 8 -9 4 -16
    -8z M1559 503 c-13 -16 -12 -17 4 -4 9 7 17 15 17 17 0 8 -8 3 -21 -13z M975
    470 c3 -5 8 -10 11 -10 3 0 2 5 -1 10 -3 6 -8 10 -11 10 -3 0 -2 -4 1 -10z
    M2904 458 c-4 -7 -3 -8 4 -4 7 4 12 9 12 12 0 8 -9 4 -16 -8z M2614 448 c-4
    -7 -3 -8 4 -4 7 4 12 9 12 12 0 8 -9 4 -16 -8z M2324 378 c-4 -7 -3 -8 4 -4 7
    4 12 9 12 12 0 8 -9 4 -16 -8z M6061 364 c0 -11 3 -14 6 -6 3 7 2 16 -1 19 -3
    4 -6 -2 -5 -13z M7880 340 c0 -7 3 -10 7 -7 3 4 3 10 0 14 -4 3 -7 0 -7 -7z
    M3093 313 c4 -3 10 -3 14 0 3 4 0 7 -7 7 -7 0 -10 -3 -7 -7z M7583 313 c4 -3
    10 -3 14 0 3 4 0 7 -7 7 -7 0 -10 -3 -7 -7z"/>
  </g>
  <g fill="#f1ead8" fill-opacity="0.87500000" stroke="none" transform="translate(0,190) scale(0.100000,-0.100000)">
    <path d="M2646 1625 c-32 -13 -83 -40 -113 -60 l-54 -36 -62 30 c-34 16 -89
    37 -122 46 -35 10 -117 19 -197 22 -103 4 -161 1 -239 -12 -57 -9 -142 -30
    -190 -45 -48 -16 -125 -48 -170 -71 -46 -23 -117 -64 -157 -92 -40 -27 -108
    -88 -152 -134 -57 -60 -91 -107 -120 -167 -29 -58 -43 -100 -47 -142 -3 -33 0
    -79 7 -104 15 -56 80 -123 135 -140 22 -6 72 -14 111 -17 98 -8 217 18 329 71
    50 23 119 66 155 94 36 29 88 80 117 113 28 34 66 90 83 126 20 41 34 86 37
    123 6 57 4 61 -29 94 -22 22 -49 37 -74 42 -63 12 -160 -11 -259 -60 -96 -48
    -199 -130 -266 -210 -45 -56 -94 -134 -87 -141 3 -3 22 20 43 50 20 30 66 84
    101 119 35 35 95 85 135 112 105 69 178 96 276 102 78 4 83 3 108 -23 24 -23
    27 -33 23 -70 -3 -24 -15 -64 -28 -90 -27 -56 -159 -198 -243 -261 -75 -56
    -192 -116 -273 -140 -34 -10 -93 -18 -139 -18 -64 0 -90 5 -128 23 -30 14 -58
    38 -74 62 -20 31 -25 50 -25 101 1 74 25 145 79 225 20 30 64 83 98 117 34 35
    95 87 136 116 41 29 115 72 164 97 50 24 126 55 170 68 44 13 120 31 169 40
    103 17 256 20 342 4 79 -14 174 -45 202 -67 l24 -18 -56 -43 c-105 -81 -262
    -257 -430 -482 -93 -123 -201 -262 -240 -309 -90 -108 -175 -193 -251 -251
    -33 -26 -87 -60 -120 -76 -33 -17 -84 -38 -114 -47 -64 -19 -187 -21 -243 -4
    -41 12 -88 52 -88 74 0 10 9 12 29 8 22 -5 34 -1 51 16 11 11 20 31 18 42 -2
    12 -15 30 -29 41 -30 22 -59 17 -89 -16 -27 -29 -27 -96 1 -131 11 -15 40 -36
    62 -48 32 -16 66 -22 142 -26 81 -4 118 0 185 17 47 12 118 37 159 56 41 20
    104 55 140 79 37 25 96 72 133 105 36 34 100 103 141 153 41 51 134 181 207
    288 73 107 164 236 201 286 38 50 102 126 143 170 l75 78 25 -23 c14 -13 32
    -44 40 -69 9 -25 16 -71 16 -102 0 -31 -9 -83 -20 -116 -11 -32 -39 -86 -61
    -121 -23 -35 -68 -87 -100 -117 -32 -30 -84 -67 -116 -83 -52 -25 -69 -28
    -155 -28 -54 0 -98 -3 -98 -6 0 -11 49 -28 97 -34 63 -9 181 17 258 55 33 16
    83 50 111 74 29 25 68 70 88 101 21 30 46 80 57 112 25 74 25 167 -1 237 -12
    29 -39 75 -61 100 l-41 46 24 20 c12 11 60 38 106 61 45 23 82 45 82 50 0 5
    -3 9 -7 9 -5 0 -34 -11 -67 -25z M5632 1479 c-78 -13 -199 -56 -262 -92 -30
    -17 -78 -54 -106 -82 -29 -28 -62 -71 -73 -94 -12 -23 -25 -63 -28 -89 -3 -26
    0 -66 6 -89 6 -23 23 -56 37 -73 15 -17 45 -41 68 -54 36 -21 74 -32 168 -51
    l26 -5 -53 -79 c-29 -43 -63 -105 -75 -138 -12 -32 -25 -91 -28 -130 -4 -64
    -2 -79 22 -128 21 -42 38 -61 74 -83 42 -24 56 -27 142 -27 80 0 107 5 173 29
    43 16 111 50 150 76 40 26 98 74 130 108 32 34 66 80 77 104 11 24 20 62 20
    86 0 33 -6 48 -25 66 -14 13 -41 26 -60 29 -19 3 -52 3 -72 0 -21 -3 -76 -23
    -123 -45 -71 -34 -99 -55 -175 -132 -49 -50 -100 -110 -113 -133 -13 -24 -19
    -43 -14 -43 5 0 26 25 47 56 21 30 66 81 101 112 34 31 88 72 119 91 32 19 80
    43 109 53 28 9 67 17 87 18 22 0 47 -8 63 -21 18 -14 26 -30 26 -51 0 -16 -8
    -46 -17 -66 -9 -21 -53 -73 -97 -117 -59 -58 -103 -92 -162 -122 -45 -24 -107
    -49 -140 -58 -32 -8 -80 -15 -106 -15 -26 0 -66 7 -88 16 -22 9 -49 28 -59 43
    -10 14 -21 40 -24 58 -3 17 0 58 9 89 8 32 28 82 44 113 33 61 95 146 152 210
    28 32 44 41 68 41 56 0 232 40 355 81 66 22 171 64 233 94 61 30 145 77 186
    105 124 86 206 186 206 250 0 12 -13 35 -29 51 -26 26 -36 29 -93 29 -35 0
    -100 -9 -144 -21 -43 -11 -133 -46 -200 -78 -128 -62 -307 -174 -414 -260 -36
    -29 -109 -93 -163 -143 l-98 -90 -50 6 c-82 11 -154 43 -193 86 -19 21 -38 54
    -41 73 -14 71 34 168 117 242 59 52 201 125 293 151 40 11 110 18 215 20 85 2
    160 4 165 4 6 0 1 6 -10 12 -25 15 -281 20 -353 7z m939 -49 c29 -16 25 -69
    -9 -116 -55 -76 -191 -173 -359 -257 -50 -26 -144 -65 -209 -87 -106 -37 -285
    -80 -330 -80 -14 0 -9 10 21 41 67 69 255 228 356 300 52 37 135 89 183 115
    48 26 118 57 154 70 71 25 160 31 193 14z M9164 1264 c-92 -49 -218 -163 -374
    -340 -58 -66 -152 -177 -207 -245 -93 -115 -178 -199 -293 -291 -54 -43 -102
    -68 -130 -68 -11 0 -20 6 -20 13 0 6 10 28 21 47 26 42 199 258 228 284 11 10
    19 22 16 26 -2 3 -23 5 -47 3 -34 -2 -49 -10 -70 -36 -24 -28 -27 -30 -28 -11
    0 11 -8 28 -18 37 -31 28 -91 21 -171 -19 -52 -26 -102 -64 -179 -138 -59 -56
    -130 -118 -159 -139 -60 -43 -139 -81 -153 -72 -17 11 -11 40 18 86 16 24 79
    107 141 184 l113 140 71 5 c44 3 72 10 75 18 3 8 -12 12 -52 12 -31 0 -56 3
    -56 7 0 3 33 45 74 94 41 48 73 89 71 91 -3 2 -25 2 -49 -2 -43 -5 -50 -10
    -121 -97 l-75 -92 -57 -3 c-70 -4 -84 -26 -19 -30 l46 -3 -80 -95 c-150 -178
    -364 -339 -411 -310 -12 8 -10 16 9 52 13 24 74 104 137 180 62 75 112 138
    110 140 -3 2 -24 2 -49 -2 -40 -5 -50 -12 -113 -85 -38 -44 -112 -115 -164
    -158 -96 -79 -209 -144 -228 -132 -6 3 -11 12 -11 19 0 7 39 57 86 112 47 54
    94 116 105 136 10 21 19 48 19 62 0 13 -7 32 -16 40 -8 9 -30 16 -48 16 -18 0
    -60 -14 -94 -31 -34 -16 -83 -50 -110 -75 -54 -48 -80 -60 -41 -18 34 36 278
    348 274 352 -1 1 -20 0 -41 -4 -34 -5 -47 -17 -99 -82 -33 -41 -109 -127 -170
    -190 -116 -121 -250 -240 -336 -298 -58 -39 -99 -45 -99 -15 0 21 54 95 178
    246 45 55 82 102 82 105 0 3 -20 4 -45 2 -35 -3 -50 -11 -70 -34 -21 -25 -25
    -26 -25 -10 0 10 -8 26 -18 35 -10 10 -35 17 -55 17 -43 0 -123 -30 -175 -65
    -61 -41 -150 -135 -172 -179 -11 -24 -20 -63 -20 -89 0 -34 6 -53 20 -67 11
    -11 32 -20 47 -20 15 0 45 9 68 20 23 11 60 36 83 56 l42 36 0 -40 c0 -25 6
    -45 18 -55 10 -10 27 -17 38 -17 32 1 101 37 167 87 34 26 93 77 132 113 38
    36 56 49 40 29 -17 -20 -114 -137 -216 -260 -102 -123 -189 -230 -193 -236 -5
    -10 4 -13 36 -13 l43 0 179 216 c99 118 209 243 245 276 36 33 89 77 116 98
    89 66 164 96 179 71 7 -10 -23 -49 -122 -163 -79 -91 -103 -142 -84 -183 6
    -13 22 -27 36 -31 14 -3 41 -1 60 6 44 14 142 77 196 126 l42 39 -21 -40 c-11
    -22 -21 -54 -21 -72 0 -24 7 -37 25 -49 17 -11 35 -14 58 -10 43 8 141 67 210
    126 36 31 47 37 36 20 -23 -36 -31 -82 -20 -113 6 -16 21 -29 36 -33 14 -3 46
    -1 71 6 47 13 137 71 191 123 l32 30 -10 -37 c-6 -21 -7 -51 -4 -67 9 -40 46
    -63 88 -55 31 6 89 39 147 85 l26 20 -4 -34 c-3 -24 2 -39 17 -54 12 -12 31
    -21 43 -21 37 0 100 37 191 110 83 67 85 68 71 35 -8 -19 -14 -52 -14 -74 0
    -30 6 -44 22 -55 12 -9 34 -16 48 -16 33 0 121 42 174 82 66 51 166 151 159
    161 -3 5 -24 -9 -47 -31 -63 -60 -152 -130 -196 -152 -22 -11 -53 -20 -70 -20
    -25 0 -30 4 -30 24 0 27 70 137 157 246 48 61 83 91 176 153 64 43 151 105
    193 138 110 88 226 202 268 262 44 64 54 107 31 130 -9 10 -27 17 -39 17 -13
    0 -45 -12 -72 -26z m90 -20 c10 -27 -34 -96 -118 -179 -85 -86 -245 -216 -349
    -287 -34 -23 -55 -33 -47 -22 39 51 205 247 266 315 38 41 90 94 115 117 46
    42 94 72 115 72 7 0 15 -7 18 -16z m-2776 -605 c4 -36 -63 -132 -149 -214 -71
    -67 -159 -118 -185 -108 -39 15 9 111 110 220 83 89 150 135 191 131 24 -2 31
    -8 33 -29z m1750 4 c2 -12 -4 -39 -14 -59 -22 -47 -162 -194 -222 -234 -32
    -21 -56 -30 -77 -28 -25 3 -30 7 -27 28 5 42 63 128 142 209 41 42 91 84 110
    94 19 9 46 16 60 15 17 -2 26 -10 28 -25z M4705 1256 c-27 -13 -66 -36 -85
    -50 -55 -42 -214 -201 -309 -311 -48 -55 -123 -145 -168 -200 -83 -103 -134
    -154 -238 -242 -100 -84 -176 -133 -207 -133 -15 0 -28 5 -28 10 0 30 65 121
    219 305 22 27 41 52 41 55 0 3 -20 4 -45 3 -34 -1 -50 -7 -65 -25 -11 -12 -19
    -26 -20 -30 0 -5 -4 -8 -10 -8 -5 0 -7 6 -4 14 3 8 -4 24 -16 36 -19 19 -31
    22 -74 18 -28 -3 -77 -18 -110 -34 -34 -16 -97 -63 -145 -108 -48 -44 -120
    -106 -161 -139 -78 -62 -172 -113 -190 -102 -5 3 -10 12 -10 19 0 7 38 58 83
    113 46 55 91 119 101 142 9 24 14 52 10 67 -3 13 -14 29 -24 34 -10 6 -28 10
    -40 10 -35 0 -138 -60 -197 -113 -29 -27 -53 -45 -53 -41 1 5 7 20 15 34 8 14
    14 39 15 56 0 18 -8 38 -18 47 -45 40 -100 10 -250 -136 -70 -67 -147 -139
    -172 -158 -54 -44 -102 -69 -130 -69 -11 0 -20 6 -20 13 0 22 51 95 158 227
    56 69 102 127 102 130 0 3 -20 4 -45 2 -35 -3 -50 -11 -70 -34 -22 -26 -25
    -27 -25 -9 0 11 -10 27 -22 35 -12 9 -37 16 -54 16 -17 0 -51 -7 -74 -15 -61
    -22 -169 -97 -211 -147 -20 -24 -46 -62 -58 -85 -12 -25 -21 -61 -21 -88 0
    -32 6 -51 20 -65 11 -11 32 -20 47 -20 15 0 45 9 68 20 23 11 60 36 82 55 23
    19 43 35 45 35 2 0 2 -16 0 -35 -3 -25 1 -42 13 -55 10 -11 30 -20 45 -20 14
    0 50 12 79 27 36 17 106 76 211 178 87 83 174 160 195 169 48 23 63 10 41 -33
    -9 -17 -73 -99 -141 -181 l-125 -150 49 0 c42 0 53 4 71 28 40 51 215 224 272
    269 70 53 146 89 160 75 6 -6 6 -18 -3 -33 -6 -13 -43 -60 -81 -104 -39 -44
    -78 -97 -89 -117 -10 -21 -19 -49 -19 -63 0 -14 9 -34 20 -45 11 -11 31 -20
    45 -20 14 0 42 7 62 15 40 17 127 78 182 129 25 23 32 26 25 11 -5 -11 -9 -42
    -9 -68 0 -39 5 -53 24 -68 13 -10 34 -19 47 -19 38 0 95 27 146 71 26 21 48
    39 50 39 2 0 2 -16 0 -35 -3 -25 1 -42 14 -56 15 -17 27 -20 57 -16 21 3 63
    20 93 38 30 19 93 66 139 107 l85 73 -21 -41 c-12 -23 -24 -61 -27 -85 -4 -37
    -1 -47 21 -69 19 -19 37 -26 64 -26 21 0 62 11 92 25 30 14 77 42 105 62 70
    51 187 164 180 175 -3 4 -38 -20 -77 -56 -40 -35 -98 -82 -130 -104 -33 -23
    -81 -48 -107 -57 -37 -12 -54 -14 -69 -5 -12 6 -21 17 -21 24 0 28 63 133 138
    232 68 90 88 108 172 162 135 86 246 171 339 258 44 41 98 103 121 136 23 35
    40 72 40 88 0 32 -23 60 -48 60 -9 0 -39 -11 -67 -24z m85 -31 c0 -34 -44 -99
    -118 -173 -76 -77 -211 -186 -324 -264 -32 -21 -58 -36 -58 -32 0 8 172 215
    269 323 42 47 98 102 124 123 31 24 59 38 78 38 19 0 29 -5 29 -15z m-2302
    -586 c4 -36 -63 -132 -148 -213 -38 -36 -88 -75 -111 -86 -22 -12 -50 -20 -62
    -18 -17 2 -22 9 -20 32 1 16 19 54 39 85 47 70 168 191 214 214 19 9 46 16 60
    15 19 -2 26 -10 28 -29z m1262 16 c7 -8 9 -23 4 -37 -19 -64 -154 -217 -233
    -267 -59 -37 -95 -45 -111 -26 -9 11 -9 22 -2 45 17 48 71 120 147 195 72 72
    123 104 161 105 12 0 27 -7 34 -15z M7614 922 c-18 -12 -32 -44 -26 -64 2 -10
    15 -21 28 -24 26 -7 48 7 65 38 13 25 -6 58 -34 58 -12 0 -27 -4 -33 -8z"/>
  </g>
</svg>
