<?xml version="1.0" encoding="UTF-8"?>
<svg xmlns="http://www.w3.org/2000/svg" viewBox="0 0 980 190" width="980" height="190">
  <title>Banded alpha spline reconstruction</title>
  <g fill="#f1ead8" fill-opacity="0.01562500" stroke="none" transform="translate(0,190) scale(0.100000,-0.100000)">
    <path d="M0 950 l0 -950 3149 0 3149 0 148 178 c194 233 243 292 268 322 12
    13 -15 -9 -59 -49 -44 -40 -110 -93 -146 -117 -106 -73 -181 -69 -183 8 l-1
    34 -62 -42 c-35 -24 -79 -46 -99 -50 -20 -4 -46 -2 -60 5 -26 11 -44 47 -44
    84 0 12 12 46 25 76 34 73 136 170 227 216 51 25 84 35 119 35 50 0 79 -17 79
    -48 1 -13 8 -8 30 15 25 28 37 33 75 33 25 0 45 -3 45 -7 0 -4 -15 -23 -34
    -43 -57 -60 -208 -253 -224 -287 -9 -18 -13 -35 -10 -39 14 -13 66 9 123 51
    33 25 111 90 172 145 95 85 181 176 353 377 22 26 36 33 64 33 20 0 36 -4 36
    -9 0 -5 -3 -11 -8 -13 -4 -1 -56 -66 -116 -143 -60 -77 -121 -153 -135 -169
    l-26 -30 30 23 c75 55 136 91 183 106 48 16 54 16 77 1 19 -13 25 -25 25 -55
    0 -44 -25 -85 -109 -179 -61 -70 -101 -122 -101 -134 0 -4 13 -8 28 -8 15 0
    50 14 78 31 93 59 232 180 304 264 71 83 73 85 117 85 25 0 43 -4 41 -9 -1 -6
    -48 -65 -104 -133 -56 -68 -116 -144 -134 -169 -18 -26 -29 -52 -26 -58 12
    -19 51 -12 101 20 27 17 81 58 120 89 75 63 141 129 224 228 l53 62 -46 0
    c-34 0 -46 4 -46 15 0 12 13 15 59 15 l58 0 79 97 c78 97 80 98 127 101 26 2
    47 0 47 -3 0 -3 -34 -48 -75 -98 l-76 -92 56 -3 c38 -2 55 -7 52 -15 -2 -7
    -30 -13 -70 -15 l-67 -3 -103 -126 c-56 -69 -121 -152 -144 -186 -24 -33 -43
    -69 -43 -79 0 -13 7 -18 25 -18 56 0 152 68 315 225 111 107 196 155 271 155
    50 0 79 -18 79 -48 0 -11 9 -7 33 16 26 26 41 32 75 32 23 0 42 -3 42 -6 0 -3
    -33 -44 -72 -92 -111 -132 -158 -193 -179 -234 -21 -41 -13 -54 25 -44 25 6
    134 87 229 170 32 28 104 107 159 176 56 69 131 159 167 200 97 112 258 275
    326 329 33 27 79 58 102 70 23 11 55 21 71 21 15 0 33 -5 40 -12 7 -7 12 -23
    12 -35 0 -13 -9 -42 -21 -65 -11 -22 -60 -81 -107 -130 -48 -50 -125 -121
    -172 -158 -47 -37 -139 -103 -205 -147 -109 -73 -127 -89 -195 -179 -42 -54
    -88 -119 -104 -142 -15 -24 -28 -56 -29 -70 -2 -25 1 -27 36 -26 45 2 109 42
    217 138 41 36 78 66 82 66 20 0 1 -24 -76 -96 -45 -44 -109 -95 -141 -114 -45
    -26 -69 -34 -108 -35 -42 0 -52 4 -70 27 -19 26 -20 30 -6 81 l15 54 -78 -63
    c-43 -35 -96 -73 -118 -84 -21 -11 -52 -20 -68 -20 -16 0 -37 9 -47 20 -12 13
    -16 30 -13 53 l4 35 -41 -33 c-22 -18 -59 -42 -82 -54 -23 -11 -56 -21 -72
    -21 -20 0 -36 9 -51 28 -18 21 -21 36 -18 74 l5 47 -51 -45 c-28 -25 -78 -58
    -110 -74 -33 -17 -74 -30 -93 -30 -20 0 -41 8 -53 20 -11 11 -20 31 -20 45 0
    14 7 41 15 61 l14 35 -49 -43 c-27 -24 -74 -58 -104 -77 -30 -18 -73 -35 -96
    -38 -30 -4 -45 -1 -60 12 -25 22 -26 74 -4 117 16 31 15 30 -35 -13 -28 -24
    -75 -59 -105 -78 -30 -18 -73 -35 -96 -38 -30 -4 -45 -1 -60 12 -12 11 -20 31
    -20 50 0 17 13 51 28 76 16 24 63 82 105 127 44 47 77 93 77 104 0 18 -4 20
    -32 14 -18 -3 -56 -21 -85 -39 -28 -17 -91 -65 -138 -106 -75 -64 -169 -171
    -418 -473 l-39 -48 1701 0 1701 0 0 950 0 950 -4900 0 -4900 0 0 -950z m2725
    690 c3 -5 -23 -23 -59 -39 -36 -16 -86 -44 -111 -61 l-47 -32 35 -37 c20 -20
    46 -56 59 -81 20 -38 23 -60 23 -145 0 -92 -3 -105 -32 -168 -23 -48 -54 -90
    -102 -138 -49 -50 -90 -79 -142 -104 -41 -19 -98 -39 -128 -45 -29 -5 -74 -10
    -100 -9 -25 0 -62 6 -81 13 -19 7 -37 21 -38 30 -3 15 0 16 20 9 12 -4 55 -8
    93 -8 60 0 81 5 139 34 75 36 163 117 214 195 17 27 42 74 54 105 16 41 22 78
    22 136 1 63 -4 89 -21 121 -12 22 -28 46 -37 53 -12 10 -24 3 -75 -49 -34 -34
    -90 -98 -126 -143 -36 -45 -120 -163 -187 -262 -67 -99 -158 -229 -203 -290
    -46 -60 -122 -148 -171 -195 -195 -187 -397 -280 -609 -280 -51 0 -113 6 -141
    15 -58 17 -109 65 -119 112 -4 21 -1 42 9 62 9 17 25 35 35 41 11 5 29 10 40
    10 27 0 61 -34 61 -60 0 -11 -9 -29 -21 -41 -15 -15 -30 -20 -50 -17 -16 3
    -29 0 -29 -5 0 -4 13 -21 28 -37 16 -15 46 -33 68 -39 50 -14 139 -14 206 0
    29 6 82 24 117 40 35 16 93 51 130 78 76 57 209 192 297 301 34 41 128 165
    211 275 83 110 186 240 229 288 43 49 117 122 165 162 l87 73 -38 21 c-52 29
    -177 60 -275 67 -44 4 -126 1 -182 -5 -55 -7 -143 -23 -195 -37 -51 -13 -140
    -47 -196 -74 -57 -28 -137 -73 -178 -101 -41 -29 -110 -90 -154 -136 -96 -101
    -149 -199 -157 -291 -3 -33 -3 -72 1 -85 9 -38 55 -88 101 -108 28 -13 64 -19
    120 -19 56 0 103 7 157 24 42 13 103 38 135 56 125 70 245 173 327 283 19 26
    42 71 51 100 12 39 13 59 5 84 -8 24 -20 35 -47 44 -20 6 -61 9 -93 6 -31 -2
    -84 -16 -119 -30 -34 -14 -87 -40 -117 -58 -31 -19 -88 -63 -127 -99 -39 -36
    -95 -98 -125 -138 -29 -41 -56 -71 -59 -68 -9 9 57 111 114 175 30 34 81 81
    112 105 74 58 172 110 240 130 30 9 79 16 108 16 30 0 69 -6 88 -14 76 -32 85
    -132 22 -258 -20 -40 -55 -95 -79 -122 -23 -27 -75 -75 -116 -107 -40 -32
    -106 -75 -147 -94 -40 -20 -110 -45 -156 -56 -63 -16 -104 -20 -175 -17 -78 3
    -101 8 -150 33 -49 25 -63 39 -87 85 -26 49 -28 63 -25 125 3 39 15 95 27 128
    13 32 50 94 83 139 34 44 93 106 132 139 39 32 105 78 147 103 41 25 113 61
    160 81 46 20 128 48 183 61 54 14 146 29 204 34 62 5 145 4 197 -1 99 -10 205
    -38 275 -74 l45 -23 64 39 c36 21 87 48 115 58 28 11 54 20 58 20 4 1 10 -3
    13 -9z m3239 -159 c16 -3 31 -10 33 -16 2 -6 -51 -10 -144 -10 -123 0 -162 -4
    -231 -23 -46 -12 -111 -35 -145 -51 -34 -15 -91 -50 -125 -76 -35 -26 -80 -72
    -100 -102 -27 -41 -37 -67 -40 -108 -3 -32 1 -68 8 -85 7 -17 25 -41 41 -54
    16 -14 53 -33 82 -44 29 -11 76 -22 104 -24 l50 -3 89 84 c49 47 123 112 164
    145 41 33 122 90 180 128 117 77 293 166 385 196 33 11 92 25 132 31 52 9 81
    10 111 2 44 -12 72 -46 72 -86 0 -14 -9 -43 -20 -65 -11 -21 -43 -62 -72 -90
    -29 -28 -90 -77 -136 -107 -93 -62 -254 -137 -394 -184 -110 -37 -289 -79
    -339 -79 -21 0 -47 -8 -62 -20 -43 -34 -148 -180 -185 -259 -43 -90 -53 -169
    -28 -216 10 -17 30 -39 46 -49 16 -9 51 -19 78 -23 26 -3 75 0 107 7 33 7 89
    25 123 41 35 16 92 49 127 74 35 24 86 70 114 102 61 68 89 132 75 171 -5 15
    -23 33 -39 41 -24 12 -40 12 -85 3 -30 -7 -79 -24 -108 -38 -30 -14 -87 -53
    -128 -86 -40 -33 -97 -91 -125 -129 -29 -38 -56 -69 -61 -69 -5 0 1 18 13 40
    39 68 115 156 181 205 35 26 91 61 125 76 34 16 86 32 115 35 72 8 124 -13
    143 -60 12 -29 12 -42 1 -84 -7 -28 -30 -74 -52 -102 -21 -28 -66 -74 -99
    -101 -33 -28 -100 -70 -150 -94 -49 -24 -115 -49 -146 -55 -77 -17 -184 -10
    -234 16 -22 11 -53 40 -70 63 -24 34 -30 54 -33 112 -3 38 1 91 8 117 15 61
    62 154 111 219 l39 52 -48 7 c-73 10 -151 43 -193 81 -21 19 -45 54 -55 78
    -20 54 -16 133 11 190 11 22 46 68 80 101 39 39 87 75 132 98 64 32 172 67
    243 79 39 7 292 5 324 -2z m-1156 -213 c7 -7 12 -25 12 -40 0 -16 -9 -47 -20
    -69 -26 -50 -142 -173 -236 -250 -40 -32 -133 -99 -207 -149 -124 -82 -141
    -97 -205 -182 -38 -51 -82 -113 -97 -137 -15 -24 -30 -62 -32 -83 l-6 -38 37
    0 c40 0 107 30 172 78 23 17 71 58 106 91 61 57 88 73 88 52 0 -15 -153 -154
    -212 -194 -32 -21 -76 -44 -99 -52 -23 -8 -56 -15 -74 -15 -18 0 -44 9 -59 21
    -21 16 -26 29 -26 62 0 23 9 61 19 84 l20 42 -86 -74 c-47 -41 -112 -88 -143
    -104 -56 -30 -103 -39 -127 -23 -18 11 -33 59 -26 79 5 12 -9 6 -43 -18 -27
    -20 -63 -44 -81 -53 -47 -23 -89 -20 -118 9 -19 18 -25 35 -25 65 0 23 5 51
    11 63 l11 22 -20 -21 c-34 -36 -134 -110 -179 -133 -23 -11 -57 -21 -74 -21
    -18 0 -41 7 -51 17 -27 24 -23 81 8 128 15 22 52 69 84 105 61 70 90 110 90
    122 0 5 -13 8 -28 8 -17 0 -56 -18 -93 -41 -35 -23 -128 -106 -208 -186 -140
    -141 -146 -145 -188 -147 -24 -1 -42 2 -41 6 2 4 53 66 113 139 61 73 120 147
    133 165 12 18 22 40 22 48 0 9 -8 16 -18 16 -10 0 -29 -7 -42 -16 -14 -9 -72
    -63 -130 -119 -58 -56 -130 -123 -160 -149 -30 -26 -76 -59 -102 -72 -26 -13
    -61 -24 -77 -24 -16 0 -37 7 -46 17 -11 11 -16 28 -13 54 l3 38 -30 -24 c-54
    -45 -114 -77 -153 -82 -28 -4 -44 0 -62 15 -21 17 -25 29 -24 69 0 29 10 66
    24 93 12 25 51 73 85 106 78 76 187 134 253 134 28 0 52 -6 64 -17 10 -9 18
    -23 18 -32 1 -11 10 -6 29 17 23 27 34 32 69 32 23 0 42 -5 42 -10 0 -6 -40
    -59 -89 -118 -103 -124 -171 -220 -171 -239 0 -22 44 -14 93 17 26 16 112 93
    192 170 79 76 162 148 184 160 22 11 51 20 65 20 13 0 32 -7 40 -16 9 -8 16
    -30 16 -47 0 -18 -7 -45 -15 -60 l-14 -28 40 33 c111 90 167 120 217 116 27
    -2 40 -10 51 -29 12 -22 13 -34 3 -67 -7 -22 -42 -77 -80 -122 -79 -97 -112
    -142 -112 -152 0 -4 13 -8 28 -8 31 0 100 40 177 104 28 22 91 78 140 124 57
    52 115 96 159 118 53 26 81 34 122 34 50 0 56 -3 73 -31 l19 -30 21 30 c20 27
    28 31 72 31 27 0 49 -2 49 -6 0 -3 -26 -35 -58 -72 -74 -87 -186 -231 -201
    -260 -7 -12 -9 -27 -6 -32 3 -6 13 -10 21 -10 8 0 29 7 47 17 90 46 292 226
    385 343 172 216 361 422 461 502 42 34 94 69 116 79 22 10 51 19 66 19 14 0
    30 -5 37 -12z m2864 -345 c10 -9 18 -24 18 -35 0 -26 -36 -58 -65 -58 -17 0
    -29 8 -36 24 -8 17 -8 29 1 45 6 12 21 26 33 31 12 5 24 9 26 9 3 1 13 -6 23
    -16z M6429 1429 c-106 -25 -265 -110 -423 -227 -101 -75 -201 -160 -306 -260
    -46 -44 -51 -52 -30 -48 14 3 57 10 95 17 98 16 312 88 425 142 52 25 136 72
    185 105 97 64 165 126 196 176 10 17 19 41 19 53 0 12 -10 29 -22 37 -24 17
    -81 19 -139 5z M4710 1219 c-19 -12 -66 -54 -104 -93 -67 -70 -258 -293 -298
    -349 -17 -24 -8 -20 53 24 136 96 193 143 288 234 96 92 147 164 137 190 -3 8
    -13 15 -23 15 -10 0 -34 -10 -53 -21z M2405 653 c-51 -28 -112 -82 -169 -152
    -57 -70 -102 -154 -91 -171 11 -18 51 -10 98 20 26 16 68 49 93 72 26 24 68
    71 95 106 52 69 70 119 48 133 -8 5 -21 9 -29 8 -8 0 -28 -7 -45 -16z M3650
    642 c-58 -37 -154 -136 -202 -208 -22 -33 -38 -68 -38 -85 0 -25 4 -29 29 -29
    40 0 141 70 203 141 80 90 109 139 106 174 -2 24 -8 31 -28 33 -15 2 -44 -9
    -70 -26z M9164 1222 c-68 -50 -227 -224 -389 -426 l-40 -50 50 34 c104 71 223
    168 314 255 52 49 107 108 122 129 16 21 29 50 29 63 0 17 -6 23 -23 23 -13 0
    -42 -13 -63 -28z M6385 648 c-50 -26 -162 -139 -210 -211 -20 -30 -37 -67 -38
    -83 -2 -23 2 -30 21 -32 12 -2 43 9 69 23 25 15 76 57 112 94 70 68 123 139
    135 179 9 26 -8 52 -33 52 -9 -1 -34 -10 -56 -22z M8143 649 c-23 -11 -75 -56
    -117 -99 -113 -118 -169 -230 -116 -230 42 0 107 45 191 130 85 86 134 162
    127 197 -2 10 -12 19 -23 21 -11 1 -39 -7 -62 -19z"/>
  </g>
  <g fill="#f1ead8" fill-opacity="0.04687500" stroke="none" transform="translate(0,190) scale(0.100000,-0.100000)">
    <path d="M6694 528 c-4 -7 -3 -8 4 -4 12 7 16 16 8 16 -3 0 -8 -5 -12 -12z
    M2713 283 c4 -3 10 -3 14 0 3 4 0 7 -7 7 -7 0 -10 -3 -7 -7z"/>
  </g>
  <g fill="#f1ead8" fill-opacity="0.07812500" stroke="none" transform="translate(0,190) scale(0.100000,-0.100000)">
    <path d="M3600 350 c0 -7 3 -10 7 -7 3 4 3 10 0 14 -4 3 -7 0 -7 -7z"/>
  </g>
  <g fill="#f1ead8" fill-opacity="0.10937500" stroke="none" transform="translate(0,190) scale(0.100000,-0.100000)">
    <path d=""/>
  </g>
  <g fill="#f1ead8" fill-opacity="0.14062500" stroke="none" transform="translate(0,190) scale(0.100000,-0.100000)">
    <path d="M2053 1633 c4 -3 10 -3 14 0 3 4 0 7 -7 7 -7 0 -10 -3 -7 -7z"/>
  </g>
  <g fill="#f1ead8" fill-opacity="0.17187500" stroke="none" transform="translate(0,190) scale(0.100000,-0.100000)">
    <path d="M2234 1328 c-4 -7 -3 -8 4 -4 12 7 16 16 8 16 -3 0 -8 -5 -12 -12z
    M7953 953 c4 -3 10 -3 14 0 3 4 0 7 -7 7 -7 0 -10 -3 -7 -7z M2759 553 c-13
    -16 -12 -17 4 -4 16 13 21 21 13 21 -2 0 -10 -8 -17 -17z"/>
  </g>
  <g fill="#f1ead8" fill-opacity="0.20312500" stroke="none" transform="translate(0,190) scale(0.100000,-0.100000)">
    <path d=""/>
  </g>
  <g fill="#f1ead8" fill-opacity="0.23437500" stroke="none" transform="translate(0,190) scale(0.100000,-0.100000)">
    <path d=""/>
  </g>
  <g fill="#f1ead8" fill-opacity="0.26562500" stroke="none" transform="translate(0,190) scale(0.100000,-0.100000)">
    <path d="M9134 1068 c-4 -7 -3 -8 4 -4 12 7 16 16 8 16 -3 0 -8 -5 -12 -12z
    M2719 513 c-13 -16 -12 -17 4 -4 16 13 21 21 13 21 -2 0 -10 -8 -17 -17z"/>
  </g>
  <g fill="#f1ead8" fill-opacity="0.29687500" stroke="none" transform="translate(0,190) scale(0.100000,-0.100000)">
    <path d=""/>
  </g>
  <g fill="#f1ead8" fill-opacity="0.32812500" stroke="none" transform="translate(0,190) scale(0.100000,-0.100000)">
    <path d="M2264 1358 c-4 -7 -3 -8 4 -4 7 4 12 9 12 12 0 8 -9 4 -16 -8z M9094
    1028 c-4 -7 -3 -8 4 -4 7 4 12 9 12 12 0 8 -9 4 -16 -8z M8003 953 c4 -3 10
    -3 14 0 3 4 0 7 -7 7 -7 0 -10 -3 -7 -7z M2704 538 c-4 -7 -3 -8 4 -4 7 4 12
    9 12 12 0 8 -9 4 -16 -8z M2654 448 c-4 -7 -3 -8 4 -4 12 7 16 16 8 16 -3 0
    -8 -5 -12 -12z"/>
  </g>
  <g fill="#f1ead8" fill-opacity="0.35937500" stroke="none" transform="translate(0,190) scale(0.100000,-0.100000)">
    <path d=""/>
  </g>
  <g fill="#f1ead8" fill-opacity="0.39062500" stroke="none" transform="translate(0,190) scale(0.100000,-0.100000)">
    <path d="M1584 528 c-4 -7 -3 -8 4 -4 12 7 16 16 8 16 -3 0 -8 -5 -12 -12z"/>
  </g>
  <g fill="#f1ead8" fill-opacity="0.42187500" stroke="none" transform="translate(0,190) scale(0.100000,-0.100000)">
    <path d="M2744 578 c-4 -7 -3 -8 4 -4 12 7 16 16 8 16 -3 0 -8 -5 -12 -12z
    M3419 543 c-13 -16 -12 -17 4 -4 16 13 21 21 13 21 -2 0 -10 -8 -17 -17z"/>
  </g>
  <g fill="#f1ead8" fill-opacity="0.45312500" stroke="none" transform="translate(0,190) scale(0.100000,-0.100000)">
    <path d="M2764 598 c-4 -7 -3 -8 4 -4 7 4 12 9 12 12 0 8 -9 4 -16 -8z"/>
  </g>
  <g fill="#f1ead8" fill-opacity="0.48437500" stroke="none" transform="translate(0,190) scale(0.100000,-0.100000)">
    <path d=""/>
  </g>
  <g fill="#f1ead8" fill-opacity="0.51562500" stroke="none" transform="translate(0,190) scale(0.100000,-0.100000)">
    <path d=""/>
  </g>
  <g fill="#f1ead8" fill-opacity="0.54687500" stroke="none" transform="translate(0,190) scale(0.100000,-0.100000)">
    <path d=""/>
  </g>
  <g fill="#f1ead8" fill-opacity="0.57812500" stroke="none" transform="translate(0,190) scale(0.100000,-0.100000)">
    <path d=""/>
  </g>
  <g fill="#f1ead8" fill-opacity="0.60937500" stroke="none" transform="translate(0,190) scale(0.100000,-0.100000)">
    <path d="M2623 693 c4 -3 10 -3 14 0 3 4 0 7 -7 7 -7 0 -10 -3 -7 -7z"/>
  </g>
  <g fill="#f1ead8" fill-opacity="0.64062500" stroke="none" transform="translate(0,190) scale(0.100000,-0.100000)">
    <path d="M6843 553 c4 -3 10 -3 14 0 3 4 0 7 -7 7 -7 0 -10 -3 -7 -7z"/>
  </g>
  <g fill="#f1ead8" fill-opacity="0.67187500" stroke="none" transform="translate(0,190) scale(0.100000,-0.100000)">
    <path d="M3868 693 c6 -2 18 -2 25 0 6 3 1 5 -13 5 -14 0 -19 -2 -12 -5z"/>
  </g>
  <g fill="#f1ead8" fill-opacity="0.70312500" stroke="none" transform="translate(0,190) scale(0.100000,-0.100000)">
    <path d="M8363 693 c4 -3 10 -3 14 0 3 4 0 7 -7 7 -7 0 -10 -3 -7 -7z M975
    470 c3 -5 8 -10 11 -10 3 0 2 5 -1 10 -3 6 -8 10 -11 10 -3 0 -2 -4 1 -10z"/>
  </g>
  <g fill="#f1ead8" fill-opacity="0.73437500" stroke="none" transform="translate(0,190) scale(0.100000,-0.100000)">
    <path d=""/>
  </g>
  <g fill="#f1ead8" fill-opacity="0.76562500" stroke="none" transform="translate(0,190) scale(0.100000,-0.100000)">
    <path d=""/>
  </g>
  <g fill="#f1ead8" fill-opacity="0.79687500" stroke="none" transform="translate(0,190) scale(0.100000,-0.100000)">
    <path d=""/>
  </g>
  <g fill="#f1ead8" fill-opacity="0.82812500" stroke="none" transform="translate(0,190) scale(0.100000,-0.100000)">
    <path d="M7903 733 c4 -3 10 -3 14 0 3 4 0 7 -7 7 -7 0 -10 -3 -7 -7z"/>
  </g>
  <g fill="#f1ead8" fill-opacity="0.85937500" stroke="none" transform="translate(0,190) scale(0.100000,-0.100000)">
    <path d="M1843 1343 c4 -3 10 -3 14 0 3 4 0 7 -7 7 -7 0 -10 -3 -7 -7z"/>
  </g>
  <g fill="#f1ead8" fill-opacity="0.89062500" stroke="none" transform="translate(0,190) scale(0.100000,-0.100000)">
    <path d=""/>
  </g>
  <g fill="#f1ead8" fill-opacity="0.92187500" stroke="none" transform="translate(0,190) scale(0.100000,-0.100000)">
    <path d="M7873 733 c4 -3 10 -3 14 0 3 4 0 7 -7 7 -7 0 -10 -3 -7 -7z M7938
    733 c7 -3 16 -2 19 1 4 3 -2 6 -13 5 -11 0 -14 -3 -6 -6z"/>
  </g>
  <g fill="#f1ead8" fill-opacity="0.95312500" stroke="none" transform="translate(0,190) scale(0.100000,-0.100000)">
    <path d=""/>
  </g>
  <g fill="#f1ead8" fill-opacity="0.98437500" stroke="none" transform="translate(0,190) scale(0.100000,-0.100000)">
    <path d="M2661 1630 c-29 -11 -83 -38 -118 -60 l-65 -40 -61 29 c-34 16 -93
    37 -132 47 -55 15 -105 19 -240 19 -151 -1 -182 -4 -276 -27 -58 -15 -148 -45
    -199 -67 -154 -66 -245 -127 -356 -236 -85 -84 -108 -114 -143 -186 -30 -60
    -44 -103 -48 -145 -3 -32 0 -78 6 -102 7 -24 28 -61 47 -82 50 -55 114 -75
    239 -75 76 0 118 6 175 24 41 12 109 40 150 62 83 43 174 117 240 194 24 28
    59 84 79 125 28 59 36 87 36 131 0 43 -5 63 -20 79 -11 13 -34 29 -52 36 -18
    8 -49 14 -69 14 -60 0 -154 -29 -236 -72 -82 -44 -168 -114 -241 -196 -48 -54
    -103 -140 -95 -148 3 -2 21 20 41 50 20 30 67 86 106 124 38 38 104 91 146
    117 42 27 107 59 143 73 82 30 178 34 216 9 14 -10 29 -29 32 -44 4 -15 2 -47
    -5 -72 -6 -25 -28 -70 -48 -99 -19 -29 -68 -84 -107 -123 -39 -39 -108 -96
    -154 -126 -46 -31 -116 -68 -156 -84 -40 -16 -105 -34 -144 -40 -54 -9 -85 -9
    -129 0 -31 6 -74 22 -95 36 -21 14 -45 40 -54 57 -10 19 -17 57 -18 88 0 30 8
    78 18 107 9 28 36 80 58 115 22 35 71 93 108 129 37 37 102 90 144 119 43 28
    119 71 169 95 51 25 131 56 179 69 48 14 127 30 175 37 51 7 139 9 208 6 91
    -4 140 -12 202 -31 44 -15 91 -34 103 -44 l22 -18 -38 -29 c-62 -46 -190 -173
    -268 -265 -40 -47 -131 -164 -203 -261 -72 -97 -176 -230 -232 -297 -103 -123
    -208 -221 -296 -277 -27 -18 -81 -45 -120 -60 -53 -22 -92 -30 -160 -33 -49
    -2 -108 1 -131 7 -46 12 -94 51 -94 76 0 12 6 15 20 10 11 -3 28 -4 38 0 11 3
    24 17 31 31 8 18 8 31 1 44 -6 11 -19 24 -30 30 -10 5 -27 7 -37 3 -10 -3 -28
    -15 -40 -26 -17 -15 -23 -32 -23 -65 0 -37 6 -50 33 -77 22 -22 54 -39 92 -51
    46 -13 82 -15 160 -11 60 3 128 14 170 27 39 12 110 43 158 68 48 25 123 74
    166 109 44 35 108 96 144 135 77 87 174 219 287 388 127 191 240 339 324 426
    l77 79 29 -32 c16 -18 34 -52 41 -75 6 -24 9 -75 7 -114 -4 -55 -13 -87 -42
    -148 -29 -59 -57 -98 -115 -156 -50 -50 -97 -87 -136 -106 -54 -26 -70 -29
    -157 -29 -54 0 -98 -3 -98 -6 0 -11 49 -28 97 -34 65 -9 183 17 263 57 37 19
    92 59 127 94 45 44 73 83 100 140 35 73 38 86 38 169 0 71 -5 100 -21 136 -12
    26 -39 65 -59 88 l-37 41 23 20 c13 11 61 38 107 61 45 23 82 45 82 50 0 5 -1
    9 -2 9 -2 -1 -27 -9 -57 -20z M5617 1475 c-85 -16 -178 -50 -254 -93 -27 -14
    -72 -50 -101 -79 -119 -118 -133 -262 -36 -359 31 -32 59 -48 109 -63 37 -12
    82 -21 101 -21 19 0 34 -2 34 -4 0 -3 -25 -41 -55 -86 -30 -45 -64 -107 -76
    -139 -12 -31 -24 -86 -27 -124 -3 -49 0 -79 12 -111 10 -25 35 -61 56 -80 21
    -19 58 -40 82 -47 24 -6 73 -9 113 -6 39 3 99 15 135 27 36 12 97 40 135 62
    39 23 103 74 142 114 40 39 82 91 93 115 26 58 26 119 0 147 -29 31 -83 43
    -144 32 -28 -6 -83 -26 -122 -45 -40 -19 -100 -61 -138 -96 -64 -59 -128 -135
    -155 -187 -20 -37 6 -25 30 15 33 53 104 128 171 180 32 24 87 57 122 74 36
    17 89 33 118 36 44 4 57 2 81 -17 18 -15 27 -31 27 -51 0 -16 -7 -46 -15 -65
    -8 -20 -45 -67 -82 -106 -37 -38 -99 -89 -138 -113 -38 -24 -106 -56 -150 -70
    -64 -22 -93 -26 -151 -23 -59 3 -77 8 -107 31 -47 35 -63 88 -48 158 19 89 89
    207 194 330 38 45 43 47 107 53 91 9 304 66 420 111 190 75 323 152 427 249
    62 57 103 123 103 165 0 12 -14 36 -31 53 -30 30 -31 31 -112 26 -54 -4 -114
    -16 -174 -36 -51 -17 -125 -48 -165 -68 -111 -55 -230 -129 -337 -208 -53 -40
    -147 -119 -210 -176 l-114 -104 -69 12 c-38 7 -86 21 -106 31 -20 11 -49 32
    -64 48 -31 32 -48 72 -48 111 0 41 44 126 90 176 46 50 137 110 217 144 28 12
    89 31 135 42 62 15 119 20 223 20 108 1 136 3 121 12 -11 6 -80 12 -155 14
    -92 2 -162 -1 -214 -11z m954 -45 c29 -16 25 -69 -9 -116 -33 -45 -99 -102
    -187 -161 -91 -61 -250 -138 -378 -182 -112 -38 -284 -81 -329 -81 -19 0 -15
    8 32 56 77 77 238 213 345 289 103 74 263 160 344 186 63 20 152 24 182 9z
    M9156 1258 c-32 -18 -98 -67 -147 -110 -48 -43 -129 -124 -180 -181 -51 -56
    -149 -172 -219 -257 -70 -85 -149 -175 -176 -200 -72 -67 -184 -155 -221 -174
    -18 -9 -41 -16 -53 -16 -11 0 -20 6 -20 14 0 7 18 40 40 72 42 63 205 264 224
    276 6 4 -11 8 -38 8 -44 0 -53 -4 -77 -32 -25 -29 -28 -31 -29 -12 0 11 -8 28
    -18 37 -11 10 -35 17 -59 17 -26 0 -65 -13 -113 -36 -52 -26 -99 -62 -169
    -130 -144 -139 -221 -195 -297 -218 -13 -4 -26 -1 -32 7 -9 10 -6 23 9 53 12
    21 74 104 138 184 64 80 124 153 134 163 14 14 32 18 70 17 71 -2 77 -1 77 10
    0 6 -25 10 -55 10 -30 0 -55 3 -55 7 0 3 34 46 75 95 l75 88 -48 0 -48 0 -77
    -94 -77 -95 -57 -3 c-70 -4 -84 -25 -19 -30 l46 -3 -79 -95 c-44 -52 -123
    -132 -178 -178 -98 -82 -212 -150 -232 -137 -30 18 -4 59 166 263 l94 112 -48
    -1 c-48 0 -49 -1 -123 -87 -42 -48 -116 -120 -165 -160 -93 -75 -206 -139
    -224 -127 -6 3 -11 12 -11 19 0 7 39 57 86 112 47 54 94 116 105 136 10 21 19
    48 19 62 0 13 -7 32 -16 40 -8 9 -30 16 -48 16 -18 0 -59 -13 -92 -30 -32 -16
    -85 -52 -116 -80 -32 -29 -58 -47 -58 -42 0 5 7 15 15 22 9 7 61 72 117 144
    56 72 115 148 132 168 16 21 27 40 24 43 -3 3 -19 2 -36 -1 -24 -5 -49 -27
    -104 -93 -152 -183 -388 -407 -507 -483 -53 -33 -91 -37 -91 -9 0 21 74 122
    189 261 l71 85 -42 3 c-38 3 -46 0 -67 -26 l-25 -30 -15 32 c-15 29 -19 31
    -71 30 -40 0 -71 -8 -115 -30 -33 -16 -91 -59 -130 -96 -39 -36 -81 -86 -93
    -111 -13 -26 -22 -63 -22 -91 0 -33 6 -52 21 -67 16 -16 29 -20 55 -16 18 3
    48 13 67 22 19 9 53 32 75 51 22 19 42 34 44 34 2 0 2 -17 0 -38 -3 -28 1 -42
    17 -56 15 -14 29 -17 55 -12 20 4 68 29 108 56 40 27 113 86 163 132 l90 83
    -76 -90 c-141 -168 -365 -440 -373 -452 -5 -10 4 -13 36 -13 42 0 46 3 103 73
    190 232 306 365 373 428 43 39 107 91 144 115 66 44 130 65 141 47 3 -5 -2
    -21 -11 -35 -9 -14 -51 -65 -93 -112 -42 -47 -84 -101 -93 -120 -9 -19 -16
    -43 -16 -55 0 -12 9 -30 20 -41 11 -11 30 -20 43 -20 47 1 159 65 240 139 l39
    36 -21 -40 c-11 -22 -21 -54 -21 -72 0 -22 7 -37 22 -47 12 -9 32 -16 44 -16
    35 0 135 55 206 114 l67 55 -19 -42 c-11 -23 -20 -49 -20 -58 0 -9 10 -29 22
    -44 18 -23 27 -26 59 -22 21 3 58 15 84 28 25 13 75 47 111 77 61 50 64 51 57
    25 -4 -15 -8 -43 -7 -62 0 -23 8 -40 25 -53 17 -15 33 -18 57 -14 35 5 95 38
    149 82 l32 26 -6 -35 c-4 -27 -1 -39 16 -56 11 -11 31 -21 43 -21 37 0 100 37
    191 110 85 69 86 69 71 34 -8 -20 -14 -54 -12 -77 2 -32 9 -45 29 -56 16 -9
    37 -12 60 -7 19 3 63 23 98 44 73 42 224 179 215 194 -4 5 -27 -10 -53 -35
    -61 -59 -146 -124 -192 -148 -21 -10 -52 -19 -69 -19 -25 0 -30 4 -30 23 0 13
    14 45 31 73 17 27 65 95 107 150 59 78 91 111 137 139 114 72 250 173 343 255
    52 46 118 112 148 149 30 36 60 83 66 103 10 33 9 41 -7 58 -10 11 -28 20 -39
    20 -12 0 -47 -15 -80 -32z m100 -12 c11 -29 -32 -93 -125 -186 -94 -94 -228
    -203 -346 -283 -33 -22 -53 -32 -45 -21 8 10 68 84 135 164 185 223 309 339
    363 340 7 0 15 -6 18 -14z m-2778 -603 c2 -12 -7 -41 -19 -64 -12 -24 -63 -84
    -113 -134 -91 -91 -168 -141 -200 -129 -9 3 -16 16 -16 28 0 35 56 121 126
    196 83 88 148 132 189 128 22 -2 31 -9 33 -25z m1750 -7 c3 -20 -7 -44 -33
    -82 -43 -63 -180 -196 -225 -219 -17 -9 -43 -15 -58 -13 -22 2 -26 7 -24 28 5
    42 63 129 142 209 41 42 91 84 110 94 19 9 46 16 60 15 19 -2 26 -9 28 -32z
    M4689 1248 c-51 -25 -96 -63 -214 -182 -83 -83 -200 -212 -260 -286 -61 -74
    -132 -159 -160 -188 -60 -65 -205 -190 -276 -238 -58 -39 -109 -46 -109 -15 0
    20 68 115 188 261 l70 85 -41 3 c-36 3 -46 -1 -69 -27 -15 -17 -29 -31 -31
    -31 -1 0 -4 10 -4 22 -1 13 -10 29 -20 36 -27 21 -111 8 -180 -27 -34 -17
    -101 -67 -154 -117 -52 -47 -132 -115 -179 -150 -92 -69 -144 -94 -163 -75 -8
    8 -7 17 2 34 7 13 42 57 78 98 36 41 76 98 90 127 22 47 23 57 13 83 -7 17
    -23 32 -37 35 -13 4 -44 -1 -68 -11 -47 -17 -146 -86 -179 -123 -11 -12 -22
    -22 -26 -22 -5 0 1 17 11 37 10 21 19 47 19 58 0 29 -28 65 -51 65 -11 0 -36
    -7 -55 -15 -20 -8 -95 -73 -167 -143 -73 -71 -161 -149 -196 -175 -41 -30 -73
    -47 -92 -47 -18 0 -29 5 -29 14 0 20 54 98 164 234 53 66 96 121 96 123 0 2
    -20 3 -45 1 -35 -3 -50 -11 -69 -33 l-24 -28 -6 24 c-3 13 -16 30 -28 36 -12
    7 -39 9 -65 5 -25 -3 -76 -22 -114 -42 -38 -20 -91 -59 -119 -86 -28 -27 -64
    -73 -80 -101 -22 -38 -30 -65 -30 -99 0 -35 6 -54 20 -68 11 -11 30 -20 43
    -20 34 0 120 44 165 84 l40 36 -5 -44 c-5 -37 -2 -46 18 -60 13 -9 33 -16 44
    -16 12 0 45 12 74 26 34 18 106 78 210 178 86 83 173 160 194 171 28 15 39 17
    48 8 9 -9 5 -22 -14 -55 -14 -24 -78 -105 -142 -180 l-116 -138 48 0 c47 0 49
    1 116 78 37 42 109 114 160 160 97 87 210 153 228 135 8 -8 7 -18 -2 -34 -6
    -13 -43 -60 -81 -104 -39 -44 -78 -97 -89 -117 -10 -21 -19 -49 -19 -63 0 -29
    32 -65 58 -65 54 0 144 50 238 133 30 26 44 34 39 22 -5 -11 -10 -42 -10 -68
    0 -39 5 -53 24 -68 13 -10 34 -19 47 -19 38 0 95 27 146 71 26 21 48 39 50 39
    2 0 2 -18 0 -39 -3 -33 0 -42 22 -56 19 -12 36 -15 61 -11 41 8 155 85 246
    166 l62 54 -22 -42 c-12 -23 -24 -62 -27 -86 -6 -39 -3 -48 21 -71 24 -25 32
    -27 75 -22 27 3 70 17 97 31 27 13 74 43 104 67 76 58 169 151 163 161 -3 5
    -35 -19 -72 -52 -37 -34 -100 -83 -140 -110 -73 -49 -141 -76 -168 -66 -8 3
    -17 12 -20 20 -10 26 40 117 126 232 70 93 95 119 152 154 118 73 282 196 365
    274 44 42 97 99 117 129 44 64 56 116 31 140 -9 9 -24 17 -34 17 -10 0 -47
    -14 -82 -32z m101 -23 c0 -28 -20 -64 -69 -123 -28 -34 -97 -100 -153 -146
    -105 -89 -295 -225 -282 -203 20 33 237 289 311 367 82 86 151 134 179 123 8
    -3 14 -11 14 -18z m-2302 -582 c2 -12 -6 -40 -18 -63 -29 -57 -165 -197 -225
    -231 -27 -16 -63 -29 -79 -29 -27 0 -28 2 -22 33 3 17 26 61 51 97 49 72 129
    154 190 195 26 17 50 25 70 23 22 -2 31 -9 33 -25z m1265 6 c18 -29 -30 -106
    -127 -204 -57 -57 -109 -101 -140 -115 -36 -17 -53 -20 -65 -13 -9 7 -15 22
    -14 38 1 16 19 53 39 84 46 69 167 190 214 214 19 9 46 16 59 15 13 -2 29 -10
    34 -19z M7607 912 c-10 -10 -17 -31 -17 -45 0 -20 6 -28 25 -33 27 -7 49 6 66
    38 14 25 -6 58 -35 58 -13 0 -30 -8 -39 -18z"/>
  </g>
</svg>
