<?xml version="1.0" encoding="UTF-8"?>
<svg xmlns="http://www.w3.org/2000/svg" viewBox="0 0 980 190" width="980" height="190">
  <title>Banded alpha spline reconstruction</title>
  <g fill="#f1ead8" fill-opacity="0.06250000" stroke="none" transform="translate(0,190) scale(0.100000,-0.100000)">
    <path d="M0 950 l0 -950 3149 0 3150 0 147 178 c152 183 232 279 268 322 12
    13 -15 -9 -59 -49 -44 -40 -110 -93 -146 -117 -106 -73 -181 -69 -183 8 l-1
    34 -62 -42 c-35 -24 -79 -46 -99 -50 -20 -4 -46 -2 -60 5 -13 6 -29 23 -35 38
    -6 15 -7 43 -4 62 4 19 16 53 27 76 32 61 139 159 220 200 51 25 84 35 119 35
    50 0 79 -18 79 -48 0 -11 9 -7 33 16 26 26 41 32 75 32 23 0 42 -4 42 -9 0 -5
    -7 -14 -16 -22 -24 -20 -182 -215 -220 -271 -19 -27 -34 -56 -34 -64 0 -26 46
    -14 106 27 87 61 228 185 319 280 44 46 116 127 159 179 44 52 88 99 100 103
    11 4 31 7 43 5 22 -3 17 -12 -59 -108 -45 -58 -108 -138 -141 -178 -32 -40
    -49 -69 -38 -63 11 6 23 16 27 22 12 20 111 78 162 94 48 16 54 16 77 1 19
    -13 25 -25 25 -55 0 -25 -9 -52 -26 -77 -15 -21 -54 -70 -88 -109 -65 -74 -96
    -114 -96 -127 0 -5 13 -8 28 -8 16 0 55 17 88 38 101 66 229 178 299 262 65
    78 68 80 112 80 24 0 43 -4 41 -9 -1 -6 -50 -67 -108 -137 -58 -70 -117 -145
    -132 -167 -16 -22 -28 -46 -28 -54 0 -8 11 -13 29 -13 40 0 155 79 261 178 47
    43 113 114 148 156 l63 76 -45 0 c-34 0 -46 4 -46 15 0 12 13 15 59 15 l58 0
    79 97 c78 97 80 98 127 101 26 2 47 0 47 -3 0 -3 -34 -48 -75 -98 l-76 -92 56
    -3 c38 -2 55 -7 52 -15 -2 -7 -30 -13 -73 -15 -68 -3 -69 -4 -101 -45 -18 -23
    -68 -87 -113 -142 -44 -55 -94 -120 -110 -144 -17 -25 -30 -53 -30 -63 0 -13
    7 -18 25 -18 56 0 149 67 316 226 113 107 195 154 270 154 51 0 79 -18 79 -51
    0 -16 6 -13 31 16 27 30 37 35 75 35 24 0 44 -2 44 -5 0 -3 -45 -60 -100 -126
    -56 -66 -117 -145 -136 -174 -20 -30 -33 -59 -29 -64 3 -6 14 -11 25 -11 10 0
    42 16 70 35 75 50 230 187 270 237 19 24 88 108 154 188 139 167 314 351 401
    420 33 26 79 57 103 69 25 13 57 21 75 19 24 -2 34 -10 41 -31 8 -21 5 -37
    -12 -73 -12 -24 -61 -86 -110 -136 -48 -49 -125 -121 -172 -158 -47 -37 -139
    -103 -206 -148 -115 -76 -125 -86 -210 -199 -49 -65 -98 -134 -108 -154 -11
    -21 -16 -44 -12 -54 5 -14 14 -16 43 -12 20 4 59 22 87 40 28 19 85 64 126
    101 41 36 78 66 82 66 20 0 1 -24 -76 -96 -45 -44 -109 -95 -141 -114 -45 -26
    -69 -34 -108 -35 -42 0 -52 4 -70 27 -19 26 -20 30 -6 81 l15 54 -78 -63 c-43
    -35 -96 -73 -118 -84 -21 -11 -52 -20 -68 -20 -16 0 -37 9 -47 20 -12 13 -16
    30 -13 53 l4 35 -41 -33 c-22 -18 -59 -42 -82 -54 -23 -11 -56 -21 -72 -21
    -20 0 -36 9 -51 28 -18 21 -21 36 -18 74 l5 47 -51 -45 c-28 -25 -78 -58 -110
    -74 -33 -17 -74 -30 -93 -30 -20 0 -41 8 -53 20 -11 11 -20 31 -20 45 0 14 7
    41 15 61 l14 35 -49 -43 c-27 -24 -74 -58 -104 -77 -30 -18 -73 -35 -96 -38
    -30 -4 -45 -1 -60 12 -25 22 -26 74 -4 117 16 31 15 30 -35 -13 -28 -24 -75
    -60 -106 -78 -31 -19 -74 -36 -99 -38 -37 -5 -46 -2 -60 18 -9 13 -16 35 -16
    49 0 14 13 46 28 71 16 24 63 82 105 127 42 46 77 92 77 103 0 30 -39 23 -108
    -18 -34 -21 -101 -71 -148 -112 -73 -63 -179 -184 -417 -473 l-39 -48 1701 0
    1701 0 0 950 0 950 -4900 0 -4900 0 0 -950z m2724 691 c3 -4 -32 -26 -77 -49
    -46 -23 -96 -51 -111 -63 l-27 -22 35 -36 c19 -20 47 -62 62 -94 24 -53 26
    -68 22 -147 -3 -74 -9 -98 -38 -156 -46 -95 -142 -189 -240 -237 -44 -22 -105
    -42 -148 -49 -56 -9 -85 -9 -129 0 -31 6 -61 16 -66 21 -5 5 -6 14 -3 20 4 7
    16 6 37 -1 17 -6 58 -8 91 -5 89 8 178 56 260 139 48 49 79 92 110 155 41 82
    43 91 43 172 0 69 -4 94 -22 127 -12 22 -28 46 -37 53 -13 11 -26 2 -87 -61
    -84 -86 -200 -239 -329 -433 -51 -77 -124 -182 -163 -234 -38 -52 -107 -134
    -154 -182 -47 -49 -125 -116 -174 -149 -48 -33 -119 -74 -156 -91 -37 -17
    -101 -39 -142 -50 -90 -23 -237 -25 -306 -5 -26 8 -61 27 -76 42 -16 15 -33
    42 -39 60 -9 25 -8 40 4 68 9 22 26 40 41 46 15 6 33 10 41 10 21 0 54 -37 54
    -60 0 -11 -9 -29 -21 -41 -15 -15 -30 -20 -50 -17 -16 3 -29 0 -29 -5 0 -4 13
    -21 28 -37 16 -15 46 -33 68 -39 54 -15 159 -14 221 3 67 18 151 57 210 97 72
    50 215 191 307 304 45 55 148 188 228 295 80 107 183 237 228 287 45 51 121
    124 167 163 l85 70 -54 25 c-29 13 -80 31 -113 40 -33 8 -107 18 -165 21 -73
    4 -137 1 -210 -10 -57 -9 -143 -28 -190 -42 -47 -14 -125 -46 -175 -71 -49
    -24 -122 -67 -162 -95 -41 -28 -109 -89 -153 -135 -55 -58 -91 -107 -117 -160
    -35 -70 -38 -84 -38 -159 0 -78 2 -84 30 -115 17 -17 48 -40 70 -50 28 -13 64
    -19 122 -19 60 0 103 7 160 25 43 13 118 48 166 77 48 28 122 83 164 122 42
    39 96 97 120 130 24 32 50 83 59 113 13 44 14 60 4 83 -6 15 -25 34 -41 40
    -42 18 -143 7 -217 -23 -34 -14 -88 -40 -119 -58 -31 -19 -92 -67 -135 -108
    -44 -41 -98 -101 -119 -133 -22 -32 -44 -58 -50 -58 -15 0 30 73 88 145 59 72
    162 158 243 203 30 17 83 40 117 51 34 12 88 21 119 21 31 0 71 -7 90 -16 19
    -9 42 -30 51 -47 24 -47 13 -123 -32 -213 -26 -54 -59 -98 -109 -149 -39 -40
    -105 -95 -147 -122 -42 -27 -108 -61 -146 -76 -38 -14 -97 -31 -131 -37 -34
    -7 -100 -11 -146 -8 -69 4 -96 10 -143 34 -48 24 -62 38 -85 83 -21 41 -28 67
    -28 112 0 65 30 159 72 225 53 82 129 163 215 228 48 36 132 88 188 115 55 27
    136 61 181 74 44 14 118 33 165 42 97 18 306 21 389 5 71 -13 144 -37 200 -65
    l45 -23 64 39 c36 21 87 48 115 58 28 11 54 20 58 20 4 1 9 -3 12 -8z m3240
    -160 c16 -3 31 -10 33 -16 2 -6 -52 -10 -150 -10 -126 -1 -165 -4 -230 -23
    -43 -12 -106 -35 -140 -51 -34 -15 -90 -49 -124 -74 -35 -26 -78 -70 -97 -99
    -19 -29 -39 -72 -45 -96 -11 -52 0 -100 34 -140 14 -16 48 -39 76 -51 28 -13
    78 -27 111 -32 l60 -10 86 82 c47 45 127 115 177 154 49 40 137 103 195 140
    119 75 273 152 370 183 84 27 180 42 225 35 19 -3 46 -17 60 -31 15 -15 25
    -36 25 -54 0 -16 -9 -46 -19 -66 -11 -21 -39 -58 -63 -82 -60 -60 -147 -123
    -242 -174 -45 -24 -133 -64 -196 -89 -134 -53 -321 -104 -418 -113 -53 -5 -73
    -12 -95 -33 -48 -44 -134 -165 -173 -241 -25 -50 -38 -92 -42 -133 -4 -45 -1
    -67 12 -92 10 -17 30 -39 46 -49 16 -9 51 -19 78 -23 26 -3 75 0 107 7 33 7
    89 25 123 41 35 16 92 49 127 74 35 24 86 70 114 102 61 68 89 132 75 171 -5
    15 -23 33 -39 41 -24 12 -40 12 -85 3 -30 -7 -79 -24 -108 -38 -29 -14 -86
    -52 -126 -84 -40 -32 -97 -90 -126 -129 -29 -39 -57 -71 -62 -71 -15 0 31 75
    84 137 26 31 71 76 100 100 29 24 84 59 123 77 38 19 93 38 121 42 61 8 117
    -8 139 -39 17 -25 20 -93 4 -134 -18 -48 -81 -122 -154 -180 -74 -59 -198
    -123 -277 -142 -26 -6 -77 -11 -115 -11 -51 0 -81 6 -120 24 -36 17 -60 38
    -80 67 -26 39 -28 50 -28 138 0 91 2 101 38 176 21 44 56 103 77 131 l39 52
    -62 12 c-34 6 -83 21 -109 32 -26 11 -63 37 -82 58 -18 21 -39 54 -46 75 -7
    22 -10 60 -7 91 3 31 17 76 33 105 16 28 53 73 83 101 29 27 85 65 122 84 61
    30 169 65 239 77 39 7 292 5 324 -2z m-1156 -213 c7 -7 12 -25 12 -40 0 -16
    -9 -47 -20 -69 -26 -50 -142 -173 -236 -250 -40 -32 -132 -99 -206 -148 -116
    -77 -143 -101 -195 -168 -33 -43 -79 -107 -102 -142 -27 -43 -41 -75 -41 -98
    0 -31 2 -33 35 -33 19 0 47 5 62 12 52 22 144 89 212 154 64 60 91 76 91 55 0
    -15 -153 -154 -212 -194 -32 -21 -76 -44 -99 -52 -23 -8 -56 -15 -74 -15 -18
    0 -44 9 -59 21 -21 16 -26 29 -26 62 0 23 9 61 19 84 l20 42 -86 -74 c-47 -41
    -112 -88 -143 -104 -32 -17 -70 -31 -86 -31 -15 0 -36 7 -46 17 -11 9 -18 30
    -18 50 l0 35 -47 -35 c-27 -19 -62 -42 -80 -51 -47 -23 -89 -20 -118 9 -19 18
    -25 35 -25 65 0 23 5 51 12 63 8 16 1 12 -23 -11 -53 -52 -176 -130 -216 -138
    -25 -5 -45 -2 -62 7 -20 11 -27 24 -29 53 -3 28 4 49 24 80 15 22 53 70 84
    106 60 70 90 110 90 122 0 5 -13 8 -28 8 -17 0 -57 -18 -93 -41 -36 -23 -126
    -103 -206 -184 -136 -138 -143 -143 -187 -146 -25 -3 -46 -2 -46 1 0 3 48 61
    106 130 58 69 119 144 135 167 16 23 29 49 29 57 0 9 -8 16 -18 16 -10 0 -29
    -7 -42 -16 -14 -9 -72 -63 -130 -119 -58 -56 -130 -123 -160 -149 -30 -26 -76
    -59 -102 -72 -26 -13 -60 -24 -76 -24 -16 0 -37 9 -47 20 -12 13 -16 30 -13
    54 l4 35 -31 -24 c-54 -45 -114 -77 -153 -82 -28 -4 -44 0 -62 15 -21 17 -25
    29 -24 69 0 29 10 66 24 93 12 25 51 73 85 106 78 76 187 134 253 134 28 0 52
    -6 64 -17 10 -9 18 -23 18 -32 0 -10 10 -5 33 17 25 25 42 32 71 32 29 0 37
    -3 33 -14 -3 -8 -44 -61 -90 -118 -101 -123 -167 -216 -167 -235 0 -22 44 -15
    91 16 50 32 126 100 250 223 48 48 105 96 127 107 23 12 52 21 66 21 13 0 32
    -7 40 -16 9 -8 16 -30 16 -47 0 -18 -7 -45 -15 -60 l-15 -29 38 32 c20 17 63
    49 96 70 57 39 106 55 142 48 10 -2 25 -15 33 -29 12 -22 13 -34 3 -67 -7 -23
    -42 -76 -80 -122 -81 -98 -112 -140 -112 -151 0 -5 13 -9 29 -9 19 0 56 18
    103 49 40 27 125 97 188 156 78 71 137 117 184 140 53 27 81 35 122 35 50 0
    56 -3 73 -31 l19 -30 21 30 c20 27 28 31 72 31 27 0 49 -3 49 -6 0 -4 -26 -36
    -58 -73 -79 -90 -166 -201 -191 -242 -12 -19 -21 -40 -21 -46 0 -22 43 -14 95
    16 28 16 102 75 166 130 77 66 150 142 215 222 152 189 338 393 422 464 43 36
    99 76 126 90 28 14 62 25 76 25 14 0 31 -5 38 -12z m2880 -376 c2 -11 -6 -30
    -17 -41 -12 -12 -32 -21 -46 -21 -17 0 -29 8 -36 24 -8 17 -8 29 1 45 16 30
    50 42 75 26 11 -7 21 -22 23 -33z M6410 1424 c-30 -8 -98 -36 -150 -62 -98
    -49 -266 -161 -360 -241 -89 -75 -251 -223 -248 -226 2 -2 44 3 93 11 50 8
    150 35 223 59 73 24 174 64 225 89 99 48 224 126 294 184 24 21 57 57 74 81
    16 25 29 55 29 67 0 13 -10 30 -22 38 -12 9 -41 16 -63 15 -22 0 -65 -7 -95
    -15z M4710 1219 c-48 -29 -171 -159 -298 -314 -58 -71 -111 -136 -116 -144
    -12 -15 97 60 199 138 90 68 244 220 272 269 14 23 22 49 19 57 -3 8 -13 15
    -23 15 -10 0 -34 -10 -53 -21z M2405 653 c-51 -28 -112 -82 -169 -152 -57 -70
    -102 -154 -91 -171 12 -20 54 -9 113 30 67 45 160 141 204 209 15 25 28 55 28
    67 0 21 -18 34 -43 34 -7 -1 -25 -8 -42 -17z M3649 642 c-25 -16 -72 -56 -104
    -88 -32 -33 -75 -86 -96 -118 -22 -34 -39 -71 -39 -88 0 -24 4 -28 29 -28 17
    0 54 17 90 41 67 45 159 141 198 206 14 25 23 53 21 70 -2 21 -9 29 -28 31
    -15 2 -44 -9 -71 -26z M9164 1221 c-52 -37 -229 -227 -344 -369 l-92 -113 54
    38 c131 93 231 175 330 271 59 57 116 122 127 145 11 22 18 44 15 49 -10 17
    -52 7 -90 -21z M6385 648 c-50 -26 -162 -139 -210 -211 -20 -30 -37 -67 -38
    -83 -2 -23 2 -30 21 -32 12 -2 43 9 69 23 25 15 76 57 112 94 70 68 123 139
    135 179 9 26 -8 52 -33 52 -9 -1 -34 -10 -56 -22z M8140 651 c-20 -11 -70 -55
    -112 -99 -115 -120 -171 -232 -118 -232 41 0 106 44 186 124 44 45 93 103 108
    129 33 56 32 91 -4 94 -14 2 -41 -6 -60 -16z"/>
  </g>
  <g fill="#f1ead8" fill-opacity="0.18750000" stroke="none" transform="translate(0,190) scale(0.100000,-0.100000)">
    <path d="M2053 1633 c4 -3 10 -3 14 0 3 4 0 7 -7 7 -7 0 -10 -3 -7 -7z M2234
    1328 l-19 -23 23 19 c21 18 27 26 19 26 -2 0 -12 -10 -23 -22z M9154 1088 c-4
    -7 -3 -8 4 -4 7 4 12 9 12 12 0 8 -9 4 -16 -8z M4679 1063 c-13 -16 -12 -17 4
    -4 9 7 17 15 17 17 0 8 -8 3 -21 -13z M7958 953 c7 -3 16 -2 19 1 4 3 -2 6
    -13 5 -11 0 -14 -3 -6 -6z M5634 588 c-4 -7 -3 -8 4 -4 12 7 16 16 8 16 -3 0
    -8 -5 -12 -12z M2759 553 l-24 -28 28 24 c15 14 27 26 27 28 0 8 -8 1 -31 -24z
    M4374 528 c-4 -7 -3 -8 4 -4 7 4 12 9 12 12 0 8 -9 4 -16 -8z M2684 518 c-4
    -7 -3 -8 4 -4 12 7 16 16 8 16 -3 0 -8 -5 -12 -12z M8729 483 c-13 -16 -12
    -17 4 -4 9 7 17 15 17 17 0 8 -8 3 -21 -13z"/>
  </g>
  <g fill="#f1ead8" fill-opacity="0.31250000" stroke="none" transform="translate(0,190) scale(0.100000,-0.100000)">
    <path d="M6508 1473 c7 -3 16 -2 19 1 4 3 -2 6 -13 5 -11 0 -14 -3 -6 -6z
    M2264 1358 c-4 -7 -3 -8 4 -4 7 4 12 9 12 12 0 8 -9 4 -16 -8z M9114 1048
    l-29 -33 33 29 c17 17 32 31 32 33 0 8 -8 1 -36 -29z M7988 953 c6 -2 18 -2
    25 0 6 3 1 5 -13 5 -14 0 -19 -2 -12 -5z M1075 770 c3 -5 8 -10 11 -10 3 0 2
    5 -1 10 -3 6 -8 10 -11 10 -3 0 -2 -4 1 -10z M1278 733 c6 -2 18 -2 25 0 6 3
    1 5 -13 5 -14 0 -19 -2 -12 -5z M2704 538 c-4 -7 -3 -8 4 -4 7 4 12 9 12 12 0
    8 -9 4 -16 -8z M2719 513 c-13 -16 -12 -17 4 -4 16 13 21 21 13 21 -2 0 -10
    -8 -17 -17z M4354 508 c-4 -7 -3 -8 4 -4 7 4 12 9 12 12 0 8 -9 4 -16 -8z
    M2654 448 l-19 -23 23 19 c12 11 22 21 22 23 0 8 -8 2 -26 -19z M6321 354 c0
    -11 3 -14 6 -6 3 7 2 16 -1 19 -3 4 -6 -2 -5 -13z"/>
  </g>
  <g fill="#f1ead8" fill-opacity="0.43750000" stroke="none" transform="translate(0,190) scale(0.100000,-0.100000)">
    <path d="M2284 1378 c-4 -7 -3 -8 4 -4 12 7 16 16 8 16 -3 0 -8 -5 -12 -12z
    M4644 1028 c-4 -7 -3 -8 4 -4 7 4 12 9 12 12 0 8 -9 4 -16 -8z M7448 693 c7
    -3 16 -2 19 1 4 3 -2 6 -13 5 -11 0 -14 -3 -6 -6z M2749 583 l-34 -38 38 34
    c20 19 37 36 37 38 0 8 -8 0 -41 -34z M3409 533 l-24 -28 28 24 c15 14 27 26
    27 28 0 8 -8 1 -31 -24z M1589 533 c-13 -16 -12 -17 4 -4 16 13 21 21 13 21
    -2 0 -10 -8 -17 -17z M4043 313 c4 -3 10 -3 14 0 3 4 0 7 -7 7 -7 0 -10 -3 -7
    -7z"/>
  </g>
  <g fill="#f1ead8" fill-opacity="0.56250000" stroke="none" transform="translate(0,190) scale(0.100000,-0.100000)">
    <path d="M1234 1268 l-29 -33 33 29 c30 28 37 36 29 36 -2 0 -16 -15 -33 -32z
    M9064 1138 c-4 -7 -3 -8 4 -4 7 4 12 9 12 12 0 8 -9 4 -16 -8z M1419 1123
    c-13 -16 -12 -17 4 -4 16 13 21 21 13 21 -2 0 -10 -8 -17 -17z M4494 1098
    l-19 -23 23 19 c21 18 27 26 19 26 -2 0 -12 -10 -23 -22z M2593 693 c9 -2 25
    -2 35 0 9 3 1 5 -18 5 -19 0 -27 -2 -17 -5z M3903 693 c4 -3 10 -3 14 0 3 4 0
    7 -7 7 -7 0 -10 -3 -7 -7z M7478 693 c6 -2 18 -2 25 0 6 3 1 5 -13 5 -14 0
    -19 -2 -12 -5z M3783 633 c4 -3 10 -3 14 0 3 4 0 7 -7 7 -7 0 -10 -3 -7 -7z
    M3093 313 c4 -3 10 -3 14 0 3 4 0 7 -7 7 -7 0 -10 -3 -7 -7z"/>
  </g>
  <g fill="#f1ead8" fill-opacity="0.68750000" stroke="none" transform="translate(0,190) scale(0.100000,-0.100000)">
    <path d="M1050 920 c0 -7 3 -10 7 -7 3 4 3 10 0 14 -4 3 -7 0 -7 -7z M3868
    693 c6 -2 18 -2 25 0 6 3 1 5 -13 5 -14 0 -19 -2 -12 -5z M6598 693 c7 -3 16
    -2 19 1 4 3 -2 6 -13 5 -11 0 -14 -3 -6 -6z M8333 693 c4 -3 10 -3 14 0 3 4 0
    7 -7 7 -7 0 -10 -3 -7 -7z M8368 693 c7 -3 16 -2 19 1 4 3 -2 6 -13 5 -11 0
    -14 -3 -6 -6z M6164 558 c-4 -7 -3 -8 4 -4 12 7 16 16 8 16 -3 0 -8 -5 -12
    -12z M6843 553 c4 -3 10 -3 14 0 3 4 0 7 -7 7 -7 0 -10 -3 -7 -7z M1554 498
    c-4 -7 -3 -8 4 -4 12 7 16 16 8 16 -3 0 -8 -5 -12 -12z M975 470 c3 -5 8 -10
    11 -10 3 0 2 5 -1 10 -3 6 -8 10 -11 10 -3 0 -2 -4 1 -10z M2904 458 c-4 -7
    -3 -8 4 -4 7 4 12 9 12 12 0 8 -9 4 -16 -8z M7880 340 c0 -7 3 -10 7 -7 3 4 3
    10 0 14 -4 3 -7 0 -7 -7z M7583 313 c4 -3 10 -3 14 0 3 4 0 7 -7 7 -7 0 -10
    -3 -7 -7z"/>
  </g>
  <g fill="#f1ead8" fill-opacity="0.81250000" stroke="none" transform="translate(0,190) scale(0.100000,-0.100000)">
    <path d="M1843 1343 c4 -3 10 -3 14 0 3 4 0 7 -7 7 -7 0 -10 -3 -7 -7z M7898
    733 c7 -3 16 -2 19 1 4 3 -2 6 -13 5 -11 0 -14 -3 -6 -6z M1624 568 c-4 -7 -3
    -8 4 -4 12 7 16 16 8 16 -3 0 -8 -5 -12 -12z M2924 478 c-4 -7 -3 -8 4 -4 7 4
    12 9 12 12 0 8 -9 4 -16 -8z M2884 438 c-4 -7 -3 -8 4 -4 7 4 12 9 12 12 0 8
    -9 4 -16 -8z M5365 320 c3 -5 8 -10 11 -10 3 0 2 5 -1 10 -3 6 -8 10 -11 10
    -3 0 -2 -4 1 -10z M7515 300 c3 -5 8 -10 11 -10 3 0 2 5 -1 10 -3 6 -8 10 -11
    10 -3 0 -2 -4 1 -10z"/>
  </g>
  <g fill="#f1ead8" fill-opacity="0.93750000" stroke="none" transform="translate(0,190) scale(0.100000,-0.100000)">
    <path d="M2665 1631 c-61 -22 -87 -35 -143 -73 l-42 -29 -66 32 c-36 17 -110
    40 -163 51 -80 17 -121 19 -241 15 -109 -4 -170 -12 -245 -31 -113 -28 -179
    -52 -268 -98 -115 -57 -202 -120 -293 -212 -73 -73 -99 -109 -133 -177 -30
    -61 -44 -103 -48 -145 -3 -33 0 -79 7 -104 16 -59 80 -123 140 -141 25 -8 90
    -14 145 -14 76 0 118 6 175 24 41 12 104 38 141 56 36 19 95 57 130 85 35 28
    87 78 116 111 28 34 66 91 84 127 27 54 33 79 34 130 0 59 -2 66 -32 92 -18
    16 -49 32 -70 36 -62 12 -160 -11 -258 -60 -49 -25 -118 -70 -153 -99 -35 -30
    -83 -78 -108 -107 -48 -56 -99 -138 -92 -146 3 -2 21 20 41 50 20 30 67 86
    106 124 38 38 104 91 146 117 42 27 107 59 143 72 81 30 179 34 217 9 14 -9
    28 -28 31 -43 4 -15 2 -47 -5 -72 -6 -25 -27 -69 -47 -97 -37 -54 -156 -176
    -214 -219 -69 -52 -168 -105 -246 -131 -60 -21 -99 -27 -164 -28 -73 -1 -93 3
    -134 24 -27 14 -58 37 -68 51 -29 38 -39 99 -28 161 6 29 24 80 40 113 16 33
    56 92 89 131 33 39 99 101 148 138 48 36 131 88 183 115 52 27 133 61 178 75
    46 14 127 33 180 42 69 11 135 15 227 11 103 -4 147 -10 212 -31 44 -15 91
    -34 103 -44 l22 -18 -56 -43 c-104 -80 -268 -264 -430 -481 -88 -118 -204
    -267 -257 -330 -89 -107 -172 -187 -259 -251 -49 -37 -146 -84 -209 -103 -61
    -18 -187 -21 -242 -6 -41 12 -89 51 -89 74 0 12 7 14 29 10 21 -5 34 0 50 17
    11 12 21 31 21 40 0 10 -12 27 -27 38 -30 24 -55 21 -90 -12 -17 -15 -23 -32
    -23 -62 0 -28 7 -52 21 -69 11 -15 40 -36 62 -48 32 -16 66 -22 142 -26 81 -4
    118 0 185 17 47 12 118 37 159 56 41 20 106 57 145 83 39 26 112 87 161 137
    50 49 122 133 161 185 39 52 125 177 193 277 137 202 264 365 336 432 l48 44
    28 -31 c15 -17 33 -48 38 -69 17 -59 13 -144 -9 -209 -11 -32 -39 -86 -61
    -121 -23 -35 -68 -87 -100 -117 -32 -30 -84 -67 -116 -83 -52 -25 -69 -28
    -155 -28 -54 0 -98 -3 -98 -6 0 -11 49 -28 97 -34 65 -9 183 17 263 57 37 19
    92 59 127 94 45 44 73 83 100 139 29 63 37 92 41 154 3 61 0 87 -17 132 -12
    32 -40 78 -62 103 l-41 46 24 20 c12 11 60 38 106 61 45 23 82 45 82 50 0 5
    -1 9 -2 9 -2 -1 -26 -9 -53 -19z M5632 1479 c-78 -13 -194 -54 -260 -91 -31
    -18 -81 -56 -110 -85 -29 -29 -63 -74 -75 -100 -15 -33 -21 -68 -22 -114 0
    -55 4 -72 28 -108 15 -23 48 -55 72 -70 25 -16 73 -34 107 -41 35 -6 71 -14
    80 -17 14 -3 7 -18 -36 -82 -30 -43 -64 -105 -76 -137 -12 -32 -25 -89 -28
    -127 -3 -49 0 -79 12 -111 10 -25 35 -61 56 -80 21 -19 58 -40 82 -47 25 -6
    73 -9 114 -6 39 3 103 17 143 30 40 14 98 41 128 59 84 50 197 160 227 220 32
    64 35 129 7 157 -11 11 -38 25 -61 31 -32 9 -53 8 -102 -5 -33 -8 -87 -29
    -120 -47 -32 -17 -88 -58 -124 -91 -62 -57 -126 -134 -153 -184 -20 -38 6 -26
    30 14 33 53 104 128 171 180 32 24 87 57 122 74 36 17 89 33 118 36 44 4 57 2
    81 -17 19 -15 27 -31 27 -52 0 -16 -8 -46 -17 -66 -25 -53 -126 -156 -202
    -206 -96 -63 -191 -98 -282 -104 -63 -4 -82 -1 -117 17 -23 12 -50 33 -59 48
    -12 18 -17 44 -16 83 1 39 10 76 31 122 35 76 73 135 150 229 l54 66 68 7 c88
    8 275 57 403 105 191 71 337 155 444 255 62 57 103 123 103 165 0 12 -14 36
    -31 53 -30 31 -30 31 -117 25 -48 -3 -116 -15 -152 -27 -89 -30 -234 -99 -336
    -161 -47 -28 -129 -84 -183 -123 -53 -40 -147 -119 -209 -175 l-114 -103 -50
    6 c-27 4 -73 16 -102 26 -56 22 -109 68 -125 113 -6 16 -11 41 -11 56 0 15 14
    55 31 89 19 40 50 80 86 112 31 27 91 67 133 89 41 22 109 50 150 62 59 17
    111 22 239 26 120 4 159 8 146 16 -25 13 -286 18 -353 6z m939 -49 c29 -16 25
    -69 -9 -116 -33 -45 -99 -102 -187 -161 -91 -61 -250 -138 -378 -182 -114 -39
    -286 -81 -329 -81 -19 1 -7 17 67 87 170 162 366 308 518 385 45 23 107 49
    137 59 62 20 151 24 181 9z M9162 1263 c-28 -14 -92 -61 -141 -104 -49 -43
    -133 -126 -187 -186 -53 -59 -155 -179 -226 -265 -70 -86 -161 -185 -201 -220
    -141 -126 -204 -168 -247 -168 -11 0 -20 6 -20 13 0 7 13 33 28 58 30 47 218
    279 236 291 13 9 5 10 -49 8 -32 -1 -46 -8 -67 -33 -24 -29 -27 -30 -28 -11 0
    11 -8 28 -18 37 -11 10 -35 17 -59 17 -26 0 -65 -13 -113 -36 -52 -26 -99 -63
    -171 -132 -55 -53 -132 -119 -172 -148 -82 -59 -133 -80 -153 -63 -7 6 -10 18
    -7 27 11 31 66 106 176 242 71 88 118 137 135 142 14 4 36 5 49 2 28 -7 73 3
    73 16 0 6 -25 10 -55 10 -30 0 -55 3 -55 7 0 3 34 46 75 95 l75 88 -48 0 -48
    0 -77 -94 -77 -95 -57 -3 c-70 -4 -84 -25 -19 -30 l46 -3 -79 -95 c-44 -52
    -123 -132 -178 -178 -110 -93 -216 -153 -236 -133 -9 9 -6 21 11 54 13 23 74
    104 138 179 l114 138 -48 0 c-47 0 -50 -1 -99 -63 -28 -34 -75 -85 -105 -113
    -29 -27 -87 -76 -128 -107 -80 -59 -163 -102 -180 -92 -6 3 -10 12 -10 19 0 7
    39 57 86 112 47 54 94 116 105 136 10 21 19 48 19 62 0 13 -7 32 -16 40 -8 9
    -30 16 -48 16 -18 0 -60 -14 -94 -31 -34 -16 -83 -50 -110 -75 -28 -24 -53
    -44 -57 -44 -3 0 12 21 34 48 61 71 259 327 256 330 -1 1 -20 0 -41 -4 -34 -5
    -47 -17 -99 -82 -33 -42 -114 -132 -180 -200 -124 -129 -235 -226 -325 -287
    -29 -19 -63 -35 -76 -35 -53 0 -24 51 149 260 l87 105 -42 3 c-37 3 -46 -1
    -70 -27 -23 -26 -28 -28 -28 -13 0 11 -9 27 -20 37 -15 13 -31 16 -67 13 -27
    -3 -75 -18 -108 -34 -33 -16 -91 -59 -130 -96 -39 -36 -81 -86 -93 -111 -13
    -26 -22 -63 -22 -91 0 -33 6 -52 20 -66 11 -11 32 -20 47 -20 15 0 45 9 68 20
    23 11 60 36 82 55 23 19 43 35 45 35 2 0 2 -17 0 -38 -3 -28 1 -42 17 -56 15
    -14 29 -17 55 -12 20 4 68 29 108 56 40 27 113 86 163 132 l89 83 -129 -155
    c-240 -288 -311 -375 -319 -387 -5 -10 4 -13 36 -13 l43 0 175 211 c96 116
    209 244 253 284 43 40 110 94 148 120 67 45 131 67 142 48 3 -5 -2 -21 -11
    -35 -9 -14 -51 -65 -93 -112 -42 -47 -84 -101 -93 -120 -9 -19 -16 -43 -16
    -55 0 -12 9 -30 20 -41 11 -11 30 -20 43 -20 47 1 159 65 240 139 l39 36 -21
    -40 c-11 -22 -21 -54 -21 -72 0 -24 7 -37 25 -49 17 -11 35 -14 58 -10 43 8
    141 67 210 126 38 33 48 38 35 19 -9 -14 -19 -41 -23 -60 -5 -27 -1 -41 16
    -63 19 -24 27 -28 60 -23 21 3 58 14 82 26 23 11 72 45 108 75 l66 54 -9 -42
    c-6 -27 -5 -52 1 -69 6 -15 22 -32 36 -39 19 -8 35 -8 65 1 33 10 72 34 145
    92 7 5 10 -3 7 -26 -3 -24 2 -39 17 -54 12 -12 31 -21 43 -21 37 0 100 37 191
    110 85 69 86 69 71 34 -8 -20 -14 -54 -12 -77 2 -32 9 -45 29 -56 16 -9 37
    -12 60 -7 19 3 63 23 98 44 73 42 224 179 215 194 -4 5 -25 -8 -48 -30 -63
    -60 -152 -130 -196 -152 -22 -11 -53 -20 -70 -20 -25 0 -30 4 -30 24 0 27 71
    138 157 246 48 60 83 91 176 153 64 43 150 104 191 137 108 86 210 184 260
    251 25 32 47 73 51 90 5 22 2 36 -11 50 -9 10 -27 19 -39 19 -11 0 -44 -12
    -73 -27z m94 -17 c10 -27 -39 -101 -125 -186 -47 -47 -124 -116 -171 -153
    -111 -88 -239 -176 -220 -152 8 11 67 83 132 161 186 223 313 343 366 344 7 0
    15 -6 18 -14z m-2778 -603 c2 -12 -6 -39 -17 -60 -27 -54 -148 -182 -213 -226
    -49 -33 -72 -41 -105 -38 -21 2 -14 43 16 96 37 65 149 185 209 225 32 21 56
    30 77 28 22 -2 31 -9 33 -25z m1750 -7 c3 -20 -7 -44 -33 -82 -43 -63 -180
    -196 -225 -219 -17 -9 -43 -15 -58 -13 -22 2 -26 7 -24 28 5 42 63 128 142
    209 41 42 91 84 110 94 19 9 46 16 60 15 19 -2 26 -9 28 -32z M4692 1249
    c-102 -51 -315 -266 -549 -554 -45 -55 -105 -123 -135 -151 -69 -66 -204 -176
    -248 -203 -42 -25 -90 -28 -90 -6 0 9 11 32 24 53 13 20 71 96 129 167 l105
    130 -41 3 c-36 3 -46 -1 -69 -27 -15 -17 -30 -31 -33 -31 -2 0 -2 6 1 14 3 8
    -4 24 -16 36 -19 19 -31 22 -74 18 -28 -3 -77 -18 -110 -34 -36 -17 -98 -65
    -155 -118 -175 -162 -316 -255 -345 -226 -6 6 -5 18 3 33 7 13 42 57 78 98 36
    41 76 98 90 127 22 47 23 57 13 83 -7 17 -23 32 -37 35 -13 4 -44 -1 -68 -11
    -47 -17 -146 -86 -179 -123 -11 -12 -23 -22 -27 -22 -5 0 0 15 11 32 11 18 20
    44 20 58 0 14 -7 36 -16 48 -8 12 -24 22 -35 22 -11 0 -35 -7 -55 -15 -19 -8
    -95 -73 -169 -145 -74 -71 -162 -150 -196 -175 -39 -29 -72 -45 -90 -45 -17 0
    -29 5 -29 13 0 22 51 95 158 227 56 69 102 127 102 130 0 3 -20 4 -45 2 -35
    -3 -50 -11 -70 -34 -22 -26 -25 -27 -25 -9 0 11 -10 27 -22 35 -12 9 -37 16
    -55 16 -69 0 -192 -67 -269 -147 -25 -27 -57 -69 -70 -95 -31 -60 -32 -130 -4
    -158 11 -11 31 -20 45 -20 33 0 114 41 158 80 19 16 37 30 39 30 2 0 2 -16 0
    -35 -3 -25 1 -42 13 -55 10 -11 30 -20 45 -20 14 0 50 12 79 27 36 17 106 76
    211 178 87 83 174 160 195 169 48 23 63 10 41 -33 -9 -17 -73 -99 -141 -181
    l-125 -150 47 0 c47 0 49 1 116 78 38 42 110 114 160 160 97 87 209 154 228
    135 8 -8 7 -18 -2 -34 -6 -13 -43 -60 -81 -104 -39 -44 -78 -97 -89 -117 -10
    -21 -19 -49 -19 -63 0 -14 9 -34 20 -45 11 -11 33 -20 49 -20 47 0 147 60 240
    144 25 23 32 26 25 11 -5 -11 -9 -42 -9 -68 0 -39 5 -53 24 -68 13 -10 34 -19
    47 -19 38 0 95 27 146 71 26 21 48 39 50 39 2 0 2 -18 0 -39 -3 -33 0 -42 22
    -56 18 -12 36 -15 60 -11 18 4 60 24 93 45 32 21 93 68 136 105 l77 67 -25
    -53 c-14 -29 -25 -68 -25 -86 0 -22 8 -41 26 -59 23 -23 31 -25 74 -20 27 3
    68 16 92 28 24 12 66 38 93 57 68 49 186 163 179 173 -3 5 -41 -23 -86 -62
    -44 -39 -108 -89 -141 -110 -63 -41 -129 -64 -153 -55 -8 3 -17 12 -20 20 -10
    26 40 117 126 231 79 105 88 114 212 195 72 47 171 119 221 161 51 41 118 104
    149 139 60 65 98 131 98 167 0 26 -25 53 -49 53 -10 0 -45 -14 -79 -31z m98
    -26 c0 -24 -30 -75 -78 -132 -25 -29 -89 -90 -143 -135 -99 -83 -279 -212
    -279 -201 0 11 215 268 304 361 83 89 154 138 182 127 8 -3 14 -12 14 -20z
    m-2302 -580 c2 -12 -7 -41 -19 -65 -28 -55 -181 -209 -236 -237 -23 -11 -54
    -21 -69 -21 -25 0 -26 2 -20 33 3 17 26 61 51 97 49 72 129 154 190 195 26 17
    50 25 70 23 22 -2 31 -9 33 -25z m1265 6 c18 -28 -32 -107 -128 -205 -56 -57
    -108 -100 -139 -114 -36 -17 -53 -20 -65 -13 -9 7 -15 22 -14 38 1 16 19 53
    39 84 46 69 167 190 214 214 19 9 46 16 59 15 13 -2 28 -10 34 -19z M7602 905
    c-12 -15 -18 -34 -15 -45 3 -11 16 -23 29 -26 26 -7 48 7 65 38 14 26 -6 58
    -36 58 -13 0 -32 -11 -43 -25z"/>
  </g>
</svg>
