<?xml version="1.0" encoding="UTF-8"?>
<svg xmlns="http://www.w3.org/2000/svg" viewBox="0 0 980 190" width="980" height="190">
  <title>Banded alpha spline reconstruction</title>
  <g fill="#f1ead8" fill-opacity="0.03125000" stroke="none" transform="translate(0,190) scale(0.100000,-0.100000)">
    <path d="M0 950 l0 -950 3149 0 3150 0 147 178 c152 183 232 279 268 322 12
    13 -15 -9 -59 -49 -44 -40 -110 -93 -146 -117 -106 -73 -181 -69 -183 8 l-1
    34 -62 -42 c-35 -24 -79 -46 -99 -50 -20 -4 -46 -2 -60 5 -26 11 -44 47 -44
    84 0 12 12 46 25 76 34 73 136 170 227 216 51 25 84 35 119 35 50 0 79 -18 79
    -48 0 -11 9 -7 33 16 26 26 41 32 75 32 23 0 42 -4 42 -9 0 -5 -7 -14 -16 -22
    -24 -20 -182 -215 -220 -271 -19 -27 -34 -57 -34 -65 0 -12 7 -14 31 -9 17 3
    45 16 62 28 72 49 257 211 332 290 44 46 113 124 154 173 41 50 82 96 90 102
    17 15 81 18 81 4 0 -5 -3 -11 -8 -13 -4 -1 -56 -66 -116 -143 -60 -77 -121
    -153 -135 -169 -24 -26 -24 -28 -4 -17 12 6 25 16 29 22 12 20 111 78 162 94
    48 16 54 16 77 1 19 -13 25 -25 25 -55 0 -44 -25 -85 -109 -179 -61 -70 -101
    -122 -101 -134 0 -4 13 -8 28 -8 15 0 50 14 78 31 93 59 232 180 304 264 70
    83 73 85 116 85 24 0 44 -3 44 -7 0 -5 -34 -48 -76 -98 -110 -131 -194 -244
    -194 -261 0 -24 53 -16 105 17 27 17 81 58 120 89 76 63 154 142 229 233 l48
    57 -46 0 c-34 0 -46 4 -46 15 0 12 13 15 59 15 l58 0 79 97 c78 97 80 98 127
    101 26 2 47 0 47 -3 0 -3 -34 -48 -75 -98 l-76 -92 56 -3 c38 -2 55 -7 52 -15
    -2 -7 -30 -13 -73 -15 -65 -3 -70 -5 -94 -37 -14 -18 -59 -75 -101 -127 -102
    -125 -159 -207 -159 -230 0 -13 7 -18 25 -18 56 0 149 67 316 226 113 107 195
    154 270 154 50 0 79 -18 79 -48 0 -11 9 -7 33 16 26 26 41 32 75 32 23 0 42
    -3 42 -6 0 -3 -33 -45 -73 -92 -84 -99 -172 -213 -188 -244 -7 -14 -8 -23 -1
    -30 24 -24 80 10 237 142 46 39 140 142 233 255 170 206 352 399 447 475 33
    26 79 57 102 69 23 11 55 21 71 21 15 0 33 -5 40 -12 7 -7 12 -23 12 -35 0
    -13 -9 -42 -21 -65 -11 -22 -60 -81 -107 -130 -48 -50 -125 -121 -172 -158
    -47 -37 -139 -103 -205 -147 -113 -75 -126 -87 -207 -194 -47 -63 -96 -133
    -108 -157 -12 -23 -19 -49 -16 -58 5 -13 15 -15 43 -11 20 4 59 22 87 40 28
    19 85 64 126 101 41 36 78 66 82 66 20 0 1 -24 -76 -96 -45 -44 -109 -95 -141
    -114 -45 -26 -69 -34 -108 -35 -42 0 -52 4 -70 27 -19 26 -20 30 -6 81 l15 54
    -78 -63 c-43 -35 -96 -73 -118 -84 -21 -11 -52 -20 -68 -20 -16 0 -37 9 -47
    20 -12 13 -16 30 -13 53 l4 35 -41 -33 c-22 -18 -59 -42 -82 -54 -23 -11 -56
    -21 -72 -21 -20 0 -36 9 -51 28 -18 21 -21 36 -18 74 l5 47 -51 -45 c-28 -25
    -78 -58 -110 -74 -33 -17 -74 -30 -93 -30 -20 0 -41 8 -53 20 -11 11 -20 31
    -20 45 0 14 7 41 15 61 l14 35 -49 -43 c-27 -24 -74 -58 -104 -77 -30 -18 -73
    -35 -96 -38 -30 -4 -45 -1 -60 12 -25 22 -26 74 -4 117 16 31 15 30 -35 -13
    -28 -24 -75 -59 -105 -78 -30 -18 -73 -35 -96 -38 -30 -4 -45 -1 -60 12 -12
    11 -20 31 -20 50 0 17 13 51 28 76 16 24 63 82 105 127 42 46 77 92 77 103 0
    30 -39 23 -108 -18 -34 -21 -101 -72 -148 -113 -73 -63 -189 -195 -413 -467
    l-43 -53 1701 0 1701 0 0 950 0 950 -4900 0 -4900 0 0 -950z m2724 691 c3 -4
    -32 -26 -77 -49 -46 -23 -96 -51 -111 -63 l-27 -22 34 -36 c20 -20 46 -56 59
    -81 20 -38 23 -60 23 -145 0 -94 -2 -105 -34 -170 -44 -89 -143 -190 -229
    -234 -34 -17 -90 -38 -124 -46 -35 -8 -85 -14 -113 -14 -27 0 -66 6 -85 13
    -19 7 -37 21 -39 31 -2 14 1 16 15 10 11 -4 42 -10 70 -12 32 -3 73 1 107 11
    31 9 84 36 119 59 35 24 85 70 112 103 26 32 65 93 84 134 32 67 36 84 36 160
    1 69 -3 93 -21 126 -12 22 -28 46 -37 53 -12 10 -24 3 -75 -49 -34 -34 -90
    -98 -126 -143 -36 -45 -133 -181 -215 -302 -82 -121 -178 -256 -213 -300 -36
    -44 -100 -114 -143 -155 -44 -41 -113 -97 -154 -124 -151 -100 -292 -146 -445
    -146 -51 0 -113 6 -141 15 -27 8 -62 27 -76 42 -15 16 -32 41 -38 57 -8 21 -8
    38 0 62 7 19 21 41 33 49 12 8 32 15 44 15 13 0 32 -9 43 -20 11 -11 20 -29
    20 -40 0 -11 -9 -29 -21 -41 -15 -15 -30 -20 -50 -17 -16 3 -29 0 -29 -5 0 -4
    13 -21 28 -37 16 -15 46 -33 68 -39 50 -14 139 -14 206 0 29 6 81 24 116 40
    35 16 87 45 115 66 72 51 196 172 277 268 37 44 141 179 232 300 91 121 201
    260 244 308 43 49 117 122 165 162 l87 73 -38 21 c-58 33 -184 61 -295 67
    -116 7 -253 -11 -388 -51 -48 -14 -129 -46 -180 -71 -50 -26 -125 -69 -165
    -97 -40 -27 -108 -88 -152 -134 -96 -101 -149 -199 -157 -291 -3 -33 -3 -72 1
    -85 9 -38 55 -88 101 -108 57 -26 182 -25 271 2 38 11 98 37 134 56 36 19 94
    57 130 83 74 55 163 144 209 209 17 24 38 67 46 95 12 38 13 58 5 82 -7 21
    -21 36 -41 44 -42 18 -143 7 -217 -23 -34 -14 -88 -40 -119 -58 -30 -19 -89
    -65 -130 -103 -41 -38 -95 -98 -119 -133 -25 -34 -50 -63 -56 -63 -15 0 33 77
    92 149 31 36 83 87 115 114 33 27 88 64 123 84 35 20 91 44 124 54 33 11 85
    19 115 19 30 0 70 -7 89 -16 19 -9 42 -30 51 -47 24 -47 13 -123 -30 -209 -20
    -40 -55 -95 -79 -122 -23 -27 -75 -75 -116 -107 -40 -32 -106 -75 -147 -94
    -40 -20 -110 -45 -156 -56 -63 -16 -104 -20 -175 -17 -78 3 -101 8 -150 33
    -49 25 -63 39 -86 84 -21 41 -28 67 -28 112 0 65 30 159 72 225 53 82 129 163
    215 228 92 69 246 151 351 186 152 50 350 74 496 59 100 -10 206 -38 276 -74
    l45 -23 64 39 c36 21 87 48 115 58 28 11 54 20 58 20 4 1 9 -3 12 -8z m3240
    -160 c16 -3 31 -10 33 -16 2 -6 -52 -10 -150 -10 -127 0 -165 -4 -230 -23 -43
    -12 -106 -35 -140 -51 -34 -15 -90 -49 -124 -74 -36 -27 -78 -71 -99 -102 -29
    -43 -39 -69 -42 -110 -3 -32 1 -68 8 -85 7 -17 25 -41 41 -54 16 -14 52 -33
    81 -44 29 -11 76 -22 105 -24 50 -4 54 -3 90 35 76 79 261 231 369 303 62 41
    159 99 217 128 58 30 141 65 184 80 43 14 108 30 144 36 48 8 77 9 106 1 45
    -12 73 -45 73 -86 0 -14 -9 -43 -20 -64 -37 -74 -160 -178 -300 -254 -97 -53
    -271 -122 -396 -156 -61 -17 -152 -37 -203 -45 -60 -9 -99 -20 -113 -32 -42
    -37 -142 -180 -176 -253 -43 -90 -53 -169 -28 -216 10 -17 30 -39 46 -49 16
    -9 51 -19 78 -23 26 -3 75 0 107 7 33 7 89 25 123 41 35 16 92 49 127 74 35
    24 86 70 114 102 61 68 89 132 75 171 -5 15 -23 33 -39 41 -24 12 -40 12 -85
    3 -30 -7 -79 -24 -108 -38 -30 -14 -87 -53 -128 -86 -40 -33 -97 -91 -125
    -129 -53 -70 -81 -92 -55 -41 30 58 108 152 168 201 35 29 95 67 133 86 39 19
    93 37 121 41 32 4 66 2 88 -6 20 -6 44 -23 53 -36 8 -13 15 -42 15 -65 -1 -22
    -10 -60 -22 -85 -25 -51 -115 -146 -184 -193 -65 -45 -179 -96 -247 -111 -77
    -17 -184 -10 -234 16 -22 11 -53 40 -70 63 -24 34 -30 54 -33 112 -3 38 1 91
    8 117 15 61 62 154 111 219 l39 52 -48 7 c-73 10 -151 43 -193 81 -21 19 -45
    54 -55 78 -20 54 -16 133 11 190 11 22 46 68 80 101 39 39 87 75 132 98 64 32
    172 67 243 79 39 7 292 5 324 -2z m-1156 -213 c7 -7 12 -25 12 -40 0 -16 -9
    -47 -20 -69 -26 -50 -142 -173 -236 -250 -40 -32 -133 -99 -208 -149 -128 -86
    -140 -96 -214 -195 -43 -58 -88 -124 -100 -148 -12 -25 -22 -56 -22 -71 0 -23
    4 -26 35 -26 20 0 57 11 83 24 61 31 155 102 212 160 41 43 70 58 70 37 0 -15
    -153 -154 -212 -194 -32 -21 -76 -44 -99 -52 -23 -8 -56 -15 -74 -15 -18 0
    -44 9 -59 21 -21 16 -26 29 -26 62 0 23 9 61 19 84 l20 42 -86 -74 c-47 -41
    -112 -88 -143 -104 -32 -17 -71 -31 -87 -31 -17 0 -38 9 -48 20 -10 11 -18 34
    -18 50 l0 29 -46 -33 c-25 -18 -60 -41 -78 -50 -47 -23 -89 -20 -118 9 -19 18
    -25 35 -25 65 0 23 5 51 11 63 10 18 6 16 -17 -7 -41 -41 -145 -113 -187 -131
    -20 -8 -49 -15 -63 -15 -66 0 -85 74 -37 145 14 22 52 69 83 105 60 70 90 110
    90 122 0 5 -13 8 -28 8 -17 0 -57 -18 -93 -41 -36 -23 -126 -103 -206 -184
    -136 -138 -143 -143 -187 -146 -25 -3 -45 -1 -44 3 2 4 53 67 113 140 61 73
    121 147 133 165 12 17 22 38 22 47 0 9 -8 16 -18 16 -10 0 -29 -7 -42 -16 -14
    -9 -72 -63 -130 -119 -58 -56 -130 -123 -160 -149 -30 -26 -76 -59 -102 -72
    -26 -13 -61 -24 -77 -24 -16 0 -37 7 -46 17 -11 11 -16 28 -13 54 l3 38 -30
    -24 c-54 -45 -114 -77 -153 -82 -28 -4 -44 0 -62 15 -21 17 -25 29 -24 69 0
    29 10 66 24 93 12 25 51 73 85 106 78 76 187 134 253 134 28 0 52 -6 64 -17
    10 -9 18 -23 18 -32 1 -11 10 -6 29 17 23 27 34 32 69 32 23 0 42 -4 42 -9 0
    -5 -40 -58 -89 -118 -104 -128 -171 -221 -171 -240 0 -7 9 -13 20 -13 12 0 33
    6 48 14 45 23 101 71 233 201 70 68 145 133 168 144 22 12 51 21 65 21 13 0
    32 -7 40 -16 9 -8 16 -30 16 -47 0 -18 -7 -45 -15 -60 l-14 -28 40 33 c111 90
    167 120 217 116 27 -2 40 -10 51 -29 12 -22 13 -34 3 -67 -7 -22 -42 -77 -80
    -122 -79 -97 -112 -142 -112 -152 0 -4 13 -8 28 -8 31 0 100 40 177 104 28 22
    91 78 140 124 57 52 115 96 159 118 53 26 81 34 122 34 50 0 56 -3 73 -31 l19
    -30 21 30 c20 27 28 31 72 31 27 0 49 -2 49 -6 0 -3 -26 -35 -58 -72 -74 -87
    -186 -231 -201 -260 -7 -12 -9 -27 -6 -32 20 -32 103 17 257 149 76 66 149
    141 211 218 144 181 340 396 425 468 43 36 99 76 126 90 28 14 62 25 76 25 14
    0 31 -5 38 -12z m2880 -376 c2 -11 -6 -30 -17 -41 -12 -12 -32 -21 -46 -21
    -17 0 -29 8 -36 24 -8 17 -8 29 1 45 16 30 50 42 75 26 11 -7 21 -22 23 -33z
    M6415 1425 c-27 -7 -72 -23 -99 -34 -77 -34 -223 -123 -321 -197 -88 -66 -277
    -228 -324 -279 l-24 -26 24 5 c13 3 56 10 94 17 98 16 312 88 425 142 114 54
    259 148 318 206 23 23 52 56 62 74 11 18 20 42 20 54 0 12 -10 29 -22 37 -12
    9 -41 16 -63 15 -22 0 -62 -6 -90 -14z M4710 1219 c-19 -12 -66 -54 -104 -93
    -67 -70 -258 -293 -298 -349 -17 -24 -8 -20 53 24 136 96 193 143 288 234 96
    92 147 164 137 190 -3 8 -13 15 -23 15 -10 0 -34 -10 -53 -21z M2405 653 c-51
    -28 -112 -82 -169 -152 -57 -70 -102 -154 -91 -171 11 -18 51 -10 98 20 26 16
    68 49 93 72 26 24 68 71 95 106 52 69 70 119 48 133 -8 5 -21 9 -29 8 -8 0
    -28 -7 -45 -16z M3650 642 c-60 -38 -152 -133 -201 -206 -23 -34 -39 -70 -39
    -87 0 -25 4 -29 29 -29 40 0 141 70 203 141 80 90 109 139 106 174 -2 24 -8
    31 -28 33 -15 2 -44 -9 -70 -26z M9164 1221 c-52 -37 -229 -227 -344 -369
    l-92 -113 54 38 c131 93 231 175 330 271 59 57 116 122 127 145 11 22 18 44
    15 49 -10 17 -52 7 -90 -21z M6385 648 c-50 -26 -162 -139 -210 -211 -20 -30
    -37 -67 -38 -83 -2 -23 2 -30 21 -32 12 -2 43 9 69 23 25 15 76 57 112 94 70
    68 123 139 135 179 9 26 -8 52 -33 52 -9 -1 -34 -10 -56 -22z M8130 642 c-59
    -38 -172 -158 -210 -224 -36 -63 -39 -98 -10 -98 42 0 107 45 191 130 84 86
    134 162 127 197 -5 29 -49 27 -98 -5z"/>
  </g>
  <g fill="#f1ead8" fill-opacity="0.09375000" stroke="none" transform="translate(0,190) scale(0.100000,-0.100000)">
    <path d="M2033 1633 c4 -3 10 -3 14 0 3 4 0 7 -7 7 -7 0 -10 -3 -7 -7z M2073
    1633 c4 -3 10 -3 14 0 3 4 0 7 -7 7 -7 0 -10 -3 -7 -7z M5200 1070 c0 -7 3
    -10 7 -7 3 4 3 10 0 14 -4 3 -7 0 -7 -7z M2564 688 c-4 -7 -3 -8 4 -4 7 4 12
    9 12 12 0 8 -9 4 -16 -8z M5614 568 c-4 -7 -3 -8 4 -4 12 7 16 16 8 16 -3 0
    -8 -5 -12 -12z M3600 350 c0 -7 3 -10 7 -7 3 4 3 10 0 14 -4 3 -7 0 -7 -7z"/>
  </g>
  <g fill="#f1ead8" fill-opacity="0.15625000" stroke="none" transform="translate(0,190) scale(0.100000,-0.100000)">
    <path d="M2053 1633 c4 -3 10 -3 14 0 3 4 0 7 -7 7 -7 0 -10 -3 -7 -7z M2229
    1323 c-13 -16 -12 -17 4 -4 9 7 17 15 17 17 0 8 -8 3 -21 -13z M7953 953 c4
    -3 10 -3 14 0 3 4 0 7 -7 7 -7 0 -10 -3 -7 -7z M2759 553 c-13 -16 -12 -17 4
    -4 16 13 21 21 13 21 -2 0 -10 -8 -17 -17z"/>
  </g>
  <g fill="#f1ead8" fill-opacity="0.21875000" stroke="none" transform="translate(0,190) scale(0.100000,-0.100000)">
    <path d="M8724 478 c-4 -7 -3 -8 4 -4 12 7 16 16 8 16 -3 0 -8 -5 -12 -12z"/>
  </g>
  <g fill="#f1ead8" fill-opacity="0.28125000" stroke="none" transform="translate(0,190) scale(0.100000,-0.100000)">
    <path d="M9134 1068 c-4 -7 -3 -8 4 -4 12 7 16 16 8 16 -3 0 -8 -5 -12 -12z
    M7983 953 c4 -3 10 -3 14 0 3 4 0 7 -7 7 -7 0 -10 -3 -7 -7z M1283 733 c4 -3
    10 -3 14 0 3 4 0 7 -7 7 -7 0 -10 -3 -7 -7z M2719 513 c-13 -16 -12 -17 4 -4
    16 13 21 21 13 21 -2 0 -10 -8 -17 -17z"/>
  </g>
  <g fill="#f1ead8" fill-opacity="0.34375000" stroke="none" transform="translate(0,190) scale(0.100000,-0.100000)">
    <path d="M2264 1358 c-4 -7 -3 -8 4 -4 7 4 12 9 12 12 0 8 -9 4 -16 -8z M9094
    1028 c-4 -7 -3 -8 4 -4 7 4 12 9 12 12 0 8 -9 4 -16 -8z M8003 953 c4 -3 10
    -3 14 0 3 4 0 7 -7 7 -7 0 -10 -3 -7 -7z M2704 538 c-4 -7 -3 -8 4 -4 7 4 12
    9 12 12 0 8 -9 4 -16 -8z M2659 453 c-13 -16 -12 -17 4 -4 16 13 21 21 13 21
    -2 0 -10 -8 -17 -17z M6320 350 c0 -7 3 -10 7 -7 3 4 3 10 0 14 -4 3 -7 0 -7
    -7z"/>
  </g>
  <g fill="#f1ead8" fill-opacity="0.40625000" stroke="none" transform="translate(0,190) scale(0.100000,-0.100000)">
    <path d="M2744 578 c-4 -7 -3 -8 4 -4 12 7 16 16 8 16 -3 0 -8 -5 -12 -12z
    M3414 538 l-19 -23 23 19 c12 11 22 21 22 23 0 8 -8 2 -26 -19z M1584 528 c-4
    -7 -3 -8 4 -4 12 7 16 16 8 16 -3 0 -8 -5 -12 -12z"/>
  </g>
  <g fill="#f1ead8" fill-opacity="0.46875000" stroke="none" transform="translate(0,190) scale(0.100000,-0.100000)">
    <path d="M7453 693 c4 -3 10 -3 14 0 3 4 0 7 -7 7 -7 0 -10 -3 -7 -7z M2764
    598 c-4 -7 -3 -8 4 -4 7 4 12 9 12 12 0 8 -9 4 -16 -8z"/>
  </g>
  <g fill="#f1ead8" fill-opacity="0.53125000" stroke="none" transform="translate(0,190) scale(0.100000,-0.100000)">
    <path d="M1244 1278 c-4 -7 -3 -8 4 -4 7 4 12 9 12 12 0 8 -9 4 -16 -8z M1214
    1248 c-4 -7 -3 -8 4 -4 12 7 16 16 8 16 -3 0 -8 -5 -12 -12z M1419 1123 c-13
    -16 -12 -17 4 -4 16 13 21 21 13 21 -2 0 -10 -8 -17 -17z M4504 1108 c-4 -7
    -3 -8 4 -4 7 4 12 9 12 12 0 8 -9 4 -16 -8z M2583 693 c4 -3 10 -3 14 0 3 4 0
    7 -7 7 -7 0 -10 -3 -7 -7z M7473 693 c4 -3 10 -3 14 0 3 4 0 7 -7 7 -7 0 -10
    -3 -7 -7z"/>
  </g>
  <g fill="#f1ead8" fill-opacity="0.59375000" stroke="none" transform="translate(0,190) scale(0.100000,-0.100000)">
    <path d="M4484 1088 c-4 -7 -3 -8 4 -4 7 4 12 9 12 12 0 8 -9 4 -16 -8z M2623
    693 c4 -3 10 -3 14 0 3 4 0 7 -7 7 -7 0 -10 -3 -7 -7z M3903 693 c4 -3 10 -3
    14 0 3 4 0 7 -7 7 -7 0 -10 -3 -7 -7z M3783 633 c4 -3 10 -3 14 0 3 4 0 7 -7
    7 -7 0 -10 -3 -7 -7z"/>
  </g>
  <g fill="#f1ead8" fill-opacity="0.65625000" stroke="none" transform="translate(0,190) scale(0.100000,-0.100000)">
    <path d="M3868 693 c6 -2 18 -2 25 0 6 3 1 5 -13 5 -14 0 -19 -2 -12 -5z
    M6598 693 c7 -3 16 -2 19 1 4 3 -2 6 -13 5 -11 0 -14 -3 -6 -6z M6843 553 c4
    -3 10 -3 14 0 3 4 0 7 -7 7 -7 0 -10 -3 -7 -7z M1554 498 c-4 -7 -3 -8 4 -4
    12 7 16 16 8 16 -3 0 -8 -5 -12 -12z"/>
  </g>
  <g fill="#f1ead8" fill-opacity="0.71875000" stroke="none" transform="translate(0,190) scale(0.100000,-0.100000)">
    <path d="M8363 693 c4 -3 10 -3 14 0 3 4 0 7 -7 7 -7 0 -10 -3 -7 -7z M975
    470 c3 -5 8 -10 11 -10 3 0 2 5 -1 10 -3 6 -8 10 -11 10 -3 0 -2 -4 1 -10z
    M7880 340 c0 -7 3 -10 7 -7 3 4 3 10 0 14 -4 3 -7 0 -7 -7z M7583 313 c4 -3
    10 -3 14 0 3 4 0 7 -7 7 -7 0 -10 -3 -7 -7z"/>
  </g>
  <g fill="#f1ead8" fill-opacity="0.78125000" stroke="none" transform="translate(0,190) scale(0.100000,-0.100000)">
    <path d="M2924 478 c-4 -7 -3 -8 4 -4 7 4 12 9 12 12 0 8 -9 4 -16 -8z"/>
  </g>
  <g fill="#f1ead8" fill-opacity="0.84375000" stroke="none" transform="translate(0,190) scale(0.100000,-0.100000)">
    <path d="M1843 1343 c4 -3 10 -3 14 0 3 4 0 7 -7 7 -7 0 -10 -3 -7 -7z M7903
    733 c4 -3 10 -3 14 0 3 4 0 7 -7 7 -7 0 -10 -3 -7 -7z"/>
  </g>
  <g fill="#f1ead8" fill-opacity="0.90625000" stroke="none" transform="translate(0,190) scale(0.100000,-0.100000)">
    <path d="M7873 733 c4 -3 10 -3 14 0 3 4 0 7 -7 7 -7 0 -10 -3 -7 -7z M7933
    733 c9 -2 23 -2 30 0 6 3 -1 5 -18 5 -16 0 -22 -2 -12 -5z"/>
  </g>
  <g fill="#f1ead8" fill-opacity="0.96875000" stroke="none" transform="translate(0,190) scale(0.100000,-0.100000)">
    <path d="M2661 1630 c-29 -11 -83 -38 -118 -60 l-65 -40 -65 31 c-36 17 -109
    40 -162 51 -80 17 -121 19 -241 15 -109 -4 -170 -12 -246 -31 -56 -14 -143
    -43 -194 -65 -154 -66 -245 -127 -356 -236 -85 -84 -108 -114 -143 -186 -30
    -60 -44 -103 -48 -145 -3 -32 0 -78 6 -102 7 -24 28 -61 47 -82 50 -55 114
    -75 239 -75 76 0 118 6 175 24 41 12 109 40 150 62 82 43 174 117 239 193 23
    26 58 80 78 120 31 59 37 82 37 134 1 59 -1 66 -31 92 -18 16 -49 32 -70 36
    -62 12 -160 -11 -258 -60 -49 -25 -118 -70 -153 -99 -35 -30 -83 -78 -108
    -107 -48 -56 -99 -138 -92 -146 3 -2 21 20 41 50 20 30 67 86 106 124 38 38
    104 91 146 117 42 27 104 58 138 70 34 13 80 24 102 25 81 5 106 0 132 -26 22
    -22 25 -32 21 -69 -3 -24 -15 -63 -27 -87 -11 -23 -43 -69 -70 -100 -72 -84
    -171 -168 -259 -220 -42 -26 -111 -58 -152 -72 -41 -13 -102 -28 -135 -31 -34
    -4 -81 -2 -110 5 -27 6 -67 22 -87 35 -21 14 -45 40 -54 57 -24 46 -21 139 6
    211 12 31 47 92 79 135 61 82 137 153 239 221 88 59 232 126 334 155 48 14
    127 30 175 37 51 7 139 9 208 6 91 -4 140 -12 202 -31 44 -15 91 -34 103 -44
    l22 -18 -38 -29 c-62 -46 -190 -173 -269 -265 -39 -47 -130 -164 -202 -260
    -240 -325 -389 -487 -528 -575 -27 -18 -81 -45 -120 -60 -53 -22 -92 -30 -160
    -33 -49 -2 -108 1 -131 7 -46 12 -94 51 -94 76 0 12 6 15 20 10 11 -3 28 -4
    38 0 11 3 24 17 31 31 8 18 8 31 1 44 -6 11 -19 24 -30 30 -10 5 -27 7 -37 3
    -10 -3 -28 -15 -40 -26 -17 -15 -23 -32 -23 -62 0 -28 7 -52 21 -69 11 -15 40
    -37 62 -49 37 -19 57 -22 167 -22 103 0 138 4 200 23 41 13 115 44 163 70 48
    25 123 74 166 109 133 106 235 232 459 563 125 186 256 354 327 419 l48 44 28
    -31 c15 -17 33 -51 40 -74 6 -24 9 -74 6 -113 -5 -81 -35 -157 -95 -237 -22
    -30 -63 -75 -91 -101 -29 -25 -78 -59 -109 -74 -51 -25 -68 -28 -154 -28 -54
    0 -98 -3 -98 -6 0 -11 49 -28 97 -34 65 -9 183 17 263 57 37 19 92 59 127 94
    45 44 73 83 100 139 29 63 37 92 41 154 3 61 0 87 -17 132 -12 32 -40 78 -62
    103 l-41 46 24 20 c12 11 60 38 106 61 45 23 82 45 82 50 0 5 -1 9 -2 9 -2 -1
    -27 -9 -57 -20z M5645 1481 c-148 -24 -292 -90 -377 -173 -32 -31 -67 -77 -78
    -101 -11 -25 -23 -65 -26 -89 -9 -66 11 -123 61 -173 32 -33 60 -49 110 -64
    37 -12 79 -21 94 -21 15 0 30 -3 33 -6 4 -3 -18 -42 -48 -86 -29 -44 -63 -105
    -75 -137 -12 -31 -24 -86 -27 -124 -3 -49 0 -79 12 -111 10 -25 35 -61 56 -80
    21 -19 58 -40 82 -47 25 -6 73 -9 114 -6 39 3 103 17 143 30 40 14 98 41 129
    59 76 45 207 174 231 229 27 58 27 119 1 147 -11 12 -38 26 -60 32 -32 9 -54
    8 -102 -5 -33 -8 -87 -29 -120 -47 -32 -17 -88 -58 -124 -91 -62 -57 -126
    -134 -153 -185 -20 -37 6 -25 30 15 33 53 104 128 171 180 32 24 87 57 122 74
    36 17 89 33 118 36 44 4 57 2 81 -17 18 -15 27 -31 27 -51 0 -16 -7 -46 -15
    -65 -8 -20 -45 -67 -82 -106 -37 -38 -99 -89 -138 -113 -141 -88 -300 -119
    -385 -75 -22 11 -48 32 -57 47 -12 18 -17 45 -17 82 1 42 10 76 37 133 37 80
    55 108 145 219 l54 66 66 7 c90 9 282 59 406 105 189 71 336 155 443 255 62
    57 103 123 103 165 0 12 -14 36 -31 53 -30 31 -30 31 -117 25 -61 -4 -114 -15
    -177 -37 -49 -18 -121 -48 -160 -67 -108 -54 -227 -128 -334 -207 -53 -40
    -147 -119 -209 -175 l-114 -103 -50 6 c-27 4 -73 16 -102 26 -56 22 -109 68
    -125 113 -6 16 -11 40 -11 55 0 41 44 126 90 176 46 50 137 110 217 144 28 12
    89 31 135 42 62 15 119 20 223 20 108 1 136 3 121 12 -24 13 -272 20 -341 9z
    m926 -51 c29 -16 25 -69 -9 -116 -33 -45 -99 -102 -187 -161 -91 -61 -250
    -138 -378 -182 -112 -38 -284 -81 -329 -81 -20 0 -17 5 22 46 79 81 232 209
    346 291 119 85 266 166 354 194 62 20 151 24 181 9z M9160 1261 c-30 -16 -94
    -63 -142 -105 -48 -41 -130 -124 -184 -183 -53 -59 -154 -178 -224 -263 -70
    -85 -149 -175 -176 -200 -72 -67 -184 -155 -221 -174 -36 -18 -73 -21 -73 -6
    0 24 37 78 137 203 58 73 112 138 121 145 9 6 12 12 6 13 -5 1 -27 0 -49 -1
    -31 -1 -46 -9 -67 -33 -24 -29 -27 -30 -28 -11 0 11 -8 28 -18 37 -11 10 -35
    17 -59 17 -26 0 -65 -13 -113 -36 -52 -26 -99 -62 -169 -130 -144 -139 -221
    -195 -297 -218 -13 -4 -26 -1 -32 7 -9 10 -6 23 9 53 12 21 74 104 138 184 64
    80 124 153 134 163 14 14 32 18 70 17 71 -2 77 -1 77 10 0 6 -25 10 -55 10
    -30 0 -55 3 -55 7 0 3 34 46 75 95 l75 88 -48 0 -48 0 -77 -94 -77 -95 -57 -3
    c-70 -4 -84 -25 -19 -30 l46 -3 -79 -95 c-44 -52 -123 -132 -178 -178 -98 -82
    -212 -150 -232 -137 -30 18 -4 59 166 263 l94 112 -49 0 c-47 0 -50 -1 -99
    -63 -28 -34 -75 -85 -105 -113 -29 -27 -87 -76 -128 -107 -80 -59 -163 -102
    -180 -92 -6 3 -10 12 -10 19 0 7 39 57 86 112 47 54 94 116 105 136 10 21 19
    48 19 62 0 13 -7 32 -16 40 -8 9 -30 16 -48 16 -18 0 -59 -13 -92 -30 -32 -16
    -82 -50 -111 -75 -28 -25 -54 -45 -58 -45 -3 0 12 21 34 48 65 75 259 327 256
    330 -2 2 -19 0 -39 -4 -32 -5 -52 -24 -135 -123 -54 -64 -148 -164 -207 -222
    -111 -108 -243 -218 -294 -244 -16 -8 -38 -15 -50 -15 -13 0 -20 7 -20 19 0
    21 74 122 189 261 l71 85 -42 3 c-38 3 -46 0 -70 -29 -24 -29 -28 -30 -28 -13
    0 12 -9 29 -20 39 -15 13 -31 16 -67 13 -27 -3 -75 -18 -108 -34 -33 -16 -91
    -59 -130 -96 -39 -36 -81 -86 -93 -111 -13 -26 -22 -63 -22 -91 0 -33 6 -52
    20 -66 11 -11 32 -20 47 -20 15 0 45 9 68 20 23 11 60 36 82 55 23 19 43 35
    45 35 2 0 2 -17 0 -38 -3 -28 1 -42 17 -56 15 -14 29 -17 55 -12 20 4 68 29
    108 56 40 27 113 86 163 132 l90 83 -76 -90 c-141 -168 -365 -440 -373 -452
    -5 -10 4 -13 36 -13 l43 0 175 211 c96 116 209 244 253 284 43 40 110 94 148
    120 67 45 131 67 142 48 3 -5 -2 -21 -11 -35 -9 -14 -51 -65 -93 -112 -42 -47
    -84 -101 -93 -120 -9 -19 -16 -43 -16 -55 0 -12 9 -30 20 -41 11 -11 30 -20
    43 -20 47 1 159 65 240 139 l39 36 -21 -40 c-11 -22 -21 -54 -21 -72 0 -24 7
    -37 25 -49 17 -11 35 -14 58 -10 42 8 141 67 207 124 l49 42 -19 -42 c-11 -24
    -20 -50 -20 -59 0 -9 10 -29 22 -44 18 -23 26 -26 59 -22 21 3 58 14 82 26 23
    11 73 46 110 76 63 52 67 54 60 28 -4 -15 -8 -43 -7 -62 0 -23 8 -40 25 -53
    17 -15 33 -18 57 -14 35 5 95 38 149 82 l32 26 -6 -35 c-4 -27 -1 -39 16 -56
    11 -11 31 -21 43 -21 37 0 100 37 191 110 85 69 86 69 71 34 -8 -20 -14 -54
    -12 -77 2 -32 9 -45 29 -56 16 -9 37 -12 60 -7 19 3 63 23 98 44 73 42 224
    179 215 194 -4 5 -25 -8 -48 -30 -63 -60 -152 -130 -196 -152 -22 -11 -53 -20
    -70 -20 -25 0 -30 4 -30 24 0 27 71 138 158 248 38 48 83 91 119 114 119 76
    251 174 341 254 52 46 118 112 148 149 30 36 60 83 66 103 10 33 9 41 -7 58
    -10 11 -28 20 -39 20 -12 -1 -46 -14 -76 -29z m96 -15 c11 -29 -32 -93 -125
    -186 -94 -94 -228 -203 -346 -283 -33 -22 -53 -32 -45 -21 8 10 68 84 135 164
    185 223 309 339 363 340 7 0 15 -6 18 -14z m-2778 -603 c2 -12 -7 -41 -19 -64
    -12 -24 -63 -84 -113 -134 -91 -91 -168 -141 -200 -129 -9 3 -16 16 -16 28 0
    35 56 121 126 196 83 88 148 132 189 128 22 -2 31 -9 33 -25z m1750 -7 c3 -20
    -7 -44 -33 -82 -43 -63 -180 -196 -225 -219 -17 -9 -43 -15 -58 -13 -22 2 -26
    7 -24 28 5 42 63 129 142 209 41 42 91 84 110 94 19 9 46 16 60 15 19 -2 26
    -9 28 -32z M4692 1249 c-41 -20 -98 -65 -169 -132 -109 -105 -249 -260 -362
    -402 -36 -44 -87 -104 -115 -133 -58 -61 -233 -209 -286 -241 -19 -11 -47 -21
    -62 -21 -21 0 -28 5 -28 19 0 20 68 115 188 261 l70 85 -41 3 c-36 3 -46 -1
    -69 -27 -15 -17 -29 -31 -31 -31 -1 0 -4 10 -4 22 -1 13 -10 29 -20 36 -27 21
    -111 8 -180 -27 -34 -17 -101 -67 -154 -117 -175 -161 -315 -252 -343 -224 -6
    6 -5 18 3 33 7 13 42 57 78 98 36 41 76 98 90 127 22 47 23 57 13 83 -7 17
    -23 32 -37 35 -13 4 -44 -1 -68 -11 -47 -17 -146 -86 -179 -123 -11 -12 -22
    -22 -26 -22 -5 0 1 17 11 37 10 21 19 47 19 58 0 29 -28 65 -51 65 -11 0 -35
    -7 -55 -15 -19 -8 -95 -73 -169 -145 -74 -71 -162 -150 -196 -175 -39 -29 -72
    -45 -90 -45 -17 0 -29 5 -29 13 0 21 39 78 151 218 60 75 109 138 109 140 0 2
    -20 3 -45 1 -35 -3 -50 -11 -69 -33 l-24 -28 -6 24 c-3 13 -16 30 -28 36 -12
    7 -39 9 -65 5 -25 -3 -76 -22 -114 -42 -38 -20 -95 -62 -125 -92 -31 -31 -66
    -77 -80 -104 -31 -60 -32 -130 -4 -158 11 -11 30 -20 43 -20 34 0 120 44 165
    84 l40 36 -5 -44 c-5 -37 -2 -46 18 -60 13 -9 33 -16 44 -16 12 0 45 12 74 26
    34 18 106 78 210 178 86 83 173 160 194 171 27 14 40 16 48 8 8 -8 6 -19 -5
    -42 -9 -17 -73 -99 -141 -181 l-125 -150 47 0 c47 0 49 1 116 78 37 42 109
    114 160 160 97 87 210 153 228 135 8 -8 7 -18 -2 -34 -6 -13 -43 -60 -81 -104
    -39 -44 -78 -97 -89 -117 -10 -21 -19 -49 -19 -63 0 -14 9 -34 20 -45 11 -11
    33 -20 49 -20 47 0 147 60 240 144 25 23 32 26 25 11 -5 -11 -9 -42 -9 -68 0
    -39 5 -53 24 -68 13 -10 34 -19 47 -19 38 0 95 27 146 71 26 21 48 39 50 39 2
    0 2 -18 0 -39 -3 -33 0 -42 22 -56 19 -12 36 -15 61 -11 41 8 155 85 246 166
    l62 54 -22 -42 c-12 -23 -24 -62 -27 -86 -6 -39 -3 -48 21 -71 24 -25 32 -27
    75 -22 27 3 68 16 92 28 24 12 66 38 93 57 69 50 186 163 179 174 -3 4 -35
    -19 -72 -52 -37 -34 -100 -83 -140 -110 -73 -49 -141 -76 -168 -66 -8 3 -17
    12 -20 20 -10 26 40 117 126 232 70 93 95 119 152 154 118 73 282 196 365 274
    44 42 97 99 117 129 44 64 56 116 31 140 -9 9 -24 17 -34 17 -10 0 -45 -14
    -79 -31z m98 -24 c0 -28 -20 -64 -69 -123 -60 -72 -215 -204 -347 -296 -52
    -36 -94 -63 -94 -61 0 2 45 59 101 127 152 185 292 333 340 356 42 21 69 20
    69 -3z m-2302 -582 c2 -12 -7 -41 -19 -65 -28 -55 -181 -209 -236 -237 -23
    -11 -54 -21 -69 -21 -25 0 -26 2 -20 33 3 17 26 61 51 97 49 72 129 154 190
    195 26 17 50 25 70 23 22 -2 31 -9 33 -25z m1265 6 c18 -29 -30 -106 -127
    -204 -57 -57 -109 -101 -140 -115 -36 -17 -53 -20 -65 -13 -9 7 -15 22 -14 38
    1 16 19 53 39 84 46 69 167 190 214 214 19 9 46 16 59 15 13 -2 29 -10 34 -19z
    M7607 912 c-10 -10 -17 -31 -17 -45 0 -20 6 -28 25 -33 27 -7 49 6 66 38 14
    25 -6 58 -35 58 -13 0 -30 -8 -39 -18z"/>
  </g>
</svg>
