<?xml version="1.0" standalone="no"?>
<!DOCTYPE svg PUBLIC "-//W3C//DTD SVG 20010904//EN"
 "http://www.w3.org/TR/2001/REC-SVG-20010904/DTD/svg10.dtd">
<svg version="1.0" xmlns="http://www.w3.org/2000/svg"
 width="600.000000pt" height="430.000000pt" viewBox="0 0 600.000000 430.000000"
 preserveAspectRatio="xMidYMid meet">
<metadata>
Created by potrace 1.16, written by Peter Selinger 2001-2019
</metadata>
<g transform="translate(0.000000,430.000000) scale(0.100000,-0.100000)"
fill="#f1ead8" stroke="none">
<path d="M4232 3839 c-87 -15 -156 -44 -257 -110 -112 -72 -166 -84 -251 -55
-63 21 -71 20 -48 -5 34 -38 95 -61 174 -68 75 -6 75 -6 4 -47 -134 -78 -196
-98 -309 -98 -93 -1 -105 1 -169 32 -38 18 -71 30 -74 27 -3 -3 10 -22 29 -41
36 -39 151 -100 206 -110 44 -8 42 -20 -4 -27 -52 -9 -128 -48 -188 -98 -87
-72 -118 -84 -218 -83 -68 1 -85 -1 -77 -11 17 -21 97 -38 145 -32 57 8 94 27
170 87 81 64 121 83 250 114 61 15 126 36 145 46 35 18 35 18 -46 13 -61 -4
-100 -1 -155 13 -74 19 -74 19 6 25 132 11 199 36 383 147 110 67 220 112 273
112 51 0 46 -7 -36 -51 -119 -62 -220 -144 -375 -304 -461 -475 -546 -546
-782 -654 -162 -74 -277 -105 -548 -146 -96 -14 -204 -33 -239 -41 -148 -33
-296 -111 -400 -210 -68 -64 -68 -64 -168 -64 -178 0 -348 -61 -493 -177 -127
-100 -220 -235 -290 -419 -55 -144 -105 -198 -245 -264 -182 -86 -281 -198
-320 -362 -16 -67 -20 -158 -7 -158 4 0 20 20 35 44 62 99 136 144 327 201
158 46 228 83 311 165 82 80 127 167 169 322 41 149 97 261 171 342 93 101
240 191 351 213 28 5 28 5 -2 -48 -71 -128 -91 -266 -66 -443 9 -60 16 -126
16 -146 0 -98 -66 -194 -181 -261 -38 -22 -77 -51 -85 -65 -9 -13 -30 -75 -46
-137 -41 -160 -101 -277 -177 -349 -53 -51 -60 -63 -63 -100 -3 -43 -3 -43
-60 -49 -32 -4 -69 -14 -84 -23 -33 -22 -73 -109 -87 -190 -18 -109 0 -118
122 -60 54 26 98 58 151 109 41 40 94 84 117 98 55 35 86 77 130 178 71 164
148 272 275 384 77 67 112 92 291 202 218 135 299 212 366 348 22 45 41 67 73
86 127 79 220 102 544 139 145 16 310 39 366 50 200 41 414 128 519 211 34 27
44 30 78 24 70 -12 165 26 352 140 290 177 369 213 369 169 0 -37 -50 -125
-101 -179 -37 -39 -52 -63 -54 -87 -3 -33 -3 -33 -57 -30 -48 3 -57 1 -82 -25
-38 -36 -87 -143 -94 -199 -5 -43 -4 -44 25 -44 67 0 202 60 266 119 23 21 61
48 84 59 55 28 75 60 107 163 14 47 48 131 75 185 61 122 66 143 51 191 -16
50 -46 81 -90 94 -32 10 -57 6 -181 -24 -79 -20 -161 -39 -181 -42 -36 -7 -36
-7 -15 37 19 37 23 67 28 213 7 178 15 218 63 300 32 52 72 90 118 109 57 24
68 21 68 -19 0 -79 62 -160 158 -209 26 -13 80 -58 120 -99 70 -73 72 -76 72
-125 0 -44 4 -54 31 -76 17 -14 34 -26 39 -26 5 0 15 -3 24 -6 31 -12 16 24
-19 45 -33 19 -35 24 -35 71 0 48 -3 54 -73 133 -49 55 -91 92 -130 113 -139
74 -178 169 -118 285 11 21 17 41 12 43 -9 6 -56 -41 -63 -63 -2 -7 -21 -14
-46 -16 -152 -12 -272 -209 -260 -429 3 -65 3 -65 -17 -46 -53 49 -174 67
-259 38 -70 -24 -53 -34 48 -30 55 3 108 0 128 -7 81 -27 110 -110 68 -196
-24 -49 -34 -55 -115 -74 -87 -20 -185 -103 -185 -156 0 -15 11 -9 48 27 58
58 111 82 227 103 50 9 155 32 234 51 177 42 212 43 240 8 34 -43 27 -92 -25
-195 -25 -50 -59 -132 -75 -183 -37 -113 -48 -130 -102 -157 -23 -12 -63 -41
-89 -66 -47 -43 -101 -72 -172 -92 -33 -9 -36 -8 -36 12 0 27 51 138 72 154 9
8 37 12 70 10 50 -2 54 -4 50 -24 -6 -32 15 -29 31 5 10 18 11 36 6 57 -12 41
-6 53 46 104 46 45 105 151 105 191 0 41 -18 60 -58 60 -51 -1 -96 -23 -320
-157 -214 -128 -287 -162 -348 -163 -58 0 -85 25 -133 124 -41 85 -73 118
-123 131 -37 9 -44 -11 -10 -29 42 -22 77 -67 102 -132 11 -31 30 -68 41 -82
20 -26 20 -26 -48 -70 -191 -124 -400 -181 -833 -227 -265 -29 -401 -61 -506
-119 -24 -14 -44 -23 -44 -21 0 2 22 55 49 117 50 114 55 144 19 112 -19 -18
-40 -59 -152 -298 -51 -107 -64 -127 -139 -200 -54 -55 -117 -103 -187 -146
-366 -222 -506 -361 -615 -610 -52 -121 -70 -146 -134 -189 -31 -21 -67 -51
-80 -65 -29 -31 -41 -21 -41 34 0 24 6 39 20 48 14 8 20 23 20 49 0 31 9 46
64 102 86 90 129 177 180 367 31 119 37 129 98 160 28 14 73 47 100 72 102 95
129 186 104 344 -9 54 -16 130 -16 170 1 299 225 567 552 662 46 13 164 36
263 51 287 42 423 80 601 164 206 98 343 207 600 478 240 252 323 332 424 404
76 55 215 131 281 154 18 7 8 10 -43 12 -38 2 -68 8 -68 12 0 12 161 31 260
31 121 0 90 22 -40 28 -130 6 -224 -9 -385 -63 -71 -24 -148 -46 -170 -50 -40
-6 -40 -6 10 22 28 16 72 44 100 61 112 72 245 100 399 83 99 -11 231 -48 298
-83 36 -19 41 -19 55 -5 14 14 11 17 -28 38 -154 78 -369 114 -527 88z m-2557
-1691 c-27 -5 -97 -32 -155 -60 -91 -44 -116 -62 -195 -142 -109 -109 -155
-192 -210 -386 -79 -274 -190 -384 -463 -459 -131 -36 -196 -67 -254 -119 -38
-34 -40 -35 -34 -12 4 14 23 57 42 96 48 100 122 167 261 235 164 80 198 120
289 337 56 134 115 221 211 313 143 136 310 207 488 207 70 0 70 0 20 -10z
m-628 -1740 c11 -62 11 -63 -15 -86 -25 -21 -122 -72 -138 -72 -14 0 6 101 29
147 24 48 55 73 93 73 17 0 22 -10 31 -62z M4925 3814 c-58 -39 -92 -72 -126
-126 -17 -26 -47 -58 -67 -70 -37 -23 -37 -23 -10 -26 38 -4 73 22 119 89 33
49 85 99 103 99 9 0 -21 -88 -43 -126 -12 -20 -20 -39 -17 -41 11 -11 49 21
62 52 7 19 24 37 36 41 13 3 35 15 51 26 31 22 33 19 11 -25 -26 -49 -52 -79
-59 -67 -9 14 -27 13 -23 -2 2 -7 37 -78 80 -158 56 -106 82 -168 96 -230 12
-47 41 -156 66 -242 58 -196 58 -231 7 -285 -32 -33 -41 -28 -41 21 0 43 14
70 22 44 7 -19 28 1 28 27 0 30 -14 39 -40 25 -41 -22 -63 -98 -40 -141 9 -17
7 -19 -16 -19 -22 0 -25 -2 -14 -15 49 -59 179 49 180 150 0 22 -24 126 -54
230 -29 105 -59 217 -66 250 -7 33 -27 85 -45 115 -18 30 -49 88 -70 129 -36
73 -36 73 -16 95 39 42 100 196 77 196 -3 0 -27 -16 -52 -35 -25 -20 -55 -40
-66 -46 -19 -10 -20 -9 -14 26 4 20 10 43 13 51 9 23 -28 17 -72 -12z M4910
3371 c0 -16 74 -71 95 -71 11 0 31 -7 43 -16 30 -21 44 -10 31 24 -13 34 -26
42 -69 42 -19 0 -46 7 -60 15 -30 17 -40 18 -40 6z M3545 3162 c-58 -20 -97
-46 -174 -116 -61 -55 -144 -97 -208 -104 -24 -2 -46 -8 -49 -13 -8 -13 44
-22 93 -15 72 10 123 38 213 120 47 43 106 89 132 102 43 22 70 44 51 44 -4
-1 -31 -8 -58 -18z M1444 1863 c-8 -21 -26 -85 -39 -143 -41 -185 -95 -300
-202 -433 -124 -154 -283 -257 -476 -308 -120 -31 -112 -50 13 -31 142 20 269
86 393 202 182 170 268 329 311 576 13 77 27 147 31 157 14 35 -15 16 -31 -20z"/>
</g>
</svg>
