<?xml version="1.0" standalone="no"?>
<!DOCTYPE svg PUBLIC "-//W3C//DTD SVG 20010904//EN"
 "http://www.w3.org/TR/2001/REC-SVG-20010904/DTD/svg10.dtd">
<svg version="1.0" xmlns="http://www.w3.org/2000/svg"
 width="600.000000pt" height="430.000000pt" viewBox="0 0 600.000000 430.000000"
 preserveAspectRatio="xMidYMid meet">
<metadata>
Created by potrace 1.16, written by Peter Selinger 2001-2019
</metadata>
<g transform="translate(0.000000,430.000000) scale(0.100000,-0.100000)"
fill="#f1ead8" stroke="none">
<path d="M4236 3839 c-107 -17 -159 -41 -288 -127 -80 -54 -146 -65 -224 -38
-63 21 -71 20 -48 -5 34 -38 95 -61 174 -68 75 -6 75 -6 5 -46 -196 -113 -339
-133 -481 -66 -37 17 -69 29 -72 26 -3 -3 10 -22 29 -41 36 -39 151 -100 206
-110 44 -8 42 -20 -4 -27 -52 -9 -128 -48 -188 -98 -87 -72 -118 -84 -218 -83
-72 1 -85 -1 -76 -12 18 -21 89 -37 141 -31 58 7 96 26 173 87 81 64 121 83
250 114 61 15 126 36 145 46 35 18 35 18 -46 13 -62 -4 -100 -1 -155 13 -74
19 -74 19 11 25 123 8 193 36 378 147 110 67 220 112 273 112 51 0 46 -7 -36
-51 -151 -80 -259 -173 -489 -419 -295 -317 -443 -435 -668 -539 -165 -76
-271 -103 -576 -151 -112 -17 -232 -40 -266 -51 -145 -44 -272 -118 -361 -208
-49 -51 -49 -51 -148 -51 -122 0 -218 -21 -326 -71 -215 -100 -349 -252 -457
-517 -65 -158 -103 -201 -240 -268 -195 -94 -290 -199 -329 -366 -16 -67 -20
-158 -7 -158 4 0 20 20 35 44 61 97 139 146 312 195 158 45 244 90 325 170 81
79 127 165 168 313 55 195 107 293 206 386 92 87 220 159 318 179 28 5 28 5
-2 -48 -71 -128 -91 -266 -66 -443 20 -135 20 -159 1 -223 -20 -67 -80 -133
-166 -184 -38 -22 -77 -51 -85 -65 -9 -13 -30 -75 -46 -137 -41 -160 -101
-277 -177 -349 -53 -51 -60 -63 -63 -100 -3 -43 -3 -43 -58 -48 -31 -3 -68
-13 -84 -23 -35 -23 -75 -109 -89 -191 -18 -108 -1 -117 120 -61 55 25 95 54
151 108 43 41 96 86 119 100 55 35 86 77 130 178 113 263 232 382 613 616 166
101 255 189 316 312 33 64 48 79 124 120 99 53 213 79 496 111 301 34 426 57
571 105 117 39 201 79 294 142 59 39 70 43 105 37 73 -11 183 39 466 214 169
105 248 134 248 94 0 -35 -59 -137 -105 -181 -25 -23 -46 -50 -47 -59 -1 -10
-2 -26 -2 -37 -1 -18 -7 -20 -53 -17 -36 3 -59 -1 -77 -13 -34 -22 -97 -150
-103 -209 -6 -45 -5 -46 23 -46 71 0 201 58 267 119 23 21 60 48 82 59 59 30
72 48 110 165 19 58 54 146 79 194 25 48 48 100 51 114 10 41 -12 105 -45 132
-49 41 -76 42 -232 3 -79 -19 -160 -38 -180 -41 -36 -7 -36 -7 -15 37 19 37
23 67 28 213 5 114 12 184 22 211 46 124 107 190 195 209 32 7 32 6 32 -31 0
-79 60 -158 158 -208 26 -13 80 -58 120 -99 70 -73 72 -76 72 -125 0 -44 4
-54 31 -76 17 -14 34 -26 39 -26 5 0 15 -3 24 -6 31 -12 16 24 -19 45 -33 19
-35 24 -35 71 0 48 -3 54 -73 133 -49 55 -91 92 -130 113 -139 74 -179 172
-117 286 11 21 16 39 11 42 -9 6 -55 -41 -64 -65 -4 -12 -13 -15 -31 -12 -38
8 -129 -41 -171 -90 -72 -84 -110 -209 -103 -341 3 -65 3 -65 -17 -46 -53 49
-174 67 -259 38 -70 -24 -53 -34 48 -30 149 7 205 -24 213 -115 6 -59 -30
-134 -68 -145 -112 -31 -139 -41 -168 -62 -41 -31 -81 -84 -81 -109 0 -16 10
-10 50 27 65 61 109 80 250 106 63 12 168 35 232 51 149 37 190 38 217 3 33
-42 27 -91 -24 -193 -25 -49 -59 -131 -75 -182 -38 -116 -49 -133 -103 -160
-23 -12 -63 -41 -89 -66 -47 -43 -101 -72 -172 -92 -33 -9 -36 -8 -36 12 0 27
51 138 72 154 9 8 37 12 70 10 50 -2 54 -4 50 -24 -6 -32 15 -29 31 5 10 18
11 36 6 57 -12 41 -6 53 46 104 46 45 105 151 105 191 0 41 -18 60 -58 60 -51
-1 -96 -23 -320 -157 -214 -128 -287 -162 -348 -163 -58 0 -85 25 -133 124
-41 85 -73 118 -123 131 -37 9 -44 -11 -10 -29 42 -22 77 -67 102 -132 11 -31
30 -68 41 -82 20 -26 20 -26 -48 -70 -191 -125 -392 -179 -833 -227 -268 -29
-402 -61 -506 -119 -24 -14 -44 -23 -44 -21 0 2 22 55 49 117 27 62 47 117 43
122 -12 20 -64 -63 -133 -216 -40 -88 -85 -179 -101 -203 -46 -70 -156 -166
-268 -235 -369 -225 -506 -362 -615 -610 -52 -120 -71 -148 -129 -185 -28 -18
-64 -47 -80 -64 -34 -35 -46 -28 -46 29 0 24 6 39 20 48 14 8 20 23 20 49 0
31 9 46 64 102 86 90 129 177 180 367 31 119 37 129 98 160 28 14 73 47 100
72 103 96 129 183 104 344 -9 54 -16 131 -16 171 1 298 225 566 552 661 46 13
164 36 263 51 287 42 423 80 601 164 206 98 343 207 600 478 240 252 323 332
424 404 76 55 215 131 281 154 18 7 8 10 -43 12 -38 2 -68 8 -68 12 0 12 161
31 260 31 65 0 81 3 72 12 -7 7 -56 13 -124 16 -134 5 -225 -11 -391 -68 -62
-21 -130 -41 -152 -45 -40 -6 -40 -6 10 22 28 16 72 44 100 61 112 72 245 100
399 83 99 -11 231 -48 298 -83 36 -19 41 -19 55 -5 14 14 11 17 -28 38 -153
77 -369 114 -523 88z m-2579 -1695 c-32 -8 -100 -35 -150 -61 -74 -38 -110
-65 -183 -138 -108 -108 -154 -191 -209 -385 -80 -275 -189 -383 -469 -461
-126 -35 -191 -65 -248 -117 -38 -34 -40 -35 -34 -12 4 14 23 57 42 96 48 100
122 167 261 235 162 79 197 120 288 334 22 50 54 117 73 149 44 74 167 204
240 252 113 75 261 122 387 122 60 0 60 0 2 -14z m-610 -1736 c11 -62 11 -63
-15 -86 -25 -21 -122 -72 -138 -72 -14 0 6 101 29 147 24 48 55 73 93 73 17 0
22 -10 31 -62z M4925 3814 c-58 -39 -92 -72 -126 -126 -17 -26 -47 -58 -67
-70 -37 -23 -37 -23 -10 -26 38 -4 73 22 119 89 33 49 85 99 103 99 9 0 -21
-88 -43 -126 -12 -20 -20 -39 -17 -41 11 -11 49 21 62 52 7 19 24 37 36 41 13
3 35 15 51 26 31 22 33 19 11 -25 -26 -49 -52 -79 -59 -67 -9 14 -27 13 -23
-2 2 -7 37 -78 80 -158 56 -106 82 -168 96 -230 12 -47 41 -156 66 -242 58
-196 58 -231 7 -285 -32 -33 -41 -28 -41 21 0 43 14 70 22 44 7 -19 28 1 28
27 0 30 -14 39 -40 25 -41 -22 -63 -98 -40 -141 9 -17 7 -19 -16 -19 -22 0
-25 -2 -14 -15 32 -38 118 0 157 70 13 23 23 57 23 81 0 23 -24 127 -54 231
-30 104 -59 216 -65 247 -6 32 -26 83 -45 114 -18 32 -50 90 -71 131 -36 73
-36 73 -17 95 32 36 60 89 73 139 14 57 7 68 -24 40 -12 -11 -42 -33 -66 -48
-44 -27 -44 -27 -37 10 4 20 10 43 13 51 9 23 -28 17 -72 -12z M4910 3371 c0
-16 73 -71 93 -71 11 0 32 -8 48 -17 35 -21 43 -15 29 23 -14 36 -26 44 -70
44 -19 0 -46 7 -60 15 -30 17 -40 18 -40 6z M3545 3162 c-58 -20 -97 -46 -174
-115 -62 -57 -136 -94 -204 -103 -26 -4 -50 -10 -53 -15 -8 -13 44 -22 93 -15
73 10 126 39 214 121 46 42 105 88 131 101 43 22 70 44 51 44 -4 -1 -31 -8
-58 -18z M1455 1887 c-8 -13 -25 -64 -36 -113 -53 -229 -104 -346 -210 -480
-127 -159 -286 -263 -482 -315 -120 -31 -112 -50 13 -31 145 21 271 86 400
208 177 167 263 326 301 558 11 67 25 136 31 154 13 42 5 51 -17 19z"/>
</g>
</svg>
