<?xml version="1.0" standalone="no"?>
<!DOCTYPE svg PUBLIC "-//W3C//DTD SVG 20010904//EN"
 "http://www.w3.org/TR/2001/REC-SVG-20010904/DTD/svg10.dtd">
<svg version="1.0" xmlns="http://www.w3.org/2000/svg"
 width="600.000000pt" height="430.000000pt" viewBox="0 0 600.000000 430.000000"
 preserveAspectRatio="xMidYMid meet">
<metadata>
Created by potrace 1.16, written by Peter Selinger 2001-2019
</metadata>
<g transform="translate(0.000000,430.000000) scale(0.100000,-0.100000)"
fill="#f1ead8" stroke="none">
<path d="M4236 3839 c-66 -11 -143 -36 -186 -61 -19 -12 -65 -41 -102 -66 -54
-36 -78 -46 -122 -50 -35 -3 -72 1 -102 12 -26 9 -52 16 -57 16 -6 0 -2 -9 9
-21 34 -38 95 -61 174 -68 75 -6 75 -6 5 -46 -38 -23 -92 -50 -120 -62 -27
-12 -78 -27 -113 -33 -34 -7 -89 -10 -122 -7 -37 3 -86 17 -126 36 -37 17 -69
29 -72 26 -3 -3 10 -22 29 -41 36 -39 151 -100 206 -110 18 -3 33 -10 33 -14
0 -4 -17 -10 -37 -13 -21 -4 -60 -18 -88 -31 -27 -14 -72 -44 -100 -67 -27
-22 -68 -51 -90 -62 -33 -18 -56 -22 -128 -21 -72 1 -85 -1 -76 -12 18 -21 89
-37 141 -31 26 3 62 14 80 23 18 9 60 38 93 64 33 26 78 56 100 67 22 11 90
32 150 47 61 15 126 36 145 46 35 18 35 18 -46 13 -62 -4 -100 -1 -155 13 -74
19 -74 19 11 25 47 3 103 12 125 19 53 17 151 67 253 128 45 28 116 64 156 81
44 18 92 31 117 31 27 0 39 -4 34 -9 -6 -6 -37 -24 -70 -42 -33 -17 -82 -47
-109 -65 -92 -62 -207 -169 -380 -354 -235 -252 -370 -372 -523 -464 -128 -76
-304 -146 -453 -180 -36 -8 -156 -28 -268 -46 -112 -17 -232 -40 -266 -51 -93
-28 -173 -65 -246 -114 -36 -24 -87 -66 -115 -94 -49 -51 -49 -51 -148 -51
-54 0 -130 -7 -170 -16 -40 -9 -110 -34 -156 -55 -47 -22 -118 -64 -158 -94
-40 -31 -98 -86 -129 -123 -30 -37 -72 -96 -92 -132 -20 -36 -55 -111 -78
-168 -42 -103 -71 -149 -122 -198 -15 -14 -68 -45 -118 -70 -51 -24 -118 -64
-150 -88 -91 -68 -152 -163 -179 -278 -16 -67 -20 -158 -7 -158 4 0 20 20 35
44 15 25 45 60 67 80 22 19 61 46 87 60 26 13 98 38 158 55 61 17 143 48 184
67 99 49 196 144 244 241 20 39 49 118 65 175 16 56 41 131 55 165 14 34 41
86 61 116 20 30 60 77 90 105 29 28 82 69 116 91 61 39 147 77 202 88 28 5 28
5 -2 -48 -17 -30 -39 -82 -50 -117 -29 -93 -34 -199 -16 -326 9 -60 16 -124
16 -141 0 -58 -29 -131 -71 -179 -22 -25 -72 -64 -110 -87 -38 -22 -77 -51
-85 -65 -9 -13 -30 -75 -46 -137 -16 -62 -49 -152 -73 -202 -33 -69 -58 -104
-104 -147 -53 -51 -60 -63 -63 -100 -3 -43 -3 -43 -58 -48 -31 -3 -68 -13 -84
-23 -15 -10 -39 -43 -53 -73 -28 -61 -50 -171 -40 -197 3 -9 16 -17 27 -17 12
0 55 16 97 35 55 25 95 54 151 108 43 41 96 86 119 100 23 15 53 42 67 60 15
19 43 72 63 118 20 46 54 114 77 151 23 37 61 91 85 120 90 106 201 191 451
345 47 28 111 72 142 97 32 26 78 71 102 102 24 31 57 82 72 113 16 31 38 64
49 73 40 34 133 77 219 102 59 17 174 36 352 56 145 16 310 39 366 50 124 25
283 77 370 121 35 17 93 51 129 76 59 39 70 43 105 37 73 -11 183 39 466 214
109 68 198 112 224 112 17 0 24 -6 24 -18 0 -35 -59 -137 -105 -181 -25 -23
-46 -50 -47 -59 -1 -10 -2 -26 -2 -37 -1 -18 -7 -20 -53 -17 -36 3 -59 -1 -77
-13 -14 -10 -42 -50 -62 -90 -20 -41 -39 -94 -41 -119 -6 -45 -5 -46 23 -46
39 0 110 23 173 55 29 14 72 43 94 64 23 21 60 48 82 59 22 11 48 29 58 39 9
11 33 68 52 126 19 58 54 146 79 194 25 48 48 100 51 114 10 41 -12 105 -45
132 -16 14 -43 28 -60 32 -20 4 -78 -5 -172 -29 -79 -19 -160 -38 -180 -41
-36 -7 -36 -7 -15 37 19 37 23 67 28 213 7 169 14 207 53 284 23 43 74 99 105
115 14 8 41 17 59 21 32 7 32 6 32 -31 0 -21 9 -57 21 -80 11 -24 36 -57 55
-74 19 -16 56 -41 82 -54 26 -13 80 -58 120 -99 70 -73 72 -76 72 -125 0 -44
4 -54 31 -76 17 -14 34 -26 39 -26 5 0 15 -3 24 -6 10 -4 16 -1 16 9 0 8 -16
24 -35 36 -33 19 -35 24 -35 71 0 48 -3 54 -73 133 -49 55 -91 92 -130 113
-31 16 -72 45 -91 63 -20 19 -39 51 -46 77 -7 24 -10 58 -6 76 3 18 15 50 26
70 11 21 16 39 11 42 -9 6 -55 -41 -64 -65 -4 -12 -13 -15 -31 -12 -38 8 -129
-41 -171 -90 -20 -23 -46 -64 -60 -92 -13 -28 -29 -81 -35 -117 -7 -37 -10
-96 -8 -132 3 -65 3 -65 -17 -46 -34 32 -97 52 -160 52 -63 0 -136 -20 -142
-37 -2 -7 28 -10 91 -7 55 3 108 0 128 -7 53 -17 80 -52 85 -108 4 -37 -1 -58
-19 -93 -15 -28 -34 -48 -49 -52 -112 -31 -139 -41 -168 -62 -41 -31 -81 -84
-81 -109 0 -16 10 -10 50 27 28 26 70 56 93 66 23 10 94 28 157 40 63 12 168
35 232 51 64 16 135 29 157 29 31 0 44 -6 60 -26 33 -42 27 -91 -24 -193 -25
-49 -59 -131 -75 -182 -17 -52 -38 -104 -46 -116 -8 -13 -33 -32 -57 -44 -23
-12 -63 -41 -89 -66 -47 -43 -101 -72 -172 -92 -33 -9 -36 -8 -36 12 0 27 51
138 72 154 9 8 37 12 70 10 50 -2 54 -4 50 -24 -2 -13 1 -23 7 -23 6 0 17 12
24 28 10 18 11 36 6 57 -5 17 -7 37 -4 45 3 8 25 35 50 59 46 45 105 151 105
191 0 12 -5 30 -10 41 -8 14 -21 19 -48 19 -20 0 -57 -10 -82 -21 -25 -11
-132 -72 -238 -136 -106 -64 -219 -126 -250 -139 -31 -13 -76 -24 -98 -24 -27
0 -50 7 -67 20 -14 11 -44 58 -66 104 -41 85 -73 118 -123 131 -14 4 -29 2
-32 -4 -4 -5 6 -17 22 -25 17 -9 41 -29 55 -45 14 -17 35 -56 47 -87 11 -31
30 -68 41 -82 20 -26 20 -26 -48 -70 -37 -24 -95 -56 -128 -71 -86 -40 -205
-77 -315 -100 -110 -23 -188 -34 -390 -56 -80 -9 -184 -23 -231 -30 -98 -17
-212 -54 -275 -89 -24 -14 -44 -23 -44 -21 0 2 22 55 49 117 27 62 47 117 43
122 -12 20 -64 -63 -133 -216 -40 -88 -85 -179 -101 -203 -46 -70 -156 -166
-268 -235 -193 -117 -310 -202 -389 -279 -44 -43 -104 -115 -134 -162 -30 -46
-71 -122 -92 -169 -20 -47 -46 -100 -57 -119 -12 -18 -44 -48 -72 -66 -28 -18
-64 -47 -80 -64 -22 -23 -32 -28 -38 -19 -4 7 -8 29 -8 48 0 24 6 39 20 48 14
8 20 23 20 49 0 31 9 46 64 102 86 90 129 177 180 367 13 50 29 101 35 113 7
11 35 33 63 47 28 14 73 47 100 72 27 25 61 65 74 88 13 22 29 67 35 99 8 45
7 79 -5 157 -9 54 -16 131 -16 171 0 40 7 101 15 136 9 35 29 92 45 125 16 34
52 91 79 128 28 37 83 92 123 123 40 32 103 72 140 91 37 19 105 45 150 58 46
13 164 36 263 51 99 14 216 35 260 45 123 29 230 66 341 119 55 27 136 72 180
101 43 29 115 84 160 121 44 37 161 152 260 256 98 103 215 223 259 266 44 42
118 105 165 138 76 55 215 131 281 154 18 7 8 10 -43 12 -38 2 -68 8 -68 12 0
12 161 31 260 31 65 0 81 3 72 12 -7 7 -56 13 -124 16 -82 3 -136 0 -196 -13
-46 -9 -134 -34 -195 -55 -62 -21 -130 -41 -152 -45 -40 -6 -40 -6 10 22 28
16 72 44 100 61 27 18 73 41 103 52 30 11 87 25 128 31 51 7 103 7 168 0 99
-11 231 -48 298 -83 36 -19 41 -19 55 -5 14 14 11 17 -28 38 -110 56 -296 100
-413 98 -33 -1 -83 -5 -110 -10z m-2579 -1695 c-32 -8 -100 -35 -150 -61 -74
-38 -110 -65 -183 -138 -74 -73 -98 -106 -132 -175 -23 -47 -58 -141 -77 -210
-20 -69 -52 -153 -72 -188 -19 -35 -59 -87 -88 -117 -33 -32 -82 -67 -127 -89
-40 -20 -122 -50 -182 -67 -59 -16 -130 -41 -157 -55 -28 -13 -68 -41 -91 -62
-38 -34 -40 -35 -34 -12 4 14 23 57 42 96 48 100 122 167 261 235 73 36 122
68 154 99 26 26 58 69 72 96 13 27 41 90 62 139 22 50 54 117 73 149 19 33 68
94 109 137 42 43 100 95 131 115 31 21 87 51 125 67 38 16 99 35 136 42 36 7
93 13 126 13 60 0 60 0 2 -14z m-610 -1736 c11 -62 11 -63 -15 -86 -25 -21
-122 -72 -138 -72 -4 0 -4 22 -1 50 3 27 17 71 30 97 24 48 55 73 93 73 17 0
22 -10 31 -62z M4925 3814 c-58 -39 -92 -72 -126 -126 -17 -26 -47 -58 -67
-70 -37 -23 -37 -23 -10 -26 15 -2 39 5 53 14 15 10 44 43 66 75 21 31 52 67
68 78 16 12 32 21 35 21 9 0 -21 -88 -43 -126 -12 -20 -20 -39 -17 -41 2 -3
14 1 26 7 12 6 28 27 36 45 7 19 24 37 36 41 13 3 35 15 51 26 15 11 27 17 27
13 0 -10 -32 -69 -51 -93 -10 -13 -20 -18 -24 -12 -9 14 -27 13 -23 -2 2 -7
37 -78 80 -158 56 -106 82 -168 96 -230 12 -47 41 -156 66 -242 25 -86 46
-170 46 -187 0 -16 -4 -40 -9 -53 -11 -27 -48 -68 -61 -68 -13 0 -13 87 -1 94
5 4 11 1 13 -6 2 -6 10 -8 16 -4 14 9 16 52 2 61 -15 10 -49 -13 -65 -45 -8
-16 -15 -41 -15 -55 0 -15 5 -35 10 -46 9 -17 7 -19 -16 -19 -22 0 -25 -2 -14
-15 7 -8 25 -15 40 -15 15 0 42 10 61 23 18 12 44 40 56 62 13 23 23 57 23 81
0 23 -24 127 -54 231 -30 104 -59 216 -65 247 -6 32 -26 83 -45 114 -18 32
-50 90 -71 131 -36 73 -36 73 -17 95 32 36 60 89 73 139 6 26 9 51 5 54 -3 4
-16 -3 -29 -14 -12 -11 -42 -33 -66 -48 -44 -27 -44 -27 -37 10 4 20 10 43 13
51 9 23 -28 17 -72 -12z M4910 3371 c0 -16 73 -71 93 -71 11 0 32 -8 48 -17
15 -9 31 -14 34 -11 8 7 -14 61 -28 70 -7 4 -28 8 -47 8 -19 0 -46 7 -60 15
-14 8 -28 14 -32 15 -5 0 -8 -4 -8 -9z M3545 3162 c-28 -10 -66 -29 -85 -42
-19 -14 -59 -47 -89 -73 -29 -27 -77 -60 -105 -73 -28 -13 -72 -27 -99 -30
-26 -4 -50 -10 -53 -15 -8 -13 44 -22 93 -15 24 3 64 14 88 25 23 10 80 53
126 96 46 42 105 88 131 101 43 22 70 44 51 44 -4 -1 -31 -8 -58 -18z M1455
1887 c-8 -13 -25 -64 -36 -113 -33 -143 -76 -270 -116 -341 -20 -36 -62 -99
-94 -139 -32 -40 -93 -103 -136 -139 -43 -37 -114 -84 -161 -108 -46 -22 -129
-53 -185 -68 -76 -20 -97 -29 -83 -35 30 -12 165 12 240 42 36 14 93 43 125
64 72 47 189 156 247 231 59 77 110 166 140 245 14 37 34 121 45 188 11 67 25
136 31 154 5 18 8 36 5 39 -3 2 -13 -6 -22 -20z"/>
</g>
</svg>
