<?xml version="1.0" standalone="no"?>
<!DOCTYPE svg PUBLIC "-//W3C//DTD SVG 20010904//EN"
 "http://www.w3.org/TR/2001/REC-SVG-20010904/DTD/svg10.dtd">
<svg version="1.0" xmlns="http://www.w3.org/2000/svg"
 width="600.000000pt" height="430.000000pt" viewBox="0 0 600.000000 430.000000"
 preserveAspectRatio="xMidYMid meet">
<metadata>
Created by potrace 1.16, written by Peter Selinger 2001-2019
</metadata>
<g transform="translate(0.000000,430.000000) scale(0.100000,-0.100000)"
fill="#f1ead8" stroke="none">
<path d="M4232 3839 c-28 -5 -76 -17 -106 -28 -30 -10 -98 -47 -151 -82 -81
-52 -106 -63 -150 -67 -34 -3 -71 2 -101 12 -26 9 -52 16 -57 16 -6 0 -2 -9 9
-21 34 -38 95 -61 174 -68 75 -6 75 -6 4 -47 -40 -23 -103 -54 -140 -70 -59
-24 -84 -28 -169 -28 -93 -1 -105 1 -169 32 -38 18 -71 30 -74 27 -3 -3 10
-22 29 -41 36 -39 151 -100 206 -110 18 -3 33 -10 33 -14 0 -4 -17 -10 -37
-13 -21 -4 -60 -18 -88 -31 -27 -14 -72 -44 -100 -67 -27 -22 -68 -51 -90 -62
-33 -18 -56 -22 -128 -21 -68 1 -85 -1 -77 -11 17 -21 97 -38 145 -32 25 4 60
14 78 23 17 9 59 38 92 64 33 26 78 56 100 67 22 11 90 32 150 47 61 15 126
36 145 46 35 18 35 18 -46 13 -61 -4 -100 -1 -155 13 -74 19 -74 19 6 25 44 4
100 12 125 19 53 14 145 60 258 128 45 28 116 64 156 81 44 18 92 31 117 31
27 0 39 -4 34 -9 -6 -6 -37 -24 -70 -42 -119 -62 -220 -144 -375 -304 -395
-406 -481 -485 -637 -579 -127 -76 -303 -146 -453 -180 -36 -8 -144 -26 -240
-41 -96 -14 -204 -33 -239 -41 -84 -19 -181 -58 -264 -106 -38 -22 -99 -69
-136 -104 -68 -64 -68 -64 -168 -64 -121 0 -224 -24 -338 -79 -44 -21 -114
-65 -155 -98 -42 -33 -99 -89 -127 -125 -29 -35 -70 -98 -92 -139 -22 -41 -54
-111 -71 -155 -17 -45 -46 -103 -64 -128 -18 -26 -48 -58 -67 -72 -19 -15 -70
-43 -114 -64 -44 -21 -107 -58 -140 -83 -92 -69 -153 -163 -180 -279 -16 -67
-20 -158 -7 -158 4 0 20 20 35 44 15 25 45 60 67 80 22 19 61 46 87 59 26 14
104 41 173 62 69 20 152 51 185 68 33 18 90 61 126 97 45 44 78 89 103 137 20
40 50 123 66 185 17 61 49 149 71 194 25 51 63 108 100 148 33 36 93 88 134
115 70 47 157 86 217 98 28 5 28 5 -2 -48 -17 -30 -39 -82 -50 -117 -29 -93
-34 -199 -16 -326 9 -60 16 -126 16 -146 0 -20 -7 -57 -16 -83 -8 -25 -34 -66
-56 -92 -22 -25 -71 -63 -109 -86 -38 -22 -77 -51 -85 -65 -9 -13 -30 -75 -46
-137 -16 -62 -49 -152 -73 -202 -33 -69 -58 -104 -104 -147 -53 -51 -60 -63
-63 -100 -3 -43 -3 -43 -60 -49 -32 -4 -69 -14 -84 -23 -14 -10 -37 -42 -51
-72 -28 -61 -50 -171 -40 -197 3 -9 16 -17 28 -17 12 0 56 16 98 36 54 26 98
58 151 109 41 40 94 84 117 98 23 15 53 42 67 60 15 19 43 72 63 118 20 46 55
116 78 154 24 39 62 93 86 120 52 61 162 158 228 202 26 18 105 67 174 110 69
43 153 99 186 125 33 26 80 73 105 105 25 31 59 84 75 118 22 45 41 67 73 86
71 44 102 57 193 84 58 16 175 35 351 55 145 16 310 39 366 50 57 12 150 37
208 56 113 38 248 105 311 155 34 27 44 30 78 24 21 -3 58 -1 82 5 56 15 152
63 270 135 208 127 297 176 332 182 32 5 37 3 37 -13 0 -37 -50 -125 -101
-179 -37 -39 -52 -63 -54 -87 -3 -33 -3 -33 -57 -30 -48 3 -57 1 -82 -25 -16
-15 -42 -56 -59 -91 -16 -35 -32 -83 -35 -108 -5 -43 -4 -44 25 -44 35 0 120
28 182 59 24 13 62 40 84 60 23 21 61 48 84 59 23 12 50 34 61 49 11 16 31 67
46 114 14 47 48 131 75 185 27 55 52 111 56 126 4 15 1 44 -5 65 -7 21 -22 48
-33 61 -12 12 -37 27 -57 33 -32 10 -57 6 -181 -24 -79 -20 -161 -39 -181 -42
-36 -7 -36 -7 -15 37 19 37 23 67 28 213 7 178 15 218 63 300 14 22 37 52 53
67 29 28 90 58 118 58 11 0 15 -10 15 -35 0 -19 9 -55 21 -80 12 -25 37 -58
55 -75 19 -16 56 -41 82 -54 26 -13 80 -58 120 -99 70 -73 72 -76 72 -125 0
-44 4 -54 31 -76 17 -14 34 -26 39 -26 5 0 15 -3 24 -6 10 -4 16 -1 16 9 0 8
-16 24 -35 36 -33 19 -35 24 -35 71 0 48 -3 54 -73 133 -49 55 -91 92 -130
113 -31 16 -73 45 -92 64 -20 19 -40 52 -46 74 -6 22 -8 56 -5 74 3 19 14 51
25 73 11 21 17 41 12 43 -9 6 -56 -41 -63 -63 -2 -7 -21 -14 -46 -16 -23 -2
-62 -15 -87 -29 -24 -14 -58 -43 -75 -63 -17 -21 -41 -61 -55 -89 -13 -27 -29
-80 -35 -116 -7 -37 -10 -96 -8 -132 3 -65 3 -65 -17 -46 -34 32 -97 52 -160
52 -63 0 -136 -20 -142 -37 -2 -7 28 -10 91 -7 55 3 108 0 128 -7 19 -6 45
-22 58 -36 14 -14 24 -41 27 -69 4 -33 0 -56 -17 -91 -12 -26 -32 -50 -44 -55
-11 -4 -43 -13 -71 -19 -27 -7 -71 -26 -96 -43 -50 -34 -89 -83 -89 -113 0
-15 11 -9 48 27 26 26 67 56 92 67 25 11 86 27 135 36 50 9 155 32 234 51 79
19 160 34 181 34 30 0 43 -6 59 -26 34 -43 27 -92 -25 -195 -25 -50 -59 -132
-75 -183 -17 -50 -37 -101 -45 -113 -8 -13 -33 -32 -57 -44 -23 -12 -63 -41
-89 -66 -47 -43 -101 -72 -172 -92 -33 -9 -36 -8 -36 12 0 27 51 138 72 154 9
8 37 12 70 10 50 -2 54 -4 50 -24 -2 -13 1 -23 7 -23 6 0 17 12 24 28 10 18
11 36 6 57 -5 17 -7 37 -4 45 3 8 25 35 50 59 46 45 105 151 105 191 0 12 -5
30 -10 41 -8 14 -21 19 -48 19 -20 0 -57 -10 -82 -21 -25 -11 -132 -72 -238
-136 -106 -64 -219 -126 -250 -139 -31 -13 -76 -24 -98 -24 -27 0 -50 7 -67
20 -14 11 -44 58 -66 104 -41 85 -73 118 -123 131 -14 4 -29 2 -32 -4 -4 -5 6
-17 22 -25 17 -9 41 -29 55 -45 14 -17 35 -56 47 -87 11 -31 30 -68 41 -82 20
-26 20 -26 -48 -70 -37 -24 -95 -56 -128 -71 -125 -58 -301 -105 -485 -130
-41 -6 -140 -18 -220 -26 -80 -9 -184 -22 -231 -30 -99 -17 -212 -54 -275 -89
-24 -14 -44 -23 -44 -21 0 2 22 55 49 117 27 62 47 116 44 121 -10 16 -45 -29
-83 -108 -21 -44 -63 -133 -94 -199 -51 -107 -64 -127 -139 -200 -54 -55 -117
-103 -187 -146 -189 -115 -309 -201 -389 -279 -44 -43 -104 -115 -134 -162
-30 -46 -71 -122 -92 -169 -20 -47 -46 -100 -57 -118 -11 -18 -45 -50 -77 -71
-31 -21 -67 -51 -80 -65 -18 -19 -27 -23 -33 -14 -4 7 -8 29 -8 48 0 24 6 39
20 48 14 8 20 23 20 49 0 31 9 46 64 102 86 90 129 177 180 367 13 50 29 101
35 113 7 11 35 33 63 47 28 14 73 47 100 72 27 25 60 64 73 87 13 22 29 67 35
100 9 49 9 78 -4 157 -9 54 -16 130 -16 170 0 40 7 102 15 137 9 35 29 92 45
125 16 34 52 91 79 128 28 37 83 92 123 123 40 32 103 72 140 91 37 19 105 45
150 58 46 13 164 36 263 51 99 14 216 35 260 45 123 29 230 66 341 119 55 27
136 72 180 101 43 29 115 84 160 121 44 37 161 152 260 256 98 103 215 223
259 266 44 42 118 105 165 138 76 55 215 131 281 154 18 7 8 10 -43 12 -38 2
-68 8 -68 12 0 12 161 31 260 31 63 0 81 3 73 11 -18 18 -202 23 -291 10 -42
-7 -135 -32 -207 -56 -71 -24 -148 -46 -170 -50 -40 -6 -40 -6 10 22 28 16 72
44 100 61 27 18 73 41 103 52 30 11 87 25 128 31 51 7 103 7 168 0 99 -11 231
-48 298 -83 36 -19 41 -19 55 -5 14 14 11 17 -28 38 -110 56 -296 100 -413 98
-33 -1 -85 -5 -114 -10z m-2557 -1691 c-27 -5 -97 -32 -155 -60 -91 -44 -116
-62 -195 -142 -75 -74 -99 -107 -133 -176 -23 -47 -58 -141 -77 -210 -20 -69
-52 -153 -72 -188 -19 -35 -58 -87 -87 -115 -28 -29 -83 -69 -121 -89 -39 -20
-121 -50 -183 -67 -63 -18 -136 -43 -163 -57 -27 -13 -68 -41 -91 -62 -38 -34
-40 -35 -34 -12 4 14 23 57 42 96 48 100 122 167 261 235 73 35 122 68 154 99
26 26 57 67 69 91 13 24 42 90 66 147 24 57 64 134 88 171 25 37 81 101 123
142 43 41 103 89 133 106 71 41 150 71 225 88 33 7 92 13 130 13 70 0 70 0 20
-10z m-628 -1740 c11 -62 11 -63 -15 -86 -25 -21 -122 -72 -138 -72 -4 0 -4
22 -1 50 3 27 17 71 30 97 24 48 55 73 93 73 17 0 22 -10 31 -62z M4925 3814
c-58 -39 -92 -72 -126 -126 -17 -26 -47 -58 -67 -70 -37 -23 -37 -23 -10 -26
15 -2 39 5 53 14 15 10 44 43 66 75 21 31 52 67 68 78 16 12 32 21 35 21 9 0
-21 -88 -43 -126 -12 -20 -20 -39 -17 -41 2 -3 14 1 26 7 12 6 28 27 36 45 7
19 24 37 36 41 13 3 35 15 51 26 15 11 27 17 27 13 0 -10 -32 -69 -51 -93 -10
-13 -20 -18 -24 -12 -9 14 -27 13 -23 -2 2 -7 37 -78 80 -158 56 -106 82 -168
96 -230 12 -47 41 -156 66 -242 25 -86 46 -170 46 -187 0 -16 -4 -40 -9 -53
-11 -27 -48 -68 -61 -68 -13 0 -13 87 -1 94 5 4 11 1 13 -6 2 -6 10 -8 16 -4
14 9 16 52 2 61 -15 10 -49 -13 -65 -45 -8 -16 -15 -41 -15 -55 0 -15 5 -35
10 -46 9 -17 7 -19 -16 -19 -22 0 -25 -2 -14 -15 7 -8 25 -15 40 -15 15 0 42
10 61 23 18 12 44 40 56 62 13 23 23 57 23 80 0 22 -24 126 -54 230 -29 105
-59 217 -66 250 -7 33 -27 85 -45 115 -18 30 -49 88 -70 129 -36 73 -36 73
-16 95 27 29 68 114 76 159 4 20 5 37 1 37 -3 0 -27 -16 -52 -35 -25 -20 -55
-40 -66 -46 -19 -10 -20 -9 -14 26 4 20 10 43 13 51 9 23 -28 17 -72 -12z
M4910 3371 c0 -5 17 -23 37 -40 21 -17 47 -31 58 -31 11 0 31 -7 43 -16 12 -8
26 -12 32 -9 6 4 5 16 -1 33 -6 14 -16 30 -22 34 -7 4 -28 8 -47 8 -19 0 -46
7 -60 15 -14 8 -28 14 -32 15 -5 0 -8 -4 -8 -9z M3545 3162 c-28 -10 -66 -29
-85 -42 -19 -14 -59 -47 -89 -74 -30 -26 -79 -60 -109 -74 -30 -13 -75 -27
-99 -30 -24 -2 -46 -8 -49 -13 -8 -13 44 -22 93 -15 24 3 64 14 86 24 23 11
80 54 127 96 47 43 106 89 132 102 43 22 70 44 51 44 -4 -1 -31 -8 -58 -18z
M1444 1863 c-8 -21 -26 -85 -39 -143 -13 -58 -35 -135 -49 -173 -14 -37 -42
-95 -62 -130 -20 -34 -61 -92 -91 -130 -30 -37 -89 -97 -131 -133 -42 -36
-114 -84 -160 -107 -46 -22 -129 -53 -185 -68 -76 -20 -97 -29 -83 -35 30 -12
165 12 240 42 36 14 93 43 124 64 32 20 88 65 125 100 78 72 151 161 197 240
18 30 45 87 61 126 16 40 40 134 53 210 13 77 27 147 31 157 4 10 3 17 -4 17
-6 0 -18 -17 -27 -37z"/>
</g>
</svg>
