<?xml version="1.0" standalone="no"?>
<!DOCTYPE svg PUBLIC "-//W3C//DTD SVG 20010904//EN"
 "http://www.w3.org/TR/2001/REC-SVG-20010904/DTD/svg10.dtd">
<svg version="1.0" xmlns="http://www.w3.org/2000/svg"
 width="600.000000pt" height="430.000000pt" viewBox="0 0 600.000000 430.000000"
 preserveAspectRatio="xMidYMid meet">
<metadata>
Created by potrace 1.16, written by Peter Selinger 2001-2019
</metadata>
<g transform="translate(0.000000,430.000000) scale(0.100000,-0.100000)"
fill="#f1ead8" stroke="none">
<path d="M4232 3839 c-87 -15 -156 -44 -258 -110 -85 -55 -104 -63 -155 -67
-39 -3 -72 1 -99 12 -54 22 -67 20 -44 -5 34 -38 95 -61 174 -68 l75 -6 -80
-46 c-130 -75 -185 -92 -300 -93 -93 -1 -105 1 -169 32 -38 18 -71 30 -74 27
-3 -3 10 -22 29 -41 36 -39 151 -100 206 -110 18 -3 33 -10 33 -14 0 -4 -17
-10 -37 -13 -53 -9 -128 -49 -193 -102 -86 -71 -112 -80 -213 -79 -69 1 -85
-1 -77 -11 17 -21 97 -38 145 -32 56 8 105 33 170 87 70 59 124 84 248 114 59
14 124 34 145 45 l37 19 -81 -5 c-61 -4 -100 -1 -155 13 l-74 19 80 6 c44 4
100 12 125 19 53 14 145 60 258 128 110 67 220 112 273 112 51 0 46 -7 -36
-51 -119 -62 -220 -144 -375 -304 -461 -474 -545 -545 -782 -654 -164 -76
-284 -106 -659 -165 -240 -38 -395 -106 -530 -233 l-66 -63 -100 0 c-121 0
-224 -24 -338 -79 -150 -72 -288 -203 -368 -351 -20 -36 -52 -106 -72 -157
-41 -103 -85 -171 -136 -209 -19 -14 -74 -45 -122 -69 -153 -75 -228 -147
-281 -267 -13 -29 -28 -77 -35 -106 -13 -60 -15 -142 -3 -142 4 0 20 20 35 44
36 57 93 109 154 139 26 14 104 41 173 62 69 20 152 51 185 68 33 18 90 61
126 97 82 80 127 167 169 322 41 149 97 261 171 342 93 101 240 191 351 213
l28 5 -30 -53 c-71 -128 -91 -266 -66 -443 20 -137 20 -171 0 -229 -21 -63
-83 -130 -165 -178 -38 -22 -77 -51 -85 -65 -9 -13 -30 -75 -46 -137 -16 -62
-49 -152 -73 -202 -33 -69 -58 -104 -104 -147 -53 -51 -60 -63 -63 -100 l-3
-43 -57 -6 c-32 -4 -69 -14 -84 -23 -14 -10 -37 -42 -51 -72 -28 -61 -50 -171
-40 -197 10 -26 42 -21 125 19 53 26 98 58 156 114 44 42 95 85 113 93 48 25
88 81 133 185 22 52 65 131 94 176 96 145 206 242 443 387 83 52 179 115 212
141 72 57 139 140 180 223 26 53 39 66 93 98 120 71 232 97 603 137 226 24
353 49 495 96 113 38 248 105 311 155 34 27 44 30 78 24 70 -12 165 26 352
140 208 127 297 176 332 182 32 5 37 3 37 -13 0 -37 -50 -125 -101 -179 -37
-39 -52 -63 -54 -87 l-3 -33 -54 3 c-48 3 -57 1 -82 -25 -38 -36 -87 -143 -94
-199 -5 -43 -4 -44 25 -44 35 0 120 28 182 59 24 13 62 40 84 60 23 21 61 48
84 59 23 12 50 34 61 49 11 16 31 67 46 114 14 47 48 131 75 185 27 55 52 111
56 126 8 33 -11 95 -38 126 -12 12 -37 27 -57 33 -32 10 -57 6 -181 -24 -79
-20 -161 -39 -181 -42 l-36 -7 21 44 c19 37 23 67 28 213 7 178 15 218 63 300
32 52 72 90 118 109 57 24 68 21 68 -19 0 -48 35 -118 76 -155 19 -16 56 -41
82 -54 26 -13 80 -58 120 -99 70 -72 72 -77 72 -124 0 -39 5 -54 23 -71 31
-29 87 -46 87 -27 0 7 -16 22 -35 34 -32 19 -35 24 -35 69 0 41 -6 55 -37 93
-76 91 -120 132 -174 159 -75 39 -126 96 -134 153 -7 47 5 103 32 144 8 11 10
24 5 27 -10 6 -57 -40 -64 -63 -2 -7 -21 -14 -46 -16 -23 -2 -62 -15 -87 -29
-113 -67 -182 -226 -173 -400 3 -65 3 -65 -17 -46 -53 50 -175 67 -259 37 -68
-24 -53 -33 48 -29 55 3 108 0 128 -7 81 -27 110 -110 68 -196 -24 -49 -34
-55 -115 -74 -87 -20 -185 -103 -185 -156 0 -15 11 -9 48 27 26 26 67 56 92
67 25 11 86 27 135 36 50 9 155 32 234 51 177 42 212 43 240 8 34 -43 27 -92
-25 -195 -25 -50 -59 -132 -75 -183 -17 -50 -37 -101 -45 -113 -8 -13 -33 -32
-57 -44 -23 -12 -63 -41 -89 -66 -47 -43 -101 -72 -172 -92 -33 -9 -36 -8 -36
12 0 27 51 138 72 154 9 8 37 12 70 10 50 -2 54 -4 50 -24 -6 -32 15 -29 31 5
10 18 11 36 6 57 -5 17 -7 37 -4 45 3 8 25 35 50 59 46 45 105 151 105 191 0
41 -18 60 -58 60 -50 0 -102 -26 -330 -163 -106 -64 -217 -125 -248 -136 -70
-27 -124 -27 -157 -1 -14 11 -44 58 -66 104 -41 85 -73 118 -123 131 -37 9
-44 -11 -10 -29 42 -22 77 -67 102 -132 11 -31 30 -68 40 -82 20 -24 20 -24
-3 -41 -117 -89 -288 -159 -487 -200 -114 -24 -198 -36 -390 -56 -265 -29
-401 -61 -506 -119 -24 -14 -44 -23 -44 -20 0 2 20 50 45 106 25 56 45 111 45
122 0 19 -1 19 -21 1 -20 -19 -40 -58 -153 -299 -51 -107 -64 -127 -139 -200
-54 -55 -117 -103 -187 -146 -289 -176 -431 -296 -525 -444 -28 -43 -73 -128
-100 -189 -43 -95 -57 -116 -95 -144 -25 -18 -66 -51 -91 -73 -51 -43 -59 -40
-59 23 0 21 7 36 20 45 14 9 20 23 20 50 0 33 8 45 56 92 57 56 111 141 140
220 9 25 28 90 44 146 15 55 33 110 39 122 6 12 35 34 63 48 62 31 142 104
173 159 13 22 28 65 35 96 9 45 8 77 -5 159 -20 139 -19 231 5 325 35 137 118
261 239 357 139 111 275 162 524 198 195 28 329 56 439 91 186 60 374 165 528
295 78 65 241 228 399 399 171 186 313 298 470 374 44 21 90 42 103 46 17 7 6
10 -44 12 -38 2 -68 8 -68 12 0 12 154 31 255 31 68 0 86 3 77 12 -7 7 -56 13
-119 16 -132 5 -240 -13 -391 -67 -59 -21 -127 -42 -152 -45 l-45 -7 50 29
c28 16 77 46 110 66 113 69 247 95 398 76 94 -11 225 -49 289 -82 36 -19 41
-19 55 -5 14 14 12 17 -23 35 -161 81 -373 117 -532 91z m-2557 -1691 c-27 -5
-97 -32 -155 -60 -91 -44 -115 -62 -195 -142 -111 -111 -147 -178 -205 -371
-23 -77 -57 -168 -77 -203 -46 -84 -123 -159 -209 -204 -38 -20 -121 -51 -184
-68 -124 -34 -187 -64 -251 -119 -39 -33 -41 -33 -35 -10 4 13 23 56 42 95 48
100 122 167 261 235 117 57 185 115 223 190 13 24 42 90 66 147 56 134 115
221 212 314 142 136 310 207 487 206 l70 0 -50 -10z m-628 -1740 c10 -59 10
-64 -10 -81 -28 -24 -96 -63 -126 -72 -24 -7 -24 -7 -18 44 3 28 17 72 30 98
24 48 55 73 93 73 17 0 22 -10 31 -62z M4925 3814 c-58 -39 -92 -72 -126 -126
-17 -26 -47 -58 -67 -70 l-37 -23 27 -3 c38 -4 73 22 119 89 33 49 85 99 103
99 9 0 -21 -88 -43 -126 -12 -20 -20 -39 -17 -41 11 -11 49 21 62 52 7 19 24
37 36 41 13 3 35 15 51 26 15 11 27 16 27 11 0 -4 -14 -32 -31 -62 -23 -39
-34 -50 -42 -42 -15 15 -29 14 -25 -1 2 -7 37 -78 80 -158 56 -106 82 -168 97
-231 11 -47 37 -142 57 -210 50 -167 58 -208 50 -251 -6 -35 -46 -88 -66 -88
-12 0 -14 87 -1 94 5 4 11 1 13 -6 7 -19 28 1 28 27 0 30 -14 39 -40 25 -41
-22 -63 -98 -40 -141 9 -17 7 -19 -16 -19 -22 0 -25 -2 -14 -15 32 -38 118 0
157 70 13 23 23 57 23 80 0 22 -24 126 -54 230 -30 105 -59 217 -66 250 -7 33
-27 85 -45 115 -18 30 -49 88 -70 129 -36 72 -36 74 -18 95 30 34 50 68 67
121 25 72 15 82 -40 40 -25 -19 -55 -40 -66 -46 -19 -10 -20 -9 -14 26 4 20
10 43 13 51 9 23 -28 17 -72 -12z M4910 3371 c0 -16 74 -71 95 -71 11 0 31 -7
43 -16 30 -21 44 -10 31 24 -13 34 -26 42 -69 42 -19 0 -46 7 -60 15 -30 17
-40 18 -40 6z M3545 3162 c-58 -20 -97 -46 -174 -116 -61 -55 -144 -97 -208
-104 -24 -2 -46 -8 -49 -13 -8 -14 44 -22 94 -15 70 9 125 41 214 123 44 41
102 85 129 98 44 23 71 45 52 45 -4 -1 -31 -8 -58 -18z M1444 1863 c-8 -21
-26 -85 -39 -143 -13 -58 -35 -135 -49 -173 -77 -204 -257 -407 -444 -500 -46
-22 -129 -53 -185 -68 -76 -20 -97 -29 -83 -35 30 -12 165 12 240 42 88 35
167 87 249 164 121 113 205 233 261 373 14 36 37 127 50 204 13 76 27 146 31
156 4 10 3 17 -4 17 -6 0 -18 -17 -27 -37z"/>
</g>
</svg>
