<?xml version="1.0" standalone="no"?>
<!DOCTYPE svg PUBLIC "-//W3C//DTD SVG 20010904//EN"
 "http://www.w3.org/TR/2001/REC-SVG-20010904/DTD/svg10.dtd">
<svg version="1.0" xmlns="http://www.w3.org/2000/svg"
 width="600.000000pt" height="430.000000pt" viewBox="0 0 600.000000 430.000000"
 preserveAspectRatio="xMidYMid meet">
<metadata>
Created by potrace 1.16, written by Peter Selinger 2001-2019
</metadata>
<g transform="translate(0.000000,430.000000) scale(0.100000,-0.100000)"
fill="#f1ead8" stroke="none">
<path d="M4223 3835 c-83 -15 -182 -58 -256 -111 -28 -20 -65 -43 -83 -50 -44
-18 -126 -18 -171 1 -49 21 -60 19 -37 -6 39 -43 94 -62 181 -63 46 -1 83 -2
83 -2 0 -7 -189 -107 -235 -124 -119 -44 -266 -35 -364 21 -47 27 -51 16 -10
-27 36 -39 151 -100 206 -110 36 -7 45 -24 13 -24 -41 0 -128 -43 -203 -101
-101 -78 -141 -92 -236 -85 -61 5 -72 4 -62 -8 6 -7 32 -19 56 -26 81 -23 167
4 260 81 71 59 129 85 249 114 59 13 123 33 144 44 l37 19 -82 -5 c-61 -4
-101 -1 -160 13 l-78 19 90 7 c129 9 187 31 374 142 121 71 229 116 280 116
23 0 41 -3 41 -8 0 -4 -31 -22 -69 -41 -109 -53 -235 -154 -386 -311 -412
-426 -518 -519 -711 -617 -176 -90 -353 -142 -604 -178 -343 -48 -504 -111
-660 -260 l-55 -53 -125 -5 c-144 -6 -223 -26 -340 -89 -168 -89 -304 -238
-381 -418 -109 -254 -123 -271 -285 -351 -213 -106 -313 -242 -331 -446 -3
-42 -2 -73 3 -73 5 0 18 16 29 36 25 47 112 126 168 152 25 12 101 38 169 57
157 47 227 84 310 166 80 80 133 183 173 334 14 55 44 138 67 185 33 68 57
101 127 170 71 71 102 94 181 132 52 26 112 50 133 54 l37 6 -25 -43 c-36 -62
-72 -183 -80 -264 -4 -44 -1 -113 9 -185 20 -146 20 -175 -1 -235 -20 -60
-105 -148 -180 -187 -29 -15 -59 -39 -68 -52 -9 -13 -29 -75 -46 -138 -42
-160 -94 -264 -174 -347 -56 -58 -65 -73 -65 -104 0 -43 -10 -51 -71 -52 -62
-1 -92 -23 -124 -88 -28 -58 -52 -175 -41 -202 17 -45 167 28 285 139 48 44
101 88 118 97 42 23 76 71 117 167 108 252 232 383 546 576 245 151 313 214
385 356 28 55 42 70 89 99 122 73 229 99 571 136 267 30 390 53 532 100 117
39 203 80 288 139 55 38 65 41 125 41 82 0 151 32 399 182 171 104 277 157
293 147 27 -17 -24 -126 -92 -198 -37 -39 -51 -62 -53 -87 l-3 -34 -54 3 c-51
3 -57 1 -87 -30 -40 -41 -84 -137 -91 -194 -4 -41 -3 -44 20 -44 70 0 202 58
262 114 21 20 60 48 86 61 62 31 81 60 115 170 15 49 47 130 72 180 58 114 65
140 53 186 -14 52 -45 87 -89 100 -32 10 -55 7 -177 -24 -76 -19 -158 -38
-181 -42 l-42 -7 21 44 c19 37 23 68 29 213 7 178 15 218 63 300 32 52 72 90
118 109 56 24 68 21 68 -16 0 -47 41 -129 81 -162 19 -16 52 -37 74 -47 22
-10 75 -53 117 -96 77 -77 78 -79 78 -130 0 -45 4 -54 31 -77 29 -25 79 -36
79 -17 0 5 -16 18 -35 30 -32 19 -35 24 -35 69 0 47 -3 54 -75 136 -56 63 -91
94 -134 115 -133 68 -176 180 -109 290 20 31 20 33 2 29 -10 -2 -28 -18 -41
-37 -19 -27 -30 -34 -64 -36 -91 -7 -190 -103 -231 -225 -17 -50 -22 -89 -23
-165 l0 -101 -43 30 c-38 27 -54 31 -120 34 -75 3 -152 -13 -159 -34 -2 -5 36
-7 89 -5 150 5 207 -25 215 -116 5 -60 -29 -134 -67 -145 -140 -40 -146 -43
-197 -93 -35 -34 -53 -59 -53 -75 0 -22 4 -21 48 22 60 60 115 84 247 108 58
11 161 33 229 50 187 46 219 41 247 -38 10 -30 6 -42 -44 -150 -31 -64 -67
-152 -81 -196 -32 -99 -46 -121 -96 -146 -22 -11 -65 -43 -94 -69 -49 -44
-113 -77 -188 -95 -26 -6 -26 -6 -16 32 13 47 52 125 71 140 8 7 38 11 70 9
53 -2 56 -3 50 -24 -7 -29 13 -30 28 -2 6 13 8 39 4 64 -6 42 -4 45 54 110 55
61 101 147 101 191 0 35 -20 54 -58 54 -50 -1 -88 -19 -298 -145 -233 -140
-305 -175 -365 -175 -64 0 -91 24 -139 125 -40 84 -71 117 -122 130 -36 9 -44
-11 -11 -29 43 -22 69 -55 103 -131 17 -38 39 -78 47 -88 15 -16 15 -19 -3
-32 -44 -35 -154 -96 -223 -125 -157 -64 -311 -96 -651 -135 -254 -29 -389
-58 -490 -108 -81 -39 -81 -43 -19 92 22 46 39 93 39 104 0 20 0 20 -21 1 -20
-18 -51 -79 -150 -294 -78 -169 -153 -244 -384 -385 -223 -136 -356 -248 -449
-379 -26 -35 -75 -124 -110 -197 -64 -134 -81 -158 -146 -197 -19 -11 -48 -34
-64 -51 -22 -23 -32 -28 -38 -19 -15 25 -8 78 13 99 13 13 19 28 15 42 -7 27
2 41 72 113 73 75 118 164 166 332 20 68 41 132 46 143 6 10 34 31 62 45 66
33 152 115 178 168 35 73 41 136 25 247 -19 126 -19 239 0 314 35 138 138 290
256 379 129 97 254 145 458 177 442 68 634 129 856 273 128 84 249 190 420
372 215 228 324 334 411 400 89 66 191 125 262 150 28 10 52 22 52 26 0 4 -25
7 -55 6 -50 -1 -75 5 -64 16 9 9 166 26 245 26 46 0 84 4 84 9 0 25 -206 28
-318 5 -42 -9 -136 -36 -208 -60 -158 -53 -205 -58 -125 -14 30 17 62 36 70
44 26 22 113 63 176 82 94 29 273 24 390 -11 50 -14 114 -38 144 -51 49 -23
55 -24 69 -10 14 14 10 18 -49 45 -123 55 -280 91 -394 90 -27 0 -83 -7 -122
-14z m-2540 -1685 c-124 -25 -252 -99 -363 -210 -104 -104 -144 -176 -195
-350 -48 -167 -93 -257 -163 -328 -73 -74 -167 -123 -312 -162 -124 -34 -187
-64 -251 -119 -39 -32 -41 -33 -34 -10 20 70 70 155 121 209 43 45 79 70 153
106 117 58 187 108 225 162 15 23 52 98 82 167 29 69 69 149 87 178 148 229
382 366 622 365 65 0 67 -1 28 -8z m-635 -1742 c8 -51 7 -66 -4 -79 -18 -21
-139 -82 -152 -78 -14 6 14 125 39 165 22 36 48 52 85 53 18 1 23 -7 32 -61z
M4925 3814 c-58 -39 -92 -72 -126 -126 -17 -26 -47 -58 -67 -70 l-37 -23 27
-3 c38 -4 73 22 119 89 33 49 85 99 103 99 10 0 -26 -105 -46 -133 -11 -16
-18 -31 -14 -34 10 -11 56 27 62 52 4 17 24 34 60 54 30 16 54 26 54 23 0 -4
-14 -31 -31 -61 -23 -39 -34 -50 -42 -42 -13 13 -27 14 -27 3 0 -5 35 -74 79
-154 57 -104 83 -166 95 -219 10 -41 39 -151 67 -244 61 -211 62 -252 9 -305
-30 -30 -40 -25 -40 24 0 43 14 70 22 44 7 -19 28 1 28 27 0 30 -14 39 -40 25
-41 -22 -63 -98 -40 -141 9 -16 7 -19 -10 -19 -33 0 -18 -25 16 -28 65 -6 144
87 144 168 0 20 -22 113 -50 207 -27 94 -57 206 -66 249 -9 43 -27 94 -39 114
-13 20 -44 78 -69 128 l-46 92 30 41 c27 37 70 136 70 159 0 16 -20 11 -53
-14 -18 -13 -45 -32 -61 -42 l-29 -18 7 38 c4 20 10 44 13 52 9 23 -28 17 -72
-12z M4910 3371 c0 -19 75 -71 101 -71 15 0 32 -7 39 -15 18 -22 30 -18 30 8
0 33 -30 57 -71 57 -19 0 -47 7 -63 15 -33 18 -36 18 -36 6z M3545 3162 c-57
-20 -97 -46 -172 -114 -72 -65 -123 -89 -238 -113 -52 -11 -1 -28 62 -21 79 9
134 39 230 127 47 43 105 88 129 100 24 11 44 25 44 30 0 11 5 12 -55 -9z
M1444 1863 c-8 -21 -26 -86 -39 -144 -45 -203 -118 -347 -244 -482 -124 -132
-264 -216 -430 -257 -110 -27 -121 -46 -21 -36 70 7 177 38 241 71 59 30 162
111 225 177 162 170 240 332 274 573 6 44 15 92 20 108 14 41 -7 33 -26 -10z"/>
</g>
</svg>
