<?xml version="1.0" standalone="no"?>
<!DOCTYPE svg PUBLIC "-//W3C//DTD SVG 20010904//EN"
 "http://www.w3.org/TR/2001/REC-SVG-20010904/DTD/svg10.dtd">
<svg version="1.0" xmlns="http://www.w3.org/2000/svg"
 width="600.000000pt" height="430.000000pt" viewBox="0 0 600.000000 430.000000"
 preserveAspectRatio="xMidYMid meet">
<metadata>
Created by potrace 1.16, written by Peter Selinger 2001-2019
</metadata>
<g transform="translate(0.000000,430.000000) scale(0.100000,-0.100000)"
fill="#f1ead8" stroke="none">
<path d="M4244 3840 c-97 -14 -177 -49 -296 -128 -58 -39 -79 -46 -128 -50
-40 -3 -73 1 -100 12 -22 9 -46 16 -52 16 -19 0 25 -41 67 -63 30 -16 60 -21
122 -21 46 -1 83 -2 83 -2 0 -1 -39 -24 -87 -51 -118 -67 -191 -93 -282 -100
-83 -6 -166 11 -230 48 -18 11 -36 17 -39 14 -3 -3 10 -22 29 -41 36 -39 151
-100 206 -110 18 -3 33 -10 33 -14 0 -4 -17 -10 -37 -13 -53 -9 -128 -49 -193
-102 -85 -70 -112 -80 -212 -79 -67 0 -85 -2 -78 -11 18 -22 96 -38 147 -30
54 7 109 36 173 90 65 54 127 82 244 110 59 13 123 33 144 44 l37 19 -82 -5
c-61 -4 -101 -1 -160 13 l-78 19 90 7 c129 9 202 37 383 146 109 66 220 112
272 112 24 0 39 -4 35 -10 -3 -5 -35 -24 -71 -42 -106 -53 -231 -154 -379
-308 -428 -443 -524 -525 -737 -628 -195 -95 -301 -125 -618 -173 -107 -16
-231 -41 -275 -55 -143 -46 -247 -105 -340 -194 l-60 -58 -125 -5 c-138 -5
-217 -25 -330 -82 -140 -70 -277 -204 -353 -345 -20 -36 -52 -106 -72 -157
-41 -103 -85 -171 -136 -209 -19 -14 -74 -46 -124 -70 -49 -25 -110 -61 -136
-81 -86 -65 -153 -175 -178 -291 -13 -60 -15 -142 -3 -142 4 0 20 20 35 44 36
57 93 109 154 139 26 14 104 41 173 62 69 20 152 51 185 68 82 44 181 145 227
233 20 38 51 122 68 185 17 62 50 152 72 199 34 68 59 102 128 171 71 70 102
93 180 132 52 25 112 49 132 53 l37 6 -29 -53 c-71 -128 -90 -253 -66 -436 20
-152 20 -178 -1 -238 -20 -60 -105 -148 -180 -187 -29 -15 -59 -39 -68 -52 -9
-13 -29 -75 -45 -138 -41 -158 -102 -277 -179 -352 -54 -51 -61 -63 -61 -97 0
-28 -5 -41 -20 -49 -11 -6 -30 -8 -43 -5 -40 11 -92 -19 -121 -67 -30 -52 -58
-156 -54 -201 4 -46 32 -46 124 -2 55 27 99 59 158 115 44 42 95 85 113 93 46
24 87 79 123 166 104 251 249 404 557 589 76 46 166 106 201 133 74 59 139
139 180 223 25 51 39 67 86 95 71 42 162 76 263 96 43 8 180 26 305 40 263 28
392 53 535 100 117 39 203 80 288 139 55 38 65 41 126 41 60 0 77 5 170 52 57
28 156 84 219 124 217 136 310 176 310 132 0 -36 -51 -125 -101 -178 -37 -39
-52 -63 -54 -87 l-3 -33 -54 3 c-48 3 -57 1 -82 -25 -38 -36 -87 -143 -94
-199 -5 -43 -4 -44 25 -44 34 0 120 28 178 58 22 11 60 38 85 60 25 21 64 49
87 60 23 12 50 34 61 49 11 16 32 69 47 118 15 50 49 133 75 185 26 52 51 109
55 126 8 40 -19 107 -52 134 -43 34 -79 33 -223 -3 -74 -20 -154 -38 -177 -42
l-42 -7 22 44 c18 37 22 67 28 213 7 178 15 217 63 300 32 52 72 90 118 109
54 23 68 21 68 -10 0 -83 58 -167 144 -209 34 -16 82 -56 130 -104 74 -77 76
-80 76 -129 0 -44 4 -54 31 -76 29 -25 79 -36 79 -17 0 5 -16 18 -35 30 -32
19 -35 24 -35 69 0 41 -6 55 -37 93 -76 91 -120 132 -174 159 -30 16 -72 46
-92 69 -55 61 -61 132 -17 213 11 21 16 39 11 42 -9 6 -56 -41 -63 -63 -2 -7
-21 -14 -46 -16 -53 -4 -121 -43 -162 -92 -68 -83 -106 -213 -98 -337 l4 -63
-44 31 c-38 27 -53 31 -120 34 -75 3 -152 -13 -159 -34 -2 -5 36 -7 89 -5 50
2 108 -2 128 -8 53 -16 82 -51 87 -108 4 -37 -1 -58 -19 -93 -15 -28 -34 -48
-49 -52 -135 -37 -142 -40 -195 -92 -36 -35 -54 -60 -54 -76 0 -22 4 -21 48
22 26 26 67 56 92 67 25 11 86 27 135 36 50 9 156 32 237 51 80 20 163 34 184
32 46 -4 78 -42 77 -91 0 -18 -22 -75 -48 -126 -25 -51 -60 -134 -76 -185 -17
-50 -37 -101 -45 -113 -8 -13 -33 -32 -56 -44 -22 -11 -62 -41 -88 -65 -43
-41 -124 -82 -192 -98 -26 -6 -26 -6 -16 32 13 47 52 125 71 140 8 7 38 11 69
9 50 -2 54 -4 50 -24 -2 -13 1 -23 6 -23 21 0 34 42 28 87 -5 42 -4 45 54 108
37 42 66 86 79 121 24 62 25 77 11 105 -15 27 -72 25 -135 -5 -27 -12 -126
-69 -220 -126 -93 -57 -202 -118 -242 -137 -85 -39 -147 -44 -186 -13 -14 11
-44 58 -66 104 -41 85 -73 118 -123 131 -37 9 -44 -11 -10 -29 42 -22 75 -65
102 -132 13 -33 32 -70 42 -83 17 -23 17 -24 -5 -40 -127 -96 -313 -169 -537
-211 -58 -11 -206 -31 -330 -45 -124 -15 -254 -33 -290 -40 -84 -18 -172 -49
-227 -80 l-44 -24 7 22 c4 12 24 60 45 106 22 46 39 93 39 104 0 20 0 20 -21
2 -20 -19 -41 -59 -152 -296 -45 -96 -67 -129 -125 -190 -45 -48 -107 -98
-172 -139 -256 -162 -340 -223 -416 -298 -112 -110 -159 -180 -248 -374 -38
-84 -51 -102 -92 -130 -27 -18 -67 -50 -90 -71 -34 -31 -43 -35 -48 -21 -12
32 -6 74 15 95 15 15 19 28 15 45 -5 20 5 36 57 92 99 105 134 175 187 368 15
55 33 110 39 122 6 12 35 34 63 48 57 29 138 101 168 149 11 17 27 59 35 93
15 57 15 72 1 167 -31 203 -18 316 50 452 93 186 266 323 489 388 47 13 152
34 233 46 208 29 318 53 453 98 309 104 497 243 864 641 146 158 261 263 363
333 62 42 228 127 248 127 7 0 16 5 20 11 4 7 -8 10 -37 9 -68 -3 -89 -1 -89
8 0 13 152 32 255 32 68 0 86 3 77 12 -7 7 -56 13 -120 16 -132 5 -219 -10
-407 -74 -73 -24 -143 -44 -156 -44 -19 0 -14 6 26 29 28 15 77 45 110 65 114
70 247 95 398 76 94 -12 225 -49 289 -82 36 -19 41 -20 56 -5 15 15 11 19 -49
46 -167 76 -340 104 -495 81z m-2559 -1690 c-127 -25 -257 -100 -365 -209
-105 -106 -143 -176 -200 -366 -23 -77 -56 -167 -73 -200 -43 -80 -127 -162
-213 -207 -38 -20 -121 -51 -184 -68 -124 -34 -187 -64 -251 -119 -39 -33 -41
-33 -35 -10 4 13 23 56 42 95 46 96 125 170 242 225 107 52 178 103 216 157
15 23 52 98 82 167 29 69 69 149 87 178 146 227 382 366 622 365 62 0 65 -1
30 -8z m-638 -1742 c7 -42 7 -67 1 -75 -13 -16 -105 -68 -137 -78 -24 -7 -24
-7 -18 46 12 97 63 168 123 169 17 0 22 -9 31 -62z M4925 3814 c-58 -39 -92
-72 -126 -126 -17 -26 -47 -58 -67 -70 l-37 -23 27 -3 c38 -4 73 22 119 89 33
49 85 99 103 99 9 0 -21 -88 -43 -126 -12 -20 -20 -39 -17 -42 10 -10 56 29
62 53 4 17 24 34 60 54 30 16 54 26 54 23 0 -4 -14 -31 -31 -61 -23 -39 -34
-50 -42 -42 -15 15 -29 14 -25 -1 2 -7 38 -78 80 -158 58 -109 82 -167 97
-233 12 -48 41 -155 66 -239 46 -155 52 -198 35 -242 -10 -28 -45 -66 -60 -66
-13 0 -13 87 -1 94 5 4 11 1 13 -6 7 -19 28 1 28 27 0 30 -14 39 -40 25 -41
-22 -63 -98 -40 -141 9 -16 7 -19 -10 -19 -33 0 -18 -25 16 -28 64 -6 144 83
144 163 0 22 -24 126 -54 230 -30 105 -59 217 -66 250 -7 33 -27 85 -45 115
-18 30 -49 88 -69 127 l-36 73 34 47 c37 52 70 138 62 160 -4 10 -18 4 -52
-22 -25 -19 -55 -40 -66 -46 -19 -10 -20 -9 -14 26 4 20 10 43 13 51 9 23 -28
17 -72 -12z M4910 3371 c0 -19 75 -71 101 -71 15 0 32 -7 39 -15 18 -22 30
-18 30 9 0 35 -26 56 -68 56 -20 1 -48 7 -62 15 -30 17 -40 18 -40 6z M3545
3162 c-58 -20 -97 -46 -174 -116 -61 -55 -144 -97 -208 -104 -24 -2 -46 -8
-49 -13 -8 -14 43 -22 93 -14 74 11 127 41 219 126 47 42 105 87 129 98 40 19
67 41 48 41 -4 -1 -31 -8 -58 -18z M1444 1863 c-8 -21 -26 -85 -39 -143 -41
-187 -90 -292 -196 -425 -126 -159 -295 -269 -481 -316 -49 -12 -88 -26 -88
-32 0 -15 130 1 203 25 84 27 130 52 207 109 126 93 237 224 305 359 51 103
68 158 94 319 12 67 24 127 27 132 3 5 0 9 -5 9 -6 0 -18 -17 -27 -37z"/>
</g>
</svg>
