<?xml version="1.0" standalone="no"?>
<!DOCTYPE svg PUBLIC "-//W3C//DTD SVG 20010904//EN"
 "http://www.w3.org/TR/2001/REC-SVG-20010904/DTD/svg10.dtd">
<svg version="1.0" xmlns="http://www.w3.org/2000/svg"
 width="600.000000pt" height="430.000000pt" viewBox="0 0 600.000000 430.000000"
 preserveAspectRatio="xMidYMid meet">
<metadata>
Created by potrace 1.16, written by Peter Selinger 2001-2019
</metadata>
<g transform="translate(0.000000,430.000000) scale(0.100000,-0.100000)"
fill="#f1ead8" stroke="none">
<path d="M4223 3836 c-40 -8 -103 -28 -140 -45 -36 -17 -89 -48 -116 -67 -28
-20 -65 -43 -83 -50 -19 -8 -56 -14 -84 -14 -28 0 -67 7 -87 15 -19 8 -40 15
-46 15 -18 0 27 -41 68 -63 30 -16 60 -21 122 -21 46 -1 83 -2 83 -2 0 -1 -39
-24 -87 -52 -49 -27 -115 -60 -148 -72 -33 -12 -94 -24 -135 -27 -55 -4 -92
-1 -135 11 -33 10 -75 26 -94 37 -18 11 -36 17 -39 14 -3 -3 10 -22 29 -41 36
-39 151 -100 206 -110 36 -7 45 -24 13 -24 -41 0 -128 -43 -203 -101 -42 -33
-96 -67 -120 -75 -30 -11 -62 -14 -114 -10 -40 3 -73 3 -73 0 0 -3 21 -14 47
-26 35 -15 58 -19 96 -15 27 4 68 15 91 26 22 11 63 39 91 62 27 22 70 51 96
64 25 13 95 36 155 50 60 15 125 35 144 45 l35 18 -81 -5 c-59 -4 -102 -1
-160 13 l-79 18 90 7 c50 4 113 15 140 24 63 22 115 48 234 119 52 30 127 69
167 86 40 17 91 30 113 30 23 0 41 -4 41 -8 0 -4 -33 -24 -73 -44 -40 -20
-111 -64 -157 -99 -47 -35 -148 -129 -225 -209 -294 -304 -413 -419 -511 -491
-55 -42 -145 -98 -200 -126 -54 -28 -144 -67 -200 -86 -116 -41 -241 -69 -404
-92 -63 -9 -150 -23 -193 -31 -137 -27 -263 -77 -367 -147 -25 -16 -70 -53
-100 -82 l-55 -53 -125 -5 c-89 -3 -145 -11 -195 -27 -38 -12 -104 -40 -145
-62 -41 -22 -106 -65 -143 -95 -37 -31 -97 -95 -132 -142 -39 -52 -81 -124
-106 -181 -80 -185 -97 -218 -137 -258 -23 -23 -84 -62 -148 -93 -75 -38 -127
-72 -171 -113 -35 -33 -75 -78 -89 -101 -13 -23 -33 -68 -44 -101 -23 -65 -39
-204 -24 -204 5 0 18 16 29 36 10 20 43 57 71 83 29 27 73 58 97 69 25 12 101
38 169 57 67 20 150 51 183 68 33 18 90 62 127 98 49 50 76 88 106 150 22 46
52 129 67 184 14 55 44 138 67 185 33 68 57 101 127 170 71 71 102 94 181 132
52 26 112 50 133 54 l37 6 -25 -43 c-33 -58 -71 -179 -80 -255 -4 -37 -1 -101
7 -160 7 -55 13 -135 13 -179 0 -69 -4 -86 -27 -126 -15 -25 -46 -63 -71 -85
-24 -21 -67 -51 -95 -66 -28 -15 -58 -39 -67 -52 -9 -13 -29 -75 -46 -138 -16
-62 -47 -151 -69 -196 -29 -60 -59 -103 -105 -151 -56 -58 -65 -73 -65 -104 0
-20 -6 -39 -12 -43 -7 -5 -33 -8 -59 -9 -26 -1 -58 -9 -72 -18 -14 -9 -37 -41
-52 -70 -28 -58 -52 -175 -41 -202 5 -14 14 -16 39 -11 17 3 61 20 96 37 39
20 96 62 150 113 48 44 101 88 118 97 16 9 42 32 56 50 14 19 42 71 61 117 20
46 53 113 75 150 22 37 66 98 98 135 32 37 94 97 138 132 44 35 150 107 235
159 85 53 181 116 212 141 32 24 76 68 99 97 22 29 56 82 74 118 27 54 42 70
86 97 30 18 74 40 99 51 41 17 137 42 215 57 17 3 134 16 260 30 127 14 275
35 330 46 121 24 281 77 367 120 35 17 90 50 123 73 55 38 65 41 125 41 54 0
78 6 144 38 43 20 158 85 255 144 171 104 277 157 293 147 4 -3 8 -13 8 -22 0
-35 -51 -124 -101 -177 -42 -44 -51 -61 -51 -89 l0 -36 -55 6 c-51 7 -56 5
-88 -26 -18 -18 -46 -60 -61 -93 -15 -34 -29 -80 -32 -104 -4 -40 -3 -43 20
-43 33 0 124 28 173 52 22 12 59 38 82 59 22 21 64 49 91 63 28 14 59 38 70
53 11 16 32 69 47 118 14 50 49 135 77 190 36 71 51 112 51 141 0 23 -8 56
-19 75 -11 19 -37 43 -59 53 l-39 19 -150 -36 c-83 -20 -168 -39 -188 -43
l-37 -6 21 43 c19 38 23 69 29 214 7 178 15 218 63 300 14 22 37 52 53 67 29
28 90 58 118 58 10 0 15 -10 15 -32 0 -18 11 -56 24 -83 13 -28 38 -64 57 -79
19 -16 54 -39 79 -50 26 -12 76 -53 118 -97 70 -73 72 -77 72 -126 0 -45 4
-54 31 -77 17 -14 41 -26 55 -26 13 0 24 4 24 9 0 5 -16 18 -35 30 -19 11 -35
28 -36 38 -1 10 0 32 1 49 1 25 -13 46 -75 117 -56 64 -91 95 -134 116 -31 16
-74 47 -94 70 -20 22 -39 55 -43 75 -3 20 -3 53 1 74 4 20 16 52 27 71 20 31
20 33 2 29 -10 -2 -28 -18 -41 -37 -19 -27 -30 -34 -64 -36 -23 -2 -61 -16
-87 -32 -26 -16 -64 -51 -84 -78 -21 -28 -48 -79 -60 -115 -17 -50 -22 -89
-23 -165 l0 -101 -43 30 c-38 27 -54 31 -120 34 -48 2 -92 -2 -116 -11 -22 -7
-42 -19 -44 -26 -3 -9 2 -11 15 -7 11 4 56 7 99 7 85 2 136 -14 167 -49 27
-30 33 -94 13 -146 -9 -24 -24 -50 -34 -58 -9 -9 -36 -18 -60 -22 -24 -3 -63
-16 -87 -27 -24 -11 -62 -41 -85 -65 -22 -24 -40 -54 -40 -66 0 -20 6 -17 48
24 26 26 68 56 94 68 26 11 95 29 153 40 58 11 161 33 229 50 68 16 141 30
163 30 45 0 66 -18 84 -68 10 -30 6 -42 -44 -150 -31 -64 -67 -152 -81 -196
-14 -43 -32 -89 -41 -102 -8 -13 -33 -33 -55 -44 -22 -11 -65 -43 -94 -69 -49
-44 -113 -77 -188 -95 -26 -6 -26 -6 -16 32 13 47 52 125 71 140 8 7 38 11 70
9 53 -2 56 -3 50 -24 -7 -29 13 -30 28 -2 6 13 8 39 4 64 -6 42 -4 45 54 110
38 42 67 86 80 121 12 30 21 63 21 74 0 10 -7 26 -16 34 -8 9 -30 16 -47 16
-18 0 -50 -9 -73 -19 -22 -10 -121 -67 -220 -126 -98 -59 -210 -123 -249 -141
-84 -41 -148 -45 -189 -13 -14 11 -44 58 -66 104 -40 84 -71 117 -122 130 -14
4 -29 2 -32 -4 -4 -5 6 -17 21 -25 15 -8 38 -25 50 -38 12 -12 36 -54 53 -93
17 -38 39 -78 47 -88 15 -16 15 -19 -3 -32 -44 -35 -154 -96 -223 -125 -88
-36 -222 -73 -341 -94 -47 -9 -186 -27 -310 -41 -124 -14 -269 -36 -323 -50
-54 -13 -129 -39 -167 -58 -64 -30 -70 -31 -64 -13 4 12 24 59 45 105 22 46
39 90 39 97 0 8 -4 14 -10 14 -17 0 -57 -70 -121 -213 -34 -78 -77 -164 -95
-192 -39 -60 -101 -124 -169 -175 -27 -21 -99 -68 -160 -105 -60 -37 -145 -92
-188 -123 -42 -30 -108 -86 -147 -124 -38 -37 -89 -97 -114 -132 -26 -35 -75
-124 -110 -197 -35 -74 -74 -143 -87 -155 -13 -11 -40 -30 -59 -42 -19 -11
-48 -34 -64 -51 -22 -23 -32 -28 -38 -19 -4 7 -8 28 -8 46 0 19 8 40 21 53 13
13 18 27 14 39 -3 11 -2 27 4 37 5 10 36 45 69 79 39 40 72 87 95 135 20 41
52 129 71 197 20 68 41 132 46 143 6 10 34 31 62 45 28 14 75 49 104 76 29 28
62 69 74 92 11 23 24 65 29 92 7 37 6 79 -4 150 -8 54 -15 135 -15 179 0 45 7
108 15 140 9 33 28 87 44 120 15 33 50 89 76 124 27 35 78 88 113 117 106 87
255 155 402 183 30 6 118 20 195 31 77 11 185 31 240 44 118 29 266 81 355
126 96 48 214 127 315 211 50 42 160 149 245 240 213 226 329 339 416 404 89
67 191 126 262 151 28 10 52 22 52 26 0 4 -25 7 -55 6 -30 -1 -58 2 -62 5 -3
4 -4 9 -2 11 9 9 166 26 245 26 46 0 84 4 84 9 0 24 -206 28 -315 6 -40 -9
-134 -36 -208 -60 -74 -25 -145 -45 -158 -45 -19 0 -11 7 30 30 30 17 62 36
70 44 26 22 113 63 176 82 44 14 91 18 175 18 116 -1 189 -14 295 -54 28 -10
63 -25 79 -34 21 -10 35 -12 48 -5 10 5 18 12 18 15 0 12 -142 68 -230 91 -52
13 -135 26 -185 28 -54 3 -119 -1 -162 -9z m-2540 -1686 c-56 -12 -151 -51
-221 -91 -31 -19 -95 -72 -142 -119 -58 -58 -97 -108 -122 -155 -20 -39 -53
-126 -73 -195 -19 -69 -52 -158 -71 -198 -23 -46 -57 -94 -92 -130 -33 -34
-87 -73 -128 -94 -38 -21 -121 -51 -184 -68 -63 -17 -136 -43 -162 -57 -27
-15 -66 -42 -88 -60 -22 -19 -40 -32 -40 -29 0 3 10 31 21 63 12 32 34 76 49
98 48 70 123 131 216 175 49 24 112 60 140 81 28 20 65 60 83 88 18 28 54 101
80 163 49 118 92 193 156 268 79 95 208 187 315 226 76 27 162 42 235 42 65 0
67 -1 28 -8z m-635 -1742 c8 -53 7 -66 -6 -81 -19 -21 -137 -81 -150 -76 -14
6 14 125 39 165 22 36 48 52 85 53 18 1 23 -7 32 -61z M4925 3814 c-58 -39
-92 -72 -126 -126 -17 -26 -47 -58 -67 -70 l-37 -23 27 -3 c15 -2 39 5 53 14
15 10 44 43 66 75 21 31 52 67 68 78 16 12 32 21 35 21 10 0 -26 -105 -46
-133 -11 -16 -18 -31 -14 -34 3 -3 17 2 31 11 13 9 27 27 31 41 4 17 24 34 60
54 30 16 54 26 54 23 0 -4 -14 -31 -31 -61 -23 -39 -34 -50 -42 -42 -13 13
-27 14 -27 3 0 -5 35 -74 79 -154 56 -104 83 -166 95 -219 10 -41 39 -150 67
-244 27 -93 49 -184 49 -202 0 -17 -4 -43 -10 -57 -10 -28 -45 -66 -60 -66
-13 0 -13 87 -1 94 5 4 11 1 13 -6 2 -6 10 -8 16 -4 15 9 16 52 2 61 -17 10
-56 -20 -70 -55 -10 -25 -11 -42 -3 -71 9 -36 8 -39 -9 -39 -31 0 -15 -25 18
-28 18 -2 43 6 64 20 19 13 45 43 58 68 12 24 22 60 22 80 0 20 -22 113 -50
206 -27 93 -56 201 -64 240 -11 49 -37 114 -86 207 l-71 136 30 41 c27 38 71
136 71 160 0 16 -20 11 -53 -14 -18 -13 -45 -32 -61 -42 l-29 -18 7 38 c4 20
10 44 13 52 9 23 -28 17 -72 -12z M4910 3371 c0 -5 17 -23 37 -40 21 -17 49
-31 64 -31 15 0 32 -7 39 -15 7 -8 16 -15 21 -15 5 0 9 11 9 23 0 13 -8 31
-18 40 -10 10 -34 17 -53 17 -19 0 -47 7 -63 15 -15 8 -30 15 -32 15 -2 0 -4
-4 -4 -9z M3543 3161 c-53 -18 -92 -44 -175 -118 -27 -24 -71 -54 -98 -68 -26
-13 -68 -27 -92 -31 -24 -4 -49 -10 -57 -14 -23 -12 43 -23 92 -15 23 4 61 16
85 28 24 11 82 55 129 98 47 43 105 88 129 100 24 11 44 25 44 30 0 5 -1 9 -2
9 -2 -1 -26 -9 -55 -19z M1444 1863 c-8 -21 -26 -86 -39 -144 -13 -59 -37
-142 -54 -185 -17 -44 -52 -113 -79 -154 -27 -42 -77 -106 -111 -143 -35 -37
-91 -88 -125 -113 -33 -26 -96 -64 -138 -84 -42 -21 -117 -48 -167 -60 -50
-12 -91 -27 -91 -32 0 -17 131 0 208 26 38 13 84 31 103 41 62 32 166 114 232
184 36 38 83 96 105 128 91 134 136 257 162 438 6 44 15 92 20 108 14 41 -7
33 -26 -10z"/>
</g>
</svg>
