<?xml version="1.0" standalone="no"?>
<!DOCTYPE svg PUBLIC "-//W3C//DTD SVG 20010904//EN"
 "http://www.w3.org/TR/2001/REC-SVG-20010904/DTD/svg10.dtd">
<svg version="1.0" xmlns="http://www.w3.org/2000/svg"
 width="600.000000pt" height="430.000000pt" viewBox="0 0 600.000000 430.000000"
 preserveAspectRatio="xMidYMid meet">
<metadata>
Created by potrace 1.16, written by Peter Selinger 2001-2019
</metadata>
<g transform="translate(0.000000,430.000000) scale(0.100000,-0.100000)"
fill="#f1ead8" stroke="none">
<path d="M4244 3840 c-28 -4 -69 -13 -90 -20 -21 -7 -61 -24 -89 -38 -27 -13
-72 -40 -99 -59 -27 -20 -64 -42 -82 -49 -19 -8 -56 -14 -84 -14 -28 0 -67 7
-87 15 -19 8 -40 15 -46 15 -5 0 -2 -9 9 -21 10 -12 37 -30 59 -42 30 -16 60
-21 122 -21 46 -1 83 -2 83 -2 0 -1 -39 -24 -87 -52 -49 -27 -115 -60 -148
-72 -33 -12 -94 -24 -135 -27 -55 -4 -92 -1 -135 11 -33 10 -75 26 -94 37 -18
11 -36 17 -39 14 -3 -3 10 -22 29 -41 19 -20 65 -52 104 -70 38 -19 84 -37
102 -40 18 -3 33 -10 33 -15 0 -5 -9 -9 -20 -9 -10 0 -43 -9 -72 -21 -29 -11
-88 -47 -131 -80 -42 -33 -96 -67 -120 -75 -30 -12 -62 -14 -116 -10 -61 5
-72 4 -62 -8 6 -7 32 -19 56 -26 26 -7 62 -10 87 -6 24 4 61 16 83 26 22 11
62 38 90 61 27 22 71 52 97 65 25 13 94 35 152 49 59 13 123 33 144 44 l37 19
-82 -5 c-61 -4 -101 -1 -160 13 l-78 19 90 7 c50 3 113 14 140 23 28 10 70 28
95 40 25 13 87 48 139 79 52 30 127 69 167 86 40 17 91 30 113 30 23 0 41 -3
41 -8 0 -4 -31 -22 -69 -41 -38 -18 -109 -63 -158 -100 -48 -36 -151 -131
-228 -211 -77 -79 -201 -206 -275 -281 -74 -74 -180 -169 -236 -210 -55 -42
-145 -98 -200 -126 -54 -28 -145 -67 -201 -86 -55 -20 -145 -45 -200 -56 -54
-12 -161 -30 -238 -41 -77 -11 -178 -29 -225 -41 -48 -11 -133 -44 -197 -75
-86 -42 -129 -71 -185 -123 l-73 -68 -125 -6 c-88 -3 -146 -11 -195 -27 -38
-12 -103 -39 -144 -61 -40 -22 -100 -61 -133 -87 -33 -26 -84 -75 -112 -109
-28 -34 -66 -86 -84 -116 -18 -30 -55 -106 -81 -170 -26 -63 -63 -135 -81
-161 -19 -25 -54 -59 -79 -75 -25 -16 -82 -46 -126 -68 -104 -50 -204 -142
-245 -227 -16 -33 -36 -88 -45 -121 -8 -32 -15 -81 -15 -107 0 -26 3 -48 8
-48 4 0 16 16 27 36 10 20 43 57 71 83 29 27 73 58 97 69 25 12 101 38 169 57
67 20 150 51 183 68 33 18 90 62 127 98 49 50 76 88 106 150 22 46 52 129 67
184 14 55 44 138 67 185 34 68 60 102 128 171 71 71 101 93 180 131 52 26 111
50 131 53 l36 7 -40 -81 c-25 -53 -44 -111 -55 -171 -14 -83 -14 -100 1 -227
9 -76 17 -152 17 -169 0 -17 -7 -52 -17 -79 -11 -34 -34 -67 -72 -105 -31 -30
-79 -67 -108 -82 -29 -15 -59 -39 -68 -52 -9 -13 -29 -75 -46 -138 -16 -62
-47 -151 -69 -196 -29 -60 -59 -103 -105 -151 -56 -58 -65 -73 -65 -104 0 -26
-6 -39 -20 -47 -11 -6 -30 -8 -43 -5 -13 4 -40 0 -60 -8 -23 -10 -44 -30 -61
-59 -14 -24 -32 -72 -41 -106 -9 -34 -15 -77 -13 -95 3 -29 6 -32 36 -30 19 0
63 16 99 33 41 20 98 63 152 114 48 44 101 88 118 97 16 9 42 32 56 50 14 19
43 75 65 124 21 50 55 116 75 149 19 32 57 85 84 118 26 33 91 94 144 137 52
43 163 119 245 169 82 50 175 112 206 137 32 24 76 68 99 97 22 29 56 82 74
118 28 55 42 70 89 99 31 18 85 44 120 57 35 13 100 30 143 39 43 8 182 26
308 40 127 14 275 35 330 46 55 11 146 35 202 54 56 19 130 48 165 66 35 17
90 50 123 73 55 38 65 41 126 41 60 0 76 5 170 52 57 29 163 89 234 133 72 45
157 94 190 110 33 16 69 30 80 32 12 2 21 -4 23 -14 2 -10 -8 -43 -22 -73 -14
-30 -48 -80 -77 -110 -38 -41 -52 -63 -53 -87 l-2 -33 -55 3 c-49 3 -58 1 -83
-25 -16 -15 -42 -56 -59 -91 -16 -35 -32 -83 -35 -108 -4 -41 -3 -44 20 -44
13 0 49 7 79 16 30 9 74 27 99 39 25 13 65 41 90 63 25 21 64 49 87 60 23 12
50 34 61 49 11 16 32 68 47 118 15 49 47 130 72 180 25 49 50 103 54 119 5 18
5 45 -1 67 -6 20 -19 48 -31 62 -11 15 -37 32 -58 38 -32 10 -55 7 -177 -24
-76 -19 -158 -38 -181 -42 l-42 -7 21 44 c19 37 23 68 29 213 7 178 15 218 63
300 14 22 37 52 53 67 29 28 90 58 118 58 10 0 15 -10 15 -32 0 -18 11 -56 24
-83 13 -28 38 -64 57 -79 19 -16 52 -37 74 -47 22 -10 75 -53 117 -96 77 -77
78 -79 78 -130 0 -45 4 -54 31 -77 17 -14 41 -26 55 -26 13 0 24 4 24 9 0 5
-16 18 -35 30 -32 19 -35 24 -35 69 0 41 -6 55 -37 93 -20 24 -55 64 -77 87
-23 24 -66 56 -97 72 -30 16 -72 46 -92 69 -20 22 -39 55 -43 75 -3 20 -3 51
0 69 3 18 15 49 26 69 11 21 16 39 11 42 -4 3 -17 -5 -28 -17 -11 -12 -25 -30
-30 -41 -7 -12 -24 -19 -53 -21 -24 -2 -62 -15 -88 -32 -26 -16 -64 -51 -84
-78 -21 -28 -48 -79 -60 -115 -17 -50 -22 -89 -23 -165 l0 -101 -43 30 c-38
27 -54 31 -120 34 -48 2 -92 -2 -116 -11 -22 -7 -41 -18 -43 -23 -2 -5 36 -7
89 -5 50 2 108 -2 128 -8 20 -6 47 -22 60 -36 15 -16 24 -40 27 -72 4 -37 -1
-58 -19 -93 -15 -27 -34 -48 -49 -52 -13 -4 -51 -15 -84 -25 -46 -13 -72 -29
-112 -68 -35 -34 -53 -59 -53 -75 0 -22 4 -21 48 22 26 26 67 56 92 67 25 11
86 27 135 36 50 9 155 32 233 51 79 19 161 34 181 34 24 0 44 -7 54 -18 9 -10
22 -33 28 -50 10 -30 6 -42 -45 -150 -30 -64 -67 -153 -81 -197 -14 -44 -32
-90 -40 -102 -9 -13 -33 -32 -55 -43 -22 -11 -65 -43 -94 -69 -31 -28 -76 -57
-107 -68 -30 -11 -66 -23 -81 -27 -26 -6 -26 -6 -16 32 6 20 21 58 33 83 13
25 30 51 38 57 8 7 38 11 70 9 53 -2 56 -3 50 -24 -3 -13 -1 -23 6 -23 5 0 15
10 22 21 6 13 8 39 4 64 -6 42 -4 45 54 110 38 42 67 86 80 121 12 30 21 62
21 70 0 8 -5 24 -10 35 -8 14 -21 19 -48 19 -20 0 -55 -9 -77 -19 -22 -10
-125 -68 -228 -130 -103 -62 -216 -125 -250 -142 -76 -36 -142 -39 -181 -8
-14 11 -44 58 -66 104 -24 50 -51 92 -68 104 -16 11 -40 23 -54 26 -14 4 -29
2 -32 -4 -4 -5 6 -17 22 -25 17 -9 41 -28 54 -44 14 -17 35 -56 48 -88 13 -33
32 -69 44 -82 12 -14 17 -26 10 -30 -5 -4 -36 -25 -69 -46 -33 -22 -99 -56
-147 -77 -48 -21 -129 -49 -180 -63 -51 -14 -131 -32 -178 -40 -47 -9 -186
-27 -310 -41 -124 -14 -269 -36 -323 -50 -54 -13 -129 -39 -167 -58 -64 -30
-70 -31 -64 -13 4 12 24 59 45 105 22 46 39 93 39 104 0 20 0 20 -21 1 -20
-18 -51 -79 -150 -294 -24 -52 -63 -118 -87 -147 -23 -29 -59 -68 -80 -88 -20
-19 -81 -63 -136 -97 -249 -159 -336 -221 -406 -289 -42 -41 -97 -104 -123
-140 -26 -37 -76 -128 -112 -203 -58 -123 -69 -139 -112 -168 -26 -18 -66 -50
-89 -71 -34 -31 -43 -35 -48 -21 -3 8 -6 29 -6 45 0 16 9 38 21 50 13 13 19
28 15 42 -3 11 -1 27 4 36 5 9 35 43 68 77 39 40 72 87 95 135 20 41 52 129
71 197 20 68 41 132 46 143 6 10 34 31 62 45 28 14 75 49 104 76 29 28 62 69
74 92 11 23 24 66 30 95 7 39 6 78 -5 152 -8 54 -15 134 -15 177 0 43 7 105
15 137 8 33 31 92 51 132 20 39 60 100 89 135 29 36 81 86 116 112 35 27 91
62 124 78 33 17 85 39 115 50 30 10 84 25 120 33 36 7 119 21 184 30 66 9 162
25 215 36 52 11 147 37 212 58 64 22 150 56 190 76 41 21 110 61 154 89 44 29
121 86 170 127 50 42 162 152 250 245 88 93 200 209 249 257 49 48 123 113
165 145 42 31 122 81 179 110 56 28 109 52 117 52 8 0 15 4 15 10 0 5 -25 9
-55 8 -30 -1 -58 2 -62 5 -3 4 -4 9 -2 11 2 2 39 9 82 15 43 6 120 11 170 11
70 0 88 3 79 12 -7 7 -56 13 -120 16 -78 3 -133 0 -192 -12 -46 -10 -143 -37
-215 -62 -73 -24 -143 -44 -156 -44 -19 0 -12 7 30 30 30 17 62 36 70 44 26
22 113 63 176 82 45 14 90 18 180 17 98 -1 136 -6 210 -28 50 -14 114 -38 144
-51 49 -23 55 -24 69 -10 14 14 10 18 -49 45 -35 16 -96 38 -134 50 -39 11
-102 25 -140 30 -39 6 -92 10 -120 10 -27 -1 -73 -5 -101 -9z m-2561 -1690
c-23 -5 -69 -20 -103 -33 -33 -14 -86 -40 -118 -58 -31 -19 -95 -72 -142 -119
-59 -59 -97 -107 -122 -155 -20 -38 -53 -126 -73 -195 -19 -69 -52 -158 -71
-198 -23 -46 -57 -94 -92 -130 -33 -34 -87 -73 -128 -94 -38 -21 -121 -51
-184 -68 -63 -17 -136 -43 -162 -57 -27 -15 -67 -42 -89 -62 -39 -33 -41 -33
-35 -10 4 13 23 56 42 95 24 52 51 88 95 128 38 36 91 71 147 97 48 23 110 59
137 79 28 20 63 56 79 78 15 23 52 98 82 167 29 69 69 149 87 178 19 28 51 72
72 97 20 25 63 67 94 93 31 27 83 64 116 82 34 19 81 42 105 51 25 8 72 22
105 29 33 7 92 13 130 13 65 0 67 -1 28 -8z m-635 -1742 c8 -51 7 -66 -4 -79
-18 -21 -139 -82 -152 -78 -14 6 14 125 39 165 12 20 31 39 43 44 11 5 31 9
42 9 18 1 23 -7 32 -61z M4925 3814 c-22 -15 -53 -38 -68 -53 -15 -14 -42 -47
-58 -73 -17 -26 -47 -58 -67 -70 l-37 -23 27 -3 c15 -2 39 5 53 14 15 10 44
43 66 75 21 31 52 67 68 78 16 12 32 21 35 21 2 0 -2 -24 -11 -52 -8 -29 -24
-66 -35 -81 -11 -16 -18 -31 -14 -34 3 -3 17 2 31 11 13 9 27 27 31 41 4 17
24 34 60 54 30 16 54 26 54 23 0 -4 -14 -31 -31 -61 -23 -39 -34 -50 -42 -42
-6 6 -15 11 -19 11 -4 0 -8 -4 -8 -8 0 -5 34 -71 76 -148 63 -117 81 -160 109
-269 19 -71 50 -184 69 -250 20 -66 36 -134 36 -152 0 -17 -4 -43 -10 -57 -5
-14 -18 -34 -30 -46 -11 -11 -24 -20 -30 -20 -13 0 -13 87 -1 94 5 4 11 1 13
-6 2 -6 10 -8 16 -4 7 4 12 18 12 31 0 13 -4 27 -10 30 -5 3 -19 1 -30 -5 -11
-6 -27 -24 -35 -40 -8 -16 -15 -41 -15 -55 0 -15 5 -35 10 -46 9 -16 7 -19
-10 -19 -13 0 -20 -5 -18 -12 3 -7 18 -14 34 -16 18 -2 43 6 64 20 19 13 45
43 58 68 12 24 22 61 22 81 0 20 -23 114 -50 208 -28 95 -58 207 -66 249 -10
47 -29 99 -49 132 -18 30 -49 88 -69 127 l-36 73 30 41 c16 23 38 66 50 95 11
30 20 59 20 64 0 6 -5 10 -11 10 -6 0 -25 -11 -42 -24 -18 -13 -45 -32 -61
-42 l-29 -18 7 38 c4 20 10 44 13 52 9 23 -28 17 -72 -12z M4910 3371 c0 -5
17 -23 37 -40 21 -17 49 -31 64 -31 15 0 32 -7 39 -15 7 -8 16 -15 21 -15 5 0
9 11 9 23 0 13 -8 31 -18 40 -10 10 -34 17 -53 17 -19 0 -47 7 -63 15 -15 8
-30 15 -32 15 -2 0 -4 -4 -4 -9z M3545 3162 c-28 -10 -66 -29 -85 -42 -19 -14
-59 -46 -87 -72 -29 -26 -69 -56 -90 -67 -36 -18 -84 -33 -148 -46 -27 -6 -28
-8 -11 -17 11 -6 41 -8 73 -4 29 3 74 16 99 27 25 12 84 57 131 100 47 43 105
88 129 100 24 11 44 25 44 30 0 5 -1 9 -2 9 -2 -1 -26 -8 -53 -18z M1444 1863
c-8 -21 -26 -86 -39 -144 -13 -59 -37 -142 -54 -185 -17 -44 -54 -115 -82
-158 -28 -43 -78 -107 -111 -142 -33 -35 -88 -85 -122 -110 -33 -26 -96 -64
-138 -84 -42 -21 -117 -48 -167 -60 -50 -12 -91 -27 -91 -32 0 -17 131 0 208
26 38 13 84 31 103 41 56 29 160 110 220 172 31 32 75 83 99 113 23 30 61 93
85 141 24 47 53 122 64 165 11 44 25 115 31 159 6 44 15 92 20 108 14 41 -7
33 -26 -10z"/>
</g>
</svg>
