<?xml version="1.0" standalone="no"?>
<!DOCTYPE svg PUBLIC "-//W3C//DTD SVG 20010904//EN"
 "http://www.w3.org/TR/2001/REC-SVG-20010904/DTD/svg10.dtd">
<svg version="1.0" xmlns="http://www.w3.org/2000/svg"
 width="600.000000pt" height="430.000000pt" viewBox="0 0 600.000000 430.000000"
 preserveAspectRatio="xMidYMid meet">
<metadata>
Created by potrace 1.16, written by Peter Selinger 2001-2019
</metadata>
<g transform="translate(0.000000,430.000000) scale(0.100000,-0.100000)"
fill="#f1ead8" stroke="none">
<path d="M4265 3844 c-156 -31 -185 -43 -301 -121 -71 -47 -93 -57 -139 -61
-34 -3 -71 1 -101 12 -26 9 -52 16 -57 16 -6 0 -2 -9 9 -21 34 -38 95 -61 174
-68 l75 -6 -45 -26 c-155 -91 -261 -124 -372 -116 -46 3 -86 14 -133 36 -37
17 -69 31 -71 31 -12 0 0 -22 29 -50 35 -36 152 -96 204 -106 36 -7 45 -24 13
-24 -41 0 -133 -44 -193 -92 -34 -27 -80 -60 -102 -71 -33 -18 -55 -22 -128
-21 -72 1 -85 -1 -76 -12 18 -21 89 -37 141 -31 58 7 109 33 173 87 28 23 68
51 90 62 22 12 97 36 167 54 118 30 168 48 168 59 0 3 -33 2 -73 -1 -55 -5
-95 -2 -153 12 l-79 18 85 6 c47 4 103 13 125 20 53 17 162 72 232 117 97 62
219 114 281 120 68 7 64 -2 -23 -48 -150 -80 -268 -181 -490 -420 -178 -192
-283 -292 -401 -380 -154 -115 -328 -197 -527 -249 -62 -16 -191 -41 -287 -55
-215 -32 -281 -47 -378 -86 -105 -42 -183 -91 -262 -166 l-67 -63 -97 0 c-53
0 -129 -7 -169 -16 -98 -21 -258 -101 -338 -167 -118 -98 -213 -238 -276 -407
-13 -36 -35 -83 -48 -106 -37 -63 -109 -123 -198 -164 -183 -84 -283 -197
-322 -362 -16 -67 -20 -158 -7 -158 4 0 20 20 35 44 36 57 93 109 156 140 27
14 98 39 157 55 155 43 245 90 325 170 80 80 127 167 168 313 38 136 62 195
111 272 47 75 124 149 210 205 61 40 147 77 203 88 l29 6 -26 -41 c-39 -62
-74 -178 -81 -268 -4 -51 -1 -117 9 -188 9 -60 16 -124 16 -141 0 -17 -7 -54
-15 -82 -20 -67 -86 -140 -164 -182 -33 -17 -69 -43 -81 -58 -11 -14 -27 -51
-35 -82 -9 -31 -23 -83 -32 -116 -8 -33 -35 -100 -58 -150 -34 -70 -57 -103
-104 -148 -35 -33 -62 -67 -63 -80 -1 -12 -2 -31 -2 -42 -1 -17 -10 -21 -57
-25 -30 -3 -67 -13 -83 -23 -15 -10 -39 -43 -53 -73 -28 -61 -50 -171 -40
-197 3 -9 16 -17 27 -17 12 0 55 16 97 35 55 25 95 54 151 108 43 41 96 86
119 100 23 15 53 42 67 60 15 19 43 72 63 118 19 46 54 115 77 153 48 81 173
217 258 281 33 25 129 88 212 140 83 52 177 115 208 140 69 54 138 139 175
217 20 40 41 65 74 88 64 44 157 79 264 101 49 10 194 29 320 43 127 15 275
35 330 47 125 25 282 77 372 122 37 19 93 52 123 72 50 34 62 38 125 40 56 1
84 8 135 33 36 17 148 81 250 142 191 116 258 150 291 150 12 0 19 -7 19 -18
0 -35 -59 -137 -105 -181 -25 -23 -46 -50 -47 -59 -1 -10 -2 -26 -2 -37 -1
-18 -7 -20 -53 -17 -35 3 -59 -1 -76 -13 -36 -23 -97 -144 -104 -206 l-6 -52
53 6 c69 8 187 64 242 115 24 22 61 49 83 60 22 11 48 29 58 40 10 11 34 68
53 128 19 60 55 145 78 189 24 44 46 94 50 112 10 46 -10 108 -44 137 -17 14
-45 28 -63 31 -22 4 -78 -5 -168 -28 -73 -19 -154 -38 -177 -42 l-44 -7 15 23
c29 47 38 98 41 245 3 167 16 222 69 300 36 54 96 99 145 109 32 7 32 6 32
-31 0 -21 9 -57 21 -80 24 -51 71 -95 137 -128 26 -13 80 -58 120 -99 70 -73
72 -76 72 -125 0 -44 4 -54 31 -76 17 -14 34 -26 39 -26 5 0 15 -3 24 -6 10
-4 16 -1 16 9 0 8 -16 24 -35 36 -33 19 -35 24 -35 71 0 48 -3 54 -73 133 -49
55 -92 92 -129 112 -32 17 -69 42 -84 55 -33 31 -64 95 -64 135 0 17 11 53 24
82 13 28 22 54 18 57 -8 9 -62 -45 -62 -61 0 -8 -12 -13 -33 -13 -18 0 -56
-12 -85 -26 -92 -46 -160 -149 -182 -276 -7 -37 -10 -96 -8 -132 3 -65 3 -65
-17 -46 -35 33 -97 53 -160 52 -63 0 -136 -20 -142 -37 -2 -7 28 -10 91 -7 55
3 108 0 128 -7 53 -17 80 -52 85 -108 4 -37 -1 -58 -19 -92 -15 -28 -33 -47
-48 -52 -107 -29 -140 -42 -169 -63 -41 -31 -81 -84 -81 -109 0 -16 10 -10 50
27 28 26 70 56 93 66 23 10 94 28 157 40 63 12 168 34 232 51 64 16 133 29
153 29 25 0 43 -8 60 -25 39 -38 34 -88 -20 -192 -24 -49 -58 -131 -75 -183
-17 -52 -38 -105 -46 -117 -8 -13 -33 -32 -57 -44 -23 -12 -63 -41 -88 -65
-47 -43 -87 -64 -166 -89 -41 -13 -43 -12 -43 8 0 28 52 138 72 155 10 8 36
12 67 10 45 -3 51 -5 51 -25 0 -13 4 -23 10 -23 5 0 16 12 23 28 9 16 11 37 6
52 -4 14 -7 31 -8 38 -1 7 21 35 48 62 52 52 111 157 111 197 0 13 -5 33 -10
44 -8 14 -21 19 -51 19 -22 0 -59 -9 -82 -21 -23 -12 -129 -73 -235 -136 -106
-64 -219 -126 -250 -139 -72 -30 -131 -31 -165 -3 -15 11 -44 58 -66 103 -29
64 -48 90 -77 110 -21 14 -46 26 -56 26 -30 0 -30 -19 0 -34 43 -22 77 -67
102 -132 11 -32 29 -69 40 -84 l18 -26 -71 -45 c-84 -54 -141 -80 -256 -120
-118 -40 -296 -73 -566 -104 -126 -14 -257 -32 -290 -40 -83 -19 -170 -50
-221 -79 -24 -14 -44 -23 -44 -21 0 2 22 54 49 116 27 62 47 117 44 122 -10
17 -45 -29 -88 -118 -24 -49 -66 -138 -93 -196 -39 -83 -63 -121 -115 -176
-40 -42 -107 -96 -164 -133 -296 -192 -360 -237 -433 -309 -91 -90 -175 -214
-226 -332 -19 -46 -45 -99 -56 -117 -12 -19 -44 -49 -72 -67 -28 -18 -64 -47
-81 -64 -26 -28 -30 -30 -37 -14 -3 10 -7 32 -7 48 -1 20 6 34 19 43 14 8 20
23 20 49 0 31 9 46 65 104 48 49 76 91 105 151 21 46 52 133 68 194 17 61 35
121 41 133 7 11 35 33 63 47 62 32 141 104 174 160 13 22 29 67 35 98 8 45 7
80 -7 168 -21 137 -15 256 17 353 34 101 125 233 213 306 82 69 218 139 326
168 41 11 154 32 250 46 96 14 222 38 280 52 247 59 454 165 656 334 44 37
161 152 260 256 240 252 323 332 424 404 76 55 215 131 281 154 18 7 8 10 -43
12 -38 2 -68 8 -68 12 0 12 161 31 260 31 65 0 81 3 72 12 -7 7 -56 13 -124
16 -134 5 -225 -11 -391 -68 -62 -21 -130 -41 -152 -45 l-40 -6 35 19 c19 10
64 37 99 60 34 23 88 51 118 62 30 11 88 25 129 31 132 18 323 -15 452 -78 48
-24 54 -25 69 -11 14 15 12 18 -28 39 -67 34 -176 68 -268 84 -78 14 -180 18
-226 9z m-2608 -1700 c-32 -8 -100 -35 -150 -61 -74 -38 -110 -65 -183 -138
-74 -73 -98 -106 -132 -175 -23 -47 -58 -141 -77 -210 -20 -69 -52 -153 -72
-188 -49 -88 -127 -163 -215 -206 -40 -20 -122 -50 -181 -66 -60 -17 -131 -42
-158 -55 -27 -14 -68 -42 -91 -63 -38 -34 -40 -35 -34 -12 4 14 23 57 42 96
47 99 123 167 257 233 57 28 125 69 150 92 34 29 58 65 88 127 134 282 150
311 222 388 38 41 99 96 134 121 114 81 265 131 398 131 l60 0 -58 -14z m-610
-1736 c11 -62 11 -63 -15 -86 -25 -21 -122 -72 -138 -72 -14 0 6 101 29 147
24 48 55 73 93 73 17 0 22 -10 31 -62z M4925 3814 c-58 -39 -92 -72 -126 -126
-17 -26 -47 -58 -67 -70 l-37 -23 28 -3 c16 -2 39 4 52 12 13 9 42 43 64 75
23 33 54 69 70 80 16 12 32 21 35 21 9 0 -21 -88 -43 -126 -12 -20 -20 -39
-17 -41 11 -11 49 21 62 52 7 19 24 37 36 41 13 3 35 15 51 26 15 11 27 17 27
13 0 -10 -32 -69 -51 -94 -11 -13 -19 -19 -19 -12 0 6 -7 11 -15 11 -8 0 -15
-4 -15 -8 0 -4 36 -75 79 -158 58 -109 85 -173 99 -235 12 -47 41 -155 66
-241 25 -86 46 -171 46 -190 0 -45 -44 -117 -72 -118 -11 0 -10 88 1 94 5 4
11 1 13 -6 2 -6 10 -8 16 -4 14 9 16 52 2 61 -15 10 -49 -13 -65 -45 -17 -34
-19 -73 -5 -101 9 -17 7 -19 -16 -19 -22 0 -25 -2 -14 -15 18 -22 62 -18 101
8 45 30 79 92 79 143 0 23 -24 127 -54 231 -30 104 -59 216 -65 247 -6 32 -26
83 -45 114 -18 32 -50 90 -70 129 l-36 73 35 45 c31 41 65 126 65 162 0 17
-15 17 -30 -2 -7 -8 -35 -28 -62 -45 l-50 -31 6 36 c4 20 10 43 13 51 9 23
-28 17 -72 -12z M4910 3371 c0 -16 73 -71 93 -71 11 0 32 -8 48 -17 15 -9 31
-14 34 -11 8 7 -14 61 -28 70 -7 4 -28 8 -47 8 -19 0 -46 7 -60 15 -30 17 -40
18 -40 6z M3545 3162 c-57 -20 -93 -43 -174 -115 -66 -58 -137 -94 -204 -103
-26 -4 -50 -10 -53 -15 -8 -13 44 -22 93 -15 24 3 64 14 88 25 23 10 80 53
126 96 46 42 105 88 131 101 43 22 70 44 51 44 -4 -1 -31 -8 -58 -18z M1455
1887 c-8 -13 -33 -96 -55 -183 -45 -179 -86 -270 -175 -389 -59 -78 -149 -165
-223 -217 -68 -47 -169 -90 -277 -119 -74 -20 -95 -29 -81 -35 29 -11 167 12
236 40 94 37 165 84 255 169 131 121 222 256 268 397 14 41 33 122 41 180 9
58 21 120 27 138 6 18 9 36 6 39 -3 2 -13 -6 -22 -20z"/>
</g>
</svg>
