<?xml version="1.0" standalone="no"?>
<!DOCTYPE svg PUBLIC "-//W3C//DTD SVG 20010904//EN"
 "http://www.w3.org/TR/2001/REC-SVG-20010904/DTD/svg10.dtd">
<svg version="1.0" xmlns="http://www.w3.org/2000/svg"
 width="600.000000pt" height="430.000000pt" viewBox="0 0 600.000000 430.000000"
 preserveAspectRatio="xMidYMid meet">
<metadata>
Created by potrace 1.16, written by Peter Selinger 2001-2019
</metadata>
<g transform="translate(0.000000,430.000000) scale(0.100000,-0.100000)"
fill="#f1ead8" stroke="none">
<path d="M4244 3840 c-95 -14 -188 -53 -278 -117 -27 -20 -64 -42 -82 -49 -44
-18 -126 -18 -171 1 -49 21 -60 19 -37 -6 39 -43 94 -62 181 -63 46 -1 83 -2
83 -2 0 -7 -189 -107 -235 -124 -119 -44 -266 -35 -364 21 -47 27 -51 16 -10
-27 36 -39 151 -100 206 -110 36 -7 45 -24 13 -24 -41 0 -128 -43 -203 -101
-101 -78 -141 -92 -236 -85 -61 5 -72 4 -62 -8 6 -7 32 -19 56 -26 81 -23 167
4 260 81 71 59 129 85 249 114 59 13 123 33 144 44 l37 19 -82 -5 c-61 -4
-101 -1 -160 13 l-78 19 90 7 c129 9 187 31 374 142 121 71 229 116 280 116
23 0 41 -3 41 -8 0 -4 -31 -22 -69 -41 -109 -53 -235 -154 -386 -311 -412
-426 -518 -519 -711 -617 -182 -93 -351 -142 -639 -183 -207 -30 -296 -54
-422 -116 -86 -42 -129 -71 -185 -123 l-73 -68 -125 -6 c-144 -6 -223 -27
-339 -88 -193 -104 -309 -239 -410 -482 -77 -184 -110 -219 -286 -304 -184
-88 -305 -269 -305 -455 0 -57 9 -60 35 -12 25 47 112 126 168 152 25 12 101
38 169 57 157 47 227 84 310 166 80 80 133 183 173 334 41 159 93 254 195 356
71 71 101 93 180 131 52 26 111 50 131 53 l36 7 -40 -81 c-62 -128 -75 -225
-54 -398 21 -171 21 -188 0 -248 -20 -60 -105 -148 -180 -187 -67 -36 -78 -53
-114 -190 -42 -160 -94 -264 -174 -347 -56 -58 -65 -73 -65 -104 0 -41 -24
-61 -63 -52 -40 11 -92 -19 -121 -67 -30 -52 -58 -156 -54 -201 3 -29 6 -32
36 -30 60 2 159 60 251 147 48 44 101 88 118 97 42 23 75 70 121 174 108 248
237 383 548 573 238 146 307 210 379 352 28 55 42 70 89 99 122 73 229 99 571
136 420 47 628 107 820 239 55 38 65 41 126 41 60 0 76 5 170 52 57 29 163 89
234 133 134 83 235 137 270 142 51 8 6 -111 -76 -197 -38 -41 -52 -63 -53 -87
l-2 -33 -55 3 c-49 3 -58 1 -83 -25 -38 -36 -87 -143 -94 -199 -4 -41 -3 -44
20 -44 70 0 199 56 268 118 25 21 64 49 87 60 55 29 75 60 108 167 15 49 47
130 72 180 58 114 65 140 53 186 -14 52 -45 87 -89 100 -32 10 -55 7 -177 -24
-76 -19 -158 -38 -181 -42 l-42 -7 21 44 c19 37 23 68 29 213 7 178 15 218 63
300 32 52 72 90 118 109 56 24 68 21 68 -16 0 -79 68 -170 155 -209 22 -10 75
-53 117 -96 77 -77 78 -79 78 -130 0 -45 4 -54 31 -77 29 -25 79 -36 79 -17 0
5 -16 18 -35 30 -32 19 -35 24 -35 69 0 41 -6 55 -37 93 -76 91 -120 132 -174
159 -130 67 -170 169 -109 282 11 21 16 39 11 42 -9 6 -42 -27 -58 -58 -7 -12
-24 -19 -53 -21 -92 -7 -190 -102 -232 -225 -17 -50 -22 -89 -23 -165 l0 -101
-43 30 c-38 27 -54 31 -120 34 -75 3 -152 -13 -159 -34 -2 -5 36 -7 89 -5 150
5 207 -25 215 -116 6 -59 -30 -134 -68 -145 -13 -4 -51 -15 -84 -25 -71 -21
-165 -102 -165 -143 0 -22 4 -21 48 22 58 58 111 82 227 103 50 9 155 32 233
51 208 49 235 46 263 -34 10 -30 6 -42 -45 -150 -30 -64 -67 -153 -81 -197
-32 -100 -45 -120 -95 -145 -22 -11 -65 -43 -94 -69 -49 -44 -113 -77 -188
-95 -26 -6 -26 -6 -16 32 13 47 52 125 71 140 8 7 38 11 70 9 53 -2 56 -3 50
-24 -7 -29 13 -30 28 -2 6 13 8 39 4 64 -6 42 -4 45 54 110 112 123 133 245
43 245 -50 -1 -85 -18 -305 -149 -237 -142 -299 -171 -358 -171 -64 0 -91 25
-139 125 -40 84 -71 117 -122 130 -37 9 -44 -11 -10 -29 42 -22 75 -65 102
-132 13 -33 32 -69 44 -82 12 -14 17 -26 10 -30 -228 -159 -405 -212 -884
-267 -254 -29 -389 -58 -490 -108 -81 -39 -81 -43 -19 92 22 46 39 93 39 104
0 20 0 20 -21 1 -20 -18 -51 -79 -150 -294 -70 -151 -141 -229 -303 -332 -430
-274 -507 -350 -641 -632 -58 -123 -69 -139 -112 -168 -26 -18 -66 -50 -89
-71 -34 -31 -43 -35 -48 -21 -12 32 -6 74 15 95 13 13 19 28 15 42 -7 27 2 41
72 113 73 75 118 164 166 332 45 155 46 157 108 188 66 33 152 115 178 168 35
73 41 136 25 247 -38 251 1 414 140 581 143 174 323 257 659 303 175 24 295
50 427 94 283 95 473 228 764 537 217 230 324 334 414 402 75 57 268 162 296
162 8 0 15 4 15 10 0 5 -25 9 -55 8 -50 -1 -75 5 -64 16 10 10 168 26 252 26
133 0 101 22 -41 28 -132 5 -219 -10 -407 -74 -159 -53 -206 -58 -126 -14 30
17 62 36 70 44 26 22 113 63 176 82 94 29 273 24 390 -11 50 -14 114 -38 144
-51 49 -23 55 -24 69 -10 14 14 10 18 -49 45 -165 75 -341 104 -495 81z
m-2561 -1690 c-124 -25 -252 -99 -363 -210 -104 -104 -144 -176 -195 -350 -87
-304 -193 -413 -475 -490 -124 -34 -187 -64 -251 -119 -39 -33 -41 -33 -35
-10 4 13 23 56 42 95 46 96 125 170 242 225 174 83 213 126 298 324 29 69 69
149 87 178 148 229 382 366 622 365 65 0 67 -1 28 -8z m-635 -1742 c8 -51 7
-66 -4 -79 -18 -21 -139 -82 -152 -78 -14 6 14 125 39 165 22 36 48 52 85 53
18 1 23 -7 32 -61z M4925 3814 c-58 -39 -92 -72 -126 -126 -17 -26 -47 -58
-67 -70 l-37 -23 27 -3 c38 -4 73 22 119 89 33 49 85 99 103 99 10 0 -26 -105
-46 -133 -11 -16 -18 -31 -14 -34 10 -11 56 27 62 52 4 17 24 34 60 54 30 16
54 26 54 23 0 -4 -14 -31 -31 -61 -23 -39 -34 -50 -42 -42 -13 13 -27 14 -27
3 0 -5 34 -71 76 -148 63 -117 81 -160 109 -269 19 -71 50 -184 69 -250 47
-157 46 -205 -4 -255 -30 -30 -40 -25 -40 24 0 43 14 70 22 44 7 -19 28 1 28
27 0 30 -14 39 -40 25 -41 -22 -63 -98 -40 -141 9 -16 7 -19 -10 -19 -33 0
-18 -25 16 -28 65 -6 144 87 144 169 0 20 -23 114 -50 208 -28 95 -58 207 -66
249 -10 47 -29 99 -49 132 -18 30 -49 88 -69 127 l-36 73 30 41 c27 37 70 136
70 159 0 16 -20 11 -53 -14 -18 -13 -45 -32 -61 -42 l-29 -18 7 38 c4 20 10
44 13 52 9 23 -28 17 -72 -12z M4910 3371 c0 -19 75 -71 101 -71 15 0 32 -7
39 -15 18 -22 30 -18 30 8 0 33 -30 57 -71 57 -19 0 -47 7 -63 15 -33 18 -36
18 -36 6z M3545 3162 c-57 -20 -97 -46 -172 -114 -72 -65 -123 -89 -238 -113
-52 -11 -1 -28 62 -21 79 9 134 39 230 127 47 43 105 88 129 100 24 11 44 25
44 30 0 11 5 12 -55 -9z M1444 1863 c-8 -21 -26 -86 -39 -144 -32 -142 -74
-248 -136 -343 -136 -207 -319 -342 -538 -396 -110 -27 -121 -46 -21 -36 166
17 322 99 461 243 166 172 244 334 279 578 6 44 15 92 20 108 14 41 -7 33 -26
-10z"/>
</g>
</svg>
