<?xml version="1.0" standalone="no"?>
<!DOCTYPE svg PUBLIC "-//W3C//DTD SVG 20010904//EN"
 "http://www.w3.org/TR/2001/REC-SVG-20010904/DTD/svg10.dtd">
<svg version="1.0" xmlns="http://www.w3.org/2000/svg"
 width="600.000000pt" height="430.000000pt" viewBox="0 0 600.000000 430.000000"
 preserveAspectRatio="xMidYMid meet">
<metadata>
Created by potrace 1.16, written by Peter Selinger 2001-2019
</metadata>
<g transform="translate(0.000000,430.000000) scale(0.100000,-0.100000)"
fill="#f1ead8" stroke="none">
<path d="M4265 3844 c-102 -20 -135 -29 -173 -45 -24 -11 -82 -45 -128 -76
-71 -47 -93 -57 -139 -61 -34 -3 -71 1 -101 12 -26 9 -52 16 -57 16 -6 0 -2
-9 9 -21 10 -12 37 -30 59 -41 24 -13 70 -23 115 -27 l75 -6 -45 -26 c-95 -56
-172 -90 -237 -105 -43 -10 -93 -14 -135 -11 -46 3 -86 14 -133 36 -37 17 -69
31 -71 31 -2 0 -4 -4 -4 -9 0 -5 15 -23 33 -41 17 -18 63 -48 102 -66 38 -19
84 -37 102 -40 18 -3 33 -10 33 -15 0 -5 -9 -9 -20 -9 -10 0 -44 -9 -75 -21
-31 -11 -84 -43 -118 -71 -34 -27 -80 -60 -102 -71 -33 -18 -55 -22 -128 -21
-72 1 -85 -1 -76 -12 6 -8 30 -19 53 -25 22 -6 62 -9 88 -6 26 3 64 15 85 26
21 10 61 38 88 61 28 23 68 51 90 62 22 12 97 36 167 54 118 30 168 48 168 59
0 3 -33 2 -73 -1 -55 -5 -95 -2 -153 12 l-79 18 85 6 c47 4 103 13 125 20 22
7 70 28 108 47 37 18 93 50 124 70 31 20 95 54 141 75 53 25 104 42 140 45 40
4 54 2 47 -5 -5 -6 -37 -25 -70 -43 -33 -17 -82 -47 -109 -65 -27 -18 -87 -66
-133 -106 -47 -40 -158 -152 -248 -249 -90 -97 -200 -210 -245 -250 -44 -40
-114 -98 -156 -130 -41 -31 -109 -76 -150 -99 -41 -24 -118 -60 -170 -82 -52
-21 -145 -52 -207 -68 -62 -16 -191 -41 -287 -55 -96 -14 -204 -32 -239 -41
-35 -8 -97 -28 -139 -45 -42 -16 -103 -46 -136 -66 -32 -20 -89 -65 -126 -100
l-67 -63 -97 0 c-53 0 -129 -7 -169 -16 -40 -8 -117 -37 -172 -64 -55 -27
-130 -73 -166 -103 -37 -31 -92 -88 -124 -129 -31 -40 -73 -104 -92 -143 -20
-38 -47 -99 -60 -135 -13 -36 -35 -83 -48 -106 -13 -22 -45 -60 -70 -83 -26
-24 -84 -60 -128 -81 -45 -21 -109 -58 -142 -83 -33 -25 -74 -65 -91 -89 -17
-23 -41 -62 -53 -85 -11 -23 -28 -71 -36 -105 -16 -67 -20 -158 -7 -158 4 0
20 20 35 44 15 25 45 60 67 80 22 19 61 47 89 60 27 14 98 39 157 55 60 17
143 47 184 67 51 26 96 58 141 103 44 44 79 91 103 138 20 40 49 118 65 175
16 57 38 127 50 156 11 28 39 81 61 116 22 34 64 86 94 114 29 28 82 69 116
91 61 40 147 77 203 88 l29 6 -26 -41 c-14 -23 -37 -75 -51 -115 -13 -40 -27
-109 -30 -153 -4 -51 -1 -117 9 -188 9 -60 16 -124 16 -141 0 -17 -7 -54 -15
-82 -10 -32 -32 -69 -59 -100 -25 -27 -72 -64 -105 -82 -33 -17 -69 -43 -81
-58 -11 -14 -27 -51 -35 -82 -9 -31 -23 -83 -32 -116 -8 -33 -35 -100 -58
-150 -34 -70 -57 -103 -104 -148 -35 -33 -62 -67 -63 -80 -1 -12 -2 -31 -2
-42 -1 -17 -10 -21 -57 -25 -30 -3 -67 -13 -83 -23 -15 -10 -39 -43 -53 -73
-14 -31 -30 -83 -36 -118 -6 -34 -8 -70 -4 -79 3 -9 16 -17 27 -17 12 0 55 16
97 35 55 25 95 54 151 108 43 41 96 86 119 100 23 15 53 42 67 60 15 19 43 72
63 118 19 46 54 115 77 153 22 38 76 107 119 152 44 46 106 104 139 129 33 25
129 88 212 140 83 52 177 115 208 140 32 25 78 71 103 103 25 31 57 82 72 114
20 40 41 65 74 88 25 17 75 43 110 57 34 14 104 34 154 44 49 10 194 29 320
43 127 15 275 35 330 47 55 11 146 35 202 54 55 19 132 49 170 68 37 19 93 52
123 72 50 34 62 38 125 40 56 1 84 8 135 33 36 17 148 81 250 142 102 62 204
121 228 131 24 10 52 19 63 19 12 0 19 -7 19 -18 0 -11 -13 -45 -30 -78 -16
-33 -50 -79 -75 -103 -25 -23 -46 -50 -47 -59 -1 -10 -2 -26 -2 -37 -1 -18 -7
-20 -53 -17 -35 3 -59 -1 -76 -13 -14 -9 -41 -47 -61 -85 -22 -41 -39 -91 -43
-121 l-6 -52 53 6 c30 4 86 22 126 41 40 19 92 52 116 74 24 22 61 49 83 60
22 11 48 29 58 40 10 11 34 68 53 128 19 60 55 145 78 189 24 44 46 94 50 112
4 17 2 49 -4 71 -6 23 -23 51 -40 66 -17 14 -45 28 -63 31 -22 4 -78 -5 -168
-28 -73 -19 -154 -38 -177 -42 l-44 -7 15 23 c8 13 20 40 26 60 6 20 13 103
15 185 2 104 8 165 20 201 9 28 31 73 49 99 17 27 50 61 72 75 22 15 55 30 73
34 32 7 32 6 32 -31 0 -21 9 -57 21 -80 11 -24 36 -57 55 -74 19 -16 56 -41
82 -54 26 -13 80 -58 120 -99 70 -73 72 -76 72 -125 0 -44 4 -54 31 -76 17
-14 34 -26 39 -26 5 0 15 -3 24 -6 10 -4 16 -1 16 9 0 8 -16 24 -35 36 -33 19
-35 24 -35 71 0 48 -3 54 -73 133 -49 55 -92 92 -129 112 -32 17 -69 42 -84
55 -15 14 -35 43 -45 65 -10 22 -19 54 -19 70 0 17 11 53 24 82 13 28 22 54
18 57 -8 9 -62 -45 -62 -61 0 -8 -12 -13 -33 -13 -18 0 -56 -12 -85 -26 -29
-14 -68 -44 -87 -67 -20 -23 -46 -64 -60 -92 -13 -28 -29 -81 -35 -117 -7 -37
-10 -96 -8 -132 3 -65 3 -65 -17 -46 -11 11 -38 27 -60 36 -24 10 -65 17 -100
16 -63 0 -136 -20 -142 -37 -2 -7 28 -10 91 -7 55 3 108 0 128 -7 19 -6 45
-23 58 -36 15 -16 24 -40 27 -72 4 -37 -1 -58 -19 -92 -15 -28 -33 -47 -48
-52 -107 -29 -140 -42 -169 -63 -18 -13 -44 -39 -57 -57 -13 -18 -24 -42 -24
-52 0 -16 10 -10 50 27 28 26 70 56 93 66 23 10 94 28 157 40 63 12 168 34
232 51 64 16 133 29 153 29 25 0 43 -8 60 -25 18 -18 25 -35 25 -65 0 -28 -14
-67 -45 -127 -24 -49 -58 -131 -75 -183 -17 -52 -38 -105 -46 -117 -8 -13 -33
-32 -57 -44 -23 -12 -63 -41 -88 -65 -26 -23 -64 -50 -85 -59 -22 -9 -58 -23
-81 -30 -41 -13 -43 -12 -43 8 0 12 13 49 28 82 16 33 36 66 44 73 10 8 36 12
67 10 45 -3 51 -5 51 -25 0 -13 4 -23 10 -23 5 0 16 12 23 28 9 16 11 37 6 52
-4 14 -7 31 -8 38 -1 7 21 35 48 62 27 27 63 77 80 111 17 34 31 73 31 86 0
13 -5 33 -10 44 -8 14 -21 19 -51 19 -22 0 -59 -9 -82 -21 -23 -12 -129 -73
-235 -136 -106 -64 -219 -126 -250 -139 -31 -13 -76 -24 -98 -24 -27 0 -51 7
-67 21 -15 11 -44 58 -66 103 -29 64 -48 90 -77 110 -21 14 -46 26 -56 26 -9
0 -19 -4 -23 -10 -3 -5 7 -16 23 -24 17 -9 41 -29 55 -45 14 -17 35 -56 47
-87 11 -32 29 -69 40 -84 l18 -26 -71 -45 c-40 -26 -94 -56 -122 -69 -95 -42
-219 -80 -344 -104 -69 -14 -229 -36 -356 -51 -126 -14 -257 -32 -290 -40 -33
-8 -87 -23 -119 -34 -32 -12 -79 -32 -102 -45 -24 -14 -44 -23 -44 -21 0 2 22
54 49 116 27 62 47 117 44 122 -10 17 -45 -29 -88 -118 -24 -49 -66 -138 -93
-196 -39 -83 -63 -121 -115 -176 -40 -42 -107 -96 -164 -133 -296 -192 -360
-237 -433 -309 -43 -43 -103 -116 -134 -163 -31 -47 -72 -123 -92 -169 -19
-46 -45 -99 -56 -117 -12 -19 -44 -49 -72 -67 -28 -18 -64 -47 -81 -64 -26
-28 -30 -30 -37 -14 -3 10 -7 32 -7 48 -1 20 6 34 19 43 14 8 20 23 20 49 0
31 9 46 65 104 48 49 76 91 105 151 21 46 52 133 68 194 17 61 35 121 41 133
7 11 35 33 63 47 28 14 73 47 100 72 27 25 61 65 74 88 13 22 29 67 35 98 8
45 7 80 -7 168 -11 72 -15 140 -11 196 3 51 14 116 28 157 13 39 49 109 82
158 39 59 83 108 131 148 39 33 112 80 161 104 50 24 124 53 165 64 41 11 154
32 250 46 96 14 222 38 280 52 58 14 143 40 190 58 47 18 119 49 160 70 41 21
109 60 150 88 41 28 111 81 156 118 44 37 161 152 260 256 98 103 215 223 259
266 44 42 118 105 165 138 47 34 124 80 171 104 48 23 97 46 110 50 18 7 8 10
-43 12 -38 2 -68 8 -68 12 0 5 40 13 88 20 49 6 126 11 172 11 65 0 81 3 72
12 -7 7 -56 13 -124 16 -82 3 -136 0 -196 -13 -46 -9 -134 -34 -195 -55 -62
-21 -130 -41 -152 -45 l-40 -6 35 19 c19 10 64 37 99 60 34 23 88 51 118 62
30 11 88 25 129 31 51 7 103 7 168 0 51 -6 124 -20 162 -32 38 -11 93 -32 122
-46 48 -24 54 -25 69 -11 14 15 12 18 -28 39 -24 12 -75 33 -114 46 -38 13
-108 30 -154 38 -78 14 -180 18 -226 9z m-2608 -1700 c-32 -8 -100 -35 -150
-61 -74 -38 -110 -65 -183 -138 -74 -73 -98 -106 -132 -175 -23 -47 -58 -141
-77 -210 -20 -69 -52 -153 -72 -188 -19 -35 -59 -87 -88 -117 -33 -32 -82 -67
-127 -89 -40 -20 -122 -50 -181 -66 -60 -17 -131 -42 -158 -55 -27 -14 -68
-42 -91 -63 -38 -34 -40 -35 -34 -12 4 14 23 57 42 96 47 99 123 167 257 233
57 28 125 69 150 92 34 29 58 65 88 127 134 282 150 311 222 388 38 41 99 96
134 121 35 25 95 59 134 75 39 16 101 36 138 43 36 7 93 13 126 13 l60 0 -58
-14z m-610 -1736 c11 -62 11 -63 -15 -86 -15 -12 -50 -34 -79 -47 -28 -14 -55
-25 -59 -25 -4 0 -4 22 -1 50 3 27 17 71 30 97 13 27 34 54 48 60 13 7 33 13
45 13 17 0 22 -10 31 -62z M4925 3814 c-22 -15 -53 -38 -68 -53 -15 -14 -42
-47 -58 -73 -17 -26 -47 -58 -67 -70 l-37 -23 28 -3 c16 -2 39 4 52 12 13 9
42 43 64 75 23 33 54 69 70 80 16 12 32 21 35 21 3 0 -1 -20 -9 -45 -7 -25
-23 -61 -34 -81 -12 -20 -20 -39 -17 -41 2 -3 14 1 26 7 12 6 28 27 36 45 7
19 24 37 36 41 13 3 35 15 51 26 15 11 27 17 27 13 0 -10 -32 -69 -51 -94 -11
-13 -19 -19 -19 -12 0 6 -7 11 -15 11 -8 0 -15 -4 -15 -8 0 -4 36 -75 79 -158
58 -109 85 -173 99 -235 12 -47 41 -155 66 -241 25 -86 46 -171 46 -190 0 -18
-10 -49 -21 -68 -21 -34 -37 -50 -51 -50 -11 0 -10 88 1 94 5 4 11 1 13 -6 2
-6 10 -8 16 -4 7 4 12 18 12 31 0 13 -4 27 -10 30 -5 3 -19 1 -30 -5 -11 -6
-27 -24 -35 -40 -8 -16 -15 -41 -15 -55 0 -15 5 -35 10 -46 9 -17 7 -19 -16
-19 -22 0 -25 -2 -14 -15 7 -8 25 -15 40 -15 15 0 42 10 61 23 18 12 44 40 56
62 13 23 23 57 23 81 0 23 -24 127 -54 231 -30 104 -59 216 -65 247 -6 32 -26
83 -45 114 -18 32 -50 90 -70 129 l-36 73 35 45 c19 25 41 69 50 97 8 29 15
58 15 65 0 7 -4 13 -9 13 -5 0 -14 -7 -21 -15 -7 -8 -35 -28 -62 -45 l-50 -31
6 36 c4 20 10 43 13 51 9 23 -28 17 -72 -12z M4910 3371 c0 -5 17 -23 37 -40
21 -17 46 -31 56 -31 11 0 32 -8 48 -17 15 -9 31 -14 34 -11 8 7 -14 61 -28
70 -7 4 -28 8 -47 8 -19 0 -46 7 -60 15 -14 8 -28 14 -32 15 -5 0 -8 -4 -8 -9z
M3545 3162 c-28 -10 -65 -28 -84 -41 -18 -13 -59 -46 -90 -74 -31 -27 -78 -60
-106 -73 -27 -13 -71 -27 -98 -30 -26 -4 -50 -10 -53 -15 -2 -5 7 -11 21 -15
15 -4 47 -4 72 0 24 3 64 14 88 25 23 10 80 53 126 96 46 42 105 88 131 101
26 13 49 28 53 34 3 5 3 10 -2 10 -4 -1 -31 -8 -58 -18z M1455 1887 c-8 -13
-33 -96 -55 -183 -27 -106 -53 -184 -79 -236 -22 -43 -65 -111 -96 -153 -31
-41 -84 -100 -118 -131 -34 -31 -81 -69 -105 -86 -23 -16 -73 -43 -110 -61
-37 -17 -112 -44 -167 -58 -74 -20 -95 -29 -81 -35 11 -4 55 -2 98 4 43 6 105
22 138 36 33 13 86 39 116 57 31 19 93 69 139 112 46 42 105 107 133 145 27
37 63 92 80 122 17 30 42 89 55 130 14 41 33 122 41 180 9 58 21 120 27 138 6
18 9 36 6 39 -3 2 -13 -6 -22 -20z"/>
</g>
</svg>
