<?xml version="1.0" standalone="no"?>
<!DOCTYPE svg PUBLIC "-//W3C//DTD SVG 20010904//EN"
 "http://www.w3.org/TR/2001/REC-SVG-20010904/DTD/svg10.dtd">
<svg version="1.0" xmlns="http://www.w3.org/2000/svg"
 width="600.000000pt" height="430.000000pt" viewBox="0 0 600.000000 430.000000"
 preserveAspectRatio="xMidYMid meet">
<metadata>
Created by potrace 1.16, written by Peter Selinger 2001-2019
</metadata>
<g transform="translate(0.000000,430.000000) scale(0.100000,-0.100000)"
fill="#f1ead8" stroke="none">
<path d="M4244 3840 c-28 -4 -69 -13 -90 -20 -57 -18 -127 -55 -206 -108 -61
-40 -78 -47 -132 -50 -42 -3 -74 1 -100 12 -21 9 -43 16 -49 16 -18 0 27 -41
68 -63 30 -16 60 -21 122 -21 46 -1 83 -2 83 -2 0 -1 -39 -24 -87 -52 -49 -27
-115 -59 -147 -71 -32 -12 -93 -25 -135 -28 -57 -4 -92 -1 -136 11 -33 10 -75
26 -94 37 -18 11 -36 17 -39 14 -3 -3 10 -22 29 -41 36 -39 151 -100 206 -110
18 -3 33 -10 33 -14 0 -4 -17 -10 -37 -13 -21 -4 -60 -18 -88 -31 -27 -14 -77
-48 -110 -75 -33 -28 -82 -58 -109 -67 -37 -12 -66 -15 -119 -10 -59 5 -68 4
-58 -8 18 -22 96 -39 143 -32 24 4 61 16 83 26 22 11 62 38 90 61 27 22 71 52
97 65 25 13 94 35 152 49 59 13 123 33 144 44 l37 19 -82 -5 c-61 -4 -101 -1
-160 13 l-78 19 90 7 c50 3 113 14 140 23 63 22 115 48 234 119 52 30 127 69
167 86 40 17 91 30 113 30 23 0 41 -3 41 -8 0 -4 -31 -22 -69 -41 -38 -18
-109 -63 -158 -100 -48 -36 -151 -131 -228 -211 -290 -300 -413 -418 -505
-487 -52 -39 -142 -96 -200 -126 -115 -61 -241 -108 -367 -138 -45 -11 -171
-33 -280 -49 -109 -17 -234 -42 -278 -56 -124 -40 -248 -110 -329 -185 l-71
-66 -125 -6 c-88 -3 -146 -11 -195 -27 -38 -12 -103 -40 -144 -61 -41 -22
-102 -62 -137 -89 -71 -57 -157 -159 -203 -241 -17 -30 -49 -100 -71 -155 -22
-54 -56 -122 -76 -151 -20 -29 -57 -65 -82 -82 -26 -16 -80 -45 -120 -65 -40
-19 -82 -42 -95 -51 -54 -37 -130 -124 -157 -180 -16 -33 -36 -87 -45 -120
-16 -63 -20 -155 -7 -155 5 0 18 18 30 39 13 22 45 60 72 84 27 25 69 54 94
65 24 12 100 38 168 57 67 20 150 51 183 68 33 18 89 61 125 97 40 40 80 92
102 136 20 38 51 122 68 185 17 62 50 152 72 199 34 68 59 102 128 171 71 71
101 93 180 131 52 26 112 50 132 54 l37 6 -29 -53 c-17 -30 -39 -82 -49 -115
-30 -96 -35 -184 -17 -321 9 -67 16 -137 16 -155 0 -19 -7 -56 -17 -83 -11
-34 -34 -67 -72 -105 -31 -30 -79 -67 -108 -82 -29 -15 -59 -39 -68 -52 -9
-13 -29 -75 -46 -138 -16 -62 -47 -151 -69 -196 -29 -60 -59 -103 -105 -151
-56 -58 -65 -73 -65 -104 0 -26 -6 -39 -20 -47 -11 -6 -30 -8 -43 -5 -13 4
-40 0 -60 -8 -23 -10 -44 -30 -61 -59 -30 -52 -58 -156 -54 -201 3 -29 6 -32
36 -30 19 0 63 16 99 33 41 20 98 63 152 114 48 44 101 88 118 97 16 9 42 32
56 50 14 19 43 75 65 124 21 50 55 116 75 149 19 32 57 85 84 118 26 33 91 94
144 137 52 43 163 119 245 169 82 50 175 112 206 137 32 24 76 68 99 97 22 29
56 82 74 118 28 55 42 70 89 99 31 18 85 44 120 57 35 13 100 30 143 39 43 8
182 26 308 40 127 14 275 35 330 46 121 24 281 77 367 120 35 17 90 50 123 73
55 38 65 41 126 41 60 0 77 5 170 52 57 28 163 88 234 133 134 83 235 137 270
142 12 2 21 -4 23 -14 6 -31 -45 -126 -99 -183 -37 -39 -52 -63 -54 -87 l-3
-33 -54 3 c-48 3 -57 1 -82 -25 -16 -15 -42 -56 -59 -91 -16 -35 -32 -83 -35
-108 -5 -43 -4 -44 25 -44 34 0 120 28 178 58 22 11 60 38 85 60 25 21 64 49
87 60 23 12 50 34 61 49 11 16 32 69 47 118 15 50 49 133 75 185 26 52 51 109
55 126 8 40 -19 107 -52 134 -14 11 -39 22 -57 25 -20 4 -80 -7 -166 -29 -74
-19 -154 -37 -177 -41 l-42 -7 21 44 c19 37 23 68 29 213 7 178 15 218 63 300
14 22 37 52 53 67 29 28 90 58 118 58 10 0 15 -9 15 -26 0 -47 22 -103 57
-143 18 -22 57 -51 86 -65 30 -15 84 -58 129 -103 77 -77 78 -79 78 -130 0
-45 4 -54 31 -77 17 -14 41 -26 55 -26 13 0 24 4 24 9 0 5 -16 18 -35 30 -32
19 -35 24 -35 69 0 41 -6 55 -37 93 -76 91 -120 132 -174 159 -30 16 -72 46
-92 69 -20 22 -39 55 -43 75 -3 20 -3 51 0 69 3 18 15 49 26 69 11 21 16 39
11 42 -9 6 -42 -27 -58 -58 -7 -12 -24 -19 -53 -21 -24 -2 -62 -15 -88 -32
-26 -16 -64 -51 -84 -78 -21 -28 -48 -79 -60 -115 -17 -50 -22 -89 -23 -165
l0 -101 -43 30 c-38 27 -54 31 -120 34 -48 2 -92 -2 -116 -11 -22 -7 -41 -18
-43 -23 -2 -5 36 -7 89 -5 50 2 108 -2 128 -8 20 -6 47 -22 60 -36 15 -16 24
-40 27 -72 4 -37 -1 -58 -19 -93 -15 -27 -34 -48 -49 -52 -13 -4 -50 -15 -82
-23 -46 -13 -70 -27 -113 -69 -36 -35 -54 -60 -54 -76 0 -22 4 -21 48 22 26
26 67 56 92 67 25 11 86 27 135 36 50 9 155 32 235 51 80 19 163 34 184 32 29
-2 44 -10 59 -31 12 -15 21 -41 20 -60 0 -18 -21 -73 -46 -123 -24 -49 -59
-132 -76 -184 -18 -52 -39 -105 -47 -117 -8 -13 -33 -32 -56 -44 -22 -11 -62
-41 -88 -65 -43 -41 -124 -82 -192 -98 -26 -6 -26 -6 -16 32 13 47 52 125 71
140 8 7 38 11 69 9 50 -2 54 -4 50 -24 -2 -13 1 -23 6 -23 21 0 34 41 27 85
-6 42 -4 45 54 110 38 42 67 86 80 121 12 30 21 62 21 70 0 8 -5 24 -10 35 -8
13 -21 19 -48 19 -20 0 -59 -11 -87 -24 -27 -12 -126 -69 -220 -126 -93 -57
-202 -118 -242 -137 -85 -39 -147 -44 -186 -13 -14 11 -44 58 -66 104 -41 85
-73 118 -123 131 -14 4 -29 2 -32 -4 -4 -5 6 -17 22 -25 17 -9 41 -28 54 -44
14 -17 35 -56 48 -88 13 -33 32 -70 42 -83 17 -23 17 -24 -5 -40 -130 -98
-326 -174 -557 -215 -47 -9 -186 -27 -310 -41 -124 -14 -270 -37 -325 -50 -55
-14 -130 -40 -168 -58 -62 -31 -67 -32 -61 -13 4 12 24 59 45 105 22 46 39 93
39 104 0 20 0 20 -21 2 -20 -19 -41 -59 -152 -296 -45 -96 -67 -129 -125 -190
-45 -48 -107 -98 -172 -139 -247 -157 -340 -223 -410 -291 -42 -41 -97 -104
-123 -140 -26 -37 -76 -128 -112 -203 -58 -123 -69 -139 -112 -168 -26 -18
-66 -50 -89 -71 -34 -31 -43 -35 -48 -21 -12 32 -6 74 15 95 14 14 19 28 15
45 -5 20 6 37 63 99 44 47 83 102 105 148 20 39 52 127 71 195 19 68 40 132
45 143 6 10 34 31 62 45 28 14 75 49 104 76 29 28 62 69 74 92 11 23 24 66 30
95 7 39 6 78 -5 152 -8 54 -15 134 -15 177 0 43 7 105 15 137 8 33 31 92 51
132 20 39 60 100 89 135 29 36 81 86 116 112 105 79 223 132 359 161 36 7 119
21 184 30 66 9 162 25 215 36 122 25 308 87 402 134 105 53 220 129 324 216
50 42 162 152 250 245 88 93 200 209 249 257 49 48 123 113 165 145 42 31 122
81 179 110 56 28 109 52 117 52 7 0 17 5 20 10 4 6 -16 10 -55 9 -55 -2 -80 4
-69 15 10 10 168 26 252 26 70 0 88 3 79 12 -7 7 -56 13 -120 16 -132 5 -219
-10 -407 -74 -73 -24 -143 -44 -156 -44 -19 0 -12 7 30 30 30 17 62 36 70 44
26 22 113 63 176 82 45 14 90 18 180 17 98 -1 136 -6 210 -28 50 -14 114 -38
144 -51 49 -23 55 -24 69 -10 14 14 10 18 -49 45 -89 40 -183 68 -274 80 -84
12 -144 12 -221 1z m-2561 -1690 c-57 -12 -151 -51 -221 -91 -31 -19 -95 -72
-142 -119 -59 -59 -97 -107 -122 -155 -20 -38 -53 -126 -73 -195 -19 -69 -52
-158 -71 -198 -23 -46 -57 -94 -92 -130 -33 -34 -87 -73 -128 -94 -38 -21
-121 -51 -184 -68 -63 -17 -136 -43 -162 -57 -27 -15 -67 -42 -89 -62 -39 -33
-41 -33 -35 -10 4 13 23 56 42 95 46 96 125 170 242 225 48 23 110 59 137 79
28 20 63 56 79 78 15 23 52 98 82 167 29 69 69 149 87 178 19 28 51 72 72 97
79 95 208 187 315 226 76 27 162 42 235 42 65 0 67 -1 28 -8z m-636 -1742 c8
-51 8 -66 -4 -79 -17 -21 -138 -82 -151 -78 -14 6 14 125 39 165 22 36 48 52
85 53 17 1 22 -8 31 -61z M4925 3814 c-58 -39 -92 -72 -126 -126 -17 -26 -47
-58 -67 -70 l-37 -23 27 -3 c15 -2 39 5 53 14 15 10 44 43 66 75 21 31 52 67
68 78 16 12 32 21 35 21 10 0 -26 -105 -46 -133 -11 -16 -18 -31 -14 -34 3 -3
17 2 31 11 13 9 27 27 31 41 4 17 24 34 60 54 30 16 54 26 54 23 0 -4 -14 -31
-31 -61 -23 -39 -34 -50 -42 -42 -15 15 -29 14 -25 -1 2 -7 38 -78 80 -158 57
-107 82 -168 97 -230 11 -47 41 -155 66 -240 24 -85 45 -169 45 -187 0 -17 -4
-43 -10 -57 -10 -28 -45 -66 -60 -66 -13 0 -13 87 -1 94 5 4 11 1 13 -6 2 -6
10 -8 16 -4 14 9 16 52 2 61 -15 10 -49 -13 -65 -45 -8 -16 -15 -41 -15 -55 0
-15 5 -35 10 -46 9 -16 7 -19 -10 -19 -33 0 -18 -25 16 -28 18 -2 43 6 64 20
19 13 45 41 57 63 13 23 23 57 23 81 0 23 -23 119 -50 213 -28 95 -58 207 -66
249 -10 47 -29 99 -49 132 -18 30 -49 88 -69 127 l-36 73 34 47 c18 27 41 70
50 97 9 27 16 53 16 58 0 14 -21 8 -53 -16 -18 -13 -45 -32 -61 -42 l-29 -18
7 38 c4 20 10 44 13 52 9 23 -28 17 -72 -12z M4910 3371 c0 -5 17 -23 37 -40
21 -17 49 -31 64 -31 15 0 32 -7 39 -15 7 -8 16 -15 21 -15 15 0 10 48 -7 64
-8 9 -32 16 -52 16 -20 0 -50 7 -66 15 -15 8 -30 15 -32 15 -2 0 -4 -4 -4 -9z
M3545 3162 c-28 -10 -66 -29 -85 -42 -19 -14 -59 -47 -89 -74 -30 -26 -79 -60
-109 -74 -30 -13 -75 -27 -99 -30 -24 -2 -46 -8 -49 -13 -8 -14 43 -22 93 -14
26 4 67 16 91 27 23 11 82 56 129 99 47 43 105 88 129 100 41 19 65 39 47 39
-4 -1 -31 -8 -58 -18z M1444 1863 c-8 -21 -26 -86 -39 -144 -13 -59 -37 -142
-54 -185 -17 -44 -54 -115 -82 -158 -28 -43 -78 -107 -111 -142 -33 -35 -88
-85 -122 -110 -33 -26 -96 -64 -138 -84 -42 -21 -117 -48 -167 -60 -50 -12
-91 -27 -91 -32 0 -17 131 0 208 26 38 13 84 31 103 41 56 29 160 110 220 172
31 32 75 83 99 113 50 65 121 204 143 280 9 30 25 111 36 179 12 67 24 127 27
132 3 5 0 9 -5 9 -6 0 -18 -17 -27 -37z"/>
</g>
</svg>
