<?xml version="1.0" standalone="no"?>
<!DOCTYPE svg PUBLIC "-//W3C//DTD SVG 20010904//EN"
 "http://www.w3.org/TR/2001/REC-SVG-20010904/DTD/svg10.dtd">
<svg version="1.0" xmlns="http://www.w3.org/2000/svg"
 width="600.000000pt" height="430.000000pt" viewBox="0 0 600.000000 430.000000"
 preserveAspectRatio="xMidYMid meet">
<metadata>
Created by potrace 1.16, written by Peter Selinger 2001-2019
</metadata>
<g transform="translate(0.000000,430.000000) scale(0.100000,-0.100000)"
fill="#f1ead8" stroke="none">
<path d="M4223 3836 c-83 -16 -183 -60 -256 -112 -28 -20 -66 -43 -86 -51 -45
-19 -119 -18 -166 1 -51 22 -62 20 -39 -5 39 -44 94 -63 181 -63 46 -1 83 -2
83 -2 0 -7 -189 -107 -235 -124 -119 -44 -266 -35 -364 21 -47 27 -51 16 -10
-27 36 -39 151 -100 206 -110 43 -8 42 -20 -2 -28 -61 -12 -118 -41 -190 -100
-90 -72 -145 -91 -239 -82 -65 5 -69 4 -51 -9 30 -24 95 -38 140 -31 54 9 110
37 170 87 71 58 126 84 251 114 60 15 125 35 144 45 l35 18 -81 -5 c-78 -5
-227 17 -238 35 -2 4 35 7 83 7 108 1 182 25 312 101 167 98 276 147 335 152
30 2 54 0 54 -5 0 -5 -33 -25 -73 -45 -113 -55 -229 -149 -382 -308 -410 -425
-512 -514 -705 -614 -189 -98 -323 -136 -644 -186 -328 -51 -471 -110 -626
-256 l-55 -52 -125 -5 c-144 -6 -223 -26 -340 -89 -183 -98 -312 -246 -400
-462 -81 -198 -106 -227 -271 -311 -170 -87 -252 -172 -300 -313 -23 -68 -37
-202 -21 -202 6 0 14 9 17 20 12 39 115 139 169 164 28 13 108 41 176 61 159
47 229 84 311 166 80 80 127 168 170 324 48 176 96 264 198 366 73 73 102 94
183 133 53 26 112 50 132 53 l36 6 -25 -44 c-34 -60 -72 -180 -80 -259 -4 -43
-1 -108 10 -190 19 -135 16 -209 -10 -261 -27 -53 -94 -117 -163 -156 -35 -19
-69 -45 -77 -57 -8 -11 -28 -73 -45 -136 -44 -164 -95 -267 -175 -349 -56 -58
-65 -73 -65 -104 0 -43 -10 -51 -70 -52 -60 -1 -94 -26 -125 -90 -28 -56 -52
-173 -41 -200 17 -44 167 29 286 138 49 45 108 96 131 112 44 31 54 49 138
225 94 198 225 329 488 489 252 153 338 232 408 370 27 55 42 71 86 98 74 44
131 67 214 86 104 24 111 25 360 52 265 30 384 52 528 99 119 39 206 81 292
140 55 38 65 41 125 41 82 0 151 32 399 182 171 104 277 157 293 147 27 -17
-24 -126 -93 -199 -42 -44 -51 -61 -51 -89 l0 -36 -55 6 c-51 7 -56 5 -88 -26
-40 -38 -83 -129 -91 -194 -6 -44 -6 -46 18 -46 33 0 124 28 173 52 22 12 59
38 82 59 22 21 64 49 92 64 63 31 82 61 121 187 16 53 51 135 76 183 52 99 59
152 28 206 -11 19 -37 43 -58 53 l-39 19 -171 -41 c-94 -23 -179 -42 -189 -42
-16 0 -15 4 5 43 19 37 23 64 29 212 4 113 12 184 22 211 40 107 90 170 159
198 56 24 68 21 68 -16 0 -80 72 -172 166 -215 22 -10 72 -53 113 -96 73 -76
75 -78 72 -126 -2 -43 1 -51 29 -75 31 -25 80 -36 80 -16 0 5 -13 16 -30 25
-38 20 -49 40 -43 84 5 34 -1 43 -71 124 -57 64 -92 95 -135 116 -130 66 -172
172 -114 284 27 52 -5 48 -37 -5 -15 -25 -26 -31 -59 -33 -50 -4 -119 -42
-157 -87 -68 -81 -112 -232 -101 -350 l5 -56 -45 31 c-39 28 -54 32 -121 35
-48 2 -92 -2 -116 -11 -65 -23 -54 -34 26 -26 140 13 224 -25 235 -107 10 -73
-36 -164 -82 -164 -74 0 -188 -67 -220 -131 -27 -51 -16 -54 33 -7 63 61 109
83 222 103 52 9 158 32 235 51 207 50 238 46 266 -34 10 -30 6 -42 -44 -150
-31 -64 -67 -152 -81 -196 -32 -99 -46 -121 -96 -146 -22 -11 -65 -43 -94 -69
-49 -44 -113 -77 -188 -95 -26 -6 -26 -6 -16 32 13 47 52 125 71 140 8 7 38
11 70 9 53 -2 56 -3 50 -24 -7 -29 13 -30 28 -2 6 13 8 39 4 64 -6 42 -4 45
54 110 57 63 101 147 101 195 0 49 -63 64 -136 31 -22 -10 -121 -67 -220 -126
-232 -140 -305 -175 -365 -175 -64 0 -91 24 -138 123 -40 83 -74 120 -124 132
-36 9 -43 -11 -10 -29 43 -22 69 -55 103 -131 17 -38 39 -78 47 -88 19 -21 16
-24 -88 -87 -178 -108 -367 -158 -790 -205 -259 -30 -386 -58 -490 -108 -80
-39 -80 -43 -18 92 40 86 46 111 29 111 -16 0 -60 -77 -112 -195 -114 -261
-167 -325 -369 -449 -251 -155 -368 -245 -456 -347 -71 -83 -101 -132 -168
-272 -63 -132 -80 -156 -145 -195 -19 -11 -48 -34 -64 -51 -22 -23 -32 -28
-38 -19 -15 25 -8 78 13 99 13 13 18 27 14 39 -8 27 6 49 73 117 73 72 118
163 166 330 19 66 39 130 45 141 6 11 39 36 74 55 72 41 151 120 173 174 28
65 33 132 18 228 -18 120 -17 247 1 320 63 242 258 433 530 518 44 14 163 37
265 52 396 58 626 144 866 323 88 65 230 203 514 498 189 195 341 308 488 360
58 21 70 40 19 31 -37 -6 -87 2 -87 13 0 12 143 30 242 30 72 0 89 3 80 12
-17 17 -196 23 -278 8 -38 -6 -137 -33 -221 -61 -176 -57 -223 -63 -151 -21
25 15 70 42 100 60 113 68 239 98 373 87 115 -9 245 -44 329 -89 21 -10 35
-12 48 -5 10 5 18 12 18 15 0 12 -142 68 -230 91 -119 30 -251 37 -347 19z
m-2540 -1686 c-125 -25 -252 -99 -365 -212 -103 -103 -149 -188 -197 -363 -78
-283 -194 -400 -471 -475 -123 -34 -187 -64 -251 -118 l-40 -34 7 28 c15 62
61 140 117 200 46 50 78 72 155 110 183 90 234 144 307 326 20 51 48 113 62
138 144 253 390 408 648 408 64 0 66 -1 28 -8z m-635 -1742 c12 -76 7 -84 -81
-128 -82 -41 -86 -40 -76 18 21 111 62 172 117 172 28 0 30 -2 40 -62z M4925
3814 c-61 -41 -85 -64 -121 -120 -18 -29 -50 -63 -71 -75 -34 -21 -35 -24 -16
-27 37 -5 80 25 119 83 32 49 89 105 107 105 11 0 -25 -104 -45 -133 -11 -16
-18 -31 -14 -34 10 -11 56 27 62 52 4 17 24 34 60 54 30 16 54 26 54 23 0 -4
-14 -31 -31 -61 -23 -39 -34 -50 -42 -42 -13 13 -27 14 -27 3 0 -5 35 -74 79
-154 56 -104 83 -166 95 -219 10 -41 39 -150 67 -244 52 -181 59 -236 33 -275
-19 -28 -44 -50 -56 -50 -11 0 -10 87 1 94 5 4 11 1 13 -6 7 -19 28 1 28 27 0
33 -27 39 -55 11 -31 -31 -40 -69 -27 -112 9 -31 8 -34 -10 -34 -30 0 -16 -24
16 -28 41 -5 99 38 126 93 30 61 26 91 -44 333 -31 106 -56 203 -56 216 0 13
-34 89 -75 169 l-76 146 30 42 c28 37 71 135 71 159 0 18 -18 10 -76 -30 -32
-22 -61 -40 -65 -40 -4 0 -1 20 6 44 20 65 4 72 -60 30z M4910 3371 c0 -19 75
-71 101 -71 15 0 32 -7 39 -15 18 -22 30 -18 30 8 0 33 -30 57 -71 57 -19 0
-47 7 -63 15 -33 18 -36 18 -36 6z M3543 3161 c-54 -18 -87 -41 -179 -121 -63
-55 -124 -87 -186 -96 -63 -10 -78 -20 -39 -29 83 -18 177 24 292 130 44 41
101 84 125 95 24 12 44 26 44 31 0 11 5 12 -57 -10z M1444 1863 c-8 -21 -26
-86 -39 -144 -45 -203 -118 -347 -244 -482 -124 -132 -264 -216 -430 -257
-103 -25 -113 -46 -17 -35 70 8 173 38 231 67 110 56 262 195 345 319 88 128
134 257 161 443 6 44 15 90 20 103 15 39 -9 26 -27 -14z"/>
</g>
</svg>
