<?xml version="1.0" standalone="no"?>
<!DOCTYPE svg PUBLIC "-//W3C//DTD SVG 20010904//EN"
 "http://www.w3.org/TR/2001/REC-SVG-20010904/DTD/svg10.dtd">
<svg version="1.0" xmlns="http://www.w3.org/2000/svg"
 width="600.000000pt" height="430.000000pt" viewBox="0 0 600.000000 430.000000"
 preserveAspectRatio="xMidYMid meet">
<metadata>
Created by potrace 1.16, written by Peter Selinger 2001-2019
</metadata>
<g transform="translate(0.000000,430.000000) scale(0.100000,-0.100000)"
fill="#f1ead8" stroke="none">
<path d="M4265 3844 c-156 -31 -185 -43 -301 -121 -71 -47 -93 -57 -139 -61
-34 -3 -71 1 -101 12 -26 9 -52 16 -58 16 -18 0 39 -53 74 -68 19 -8 69 -17
110 -21 l75 -6 -87 -48 c-135 -75 -188 -91 -298 -91 -87 -1 -101 2 -164 32
-37 17 -70 32 -72 32 -12 0 0 -22 27 -50 34 -33 118 -79 184 -100 49 -15 67
-30 37 -30 -43 0 -134 -43 -195 -92 -103 -83 -129 -93 -230 -92 -72 1 -85 -1
-76 -12 18 -21 89 -37 141 -31 56 7 109 33 168 82 72 60 122 84 244 115 116
30 186 54 186 64 0 3 -33 3 -73 0 -55 -5 -95 -2 -153 12 l-79 18 90 7 c126 10
150 20 418 171 109 62 189 91 239 86 32 -3 30 -5 -52 -51 -134 -75 -214 -140
-375 -307 -288 -297 -411 -416 -498 -481 -235 -176 -450 -257 -829 -314 -213
-32 -279 -47 -376 -86 -105 -42 -183 -91 -262 -166 l-67 -63 -99 0 c-111 0
-197 -17 -294 -57 -225 -92 -390 -273 -487 -533 -13 -36 -35 -83 -48 -106 -37
-63 -108 -122 -198 -163 -182 -85 -283 -198 -322 -363 -16 -67 -20 -158 -7
-158 4 0 20 20 35 44 60 96 153 153 317 196 47 12 123 40 170 62 67 32 100 56
155 112 81 82 122 159 161 299 37 135 70 214 120 288 51 77 119 143 204 198
61 40 147 77 203 88 l29 6 -26 -41 c-37 -59 -75 -177 -82 -258 -3 -38 -1 -109
5 -159 23 -177 24 -199 7 -257 -20 -72 -84 -144 -165 -187 -33 -17 -69 -43
-81 -58 -11 -14 -27 -51 -35 -82 -62 -233 -110 -333 -197 -416 -48 -46 -58
-61 -63 -100 l-7 -45 -47 0 c-62 0 -104 -28 -134 -87 -29 -57 -50 -146 -45
-188 5 -44 35 -43 131 3 62 30 99 57 147 107 36 36 84 78 107 92 24 13 54 39
69 55 14 17 52 87 84 155 124 261 217 351 622 603 49 30 115 79 148 108 53 47
125 144 172 230 9 18 38 45 64 62 106 67 234 98 534 130 301 32 443 59 595
112 80 29 198 87 265 133 50 34 62 38 125 39 87 2 128 21 385 176 192 116 258
150 292 150 17 0 19 -4 13 -32 -11 -52 -54 -123 -101 -168 -32 -30 -46 -53
-50 -79 l-6 -38 -48 5 c-33 3 -55 -1 -73 -12 -36 -24 -97 -145 -104 -207 l-6
-52 53 6 c69 8 187 64 242 115 24 22 61 49 83 60 22 11 48 29 58 40 10 11 34
68 53 128 19 60 55 145 78 189 24 44 46 94 50 112 16 74 -35 155 -107 168 -22
4 -78 -5 -168 -28 -73 -19 -153 -37 -177 -41 -42 -6 -43 -6 -28 16 29 47 38
103 40 246 3 165 16 219 69 298 36 54 96 99 145 109 32 7 32 6 32 -31 0 -21 9
-57 21 -80 24 -51 71 -95 137 -128 26 -13 80 -58 120 -99 70 -73 72 -76 72
-125 0 -44 4 -54 31 -76 17 -14 34 -26 39 -26 5 0 15 -3 24 -6 31 -12 16 24
-19 45 -33 19 -35 24 -35 70 0 42 -5 57 -32 88 -75 90 -127 136 -179 163 -128
65 -167 167 -108 281 10 21 15 40 10 44 -5 3 -25 -13 -44 -35 -22 -26 -42 -40
-58 -40 -13 0 -47 -11 -74 -24 -88 -40 -156 -138 -181 -257 -8 -41 -14 -106
-12 -146 3 -71 3 -72 -17 -54 -42 39 -88 54 -160 54 -67 0 -164 -27 -150 -42
4 -3 50 -4 104 -3 115 4 160 -10 191 -60 11 -18 20 -49 20 -69 0 -48 -39 -121
-70 -130 -14 -4 -47 -13 -73 -19 -88 -23 -177 -101 -177 -155 0 -13 13 -5 50
29 28 26 70 56 93 66 23 10 85 26 137 35 52 9 157 32 233 51 76 19 154 34 173
34 24 0 43 -8 59 -25 39 -38 34 -88 -20 -192 -24 -49 -58 -131 -75 -183 -17
-52 -38 -105 -46 -117 -8 -13 -33 -32 -57 -44 -23 -12 -63 -41 -88 -64 -47
-44 -116 -80 -174 -91 -30 -5 -35 -3 -35 12 0 26 53 136 73 152 10 9 34 12 64
10 44 -3 48 -5 53 -33 l6 -30 21 34 c17 26 19 39 12 64 -5 18 -9 35 -9 40 0 4
22 30 49 57 52 52 111 157 111 197 0 45 -17 63 -61 63 -49 0 -101 -26 -338
-169 -197 -119 -268 -151 -333 -151 -33 0 -46 6 -72 33 -17 18 -40 57 -50 87
-30 85 -126 164 -158 132 -7 -7 -2 -15 18 -25 45 -23 72 -57 100 -128 14 -35
34 -75 44 -90 l19 -25 -82 -51 c-192 -118 -376 -168 -817 -218 -124 -15 -252
-32 -285 -40 -83 -19 -170 -50 -221 -79 -24 -14 -44 -23 -44 -20 0 2 14 35 31
72 52 113 69 161 59 167 -14 8 -55 -52 -96 -140 -127 -274 -130 -281 -197
-352 -40 -42 -107 -96 -164 -133 -54 -35 -156 -101 -226 -148 -214 -140 -342
-286 -433 -494 -23 -54 -52 -112 -64 -128 -12 -17 -40 -41 -63 -54 -23 -14
-58 -41 -77 -61 -30 -31 -35 -33 -42 -18 -14 36 -8 78 12 91 14 8 20 23 20 49
0 31 9 46 65 104 79 82 128 180 175 348 17 63 35 122 41 133 5 10 33 30 61 44
70 36 153 116 182 178 35 72 40 126 22 238 -38 237 -4 390 125 561 94 125 256
229 429 276 41 11 140 30 220 41 292 42 447 84 626 169 206 99 341 206 605
482 232 243 311 319 407 392 69 52 227 140 292 162 20 7 11 10 -42 12 -38 2
-68 8 -68 12 0 12 161 31 260 31 67 0 81 3 72 12 -8 8 -53 14 -126 16 -133 5
-225 -11 -389 -68 -105 -36 -225 -65 -169 -40 12 5 48 27 80 48 106 73 161 94
284 112 127 19 316 -14 446 -78 49 -24 54 -24 69 -9 9 9 15 18 12 20 -15 10
-94 43 -154 64 -122 41 -297 63 -380 47z m-2608 -1700 c-32 -8 -100 -35 -150
-61 -74 -38 -110 -65 -183 -138 -74 -73 -99 -106 -132 -175 -23 -47 -58 -141
-78 -210 -19 -69 -51 -153 -70 -188 -76 -135 -194 -217 -384 -268 -119 -31
-206 -71 -258 -118 l-41 -37 11 38 c34 128 134 237 281 307 107 51 165 91 201
139 15 19 56 99 91 177 36 79 83 171 105 205 47 73 152 177 230 228 107 71
251 115 375 115 l60 0 -58 -14z m-610 -1736 c11 -62 11 -63 -15 -86 -25 -21
-122 -72 -138 -72 -4 0 -4 23 -1 50 8 67 54 152 87 161 53 15 56 12 67 -53z
M4925 3814 c-60 -40 -83 -63 -126 -126 -21 -31 -52 -62 -69 -69 -16 -8 -30
-17 -30 -21 0 -14 55 -9 77 7 12 8 42 43 66 78 25 35 58 72 73 82 l27 17 -7
-38 c-4 -22 -18 -59 -32 -83 -13 -24 -22 -46 -19 -49 10 -10 52 28 65 57 7 17
18 31 24 31 6 0 28 11 49 25 20 14 37 23 37 20 0 -10 -32 -69 -51 -94 -11 -13
-19 -19 -19 -12 0 6 -7 11 -15 11 -8 0 -15 -4 -15 -9 0 -5 36 -76 79 -158 59
-111 84 -170 100 -235 11 -48 41 -158 66 -244 25 -86 45 -169 45 -186 0 -16
-5 -39 -11 -51 -15 -28 -50 -67 -61 -67 -11 0 -10 87 1 94 5 4 11 1 13 -6 7
-19 28 1 28 27 0 30 -14 39 -40 25 -33 -18 -53 -68 -46 -117 5 -39 4 -43 -15
-43 -18 0 -19 -2 -9 -15 32 -38 118 0 157 70 13 23 23 57 23 81 0 23 -25 128
-55 234 -30 106 -59 217 -64 246 -6 29 -30 88 -54 131 -25 43 -56 102 -71 130
l-26 53 35 45 c31 41 65 126 65 162 0 17 -15 17 -30 -2 -7 -8 -35 -29 -62 -46
l-51 -31 6 29 c4 15 9 38 13 51 5 17 2 22 -13 22 -10 0 -36 -12 -58 -26z
M4910 3371 c0 -16 74 -71 95 -71 12 0 30 -7 41 -15 31 -24 47 -19 40 13 -9 36
-32 52 -75 52 -20 1 -47 7 -61 15 -30 17 -40 18 -40 6z M3545 3162 c-57 -20
-92 -43 -174 -114 -69 -61 -116 -86 -191 -101 -31 -7 -56 -16 -56 -22 1 -17
108 -11 158 8 30 12 80 48 135 99 49 44 109 91 135 104 43 22 70 44 51 44 -4
-1 -31 -8 -58 -18z M1462 1897 c-18 -21 -41 -93 -64 -197 -26 -121 -67 -225
-125 -314 -140 -217 -320 -350 -550 -407 -50 -13 -89 -27 -87 -31 9 -14 89 -9
166 11 128 33 227 91 342 200 117 113 203 238 252 367 14 37 34 121 45 188 11
67 25 136 31 154 11 37 7 50 -10 29z"/>
</g>
</svg>
