<?xml version="1.0" standalone="no"?>
<!DOCTYPE svg PUBLIC "-//W3C//DTD SVG 20010904//EN"
 "http://www.w3.org/TR/2001/REC-SVG-20010904/DTD/svg10.dtd">
<svg version="1.0" xmlns="http://www.w3.org/2000/svg"
 width="600.000000pt" height="430.000000pt" viewBox="0 0 600.000000 430.000000"
 preserveAspectRatio="xMidYMid meet">
<metadata>
Created by potrace 1.16, written by Peter Selinger 2001-2019
</metadata>
<g transform="translate(0.000000,430.000000) scale(0.100000,-0.100000)"
fill="#f1ead8" stroke="none">
<path d="M4265 3844 c-102 -20 -135 -29 -174 -46 -25 -11 -83 -45 -129 -75
-70 -47 -93 -57 -137 -61 -34 -3 -71 2 -101 12 -26 9 -52 16 -58 16 -5 0 1
-12 15 -26 13 -15 40 -33 59 -42 19 -8 69 -17 110 -21 l75 -6 -87 -48 c-48
-27 -113 -58 -145 -70 -43 -16 -82 -21 -153 -21 -87 -1 -101 2 -164 32 -37 17
-70 32 -72 32 -2 0 -4 -4 -4 -9 0 -5 14 -24 31 -41 17 -17 57 -44 88 -59 31
-16 75 -34 99 -41 23 -7 42 -17 42 -22 0 -4 -7 -8 -15 -8 -8 0 -39 -9 -70 -21
-31 -11 -84 -43 -118 -71 -34 -27 -80 -60 -102 -71 -33 -18 -55 -22 -127 -21
-49 1 -88 -2 -88 -7 0 -4 20 -15 45 -25 32 -12 61 -15 99 -11 29 3 71 14 93
25 22 12 59 37 83 57 23 20 62 47 85 61 23 13 95 38 159 54 64 17 132 37 151
45 19 7 35 18 35 24 0 6 -14 6 -37 -1 -21 -6 -69 -8 -108 -5 -38 3 -90 12
-115 20 l-45 15 65 1 c36 1 91 8 123 16 31 8 87 30 124 49 38 19 106 57 153
85 47 28 120 65 162 81 43 17 91 30 108 30 16 0 30 -3 30 -7 0 -5 -35 -27 -78
-51 -42 -23 -108 -66 -147 -94 -38 -29 -140 -124 -225 -212 -85 -89 -211 -217
-280 -286 -69 -69 -165 -155 -214 -192 -49 -37 -130 -89 -180 -117 -50 -27
-133 -66 -184 -86 -51 -19 -139 -47 -195 -60 -56 -14 -178 -36 -271 -50 -93
-14 -198 -32 -234 -40 -35 -9 -99 -29 -141 -46 -42 -17 -107 -50 -146 -74 -38
-24 -95 -69 -125 -99 l-55 -56 -100 0 c-64 0 -130 -7 -183 -20 -46 -11 -116
-36 -156 -55 -39 -20 -103 -59 -141 -88 -39 -30 -98 -87 -133 -128 -34 -41
-82 -112 -106 -159 -23 -47 -58 -122 -76 -168 -23 -59 -47 -99 -83 -138 -37
-41 -71 -65 -136 -96 -47 -22 -114 -60 -147 -84 -34 -24 -78 -65 -97 -91 -19
-27 -44 -67 -56 -90 -12 -23 -28 -71 -36 -105 -16 -67 -20 -158 -7 -158 4 0
20 20 35 44 15 25 46 61 69 82 22 20 68 49 102 64 34 15 106 40 160 55 55 15
130 42 166 60 37 19 92 57 123 85 30 28 72 75 92 106 20 30 49 90 65 132 15
42 33 102 40 132 6 30 34 100 60 155 32 66 67 121 105 162 31 34 89 84 130
112 71 47 157 86 218 98 l29 6 -26 -41 c-14 -23 -38 -76 -52 -118 -14 -44 -27
-110 -31 -157 -3 -52 1 -120 11 -186 9 -58 16 -119 16 -136 0 -17 -7 -54 -15
-82 -10 -32 -32 -69 -59 -100 -25 -27 -72 -64 -105 -82 -33 -17 -69 -43 -81
-58 -11 -14 -27 -51 -35 -82 -35 -130 -69 -230 -98 -286 -17 -33 -58 -86 -89
-117 -32 -32 -63 -70 -68 -84 -6 -14 -10 -36 -10 -50 0 -22 -4 -24 -47 -24
-30 0 -60 -7 -80 -20 -18 -10 -42 -39 -54 -62 -12 -24 -28 -65 -35 -93 -8 -27
-14 -69 -14 -92 0 -40 2 -43 27 -43 14 0 63 18 108 40 62 29 98 56 146 105 35
37 76 73 91 81 15 8 44 29 64 46 26 23 55 71 100 166 35 73 83 161 107 195 25
34 81 97 126 140 77 73 171 140 394 277 49 30 116 80 150 110 33 30 81 87 106
126 25 39 53 85 63 102 9 17 36 43 60 58 23 15 75 40 113 55 39 15 106 34 151
43 44 8 168 24 275 36 107 11 237 28 289 36 52 9 136 26 185 40 50 13 114 33
143 44 29 11 86 37 125 56 40 20 94 52 122 72 44 32 57 35 120 37 51 1 85 8
125 27 31 14 146 79 256 146 110 66 218 127 238 136 21 9 47 16 58 16 17 0 19
-5 13 -32 -4 -18 -19 -55 -33 -81 -14 -27 -40 -60 -57 -74 -16 -14 -38 -37
-47 -52 -10 -14 -18 -39 -18 -54 0 -24 -3 -27 -20 -22 -36 11 -78 8 -103 -8
-13 -8 -40 -47 -61 -86 -22 -42 -39 -92 -43 -122 l-6 -52 53 6 c30 4 86 22
126 41 40 19 92 52 116 74 24 22 61 49 83 60 22 11 48 29 59 40 10 12 35 73
56 137 21 63 56 148 78 188 22 39 43 86 46 104 4 17 2 49 -4 71 -6 24 -23 51
-41 66 -17 14 -42 29 -57 33 -16 4 -82 -7 -177 -30 -82 -20 -166 -39 -185 -43
-30 -6 -33 -5 -22 8 6 8 19 35 28 59 11 31 16 88 18 194 2 106 8 165 20 202 9
28 31 73 49 99 17 27 50 61 72 75 22 15 55 30 73 34 32 7 32 6 32 -31 0 -21 9
-57 21 -80 11 -24 36 -57 55 -74 19 -16 56 -41 82 -54 26 -13 80 -58 120 -99
70 -73 72 -76 72 -125 0 -44 4 -54 31 -76 17 -14 34 -26 39 -26 5 0 15 -3 24
-6 10 -4 16 -1 16 9 0 8 -16 24 -35 36 -33 19 -35 24 -35 70 0 42 -5 57 -32
88 -75 90 -127 136 -179 163 -31 16 -69 44 -86 63 -17 20 -36 52 -43 72 -7 21
-9 52 -5 73 4 20 15 53 26 73 10 21 15 40 10 44 -5 3 -25 -13 -44 -35 -22 -26
-42 -40 -58 -40 -13 0 -46 -11 -74 -24 -27 -12 -67 -41 -87 -64 -20 -23 -46
-59 -58 -81 -11 -22 -27 -71 -36 -108 -9 -40 -14 -98 -12 -145 3 -76 3 -77
-17 -59 -11 10 -36 27 -55 36 -24 13 -57 18 -105 18 -43 0 -86 -7 -112 -18
-24 -9 -41 -20 -38 -25 2 -4 48 -5 102 -3 76 4 107 1 136 -11 21 -9 46 -31 57
-49 11 -17 20 -48 20 -68 0 -20 -10 -55 -23 -79 -14 -27 -33 -46 -47 -51 -14
-4 -47 -13 -73 -19 -26 -7 -68 -26 -92 -42 -24 -16 -53 -44 -65 -62 -11 -19
-20 -41 -20 -51 0 -13 13 -5 50 29 28 26 70 56 93 66 23 10 85 26 137 35 52 9
157 32 233 51 76 19 154 34 173 34 24 0 43 -8 59 -25 18 -17 25 -35 25 -64 0
-27 -14 -67 -45 -128 -24 -48 -58 -131 -76 -183 -17 -52 -37 -105 -45 -117 -8
-13 -36 -34 -62 -47 -26 -13 -60 -38 -77 -56 -16 -18 -55 -45 -86 -60 -30 -16
-72 -32 -92 -35 -30 -6 -37 -4 -37 9 0 24 54 139 73 154 10 9 34 12 64 10 44
-3 48 -5 53 -33 l6 -30 22 35 c12 19 20 41 17 48 -3 8 -8 24 -11 37 -5 19 4
34 46 76 29 29 65 79 81 113 16 34 29 73 29 87 0 14 -6 34 -14 44 -9 13 -25
19 -48 18 -19 0 -59 -13 -89 -28 -30 -15 -137 -77 -238 -138 -100 -60 -208
-121 -240 -133 -31 -13 -74 -24 -96 -24 -22 0 -51 7 -64 16 -12 9 -41 54 -63
101 -30 64 -51 92 -81 114 -22 16 -48 29 -58 29 -10 0 -20 -4 -24 -10 -3 -5 7
-16 22 -24 15 -8 38 -25 50 -38 13 -13 35 -53 49 -89 14 -35 34 -75 44 -89
l18 -26 -56 -36 c-32 -20 -85 -50 -120 -67 -34 -17 -103 -45 -151 -61 -49 -17
-133 -39 -188 -50 -54 -12 -210 -34 -348 -50 -137 -17 -274 -35 -303 -41 -30
-6 -85 -22 -124 -35 -39 -13 -90 -35 -114 -48 -24 -14 -44 -23 -44 -20 0 2 14
35 31 72 17 37 39 88 50 114 10 26 14 50 9 53 -5 3 -20 -9 -34 -27 -13 -18
-41 -69 -62 -113 -114 -249 -135 -285 -196 -351 -41 -44 -105 -94 -183 -145
-66 -43 -160 -104 -209 -135 -48 -32 -122 -87 -164 -124 -41 -36 -101 -99
-133 -140 -32 -41 -74 -106 -93 -145 -19 -38 -51 -105 -71 -148 -28 -61 -45
-84 -77 -105 -22 -15 -62 -46 -88 -70 -46 -41 -48 -42 -54 -20 -11 43 -6 73
14 86 14 8 20 23 20 49 0 31 9 46 65 104 48 49 76 91 105 151 21 46 53 135 70
197 17 62 35 122 41 132 5 11 33 31 61 45 28 14 75 49 105 76 29 28 64 74 77
102 14 28 28 71 31 96 4 25 0 87 -9 142 -9 54 -16 130 -16 170 0 40 7 102 15
137 9 35 29 92 45 125 16 34 53 92 83 131 29 38 84 93 122 123 39 29 106 71
150 92 44 21 114 48 155 59 41 11 155 32 252 46 97 14 228 38 290 54 63 16
149 43 191 60 43 17 110 47 150 67 39 20 106 59 147 87 41 28 111 80 155 117
45 37 171 161 280 275 110 115 226 234 258 264 33 31 93 82 135 114 43 32 115
77 162 101 47 23 101 49 120 56 l35 14 -67 4 c-38 1 -68 7 -68 11 0 5 40 13
88 20 49 6 126 11 172 11 67 0 81 3 72 12 -8 8 -53 14 -126 16 -78 3 -137 -1
-194 -13 -45 -9 -132 -33 -194 -54 -62 -21 -129 -42 -148 -46 -30 -6 -24 0 42
43 42 28 90 58 105 65 49 25 122 47 194 57 44 6 101 6 162 0 51 -5 124 -19
163 -31 38 -12 93 -33 122 -47 49 -24 54 -24 69 -9 9 9 15 18 12 20 -2 2 -42
20 -89 40 -47 20 -131 45 -187 56 -55 12 -132 20 -170 20 -37 -1 -77 -3 -88
-5z m-2608 -1700 c-32 -8 -100 -35 -150 -61 -73 -38 -111 -66 -183 -138 -79
-78 -98 -103 -137 -185 -25 -52 -57 -139 -72 -194 -14 -54 -37 -121 -49 -150
-13 -28 -44 -78 -69 -111 -25 -33 -65 -74 -89 -91 -23 -17 -61 -41 -84 -52
-23 -12 -96 -37 -164 -57 -67 -20 -145 -47 -172 -61 -27 -14 -66 -41 -88 -60
l-39 -35 11 38 c19 70 71 153 130 208 40 37 91 70 156 101 53 25 117 62 141
82 24 19 58 58 75 86 18 28 51 96 75 152 23 56 59 130 79 165 20 34 66 94 102
132 36 39 96 91 133 118 38 26 98 59 135 74 37 14 96 32 132 40 36 7 92 13
125 13 l60 0 -58 -14z m-617 -1702 c0 -15 5 -43 10 -62 9 -32 8 -37 -17 -58
-16 -12 -51 -34 -80 -47 -28 -14 -55 -25 -59 -25 -4 0 -4 20 -1 45 4 25 17 69
29 97 15 36 30 54 52 64 17 7 39 13 49 14 12 0 17 -8 17 -28z M4930 3819 c-19
-12 -48 -33 -64 -48 -15 -14 -46 -51 -67 -83 -21 -31 -52 -62 -69 -69 -16 -8
-30 -17 -30 -21 0 -5 12 -8 28 -8 15 0 37 7 49 15 12 9 40 42 63 74 22 31 55
68 72 81 l31 23 -7 -39 c-4 -22 -18 -59 -32 -83 -13 -24 -22 -46 -19 -49 2 -3
15 2 28 11 13 8 29 28 36 44 8 18 29 36 59 50 25 12 47 21 49 19 1 -1 -13 -27
-32 -57 -19 -30 -35 -48 -35 -41 0 6 -7 12 -15 12 -8 0 -15 -4 -15 -9 0 -5 36
-76 79 -158 59 -110 84 -170 100 -235 11 -47 41 -157 66 -244 25 -87 45 -171
45 -187 0 -16 -5 -38 -11 -50 -6 -12 -21 -32 -32 -44 -11 -13 -24 -23 -29 -23
-9 0 -11 61 -2 85 5 13 8 14 15 3 6 -9 11 -10 19 -2 7 7 10 22 8 35 -1 12 -8
24 -14 26 -7 2 -25 -7 -40 -21 -26 -22 -29 -30 -29 -85 1 -53 -2 -61 -18 -61
-16 0 -17 -3 -7 -15 7 -8 26 -15 43 -15 17 0 45 11 64 26 18 14 42 43 53 64
11 22 20 57 20 78 0 22 -22 118 -50 215 -27 96 -57 208 -65 248 -9 40 -26 91
-39 114 -13 22 -45 79 -70 127 l-47 88 31 38 c17 21 39 62 50 90 20 52 26 92
14 92 -3 0 -23 -13 -43 -28 -20 -15 -49 -36 -65 -46 l-29 -18 7 26 c3 14 9 37
12 51 5 20 2 25 -12 25 -11 0 -35 -10 -54 -21z M4910 3371 c0 -14 72 -71 90
-71 8 0 28 -7 44 -15 15 -8 33 -15 38 -15 15 0 0 53 -19 68 -9 6 -33 12 -52
12 -20 1 -47 7 -61 15 -14 8 -28 14 -32 15 -5 0 -8 -4 -8 -9z M3555 3166 c-22
-7 -53 -20 -70 -28 -16 -9 -61 -44 -100 -78 -38 -34 -87 -71 -109 -82 -21 -11
-64 -25 -96 -31 -31 -7 -56 -16 -56 -22 1 -5 26 -10 56 -10 30 0 76 8 102 18
30 12 80 48 135 99 49 44 109 91 135 104 26 13 49 28 53 34 3 5 3 10 -2 9 -4
0 -26 -6 -48 -13z M1461 1897 c-6 -8 -18 -34 -26 -58 -9 -24 -25 -87 -37 -139
-11 -52 -33 -128 -50 -169 -16 -41 -50 -106 -75 -145 -25 -39 -67 -95 -92
-125 -25 -30 -77 -81 -116 -113 -40 -34 -109 -78 -160 -103 -49 -24 -131 -54
-182 -66 -51 -12 -90 -26 -87 -30 3 -5 24 -9 48 -9 24 0 77 9 118 19 42 11
100 32 130 47 29 14 80 46 113 69 33 23 95 79 138 124 43 46 101 117 128 159
27 42 63 112 79 154 17 43 41 139 55 215 13 76 27 148 31 161 3 12 4 22 1 22
-2 0 -10 -6 -16 -13z"/>
</g>
</svg>
