<?xml version="1.0" standalone="no"?>
<!DOCTYPE svg PUBLIC "-//W3C//DTD SVG 20010904//EN"
 "http://www.w3.org/TR/2001/REC-SVG-20010904/DTD/svg10.dtd">
<svg version="1.0" xmlns="http://www.w3.org/2000/svg"
 width="600.000000pt" height="430.000000pt" viewBox="0 0 600.000000 430.000000"
 preserveAspectRatio="xMidYMid meet">
<metadata>
Created by potrace 1.16, written by Peter Selinger 2001-2019
</metadata>
<g transform="translate(0.000000,430.000000) scale(0.100000,-0.100000)"
fill="#f1ead8" stroke="none">
<path d="M4244 3840 c-98 -14 -177 -49 -296 -128 -61 -40 -78 -47 -132 -50
-42 -3 -74 1 -100 12 -52 22 -63 20 -40 -5 39 -43 94 -62 181 -63 46 -1 83 -2
83 -2 0 -1 -39 -24 -87 -52 -116 -66 -190 -92 -282 -99 -83 -6 -166 11 -230
48 -47 27 -51 16 -10 -27 36 -39 151 -100 206 -110 44 -8 42 -20 -4 -27 -55
-9 -129 -49 -198 -106 -79 -66 -136 -86 -228 -77 -59 5 -68 4 -58 -8 6 -7 32
-19 56 -26 81 -23 167 4 260 81 71 59 129 85 249 114 59 13 123 33 144 44 l37
19 -82 -5 c-61 -4 -101 -1 -160 13 l-78 19 90 7 c129 9 187 31 374 142 121 71
229 116 280 116 23 0 41 -3 41 -8 0 -4 -31 -22 -69 -41 -109 -53 -235 -154
-386 -311 -412 -427 -509 -511 -705 -613 -188 -99 -328 -139 -647 -187 -109
-17 -234 -42 -278 -56 -124 -40 -248 -110 -329 -185 l-71 -66 -125 -6 c-144
-6 -223 -27 -339 -88 -100 -54 -187 -124 -254 -206 -67 -84 -105 -151 -157
-279 -71 -173 -110 -216 -278 -298 -90 -44 -105 -54 -170 -118 -58 -57 -103
-140 -127 -233 -16 -63 -20 -155 -7 -155 5 0 18 18 30 39 29 50 109 122 166
149 24 12 100 38 168 57 157 46 227 84 308 165 82 82 130 172 170 321 47 175
97 267 200 370 71 71 101 93 180 131 52 26 112 50 132 54 l37 6 -29 -53 c-71
-128 -90 -253 -66 -436 20 -152 20 -178 -1 -238 -20 -60 -105 -148 -180 -187
-29 -15 -59 -39 -68 -52 -9 -13 -29 -75 -46 -138 -42 -160 -94 -264 -174 -347
-56 -58 -65 -73 -65 -104 0 -41 -24 -61 -63 -52 -40 11 -92 -19 -121 -67 -30
-52 -58 -156 -54 -201 3 -29 6 -32 36 -30 60 2 159 60 251 147 48 44 101 88
118 97 42 23 75 70 121 174 108 248 237 383 548 573 238 146 307 210 379 352
28 55 42 70 89 99 122 73 229 99 571 136 267 30 390 53 532 100 117 39 203 80
288 139 55 38 65 41 126 41 60 0 77 5 170 52 57 28 163 88 234 133 134 83 235
137 270 142 12 2 21 -4 23 -14 6 -31 -45 -126 -99 -183 -37 -39 -52 -63 -54
-87 l-3 -33 -54 3 c-48 3 -57 1 -82 -25 -38 -36 -87 -143 -94 -199 -5 -43 -4
-44 25 -44 67 0 194 57 263 118 25 21 64 49 87 60 55 29 75 60 108 167 15 50
49 133 75 185 26 52 51 109 55 126 8 40 -19 107 -52 134 -43 34 -79 33 -223
-4 -74 -19 -154 -37 -177 -41 l-42 -7 21 44 c19 37 23 68 29 213 7 178 15 218
63 300 32 52 72 90 118 109 54 23 68 21 68 -10 0 -83 57 -166 143 -208 30 -15
84 -58 129 -103 77 -77 78 -79 78 -130 0 -45 4 -54 31 -77 29 -25 79 -36 79
-17 0 5 -16 18 -35 30 -32 19 -35 24 -35 69 0 41 -6 55 -37 93 -76 91 -120
132 -174 159 -130 67 -170 169 -109 282 11 21 16 39 11 42 -9 6 -42 -27 -58
-58 -7 -12 -24 -19 -53 -21 -92 -7 -190 -102 -232 -225 -17 -50 -22 -89 -23
-165 l0 -101 -43 30 c-38 27 -54 31 -120 34 -75 3 -152 -13 -159 -34 -2 -5 36
-7 89 -5 150 5 207 -25 215 -116 6 -59 -30 -134 -68 -145 -13 -4 -50 -15 -82
-23 -46 -13 -70 -27 -113 -69 -36 -35 -54 -60 -54 -76 0 -22 4 -21 48 22 58
58 111 82 227 103 50 9 155 32 235 51 170 41 214 41 243 1 31 -40 25 -82 -26
-183 -24 -49 -59 -132 -76 -184 -39 -117 -50 -134 -103 -161 -22 -11 -62 -41
-88 -65 -43 -41 -124 -82 -192 -98 -26 -6 -26 -6 -16 32 13 47 52 125 71 140
8 7 38 11 69 9 50 -2 54 -4 50 -24 -2 -13 1 -23 6 -23 21 0 34 41 27 85 -6 42
-4 45 54 110 55 61 101 147 101 191 0 35 -20 54 -58 54 -49 0 -105 -27 -307
-150 -212 -129 -299 -170 -358 -170 -61 0 -88 24 -136 124 -41 85 -73 118
-123 131 -37 9 -44 -11 -10 -29 42 -22 75 -65 102 -132 13 -33 32 -70 42 -83
17 -23 17 -24 -5 -40 -130 -98 -326 -174 -557 -215 -47 -9 -186 -27 -310 -41
-255 -29 -395 -60 -493 -108 -78 -39 -78 -43 -16 92 22 46 39 93 39 104 0 20
0 20 -21 2 -20 -19 -41 -59 -152 -296 -69 -148 -147 -234 -297 -329 -337 -214
-434 -292 -533 -431 -26 -37 -76 -128 -112 -203 -58 -123 -69 -139 -112 -168
-26 -18 -66 -50 -89 -71 -34 -31 -43 -35 -48 -21 -12 32 -6 74 15 95 14 14 19
28 15 45 -5 20 6 37 63 99 85 91 128 175 176 343 19 68 40 132 45 143 6 10 34
31 62 45 66 33 152 115 178 168 35 73 41 136 25 247 -30 196 -16 311 51 446
104 207 306 353 564 408 36 7 119 21 184 30 175 24 295 50 427 94 283 95 473
228 764 537 217 230 324 334 414 402 75 56 268 162 296 162 7 0 17 5 20 10 4
6 -16 10 -55 9 -55 -2 -80 4 -69 15 10 10 168 26 252 26 70 0 88 3 79 12 -7 7
-56 13 -120 16 -132 5 -219 -10 -407 -74 -159 -53 -206 -58 -126 -14 30 17 62
36 70 44 26 22 113 63 176 82 94 29 273 24 390 -11 50 -14 114 -38 144 -51 49
-23 55 -24 69 -10 14 14 10 18 -49 45 -167 76 -340 104 -495 81z m-2561 -1690
c-124 -25 -252 -99 -363 -210 -104 -104 -144 -176 -195 -350 -48 -167 -93
-257 -163 -328 -73 -74 -167 -123 -312 -162 -124 -34 -187 -64 -251 -119 -39
-33 -41 -33 -35 -10 4 13 23 56 42 95 46 96 125 170 242 225 107 52 178 103
216 157 15 23 52 98 82 167 29 69 69 149 87 178 148 229 382 366 622 365 65 0
67 -1 28 -8z m-636 -1742 c8 -51 8 -66 -4 -79 -17 -21 -138 -82 -151 -78 -14
6 14 125 39 165 22 36 48 52 85 53 17 1 22 -8 31 -61z M4925 3814 c-58 -39
-92 -72 -126 -126 -17 -26 -47 -58 -67 -70 l-37 -23 27 -3 c38 -4 73 22 119
89 33 49 85 99 103 99 10 0 -26 -105 -46 -133 -11 -16 -18 -31 -14 -34 10 -11
56 27 62 52 4 17 24 34 60 54 30 16 54 26 54 23 0 -4 -14 -31 -31 -61 -23 -39
-34 -50 -42 -42 -15 15 -29 14 -25 -1 2 -7 38 -78 80 -158 57 -107 82 -168 97
-230 11 -47 41 -155 66 -240 57 -195 57 -238 5 -290 -30 -30 -40 -25 -40 24 0
43 14 70 22 44 7 -19 28 1 28 27 0 30 -14 39 -40 25 -41 -22 -63 -98 -40 -141
9 -16 7 -19 -10 -19 -33 0 -18 -25 16 -28 65 -6 144 83 144 164 0 23 -23 119
-50 213 -28 95 -58 207 -66 249 -10 47 -29 99 -49 132 -18 30 -49 88 -69 127
l-36 73 34 47 c28 41 66 129 66 155 0 14 -21 8 -53 -16 -18 -13 -45 -32 -61
-42 l-29 -18 7 38 c4 20 10 44 13 52 9 23 -28 17 -72 -12z M4910 3371 c0 -19
75 -71 101 -71 15 0 32 -7 39 -15 18 -22 30 -18 30 9 0 35 -26 56 -68 56 -20
0 -50 7 -66 15 -33 18 -36 18 -36 6z M3545 3162 c-58 -20 -97 -46 -174 -116
-61 -55 -144 -97 -208 -104 -24 -2 -46 -8 -49 -13 -8 -14 43 -22 93 -14 74 11
127 42 220 126 47 43 105 88 129 100 41 19 65 39 47 39 -4 -1 -31 -8 -58 -18z
M1444 1863 c-8 -21 -26 -86 -39 -144 -32 -142 -74 -248 -136 -343 -136 -207
-319 -342 -538 -396 -50 -12 -91 -27 -91 -32 0 -17 131 0 208 26 90 31 124 49
202 107 126 93 237 224 305 359 51 103 68 158 94 319 12 67 24 127 27 132 3 5
0 9 -5 9 -6 0 -18 -17 -27 -37z"/>
</g>
</svg>
