<?xml version="1.0" standalone="no"?>
<!DOCTYPE svg PUBLIC "-//W3C//DTD SVG 20010904//EN"
 "http://www.w3.org/TR/2001/REC-SVG-20010904/DTD/svg10.dtd">
<svg version="1.0" xmlns="http://www.w3.org/2000/svg"
 width="600.000000pt" height="430.000000pt" viewBox="0 0 600.000000 430.000000"
 preserveAspectRatio="xMidYMid meet">
<metadata>
Created by potrace 1.16, written by Peter Selinger 2001-2019
</metadata>
<g transform="translate(0.000000,430.000000) scale(0.100000,-0.100000)"
fill="#f1ead8" stroke="none">
<path d="M4265 3844 c-156 -31 -187 -43 -303 -121 -70 -47 -93 -57 -137 -61
-34 -3 -71 2 -101 12 -26 9 -52 16 -58 16 -18 0 39 -53 74 -68 19 -8 69 -17
110 -21 l75 -6 -87 -48 c-136 -75 -188 -91 -298 -91 -87 -1 -101 2 -164 32
-37 17 -70 32 -72 32 -12 0 0 -22 27 -50 35 -34 121 -81 187 -100 41 -13 57
-30 27 -30 -36 0 -132 -46 -188 -92 -103 -83 -129 -93 -229 -92 -49 1 -88 -2
-88 -7 0 -4 20 -15 45 -25 32 -12 61 -15 99 -11 62 6 115 31 176 82 72 60 122
84 244 115 64 17 132 37 151 45 48 19 46 36 -2 23 -46 -13 -161 -5 -223 15
l-45 15 65 1 c119 2 209 35 400 150 47 28 120 65 162 81 73 28 138 39 138 23
0 -5 -35 -27 -78 -51 -126 -70 -209 -137 -372 -306 -396 -410 -490 -493 -674
-595 -182 -100 -351 -151 -650 -196 -93 -14 -198 -32 -234 -40 -154 -36 -315
-122 -412 -219 l-55 -56 -100 0 c-179 0 -336 -54 -480 -163 -134 -102 -231
-242 -315 -455 -46 -117 -105 -180 -219 -234 -199 -94 -296 -201 -336 -370
-16 -67 -20 -158 -7 -158 4 0 20 20 35 44 62 98 150 151 331 201 55 15 130 42
166 60 81 41 165 116 215 191 39 59 84 173 105 264 20 91 101 247 165 317 89
99 237 188 348 210 l29 6 -26 -41 c-41 -65 -76 -184 -83 -275 -3 -52 1 -120
11 -186 20 -129 20 -154 1 -218 -20 -67 -86 -140 -164 -182 -33 -17 -69 -43
-81 -58 -11 -14 -27 -51 -35 -82 -62 -231 -103 -320 -187 -403 -60 -59 -78
-91 -78 -134 0 -22 -4 -24 -47 -24 -62 0 -106 -27 -134 -82 -29 -56 -49 -132
-49 -185 0 -40 2 -43 27 -43 14 0 63 18 108 40 62 29 98 56 146 105 35 37 76
73 91 81 68 36 100 78 164 212 129 272 221 361 627 612 149 93 234 182 319
338 32 59 175 127 324 156 44 8 168 24 275 36 308 33 472 65 617 120 80 31
191 88 247 128 44 32 57 35 120 37 89 2 123 18 381 173 205 123 261 152 296
152 17 0 19 -5 13 -32 -11 -49 -55 -126 -90 -155 -42 -35 -65 -73 -65 -106 0
-24 -3 -27 -20 -22 -36 11 -78 8 -103 -8 -34 -22 -97 -147 -104 -208 l-6 -52
53 6 c69 8 187 64 242 115 24 22 61 49 83 60 22 11 48 29 59 40 10 12 35 73
56 137 21 63 56 148 78 188 22 39 43 86 46 104 16 70 -34 153 -102 170 -16 4
-82 -7 -177 -30 -82 -20 -166 -39 -185 -43 -30 -6 -33 -5 -22 8 31 38 44 105
46 253 3 168 16 222 69 301 36 54 96 99 145 109 32 7 32 6 32 -31 0 -21 9 -57
21 -80 24 -51 71 -95 137 -128 26 -13 80 -58 120 -99 70 -73 72 -76 72 -125 0
-44 4 -54 31 -76 17 -14 34 -26 39 -26 5 0 15 -3 24 -6 31 -12 16 24 -19 45
-33 19 -35 24 -35 70 0 42 -5 57 -32 88 -75 90 -127 136 -179 163 -128 65
-167 167 -108 281 10 21 15 40 10 44 -5 3 -25 -13 -44 -35 -22 -26 -42 -40
-58 -40 -41 0 -122 -45 -161 -88 -20 -23 -46 -59 -58 -81 -32 -64 -52 -166
-48 -253 3 -76 3 -77 -17 -59 -42 39 -88 54 -160 54 -68 0 -160 -26 -150 -43
2 -4 48 -5 102 -3 76 4 107 1 136 -11 45 -20 77 -68 77 -117 0 -48 -39 -121
-70 -130 -14 -4 -47 -13 -73 -19 -88 -23 -177 -101 -177 -155 0 -13 13 -5 50
29 28 26 70 56 93 66 23 10 85 26 137 35 52 9 157 32 233 51 76 19 154 34 173
34 24 0 43 -8 59 -25 39 -38 34 -87 -20 -192 -24 -48 -58 -131 -76 -183 -17
-52 -37 -105 -45 -117 -8 -13 -36 -34 -62 -47 -26 -13 -60 -38 -77 -56 -35
-37 -125 -85 -178 -95 -30 -6 -37 -4 -37 9 0 24 54 139 73 154 10 9 34 12 64
10 44 -3 48 -5 53 -33 l6 -30 22 35 c12 19 20 41 17 48 -20 53 -17 61 35 113
55 55 110 155 110 200 0 40 -23 63 -62 62 -44 -1 -101 -30 -327 -166 -100 -60
-208 -121 -240 -133 -66 -28 -127 -30 -160 -8 -12 9 -41 54 -63 101 -30 64
-51 92 -81 114 -41 29 -71 37 -82 19 -3 -5 7 -16 22 -24 44 -22 71 -57 99
-127 14 -35 34 -75 44 -89 l18 -26 -56 -36 c-131 -83 -281 -142 -459 -178 -54
-12 -210 -34 -348 -50 -137 -17 -274 -35 -303 -41 -75 -15 -186 -54 -238 -83
-24 -14 -44 -23 -44 -20 0 2 14 35 31 72 52 113 69 161 59 167 -14 8 -55 -52
-96 -140 -114 -249 -135 -285 -196 -351 -41 -44 -105 -94 -183 -145 -66 -43
-160 -104 -209 -135 -121 -79 -228 -174 -297 -264 -56 -72 -86 -126 -164 -293
-28 -61 -45 -84 -77 -105 -22 -15 -62 -46 -88 -70 -46 -41 -48 -42 -54 -20
-11 43 -6 73 14 86 14 8 20 23 20 49 0 31 9 46 65 104 79 82 130 182 175 348
17 62 35 122 41 132 5 11 33 31 61 45 70 36 153 116 182 178 35 72 40 126 22
238 -39 238 -4 393 127 563 94 122 260 229 427 274 41 11 155 32 252 46 417
59 667 162 933 385 45 37 171 161 280 275 245 255 296 304 393 378 71 53 195
123 282 157 l35 14 -67 4 c-38 1 -68 7 -68 11 0 12 161 31 260 31 67 0 81 3
72 12 -8 8 -53 14 -126 16 -132 5 -221 -11 -388 -67 -62 -21 -129 -42 -148
-46 -30 -6 -24 0 42 43 93 61 118 75 181 96 162 54 390 33 565 -52 49 -24 54
-24 69 -9 9 9 15 18 12 20 -2 2 -42 20 -89 40 -136 57 -344 91 -445 71z
m-2608 -1700 c-32 -8 -100 -35 -150 -61 -73 -38 -111 -66 -183 -138 -79 -78
-98 -103 -137 -185 -25 -52 -57 -139 -72 -194 -33 -125 -61 -186 -118 -261
-76 -101 -151 -145 -337 -200 -140 -41 -204 -71 -260 -121 l-39 -35 11 38 c35
130 134 237 286 309 165 78 211 129 291 320 23 56 59 130 79 165 48 82 149
189 235 250 111 77 264 127 392 127 l60 0 -58 -14z m-617 -1702 c0 -15 5 -43
10 -62 9 -32 8 -37 -17 -58 -27 -21 -124 -72 -139 -72 -12 0 5 89 28 142 15
36 30 54 52 64 50 21 66 18 66 -14z M4930 3819 c-51 -31 -87 -67 -131 -131
-21 -31 -52 -62 -69 -69 -16 -8 -30 -17 -30 -21 0 -14 55 -8 77 7 12 9 40 42
63 74 22 31 55 68 72 81 l31 23 -7 -39 c-4 -22 -18 -59 -32 -83 -13 -24 -22
-46 -19 -49 9 -9 52 27 64 55 8 18 29 36 59 50 25 12 47 21 49 19 1 -1 -13
-27 -32 -57 -19 -30 -35 -48 -35 -41 0 14 -30 17 -30 3 0 -5 36 -76 79 -158
59 -110 84 -170 100 -235 11 -47 41 -157 66 -244 25 -87 45 -171 45 -187 0
-16 -5 -38 -11 -50 -15 -28 -50 -67 -61 -67 -9 0 -11 61 -2 85 5 13 8 14 15 3
12 -19 32 4 27 33 -4 32 -21 34 -54 5 -26 -22 -29 -30 -29 -85 1 -53 -2 -61
-18 -61 -16 0 -17 -3 -7 -15 19 -23 69 -18 107 11 42 32 73 92 73 142 0 22
-22 118 -50 215 -27 96 -57 208 -65 248 -9 40 -26 91 -39 114 -13 22 -45 79
-70 127 l-47 88 31 38 c44 55 89 182 64 182 -3 0 -23 -13 -43 -28 -20 -15 -49
-36 -65 -46 l-29 -18 7 26 c3 14 9 37 12 51 5 20 2 25 -12 25 -11 0 -35 -10
-54 -21z M4910 3371 c0 -14 72 -71 90 -71 8 0 28 -7 44 -15 41 -22 49 -19 42
13 -9 36 -32 52 -75 52 -20 1 -47 7 -61 15 -30 17 -40 18 -40 6z M3555 3166
c-64 -20 -95 -40 -170 -106 -82 -73 -127 -98 -205 -113 -31 -7 -56 -16 -56
-22 1 -17 108 -11 158 8 30 12 80 48 135 99 49 44 109 91 135 104 26 13 49 28
53 34 8 12 0 12 -50 -4z M1461 1897 c-17 -21 -40 -93 -63 -197 -26 -121 -67
-225 -125 -314 -140 -217 -323 -352 -550 -407 -51 -12 -90 -26 -87 -30 9 -15
87 -10 166 10 140 36 255 109 381 240 94 99 166 208 207 313 17 43 41 139 55
215 13 76 27 148 31 161 7 25 2 28 -15 9z"/>
</g>
</svg>
