<?xml version="1.0" standalone="no"?>
<!DOCTYPE svg PUBLIC "-//W3C//DTD SVG 20010904//EN"
 "http://www.w3.org/TR/2001/REC-SVG-20010904/DTD/svg10.dtd">
<svg version="1.0" xmlns="http://www.w3.org/2000/svg"
 width="600.000000pt" height="430.000000pt" viewBox="0 0 600.000000 430.000000"
 preserveAspectRatio="xMidYMid meet">
<metadata>
Created by potrace 1.16, written by Peter Selinger 2001-2019
</metadata>
<g transform="translate(0.000000,430.000000) scale(0.100000,-0.100000)"
fill="#f1ead8" stroke="none">
<path d="M4265 3844 c-108 -22 -138 -30 -189 -56 -32 -16 -90 -50 -128 -76
-58 -39 -79 -46 -128 -50 -40 -3 -73 1 -100 12 -54 22 -67 20 -44 -5 40 -44
94 -63 181 -64 46 0 83 -1 83 -1 0 -7 -188 -106 -234 -123 -121 -45 -264 -37
-361 20 -49 29 -56 16 -14 -27 36 -39 151 -100 206 -110 44 -8 42 -20 -4 -27
-53 -9 -128 -49 -193 -102 -85 -70 -112 -80 -212 -79 -97 1 -106 -13 -23 -36
85 -24 165 1 260 80 71 60 128 86 249 115 59 13 123 33 144 44 l37 19 -81 -5
c-61 -4 -100 -1 -155 13 l-74 19 80 6 c132 11 199 36 383 147 109 66 220 112
272 112 23 0 39 -4 36 -9 -3 -4 -35 -23 -71 -42 -112 -57 -233 -156 -385 -313
-422 -438 -519 -520 -732 -624 -192 -93 -324 -131 -613 -172 -184 -26 -258
-43 -355 -83 -107 -44 -185 -93 -260 -163 l-65 -61 -125 -6 c-187 -7 -321 -56
-466 -170 -126 -99 -214 -225 -289 -414 -41 -103 -85 -171 -136 -209 -19 -14
-74 -46 -124 -70 -49 -25 -110 -61 -136 -81 -86 -65 -153 -175 -178 -291 -13
-60 -15 -142 -3 -142 4 0 20 20 35 44 62 99 136 144 327 201 158 46 228 83
311 165 82 80 127 167 169 322 46 171 98 266 195 364 84 84 169 139 270 174
84 29 87 27 54 -32 -70 -127 -89 -252 -65 -435 20 -152 20 -178 -1 -238 -20
-60 -105 -148 -180 -187 -29 -15 -59 -38 -68 -51 -8 -13 -31 -81 -50 -151 -45
-165 -97 -265 -175 -340 -53 -50 -60 -61 -60 -96 0 -21 -4 -41 -10 -45 -5 -3
-31 -7 -59 -9 -65 -3 -94 -24 -126 -90 -28 -58 -53 -172 -42 -199 18 -48 163
22 286 136 48 45 101 89 118 98 42 23 75 70 118 169 110 250 234 382 535 567
248 151 330 227 399 368 25 50 39 66 85 94 119 72 233 100 531 131 309 32 453
60 617 120 89 33 210 95 265 137 31 24 46 28 102 28 57 0 78 6 151 41 47 22
128 67 180 99 209 127 298 176 333 182 32 5 37 3 37 -13 0 -37 -50 -125 -101
-179 -37 -39 -52 -63 -54 -87 l-3 -33 -54 3 c-48 3 -57 1 -82 -25 -38 -36 -87
-143 -94 -199 -5 -43 -4 -44 25 -44 67 0 202 60 266 119 23 21 61 48 84 59 55
28 75 60 108 167 15 50 49 133 75 185 59 116 65 138 50 187 -16 50 -46 81 -90
94 -32 10 -57 6 -181 -24 -79 -20 -161 -39 -181 -42 l-36 -7 21 44 c19 37 23
67 28 213 7 178 15 218 63 300 32 52 72 90 118 109 54 23 68 21 68 -10 0 -83
58 -167 144 -209 34 -16 82 -56 130 -104 74 -77 76 -80 76 -128 0 -56 23 -87
78 -103 45 -12 43 12 -3 39 -32 19 -35 24 -35 69 0 41 -6 55 -37 93 -76 91
-120 132 -174 159 -130 67 -170 169 -109 282 11 21 16 39 11 42 -9 6 -56 -41
-63 -63 -2 -7 -21 -14 -46 -16 -152 -12 -274 -213 -260 -429 l4 -63 -44 31
c-38 27 -53 31 -120 34 -75 3 -152 -13 -159 -34 -2 -5 36 -7 89 -5 150 5 207
-25 215 -116 6 -59 -30 -134 -68 -145 -135 -37 -142 -40 -195 -92 -36 -35 -54
-60 -54 -76 0 -22 4 -21 48 22 58 58 111 82 227 103 50 9 156 32 237 51 169
41 212 41 241 3 30 -42 24 -86 -28 -188 -25 -51 -60 -134 -76 -185 -37 -113
-48 -130 -102 -157 -23 -12 -65 -43 -94 -69 -46 -42 -104 -71 -190 -95 -21 -6
-21 -4 -11 32 13 48 52 126 71 141 8 7 38 11 69 9 50 -2 54 -4 50 -24 -2 -13
1 -23 6 -23 21 0 34 42 28 87 -6 43 -4 46 45 96 51 53 109 157 109 197 0 41
-18 60 -58 60 -49 0 -105 -27 -307 -150 -212 -129 -299 -170 -358 -170 -61 0
-88 24 -136 124 -41 85 -73 118 -123 131 -37 9 -44 -11 -10 -29 42 -22 77 -67
102 -132 11 -31 30 -68 40 -82 20 -24 20 -24 -3 -41 -123 -95 -339 -178 -557
-215 -52 -9 -192 -27 -310 -41 -118 -14 -240 -30 -270 -36 -79 -15 -198 -55
-247 -84 -24 -13 -43 -22 -43 -19 0 2 20 50 45 106 25 56 45 111 45 122 0 19
-1 19 -21 1 -20 -19 -40 -58 -153 -299 -51 -107 -64 -127 -139 -200 -54 -55
-117 -103 -187 -146 -369 -224 -506 -362 -619 -621 -53 -121 -60 -131 -129
-178 -31 -21 -68 -51 -81 -65 -29 -31 -41 -21 -41 34 0 25 6 39 21 48 17 11
20 20 15 44 -5 27 1 37 58 97 96 99 132 170 186 367 15 55 33 110 39 122 6 12
35 34 63 48 57 29 138 101 168 149 11 17 27 59 35 93 15 57 15 72 1 167 -31
203 -18 316 50 452 93 186 266 323 489 388 47 13 150 34 228 45 242 34 364 62
512 117 164 61 341 168 485 295 82 72 397 395 413 424 15 26 201 186 275 236
74 50 226 128 248 128 7 0 16 5 20 11 4 7 -8 10 -37 9 -68 -3 -89 -1 -89 8 0
13 152 32 255 32 68 0 86 3 77 12 -7 7 -56 13 -119 16 -132 5 -236 -13 -389
-67 -60 -21 -129 -42 -154 -45 l-45 -7 50 29 c28 16 77 46 110 66 113 69 247
95 398 76 94 -11 225 -49 289 -82 36 -19 41 -19 55 -5 14 14 12 17 -23 35
-145 73 -382 119 -499 96z m-2590 -1695 c-27 -5 -97 -33 -155 -61 -91 -45
-117 -64 -195 -142 -111 -111 -147 -177 -205 -371 -50 -169 -87 -242 -160
-315 -71 -71 -168 -122 -310 -160 -124 -34 -187 -64 -251 -119 -39 -33 -41
-33 -35 -10 4 13 23 56 42 95 46 96 125 170 242 225 107 52 178 103 216 157
15 23 53 98 83 169 68 159 121 239 221 335 142 136 310 207 487 206 l70 0 -50
-9z m-628 -1741 c7 -42 7 -67 1 -75 -13 -16 -105 -68 -137 -78 -24 -7 -24 -7
-18 44 12 97 64 170 123 171 17 0 22 -9 31 -62z M4925 3814 c-58 -39 -92 -72
-126 -126 -17 -26 -47 -58 -67 -70 l-37 -23 27 -3 c38 -4 73 22 119 89 33 49
85 99 103 99 9 0 -21 -88 -43 -126 -12 -20 -20 -39 -17 -42 10 -10 56 29 62
53 4 17 24 34 60 54 30 16 54 26 54 23 0 -4 -14 -31 -31 -61 -23 -39 -34 -50
-42 -42 -15 15 -29 14 -25 -1 2 -7 38 -78 80 -158 56 -107 82 -168 97 -231 11
-47 40 -155 65 -239 58 -193 59 -237 6 -290 -30 -30 -40 -25 -40 24 0 43 14
70 22 44 7 -19 28 1 28 27 0 30 -14 39 -40 25 -41 -22 -63 -98 -40 -141 9 -17
7 -19 -16 -19 -22 0 -25 -2 -14 -15 32 -38 118 0 157 70 13 23 23 57 23 80 0
22 -24 126 -54 230 -30 105 -59 217 -66 250 -7 33 -27 85 -45 115 -18 30 -49
88 -70 129 -36 72 -36 74 -18 95 30 34 50 68 67 121 25 72 15 82 -40 40 -25
-19 -55 -40 -66 -46 -19 -10 -20 -9 -14 26 4 20 10 43 13 51 9 23 -28 17 -72
-12z M4910 3371 c0 -16 74 -71 95 -71 12 0 30 -7 41 -15 27 -20 34 -19 34 9 0
35 -26 56 -68 56 -20 1 -48 7 -62 15 -30 17 -40 18 -40 6z M3545 3162 c-58
-20 -97 -46 -174 -116 -61 -55 -144 -97 -208 -104 -24 -2 -46 -8 -49 -13 -8
-14 43 -22 93 -14 73 11 128 42 215 122 45 41 102 85 129 98 44 23 71 45 52
45 -4 -1 -31 -8 -58 -18z M1444 1863 c-8 -21 -26 -85 -39 -143 -41 -187 -90
-292 -196 -425 -126 -159 -295 -269 -481 -316 -132 -32 -111 -52 30 -29 301
49 609 375 673 711 11 57 25 134 33 172 14 74 5 88 -20 30z"/>
</g>
</svg>
