<?xml version="1.0" standalone="no"?>
<!DOCTYPE svg PUBLIC "-//W3C//DTD SVG 20010904//EN"
 "http://www.w3.org/TR/2001/REC-SVG-20010904/DTD/svg10.dtd">
<svg version="1.0" xmlns="http://www.w3.org/2000/svg"
 width="600.000000pt" height="430.000000pt" viewBox="0 0 600.000000 430.000000"
 preserveAspectRatio="xMidYMid meet">
<metadata>
Created by potrace 1.16, written by Peter Selinger 2001-2019
</metadata>
<g transform="translate(0.000000,430.000000) scale(0.100000,-0.100000)"
fill="#f1ead8" stroke="none">
<path d="M4245 3840 c-32 -6 -75 -15 -95 -21 -53 -18 -129 -57 -184 -96 -27
-20 -65 -42 -85 -50 -45 -19 -119 -18 -166 1 -21 9 -43 16 -49 16 -6 0 4 -14
21 -30 42 -38 130 -64 199 -58 30 3 54 4 54 3 0 -2 -40 -26 -89 -54 -49 -28
-116 -61 -148 -72 -32 -11 -92 -23 -133 -26 -56 -4 -92 -1 -135 11 -33 10 -75
26 -94 37 -18 11 -36 17 -39 14 -3 -3 10 -22 29 -41 36 -39 151 -100 206 -110
18 -3 33 -10 33 -14 0 -4 -16 -11 -35 -14 -61 -12 -118 -41 -190 -100 -90 -72
-145 -91 -239 -82 -65 5 -69 4 -51 -9 30 -24 95 -38 140 -31 54 9 110 37 170
87 27 22 71 52 96 65 26 13 96 35 156 50 94 23 163 47 163 58 0 2 -33 1 -74
-2 -49 -3 -99 1 -150 12 -41 10 -77 20 -80 24 -2 4 35 7 83 7 106 1 183 25
302 95 46 28 130 73 187 102 75 37 118 53 158 56 29 2 54 0 54 -5 0 -5 -33
-25 -73 -45 -40 -20 -111 -64 -157 -99 -47 -35 -146 -127 -220 -204 -283 -292
-428 -433 -515 -497 -98 -73 -237 -150 -355 -196 -83 -33 -240 -75 -340 -91
-36 -6 -128 -20 -205 -32 -77 -11 -176 -32 -220 -46 -139 -44 -246 -105 -345
-199 l-55 -51 -120 -6 c-130 -6 -230 -29 -318 -74 -135 -68 -250 -170 -332
-293 -26 -39 -62 -107 -81 -152 -99 -236 -119 -260 -285 -343 -78 -40 -130
-74 -171 -112 -65 -63 -100 -117 -129 -201 -23 -68 -37 -202 -21 -202 6 0 14
9 17 20 4 11 31 47 61 80 34 36 76 69 108 84 30 14 102 39 162 57 162 46 244
89 324 168 81 81 126 167 171 326 17 61 49 148 71 195 33 68 57 101 127 170
71 72 103 95 181 134 52 26 112 49 133 53 l37 6 -25 -44 c-33 -58 -71 -179
-80 -254 -4 -39 0 -108 10 -190 10 -72 15 -153 12 -181 -3 -29 -13 -67 -22
-85 -27 -53 -94 -117 -163 -156 -35 -19 -69 -45 -77 -57 -8 -12 -26 -64 -39
-116 -14 -52 -31 -113 -39 -136 -31 -87 -81 -169 -143 -235 -54 -57 -64 -74
-64 -103 0 -26 -6 -38 -21 -46 -11 -7 -32 -9 -45 -6 -39 10 -91 -21 -120 -70
-28 -48 -61 -190 -51 -218 6 -14 14 -17 38 -12 70 14 162 69 249 149 49 45
108 96 131 112 44 31 54 49 138 225 31 64 76 137 115 186 36 45 103 112 150
150 46 38 153 111 238 163 84 52 181 116 216 143 72 58 136 137 180 223 24 48
40 66 84 92 79 48 164 80 259 97 46 9 186 27 312 41 125 14 273 35 328 46 124
25 285 77 370 119 35 18 91 51 124 74 55 38 65 41 125 41 56 0 78 6 150 41 47
23 156 84 243 137 179 110 241 143 277 148 22 4 25 1 24 -27 -2 -47 -32 -101
-91 -164 -44 -48 -53 -64 -53 -94 l0 -36 -56 6 c-53 7 -57 5 -89 -26 -40 -38
-83 -129 -91 -194 -6 -44 -6 -46 18 -46 34 0 125 28 178 55 25 13 59 37 75 55
17 18 56 45 87 61 32 16 65 40 74 54 8 13 33 76 55 140 21 64 57 149 79 189
31 57 40 83 40 122 0 63 -28 110 -77 131 -36 14 -44 13 -208 -26 -95 -23 -179
-41 -189 -41 -15 0 -14 5 6 43 19 37 23 64 29 212 4 113 12 184 22 211 40 107
90 170 159 198 56 24 68 21 68 -16 0 -18 11 -56 24 -84 25 -54 78 -102 143
-131 22 -10 72 -53 113 -96 72 -76 73 -79 71 -126 -2 -43 2 -51 29 -75 31 -25
80 -36 80 -16 0 5 -13 16 -30 25 -16 8 -33 22 -38 32 -5 9 -7 32 -5 52 5 33
-1 43 -72 123 -53 61 -92 95 -128 113 -63 32 -115 79 -133 122 -19 45 -17 100
6 152 11 24 18 46 16 48 -8 8 -27 -8 -46 -39 -15 -25 -26 -31 -61 -34 -51 -5
-117 -41 -154 -86 -69 -81 -113 -235 -101 -350 l6 -57 -46 32 c-40 28 -55 32
-122 35 -48 2 -92 -2 -116 -11 -64 -22 -54 -34 21 -25 88 9 166 -6 204 -40 39
-35 48 -94 25 -156 -9 -24 -24 -50 -34 -58 -9 -9 -37 -18 -60 -22 -80 -12
-167 -68 -198 -128 -26 -50 -14 -52 34 -6 26 25 65 55 87 66 23 11 83 28 135
37 52 10 166 34 253 55 106 26 166 36 185 31 29 -8 72 -62 72 -91 0 -9 -22
-61 -48 -116 -27 -54 -63 -143 -81 -196 -18 -53 -41 -109 -53 -123 -11 -14
-35 -32 -53 -39 -18 -8 -57 -36 -88 -64 -32 -29 -77 -58 -108 -69 -59 -22
-109 -35 -109 -30 0 2 9 30 20 62 11 32 32 73 46 92 24 32 28 33 85 31 57 -2
60 -3 54 -25 -3 -13 -1 -23 4 -23 20 0 33 42 26 85 -6 42 -4 45 54 110 38 42
67 86 80 121 12 30 21 63 21 73 0 10 -8 25 -18 34 -43 39 -107 14 -362 -143
-74 -46 -171 -100 -214 -122 -61 -29 -92 -38 -131 -38 -43 0 -55 4 -77 27 -14
16 -39 57 -56 93 -16 36 -41 77 -56 91 -35 35 -84 55 -98 41 -7 -7 -2 -15 18
-25 44 -23 70 -55 104 -132 17 -38 39 -78 47 -88 15 -16 15 -19 -3 -32 -48
-38 -158 -98 -238 -130 -98 -40 -243 -77 -386 -99 -52 -8 -183 -25 -290 -37
-107 -11 -237 -32 -288 -45 -51 -13 -125 -38 -163 -57 -63 -30 -69 -31 -63
-13 3 12 24 59 45 105 21 46 39 90 39 97 0 26 -20 14 -47 -28 -15 -24 -53
-102 -84 -174 -31 -72 -73 -156 -92 -186 -19 -30 -61 -81 -93 -112 -33 -32
-106 -87 -164 -123 -269 -168 -369 -243 -462 -350 -71 -80 -105 -134 -173
-276 -34 -73 -73 -141 -86 -153 -13 -11 -40 -30 -59 -42 -19 -11 -48 -34 -64
-51 -22 -23 -32 -28 -38 -19 -15 25 -8 78 13 99 13 13 18 27 14 39 -3 11 -1
28 4 39 6 10 37 45 69 78 70 69 119 164 157 303 14 52 34 115 43 140 15 37 27
50 80 80 35 20 82 56 106 79 81 80 111 175 92 297 -5 38 -10 130 -10 204 0
121 2 142 26 202 14 37 41 93 59 125 70 117 220 244 359 303 93 39 173 58 363
85 100 15 232 40 292 55 137 34 295 96 401 156 178 100 280 192 684 610 80 82
179 175 220 206 90 68 196 129 268 154 28 10 52 23 52 28 0 5 -15 6 -33 3 -37
-6 -87 2 -87 13 0 12 143 30 242 30 72 0 89 3 80 12 -18 18 -193 23 -276 8
-39 -7 -140 -34 -223 -61 -84 -27 -163 -49 -175 -49 -18 0 -13 6 24 28 25 15
70 42 100 60 72 44 146 70 234 84 56 9 99 9 172 0 97 -11 226 -48 291 -83 25
-13 39 -15 53 -8 10 5 18 12 18 15 0 3 -30 19 -67 36 -144 65 -354 98 -488 78z
m-2574 -1695 c-76 -17 -168 -59 -249 -114 -88 -59 -185 -171 -231 -266 -22
-44 -54 -132 -72 -195 -17 -63 -47 -146 -67 -185 -48 -91 -137 -180 -223 -222
-36 -18 -117 -46 -179 -63 -123 -34 -187 -64 -251 -118 l-40 -34 7 28 c15 63
59 139 117 200 50 54 78 74 174 121 176 86 202 117 312 373 78 181 225 340
386 416 99 47 205 73 300 73 l80 -1 -64 -13z m-623 -1737 c10 -54 9 -64 -5
-80 -17 -19 -129 -78 -148 -78 -9 0 -10 13 -4 48 16 101 64 172 117 172 27 0
29 -3 40 -62z M4925 3814 c-61 -41 -85 -64 -122 -122 -19 -30 -51 -63 -71 -75
-33 -19 -34 -22 -15 -25 36 -5 80 25 118 83 35 53 87 105 105 105 13 0 -16
-96 -40 -130 -12 -17 -20 -34 -16 -37 10 -11 56 27 62 52 4 17 24 34 60 54 30
16 54 26 54 23 0 -4 -14 -31 -31 -60 -25 -45 -33 -51 -45 -41 -8 6 -17 9 -20
6 -4 -3 30 -74 74 -157 65 -121 86 -170 106 -253 13 -56 43 -165 65 -241 23
-76 41 -157 41 -179 0 -22 -9 -54 -20 -72 -20 -32 -47 -51 -58 -40 -8 8 -5 71
3 85 6 9 9 9 15 0 4 -7 13 -9 19 -6 16 10 14 53 -3 59 -23 9 -55 -21 -67 -62
-8 -29 -9 -48 -1 -70 10 -28 9 -31 -9 -31 -31 0 -17 -24 15 -28 41 -5 99 38
126 93 17 36 21 57 17 93 -3 26 -31 134 -61 240 -31 106 -56 203 -56 216 0 13
-34 89 -75 169 l-76 146 30 42 c28 37 71 135 71 159 0 18 -18 10 -76 -30 -32
-22 -61 -40 -65 -40 -5 0 -2 20 5 44 20 65 5 72 -59 30z M4920 3361 c13 -25
71 -61 98 -61 11 0 27 -7 36 -15 8 -8 17 -15 20 -15 3 0 6 11 6 23 0 33 -30
57 -71 57 -19 0 -47 7 -63 15 -15 8 -30 15 -32 15 -3 0 0 -9 6 -19z M3541
3160 c-56 -20 -87 -41 -177 -120 -30 -26 -74 -57 -97 -68 -23 -11 -69 -25
-102 -32 -54 -11 -58 -14 -35 -22 34 -13 104 -1 166 27 28 12 88 57 134 98 45
42 102 86 126 97 24 12 44 26 44 31 0 5 -1 9 -2 9 -2 -1 -27 -9 -57 -20z
M1442 1853 c-11 -27 -28 -86 -37 -133 -25 -121 -65 -227 -121 -321 -58 -95
-160 -209 -247 -275 -82 -62 -202 -118 -309 -145 -48 -12 -85 -26 -82 -31 9
-13 116 0 194 24 91 28 146 58 231 126 134 106 229 226 300 377 27 57 45 117
59 196 12 63 27 140 34 172 7 31 9 57 6 57 -4 0 -17 -21 -28 -47z"/>
</g>
</svg>
