<?xml version="1.0" standalone="no"?>
<!DOCTYPE svg PUBLIC "-//W3C//DTD SVG 20010904//EN"
 "http://www.w3.org/TR/2001/REC-SVG-20010904/DTD/svg10.dtd">
<svg version="1.0" xmlns="http://www.w3.org/2000/svg"
 width="600.000000pt" height="430.000000pt" viewBox="0 0 600.000000 430.000000"
 preserveAspectRatio="xMidYMid meet">
<metadata>
Created by potrace 1.16, written by Peter Selinger 2001-2019
</metadata>
<g transform="translate(0.000000,430.000000) scale(0.100000,-0.100000)"
fill="#f1ead8" stroke="none">
<path d="M4260 3843 c-56 -8 -117 -24 -155 -40 -22 -9 -82 -44 -134 -77 -82
-52 -102 -60 -152 -64 -39 -3 -72 1 -99 12 -22 9 -46 16 -52 16 -19 0 25 -41
67 -62 24 -13 70 -23 115 -27 l75 -6 -80 -46 c-44 -25 -107 -56 -140 -69 -47
-18 -81 -23 -160 -24 -93 -1 -105 1 -169 32 -38 18 -71 30 -74 27 -3 -3 10
-22 29 -41 36 -39 151 -100 206 -110 18 -3 33 -10 33 -14 0 -4 -17 -10 -37
-13 -53 -9 -128 -49 -193 -102 -85 -70 -112 -80 -212 -79 -67 0 -85 -2 -78
-11 17 -21 97 -38 145 -32 56 8 105 33 170 87 27 23 70 52 95 65 25 12 93 34
153 49 59 14 124 34 145 45 l37 19 -81 -5 c-61 -4 -100 -1 -155 13 l-74 19 80
6 c44 4 100 12 125 19 53 14 145 60 258 128 110 67 220 112 273 112 27 0 39
-4 34 -9 -6 -6 -37 -24 -70 -42 -119 -62 -220 -145 -375 -304 -85 -88 -213
-218 -285 -290 -182 -183 -313 -279 -497 -364 -164 -76 -289 -107 -661 -166
-116 -18 -181 -34 -248 -60 -49 -20 -118 -53 -152 -73 -34 -20 -92 -65 -128
-99 l-66 -63 -100 0 c-121 0 -224 -24 -338 -79 -44 -21 -112 -63 -151 -94 -82
-65 -167 -165 -217 -257 -20 -36 -52 -106 -72 -157 -41 -103 -85 -171 -136
-209 -19 -14 -74 -46 -124 -70 -49 -25 -110 -61 -136 -81 -86 -65 -153 -175
-178 -291 -13 -60 -15 -142 -3 -142 4 0 20 20 35 44 36 57 93 109 154 139 26
14 104 41 173 62 69 20 152 51 185 68 33 18 90 61 126 97 82 80 127 167 169
322 17 61 50 150 73 197 32 68 58 103 122 167 47 47 107 96 146 117 63 36 168
77 195 77 8 0 2 -19 -17 -52 -70 -127 -90 -266 -65 -442 9 -60 16 -126 16
-146 0 -57 -28 -125 -72 -175 -22 -25 -71 -63 -109 -86 -38 -22 -76 -50 -84
-63 -8 -12 -31 -80 -50 -150 -45 -165 -97 -265 -175 -340 -53 -50 -60 -61 -60
-96 0 -21 -4 -41 -10 -45 -5 -3 -31 -7 -59 -9 -27 -1 -61 -10 -76 -20 -15 -10
-38 -42 -52 -72 -28 -61 -50 -171 -40 -197 3 -9 16 -17 28 -17 12 0 55 16 96
36 52 25 100 60 162 117 48 45 101 89 118 98 16 9 42 32 56 50 14 19 42 72 62
119 78 178 159 288 301 405 43 37 149 109 234 162 85 52 183 117 218 144 74
59 140 140 181 224 25 50 39 66 85 94 69 41 159 75 257 95 41 8 164 25 274 36
309 32 453 60 617 120 89 33 210 95 265 137 31 24 46 28 102 28 57 0 78 6 151
41 47 22 128 67 180 99 209 127 298 176 333 182 32 5 37 3 37 -13 0 -37 -50
-125 -101 -179 -37 -39 -52 -63 -54 -87 l-3 -33 -54 3 c-48 3 -57 1 -82 -25
-38 -36 -87 -143 -94 -199 -5 -43 -4 -44 25 -44 35 0 120 28 182 59 24 13 62
40 84 60 23 21 61 48 84 59 23 12 50 34 61 49 11 16 31 67 46 114 14 47 48
131 75 185 27 55 52 111 56 126 8 33 -11 95 -38 126 -12 12 -37 27 -57 33 -32
10 -57 6 -181 -24 -79 -20 -161 -39 -181 -42 l-36 -7 21 44 c19 37 23 67 28
213 7 178 15 218 63 300 32 52 72 90 118 109 54 23 68 21 68 -10 0 -47 22
-103 56 -142 18 -21 59 -52 91 -70 34 -18 88 -62 131 -105 70 -72 72 -77 72
-124 0 -39 5 -54 23 -71 13 -13 38 -27 55 -32 25 -6 32 -5 32 5 0 7 -16 22
-35 34 -32 19 -35 24 -35 69 0 41 -6 55 -37 93 -76 91 -120 132 -174 159 -30
16 -72 46 -92 69 -55 61 -61 132 -17 213 11 21 16 39 11 42 -9 6 -56 -41 -63
-63 -2 -7 -21 -14 -46 -16 -23 -2 -62 -15 -87 -29 -83 -49 -144 -149 -165
-270 -7 -37 -10 -96 -8 -130 l4 -64 -31 23 c-45 35 -83 46 -150 46 -60 0 -136
-20 -142 -37 -2 -5 36 -7 89 -5 50 2 108 -2 128 -8 53 -16 82 -51 87 -108 4
-37 -1 -58 -19 -93 -15 -28 -34 -48 -49 -52 -135 -37 -142 -40 -195 -92 -36
-35 -54 -60 -54 -76 0 -22 4 -21 48 22 26 26 67 56 92 67 25 11 86 27 135 36
50 9 156 32 237 51 80 20 163 34 184 32 26 -2 43 -11 57 -29 10 -15 19 -42 19
-61 0 -21 -18 -70 -47 -127 -25 -51 -60 -134 -76 -185 -17 -50 -37 -101 -45
-113 -8 -13 -33 -32 -57 -44 -23 -12 -63 -41 -89 -66 -47 -43 -101 -72 -172
-92 -33 -9 -36 -8 -36 12 0 27 51 138 72 154 9 8 37 12 70 10 50 -2 54 -4 50
-24 -6 -32 15 -29 31 5 10 18 11 36 6 57 -5 17 -7 37 -4 45 3 8 25 35 50 59
46 45 105 151 105 191 0 12 -5 30 -10 41 -15 27 -72 25 -135 -5 -27 -12 -126
-69 -220 -126 -93 -57 -202 -118 -242 -137 -85 -39 -147 -44 -186 -13 -14 11
-44 58 -66 104 -41 85 -73 118 -123 131 -37 9 -44 -11 -10 -29 42 -22 77 -67
102 -132 11 -31 30 -68 40 -82 20 -24 20 -24 -3 -41 -45 -34 -123 -80 -172
-101 -158 -69 -325 -109 -576 -140 -342 -41 -415 -52 -504 -81 -49 -16 -109
-40 -132 -53 -24 -14 -43 -23 -43 -20 0 2 20 50 45 106 25 56 45 111 45 122 0
19 -1 19 -21 1 -20 -19 -40 -58 -153 -299 -51 -107 -64 -127 -139 -200 -54
-55 -117 -103 -187 -146 -194 -118 -309 -201 -394 -285 -46 -46 -105 -118
-132 -160 -27 -43 -72 -127 -99 -188 -43 -95 -57 -116 -95 -144 -25 -18 -66
-51 -91 -73 -38 -32 -48 -37 -53 -24 -3 9 -6 30 -6 47 0 22 7 36 20 45 15 9
20 22 18 47 -2 31 5 43 59 98 62 63 109 137 139 217 9 25 28 90 44 146 15 55
33 110 39 122 6 12 35 34 63 48 62 31 142 104 173 159 13 22 28 65 34 96 10
45 9 77 -5 165 -20 135 -14 274 15 358 60 169 191 317 361 406 42 21 115 50
163 64 48 14 152 35 230 46 294 42 454 84 625 165 122 58 266 153 372 247 82
72 397 395 413 424 15 26 201 186 275 236 66 45 196 113 254 133 17 7 6 10
-44 12 -38 2 -68 8 -68 12 0 12 154 31 255 31 68 0 86 3 77 12 -7 7 -56 13
-119 16 -132 5 -240 -13 -391 -67 -59 -21 -127 -42 -152 -45 l-45 -7 50 29
c28 16 77 46 110 66 113 69 247 95 398 76 94 -11 225 -49 289 -82 36 -19 41
-19 55 -5 14 14 12 17 -23 35 -70 35 -184 72 -271 87 -80 14 -175 17 -233 8z
m-2585 -1695 c-27 -5 -97 -32 -155 -60 -91 -44 -115 -62 -195 -142 -63 -64
-102 -112 -127 -161 -20 -38 -55 -133 -78 -210 -23 -77 -58 -169 -78 -205 -19
-36 -59 -88 -87 -115 -28 -28 -83 -67 -121 -87 -39 -21 -121 -51 -184 -68
-124 -34 -187 -64 -251 -119 -39 -33 -41 -33 -35 -10 4 13 23 56 42 95 48 100
123 168 262 236 117 57 184 114 222 189 13 24 42 90 66 147 24 57 64 134 88
171 87 131 245 259 376 307 76 27 162 42 235 42 l70 0 -50 -10z m-628 -1740
c7 -42 7 -67 1 -75 -13 -16 -105 -68 -137 -78 -24 -7 -24 -7 -18 44 3 28 17
72 30 98 24 48 55 73 93 73 17 0 22 -9 31 -62z M4925 3814 c-58 -39 -92 -72
-126 -126 -17 -26 -47 -58 -67 -70 l-37 -23 27 -3 c15 -2 39 5 53 14 15 10 44
43 66 75 21 31 52 67 68 78 16 12 32 21 35 21 9 0 -21 -88 -43 -126 -12 -20
-20 -39 -17 -41 11 -11 49 21 62 52 7 19 24 37 36 41 13 3 35 15 51 26 15 11
27 16 27 11 0 -4 -14 -32 -31 -62 -23 -39 -34 -50 -42 -42 -15 15 -29 14 -25
-1 2 -7 38 -78 80 -158 56 -107 82 -168 97 -231 11 -47 40 -155 65 -239 25
-85 46 -168 46 -186 0 -18 -4 -44 -10 -58 -10 -28 -45 -66 -60 -66 -13 0 -13
87 -1 94 5 4 11 1 13 -6 2 -6 10 -8 16 -4 14 9 16 52 2 61 -15 10 -49 -13 -65
-45 -17 -34 -19 -73 -5 -101 9 -17 7 -19 -16 -19 -22 0 -25 -2 -14 -15 18 -22
62 -18 101 8 44 30 79 92 79 142 0 22 -24 126 -54 230 -30 105 -59 217 -66
250 -7 33 -27 85 -45 115 -18 30 -49 88 -70 129 -36 72 -36 74 -18 95 11 11
26 32 35 47 23 37 50 120 44 136 -4 10 -18 4 -52 -22 -25 -19 -55 -40 -66 -46
-19 -10 -20 -9 -14 26 4 20 10 43 13 51 9 23 -28 17 -72 -12z M4910 3371 c0
-16 74 -71 95 -71 11 0 31 -7 43 -16 30 -21 44 -10 31 24 -6 14 -16 30 -22 34
-7 4 -28 8 -47 8 -19 0 -46 7 -60 15 -30 17 -40 18 -40 6z M3545 3162 c-58
-20 -97 -46 -174 -116 -61 -55 -144 -97 -208 -104 -24 -2 -46 -8 -49 -13 -8
-14 44 -22 94 -15 25 3 66 16 89 27 24 12 80 55 125 96 44 41 102 85 129 98
44 23 71 45 52 45 -4 -1 -31 -8 -58 -18z M1444 1863 c-8 -21 -26 -85 -39 -143
-13 -58 -35 -135 -49 -173 -77 -204 -257 -407 -444 -500 -46 -22 -129 -53
-185 -68 -73 -19 -97 -29 -84 -34 29 -12 168 12 241 41 88 35 167 87 249 164
121 113 205 233 261 373 14 36 37 131 51 213 14 81 28 151 31 155 3 5 0 9 -5
9 -6 0 -18 -17 -27 -37z"/>
</g>
</svg>
