<?xml version="1.0" standalone="no"?>
<!DOCTYPE svg PUBLIC "-//W3C//DTD SVG 20010904//EN"
 "http://www.w3.org/TR/2001/REC-SVG-20010904/DTD/svg10.dtd">
<svg version="1.0" xmlns="http://www.w3.org/2000/svg"
 width="600.000000pt" height="430.000000pt" viewBox="0 0 600.000000 430.000000"
 preserveAspectRatio="xMidYMid meet">
<metadata>
Created by potrace 1.16, written by Peter Selinger 2001-2019
</metadata>
<g transform="translate(0.000000,430.000000) scale(0.100000,-0.100000)"
fill="#f1ead8" stroke="none">
<path d="M4265 3844 c-156 -31 -187 -43 -303 -121 -70 -47 -93 -57 -137 -61
-34 -3 -71 2 -101 12 -26 9 -52 16 -58 16 -18 0 39 -53 74 -68 19 -8 69 -17
110 -21 l75 -6 -87 -48 c-136 -75 -188 -91 -298 -91 -87 -1 -101 2 -164 32
-37 17 -70 32 -72 32 -2 0 -4 -4 -4 -9 0 -5 14 -24 31 -41 35 -34 121 -81 187
-100 41 -13 57 -30 27 -30 -36 0 -132 -46 -188 -92 -34 -27 -80 -60 -102 -71
-33 -18 -55 -22 -127 -21 -49 1 -88 -2 -88 -7 0 -4 20 -15 45 -25 32 -12 61
-15 99 -11 62 6 115 31 176 82 23 20 62 47 85 61 23 13 95 38 159 54 64 17
132 37 151 45 48 19 46 36 -2 23 -46 -13 -161 -5 -223 15 l-45 15 65 1 c119 2
209 35 400 150 47 28 120 65 162 81 73 28 138 39 138 23 0 -5 -35 -27 -78 -51
-42 -23 -108 -66 -147 -94 -38 -29 -140 -124 -225 -212 -285 -295 -404 -411
-494 -478 -168 -126 -356 -214 -559 -263 -56 -14 -178 -36 -271 -50 -209 -31
-277 -47 -375 -86 -102 -41 -204 -106 -271 -173 l-55 -56 -100 0 c-122 0 -237
-26 -339 -75 -39 -20 -103 -59 -141 -88 -134 -102 -231 -242 -315 -455 -46
-117 -105 -180 -219 -234 -47 -22 -114 -60 -147 -84 -95 -67 -161 -167 -189
-286 -16 -67 -20 -158 -7 -158 4 0 20 20 35 44 39 62 100 114 171 146 34 15
106 40 160 55 55 15 130 42 166 60 81 41 165 116 215 191 39 59 84 173 105
264 6 30 34 100 60 155 58 120 129 203 235 274 71 47 157 86 218 98 l29 6 -26
-41 c-41 -65 -76 -184 -83 -275 -3 -52 1 -120 11 -186 9 -58 16 -119 16 -136
0 -17 -7 -54 -15 -82 -20 -67 -86 -140 -164 -182 -33 -17 -69 -43 -81 -58 -11
-14 -27 -51 -35 -82 -35 -130 -69 -230 -98 -286 -17 -33 -58 -86 -89 -117 -60
-59 -78 -91 -78 -134 0 -22 -4 -24 -47 -24 -30 0 -60 -7 -80 -20 -18 -10 -42
-39 -54 -62 -29 -56 -49 -132 -49 -185 0 -40 2 -43 27 -43 14 0 63 18 108 40
62 29 98 56 146 105 35 37 76 73 91 81 68 36 100 78 164 212 35 73 83 161 107
195 25 34 81 97 126 140 77 73 171 140 394 277 49 30 116 80 150 110 54 49
119 137 169 228 9 17 36 43 60 58 62 40 171 80 264 98 44 8 168 24 275 36 107
11 237 28 289 36 107 17 248 54 328 84 80 31 191 88 247 128 44 32 57 35 120
37 51 1 85 8 125 27 31 14 146 79 256 146 205 123 261 152 296 152 17 0 19 -5
13 -32 -11 -49 -55 -126 -90 -155 -42 -35 -65 -73 -65 -106 0 -24 -3 -27 -20
-22 -36 11 -78 8 -103 -8 -34 -22 -97 -147 -104 -208 l-6 -52 53 6 c69 8 187
64 242 115 24 22 61 49 83 60 22 11 48 29 59 40 10 12 35 73 56 137 21 63 56
148 78 188 22 39 43 86 46 104 4 17 2 49 -4 71 -11 44 -55 88 -98 99 -16 4
-82 -7 -177 -30 -82 -20 -166 -39 -185 -43 -30 -6 -33 -5 -22 8 6 8 19 35 28
59 11 31 16 88 18 194 3 168 16 222 69 301 36 54 96 99 145 109 32 7 32 6 32
-31 0 -21 9 -57 21 -80 24 -51 71 -95 137 -128 26 -13 80 -58 120 -99 70 -73
72 -76 72 -125 0 -44 4 -54 31 -76 17 -14 34 -26 39 -26 5 0 15 -3 24 -6 10
-4 16 -1 16 9 0 8 -16 24 -35 36 -33 19 -35 24 -35 70 0 42 -5 57 -32 88 -75
90 -127 136 -179 163 -31 16 -69 44 -86 63 -58 66 -65 135 -22 218 10 21 15
40 10 44 -5 3 -25 -13 -44 -35 -22 -26 -42 -40 -58 -40 -41 0 -122 -45 -161
-88 -20 -23 -46 -59 -58 -81 -32 -64 -52 -166 -48 -253 3 -76 3 -77 -17 -59
-11 10 -36 27 -55 36 -46 24 -160 24 -217 0 -24 -9 -41 -20 -38 -25 2 -4 48
-5 102 -3 76 4 107 1 136 -11 21 -9 46 -31 57 -49 11 -17 20 -48 20 -68 0 -48
-39 -121 -70 -130 -14 -4 -47 -13 -73 -19 -26 -7 -68 -26 -92 -42 -46 -30 -85
-82 -85 -113 0 -13 13 -5 50 29 28 26 70 56 93 66 23 10 85 26 137 35 52 9
157 32 233 51 76 19 154 34 173 34 24 0 43 -8 59 -25 39 -38 34 -87 -20 -192
-24 -48 -58 -131 -76 -183 -17 -52 -37 -105 -45 -117 -8 -13 -36 -34 -62 -47
-26 -13 -60 -38 -77 -56 -35 -37 -125 -85 -178 -95 -30 -6 -37 -4 -37 9 0 24
54 139 73 154 10 9 34 12 64 10 44 -3 48 -5 53 -33 l6 -30 22 35 c12 19 20 41
17 48 -20 53 -17 61 35 113 55 55 110 155 110 200 0 14 -6 34 -14 44 -19 27
-71 23 -137 -10 -30 -15 -137 -77 -238 -138 -100 -60 -208 -121 -240 -133 -66
-28 -127 -30 -160 -8 -12 9 -41 54 -63 101 -30 64 -51 92 -81 114 -41 29 -71
37 -82 19 -3 -5 7 -16 22 -24 44 -22 71 -57 99 -127 14 -35 34 -75 44 -89 l18
-26 -56 -36 c-131 -83 -281 -142 -459 -178 -54 -12 -210 -34 -348 -50 -137
-17 -274 -35 -303 -41 -75 -15 -186 -54 -238 -83 -24 -14 -44 -23 -44 -20 0 2
14 35 31 72 52 113 69 161 59 167 -14 8 -55 -52 -96 -140 -114 -249 -135 -285
-196 -351 -41 -44 -105 -94 -183 -145 -66 -43 -160 -104 -209 -135 -121 -79
-228 -174 -297 -264 -56 -72 -86 -126 -164 -293 -28 -61 -45 -84 -77 -105 -22
-15 -62 -46 -88 -70 -46 -41 -48 -42 -54 -20 -11 43 -6 73 14 86 14 8 20 23
20 49 0 31 9 46 65 104 48 49 76 91 105 151 21 46 53 135 70 197 17 62 35 122
41 132 5 11 33 31 61 45 28 14 75 49 105 76 58 56 99 129 108 198 4 25 0 87
-9 142 -29 180 -16 307 44 432 43 90 127 193 205 254 85 65 204 124 305 151
41 11 155 32 252 46 97 14 228 38 290 54 249 64 444 165 643 331 45 37 171
161 280 275 245 255 296 304 393 378 71 53 195 123 282 157 l35 14 -67 4 c-38
1 -68 7 -68 11 0 12 161 31 260 31 67 0 81 3 72 12 -8 8 -53 14 -126 16 -132
5 -221 -11 -388 -67 -62 -21 -129 -42 -148 -46 -30 -6 -24 0 42 43 42 28 90
58 105 65 49 25 122 47 194 57 129 18 316 -14 447 -78 49 -24 54 -24 69 -9 9
9 15 18 12 20 -2 2 -42 20 -89 40 -47 20 -131 45 -187 56 -91 19 -205 25 -258
15z m-2608 -1700 c-32 -8 -100 -35 -150 -61 -73 -38 -111 -66 -183 -138 -79
-78 -98 -103 -137 -185 -25 -52 -57 -139 -72 -194 -14 -54 -37 -121 -49 -150
-32 -70 -105 -165 -158 -202 -68 -49 -116 -70 -248 -109 -67 -20 -145 -47
-172 -61 -27 -14 -66 -41 -88 -60 l-39 -35 11 38 c19 70 71 153 130 208 40 37
91 70 156 101 53 25 117 62 141 82 24 19 58 58 75 86 18 28 51 96 75 152 23
56 59 130 79 165 48 82 149 189 235 250 111 77 264 127 392 127 l60 0 -58 -14z
m-617 -1702 c0 -15 5 -43 10 -62 9 -32 8 -37 -17 -58 -27 -21 -124 -72 -139
-72 -12 0 5 89 28 142 15 36 30 54 52 64 50 21 66 18 66 -14z M4930 3819 c-51
-31 -87 -67 -131 -131 -21 -31 -52 -62 -69 -69 -16 -8 -30 -17 -30 -21 0 -14
55 -8 77 7 12 9 40 42 63 74 22 31 55 68 72 81 l31 23 -7 -39 c-4 -22 -18 -59
-32 -83 -13 -24 -22 -46 -19 -49 9 -9 52 27 64 55 8 18 29 36 59 50 25 12 47
21 49 19 1 -1 -13 -27 -32 -57 -19 -30 -35 -48 -35 -41 0 14 -30 17 -30 3 0
-5 36 -76 79 -158 59 -110 84 -170 100 -235 11 -47 41 -157 66 -244 25 -87 45
-171 45 -187 0 -16 -5 -38 -11 -50 -15 -28 -50 -67 -61 -67 -9 0 -11 61 -2 85
5 13 8 14 15 3 6 -9 11 -10 19 -2 14 14 9 56 -6 61 -7 2 -25 -7 -40 -21 -26
-22 -29 -30 -29 -85 1 -53 -2 -61 -18 -61 -16 0 -17 -3 -7 -15 19 -23 69 -18
107 11 42 32 73 92 73 142 0 22 -22 118 -50 215 -27 96 -57 208 -65 248 -9 40
-26 91 -39 114 -13 22 -45 79 -70 127 l-47 88 31 38 c17 21 39 62 50 90 20 52
26 92 14 92 -3 0 -23 -13 -43 -28 -20 -15 -49 -36 -65 -46 l-29 -18 7 26 c3
14 9 37 12 51 5 20 2 25 -12 25 -11 0 -35 -10 -54 -21z M4910 3371 c0 -14 72
-71 90 -71 8 0 28 -7 44 -15 15 -8 33 -15 38 -15 15 0 0 53 -19 68 -9 6 -33
12 -52 12 -20 1 -47 7 -61 15 -30 17 -40 18 -40 6z M3555 3166 c-64 -20 -95
-40 -170 -106 -38 -34 -87 -71 -109 -82 -21 -11 -64 -25 -96 -31 -31 -7 -56
-16 -56 -22 1 -17 108 -11 158 8 30 12 80 48 135 99 49 44 109 91 135 104 26
13 49 28 53 34 8 12 0 12 -50 -4z M1461 1897 c-17 -21 -40 -93 -63 -197 -11
-52 -33 -128 -50 -169 -33 -84 -99 -190 -167 -270 -74 -87 -179 -169 -276
-216 -49 -24 -131 -54 -182 -66 -51 -12 -90 -26 -87 -30 9 -15 87 -10 166 10
140 36 255 109 381 240 43 46 101 117 128 159 27 42 63 112 79 154 17 43 41
139 55 215 13 76 27 148 31 161 7 25 2 28 -15 9z"/>
</g>
</svg>
