<?xml version="1.0" standalone="no"?>
<!DOCTYPE svg PUBLIC "-//W3C//DTD SVG 20010904//EN"
 "http://www.w3.org/TR/2001/REC-SVG-20010904/DTD/svg10.dtd">
<svg version="1.0" xmlns="http://www.w3.org/2000/svg"
 width="600.000000pt" height="430.000000pt" viewBox="0 0 600.000000 430.000000"
 preserveAspectRatio="xMidYMid meet">
<metadata>
Created by potrace 1.16, written by Peter Selinger 2001-2019
</metadata>
<g transform="translate(0.000000,430.000000) scale(0.100000,-0.100000)"
fill="#f1ead8" stroke="none">
<path d="M4236 3839 c-27 -4 -72 -15 -100 -24 -28 -9 -67 -26 -86 -37 -19 -12
-65 -41 -102 -66 -54 -36 -78 -46 -122 -50 -35 -3 -72 1 -102 12 -26 9 -52 16
-57 16 -6 0 -2 -9 9 -21 10 -12 37 -30 59 -41 24 -13 70 -23 115 -27 l75 -6
-45 -26 c-95 -56 -172 -90 -237 -105 -43 -10 -93 -14 -135 -11 -46 3 -86 14
-134 36 -37 17 -69 29 -72 26 -3 -3 10 -22 29 -41 19 -20 65 -52 104 -70 38
-19 84 -37 102 -40 18 -3 33 -10 33 -14 0 -4 -17 -10 -37 -13 -21 -4 -60 -18
-88 -31 -27 -14 -72 -44 -100 -67 -27 -22 -68 -51 -90 -62 -33 -18 -56 -22
-128 -21 -72 1 -85 -1 -76 -12 6 -8 30 -19 53 -25 22 -6 62 -9 88 -6 26 3 62
14 80 23 18 9 60 38 93 64 33 26 78 56 100 67 22 11 90 32 150 47 61 15 126
36 145 46 l35 18 -81 -5 c-62 -4 -100 -1 -155 13 l-74 19 85 6 c47 3 103 12
125 19 22 7 69 28 105 46 36 18 102 55 148 82 45 28 116 64 156 81 44 18 92
31 117 31 27 0 39 -4 34 -9 -6 -6 -37 -24 -70 -42 -33 -17 -82 -47 -109 -65
-27 -18 -87 -66 -133 -106 -47 -40 -161 -155 -254 -255 -93 -100 -212 -221
-265 -268 -53 -47 -140 -115 -194 -150 -53 -36 -139 -84 -191 -108 -52 -25
-130 -56 -174 -70 -44 -14 -111 -32 -150 -41 -38 -9 -158 -30 -265 -46 -107
-17 -220 -37 -250 -46 -30 -9 -86 -29 -124 -45 -38 -16 -98 -49 -135 -73 -36
-25 -88 -67 -116 -95 l-49 -51 -99 0 c-54 0 -130 -7 -170 -16 -40 -9 -110 -34
-156 -55 -47 -22 -118 -64 -158 -94 -40 -31 -100 -88 -133 -128 -33 -39 -78
-107 -100 -149 -22 -42 -52 -108 -66 -145 -14 -37 -36 -86 -49 -109 -13 -22
-45 -60 -70 -83 -26 -24 -84 -60 -128 -81 -45 -21 -109 -58 -142 -83 -33 -25
-74 -65 -91 -89 -17 -23 -41 -62 -53 -85 -11 -23 -28 -71 -36 -105 -16 -67
-20 -158 -7 -158 4 0 20 20 35 44 15 25 45 60 67 80 22 19 61 46 87 60 26 13
98 38 158 55 61 17 143 48 184 67 50 25 95 58 141 103 46 45 79 89 104 138 20
40 49 118 65 175 16 57 40 131 54 164 13 34 43 88 65 120 21 33 62 80 90 106
28 26 78 66 112 87 61 39 147 77 202 88 l28 5 -30 -53 c-17 -30 -39 -81 -49
-114 -10 -33 -22 -91 -26 -128 -5 -46 -2 -113 10 -207 15 -118 16 -149 6 -195
-7 -32 -26 -73 -45 -98 -17 -23 -50 -55 -71 -70 -22 -16 -62 -43 -90 -60 -38
-25 -53 -42 -66 -77 -10 -25 -27 -83 -39 -130 -12 -47 -42 -125 -65 -175 -34
-70 -57 -103 -104 -148 -44 -41 -61 -65 -62 -85 -1 -15 -2 -34 -3 -42 -1 -11
-17 -16 -56 -20 -31 -3 -68 -13 -84 -23 -15 -10 -39 -43 -53 -73 -14 -31 -30
-83 -36 -118 -6 -34 -8 -70 -4 -79 3 -9 16 -17 27 -17 12 0 55 16 97 35 55 25
95 54 151 108 43 41 96 86 119 100 23 15 53 42 67 60 15 19 43 72 63 118 19
46 54 115 77 154 25 42 81 110 141 171 72 73 133 123 215 176 63 41 149 95
190 121 41 25 101 67 132 92 32 25 78 70 102 101 24 31 57 82 72 113 16 31 38
64 49 74 11 9 52 33 90 52 39 19 106 44 150 55 44 12 196 34 338 50 141 16
303 39 360 50 56 12 148 36 204 55 56 19 130 48 165 66 35 17 93 51 130 75 58
39 71 44 105 39 24 -4 59 0 98 13 55 17 187 89 367 200 37 23 97 58 133 77 37
19 78 35 91 35 17 0 24 -6 24 -18 0 -11 -13 -45 -30 -78 -16 -33 -50 -79 -75
-103 -25 -23 -46 -50 -47 -59 -1 -10 -2 -26 -2 -37 -1 -18 -7 -20 -53 -17 -35
3 -59 -1 -76 -13 -14 -9 -41 -47 -61 -85 -21 -40 -39 -91 -43 -120 -6 -50 -6
-50 23 -50 16 0 50 6 75 14 25 8 70 26 98 41 29 14 72 43 94 64 23 21 60 48
82 59 22 11 48 29 58 40 10 11 33 68 53 127 19 59 54 146 78 193 25 48 48 99
51 113 4 15 2 45 -4 67 -7 23 -24 51 -41 65 -16 14 -43 28 -60 32 -20 4 -78
-5 -172 -29 -79 -19 -160 -38 -180 -41 l-36 -7 21 44 c19 37 23 66 28 213 5
140 10 180 28 226 12 31 35 75 51 98 17 22 47 52 67 65 21 13 53 27 71 31 32
7 32 6 32 -31 0 -21 9 -57 21 -80 11 -24 36 -57 55 -74 19 -16 56 -41 82 -54
26 -13 80 -58 120 -99 70 -73 72 -76 72 -125 0 -44 4 -54 31 -76 17 -14 34
-26 39 -26 5 0 15 -3 24 -6 10 -4 16 -1 16 9 0 8 -16 24 -35 36 -33 19 -35 24
-35 71 0 48 -3 54 -73 133 -49 55 -91 92 -130 112 -31 17 -70 44 -87 60 -16
15 -37 48 -46 72 -11 27 -14 56 -11 79 3 20 15 53 26 75 11 21 17 41 12 43 -9
6 -55 -41 -64 -65 -4 -12 -13 -15 -31 -12 -16 3 -47 -5 -81 -21 -30 -15 -70
-46 -90 -69 -20 -23 -46 -64 -60 -92 -13 -28 -29 -81 -35 -117 -7 -37 -10 -96
-8 -132 3 -65 3 -65 -17 -46 -11 11 -38 27 -60 36 -24 10 -65 17 -100 16 -63
0 -136 -20 -142 -37 -2 -7 28 -10 91 -7 55 3 108 0 128 -7 19 -6 45 -23 58
-36 15 -16 24 -40 27 -72 4 -37 -1 -58 -19 -92 -15 -28 -33 -47 -48 -52 -107
-29 -140 -42 -169 -63 -18 -13 -44 -39 -57 -57 -13 -18 -24 -42 -24 -52 0 -16
10 -10 50 27 28 26 70 56 93 66 23 10 94 28 157 40 63 12 168 35 232 51 64 16
133 29 153 29 25 0 43 -8 60 -25 18 -18 25 -35 25 -64 0 -28 -14 -68 -45 -130
-25 -49 -59 -131 -75 -182 -17 -52 -38 -104 -46 -116 -8 -13 -33 -32 -57 -44
-23 -12 -63 -41 -88 -65 -26 -23 -64 -50 -85 -59 -22 -9 -58 -23 -81 -30 -41
-13 -43 -12 -43 8 0 12 13 49 28 82 16 33 36 66 44 73 10 8 36 12 67 10 45 -3
51 -5 51 -25 0 -13 4 -23 10 -23 5 0 16 12 23 28 9 16 11 37 6 52 -4 14 -7 31
-8 38 -1 7 22 36 50 64 27 29 63 80 80 114 16 34 29 72 29 84 0 12 -5 30 -10
41 -8 14 -21 19 -51 19 -22 0 -59 -9 -82 -21 -23 -12 -129 -73 -235 -136 -106
-64 -219 -126 -250 -139 -31 -13 -76 -24 -98 -24 -27 0 -51 7 -67 21 -15 11
-44 58 -66 103 -29 64 -48 90 -77 110 -21 14 -46 26 -56 26 -9 0 -19 -4 -23
-10 -3 -5 7 -16 23 -24 17 -9 41 -29 55 -45 14 -17 35 -56 47 -87 11 -32 29
-69 40 -84 l18 -26 -71 -45 c-40 -26 -94 -56 -122 -69 -95 -42 -219 -80 -344
-104 -69 -14 -211 -34 -316 -46 -104 -11 -229 -27 -276 -35 -47 -8 -118 -26
-158 -40 -41 -13 -93 -36 -117 -49 -24 -14 -44 -23 -44 -21 0 2 22 55 49 117
27 62 47 117 43 122 -11 19 -62 -59 -113 -173 -29 -64 -67 -146 -86 -183 -19
-39 -61 -97 -98 -137 -38 -40 -105 -95 -162 -131 -296 -192 -360 -237 -433
-309 -43 -43 -103 -116 -134 -163 -31 -47 -72 -123 -92 -169 -19 -46 -45 -99
-56 -117 -12 -19 -44 -49 -72 -67 -28 -18 -64 -47 -81 -64 -26 -28 -30 -30
-37 -14 -3 10 -7 32 -7 48 -1 20 6 34 19 43 14 8 20 23 20 49 0 31 9 46 65
104 48 49 76 91 105 151 21 46 52 133 68 194 17 61 35 121 41 133 7 11 35 33
63 47 28 14 73 47 100 72 27 25 61 65 74 88 13 22 29 67 35 99 8 45 7 79 -5
157 -9 54 -16 131 -16 171 0 40 7 101 15 136 9 35 29 92 45 125 16 34 52 91
79 128 28 37 83 92 123 123 40 32 103 72 140 91 37 19 105 45 150 58 46 13
164 36 263 51 99 14 216 35 260 45 44 10 116 31 160 45 44 14 125 48 181 74
55 27 136 72 180 101 43 29 115 84 160 121 44 37 161 152 260 256 98 103 215
223 259 266 44 42 118 105 165 138 47 34 124 80 171 104 48 23 97 46 110 50
18 7 8 10 -43 12 -38 2 -68 8 -68 12 0 5 40 13 88 20 49 6 126 11 172 11 65 0
81 3 72 12 -7 7 -56 13 -124 16 -82 3 -136 0 -196 -13 -46 -9 -134 -34 -195
-55 -62 -21 -130 -41 -152 -45 l-40 -6 35 19 c19 10 64 37 99 60 34 23 88 51
118 62 30 11 88 25 129 31 51 7 103 7 168 0 52 -6 132 -23 177 -37 45 -14 99
-35 121 -46 36 -19 41 -19 55 -5 14 14 11 17 -28 38 -24 12 -75 33 -114 46
-38 13 -108 30 -154 38 -46 8 -111 14 -145 14 -33 -1 -83 -5 -110 -10z m-2579
-1695 c-32 -8 -100 -35 -150 -61 -74 -38 -110 -65 -183 -138 -74 -73 -98 -106
-132 -175 -23 -47 -58 -141 -77 -210 -20 -69 -52 -153 -72 -188 -19 -35 -59
-87 -88 -117 -33 -32 -82 -67 -127 -89 -40 -20 -122 -50 -182 -67 -59 -16
-130 -41 -157 -55 -28 -13 -68 -41 -91 -62 -38 -34 -40 -35 -34 -12 4 14 23
57 42 96 24 51 51 88 94 127 41 38 94 72 167 108 79 38 121 66 158 104 29 30
62 78 79 116 16 35 55 119 87 185 50 104 70 134 139 207 44 46 108 103 143
126 35 22 92 53 128 67 35 14 93 32 129 39 36 7 92 13 125 13 l60 0 -58 -14z
m-610 -1736 c11 -62 11 -63 -15 -86 -15 -12 -50 -34 -79 -47 -28 -14 -55 -25
-59 -25 -4 0 -4 22 -1 50 3 27 17 71 30 97 13 27 34 54 48 60 13 7 33 13 45
13 17 0 22 -10 31 -62z M4925 3814 c-22 -15 -53 -38 -68 -53 -15 -14 -42 -47
-58 -73 -17 -26 -47 -58 -67 -70 l-37 -23 27 -3 c15 -2 39 5 53 14 15 10 44
43 66 75 21 31 52 67 68 78 16 12 32 21 35 21 3 0 -1 -20 -9 -45 -7 -25 -23
-61 -34 -81 -12 -20 -20 -39 -17 -41 2 -3 14 1 26 7 12 6 28 27 36 45 7 19 24
37 36 41 13 3 35 15 51 26 15 11 27 17 27 13 0 -10 -32 -69 -51 -94 -11 -13
-19 -19 -19 -12 0 6 -7 11 -15 11 -8 0 -15 -6 -15 -13 0 -7 4 -17 9 -22 4 -6
40 -71 79 -145 49 -95 76 -161 90 -220 11 -47 41 -156 66 -242 25 -86 46 -170
46 -187 0 -16 -4 -40 -9 -53 -5 -13 -19 -33 -30 -45 -12 -13 -26 -23 -31 -23
-13 0 -13 87 -1 94 5 4 11 1 13 -6 2 -6 10 -8 16 -4 7 4 12 18 12 31 0 13 -4
27 -10 30 -5 3 -19 1 -30 -5 -11 -6 -27 -24 -35 -40 -8 -16 -15 -41 -15 -55 0
-15 5 -35 10 -46 9 -17 7 -19 -16 -19 -22 0 -25 -2 -14 -15 7 -8 25 -15 40
-15 15 0 42 10 61 23 18 12 44 40 56 62 13 23 23 57 23 81 0 23 -24 127 -54
231 -30 104 -59 216 -65 247 -6 32 -26 83 -45 114 -18 32 -50 90 -70 129 l-36
73 35 45 c19 25 41 69 50 97 8 29 15 58 15 65 0 7 -4 13 -9 13 -5 0 -14 -7
-21 -15 -7 -8 -35 -28 -62 -45 l-50 -31 6 36 c4 20 10 43 13 51 9 23 -28 17
-72 -12z M4910 3371 c0 -5 17 -23 37 -40 21 -17 46 -31 56 -31 11 0 32 -8 48
-17 15 -9 31 -14 34 -11 8 7 -14 61 -28 70 -7 4 -28 8 -47 8 -19 0 -46 7 -60
15 -14 8 -28 14 -32 15 -5 0 -8 -4 -8 -9z M3545 3162 c-28 -10 -66 -29 -85
-42 -19 -14 -59 -47 -89 -73 -29 -27 -77 -60 -105 -73 -28 -13 -72 -27 -99
-30 -26 -4 -50 -10 -53 -15 -2 -5 7 -11 21 -15 15 -4 47 -4 72 0 24 3 64 14
88 25 23 10 80 53 126 96 46 42 105 88 131 101 26 13 49 28 53 34 3 5 3 10 -2
10 -4 -1 -31 -8 -58 -18z M1456 1888 c-9 -14 -26 -65 -37 -114 -12 -49 -35
-131 -50 -182 -16 -51 -45 -123 -65 -159 -21 -36 -63 -99 -95 -139 -32 -40
-93 -103 -136 -139 -43 -37 -114 -84 -161 -108 -46 -22 -129 -53 -185 -68 -76
-20 -97 -29 -83 -35 11 -4 54 -3 96 4 42 6 107 23 144 38 36 14 93 43 125 64
32 21 91 69 131 106 40 38 92 94 116 125 23 31 59 84 79 117 20 34 47 92 61
128 14 37 34 121 45 188 11 67 25 136 31 154 5 18 8 36 5 39 -3 2 -13 -6 -21
-19z"/>
</g>
</svg>
