<?xml version="1.0" standalone="no"?>
<!DOCTYPE svg PUBLIC "-//W3C//DTD SVG 20010904//EN"
 "http://www.w3.org/TR/2001/REC-SVG-20010904/DTD/svg10.dtd">
<svg version="1.0" xmlns="http://www.w3.org/2000/svg"
 width="600.000000pt" height="430.000000pt" viewBox="0 0 600.000000 430.000000"
 preserveAspectRatio="xMidYMid meet">
<metadata>
Created by potrace 1.16, written by Peter Selinger 2001-2019
</metadata>
<g transform="translate(0.000000,430.000000) scale(0.100000,-0.100000)"
fill="#f1ead8" stroke="none">
<path d="M4236 3839 c-107 -17 -159 -41 -288 -127 -80 -54 -146 -65 -224 -38
-63 21 -71 20 -48 -5 34 -38 95 -61 174 -68 l75 -6 -45 -26 c-215 -126 -359
-149 -506 -80 -37 17 -69 29 -72 26 -3 -3 10 -22 29 -41 36 -39 151 -100 206
-110 44 -8 42 -20 -4 -27 -52 -9 -128 -48 -188 -98 -87 -72 -118 -84 -218 -83
-72 1 -85 -1 -76 -12 18 -21 89 -37 141 -31 58 7 96 26 173 87 81 64 121 83
250 114 61 15 126 36 145 46 l35 18 -81 -5 c-62 -4 -100 -1 -155 13 l-74 19
85 6 c123 8 193 36 378 147 110 67 220 112 273 112 51 0 46 -7 -36 -51 -151
-80 -268 -181 -496 -426 -272 -293 -440 -429 -650 -526 -170 -80 -287 -111
-589 -157 -107 -17 -220 -37 -250 -46 -145 -42 -285 -121 -375 -213 l-49 -51
-99 0 c-122 0 -218 -21 -326 -71 -213 -99 -365 -271 -457 -516 -54 -144 -116
-212 -247 -273 -183 -84 -283 -197 -322 -362 -16 -67 -20 -158 -7 -158 4 0 20
20 35 44 61 97 139 146 312 195 158 45 244 90 325 170 81 79 127 165 169 313
54 195 110 297 209 390 90 84 218 156 314 175 l28 5 -30 -53 c-73 -132 -90
-250 -65 -449 31 -237 5 -292 -200 -423 -55 -36 -66 -58 -105 -207 -36 -137
-98 -255 -169 -323 -44 -41 -61 -65 -62 -85 -1 -15 -2 -34 -3 -42 -1 -11 -17
-16 -56 -20 -31 -3 -68 -13 -84 -23 -35 -23 -75 -109 -89 -191 -18 -108 -1
-117 120 -61 55 25 95 54 151 108 43 41 96 86 119 100 55 35 86 77 130 178 61
142 112 218 218 325 97 99 167 150 405 297 156 96 246 186 306 306 35 68 49
81 139 126 103 51 201 73 488 105 295 34 420 57 564 105 117 39 200 79 295
141 58 39 71 44 105 39 73 -12 179 37 465 213 169 105 248 134 248 94 0 -35
-59 -137 -105 -181 -25 -23 -46 -50 -47 -59 -1 -10 -2 -26 -2 -37 -1 -18 -7
-20 -53 -17 -35 3 -59 -1 -76 -13 -35 -23 -97 -144 -104 -205 -6 -50 -6 -50
23 -50 71 0 201 58 267 119 23 21 60 48 82 59 60 30 73 49 111 167 19 59 54
146 78 193 25 48 48 99 51 113 10 41 -12 105 -45 132 -49 41 -76 42 -232 3
-79 -19 -160 -38 -180 -41 l-36 -7 21 44 c19 37 23 66 28 213 5 140 10 180 28
226 40 105 111 178 189 194 32 7 32 6 32 -31 0 -79 60 -158 158 -208 26 -13
80 -58 120 -99 70 -73 72 -76 72 -125 0 -44 4 -54 31 -76 17 -14 34 -26 39
-26 5 0 15 -3 24 -6 31 -12 16 24 -19 45 -33 19 -35 24 -35 71 0 48 -3 54 -73
133 -49 55 -91 92 -130 112 -137 74 -178 171 -118 286 11 21 17 41 12 43 -9 6
-55 -41 -64 -65 -4 -12 -13 -15 -31 -12 -38 8 -129 -41 -171 -90 -72 -84 -110
-209 -103 -341 3 -65 3 -65 -17 -46 -53 50 -173 68 -259 38 -70 -24 -53 -34
48 -30 149 7 205 -24 213 -115 6 -59 -29 -133 -67 -144 -107 -29 -140 -42
-169 -63 -41 -31 -81 -84 -81 -109 0 -16 10 -10 50 27 65 61 109 80 250 106
63 12 168 35 232 51 145 36 181 37 213 4 39 -38 34 -88 -20 -194 -25 -49 -59
-131 -75 -182 -38 -116 -49 -133 -103 -160 -23 -12 -63 -41 -88 -65 -47 -43
-87 -64 -166 -89 -41 -13 -43 -12 -43 8 0 28 52 138 72 155 10 8 36 12 67 10
45 -3 51 -5 51 -25 0 -13 4 -23 10 -23 17 0 37 54 29 80 -12 43 -10 49 42 102
51 53 109 158 109 198 0 42 -18 60 -61 60 -49 0 -75 -13 -317 -157 -215 -129
-287 -162 -348 -163 -58 0 -87 27 -133 124 -29 64 -48 90 -77 110 -21 14 -46
26 -56 26 -30 0 -30 -19 0 -34 43 -22 77 -67 102 -132 11 -32 29 -69 40 -84
l18 -26 -71 -45 c-185 -118 -391 -175 -782 -219 -318 -35 -442 -63 -551 -124
-24 -14 -44 -23 -44 -21 0 2 22 55 49 117 27 62 47 117 43 122 -11 19 -62 -59
-113 -173 -122 -272 -174 -340 -346 -451 -296 -192 -360 -237 -433 -309 -91
-90 -175 -214 -226 -332 -50 -118 -70 -147 -128 -184 -28 -18 -64 -47 -81 -64
-26 -28 -30 -30 -37 -14 -14 36 -8 78 12 91 14 8 20 23 20 49 0 31 9 46 65
104 79 82 130 182 173 345 17 61 35 121 41 133 7 11 35 33 63 47 28 14 73 47
100 72 103 96 129 183 104 344 -9 54 -16 131 -16 171 1 298 225 566 552 661
46 13 164 36 263 51 287 42 423 80 601 164 206 98 343 207 600 478 240 252
323 332 424 404 76 55 215 131 281 154 18 7 8 10 -43 12 -38 2 -68 8 -68 12 0
12 161 31 260 31 65 0 81 3 72 12 -7 7 -56 13 -124 16 -134 5 -225 -11 -391
-68 -62 -21 -130 -41 -152 -45 l-40 -6 35 19 c19 10 64 37 99 60 126 82 254
111 415 93 99 -11 231 -48 298 -83 36 -19 41 -19 55 -5 14 14 11 17 -28 38
-153 77 -369 114 -523 88z m-2579 -1695 c-32 -8 -100 -35 -150 -61 -74 -38
-110 -65 -183 -138 -108 -108 -154 -191 -209 -385 -80 -275 -189 -383 -469
-461 -126 -35 -191 -65 -248 -117 -38 -34 -40 -35 -34 -12 4 14 23 57 42 96
48 100 122 167 261 235 129 63 193 122 237 220 115 256 144 305 226 392 44 46
108 103 143 126 116 75 256 119 382 119 l60 0 -58 -14z m-610 -1736 c11 -62
11 -63 -15 -86 -25 -21 -122 -72 -138 -72 -14 0 6 101 29 147 24 48 55 73 93
73 17 0 22 -10 31 -62z M4925 3814 c-58 -39 -92 -72 -126 -126 -17 -26 -47
-58 -67 -70 l-37 -23 27 -3 c38 -4 73 22 119 89 33 49 85 99 103 99 9 0 -21
-88 -43 -126 -12 -20 -20 -39 -17 -41 11 -11 49 21 62 52 7 19 24 37 36 41 13
3 35 15 51 26 31 22 33 19 11 -25 -22 -42 -54 -83 -54 -68 0 6 -7 11 -15 11
-16 0 -20 -20 -6 -35 4 -6 40 -71 79 -145 49 -95 76 -161 90 -220 11 -47 41
-156 66 -242 58 -196 58 -231 7 -285 -32 -33 -41 -28 -41 21 0 43 14 70 22 44
7 -19 28 1 28 27 0 30 -14 39 -40 25 -41 -22 -63 -98 -40 -141 9 -17 7 -19
-16 -19 -22 0 -25 -2 -14 -15 32 -38 118 0 157 70 13 23 23 57 23 81 0 23 -24
127 -54 231 -30 104 -59 216 -65 247 -6 32 -26 83 -45 114 -18 32 -50 90 -70
129 l-36 73 35 45 c31 41 65 126 65 162 0 17 -15 17 -30 -2 -7 -8 -35 -28 -62
-45 l-50 -31 6 36 c4 20 10 43 13 51 9 23 -28 17 -72 -12z M4910 3371 c0 -16
73 -71 93 -71 11 0 32 -8 48 -17 35 -21 43 -15 29 23 -14 36 -26 44 -70 44
-19 0 -46 7 -60 15 -30 17 -40 18 -40 6z M3545 3162 c-58 -20 -97 -46 -174
-115 -62 -57 -136 -94 -204 -103 -26 -4 -50 -10 -53 -15 -8 -13 44 -22 93 -15
73 10 126 39 214 121 46 42 105 88 131 101 43 22 70 44 51 44 -4 -1 -31 -8
-58 -18z M1456 1888 c-9 -14 -26 -65 -37 -114 -59 -243 -104 -346 -210 -480
-127 -159 -286 -263 -482 -315 -76 -20 -97 -29 -83 -35 30 -12 165 12 240 42
211 84 426 311 512 540 14 37 34 121 45 188 11 67 25 136 31 154 13 42 5 51
-16 20z"/>
</g>
</svg>
