<?xml version="1.0" standalone="no"?>
<!DOCTYPE svg PUBLIC "-//W3C//DTD SVG 20010904//EN"
 "http://www.w3.org/TR/2001/REC-SVG-20010904/DTD/svg10.dtd">
<svg version="1.0" xmlns="http://www.w3.org/2000/svg"
 width="600.000000pt" height="430.000000pt" viewBox="0 0 600.000000 430.000000"
 preserveAspectRatio="xMidYMid meet">
<metadata>
Created by potrace 1.16, written by Peter Selinger 2001-2019
</metadata>
<g transform="translate(0.000000,430.000000) scale(0.100000,-0.100000)"
fill="#f1ead8" stroke="none">
<path d="M4260 3843 c-114 -17 -167 -39 -289 -117 -82 -52 -102 -60 -152 -64
-39 -3 -72 1 -99 12 -54 22 -67 20 -44 -5 34 -38 95 -61 174 -68 l75 -6 -80
-46 c-130 -75 -185 -92 -300 -93 -93 -1 -105 1 -169 32 -38 18 -71 30 -74 27
-3 -3 10 -22 29 -41 36 -39 151 -100 206 -110 44 -8 42 -20 -4 -27 -53 -9
-128 -49 -193 -102 -85 -70 -112 -80 -212 -79 -97 1 -106 -13 -23 -36 85 -24
165 1 260 80 70 59 124 84 248 114 59 14 124 34 145 45 l37 19 -81 -5 c-61 -4
-100 -1 -155 13 l-74 19 80 6 c132 11 199 36 383 147 110 67 220 112 273 112
51 0 46 -7 -36 -51 -119 -62 -220 -145 -375 -304 -465 -478 -544 -544 -782
-654 -164 -76 -289 -107 -661 -166 -238 -37 -393 -105 -528 -232 l-66 -63
-100 0 c-233 0 -464 -111 -615 -297 -66 -81 -113 -164 -163 -290 -41 -103 -85
-171 -136 -209 -19 -14 -74 -46 -124 -70 -49 -25 -110 -61 -136 -81 -86 -65
-153 -175 -178 -291 -13 -60 -15 -142 -3 -142 4 0 20 20 35 44 62 99 136 144
327 201 158 46 228 83 311 165 82 80 127 167 169 322 47 171 98 267 195 364
84 84 169 139 270 174 84 29 87 27 54 -32 -70 -127 -90 -266 -65 -442 9 -60
16 -126 16 -146 0 -98 -66 -194 -181 -261 -38 -22 -76 -50 -84 -63 -8 -12 -31
-80 -50 -150 -45 -165 -97 -265 -175 -340 -53 -50 -60 -61 -60 -96 0 -21 -4
-41 -10 -45 -5 -3 -31 -7 -59 -9 -66 -4 -98 -27 -128 -92 -28 -61 -50 -171
-40 -197 18 -48 163 22 286 136 48 45 101 89 118 98 42 23 75 70 118 169 110
250 234 382 535 567 248 151 330 227 399 368 25 50 39 66 85 94 119 72 233
100 531 131 309 32 453 60 617 120 89 33 210 95 265 137 31 24 46 28 102 28
57 0 78 6 151 41 47 22 128 67 180 99 209 127 298 176 333 182 32 5 37 3 37
-13 0 -37 -50 -125 -101 -179 -37 -39 -52 -63 -54 -87 l-3 -33 -54 3 c-48 3
-57 1 -82 -25 -38 -36 -87 -143 -94 -199 -5 -43 -4 -44 25 -44 67 0 202 60
266 119 23 21 61 48 84 59 55 28 75 60 107 163 14 47 48 131 75 185 61 122 66
143 51 191 -16 50 -46 81 -90 94 -32 10 -57 6 -181 -24 -79 -20 -161 -39 -181
-42 l-36 -7 21 44 c19 37 23 67 28 213 7 178 15 218 63 300 32 52 72 90 118
109 54 23 68 21 68 -10 0 -84 55 -163 147 -212 34 -18 88 -62 131 -105 70 -72
72 -77 72 -124 0 -56 23 -87 78 -103 45 -12 43 12 -3 39 -32 19 -35 24 -35 69
0 41 -6 55 -37 93 -76 91 -120 132 -174 159 -130 67 -170 169 -109 282 11 21
16 39 11 42 -9 6 -56 -41 -63 -63 -2 -7 -21 -14 -46 -16 -152 -12 -274 -213
-260 -429 l4 -64 -31 23 c-45 35 -83 46 -150 46 -60 0 -136 -20 -142 -37 -2
-5 36 -7 89 -5 150 5 207 -25 215 -116 6 -59 -30 -134 -68 -145 -135 -37 -142
-40 -195 -92 -36 -35 -54 -60 -54 -76 0 -22 4 -21 48 22 58 58 111 82 227 103
50 9 156 32 237 51 169 41 212 41 241 3 30 -42 24 -86 -28 -188 -25 -51 -60
-134 -76 -185 -37 -113 -48 -130 -102 -157 -23 -12 -63 -41 -89 -66 -47 -43
-101 -72 -172 -92 -33 -9 -36 -8 -36 12 0 27 51 138 72 154 9 8 37 12 70 10
50 -2 54 -4 50 -24 -6 -32 15 -29 31 5 10 18 11 36 6 57 -12 41 -6 53 46 104
46 45 105 151 105 191 0 41 -18 60 -58 60 -49 0 -105 -27 -307 -150 -212 -129
-299 -170 -358 -170 -61 0 -88 24 -136 124 -41 85 -73 118 -123 131 -37 9 -44
-11 -10 -29 42 -22 77 -67 102 -132 11 -31 30 -68 40 -82 20 -24 20 -24 -3
-41 -165 -125 -393 -198 -748 -241 -342 -41 -415 -52 -504 -81 -49 -16 -109
-40 -132 -53 -24 -14 -43 -23 -43 -20 0 2 20 50 45 106 25 56 45 111 45 122 0
19 -1 19 -21 1 -20 -19 -40 -58 -153 -299 -51 -107 -64 -127 -139 -200 -54
-55 -117 -103 -187 -146 -287 -174 -432 -297 -526 -445 -27 -43 -72 -127 -99
-188 -43 -95 -57 -116 -95 -144 -25 -18 -66 -51 -91 -73 -51 -43 -59 -40 -59
23 0 22 7 36 20 45 15 9 20 22 18 47 -2 31 5 43 59 98 92 93 129 167 183 363
15 55 33 110 39 122 6 12 35 34 63 48 62 31 142 104 173 159 41 70 48 137 29
261 -43 289 31 500 235 670 133 111 284 168 534 204 294 42 454 84 625 165
122 58 266 153 372 247 82 72 397 395 413 424 15 26 201 186 275 236 66 45
196 113 254 133 17 7 6 10 -44 12 -38 2 -68 8 -68 12 0 12 154 31 255 31 68 0
86 3 77 12 -7 7 -56 13 -119 16 -132 5 -240 -13 -391 -67 -59 -21 -127 -42
-152 -45 l-45 -7 50 29 c28 16 77 46 110 66 113 69 247 95 398 76 94 -11 225
-49 289 -82 36 -19 41 -19 55 -5 14 14 12 17 -23 35 -148 75 -369 116 -504 95z
m-2585 -1695 c-27 -5 -97 -32 -155 -60 -91 -44 -115 -62 -195 -142 -111 -111
-147 -178 -205 -371 -23 -77 -58 -169 -78 -205 -74 -135 -192 -216 -392 -270
-124 -34 -187 -64 -251 -119 -39 -33 -41 -33 -35 -10 4 13 23 56 42 95 48 100
123 168 262 236 164 80 197 119 288 336 56 134 115 221 212 314 142 136 310
207 487 206 l70 0 -50 -10z m-628 -1740 c7 -42 7 -67 1 -75 -13 -16 -105 -68
-137 -78 -24 -7 -24 -7 -18 44 12 97 64 170 123 171 17 0 22 -9 31 -62z M4925
3814 c-58 -39 -92 -72 -126 -126 -17 -26 -47 -58 -67 -70 l-37 -23 27 -3 c38
-4 73 22 119 89 33 49 85 99 103 99 9 0 -21 -88 -43 -126 -12 -20 -20 -39 -17
-41 11 -11 49 21 62 52 7 19 24 37 36 41 13 3 35 15 51 26 35 25 34 16 -4 -51
-23 -39 -34 -50 -42 -42 -15 15 -29 14 -25 -1 2 -7 38 -78 80 -158 56 -107 82
-168 97 -231 11 -47 40 -155 65 -239 58 -193 59 -237 6 -290 -30 -30 -40 -25
-40 24 0 43 14 70 22 44 7 -19 28 1 28 27 0 30 -14 39 -40 25 -41 -22 -63 -98
-40 -141 9 -17 7 -19 -16 -19 -22 0 -25 -2 -14 -15 32 -38 118 0 157 70 13 23
23 57 23 80 0 22 -24 126 -54 230 -30 105 -59 217 -66 250 -7 33 -27 85 -45
115 -18 30 -49 88 -70 129 -36 72 -36 74 -18 95 30 34 50 68 67 121 25 72 15
82 -40 40 -25 -19 -55 -40 -66 -46 -19 -10 -20 -9 -14 26 4 20 10 43 13 51 9
23 -28 17 -72 -12z M4910 3371 c0 -16 74 -71 95 -71 11 0 31 -7 43 -16 30 -21
44 -10 31 24 -13 34 -26 42 -69 42 -19 0 -46 7 -60 15 -30 17 -40 18 -40 6z
M3545 3162 c-58 -20 -97 -46 -174 -116 -61 -55 -144 -97 -208 -104 -24 -2 -46
-8 -49 -13 -8 -14 44 -22 94 -15 70 9 125 41 214 123 44 41 102 85 129 98 44
23 71 45 52 45 -4 -1 -31 -8 -58 -18z M1444 1863 c-8 -21 -26 -85 -39 -143
-41 -185 -95 -300 -202 -433 -124 -154 -283 -257 -476 -308 -119 -31 -112 -48
13 -31 184 26 361 140 510 327 109 138 160 257 195 461 14 81 28 151 31 155 3
5 0 9 -5 9 -6 0 -18 -17 -27 -37z"/>
</g>
</svg>
