<?xml version="1.0" standalone="no"?>
<!DOCTYPE svg PUBLIC "-//W3C//DTD SVG 20010904//EN"
 "http://www.w3.org/TR/2001/REC-SVG-20010904/DTD/svg10.dtd">
<svg version="1.0" xmlns="http://www.w3.org/2000/svg"
 width="600.000000pt" height="430.000000pt" viewBox="0 0 600.000000 430.000000"
 preserveAspectRatio="xMidYMid meet">
<metadata>
Created by potrace 1.16, written by Peter Selinger 2001-2019
</metadata>
<g transform="translate(0.000000,430.000000) scale(0.100000,-0.100000)"
fill="#f1ead8" stroke="none">
<path d="M4245 3840 c-103 -17 -187 -52 -279 -117 -93 -66 -172 -82 -251 -49
-55 23 -64 19 -28 -14 42 -38 130 -64 199 -58 30 3 54 4 54 3 0 -9 -190 -110
-237 -126 -121 -43 -266 -34 -362 22 -47 27 -51 16 -10 -27 36 -39 151 -100
206 -110 43 -8 42 -20 -2 -28 -61 -12 -118 -41 -190 -100 -90 -72 -145 -91
-239 -82 -65 5 -69 4 -51 -9 76 -59 198 -37 310 56 71 59 128 85 252 115 94
23 163 47 163 58 0 2 -33 1 -74 -2 -70 -4 -219 19 -230 36 -2 4 35 7 83 7 106
1 183 25 302 95 161 96 286 153 345 158 29 2 54 0 54 -5 0 -5 -33 -25 -73 -45
-112 -55 -229 -149 -377 -303 -411 -426 -516 -517 -700 -614 -123 -64 -221
-102 -345 -134 -103 -26 -134 -32 -370 -68 -263 -40 -419 -107 -565 -245 l-55
-51 -120 -6 c-130 -6 -230 -29 -318 -74 -187 -94 -331 -249 -413 -445 -99
-236 -119 -260 -285 -343 -168 -85 -251 -172 -300 -313 -23 -68 -37 -202 -21
-202 6 0 14 9 17 20 4 11 31 47 61 80 65 69 117 97 270 141 295 84 412 201
495 494 50 178 97 264 198 365 71 72 103 95 181 134 52 26 112 49 133 53 l37
6 -25 -44 c-33 -58 -71 -179 -80 -254 -4 -39 0 -108 10 -190 19 -142 16 -215
-10 -266 -27 -53 -94 -117 -163 -156 -78 -43 -85 -55 -116 -173 -49 -187 -92
-275 -182 -371 -54 -57 -64 -74 -64 -103 0 -41 -27 -61 -66 -52 -39 10 -91
-21 -120 -70 -28 -48 -61 -190 -51 -218 18 -45 166 26 287 137 49 45 108 96
131 112 44 31 54 49 138 225 96 201 223 328 503 499 245 150 323 222 396 366
24 48 40 66 84 92 129 78 214 99 571 138 422 47 631 108 822 239 55 38 65 41
125 41 81 0 161 37 393 178 179 110 241 143 277 148 22 4 25 1 24 -27 -2 -47
-32 -101 -91 -164 -44 -48 -53 -64 -53 -94 l0 -36 -56 6 c-53 7 -57 5 -89 -26
-40 -38 -83 -129 -91 -194 -6 -44 -6 -46 18 -46 69 0 205 59 253 110 17 18 56
45 87 61 71 36 80 49 129 194 21 64 57 149 79 189 64 117 50 216 -37 253 -36
14 -44 13 -208 -26 -218 -52 -211 -52 -183 2 19 37 23 64 29 212 4 113 12 184
22 211 40 107 90 170 159 198 56 24 68 21 68 -16 0 -81 72 -173 167 -215 22
-10 72 -53 113 -96 72 -76 73 -79 71 -126 -2 -43 2 -51 29 -75 31 -25 80 -36
80 -16 0 5 -13 16 -30 25 -38 20 -49 40 -43 84 5 33 -1 43 -72 123 -53 61 -92
95 -128 113 -131 66 -177 164 -127 274 30 64 8 70 -30 9 -15 -25 -26 -31 -61
-34 -51 -5 -117 -41 -154 -86 -69 -81 -113 -235 -101 -350 l6 -57 -46 32 c-40
28 -55 32 -122 35 -48 2 -92 -2 -116 -11 -64 -22 -54 -34 21 -25 184 20 280
-62 229 -196 -21 -55 -40 -72 -94 -80 -80 -12 -167 -68 -198 -128 -26 -50 -14
-52 34 -6 63 61 109 83 222 103 52 10 166 34 253 55 177 43 200 42 235 -10 30
-45 29 -53 -26 -166 -27 -54 -63 -143 -81 -196 -36 -109 -58 -142 -106 -162
-18 -8 -57 -36 -88 -64 -32 -29 -77 -58 -108 -69 -59 -22 -109 -35 -109 -30 0
21 46 128 66 154 24 32 28 33 85 31 57 -2 60 -3 54 -25 -3 -13 -1 -23 4 -23
20 0 33 42 26 85 -6 42 -4 45 54 110 38 42 67 86 80 121 26 67 26 86 3 107
-43 39 -107 14 -362 -143 -193 -119 -282 -160 -345 -160 -63 0 -89 24 -133
120 -32 71 -66 111 -113 130 -43 18 -63 -2 -23 -23 44 -23 70 -55 104 -132 17
-38 39 -78 47 -88 19 -21 16 -24 -88 -87 -180 -110 -384 -162 -829 -211 -221
-24 -350 -53 -451 -102 -81 -39 -80 -42 -18 92 40 86 47 111 29 111 -17 0 -62
-81 -121 -216 -97 -225 -164 -306 -349 -421 -411 -256 -501 -346 -635 -626
-63 -132 -80 -156 -145 -195 -19 -11 -48 -34 -64 -51 -22 -23 -32 -28 -38 -19
-15 25 -8 78 13 99 13 13 18 27 14 39 -8 27 6 49 73 117 70 69 119 164 157
303 46 168 52 179 123 220 160 93 223 212 198 376 -5 38 -10 130 -10 204 0
121 2 142 26 202 87 229 277 395 536 469 34 10 145 30 245 44 393 58 623 144
863 323 87 65 224 197 514 498 192 198 340 308 488 360 58 21 70 40 19 31 -37
-6 -87 2 -87 13 0 12 143 30 242 30 128 0 104 22 -29 28 -123 6 -200 -8 -390
-69 -177 -57 -223 -63 -151 -21 25 15 70 42 100 60 124 75 253 102 406 84 97
-11 226 -48 291 -83 25 -13 39 -15 53 -8 10 5 18 12 18 15 0 3 -30 19 -67 36
-144 65 -354 98 -488 78z m-2574 -1695 c-193 -42 -392 -199 -480 -380 -22 -44
-54 -132 -72 -195 -40 -148 -88 -239 -164 -315 -74 -74 -153 -114 -305 -155
-123 -34 -187 -64 -251 -118 l-40 -34 7 28 c15 63 59 139 117 200 50 54 78 74
174 121 176 86 202 117 312 373 126 292 403 490 686 489 l80 -1 -64 -13z
m-623 -1737 c14 -75 8 -83 -81 -128 -82 -41 -86 -40 -76 18 16 101 64 172 117
172 27 0 29 -3 40 -62z M4925 3814 c-61 -41 -85 -64 -122 -122 -19 -30 -51
-63 -71 -75 -33 -19 -34 -22 -15 -25 36 -5 80 25 118 83 35 53 87 105 105 105
13 0 -16 -96 -40 -130 -12 -17 -20 -34 -16 -37 10 -11 56 27 62 52 4 17 24 34
60 54 30 16 54 26 54 23 0 -4 -14 -31 -31 -60 -25 -45 -33 -51 -45 -41 -35 29
-21 -9 54 -151 65 -121 86 -170 106 -253 13 -56 43 -165 65 -241 23 -76 41
-157 41 -179 0 -42 -30 -101 -57 -111 -22 -9 -27 -1 -26 39 1 42 12 63 23 45
11 -18 30 -3 30 25 0 55 -62 29 -81 -34 -8 -29 -9 -48 -1 -70 10 -28 9 -31 -9
-31 -31 0 -17 -24 15 -28 41 -5 99 38 126 93 30 61 26 91 -44 333 -31 106 -56
203 -56 216 0 13 -34 89 -75 169 l-76 146 30 42 c28 37 71 135 71 159 0 18
-18 10 -76 -30 -32 -22 -61 -40 -65 -40 -5 0 -2 20 5 44 20 65 5 72 -59 30z
M4920 3361 c13 -25 71 -61 98 -61 11 0 27 -7 36 -15 20 -21 26 -19 26 8 0 33
-30 57 -71 57 -19 0 -47 7 -63 15 -36 19 -39 19 -26 -4z M3541 3160 c-56 -20
-87 -41 -177 -120 -65 -57 -117 -83 -199 -100 -54 -11 -58 -14 -35 -22 71 -27
188 23 300 125 45 42 102 86 126 97 24 12 44 26 44 31 0 11 6 12 -59 -11z
M1442 1853 c-11 -27 -28 -86 -37 -133 -38 -189 -115 -342 -238 -475 -126 -138
-268 -224 -439 -266 -99 -25 -107 -44 -14 -34 134 16 244 62 357 153 197 157
318 350 359 573 12 63 27 140 34 172 15 69 6 74 -22 10z"/>
</g>
</svg>
