<?xml version="1.0" standalone="no"?>
<!DOCTYPE svg PUBLIC "-//W3C//DTD SVG 20010904//EN"
 "http://www.w3.org/TR/2001/REC-SVG-20010904/DTD/svg10.dtd">
<svg version="1.0" xmlns="http://www.w3.org/2000/svg"
 width="600.000000pt" height="430.000000pt" viewBox="0 0 600.000000 430.000000"
 preserveAspectRatio="xMidYMid meet">
<metadata>
Created by potrace 1.16, written by Peter Selinger 2001-2019
</metadata>
<g transform="translate(0.000000,430.000000) scale(0.100000,-0.100000)"
fill="#f1ead8" stroke="none">
<path d="M4265 3844 c-156 -31 -187 -43 -303 -121 -97 -66 -155 -77 -238 -49
-65 22 -71 20 -43 -10 34 -38 83 -56 169 -63 l75 -6 -87 -48 c-136 -75 -188
-91 -298 -91 -87 -1 -101 2 -164 32 -76 36 -76 36 -76 23 0 -33 124 -113 218
-141 41 -13 57 -30 27 -30 -36 0 -132 -46 -188 -92 -103 -83 -129 -93 -229
-92 -49 1 -88 -2 -88 -7 0 -4 20 -15 45 -25 85 -32 182 -7 275 71 72 60 122
84 244 115 64 17 132 37 151 45 48 19 46 36 -2 23 -46 -13 -161 -5 -223 15
l-45 15 65 1 c119 2 209 35 400 150 130 78 301 137 300 104 0 -5 -35 -27 -78
-51 -126 -70 -209 -137 -372 -306 -396 -410 -490 -493 -674 -595 -182 -100
-351 -151 -650 -196 -93 -14 -198 -32 -234 -40 -154 -36 -315 -122 -412 -219
l-55 -56 -100 0 c-179 0 -336 -54 -480 -163 -134 -102 -231 -242 -315 -455
-46 -117 -105 -180 -219 -234 -199 -94 -296 -201 -336 -370 -16 -67 -20 -158
-7 -158 4 0 20 20 35 44 62 98 150 151 331 201 277 75 422 229 486 515 20 91
101 247 165 317 89 99 237 188 348 210 l29 6 -26 -41 c-73 -116 -99 -284 -72
-461 20 -129 20 -154 1 -218 -20 -67 -86 -140 -164 -182 -73 -39 -97 -67 -116
-140 -62 -231 -103 -320 -187 -403 -60 -59 -78 -91 -78 -134 0 -22 -4 -24 -47
-24 -62 0 -106 -27 -134 -82 -29 -56 -49 -132 -49 -185 0 -40 2 -43 27 -43 55
0 186 75 254 145 35 37 76 73 91 81 68 36 100 78 164 212 129 272 221 361 627
612 149 93 234 182 319 338 32 59 175 127 324 156 44 8 168 24 275 36 449 48
674 113 864 248 44 32 57 35 120 37 89 2 123 18 381 173 274 165 322 183 309
120 -11 -49 -55 -126 -90 -155 -42 -35 -65 -73 -65 -106 0 -24 -3 -27 -20 -22
-36 11 -78 8 -103 -8 -34 -22 -97 -147 -104 -208 l-6 -52 53 6 c69 8 187 64
242 115 24 22 61 49 83 60 60 30 74 51 115 177 21 63 56 148 78 188 22 39 43
86 46 104 16 70 -34 153 -102 170 -16 4 -82 -7 -177 -30 -211 -51 -222 -53
-207 -35 31 38 44 105 46 253 3 168 16 222 69 301 36 54 96 99 145 109 32 7
32 6 32 -31 0 -79 60 -158 158 -208 26 -13 80 -58 120 -99 70 -73 72 -76 72
-125 0 -44 4 -54 31 -76 17 -14 34 -26 39 -26 5 0 15 -3 24 -6 31 -12 16 24
-19 45 -33 19 -35 24 -35 70 0 42 -5 57 -32 88 -75 90 -127 136 -179 163 -128
65 -167 167 -108 281 26 52 8 57 -34 9 -22 -26 -42 -40 -58 -40 -13 0 -46 -11
-74 -24 -124 -58 -201 -215 -193 -398 3 -76 3 -77 -17 -59 -42 39 -88 54 -160
54 -68 0 -160 -26 -150 -43 2 -4 48 -5 102 -3 76 4 107 1 136 -11 45 -20 77
-68 77 -117 0 -48 -39 -121 -70 -130 -14 -4 -47 -13 -73 -19 -88 -23 -177
-101 -177 -155 0 -13 13 -5 50 29 64 59 110 80 230 101 52 9 157 32 233 51
168 41 199 42 232 9 39 -38 34 -87 -20 -192 -24 -48 -58 -131 -76 -183 -39
-119 -48 -134 -107 -164 -26 -13 -60 -38 -77 -56 -57 -61 -215 -124 -215 -86
0 24 54 139 73 154 10 9 34 12 64 10 44 -3 48 -5 53 -33 l6 -30 22 35 c12 19
20 41 17 48 -20 53 -17 61 35 113 55 55 110 155 110 200 0 40 -23 63 -62 62
-44 -1 -101 -30 -327 -166 -203 -122 -277 -156 -336 -157 -58 0 -81 21 -127
117 -41 86 -96 143 -139 143 -30 0 -31 -18 -2 -34 44 -22 71 -57 99 -127 14
-35 34 -75 44 -89 l18 -26 -56 -36 c-200 -128 -375 -177 -807 -228 -334 -40
-430 -62 -541 -124 -24 -14 -44 -23 -44 -20 0 2 14 35 31 72 52 113 69 161 59
167 -14 8 -55 -52 -96 -140 -151 -329 -181 -368 -379 -496 -66 -43 -160 -104
-209 -135 -121 -79 -228 -174 -297 -264 -56 -72 -86 -126 -164 -293 -28 -61
-45 -84 -77 -105 -22 -15 -62 -46 -88 -70 -46 -41 -48 -42 -54 -20 -11 43 -6
73 14 86 14 8 20 23 20 49 0 31 9 46 65 104 79 82 130 182 175 348 39 143 40
146 102 177 70 36 153 116 182 178 35 72 40 126 22 238 -39 238 -4 393 127
563 94 122 260 229 427 274 41 11 155 32 252 46 417 59 667 162 933 385 45 37
171 161 280 275 245 255 296 304 393 378 71 53 195 123 282 157 l35 14 -67 4
c-38 1 -68 7 -68 11 0 12 161 31 260 31 67 0 81 3 72 12 -8 8 -53 14 -126 16
-132 5 -221 -11 -388 -67 -182 -62 -197 -62 -106 -3 93 61 118 75 181 96 162
54 390 33 565 -52 49 -24 54 -24 69 -9 21 20 25 17 -77 60 -136 57 -344 91
-445 71z m-2608 -1700 c-112 -27 -233 -99 -333 -199 -79 -78 -98 -103 -137
-185 -25 -52 -57 -139 -72 -194 -33 -125 -61 -186 -118 -261 -76 -101 -151
-145 -337 -200 -140 -41 -204 -71 -260 -121 l-39 -35 11 38 c35 130 134 237
286 309 165 78 211 129 291 320 58 139 105 216 181 297 146 156 337 245 525
245 l60 0 -58 -14z m-617 -1702 c0 -15 5 -43 10 -62 9 -32 8 -37 -17 -58 -27
-21 -124 -72 -139 -72 -12 0 5 89 28 142 31 72 118 110 118 50z M4930 3819
c-51 -31 -87 -67 -131 -131 -21 -31 -52 -62 -69 -69 -38 -17 -39 -29 -2 -29
38 0 64 21 112 89 22 31 55 68 72 81 l31 23 -7 -39 c-4 -22 -18 -59 -32 -83
-13 -24 -22 -46 -19 -49 9 -9 52 27 64 55 10 24 97 80 108 69 1 -1 -13 -27
-32 -57 -19 -30 -35 -48 -35 -41 0 14 -30 17 -30 3 0 -5 36 -76 79 -158 59
-110 84 -170 100 -235 11 -47 41 -157 66 -244 57 -200 57 -221 2 -281 -28 -32
-37 -29 -37 11 0 46 10 72 21 54 12 -19 32 4 27 33 -4 32 -21 34 -54 5 -26
-22 -29 -30 -29 -85 1 -53 -2 -61 -18 -61 -16 0 -17 -3 -7 -15 33 -40 123 2
160 75 29 58 25 99 -30 293 -27 96 -57 208 -65 248 -9 40 -26 91 -39 114 -13
22 -45 79 -70 127 l-47 88 31 38 c44 55 89 182 64 182 -3 0 -23 -13 -43 -28
-20 -15 -49 -36 -65 -46 l-29 -18 7 26 c3 14 9 37 12 51 8 32 -17 34 -66 4z
M4910 3371 c0 -14 72 -71 90 -71 8 0 28 -7 44 -15 41 -22 49 -19 42 13 -9 36
-32 52 -75 52 -20 1 -47 7 -61 15 -30 17 -40 18 -40 6z M3555 3166 c-64 -20
-95 -40 -170 -106 -82 -73 -127 -98 -205 -113 -72 -15 -72 -32 0 -32 85 0 139
27 237 117 49 44 109 91 135 104 75 38 76 53 3 30z M1461 1897 c-17 -21 -40
-93 -63 -197 -78 -362 -338 -640 -675 -721 -51 -12 -90 -26 -87 -30 16 -27
200 9 296 57 188 94 381 308 458 506 17 43 41 139 55 215 13 76 27 148 31 161
7 25 2 28 -15 9z"/>
</g>
</svg>
