<?xml version="1.0" standalone="no"?>
<!DOCTYPE svg PUBLIC "-//W3C//DTD SVG 20010904//EN"
 "http://www.w3.org/TR/2001/REC-SVG-20010904/DTD/svg10.dtd">
<svg version="1.0" xmlns="http://www.w3.org/2000/svg"
 width="600.000000pt" height="430.000000pt" viewBox="0 0 600.000000 430.000000"
 preserveAspectRatio="xMidYMid meet">
<metadata>
Created by potrace 1.16, written by Peter Selinger 2001-2019
</metadata>
<g transform="translate(0.000000,430.000000) scale(0.100000,-0.100000)"
fill="#f1ead8" stroke="none">
<path d="M4265 3844 c-108 -22 -138 -30 -189 -56 -32 -16 -90 -50 -128 -76
-58 -39 -79 -46 -128 -50 -40 -3 -73 1 -100 12 -22 9 -46 16 -52 16 -19 0 24
-41 67 -63 31 -16 59 -21 122 -22 46 0 83 -1 83 -1 0 -1 -39 -24 -87 -51 -49
-28 -115 -60 -147 -72 -32 -12 -93 -25 -135 -28 -56 -4 -92 -1 -134 11 -31 9
-73 26 -92 37 -20 12 -39 19 -42 15 -4 -3 9 -23 28 -42 36 -39 151 -100 206
-110 18 -3 33 -10 33 -14 0 -4 -17 -10 -37 -13 -21 -4 -60 -18 -88 -31 -27
-14 -75 -46 -105 -71 -85 -70 -112 -80 -212 -79 -67 0 -85 -2 -78 -11 17 -21
97 -38 145 -32 25 4 62 15 83 26 20 11 59 38 87 61 27 23 71 53 97 66 25 13
94 35 152 49 59 13 123 33 144 44 l37 19 -81 -5 c-61 -4 -100 -1 -155 13 l-74
19 80 6 c44 4 100 12 125 19 53 14 145 60 258 128 45 28 116 64 156 81 43 18
92 31 116 31 23 0 39 -4 36 -9 -3 -4 -35 -23 -71 -42 -37 -19 -106 -63 -153
-98 -48 -36 -152 -133 -232 -215 -293 -304 -407 -414 -507 -489 -112 -83 -299
-179 -428 -221 -108 -34 -231 -60 -410 -86 -82 -11 -179 -28 -215 -37 -83 -20
-198 -67 -275 -112 -33 -20 -89 -64 -125 -97 l-65 -61 -125 -6 c-90 -3 -145
-11 -195 -27 -38 -12 -99 -37 -135 -55 -36 -18 -97 -58 -136 -88 -39 -30 -95
-86 -126 -124 -31 -37 -72 -97 -91 -133 -20 -36 -52 -106 -72 -157 -20 -50
-51 -112 -69 -138 -18 -25 -48 -57 -67 -71 -19 -14 -74 -46 -124 -70 -49 -25
-110 -61 -136 -81 -26 -19 -63 -57 -83 -83 -19 -25 -46 -71 -60 -101 -13 -30
-28 -78 -35 -107 -13 -60 -15 -142 -3 -142 4 0 20 20 35 44 15 25 45 60 67 80
22 19 61 46 87 59 26 14 104 41 173 62 69 20 152 51 185 68 33 18 90 61 126
97 45 44 78 89 103 137 20 40 50 123 66 185 17 62 50 151 73 198 32 66 59 103
122 166 47 47 107 96 146 117 63 36 168 77 195 77 8 0 2 -19 -17 -52 -16 -29
-38 -81 -48 -114 -30 -96 -35 -184 -17 -321 9 -67 16 -137 16 -155 0 -19 -7
-56 -17 -83 -11 -34 -34 -67 -72 -105 -31 -30 -79 -67 -108 -82 -29 -15 -59
-38 -68 -51 -8 -13 -31 -81 -50 -151 -20 -72 -52 -162 -75 -205 -27 -52 -61
-97 -100 -135 -53 -50 -60 -61 -60 -96 0 -21 -4 -41 -10 -45 -5 -3 -31 -7 -59
-9 -27 -1 -60 -10 -74 -19 -14 -9 -37 -41 -52 -71 -28 -58 -53 -172 -42 -199
3 -9 16 -17 28 -17 12 0 55 16 96 36 52 25 100 60 162 117 48 45 101 89 118
98 16 9 42 32 56 50 14 19 42 72 62 119 21 47 55 115 77 151 21 36 62 94 91
127 30 34 89 91 133 127 43 37 149 109 234 162 85 52 183 117 218 144 34 27
82 75 107 106 24 32 58 84 74 118 25 50 39 66 85 94 31 18 85 44 120 57 34 12
96 29 137 38 41 8 164 25 274 36 110 11 241 28 290 36 190 32 352 84 481 153
41 23 91 53 111 68 31 24 46 28 102 28 57 0 78 6 151 41 47 22 128 67 180 99
209 127 298 176 333 182 32 5 37 3 37 -13 0 -37 -50 -125 -101 -179 -37 -39
-52 -63 -54 -87 l-3 -33 -54 3 c-48 3 -57 1 -82 -25 -16 -15 -42 -56 -59 -91
-16 -35 -32 -83 -35 -108 -5 -43 -4 -44 25 -44 35 0 120 28 182 59 24 13 62
40 84 60 23 21 61 48 84 59 23 12 50 34 61 49 11 16 32 69 47 118 15 50 49
133 75 185 27 52 52 107 55 122 4 15 1 44 -5 65 -7 21 -22 48 -33 61 -12 12
-37 27 -57 33 -32 10 -57 6 -181 -24 -79 -20 -161 -39 -181 -42 l-36 -7 21 44
c19 37 23 67 28 213 7 178 15 218 63 300 14 22 37 52 53 67 29 28 90 58 118
58 10 0 15 -9 15 -26 0 -47 22 -103 57 -143 18 -22 58 -52 87 -66 34 -16 82
-56 130 -104 74 -77 76 -80 76 -128 0 -39 5 -54 23 -71 13 -13 38 -27 55 -32
25 -6 32 -5 32 5 0 7 -16 22 -35 34 -32 19 -35 24 -35 69 0 41 -6 55 -37 93
-76 91 -120 132 -174 159 -30 16 -72 46 -92 69 -20 22 -39 55 -43 75 -3 20 -3
51 0 69 3 18 15 49 26 69 11 21 16 39 11 42 -9 6 -56 -41 -63 -63 -2 -7 -21
-14 -46 -16 -23 -2 -62 -15 -87 -29 -24 -14 -58 -43 -75 -63 -17 -21 -41 -61
-55 -89 -13 -27 -29 -80 -35 -118 -7 -37 -10 -95 -8 -130 l4 -63 -44 31 c-38
27 -53 31 -120 34 -48 2 -92 -2 -116 -11 -22 -7 -41 -18 -43 -23 -2 -5 36 -7
89 -5 50 2 108 -2 128 -8 20 -6 47 -22 60 -36 15 -16 24 -40 27 -72 4 -37 -1
-58 -19 -93 -15 -28 -34 -48 -49 -52 -135 -37 -142 -40 -195 -92 -36 -35 -54
-60 -54 -76 0 -22 4 -21 48 22 26 26 67 56 92 67 25 11 86 27 135 36 50 9 156
32 237 51 80 20 163 34 184 32 26 -2 43 -11 57 -29 10 -15 19 -42 19 -61 0
-21 -18 -70 -47 -127 -25 -51 -60 -134 -76 -185 -17 -50 -37 -101 -45 -113 -8
-13 -33 -32 -57 -44 -23 -12 -65 -43 -94 -69 -32 -29 -73 -55 -110 -68 -32
-11 -68 -24 -80 -27 -21 -6 -21 -4 -11 32 13 48 52 126 71 141 8 7 38 11 69 9
50 -2 54 -4 50 -24 -2 -13 1 -23 6 -23 21 0 34 42 28 87 -6 43 -4 46 45 96 51
53 109 157 109 197 0 12 -5 30 -10 41 -8 13 -21 19 -48 19 -20 0 -59 -11 -87
-24 -27 -12 -126 -69 -220 -126 -93 -57 -202 -118 -242 -137 -85 -39 -147 -44
-186 -13 -14 11 -44 58 -66 104 -41 85 -73 118 -123 131 -14 4 -29 2 -32 -4
-4 -5 6 -17 22 -25 17 -9 41 -29 55 -45 14 -17 35 -56 47 -87 11 -31 30 -68
40 -82 20 -24 20 -24 -3 -41 -50 -39 -146 -92 -217 -120 -105 -42 -229 -76
-340 -95 -52 -9 -192 -27 -310 -41 -118 -14 -240 -30 -270 -36 -79 -15 -198
-55 -247 -84 -24 -13 -43 -22 -43 -19 0 2 20 50 45 106 25 56 45 111 45 122 0
19 -1 19 -21 1 -20 -19 -40 -58 -153 -299 -51 -107 -64 -127 -139 -200 -54
-55 -117 -103 -187 -146 -191 -116 -307 -200 -390 -281 -44 -44 -105 -117
-134 -162 -29 -45 -72 -125 -95 -178 -23 -52 -48 -105 -57 -117 -8 -12 -41
-40 -72 -61 -31 -21 -68 -51 -81 -65 -18 -19 -27 -23 -33 -14 -4 7 -8 29 -8
48 0 25 6 39 21 48 17 11 20 20 15 44 -5 27 1 37 58 97 65 68 113 142 142 221
9 25 28 90 44 146 15 55 33 110 39 122 6 12 35 34 63 48 57 29 138 101 168
149 11 17 27 59 35 93 15 57 15 72 1 167 -9 58 -16 141 -16 183 0 43 7 105 15
137 8 33 31 92 51 132 20 39 60 100 89 135 29 36 81 86 116 112 35 27 94 63
131 82 37 19 106 45 153 59 47 13 150 34 228 45 242 34 364 62 512 117 164 61
341 168 485 295 82 72 397 395 413 424 15 26 201 186 275 236 74 50 226 128
248 128 7 0 16 5 20 11 4 7 -8 10 -37 9 -68 -3 -89 -1 -89 8 0 13 152 32 255
32 68 0 86 3 77 12 -7 7 -56 13 -119 16 -132 5 -236 -13 -389 -67 -60 -21
-129 -42 -154 -45 l-45 -7 50 29 c28 16 77 46 110 66 33 20 87 45 120 55 33
10 89 22 125 25 36 4 105 2 153 -4 94 -11 225 -49 289 -82 36 -19 41 -19 55
-5 14 14 12 17 -23 35 -70 35 -184 72 -271 87 -80 14 -182 18 -228 9z m-2590
-1695 c-27 -5 -97 -33 -155 -61 -91 -45 -117 -64 -195 -142 -64 -64 -101 -112
-127 -161 -20 -38 -55 -133 -78 -210 -23 -77 -56 -167 -73 -200 -18 -33 -57
-85 -87 -115 -30 -30 -87 -72 -126 -92 -38 -20 -121 -51 -184 -68 -63 -17
-136 -43 -162 -57 -27 -15 -67 -42 -89 -62 -39 -33 -41 -33 -35 -10 4 13 23
56 42 95 46 96 125 170 242 225 48 23 110 59 137 79 28 20 63 56 79 78 15 23
53 98 83 169 30 70 74 157 98 193 25 37 80 101 123 142 79 75 168 133 252 164
76 27 162 42 235 42 l70 0 -50 -9z m-628 -1741 c7 -42 7 -67 1 -75 -13 -16
-105 -68 -137 -78 -24 -7 -24 -7 -18 44 3 28 17 72 30 98 24 48 55 73 93 73
17 0 22 -9 31 -62z M4925 3814 c-58 -39 -92 -72 -126 -126 -17 -26 -47 -58
-67 -70 l-37 -23 27 -3 c15 -2 39 5 53 14 15 10 44 43 66 75 21 31 52 67 68
78 16 12 32 21 35 21 9 0 -21 -88 -43 -126 -12 -20 -20 -39 -17 -42 3 -2 17 3
31 12 13 9 27 27 31 41 4 17 24 34 60 54 30 16 54 26 54 23 0 -4 -14 -31 -31
-61 -23 -39 -34 -50 -42 -42 -15 15 -29 14 -25 -1 2 -7 38 -78 80 -158 56
-107 82 -168 97 -231 11 -47 40 -155 65 -239 25 -85 46 -168 46 -186 0 -18 -4
-44 -10 -58 -10 -28 -45 -66 -60 -66 -13 0 -13 87 -1 94 5 4 11 1 13 -6 2 -6
10 -8 16 -4 14 9 16 52 2 61 -15 10 -49 -13 -65 -45 -8 -16 -15 -41 -15 -55 0
-15 5 -35 10 -46 9 -17 7 -19 -16 -19 -22 0 -25 -2 -14 -15 7 -8 25 -15 40
-15 15 0 42 10 61 23 18 12 44 40 56 62 13 23 23 57 23 80 0 22 -24 126 -54
230 -30 105 -59 217 -66 250 -7 33 -27 85 -45 115 -18 30 -49 88 -70 129 -36
72 -36 74 -18 95 11 11 26 32 35 47 23 37 50 120 44 136 -4 10 -18 4 -52 -22
-25 -19 -55 -40 -66 -46 -19 -10 -20 -9 -14 26 4 20 10 43 13 51 9 23 -28 17
-72 -12z M4910 3371 c0 -5 17 -23 37 -40 21 -17 47 -31 58 -31 12 0 30 -7 41
-15 10 -8 22 -15 27 -15 4 0 7 11 7 24 0 14 -7 32 -16 40 -8 9 -32 16 -52 16
-20 1 -48 7 -62 15 -14 8 -28 14 -32 15 -5 0 -8 -4 -8 -9z M3545 3162 c-28
-10 -66 -29 -85 -42 -19 -14 -59 -47 -89 -74 -30 -26 -79 -60 -109 -74 -30
-13 -75 -27 -99 -30 -24 -2 -46 -8 -49 -13 -8 -14 43 -22 93 -14 26 4 67 16
91 27 24 12 80 54 124 95 45 41 102 85 129 98 44 23 71 45 52 45 -4 -1 -31 -8
-58 -18z M1444 1863 c-8 -21 -26 -85 -39 -143 -13 -58 -35 -136 -49 -174 -15
-38 -40 -93 -57 -123 -50 -87 -142 -196 -226 -268 -48 -42 -112 -83 -168 -110
-49 -24 -129 -54 -177 -66 -49 -12 -88 -25 -88 -30 0 -23 156 1 246 38 35 14
91 42 123 63 32 21 90 68 129 105 39 36 96 99 126 138 30 40 75 115 101 168
34 70 51 124 66 200 11 57 25 134 33 172 7 37 9 67 4 67 -4 0 -15 -17 -24 -37z"/>
</g>
</svg>
