<?xml version="1.0" standalone="no"?>
<!DOCTYPE svg PUBLIC "-//W3C//DTD SVG 20010904//EN"
 "http://www.w3.org/TR/2001/REC-SVG-20010904/DTD/svg10.dtd">
<svg version="1.0" xmlns="http://www.w3.org/2000/svg"
 width="600.000000pt" height="430.000000pt" viewBox="0 0 600.000000 430.000000"
 preserveAspectRatio="xMidYMid meet">
<metadata>
Created by potrace 1.16, written by Peter Selinger 2001-2019
</metadata>
<g transform="translate(0.000000,430.000000) scale(0.100000,-0.100000)"
fill="#f1ead8" stroke="none">
<path d="M4223 3835 c-40 -7 -103 -27 -140 -44 -36 -17 -89 -48 -116 -67 -28
-20 -65 -43 -83 -50 -19 -8 -56 -14 -84 -14 -28 0 -67 7 -87 15 -19 8 -40 15
-46 15 -18 0 27 -41 68 -63 30 -16 60 -21 122 -21 46 -1 83 -2 83 -2 0 -1 -39
-24 -87 -52 -49 -27 -115 -60 -148 -72 -33 -12 -94 -24 -135 -27 -55 -4 -92
-1 -135 11 -33 10 -75 26 -94 37 -18 11 -36 17 -39 14 -3 -3 10 -22 29 -41 36
-39 151 -100 206 -110 36 -7 45 -24 13 -24 -41 0 -128 -43 -203 -101 -42 -33
-96 -67 -120 -75 -30 -12 -62 -14 -116 -10 -61 5 -72 4 -62 -8 18 -22 96 -39
143 -32 24 4 61 16 83 26 22 11 62 38 90 61 27 22 71 52 97 65 25 13 94 35
152 49 59 13 123 33 144 44 l37 19 -82 -5 c-61 -4 -101 -1 -160 13 l-78 19 90
7 c50 3 113 14 140 23 63 22 115 48 234 119 52 30 127 69 167 86 40 17 91 30
113 30 23 0 41 -3 41 -8 0 -4 -31 -22 -69 -41 -38 -18 -109 -63 -158 -100 -48
-36 -151 -131 -228 -211 -296 -306 -413 -419 -511 -491 -55 -42 -145 -98 -200
-126 -54 -28 -144 -67 -200 -86 -116 -41 -241 -69 -404 -92 -63 -9 -150 -23
-193 -31 -137 -27 -263 -77 -367 -147 -25 -16 -70 -53 -100 -82 l-55 -53 -125
-5 c-89 -3 -145 -11 -195 -27 -38 -12 -104 -40 -145 -62 -41 -22 -105 -64
-142 -94 -36 -29 -96 -93 -132 -141 -40 -54 -82 -125 -107 -183 -78 -181 -96
-215 -136 -256 -25 -26 -81 -62 -149 -95 -75 -38 -127 -72 -171 -113 -35 -33
-75 -78 -89 -101 -13 -23 -33 -68 -44 -101 -23 -65 -39 -204 -24 -204 5 0 18
16 29 36 10 20 43 57 71 83 29 27 73 58 97 69 25 12 101 38 169 57 67 20 150
51 183 68 33 18 90 62 127 98 49 50 76 88 106 150 22 46 52 129 67 184 14 55
44 138 67 185 33 68 57 101 127 170 71 71 102 94 181 132 52 26 112 50 133 54
l37 6 -25 -43 c-36 -62 -72 -183 -80 -264 -4 -44 -1 -113 9 -185 9 -63 16
-131 16 -151 0 -19 -7 -57 -17 -84 -11 -34 -34 -67 -72 -105 -31 -30 -79 -67
-108 -82 -29 -15 -59 -39 -68 -52 -9 -13 -29 -75 -46 -138 -16 -62 -47 -151
-69 -196 -29 -60 -59 -103 -105 -151 -56 -58 -65 -73 -65 -104 0 -20 -6 -39
-12 -43 -7 -5 -33 -8 -59 -9 -26 -1 -58 -9 -72 -18 -14 -9 -37 -41 -52 -70
-28 -58 -52 -175 -41 -202 5 -14 14 -16 39 -11 17 3 61 20 96 37 39 20 96 62
150 113 48 44 101 88 118 97 16 9 42 32 56 50 14 19 42 71 61 117 20 46 53
113 75 150 22 37 66 98 98 135 32 37 94 97 138 132 44 35 150 107 235 159 85
53 181 116 212 141 32 24 76 68 99 97 22 29 56 82 74 118 28 55 42 70 89 99
31 18 85 44 120 57 35 13 100 30 143 39 43 8 182 26 308 40 127 14 275 35 330
46 121 24 281 77 367 120 35 17 90 50 123 73 55 38 65 41 125 41 54 0 78 6
144 38 43 20 158 85 255 144 171 104 277 157 293 147 4 -3 8 -13 8 -22 0 -35
-51 -124 -100 -176 -37 -39 -51 -62 -53 -87 l-3 -34 -54 3 c-51 3 -57 1 -87
-30 -18 -18 -44 -60 -59 -92 -15 -32 -29 -78 -32 -102 -4 -41 -3 -44 20 -44
34 0 125 28 178 55 25 13 62 39 84 59 21 20 60 48 86 61 27 14 57 37 68 52 11
16 32 68 47 118 15 49 47 130 72 180 25 49 50 103 54 119 11 36 -4 94 -32 129
-11 15 -37 32 -58 38 -32 10 -55 7 -177 -24 -76 -19 -158 -38 -181 -42 l-42
-7 21 44 c19 37 23 68 29 213 7 178 15 218 63 300 14 22 37 52 53 67 29 28 90
58 118 58 10 0 15 -10 15 -32 0 -18 11 -56 24 -83 13 -28 38 -64 57 -79 19
-16 52 -37 74 -47 22 -10 75 -53 117 -96 77 -77 78 -79 78 -130 0 -45 4 -54
31 -77 17 -14 41 -26 55 -26 13 0 24 4 24 9 0 5 -16 18 -35 30 -32 19 -35 24
-35 69 0 47 -3 54 -75 136 -56 63 -91 94 -134 115 -31 16 -74 47 -94 70 -20
22 -39 55 -43 75 -3 20 -3 53 1 74 4 20 16 52 27 71 20 31 20 33 2 29 -10 -2
-28 -18 -41 -37 -19 -27 -30 -34 -64 -36 -23 -2 -61 -16 -87 -32 -26 -16 -64
-51 -84 -78 -21 -28 -48 -79 -60 -115 -17 -50 -22 -89 -23 -165 l0 -101 -43
30 c-38 27 -54 31 -120 34 -48 2 -92 -2 -116 -11 -22 -7 -41 -18 -43 -23 -2
-5 36 -7 89 -5 50 2 108 -2 128 -8 20 -6 47 -22 60 -36 15 -16 24 -40 27 -72
3 -36 -1 -59 -19 -93 -15 -29 -32 -48 -48 -52 -140 -40 -146 -43 -197 -93 -35
-34 -53 -59 -53 -75 0 -22 4 -21 48 22 26 26 68 56 94 68 26 11 95 29 153 40
58 11 161 33 229 50 68 16 141 30 163 30 45 0 66 -18 84 -68 10 -30 6 -42 -44
-150 -31 -64 -67 -152 -81 -196 -14 -43 -32 -89 -41 -102 -8 -13 -33 -33 -55
-44 -22 -11 -65 -43 -94 -69 -49 -44 -113 -77 -188 -95 -26 -6 -26 -6 -16 32
13 47 52 125 71 140 8 7 38 11 70 9 53 -2 56 -3 50 -24 -7 -29 13 -30 28 -2 6
13 8 39 4 64 -6 42 -4 45 54 110 38 42 67 86 80 121 12 30 21 62 21 70 0 8 -5
24 -10 35 -8 14 -21 19 -48 19 -20 0 -55 -9 -78 -19 -22 -10 -121 -67 -220
-126 -98 -59 -210 -123 -249 -141 -84 -41 -148 -45 -189 -13 -14 11 -44 58
-66 104 -40 84 -71 117 -122 130 -14 4 -29 2 -32 -4 -4 -5 6 -17 21 -25 15 -8
38 -25 50 -38 12 -12 36 -54 53 -93 17 -38 39 -78 47 -88 15 -16 15 -19 -3
-32 -44 -35 -154 -96 -223 -125 -88 -36 -222 -73 -341 -94 -47 -9 -186 -27
-310 -41 -124 -14 -269 -36 -323 -50 -54 -13 -129 -39 -167 -58 -64 -30 -70
-31 -64 -13 4 12 24 59 45 105 22 46 39 93 39 104 0 20 0 20 -21 1 -20 -18
-51 -79 -150 -294 -58 -126 -127 -210 -238 -291 -20 -15 -85 -57 -146 -94 -60
-37 -145 -92 -188 -123 -42 -30 -108 -86 -147 -124 -38 -37 -89 -97 -114 -132
-26 -35 -75 -124 -110 -197 -35 -74 -74 -143 -87 -155 -13 -11 -40 -30 -59
-42 -19 -11 -48 -34 -64 -51 -22 -23 -32 -28 -38 -19 -4 7 -8 28 -8 46 0 19 8
40 21 53 13 13 19 28 15 42 -3 11 -1 27 4 36 5 9 35 43 68 77 39 40 72 87 95
135 20 41 52 129 71 197 20 68 41 132 46 143 6 10 34 31 62 45 28 14 75 49
104 76 29 28 62 69 74 92 11 23 24 66 30 95 7 39 6 78 -5 152 -8 54 -15 134
-15 177 0 43 7 105 15 137 8 33 31 92 51 132 20 39 60 100 89 135 29 36 81 86
116 112 35 27 91 62 124 79 33 16 91 40 129 53 38 13 130 33 205 45 243 37
394 69 512 109 64 21 150 55 190 75 105 53 220 129 324 216 50 42 162 152 250
245 88 93 200 209 249 257 49 48 122 112 162 143 89 66 191 125 262 150 28 10
52 22 52 26 0 4 -25 7 -55 6 -30 -1 -58 2 -62 5 -3 4 -4 9 -2 11 9 9 166 26
245 26 46 0 84 4 84 9 0 25 -206 28 -318 5 -42 -9 -136 -36 -208 -60 -72 -24
-142 -44 -155 -44 -19 0 -12 7 30 30 30 17 62 36 70 44 26 22 113 63 176 82
45 14 90 18 180 17 98 -1 136 -6 210 -28 50 -14 114 -38 144 -51 49 -23 55
-24 69 -10 14 14 10 18 -49 45 -35 16 -96 38 -134 50 -83 24 -190 41 -260 40
-27 0 -83 -7 -122 -14z m-2540 -1685 c-57 -12 -151 -51 -221 -91 -31 -19 -95
-72 -142 -119 -59 -59 -97 -107 -122 -155 -20 -38 -53 -126 -73 -195 -19 -69
-52 -158 -71 -198 -23 -46 -57 -94 -92 -130 -33 -34 -87 -73 -128 -94 -38 -21
-121 -51 -184 -68 -63 -17 -136 -43 -162 -57 -27 -15 -67 -42 -89 -62 -39 -32
-41 -33 -34 -10 4 13 20 52 36 87 16 37 52 87 85 122 43 45 79 70 153 106 53
26 119 64 146 84 28 20 63 56 79 78 15 23 52 98 82 167 29 69 69 149 87 178
19 28 51 72 72 97 79 95 208 187 315 226 76 27 162 42 235 42 65 0 67 -1 28
-8z m-635 -1742 c8 -51 7 -66 -4 -79 -18 -21 -139 -82 -152 -78 -14 6 14 125
39 165 22 36 48 52 85 53 18 1 23 -7 32 -61z M4925 3814 c-58 -39 -92 -72
-126 -126 -17 -26 -47 -58 -67 -70 l-37 -23 27 -3 c15 -2 39 5 53 14 15 10 44
43 66 75 21 31 52 67 68 78 16 12 32 21 35 21 10 0 -26 -105 -46 -133 -11 -16
-18 -31 -14 -34 3 -3 17 2 31 11 13 9 27 27 31 41 4 17 24 34 60 54 30 16 54
26 54 23 0 -4 -14 -31 -31 -61 -23 -39 -34 -50 -42 -42 -13 13 -27 14 -27 3 0
-5 35 -74 79 -154 57 -104 83 -166 95 -219 10 -41 39 -151 67 -244 27 -94 49
-185 49 -202 0 -18 -4 -43 -10 -57 -10 -28 -45 -66 -60 -66 -13 0 -13 87 -1
94 5 4 11 1 13 -6 2 -6 10 -8 16 -4 14 9 16 52 2 61 -15 10 -49 -13 -65 -45
-8 -16 -15 -41 -15 -55 0 -15 5 -35 10 -46 9 -16 7 -19 -10 -19 -33 0 -18 -25
16 -28 18 -2 43 6 64 20 19 13 45 43 58 68 12 24 22 60 22 80 0 20 -22 113
-50 207 -27 94 -57 206 -66 249 -9 43 -27 94 -39 114 -13 20 -44 78 -69 128
l-46 92 30 41 c27 37 70 136 70 159 0 16 -20 11 -53 -14 -18 -13 -45 -32 -61
-42 l-29 -18 7 38 c4 20 10 44 13 52 9 23 -28 17 -72 -12z M4910 3371 c0 -5
17 -23 37 -40 21 -17 49 -31 64 -31 15 0 32 -7 39 -15 7 -8 16 -15 21 -15 5 0
9 11 9 23 0 13 -8 31 -18 40 -10 10 -34 17 -53 17 -19 0 -47 7 -63 15 -15 8
-30 15 -32 15 -2 0 -4 -4 -4 -9z M3545 3162 c-28 -10 -66 -29 -85 -42 -19 -14
-59 -46 -87 -72 -29 -26 -69 -56 -90 -67 -36 -18 -84 -33 -148 -46 -27 -6 -28
-8 -11 -17 26 -15 117 -2 172 23 25 12 84 57 131 100 47 43 105 88 129 100 24
11 44 25 44 30 0 5 -1 9 -2 9 -2 -1 -26 -8 -53 -18z M1444 1863 c-8 -21 -26
-86 -39 -144 -13 -59 -37 -142 -54 -185 -17 -44 -52 -113 -79 -154 -27 -42
-77 -106 -111 -143 -35 -37 -91 -88 -125 -113 -33 -26 -96 -64 -138 -84 -42
-21 -117 -48 -167 -60 -50 -12 -91 -27 -91 -32 0 -17 131 0 208 26 38 13 84
31 103 41 59 30 162 111 225 177 33 35 79 88 101 119 23 30 59 92 81 136 44
86 74 190 92 318 6 44 15 92 20 108 14 41 -7 33 -26 -10z"/>
</g>
</svg>
