<?xml version="1.0" standalone="no"?>
<!DOCTYPE svg PUBLIC "-//W3C//DTD SVG 20010904//EN"
 "http://www.w3.org/TR/2001/REC-SVG-20010904/DTD/svg10.dtd">
<svg version="1.0" xmlns="http://www.w3.org/2000/svg"
 width="600.000000pt" height="430.000000pt" viewBox="0 0 600.000000 430.000000"
 preserveAspectRatio="xMidYMid meet">
<metadata>
Created by potrace 1.16, written by Peter Selinger 2001-2019
</metadata>
<g transform="translate(0.000000,430.000000) scale(0.100000,-0.100000)"
fill="#f1ead8" stroke="none">
<path d="M4265 3844 c-156 -31 -185 -43 -301 -121 -71 -47 -93 -57 -139 -61
-34 -3 -71 1 -101 12 -26 9 -52 16 -58 16 -18 0 39 -53 74 -68 19 -8 69 -17
110 -21 l75 -6 -87 -48 c-135 -75 -188 -91 -298 -91 -87 -1 -101 2 -164 32
-37 17 -70 32 -72 32 -2 0 -4 -4 -4 -9 0 -5 14 -24 31 -41 34 -33 118 -79 184
-100 49 -15 67 -30 37 -30 -43 0 -134 -43 -195 -92 -34 -27 -80 -60 -102 -71
-33 -18 -55 -22 -128 -21 -72 1 -85 -1 -76 -12 18 -21 89 -37 141 -31 56 7
109 33 168 82 23 20 62 47 85 61 23 13 95 38 159 54 116 30 186 54 186 64 0 3
-33 3 -73 0 -55 -5 -95 -2 -153 12 l-79 18 90 7 c50 4 110 14 133 23 46 16
118 54 285 148 109 62 189 91 239 86 32 -3 30 -5 -52 -51 -47 -26 -116 -71
-155 -99 -38 -29 -137 -122 -220 -208 -391 -404 -490 -492 -661 -590 -106 -61
-251 -118 -381 -151 -61 -15 -190 -40 -285 -54 -213 -32 -279 -47 -376 -86
-105 -42 -183 -91 -262 -166 l-67 -63 -99 0 c-111 0 -197 -17 -294 -57 -132
-54 -241 -137 -332 -252 -62 -78 -115 -173 -155 -281 -13 -36 -35 -83 -48
-106 -37 -63 -108 -122 -198 -163 -182 -85 -283 -198 -322 -363 -16 -67 -20
-158 -7 -158 4 0 20 20 35 44 60 96 153 153 317 196 47 12 123 40 170 62 67
32 100 56 155 112 81 82 122 159 161 299 37 135 70 214 120 288 51 77 119 143
204 198 61 40 147 77 203 88 l29 6 -26 -41 c-37 -59 -75 -177 -82 -258 -3 -38
-1 -109 5 -159 23 -177 24 -199 7 -257 -20 -72 -84 -144 -165 -187 -33 -17
-69 -43 -81 -58 -11 -14 -27 -51 -35 -82 -62 -233 -110 -333 -197 -416 -48
-46 -58 -61 -63 -100 l-7 -45 -47 0 c-28 0 -58 -8 -78 -20 -18 -11 -43 -40
-56 -67 -29 -57 -50 -146 -45 -188 2 -22 9 -31 26 -33 12 -2 60 14 105 36 62
30 99 57 147 107 36 36 84 78 107 92 24 13 54 39 69 55 14 17 52 87 84 155 33
69 79 152 103 186 25 34 81 97 126 140 76 73 166 136 393 277 49 30 115 79
148 108 53 47 125 144 172 230 9 18 38 45 64 62 106 67 234 98 534 130 301 32
443 59 595 112 80 29 198 87 265 133 50 34 62 38 125 39 56 2 83 8 135 33 36
18 148 82 250 143 192 116 258 150 292 150 17 0 19 -4 13 -32 -11 -52 -54
-123 -101 -168 -32 -30 -46 -53 -50 -79 l-6 -38 -48 5 c-33 3 -55 -1 -73 -12
-36 -24 -97 -145 -104 -207 l-6 -52 53 6 c69 8 187 64 242 115 24 22 61 49 83
60 22 11 48 29 58 40 10 11 34 68 53 128 19 60 55 145 78 189 24 44 46 94 50
112 10 46 -10 108 -44 137 -17 14 -45 28 -63 31 -22 4 -78 -5 -168 -28 -73
-19 -153 -37 -177 -41 -42 -6 -43 -6 -28 16 29 47 38 103 40 246 3 165 16 219
69 298 36 54 96 99 145 109 32 7 32 6 32 -31 0 -21 9 -57 21 -80 24 -51 71
-95 137 -128 26 -13 80 -58 120 -99 70 -73 72 -76 72 -125 0 -44 4 -54 31 -76
17 -14 34 -26 39 -26 5 0 15 -3 24 -6 10 -4 16 -1 16 9 0 8 -16 24 -35 36 -33
19 -35 24 -35 70 0 42 -5 57 -32 88 -75 90 -127 136 -179 163 -31 16 -69 44
-86 63 -58 66 -65 135 -22 218 10 21 15 40 10 44 -5 3 -25 -13 -44 -35 -22
-26 -42 -40 -58 -40 -13 0 -47 -11 -74 -24 -88 -40 -156 -138 -181 -257 -8
-41 -14 -106 -12 -146 3 -71 3 -72 -17 -54 -11 10 -36 27 -55 36 -47 24 -160
24 -218 0 -24 -10 -40 -20 -37 -24 4 -3 50 -4 104 -3 115 4 160 -10 191 -60
11 -18 20 -49 20 -69 0 -48 -39 -121 -70 -130 -14 -4 -47 -13 -73 -19 -26 -7
-68 -26 -92 -42 -46 -30 -85 -82 -85 -113 0 -13 13 -5 50 29 28 26 70 56 93
66 23 10 85 26 137 35 52 9 157 32 233 51 76 19 154 34 173 34 24 0 43 -8 59
-25 39 -38 34 -88 -20 -192 -24 -49 -58 -131 -75 -183 -17 -52 -38 -105 -46
-117 -8 -13 -33 -32 -57 -44 -23 -12 -63 -41 -88 -64 -47 -44 -116 -80 -174
-91 -30 -5 -35 -3 -35 12 0 26 53 136 73 152 10 9 34 12 64 10 44 -3 48 -5 53
-33 l6 -30 21 34 c17 26 19 39 12 64 -5 18 -9 35 -9 40 0 4 22 30 49 57 52 52
111 157 111 197 0 13 -5 33 -10 44 -16 29 -79 25 -148 -10 -31 -16 -140 -79
-241 -140 -101 -61 -208 -120 -238 -131 -29 -11 -72 -20 -95 -20 -33 0 -46 6
-72 33 -17 18 -40 57 -50 87 -30 85 -126 164 -158 132 -7 -7 -2 -15 18 -25 45
-23 72 -57 100 -128 14 -35 34 -75 44 -90 l19 -25 -82 -51 c-88 -54 -190 -99
-302 -131 -108 -32 -269 -59 -515 -87 -124 -15 -252 -32 -285 -40 -83 -19
-170 -50 -221 -79 -24 -14 -44 -23 -44 -20 0 2 14 35 31 72 52 113 69 161 59
167 -14 8 -55 -52 -96 -140 -127 -274 -130 -281 -197 -352 -40 -42 -107 -96
-164 -133 -296 -191 -360 -237 -432 -308 -42 -43 -101 -112 -130 -156 -30 -43
-73 -123 -97 -178 -23 -54 -52 -112 -64 -128 -12 -17 -40 -41 -63 -54 -23 -14
-58 -41 -77 -61 -30 -31 -35 -33 -42 -18 -3 10 -7 32 -7 48 -1 20 6 34 19 43
14 8 20 23 20 49 0 31 9 46 65 104 48 50 76 90 104 151 22 46 53 134 71 197
17 63 35 122 41 133 5 10 33 30 61 44 28 14 75 49 105 76 58 56 99 129 108
198 4 25 0 87 -9 142 -29 180 -16 308 44 432 44 91 123 189 203 253 83 65 200
123 307 152 41 11 140 30 220 41 292 42 447 84 626 169 118 57 227 128 340
222 44 37 163 154 265 260 232 243 311 319 407 392 69 52 227 140 292 162 20
7 11 10 -42 12 -38 2 -68 8 -68 12 0 12 161 31 260 31 67 0 81 3 72 12 -8 8
-53 14 -126 16 -133 5 -225 -11 -389 -68 -62 -21 -130 -41 -152 -44 -32 -5
-35 -4 -17 4 12 5 48 27 80 48 106 73 161 94 284 112 127 19 316 -14 446 -78
49 -24 54 -24 69 -9 9 9 15 18 12 20 -15 10 -94 43 -154 64 -122 41 -297 63
-380 47z m-2608 -1700 c-32 -8 -100 -35 -150 -61 -74 -38 -110 -65 -183 -138
-74 -73 -99 -106 -132 -175 -23 -47 -58 -141 -78 -210 -19 -69 -51 -153 -70
-188 -50 -88 -128 -163 -216 -206 -40 -20 -116 -48 -168 -62 -119 -31 -206
-71 -258 -118 l-41 -37 11 38 c19 70 71 153 130 208 38 36 92 71 151 99 107
51 165 91 201 139 15 19 56 99 91 177 36 79 83 171 105 205 47 73 152 177 230
228 107 71 251 115 375 115 l60 0 -58 -14z m-610 -1736 c11 -62 11 -63 -15
-86 -25 -21 -122 -72 -138 -72 -4 0 -4 23 -1 50 8 67 54 152 87 161 53 15 56
12 67 -53z M4925 3814 c-60 -40 -83 -63 -126 -126 -21 -31 -52 -62 -69 -69
-16 -8 -30 -17 -30 -21 0 -14 55 -9 77 7 12 8 42 43 66 78 25 35 58 72 73 82
l27 17 -7 -38 c-4 -22 -18 -59 -32 -83 -13 -24 -22 -46 -19 -49 10 -10 52 28
65 57 7 17 18 31 24 31 6 0 28 11 49 25 20 14 37 23 37 20 0 -10 -32 -69 -51
-94 -11 -13 -19 -19 -19 -12 0 6 -7 11 -15 11 -8 0 -15 -4 -15 -9 0 -5 36 -76
79 -158 59 -111 84 -170 100 -235 11 -48 41 -158 66 -244 25 -86 45 -169 45
-186 0 -16 -5 -39 -11 -51 -15 -28 -50 -67 -61 -67 -11 0 -10 87 1 94 5 4 11
1 13 -6 2 -6 10 -8 16 -4 14 9 16 52 2 61 -16 10 -49 -13 -66 -47 -11 -22 -14
-45 -10 -75 5 -39 4 -43 -15 -43 -18 0 -19 -2 -9 -15 18 -22 62 -18 101 8 45
30 79 92 79 143 0 23 -25 128 -55 234 -30 106 -59 217 -64 246 -6 29 -30 88
-54 131 -25 43 -56 102 -71 130 l-26 53 35 45 c31 41 65 126 65 162 0 17 -15
17 -30 -2 -7 -8 -35 -29 -62 -46 l-51 -31 6 29 c4 15 9 38 13 51 5 17 2 22
-13 22 -10 0 -36 -12 -58 -26z M4910 3371 c0 -16 74 -71 95 -71 12 0 30 -7 41
-15 10 -8 25 -15 33 -15 9 0 11 8 7 28 -4 15 -14 33 -23 40 -9 6 -33 12 -52
12 -20 1 -47 7 -61 15 -30 17 -40 18 -40 6z M3545 3162 c-57 -20 -92 -43 -174
-114 -31 -28 -73 -59 -95 -70 -21 -11 -64 -25 -96 -31 -31 -7 -56 -16 -56 -22
1 -17 108 -11 158 8 30 12 80 48 135 99 49 44 109 91 135 104 43 22 70 44 51
44 -4 -1 -31 -8 -58 -18z M1462 1897 c-18 -21 -41 -93 -64 -197 -11 -52 -33
-128 -50 -169 -33 -84 -99 -190 -167 -270 -118 -138 -279 -237 -458 -282 -50
-13 -89 -27 -87 -31 9 -14 89 -9 166 11 128 33 227 91 342 200 117 113 203
238 252 367 14 37 34 121 45 188 11 67 25 136 31 154 11 37 7 50 -10 29z"/>
</g>
</svg>
