<?xml version="1.0" standalone="no"?>
<!DOCTYPE svg PUBLIC "-//W3C//DTD SVG 20010904//EN"
 "http://www.w3.org/TR/2001/REC-SVG-20010904/DTD/svg10.dtd">
<svg version="1.0" xmlns="http://www.w3.org/2000/svg"
 width="600.000000pt" height="430.000000pt" viewBox="0 0 600.000000 430.000000"
 preserveAspectRatio="xMidYMid meet">
<metadata>
Created by potrace 1.16, written by Peter Selinger 2001-2019
</metadata>
<g transform="translate(0.000000,430.000000) scale(0.100000,-0.100000)"
fill="#f1ead8" stroke="none">
<path d="M4245 3840 c-32 -6 -75 -15 -95 -21 -19 -7 -57 -23 -85 -37 -27 -13
-72 -40 -99 -59 -27 -20 -65 -42 -85 -50 -19 -8 -56 -15 -82 -15 -26 1 -64 8
-84 16 -21 9 -43 16 -49 16 -6 0 4 -14 21 -30 18 -16 58 -37 89 -46 35 -10 77
-15 110 -12 30 3 54 4 54 3 0 -2 -40 -26 -89 -54 -49 -28 -116 -61 -148 -72
-32 -11 -92 -23 -133 -26 -56 -4 -92 -1 -135 11 -33 10 -75 26 -94 37 -18 11
-36 17 -39 14 -3 -3 10 -22 29 -41 19 -20 65 -52 104 -70 38 -19 84 -37 102
-40 18 -3 33 -10 33 -14 0 -4 -16 -11 -35 -14 -20 -4 -55 -15 -78 -25 -23 -10
-74 -44 -112 -75 -39 -30 -92 -63 -119 -72 -36 -12 -67 -15 -120 -10 -65 5
-69 4 -51 -9 11 -9 37 -20 59 -26 22 -6 58 -8 81 -5 22 4 58 16 80 26 22 11
62 38 90 61 27 22 71 52 96 65 26 13 96 35 156 50 59 15 120 33 136 40 15 8
27 16 27 18 0 2 -33 1 -74 -2 -49 -3 -99 1 -150 12 -41 10 -77 20 -80 24 -2 4
35 7 83 7 62 1 104 7 152 23 36 12 104 45 150 72 46 28 130 73 187 102 75 37
118 53 158 56 29 2 54 0 54 -5 0 -5 -33 -25 -73 -45 -40 -20 -111 -64 -157
-99 -47 -35 -146 -127 -220 -204 -283 -292 -428 -433 -515 -497 -49 -37 -133
-89 -185 -117 -52 -27 -129 -63 -170 -79 -41 -16 -120 -41 -175 -55 -55 -14
-129 -30 -165 -36 -36 -6 -128 -20 -205 -32 -77 -11 -176 -32 -220 -46 -44
-14 -107 -39 -140 -56 -33 -16 -80 -43 -105 -60 -25 -17 -70 -54 -100 -83
l-55 -51 -120 -6 c-78 -3 -146 -13 -193 -26 -41 -12 -97 -33 -125 -48 -29 -14
-78 -44 -111 -66 -32 -22 -85 -66 -117 -99 -32 -32 -79 -90 -104 -128 -26 -39
-62 -107 -81 -152 -19 -46 -47 -110 -62 -142 -15 -33 -46 -78 -69 -102 -27
-28 -80 -63 -154 -99 -78 -40 -130 -74 -171 -112 -32 -31 -69 -76 -84 -100
-14 -24 -34 -70 -45 -101 -23 -68 -37 -202 -21 -202 6 0 14 9 17 20 4 11 31
47 61 80 34 36 76 69 108 84 30 14 102 39 162 57 60 17 142 47 183 66 52 25
93 55 141 102 47 47 78 90 103 142 20 41 51 124 68 184 17 61 49 148 71 195
33 68 57 101 127 170 71 72 103 95 181 134 52 26 112 49 133 53 l37 6 -25 -44
c-14 -24 -36 -78 -49 -119 -13 -41 -27 -102 -31 -135 -4 -39 0 -108 10 -190
10 -72 15 -153 12 -181 -3 -29 -13 -67 -22 -85 -10 -19 -36 -53 -59 -77 -22
-24 -69 -59 -104 -79 -35 -19 -69 -45 -77 -57 -8 -12 -26 -64 -39 -116 -14
-52 -31 -113 -39 -136 -31 -87 -81 -169 -143 -235 -54 -57 -64 -74 -64 -103 0
-26 -6 -38 -21 -46 -11 -7 -32 -9 -45 -6 -15 4 -39 0 -60 -10 -21 -10 -45 -34
-60 -60 -14 -23 -33 -78 -41 -121 -9 -44 -14 -87 -10 -97 6 -14 14 -17 38 -12
17 3 60 20 96 37 41 20 96 60 153 112 49 45 108 96 131 112 24 17 52 50 65 75
13 25 46 92 73 150 31 64 76 137 115 186 36 45 103 112 150 150 46 38 153 111
238 163 84 52 181 116 216 143 34 28 82 75 106 107 24 31 57 83 74 116 24 48
40 66 84 92 29 18 80 43 114 57 33 14 98 32 145 40 46 9 186 27 312 41 125 14
273 35 328 46 55 11 146 35 203 53 57 19 132 49 167 66 35 18 91 51 124 74 55
38 65 41 125 41 56 0 78 6 150 41 47 23 156 84 243 137 86 53 179 108 205 121
26 13 58 26 72 27 22 4 25 1 24 -27 -1 -17 -10 -48 -20 -69 -9 -21 -42 -64
-71 -95 -44 -48 -53 -64 -53 -94 l0 -36 -56 6 c-53 7 -57 5 -89 -26 -18 -18
-45 -58 -59 -90 -14 -32 -29 -78 -32 -104 -6 -44 -6 -46 18 -46 13 0 49 7 79
16 30 9 74 27 99 39 25 13 59 37 75 55 17 18 56 45 87 61 32 16 65 40 74 54 8
13 33 76 55 140 21 64 57 149 79 189 31 57 40 83 40 122 0 31 -7 61 -20 82
-12 19 -37 40 -57 49 -36 14 -44 13 -208 -26 -95 -23 -179 -41 -189 -41 -15 0
-14 5 6 43 19 37 23 64 29 212 4 113 12 184 22 211 8 23 24 59 35 80 11 21 35
53 54 71 18 18 50 39 70 47 21 9 44 16 53 16 10 0 15 -10 15 -32 0 -18 11 -56
24 -84 13 -29 40 -64 63 -82 23 -18 58 -40 80 -49 22 -10 72 -53 113 -96 72
-76 73 -79 71 -126 -2 -43 2 -51 29 -75 17 -14 42 -26 56 -26 13 0 24 4 24 10
0 5 -13 16 -30 25 -16 8 -33 22 -38 32 -5 9 -7 32 -5 52 5 33 -1 43 -72 123
-53 61 -92 95 -128 113 -29 15 -67 41 -86 58 -18 18 -40 46 -47 64 -8 18 -14
49 -14 70 0 21 9 58 20 82 11 24 18 46 16 48 -8 8 -27 -8 -46 -39 -15 -25 -26
-31 -61 -34 -24 -3 -62 -15 -85 -29 -23 -14 -54 -39 -69 -57 -16 -18 -41 -59
-56 -91 -15 -33 -33 -91 -39 -130 -7 -39 -10 -97 -6 -129 l6 -57 -46 32 c-40
28 -55 32 -122 35 -48 2 -92 -2 -116 -11 -22 -7 -41 -18 -43 -23 -2 -7 21 -7
64 -2 40 4 90 3 121 -3 33 -7 65 -21 83 -37 22 -19 32 -39 36 -70 4 -28 0 -57
-11 -86 -9 -24 -24 -50 -34 -58 -9 -9 -37 -18 -60 -22 -24 -4 -63 -16 -85 -27
-23 -12 -55 -33 -70 -48 -30 -27 -57 -71 -57 -93 0 -7 21 8 48 34 26 25 65 55
87 66 23 11 83 28 135 37 52 10 166 34 253 55 106 26 166 36 185 31 15 -4 37
-22 50 -41 12 -18 22 -41 22 -50 0 -9 -22 -61 -48 -116 -27 -54 -63 -143 -81
-196 -18 -53 -41 -109 -53 -123 -11 -14 -35 -32 -53 -39 -18 -8 -57 -36 -88
-64 -32 -29 -77 -58 -108 -69 -59 -22 -109 -35 -109 -30 0 2 9 30 20 62 11 32
32 73 46 92 24 32 28 33 85 31 57 -2 60 -3 54 -25 -3 -13 -1 -23 4 -23 6 0 15
10 22 21 6 13 8 39 4 64 -6 42 -4 45 54 110 38 42 67 86 80 121 12 30 21 63
21 73 0 10 -8 25 -18 34 -10 10 -33 17 -50 17 -17 0 -64 -17 -104 -38 -40 -22
-134 -76 -208 -122 -74 -46 -171 -100 -214 -122 -61 -29 -92 -38 -131 -38 -43
0 -55 4 -77 27 -14 16 -39 57 -56 93 -16 36 -41 77 -56 91 -14 15 -40 32 -57
39 -21 9 -33 10 -41 2 -7 -7 -2 -15 18 -25 16 -8 39 -26 51 -39 12 -12 36 -54
53 -93 17 -38 39 -78 47 -88 15 -16 15 -19 -3 -32 -10 -9 -49 -33 -85 -55 -36
-22 -105 -56 -153 -75 -48 -20 -133 -47 -189 -60 -56 -14 -145 -31 -197 -39
-52 -8 -183 -25 -290 -37 -107 -11 -237 -32 -288 -45 -51 -13 -125 -38 -163
-57 -63 -30 -69 -31 -63 -13 3 12 24 59 45 105 21 46 39 90 39 97 0 8 -4 14
-10 14 -5 0 -22 -19 -37 -42 -15 -24 -53 -102 -84 -174 -31 -72 -73 -156 -92
-186 -19 -30 -61 -81 -93 -112 -33 -32 -106 -87 -164 -123 -185 -116 -293
-190 -356 -245 -33 -29 -81 -76 -106 -105 -25 -28 -60 -72 -78 -98 -17 -25
-60 -105 -95 -178 -34 -73 -73 -141 -86 -153 -13 -11 -40 -30 -59 -42 -19 -11
-48 -34 -64 -51 -22 -23 -32 -28 -38 -19 -4 7 -8 28 -8 46 0 19 8 40 21 53 13
13 18 27 14 39 -3 11 -1 28 4 39 6 10 37 45 69 78 39 39 71 83 95 133 20 41
48 118 62 170 14 52 34 115 43 140 15 37 27 50 80 80 35 20 82 56 106 79 24
23 53 62 65 86 12 25 26 67 30 94 4 27 3 79 -3 117 -5 38 -10 130 -10 204 0
121 2 142 26 202 14 37 41 93 59 125 19 31 63 87 99 124 36 36 97 86 135 111
39 24 95 55 125 68 30 12 83 31 118 41 34 10 145 30 245 44 100 15 232 40 292
55 61 15 157 46 215 69 58 22 141 61 186 87 45 25 121 75 170 112 87 65 224
197 514 498 80 82 179 175 220 206 41 31 107 74 145 96 39 22 94 48 123 58 28
10 52 23 52 28 0 5 -15 6 -33 3 -18 -3 -45 -3 -60 0 -15 3 -27 9 -27 13 0 12
143 30 242 30 72 0 89 3 80 12 -7 7 -52 14 -109 16 -53 3 -128 -1 -167 -8 -39
-7 -140 -34 -223 -61 -84 -27 -163 -49 -175 -49 -18 0 -13 6 24 28 25 15 70
42 100 60 29 17 77 41 107 52 29 12 87 26 127 32 56 9 99 9 172 0 97 -11 226
-48 291 -83 25 -13 39 -15 53 -8 10 5 18 12 18 15 0 3 -30 19 -67 36 -37 17
-109 41 -160 54 -51 13 -132 25 -180 28 -49 3 -115 1 -148 -4z m-2574 -1695
c-35 -8 -92 -28 -126 -44 -35 -16 -90 -47 -123 -70 -33 -22 -89 -73 -126 -113
-42 -45 -81 -102 -105 -153 -22 -44 -54 -132 -72 -195 -17 -63 -47 -146 -67
-185 -22 -41 -62 -95 -97 -130 -37 -36 -86 -73 -126 -92 -36 -18 -117 -46
-179 -63 -63 -17 -136 -43 -162 -57 -27 -15 -66 -42 -89 -61 l-40 -34 7 28
c15 63 59 139 117 200 50 54 78 74 174 121 76 37 130 71 162 102 27 26 61 74
78 111 17 36 50 108 72 160 25 57 66 129 105 180 37 50 95 110 138 144 40 33
105 74 143 92 39 19 104 43 145 53 45 12 107 20 155 20 l80 -1 -64 -13z m-623
-1737 c10 -54 9 -64 -5 -80 -9 -10 -43 -31 -76 -48 -33 -16 -66 -30 -72 -30
-9 0 -10 13 -4 48 4 27 14 65 23 85 8 20 26 48 40 62 15 15 36 25 54 25 27 0
29 -3 40 -62z M4925 3814 c-22 -15 -51 -36 -64 -48 -13 -12 -39 -45 -58 -74
-19 -30 -51 -63 -71 -75 -33 -19 -34 -22 -15 -25 12 -2 35 4 52 12 16 9 46 41
66 71 20 30 50 66 67 80 16 14 33 25 38 25 4 0 2 -22 -5 -49 -7 -28 -23 -64
-35 -81 -12 -17 -20 -34 -16 -37 3 -3 17 2 31 11 13 9 27 27 31 41 4 17 24 34
60 54 30 16 54 26 54 23 0 -4 -14 -31 -31 -60 -25 -45 -33 -51 -45 -41 -8 6
-17 9 -20 6 -4 -3 30 -74 74 -157 65 -121 86 -170 106 -253 13 -56 43 -165 65
-241 23 -76 41 -157 41 -179 0 -22 -9 -54 -20 -72 -11 -18 -28 -36 -37 -39 -9
-4 -18 -4 -21 -1 -8 8 -5 71 3 85 6 9 9 9 15 0 4 -7 13 -9 19 -6 6 4 11 18 11
31 0 12 -6 25 -14 28 -7 3 -23 -1 -35 -9 -11 -8 -26 -32 -32 -53 -8 -29 -9
-48 -1 -70 10 -28 9 -31 -9 -31 -31 0 -17 -24 15 -28 17 -2 42 6 66 22 22 15
47 43 60 71 17 36 21 57 17 93 -3 26 -31 134 -61 240 -31 106 -56 203 -56 216
0 13 -34 89 -75 169 l-76 146 30 42 c17 22 39 66 51 95 11 30 20 59 20 64 0 6
-4 10 -10 10 -5 0 -35 -18 -66 -40 -32 -22 -61 -40 -65 -40 -5 0 -2 20 5 44 8
25 11 47 8 50 -3 4 -10 6 -16 6 -6 0 -29 -12 -51 -26z M4920 3361 c5 -11 25
-29 44 -40 18 -12 43 -21 54 -21 11 0 27 -7 36 -15 8 -8 17 -15 20 -15 3 0 6
11 6 23 0 13 -8 31 -18 40 -10 10 -34 17 -53 17 -19 0 -47 7 -63 15 -15 8 -30
15 -32 15 -3 0 0 -9 6 -19z M3541 3160 c-29 -11 -68 -31 -87 -45 -19 -14 -59
-48 -90 -75 -30 -26 -74 -57 -97 -68 -23 -11 -69 -25 -102 -32 -54 -11 -58
-14 -35 -22 14 -5 45 -6 70 -3 25 4 68 17 96 30 28 12 88 57 134 98 45 42 102
86 126 97 24 12 44 26 44 31 0 5 -1 9 -2 9 -2 -1 -27 -9 -57 -20z M1442 1853
c-11 -27 -28 -86 -37 -133 -10 -47 -30 -120 -45 -162 -15 -43 -49 -114 -76
-159 -27 -44 -79 -114 -117 -154 -37 -41 -95 -95 -130 -121 -34 -26 -98 -64
-142 -85 -44 -21 -119 -48 -167 -60 -48 -12 -85 -26 -82 -31 4 -6 32 -7 68 -3
33 4 90 16 126 27 36 11 86 31 111 44 26 13 80 50 120 82 41 32 98 85 127 117
29 32 72 85 94 118 22 33 58 97 79 142 27 57 45 117 59 196 12 63 27 140 34
172 7 31 9 57 6 57 -4 0 -17 -21 -28 -47z"/>
</g>
</svg>
