<?xml version="1.0" standalone="no"?>
<!DOCTYPE svg PUBLIC "-//W3C//DTD SVG 20010904//EN"
 "http://www.w3.org/TR/2001/REC-SVG-20010904/DTD/svg10.dtd">
<svg version="1.0" xmlns="http://www.w3.org/2000/svg"
 width="600.000000pt" height="430.000000pt" viewBox="0 0 600.000000 430.000000"
 preserveAspectRatio="xMidYMid meet">
<metadata>
Created by potrace 1.16, written by Peter Selinger 2001-2019
</metadata>
<g transform="translate(0.000000,430.000000) scale(0.100000,-0.100000)"
fill="#f1ead8" stroke="none">
<path d="M4232 3839 c-28 -5 -76 -17 -106 -28 -30 -10 -98 -47 -152 -82 -85
-55 -104 -63 -155 -67 -39 -3 -72 1 -99 12 -22 9 -46 16 -52 16 -19 0 25 -41
67 -62 24 -13 70 -23 115 -27 l75 -6 -80 -46 c-44 -25 -107 -56 -140 -69 -47
-18 -81 -23 -160 -24 -93 -1 -105 1 -169 32 -38 18 -71 30 -74 27 -3 -3 10
-22 29 -41 36 -39 151 -100 206 -110 18 -3 33 -10 33 -14 0 -4 -17 -10 -37
-13 -21 -4 -60 -18 -88 -31 -27 -14 -75 -46 -105 -71 -86 -71 -112 -80 -213
-79 -69 1 -85 -1 -77 -11 17 -21 97 -38 145 -32 25 4 62 15 83 26 20 11 59 38
87 61 27 23 70 52 95 65 25 12 93 34 153 49 59 14 124 34 145 45 l37 19 -81
-5 c-61 -4 -100 -1 -155 13 l-74 19 80 6 c44 4 100 12 125 19 53 14 145 60
258 128 45 28 116 64 156 81 44 18 92 31 117 31 27 0 39 -4 34 -9 -6 -6 -37
-24 -70 -42 -119 -62 -220 -144 -375 -304 -395 -406 -481 -485 -637 -579 -90
-54 -214 -109 -323 -144 -98 -31 -211 -53 -481 -96 -173 -27 -279 -62 -394
-130 -38 -23 -100 -69 -136 -103 l-66 -63 -100 0 c-121 0 -224 -24 -338 -79
-44 -21 -112 -63 -151 -94 -39 -30 -95 -86 -126 -124 -31 -37 -72 -97 -91
-133 -20 -36 -52 -106 -72 -157 -20 -50 -51 -112 -69 -138 -18 -25 -48 -57
-67 -71 -19 -14 -74 -45 -122 -69 -49 -24 -112 -62 -141 -84 -29 -22 -67 -61
-85 -86 -61 -85 -101 -204 -101 -300 0 -25 3 -45 8 -45 4 0 20 20 35 44 15 25
45 60 67 80 22 19 61 46 87 59 26 14 104 41 173 62 69 20 152 51 185 68 33 18
90 61 126 97 45 44 78 89 103 137 20 40 50 123 66 185 17 61 49 149 71 194 25
51 63 108 100 148 33 36 93 88 134 115 70 47 157 86 217 98 l28 5 -30 -53
c-17 -30 -39 -82 -50 -117 -29 -93 -34 -199 -16 -326 9 -60 16 -126 16 -146 0
-20 -7 -57 -16 -83 -8 -25 -34 -66 -56 -92 -22 -25 -71 -63 -109 -86 -38 -22
-77 -51 -85 -65 -9 -13 -30 -75 -46 -137 -16 -62 -49 -152 -73 -202 -33 -69
-58 -104 -104 -147 -53 -51 -60 -63 -63 -100 l-3 -43 -57 -6 c-32 -4 -69 -14
-84 -23 -14 -10 -37 -42 -51 -72 -28 -61 -50 -171 -40 -197 3 -9 16 -17 28
-17 12 0 56 16 97 36 53 26 98 58 156 114 44 42 95 85 113 93 17 9 45 33 62
53 16 21 48 80 71 132 22 52 65 131 94 176 30 45 77 105 106 134 28 29 82 77
118 106 37 30 135 96 219 147 83 52 179 115 212 141 33 26 80 73 105 105 25
31 59 85 75 118 26 53 39 66 93 98 35 21 99 49 142 63 43 13 122 31 175 39 53
8 182 23 286 35 105 11 235 29 290 41 55 11 147 36 205 55 113 38 248 105 311
155 34 27 44 30 78 24 21 -3 58 -1 82 5 56 15 152 63 270 135 208 127 297 176
332 182 32 5 37 3 37 -13 0 -37 -50 -125 -101 -179 -37 -39 -52 -63 -54 -87
l-3 -33 -54 3 c-48 3 -57 1 -82 -25 -16 -15 -42 -56 -59 -91 -16 -35 -32 -83
-35 -108 -5 -43 -4 -44 25 -44 35 0 120 28 182 59 24 13 62 40 84 60 23 21 61
48 84 59 23 12 50 34 61 49 11 16 31 67 46 114 14 47 48 131 75 185 27 55 52
111 56 126 4 15 1 44 -5 65 -7 21 -22 48 -33 61 -12 12 -37 27 -57 33 -32 10
-57 6 -181 -24 -79 -20 -161 -39 -181 -42 l-36 -7 21 44 c19 37 23 67 28 213
7 178 15 218 63 300 14 22 37 52 53 67 29 28 90 58 118 58 11 0 15 -10 15 -35
0 -19 9 -55 21 -80 12 -25 37 -58 55 -75 19 -16 56 -41 82 -54 26 -13 80 -58
120 -99 70 -72 72 -77 72 -124 0 -39 5 -54 23 -71 13 -13 38 -27 55 -32 25 -6
32 -5 32 5 0 7 -16 22 -35 34 -32 19 -35 24 -35 69 0 41 -6 55 -37 93 -76 91
-120 132 -174 159 -30 16 -71 46 -91 68 -26 29 -39 54 -43 85 -7 47 5 103 32
144 8 11 10 24 5 27 -10 6 -57 -40 -64 -63 -2 -7 -21 -14 -46 -16 -23 -2 -62
-15 -87 -29 -24 -14 -58 -43 -75 -63 -17 -21 -41 -61 -55 -89 -13 -27 -29 -80
-35 -116 -7 -37 -10 -96 -8 -132 3 -65 3 -65 -17 -46 -34 32 -96 52 -160 52
-61 -1 -136 -21 -142 -38 -2 -6 33 -8 91 -6 55 3 108 0 128 -7 19 -6 45 -22
58 -36 14 -14 24 -41 27 -69 4 -33 0 -56 -17 -91 -12 -26 -32 -50 -44 -55 -11
-4 -43 -13 -71 -19 -27 -7 -71 -26 -96 -43 -50 -34 -89 -83 -89 -113 0 -15 11
-9 48 27 26 26 67 56 92 67 25 11 86 27 135 36 50 9 155 32 234 51 79 19 160
34 181 34 30 0 43 -6 59 -26 34 -43 27 -92 -25 -195 -25 -50 -59 -132 -75
-183 -17 -50 -37 -101 -45 -113 -8 -13 -33 -32 -57 -44 -23 -12 -63 -41 -89
-66 -47 -43 -101 -72 -172 -92 -33 -9 -36 -8 -36 12 0 27 51 138 72 154 9 8
37 12 70 10 50 -2 54 -4 50 -24 -2 -13 1 -23 7 -23 6 0 17 12 24 28 10 18 11
36 6 57 -5 17 -7 37 -4 45 3 8 25 35 50 59 46 45 105 151 105 191 0 12 -5 30
-10 41 -8 13 -21 19 -48 19 -20 0 -59 -11 -87 -24 -27 -13 -137 -75 -243 -139
-106 -64 -217 -125 -248 -136 -30 -12 -72 -21 -93 -21 -23 0 -48 8 -64 20 -14
11 -44 58 -66 104 -41 85 -73 118 -123 131 -14 4 -29 2 -32 -4 -4 -5 6 -17 22
-25 17 -9 41 -29 55 -45 14 -17 35 -56 47 -87 11 -31 30 -68 40 -82 20 -24 20
-24 -3 -41 -45 -34 -123 -80 -177 -104 -127 -55 -302 -101 -480 -126 -41 -6
-140 -18 -220 -26 -80 -9 -184 -22 -231 -30 -99 -17 -212 -54 -275 -89 -24
-14 -44 -23 -44 -20 0 2 20 50 45 106 25 56 45 111 45 122 0 19 -1 19 -21 1
-20 -19 -40 -58 -153 -299 -51 -107 -64 -127 -139 -200 -54 -55 -117 -103
-187 -146 -193 -117 -312 -203 -394 -284 -45 -45 -104 -116 -131 -160 -28 -43
-73 -128 -100 -189 -43 -95 -57 -116 -95 -144 -25 -18 -66 -51 -91 -73 -38
-32 -48 -37 -53 -24 -3 9 -6 30 -6 47 0 21 7 36 20 45 14 9 20 23 20 50 0 33
8 45 56 92 57 56 111 141 140 220 9 25 28 90 44 146 15 55 33 110 39 122 6 12
35 34 63 48 28 14 73 47 100 72 27 25 60 64 73 87 13 22 28 65 35 96 9 45 8
77 -5 159 -8 57 -15 136 -15 175 0 40 9 107 20 150 11 43 34 104 51 134 17 31
50 80 73 110 22 30 74 81 115 113 40 33 104 75 142 93 38 19 107 46 154 60 47
13 150 34 228 45 195 28 329 56 439 91 51 17 135 50 185 74 51 24 132 69 180
101 49 31 122 85 163 120 78 65 241 228 399 399 51 55 127 131 169 169 42 37
110 91 150 118 66 45 196 113 254 133 17 7 6 10 -44 12 -38 2 -68 8 -68 12 0
12 154 31 255 31 68 0 86 3 77 12 -7 7 -56 13 -119 16 -132 5 -240 -13 -391
-67 -59 -21 -127 -42 -152 -45 l-45 -7 50 29 c28 16 77 46 110 66 33 20 87 45
120 55 33 10 89 22 125 25 36 4 105 2 153 -4 94 -11 225 -49 289 -82 36 -19
41 -19 55 -5 14 14 12 17 -23 35 -70 35 -184 72 -271 87 -93 16 -179 18 -261
4z m-2557 -1691 c-27 -5 -97 -32 -155 -60 -91 -44 -115 -62 -195 -142 -63 -64
-102 -112 -127 -161 -20 -38 -55 -133 -78 -210 -23 -77 -57 -168 -77 -203 -19
-35 -58 -87 -87 -115 -28 -29 -83 -69 -122 -89 -38 -20 -121 -51 -184 -68 -63
-17 -136 -43 -162 -57 -27 -15 -67 -42 -89 -62 -39 -33 -41 -33 -35 -10 4 13
23 56 42 95 48 100 122 167 261 235 73 35 122 68 154 99 26 26 57 67 69 91 13
24 42 90 66 147 24 57 64 134 88 171 25 37 81 102 124 143 79 75 168 133 252
164 76 27 162 42 235 42 l70 0 -50 -10z m-628 -1740 c10 -59 10 -64 -10 -81
-28 -24 -96 -63 -126 -72 -24 -7 -24 -7 -18 44 3 28 17 72 30 98 24 48 55 73
93 73 17 0 22 -10 31 -62z M4925 3814 c-58 -39 -92 -72 -126 -126 -17 -26 -47
-58 -67 -70 l-37 -23 27 -3 c15 -2 39 5 53 14 15 10 44 43 66 75 21 31 52 67
68 78 16 12 32 21 35 21 9 0 -21 -88 -43 -126 -12 -20 -20 -39 -17 -41 2 -3
14 1 26 7 12 6 28 27 36 45 7 19 24 37 36 41 13 3 35 15 51 26 15 11 27 16 27
11 0 -4 -14 -32 -31 -62 -23 -39 -34 -50 -42 -42 -15 15 -29 14 -25 -1 2 -7
37 -78 80 -158 56 -106 82 -168 97 -231 11 -47 37 -142 57 -210 20 -68 42
-144 47 -169 6 -25 7 -62 3 -82 -6 -35 -46 -88 -66 -88 -12 0 -14 87 -1 94 5
4 11 1 13 -6 2 -6 10 -8 16 -4 14 9 16 52 2 61 -15 10 -49 -13 -65 -45 -8 -16
-15 -41 -15 -55 0 -15 5 -35 10 -46 9 -17 7 -19 -16 -19 -22 0 -25 -2 -14 -15
7 -8 25 -15 40 -15 15 0 42 10 61 23 18 12 44 40 56 62 13 23 23 57 23 80 0
22 -24 126 -54 230 -30 105 -59 217 -66 250 -7 33 -27 85 -45 115 -18 30 -49
88 -70 129 -36 72 -36 74 -18 95 11 11 26 32 35 47 23 37 50 120 44 136 -4 10
-18 4 -52 -22 -25 -19 -55 -40 -66 -46 -19 -10 -20 -9 -14 26 4 20 10 43 13
51 9 23 -28 17 -72 -12z M4910 3371 c0 -5 17 -23 37 -40 21 -17 47 -31 58 -31
11 0 31 -7 43 -16 12 -8 26 -12 32 -9 6 4 5 16 -1 33 -6 14 -16 30 -22 34 -7
4 -28 8 -47 8 -19 0 -46 7 -60 15 -14 8 -28 14 -32 15 -5 0 -8 -4 -8 -9z
M3545 3162 c-28 -10 -66 -29 -85 -42 -19 -14 -59 -47 -89 -74 -30 -26 -79 -60
-109 -74 -30 -13 -75 -27 -99 -30 -24 -2 -46 -8 -49 -13 -8 -14 44 -22 94 -15
25 3 66 16 89 27 24 12 80 55 125 96 44 41 102 85 129 98 44 23 71 45 52 45
-4 -1 -31 -8 -58 -18z M1444 1863 c-8 -21 -26 -85 -39 -143 -13 -58 -35 -135
-49 -173 -14 -37 -42 -95 -62 -130 -20 -34 -61 -92 -91 -130 -30 -37 -89 -97
-131 -133 -42 -36 -114 -84 -160 -107 -46 -22 -129 -53 -185 -68 -76 -20 -97
-29 -83 -35 30 -12 165 12 240 42 36 14 93 43 124 64 32 20 88 65 125 100 121
113 205 233 261 373 14 36 37 127 50 204 13 76 27 146 31 156 4 10 3 17 -4 17
-6 0 -18 -17 -27 -37z"/>
</g>
</svg>
