<?xml version="1.0" standalone="no"?>
<!DOCTYPE svg PUBLIC "-//W3C//DTD SVG 20010904//EN"
 "http://www.w3.org/TR/2001/REC-SVG-20010904/DTD/svg10.dtd">
<svg version="1.0" xmlns="http://www.w3.org/2000/svg"
 width="600.000000pt" height="430.000000pt" viewBox="0 0 600.000000 430.000000"
 preserveAspectRatio="xMidYMid meet">
<metadata>
Created by potrace 1.16, written by Peter Selinger 2001-2019
</metadata>
<g transform="translate(0.000000,430.000000) scale(0.100000,-0.100000)"
fill="#f1ead8" stroke="none">
<path d="M4265 3844 c-102 -20 -135 -29 -173 -45 -24 -11 -82 -45 -128 -76
-71 -47 -93 -57 -139 -61 -34 -3 -71 1 -101 12 -26 9 -52 16 -58 16 -5 0 1
-12 15 -26 13 -15 40 -33 59 -42 19 -8 69 -17 110 -21 l75 -6 -87 -48 c-48
-27 -113 -58 -145 -70 -43 -15 -82 -21 -153 -21 -87 -1 -101 2 -164 32 -37 17
-70 32 -72 32 -2 0 -4 -4 -4 -9 0 -5 14 -24 31 -41 17 -17 57 -44 88 -59 31
-16 74 -34 96 -41 22 -7 44 -16 50 -21 5 -5 0 -9 -13 -9 -12 0 -46 -9 -77 -21
-31 -11 -84 -43 -118 -71 -34 -27 -80 -60 -102 -71 -33 -18 -55 -22 -128 -21
-72 1 -85 -1 -76 -12 6 -8 30 -19 53 -25 22 -6 62 -9 88 -6 26 3 64 15 86 26
21 11 58 36 82 56 23 20 62 47 85 61 23 13 95 38 159 54 116 30 186 54 186 64
0 3 -33 3 -73 0 -55 -5 -95 -2 -153 12 l-79 18 90 7 c50 4 110 14 133 23 46
16 118 54 285 148 53 31 121 63 151 72 30 10 69 16 88 14 32 -3 30 -5 -52 -51
-47 -26 -116 -71 -155 -99 -38 -29 -137 -122 -220 -208 -82 -85 -208 -213
-280 -285 -71 -72 -170 -160 -218 -196 -48 -36 -122 -85 -163 -109 -41 -23
-118 -61 -172 -83 -53 -22 -147 -52 -209 -68 -61 -15 -190 -40 -285 -54 -95
-14 -202 -32 -237 -41 -35 -8 -97 -28 -139 -45 -42 -16 -103 -46 -136 -66 -32
-20 -89 -65 -126 -100 l-67 -63 -99 0 c-55 0 -128 -7 -164 -15 -36 -8 -94 -27
-130 -42 -36 -15 -90 -42 -120 -61 -30 -19 -77 -53 -104 -76 -27 -22 -76 -74
-108 -115 -33 -40 -75 -106 -95 -145 -20 -39 -47 -100 -60 -136 -13 -36 -35
-83 -48 -106 -13 -22 -44 -59 -70 -83 -25 -23 -83 -59 -128 -80 -45 -21 -109
-59 -142 -84 -33 -25 -74 -65 -91 -89 -17 -23 -41 -62 -53 -85 -11 -23 -28
-71 -36 -105 -16 -67 -20 -158 -7 -158 4 0 20 20 35 44 15 25 46 61 69 82 22
20 68 49 102 64 34 15 99 38 146 50 47 12 123 40 170 62 67 32 100 56 155 112
47 47 81 94 103 139 18 37 44 109 58 160 14 50 37 121 51 157 14 36 45 95 69
131 24 36 66 86 93 112 27 26 77 65 111 86 61 40 147 77 203 88 l29 6 -26 -41
c-14 -23 -37 -75 -51 -116 -13 -40 -27 -104 -31 -142 -3 -38 -1 -109 5 -159 7
-49 15 -115 18 -146 4 -37 0 -74 -11 -111 -11 -38 -30 -72 -60 -105 -25 -27
-72 -64 -105 -82 -33 -17 -69 -43 -81 -58 -11 -14 -27 -51 -35 -82 -37 -137
-70 -231 -103 -294 -21 -39 -61 -90 -94 -122 -48 -46 -58 -61 -63 -100 l-7
-45 -47 0 c-28 0 -58 -8 -78 -20 -18 -11 -43 -40 -56 -67 -14 -26 -30 -73 -37
-103 -6 -30 -10 -68 -8 -85 2 -22 9 -31 26 -33 12 -2 60 14 105 36 62 30 99
57 147 107 36 36 84 78 107 92 24 13 54 39 69 55 14 17 52 87 84 155 33 69 79
152 103 186 25 34 81 97 126 140 76 73 166 136 393 277 49 30 115 79 148 108
32 29 81 86 107 126 26 40 56 87 65 104 9 18 38 45 64 62 27 17 73 40 104 51
30 12 96 29 145 40 50 10 178 27 285 39 107 11 238 28 290 36 52 9 129 25 170
35 41 11 102 30 135 41 33 12 94 38 135 59 41 20 100 54 130 74 50 34 62 38
125 39 56 2 83 8 135 33 36 18 148 82 250 143 102 62 204 121 228 131 24 10
53 19 64 19 17 0 19 -4 13 -32 -4 -18 -18 -54 -32 -80 -14 -25 -45 -65 -69
-88 -32 -30 -46 -53 -50 -79 l-6 -38 -48 5 c-33 3 -55 -1 -73 -12 -14 -10 -41
-48 -61 -86 -22 -41 -39 -91 -43 -121 l-6 -52 53 6 c30 4 86 22 126 41 40 19
92 52 116 74 24 22 61 49 83 60 22 11 48 29 58 40 10 11 34 68 53 128 19 60
55 145 78 189 24 44 46 94 50 112 4 17 2 49 -4 71 -6 23 -23 51 -40 66 -17 14
-45 28 -63 31 -22 4 -78 -5 -168 -28 -73 -19 -153 -37 -177 -41 -42 -6 -43 -6
-28 16 7 13 19 40 26 61 7 21 13 105 14 185 2 104 8 162 20 199 9 28 31 73 49
99 17 27 50 61 72 75 22 15 55 30 73 34 32 7 32 6 32 -31 0 -21 9 -57 21 -80
11 -24 36 -57 55 -74 19 -16 56 -41 82 -54 26 -13 80 -58 120 -99 70 -73 72
-76 72 -125 0 -44 4 -54 31 -76 17 -14 34 -26 39 -26 5 0 15 -3 24 -6 10 -4
16 -1 16 9 0 8 -16 24 -35 36 -33 19 -35 24 -35 70 0 42 -5 57 -32 88 -75 90
-127 136 -179 163 -31 16 -69 44 -86 63 -17 20 -36 52 -43 72 -7 21 -9 52 -5
73 4 20 15 53 26 73 10 21 15 40 10 44 -5 3 -25 -13 -44 -35 -22 -26 -42 -40
-58 -40 -13 0 -47 -11 -74 -24 -28 -12 -64 -39 -82 -59 -17 -20 -43 -56 -58
-81 -14 -24 -33 -77 -41 -117 -8 -41 -14 -106 -12 -146 3 -71 3 -72 -17 -54
-11 10 -36 27 -55 36 -24 13 -57 18 -105 18 -43 0 -86 -7 -113 -18 -24 -10
-40 -20 -37 -24 4 -3 50 -4 104 -3 71 3 107 0 134 -11 20 -9 45 -30 57 -49 11
-18 20 -49 20 -69 0 -20 -10 -55 -23 -79 -14 -27 -33 -46 -47 -51 -14 -4 -47
-13 -73 -19 -26 -7 -68 -26 -92 -42 -24 -16 -53 -44 -65 -62 -11 -19 -20 -41
-20 -51 0 -13 13 -5 50 29 28 26 70 56 93 66 23 10 85 26 137 35 52 9 157 32
233 51 76 19 154 34 173 34 24 0 43 -8 59 -25 18 -18 25 -35 25 -65 0 -28 -14
-67 -45 -127 -24 -49 -58 -131 -75 -183 -17 -52 -38 -105 -46 -117 -8 -13 -33
-32 -57 -44 -23 -12 -63 -41 -88 -64 -25 -23 -67 -52 -93 -63 -26 -12 -62 -24
-81 -28 -30 -5 -35 -3 -35 12 0 11 13 46 28 79 16 33 36 66 45 73 10 9 34 12
64 10 44 -3 48 -5 53 -33 l6 -30 21 34 c17 26 19 39 12 64 -5 18 -9 35 -9 40
0 4 22 30 49 57 27 27 63 77 80 111 17 34 31 73 31 86 0 13 -5 33 -10 44 -8
14 -21 19 -51 19 -24 0 -62 -11 -97 -29 -31 -16 -140 -79 -241 -140 -101 -61
-208 -120 -238 -131 -29 -11 -72 -20 -95 -20 -33 0 -46 6 -72 33 -17 18 -40
57 -50 87 -11 31 -35 69 -57 91 -21 21 -50 41 -64 45 -15 4 -31 2 -37 -4 -7
-7 -2 -15 18 -25 16 -8 39 -26 51 -39 13 -13 35 -53 49 -89 14 -35 34 -75 44
-90 l19 -25 -82 -51 c-45 -28 -116 -64 -157 -81 -41 -16 -106 -39 -145 -50
-38 -12 -119 -30 -180 -41 -60 -11 -211 -32 -335 -46 -124 -15 -252 -32 -285
-40 -33 -8 -87 -23 -119 -34 -32 -12 -79 -32 -102 -45 -24 -14 -44 -23 -44
-20 0 2 14 35 31 72 17 37 39 88 50 114 10 26 14 50 9 53 -5 3 -20 -9 -34 -27
-13 -18 -41 -69 -62 -113 -127 -274 -130 -281 -197 -352 -40 -42 -107 -96
-164 -133 -296 -191 -360 -237 -432 -308 -42 -43 -101 -112 -130 -156 -30 -43
-73 -123 -97 -178 -23 -54 -52 -112 -64 -128 -12 -17 -40 -41 -63 -54 -23 -14
-58 -41 -77 -61 -30 -31 -35 -33 -42 -18 -3 10 -7 32 -7 48 -1 20 6 34 19 43
14 8 20 23 20 49 0 31 9 46 65 104 48 50 76 90 104 151 22 46 53 134 71 197
17 63 35 122 41 133 5 10 33 30 61 44 28 14 75 49 105 76 29 28 64 74 77 102
14 28 28 71 31 96 4 25 0 87 -9 142 -9 54 -16 130 -16 170 0 40 7 102 15 137
9 35 29 92 45 125 16 34 52 91 81 129 28 37 83 93 122 124 40 31 108 73 152
94 44 21 114 47 155 58 41 11 140 30 220 41 80 12 190 30 245 42 55 11 141 33
190 50 50 16 135 51 191 77 55 27 136 72 180 101 43 29 115 83 160 121 44 37
163 154 265 260 101 106 217 225 257 264 41 38 108 96 150 128 42 32 120 79
172 106 52 26 106 51 120 56 20 7 11 10 -42 12 -38 2 -68 8 -68 12 0 5 40 13
88 20 49 6 126 11 172 11 67 0 81 3 72 12 -8 8 -53 14 -126 16 -79 3 -137 -1
-195 -13 -45 -9 -133 -34 -194 -55 -62 -21 -130 -41 -152 -44 -32 -5 -35 -4
-17 4 12 5 48 27 80 48 31 22 75 48 97 59 22 12 58 26 80 32 22 6 70 16 107
21 44 6 100 6 161 0 51 -5 124 -19 163 -31 38 -12 93 -33 122 -47 49 -24 54
-24 69 -9 9 9 15 18 12 20 -2 1 -22 11 -44 21 -73 34 -179 66 -264 81 -78 14
-180 18 -226 9z m-2608 -1700 c-32 -8 -100 -35 -150 -61 -74 -38 -110 -65
-183 -138 -74 -73 -99 -106 -132 -175 -23 -47 -58 -141 -78 -210 -19 -69 -51
-153 -70 -188 -20 -35 -60 -87 -89 -117 -33 -32 -82 -67 -127 -89 -40 -20
-116 -48 -168 -62 -52 -13 -123 -38 -156 -53 -34 -16 -80 -45 -102 -65 l-41
-37 11 38 c19 70 71 153 130 208 38 36 92 71 151 99 51 24 111 58 133 74 23
17 54 46 68 65 15 19 56 99 91 177 36 79 83 171 105 205 22 34 71 91 108 127
37 36 92 81 122 101 30 20 84 48 120 63 36 14 94 32 130 39 36 7 92 13 125 13
l60 0 -58 -14z m-610 -1736 c11 -62 11 -63 -15 -86 -15 -12 -50 -34 -79 -47
-28 -14 -55 -25 -59 -25 -4 0 -4 23 -1 50 3 28 19 74 34 103 18 34 37 54 53
58 14 4 32 7 41 8 11 1 18 -15 26 -61z M4925 3814 c-22 -15 -51 -36 -64 -48
-13 -12 -41 -46 -62 -78 -21 -31 -52 -62 -69 -69 -16 -8 -30 -17 -30 -21 0 -5
12 -8 28 -8 15 0 37 7 49 15 12 8 42 43 66 78 25 35 58 72 73 82 l27 17 -7
-38 c-4 -22 -18 -59 -32 -83 -13 -24 -22 -46 -19 -49 2 -3 15 2 28 11 13 8 30
29 37 46 7 17 18 31 24 31 6 0 28 11 49 25 20 14 37 23 37 20 0 -10 -32 -69
-51 -94 -11 -13 -19 -19 -19 -12 0 6 -7 11 -15 11 -8 0 -15 -4 -15 -9 0 -5 36
-76 79 -158 59 -111 84 -170 100 -235 11 -48 41 -158 66 -244 25 -86 45 -169
45 -186 0 -16 -5 -39 -11 -51 -6 -12 -21 -32 -32 -44 -11 -13 -24 -23 -29 -23
-11 0 -10 87 1 94 5 4 11 1 13 -6 2 -6 10 -8 16 -4 7 4 12 18 12 31 0 13 -4
27 -10 30 -5 3 -19 1 -30 -5 -11 -6 -27 -25 -36 -42 -11 -22 -14 -45 -10 -75
5 -39 4 -43 -15 -43 -18 0 -19 -2 -9 -15 7 -8 25 -15 40 -15 15 0 42 10 61 23
18 12 44 40 56 62 13 23 23 57 23 81 0 23 -25 128 -55 234 -30 106 -59 217
-64 246 -6 29 -30 88 -54 131 -25 43 -56 102 -71 130 l-26 53 35 45 c19 25 41
69 50 97 8 29 15 58 15 65 0 7 -4 13 -9 13 -5 0 -14 -7 -21 -15 -7 -8 -35 -29
-62 -46 l-51 -31 6 29 c4 15 9 38 13 51 5 17 2 22 -13 22 -10 0 -36 -12 -58
-26z M4910 3371 c0 -5 17 -23 37 -40 21 -17 47 -31 58 -31 12 0 30 -7 41 -15
10 -8 25 -15 33 -15 9 0 11 8 7 28 -4 15 -14 33 -23 40 -9 6 -33 12 -52 12
-20 1 -47 7 -61 15 -14 8 -28 14 -32 15 -5 0 -8 -4 -8 -9z M3545 3162 c-28
-10 -65 -28 -84 -41 -18 -13 -59 -46 -90 -73 -31 -28 -73 -59 -95 -70 -21 -11
-64 -25 -96 -31 -31 -7 -56 -16 -56 -22 1 -5 26 -10 56 -10 30 0 76 8 102 18
30 12 80 48 135 99 49 44 109 91 135 104 26 13 49 28 53 34 3 5 3 10 -2 10 -4
-1 -31 -8 -58 -18z M1462 1897 c-7 -8 -19 -34 -27 -58 -9 -24 -25 -87 -37
-139 -11 -52 -33 -128 -50 -169 -16 -41 -50 -106 -75 -145 -25 -39 -67 -95
-92 -125 -25 -30 -77 -81 -116 -113 -40 -34 -109 -78 -160 -103 -49 -24 -131
-54 -182 -66 -50 -13 -89 -27 -87 -31 9 -14 89 -9 166 11 42 11 100 32 130 47
29 15 73 40 98 57 25 17 76 60 114 96 37 36 88 91 112 122 23 31 59 84 79 117
20 34 47 92 61 128 14 37 34 121 45 188 11 67 25 136 31 154 5 18 8 35 5 38
-2 2 -9 -2 -15 -9z"/>
</g>
</svg>
