<?xml version="1.0" standalone="no"?>
<!DOCTYPE svg PUBLIC "-//W3C//DTD SVG 20010904//EN"
 "http://www.w3.org/TR/2001/REC-SVG-20010904/DTD/svg10.dtd">
<svg version="1.0" xmlns="http://www.w3.org/2000/svg"
 width="600.000000pt" height="430.000000pt" viewBox="0 0 600.000000 430.000000"
 preserveAspectRatio="xMidYMid meet">
<metadata>
Created by potrace 1.16, written by Peter Selinger 2001-2019
</metadata>
<g transform="translate(0.000000,430.000000) scale(0.100000,-0.100000)"
fill="#f1ead8" stroke="none">
<path d="M4223 3835 c-40 -7 -103 -27 -140 -44 -36 -17 -89 -48 -116 -67 -28
-20 -65 -43 -83 -50 -19 -8 -56 -14 -84 -14 -28 0 -67 7 -87 15 -19 8 -40 15
-46 15 -5 0 -2 -9 9 -21 10 -12 37 -30 59 -42 30 -16 60 -21 122 -21 46 -1 83
-2 83 -2 0 -1 -39 -24 -87 -52 -49 -27 -115 -60 -148 -72 -33 -12 -94 -24
-135 -27 -55 -4 -92 -1 -135 11 -33 10 -75 26 -94 37 -18 11 -36 17 -39 14 -3
-3 10 -22 29 -41 19 -20 65 -52 104 -70 38 -19 84 -37 102 -40 18 -3 33 -10
33 -15 0 -5 -9 -9 -20 -9 -10 0 -43 -9 -72 -21 -29 -11 -88 -47 -131 -80 -42
-33 -96 -67 -120 -75 -30 -12 -62 -14 -116 -10 -61 5 -72 4 -62 -8 6 -7 32
-19 56 -26 26 -7 62 -10 87 -6 24 4 61 16 83 26 22 11 62 38 90 61 27 22 71
52 97 65 25 13 94 35 152 49 59 13 123 33 144 44 l37 19 -82 -5 c-61 -4 -101
-1 -160 13 l-78 19 90 7 c50 3 113 14 140 23 28 10 70 28 95 40 25 13 87 48
139 79 52 30 127 69 167 86 40 17 91 30 113 30 23 0 41 -3 41 -8 0 -4 -31 -22
-69 -41 -38 -18 -109 -63 -158 -100 -48 -36 -151 -131 -228 -211 -77 -79 -201
-206 -275 -281 -74 -74 -180 -169 -236 -210 -55 -42 -145 -98 -200 -126 -54
-28 -144 -67 -200 -86 -55 -19 -143 -44 -195 -55 -52 -11 -146 -28 -209 -37
-63 -9 -150 -23 -193 -31 -43 -9 -108 -26 -145 -38 -37 -13 -92 -36 -122 -51
-30 -15 -75 -41 -100 -58 -25 -16 -70 -53 -100 -82 l-55 -53 -125 -5 c-89 -3
-145 -11 -195 -27 -38 -12 -104 -40 -145 -62 -41 -22 -105 -64 -142 -94 -36
-29 -96 -93 -132 -141 -40 -54 -82 -125 -107 -183 -22 -52 -53 -122 -68 -155
-16 -33 -46 -79 -68 -101 -25 -26 -81 -62 -149 -95 -75 -38 -127 -72 -171
-113 -35 -33 -75 -78 -89 -101 -13 -23 -33 -68 -44 -101 -11 -32 -23 -92 -27
-131 -3 -42 -2 -73 3 -73 5 0 18 16 29 36 10 20 43 57 71 83 29 27 73 58 97
69 25 12 101 38 169 57 67 20 150 51 183 68 33 18 90 62 127 98 49 50 76 88
106 150 22 46 52 129 67 184 14 55 44 138 67 185 33 68 57 101 127 170 71 71
102 94 181 132 52 26 112 50 133 54 l37 6 -25 -43 c-14 -24 -36 -78 -49 -119
-14 -42 -27 -107 -31 -145 -4 -44 -1 -113 9 -185 9 -63 16 -131 16 -151 0 -19
-7 -57 -17 -84 -11 -34 -34 -67 -72 -105 -31 -30 -79 -67 -108 -82 -29 -15
-59 -39 -68 -52 -9 -13 -29 -75 -46 -138 -16 -62 -47 -151 -69 -196 -29 -60
-59 -103 -105 -151 -56 -58 -65 -73 -65 -104 0 -20 -6 -39 -12 -43 -7 -5 -33
-8 -59 -9 -26 -1 -58 -9 -72 -18 -14 -9 -37 -41 -52 -70 -14 -30 -31 -84 -37
-120 -6 -36 -8 -73 -4 -82 5 -14 14 -16 39 -11 17 3 61 20 96 37 39 20 96 62
150 113 48 44 101 88 118 97 16 9 42 32 56 50 14 19 42 71 61 117 20 46 53
113 75 150 22 37 66 98 98 135 32 37 94 97 138 132 44 35 150 107 235 159 85
53 181 116 212 141 32 24 76 68 99 97 22 29 56 82 74 118 28 55 42 70 89 99
31 18 85 44 120 57 35 13 100 30 143 39 43 8 182 26 308 40 127 14 275 35 330
46 55 11 146 35 202 54 56 19 130 48 165 66 35 17 90 50 123 73 55 38 65 41
125 41 54 0 78 6 144 38 43 20 158 85 255 144 171 104 277 157 293 147 4 -3 8
-13 8 -22 0 -9 -11 -41 -25 -70 -13 -29 -47 -76 -75 -106 -37 -39 -51 -62 -53
-87 l-3 -34 -54 3 c-51 3 -57 1 -87 -30 -18 -18 -44 -60 -59 -92 -15 -32 -29
-78 -32 -102 -4 -41 -3 -44 20 -44 13 0 49 7 79 16 30 9 74 26 99 39 25 13 62
39 84 59 21 20 60 48 86 61 27 14 57 37 68 52 11 16 32 68 47 118 15 49 47
130 72 180 25 49 50 103 54 119 5 18 5 45 -1 67 -6 20 -19 48 -31 62 -11 15
-37 32 -58 38 -32 10 -55 7 -177 -24 -76 -19 -158 -38 -181 -42 l-42 -7 21 44
c19 37 23 68 29 213 7 178 15 218 63 300 14 22 37 52 53 67 29 28 90 58 118
58 10 0 15 -10 15 -32 0 -18 11 -56 24 -83 13 -28 38 -64 57 -79 19 -16 52
-37 74 -47 22 -10 75 -53 117 -96 77 -77 78 -79 78 -130 0 -45 4 -54 31 -77
17 -14 41 -26 55 -26 13 0 24 4 24 9 0 5 -16 18 -35 30 -32 19 -35 24 -35 69
0 47 -3 54 -75 136 -56 63 -91 94 -134 115 -31 16 -74 47 -94 70 -20 22 -39
55 -43 75 -3 20 -3 53 1 74 4 20 16 52 27 71 20 31 20 33 2 29 -10 -2 -28 -18
-41 -37 -19 -27 -30 -34 -64 -36 -23 -2 -61 -16 -87 -32 -26 -16 -64 -51 -84
-78 -21 -28 -48 -79 -60 -115 -17 -50 -22 -89 -23 -165 l0 -101 -43 30 c-38
27 -54 31 -120 34 -48 2 -92 -2 -116 -11 -22 -7 -41 -18 -43 -23 -2 -5 36 -7
89 -5 50 2 108 -2 128 -8 20 -6 47 -22 60 -36 15 -16 24 -40 27 -72 3 -36 -1
-59 -19 -93 -15 -29 -32 -48 -48 -52 -140 -40 -146 -43 -197 -93 -35 -34 -53
-59 -53 -75 0 -22 4 -21 48 22 26 26 68 56 94 68 26 11 95 29 153 40 58 11
161 33 229 50 68 16 141 30 163 30 26 0 46 -6 56 -18 9 -10 22 -33 28 -50 10
-30 6 -42 -44 -150 -31 -64 -67 -152 -81 -196 -14 -43 -32 -89 -41 -102 -8
-13 -33 -33 -55 -44 -22 -11 -65 -43 -94 -69 -31 -28 -76 -57 -107 -68 -30
-11 -66 -23 -81 -27 -26 -6 -26 -6 -16 32 6 20 21 58 33 83 13 25 30 51 38 57
8 7 38 11 70 9 53 -2 56 -3 50 -24 -3 -13 -1 -23 6 -23 5 0 15 10 22 21 6 13
8 39 4 64 -6 42 -4 45 54 110 38 42 67 86 80 121 12 30 21 62 21 70 0 8 -5 24
-10 35 -8 14 -21 19 -48 19 -20 0 -55 -9 -78 -19 -22 -10 -121 -67 -220 -126
-98 -59 -210 -123 -249 -141 -48 -24 -84 -34 -116 -34 -32 0 -55 7 -73 21 -14
11 -44 58 -66 104 -24 50 -51 92 -68 104 -16 11 -40 23 -54 26 -14 4 -29 2
-32 -4 -4 -5 6 -17 21 -25 15 -8 38 -25 50 -38 12 -12 36 -54 53 -93 17 -38
39 -78 47 -88 15 -16 15 -19 -3 -32 -10 -9 -48 -33 -84 -55 -36 -21 -98 -53
-139 -70 -41 -17 -115 -41 -165 -55 -50 -13 -129 -31 -176 -39 -47 -9 -186
-27 -310 -41 -124 -14 -269 -36 -323 -50 -54 -13 -129 -39 -167 -58 -64 -30
-70 -31 -64 -13 4 12 24 59 45 105 22 46 39 93 39 104 0 20 0 20 -21 1 -20
-18 -51 -79 -150 -294 -24 -52 -64 -119 -88 -149 -24 -30 -59 -68 -79 -85 -19
-17 -51 -43 -71 -57 -20 -15 -85 -57 -146 -94 -60 -37 -145 -92 -188 -123 -42
-30 -108 -86 -147 -124 -38 -37 -89 -97 -114 -132 -26 -35 -75 -124 -110 -197
-35 -74 -74 -143 -87 -155 -13 -11 -40 -30 -59 -42 -19 -11 -48 -34 -64 -51
-22 -23 -32 -28 -38 -19 -4 7 -8 28 -8 46 0 19 8 40 21 53 13 13 19 28 15 42
-3 11 -1 27 4 36 5 9 35 43 68 77 39 40 72 87 95 135 20 41 52 129 71 197 20
68 41 132 46 143 6 10 34 31 62 45 28 14 75 49 104 76 29 28 62 69 74 92 11
23 24 66 30 95 7 39 6 78 -5 152 -8 54 -15 134 -15 177 0 43 7 105 15 137 8
33 31 92 51 132 20 39 60 100 89 135 29 36 81 86 116 112 35 27 91 62 124 79
33 16 91 40 129 53 38 13 130 33 205 45 75 11 195 32 266 45 72 14 182 42 246
64 64 21 150 55 190 75 41 21 110 61 154 89 44 29 121 86 170 127 50 42 162
152 250 245 88 93 200 209 249 257 49 48 122 112 162 143 41 30 104 72 141 93
37 21 92 47 121 57 28 10 52 22 52 26 0 4 -25 7 -55 6 -30 -1 -58 2 -62 5 -3
4 -4 9 -2 11 2 2 39 9 82 15 43 6 116 11 163 11 46 0 84 4 84 9 0 4 -17 11
-37 15 -68 11 -203 6 -281 -10 -42 -9 -136 -36 -208 -60 -72 -24 -142 -44
-155 -44 -19 0 -12 7 30 30 30 17 62 36 70 44 26 22 113 63 176 82 45 14 90
18 180 17 98 -1 136 -6 210 -28 50 -14 114 -38 144 -51 49 -23 55 -24 69 -10
14 14 10 18 -49 45 -35 16 -96 38 -134 50 -39 11 -102 25 -140 30 -39 6 -92
10 -120 10 -27 0 -83 -7 -122 -14z m-2540 -1685 c-23 -5 -69 -20 -103 -33 -33
-14 -86 -40 -118 -58 -31 -19 -95 -72 -142 -119 -59 -59 -97 -107 -122 -155
-20 -38 -53 -126 -73 -195 -19 -69 -52 -158 -71 -198 -23 -46 -57 -94 -92
-130 -33 -34 -87 -73 -128 -94 -38 -21 -121 -51 -184 -68 -63 -17 -136 -43
-162 -57 -27 -15 -67 -42 -89 -62 -39 -32 -41 -33 -34 -10 4 13 20 52 36 87
16 37 52 87 85 122 43 45 79 70 153 106 53 26 119 64 146 84 28 20 63 56 79
78 15 23 52 98 82 167 29 69 69 149 87 178 19 28 51 72 72 97 20 25 63 67 94
93 31 27 83 64 116 82 34 19 81 42 105 51 25 8 72 22 105 29 33 7 92 13 130
13 65 0 67 -1 28 -8z m-635 -1742 c8 -51 7 -66 -4 -79 -18 -21 -139 -82 -152
-78 -14 6 14 125 39 165 12 20 31 39 43 44 11 5 31 9 42 9 18 1 23 -7 32 -61z
M4925 3814 c-22 -15 -53 -38 -68 -53 -15 -14 -42 -47 -58 -73 -17 -26 -47 -58
-67 -70 l-37 -23 27 -3 c15 -2 39 5 53 14 15 10 44 43 66 75 21 31 52 67 68
78 16 12 32 21 35 21 2 0 -2 -24 -11 -52 -8 -29 -24 -66 -35 -81 -11 -16 -18
-31 -14 -34 3 -3 17 2 31 11 13 9 27 27 31 41 4 17 24 34 60 54 30 16 54 26
54 23 0 -4 -14 -31 -31 -61 -23 -39 -34 -50 -42 -42 -6 6 -15 11 -19 11 -4 0
-8 -4 -8 -8 0 -5 35 -74 79 -154 57 -104 83 -166 95 -219 10 -41 39 -151 67
-244 27 -94 49 -185 49 -202 0 -18 -4 -43 -10 -57 -5 -14 -18 -34 -30 -46 -11
-11 -24 -20 -30 -20 -13 0 -13 87 -1 94 5 4 11 1 13 -6 2 -6 10 -8 16 -4 7 4
12 18 12 31 0 13 -4 27 -10 30 -5 3 -19 1 -30 -5 -11 -6 -27 -24 -35 -40 -8
-16 -15 -41 -15 -55 0 -15 5 -35 10 -46 9 -16 7 -19 -10 -19 -13 0 -20 -5 -18
-12 3 -7 18 -14 34 -16 18 -2 43 6 64 20 19 13 45 43 58 68 12 24 22 60 22 80
0 20 -22 113 -50 207 -27 94 -57 206 -66 249 -9 43 -27 94 -39 114 -13 20 -44
78 -69 128 l-46 92 30 41 c16 23 38 66 50 95 11 30 20 59 20 64 0 6 -5 10 -11
10 -6 0 -25 -11 -42 -24 -18 -13 -45 -32 -61 -42 l-29 -18 7 38 c4 20 10 44
13 52 9 23 -28 17 -72 -12z M4910 3371 c0 -5 17 -23 37 -40 21 -17 49 -31 64
-31 15 0 32 -7 39 -15 7 -8 16 -15 21 -15 5 0 9 11 9 23 0 13 -8 31 -18 40
-10 10 -34 17 -53 17 -19 0 -47 7 -63 15 -15 8 -30 15 -32 15 -2 0 -4 -4 -4
-9z M3545 3162 c-28 -10 -66 -29 -85 -42 -19 -14 -59 -46 -87 -72 -29 -26 -69
-56 -90 -67 -36 -18 -84 -33 -148 -46 -27 -6 -28 -8 -11 -17 11 -6 41 -8 73
-4 29 3 74 16 99 27 25 12 84 57 131 100 47 43 105 88 129 100 24 11 44 25 44
30 0 5 -1 9 -2 9 -2 -1 -26 -8 -53 -18z M1444 1863 c-8 -21 -26 -86 -39 -144
-13 -59 -37 -142 -54 -185 -17 -44 -52 -113 -79 -154 -27 -42 -77 -106 -111
-143 -35 -37 -91 -88 -125 -113 -33 -26 -96 -64 -138 -84 -42 -21 -117 -48
-167 -60 -50 -12 -91 -27 -91 -32 0 -17 131 0 208 26 38 13 84 31 103 41 59
30 162 111 225 177 33 35 79 88 101 119 23 30 59 92 81 136 23 44 50 116 61
159 11 44 25 115 31 159 6 44 15 92 20 108 14 41 -7 33 -26 -10z"/>
</g>
</svg>
