<?xml version="1.0" standalone="no"?>
<!DOCTYPE svg PUBLIC "-//W3C//DTD SVG 20010904//EN"
 "http://www.w3.org/TR/2001/REC-SVG-20010904/DTD/svg10.dtd">
<svg version="1.0" xmlns="http://www.w3.org/2000/svg"
 width="600.000000pt" height="430.000000pt" viewBox="0 0 600.000000 430.000000"
 preserveAspectRatio="xMidYMid meet">
<metadata>
Created by potrace 1.16, written by Peter Selinger 2001-2019
</metadata>
<g transform="translate(0.000000,430.000000) scale(0.100000,-0.100000)"
fill="#f1ead8" stroke="none">
<path d="M4232 3839 c-87 -15 -156 -44 -257 -110 -81 -52 -106 -63 -150 -67
-34 -3 -71 2 -101 12 -63 21 -71 20 -48 -5 34 -38 95 -61 174 -68 l75 -6 -70
-40 c-95 -55 -158 -81 -233 -95 -88 -18 -169 -8 -248 29 -37 17 -69 29 -72 26
-3 -3 10 -22 29 -41 36 -39 151 -100 206 -110 18 -3 33 -10 33 -14 0 -4 -17
-10 -37 -13 -52 -9 -128 -48 -188 -98 -87 -72 -118 -84 -218 -83 -68 1 -85 -1
-77 -11 17 -21 97 -38 145 -32 57 8 94 27 170 87 81 64 121 83 250 114 61 15
126 36 145 46 l35 18 -81 -5 c-61 -4 -100 -1 -155 13 l-74 19 87 6 c48 4 105
13 125 20 51 16 150 67 251 127 110 67 220 112 273 112 51 0 46 -7 -36 -51
-151 -80 -259 -173 -489 -419 -235 -252 -370 -372 -523 -464 -128 -76 -304
-146 -453 -180 -36 -8 -156 -28 -268 -46 -112 -17 -232 -40 -266 -51 -145 -44
-272 -118 -361 -208 l-49 -51 -99 0 c-54 0 -130 -7 -170 -16 -159 -35 -338
-145 -443 -272 -69 -83 -116 -166 -170 -300 -65 -158 -103 -201 -240 -268
-195 -94 -290 -199 -329 -366 -16 -67 -20 -158 -7 -158 4 0 20 20 35 44 36 57
93 109 154 140 26 13 98 38 158 55 158 45 244 90 325 170 81 79 127 165 168
313 55 195 107 293 206 386 92 87 220 159 318 179 l28 5 -30 -53 c-71 -128
-91 -266 -66 -443 20 -137 20 -171 0 -229 -21 -63 -83 -130 -165 -178 -38 -22
-77 -51 -85 -65 -9 -13 -30 -75 -46 -137 -16 -62 -49 -152 -73 -202 -33 -69
-58 -104 -104 -147 -53 -51 -60 -63 -63 -100 l-3 -43 -55 -5 c-31 -3 -68 -13
-84 -23 -35 -23 -75 -109 -89 -191 -18 -108 -1 -117 120 -61 55 25 95 54 151
108 43 41 96 86 119 100 55 35 86 77 130 178 20 46 55 116 78 154 102 167 217
267 535 462 168 103 257 191 319 318 22 45 41 67 73 86 127 79 220 102 544
139 301 34 426 57 571 105 118 39 201 79 294 142 58 38 72 43 101 38 65 -12
165 28 349 140 198 121 299 176 334 182 30 5 35 3 35 -13 0 -37 -50 -125 -101
-179 -37 -39 -52 -63 -54 -87 l-2 -33 -51 3 c-35 3 -58 -1 -76 -13 -34 -22
-97 -150 -103 -209 -6 -45 -5 -46 24 -46 35 0 120 28 182 59 24 13 62 40 84
60 23 21 61 48 84 59 23 12 50 34 61 49 11 16 31 67 46 114 14 47 48 131 75
185 27 55 52 111 56 126 8 33 -11 95 -38 126 -12 12 -37 27 -57 33 -32 10 -57
6 -181 -24 -79 -20 -161 -39 -181 -42 l-36 -7 21 44 c19 37 23 67 28 213 7
169 14 207 53 284 23 43 74 99 105 115 14 8 41 17 59 21 32 7 32 6 32 -31 0
-21 9 -57 21 -80 24 -51 71 -95 137 -128 26 -13 80 -58 120 -99 70 -73 72 -76
72 -125 0 -44 4 -54 31 -76 17 -14 34 -26 39 -26 5 0 15 -3 24 -6 31 -12 16
24 -19 45 -33 19 -35 24 -35 71 0 48 -3 54 -73 133 -49 55 -91 92 -130 113
-78 41 -122 87 -137 140 -14 50 -8 94 20 146 11 21 16 39 11 42 -9 6 -55 -41
-64 -65 -4 -12 -13 -15 -31 -12 -38 8 -129 -41 -171 -90 -72 -84 -110 -209
-103 -341 3 -65 3 -65 -17 -46 -53 49 -174 67 -259 38 -70 -24 -53 -34 48 -30
55 3 108 0 128 -7 53 -17 80 -52 85 -108 4 -37 -1 -58 -19 -93 -15 -28 -34
-48 -49 -52 -112 -31 -139 -41 -168 -62 -42 -31 -81 -84 -81 -110 0 -17 9 -12
48 26 26 26 67 56 92 67 25 11 97 29 160 41 63 12 168 35 232 51 149 37 190
38 217 3 33 -42 27 -91 -24 -193 -25 -49 -59 -131 -75 -182 -17 -52 -38 -104
-46 -116 -8 -13 -33 -32 -57 -44 -23 -12 -63 -41 -89 -66 -47 -43 -101 -72
-172 -92 -33 -9 -36 -8 -36 12 0 27 51 138 72 154 9 8 37 12 70 10 50 -2 54
-4 50 -24 -6 -32 15 -29 31 5 10 18 11 36 6 57 -5 17 -7 37 -4 45 3 8 25 35
50 59 46 45 105 151 105 191 0 12 -5 30 -10 41 -14 26 -71 25 -130 -2 -25 -11
-132 -72 -238 -136 -106 -64 -219 -126 -250 -139 -71 -29 -131 -31 -165 -4
-14 11 -44 58 -66 104 -41 85 -73 118 -123 131 -37 9 -44 -11 -10 -29 42 -22
77 -67 102 -132 11 -31 30 -68 41 -82 l20 -26 -68 -44 c-120 -78 -265 -134
-443 -171 -114 -24 -198 -36 -390 -56 -265 -29 -401 -61 -506 -119 -24 -14
-44 -23 -44 -21 0 2 22 55 49 117 27 62 47 117 43 122 -12 20 -64 -63 -133
-216 -40 -88 -85 -179 -101 -203 -46 -70 -156 -166 -268 -235 -294 -180 -425
-290 -523 -441 -30 -46 -71 -122 -92 -169 -52 -120 -71 -148 -129 -185 -28
-18 -64 -47 -80 -64 -34 -35 -46 -28 -46 29 0 24 6 39 20 48 14 8 20 23 20 49
0 31 9 46 64 102 86 90 129 177 180 367 13 50 29 101 35 113 7 11 35 33 63 47
62 32 141 104 174 160 13 22 29 67 35 99 8 45 7 79 -5 157 -29 182 -16 306 44
432 66 139 195 268 342 342 97 49 209 78 413 109 287 42 423 80 601 164 206
98 343 207 600 478 240 252 323 332 424 404 76 55 215 131 281 154 18 7 8 10
-43 12 -38 2 -68 8 -68 12 0 12 161 31 260 31 63 0 81 3 73 11 -18 18 -202 23
-291 10 -42 -7 -135 -32 -207 -56 -71 -24 -148 -46 -170 -50 l-40 -6 50 28
c28 16 72 44 100 61 112 72 245 100 399 83 99 -11 231 -48 298 -83 36 -19 41
-19 55 -5 14 14 11 17 -28 38 -110 56 -296 100 -413 98 -33 -1 -85 -5 -114
-10z m-2575 -1695 c-32 -8 -100 -35 -150 -61 -74 -38 -110 -65 -183 -138 -74
-73 -98 -106 -132 -175 -23 -47 -58 -141 -77 -210 -20 -69 -52 -153 -72 -188
-48 -88 -127 -163 -215 -206 -40 -20 -122 -50 -182 -67 -126 -35 -191 -65
-248 -117 -38 -34 -40 -35 -34 -12 4 14 23 57 42 96 48 100 122 167 261 235
162 79 201 124 286 329 19 47 52 114 72 149 46 79 168 208 243 257 113 75 259
122 382 122 l65 0 -58 -14z m-610 -1736 c11 -62 11 -63 -15 -86 -25 -21 -122
-72 -138 -72 -14 0 6 101 29 147 24 48 55 73 93 73 17 0 22 -10 31 -62z M4925
3814 c-58 -39 -92 -72 -126 -126 -17 -26 -47 -58 -67 -70 l-37 -23 27 -3 c38
-4 73 22 119 89 33 49 85 99 103 99 9 0 -21 -88 -43 -126 -12 -20 -20 -39 -17
-41 11 -11 49 21 62 52 7 19 24 37 36 41 13 3 35 15 51 26 15 11 27 17 27 13
0 -10 -32 -69 -51 -93 -10 -13 -20 -18 -24 -12 -9 14 -27 13 -23 -2 2 -7 37
-78 80 -158 56 -106 82 -168 96 -230 12 -47 41 -156 66 -242 47 -160 53 -199
37 -240 -11 -27 -48 -68 -61 -68 -13 0 -13 87 -1 94 5 4 11 1 13 -6 7 -19 28
1 28 27 0 30 -14 39 -40 25 -41 -22 -63 -98 -40 -141 9 -17 7 -19 -16 -19 -22
0 -25 -2 -14 -15 32 -38 118 0 157 70 13 23 23 57 23 81 0 23 -24 127 -54 231
-30 104 -59 216 -65 247 -6 32 -26 83 -45 114 -18 32 -50 90 -71 131 l-36 73
20 22 c27 29 68 114 76 159 8 39 -3 49 -25 22 -7 -8 -35 -28 -62 -45 l-50 -31
6 36 c4 20 10 43 13 51 9 23 -28 17 -72 -12z M4910 3371 c0 -16 73 -71 93 -71
11 0 32 -8 48 -17 15 -9 31 -14 34 -11 8 7 -14 61 -28 70 -7 4 -28 8 -47 8
-19 0 -46 7 -60 15 -30 17 -40 18 -40 6z M3545 3162 c-58 -20 -97 -46 -174
-116 -61 -55 -144 -97 -208 -104 -24 -2 -46 -8 -49 -13 -8 -13 44 -22 93 -15
73 10 126 39 214 121 46 42 105 88 131 101 43 22 70 44 51 44 -4 -1 -31 -8
-58 -18z M1444 1864 c-8 -20 -26 -84 -39 -143 -13 -58 -35 -136 -49 -174 -77
-204 -257 -407 -444 -500 -46 -22 -129 -53 -185 -68 -76 -20 -97 -29 -83 -35
30 -12 165 12 240 42 90 36 169 88 256 170 119 113 206 239 256 370 13 36 35
127 48 202 13 76 27 145 31 155 4 10 3 17 -4 17 -7 0 -19 -16 -27 -36z"/>
</g>
</svg>
