<?xml version="1.0" standalone="no"?>
<!DOCTYPE svg PUBLIC "-//W3C//DTD SVG 20010904//EN"
 "http://www.w3.org/TR/2001/REC-SVG-20010904/DTD/svg10.dtd">
<svg version="1.0" xmlns="http://www.w3.org/2000/svg"
 width="600.000000pt" height="430.000000pt" viewBox="0 0 600.000000 430.000000"
 preserveAspectRatio="xMidYMid meet">
<metadata>
Created by potrace 1.16, written by Peter Selinger 2001-2019
</metadata>
<g transform="translate(0.000000,430.000000) scale(0.100000,-0.100000)"
fill="#f1ead8" stroke="none">
<path d="M4223 3836 c-40 -8 -103 -28 -140 -45 -36 -17 -89 -48 -116 -67 -28
-20 -66 -43 -86 -51 -19 -8 -56 -15 -82 -15 -26 1 -64 8 -84 16 -21 9 -42 16
-48 16 -5 0 -2 -9 9 -21 10 -12 37 -30 59 -42 31 -16 59 -21 122 -21 46 -1 83
-2 83 -2 0 -1 -39 -24 -87 -52 -49 -27 -115 -60 -148 -72 -33 -12 -94 -24
-135 -27 -55 -4 -92 -1 -135 11 -33 10 -75 26 -94 37 -18 11 -36 17 -39 14 -3
-3 10 -22 29 -41 19 -20 65 -52 104 -70 38 -19 84 -37 102 -40 18 -3 33 -10
33 -14 0 -4 -16 -11 -35 -14 -20 -4 -55 -15 -78 -25 -23 -10 -74 -44 -112 -75
-39 -30 -92 -63 -119 -72 -36 -12 -67 -15 -120 -10 -65 5 -69 4 -51 -9 11 -9
37 -20 59 -26 22 -6 58 -8 81 -5 22 4 58 16 80 26 22 11 62 38 90 61 27 22 70
51 96 64 25 13 95 36 155 50 60 15 125 35 144 45 l35 18 -81 -5 c-57 -4 -104
-1 -157 11 -42 10 -78 20 -81 24 -2 4 35 7 83 7 62 1 104 7 152 23 36 12 108
47 160 78 52 30 136 76 187 101 66 33 110 48 148 51 30 2 54 0 54 -5 0 -5 -33
-25 -73 -45 -40 -20 -111 -64 -157 -99 -47 -35 -148 -129 -225 -209 -277 -287
-422 -426 -510 -492 -49 -37 -137 -92 -195 -122 -58 -30 -145 -68 -195 -86
-49 -17 -126 -40 -170 -50 -44 -11 -170 -33 -279 -50 -110 -17 -236 -43 -280
-57 -45 -14 -108 -39 -141 -56 -33 -16 -80 -43 -105 -60 -25 -17 -70 -54 -100
-83 l-55 -52 -125 -5 c-89 -3 -145 -11 -195 -27 -38 -12 -104 -40 -145 -62
-41 -22 -102 -62 -136 -90 -34 -27 -84 -78 -112 -111 -27 -34 -64 -86 -82
-114 -17 -29 -49 -95 -70 -147 -21 -51 -48 -112 -59 -135 -12 -23 -39 -59 -60
-80 -20 -20 -89 -64 -152 -96 -77 -40 -132 -76 -171 -113 -32 -30 -69 -75 -84
-99 -14 -24 -34 -70 -45 -101 -23 -68 -37 -202 -21 -202 6 0 14 9 17 20 4 11
31 47 61 80 33 36 76 69 108 84 28 13 108 41 176 61 69 20 152 51 185 68 33
18 90 62 126 98 45 45 78 89 103 140 20 41 50 124 67 184 16 61 48 148 71 195
33 68 57 101 127 171 73 73 102 94 183 133 53 26 112 50 132 53 l36 6 -25 -44
c-14 -24 -36 -78 -49 -119 -13 -41 -27 -104 -31 -140 -4 -43 -1 -108 10 -190
10 -68 15 -148 12 -176 -3 -28 -13 -67 -22 -85 -10 -19 -36 -53 -59 -77 -22
-24 -69 -59 -104 -79 -35 -19 -69 -45 -77 -57 -8 -11 -28 -73 -45 -136 -17
-63 -48 -153 -70 -198 -29 -60 -59 -103 -105 -151 -56 -58 -65 -73 -65 -104 0
-20 -6 -39 -12 -43 -7 -5 -33 -8 -58 -9 -25 -1 -57 -9 -72 -19 -15 -10 -39
-42 -53 -71 -14 -28 -31 -82 -37 -118 -6 -36 -8 -73 -4 -82 5 -13 14 -16 37
-11 17 3 60 20 96 37 41 20 96 60 153 112 49 45 108 96 131 112 24 17 52 50
65 75 13 25 46 92 73 150 31 64 76 137 115 186 36 45 103 112 150 150 47 38
147 107 223 153 76 46 171 109 211 139 41 31 94 80 119 111 24 30 60 84 78
120 27 55 42 71 86 98 30 18 74 40 99 51 41 17 136 42 215 57 17 3 134 16 260
30 127 14 274 35 328 46 53 10 144 35 200 53 57 19 133 49 168 66 35 18 91 51
124 74 55 38 65 41 125 41 54 0 78 6 144 38 43 20 158 85 255 144 171 104 277
157 293 147 4 -3 8 -13 8 -22 0 -9 -11 -41 -25 -70 -13 -29 -47 -77 -76 -107
-42 -44 -51 -61 -51 -89 l0 -36 -55 6 c-51 7 -56 5 -88 -26 -18 -18 -45 -58
-59 -90 -14 -32 -29 -78 -32 -104 -6 -44 -6 -46 18 -46 13 0 49 7 79 16 30 9
72 25 94 36 22 12 59 38 82 59 22 21 64 49 92 64 30 15 60 39 71 58 11 18 33
75 50 129 16 53 51 135 76 183 33 63 46 99 46 130 1 25 -7 57 -18 76 -11 19
-37 43 -58 53 l-39 19 -171 -41 c-94 -23 -179 -42 -189 -42 -16 0 -15 4 5 43
19 37 23 64 29 212 4 113 12 184 22 211 8 23 24 59 35 80 11 21 35 53 54 71
18 18 50 39 70 47 21 9 44 16 53 16 10 0 15 -10 15 -32 0 -18 11 -56 24 -84
13 -29 40 -64 63 -82 23 -18 58 -40 79 -49 22 -10 72 -53 113 -96 73 -76 75
-78 72 -126 -2 -43 1 -51 29 -75 17 -14 42 -26 56 -26 13 0 24 4 24 10 0 5
-13 16 -30 25 -16 8 -33 22 -38 32 -5 9 -7 33 -5 52 5 34 -1 43 -71 124 -57
64 -92 95 -135 116 -31 16 -74 47 -94 70 -20 22 -39 55 -43 75 -3 20 -3 53 1
73 4 21 13 50 22 66 8 16 12 31 9 34 -2 3 -10 2 -16 -2 -6 -4 -20 -21 -30 -37
-15 -25 -26 -31 -59 -33 -23 -2 -61 -15 -85 -29 -24 -14 -56 -40 -72 -58 -15
-18 -40 -61 -56 -95 -16 -33 -34 -92 -40 -130 -6 -37 -8 -93 -5 -125 l5 -56
-45 31 c-39 28 -54 32 -121 35 -48 2 -92 -2 -116 -11 -22 -7 -41 -18 -43 -23
-2 -6 24 -7 69 -3 41 4 94 3 122 -3 27 -6 61 -22 78 -37 20 -18 31 -39 35 -67
3 -23 0 -58 -6 -77 -7 -20 -21 -47 -32 -61 -12 -15 -31 -26 -44 -26 -12 0 -46
-7 -74 -17 -28 -9 -69 -32 -91 -51 -40 -33 -70 -79 -70 -104 0 -7 21 8 48 34
26 25 65 55 87 66 23 11 83 28 135 37 52 9 158 32 235 51 77 19 158 34 181 34
27 0 47 -6 57 -18 9 -10 22 -33 28 -50 10 -30 6 -42 -44 -150 -31 -64 -67
-152 -81 -196 -14 -43 -32 -89 -41 -102 -8 -13 -33 -33 -55 -44 -22 -11 -65
-43 -94 -69 -31 -28 -76 -57 -107 -68 -30 -11 -66 -23 -81 -27 -26 -6 -26 -6
-16 32 6 20 21 58 33 83 13 25 30 51 38 57 8 7 38 11 70 9 53 -2 56 -3 50 -24
-3 -13 -1 -23 6 -23 5 0 15 10 22 21 6 13 8 39 4 64 -6 42 -4 45 54 110 38 42
67 86 80 121 12 30 21 63 21 74 0 10 -7 26 -16 34 -8 9 -30 16 -47 16 -18 0
-50 -9 -73 -19 -22 -10 -121 -67 -220 -126 -98 -60 -210 -123 -249 -142 -48
-23 -84 -33 -116 -33 -32 0 -55 7 -73 21 -14 11 -44 57 -65 102 -40 83 -74
120 -124 132 -14 4 -28 2 -31 -4 -4 -5 6 -17 21 -25 15 -8 38 -25 50 -38 12
-12 36 -54 53 -93 17 -38 39 -78 47 -88 15 -16 15 -19 -3 -32 -10 -9 -49 -33
-85 -55 -36 -22 -104 -55 -150 -74 -47 -19 -121 -44 -165 -55 -43 -11 -115
-26 -160 -35 -44 -8 -186 -27 -315 -41 -129 -15 -276 -38 -327 -51 -51 -13
-125 -38 -163 -57 -63 -30 -69 -31 -63 -13 4 12 24 59 45 105 22 46 39 90 39
97 0 26 -20 14 -47 -28 -15 -24 -48 -92 -75 -153 -27 -60 -61 -134 -75 -163
-15 -29 -46 -75 -68 -101 -22 -27 -61 -66 -86 -88 -25 -22 -88 -65 -140 -97
-165 -102 -282 -183 -348 -240 -35 -30 -83 -78 -108 -107 -24 -28 -58 -72 -74
-96 -17 -24 -59 -103 -94 -176 -34 -73 -73 -141 -86 -153 -13 -11 -40 -30 -59
-42 -19 -11 -48 -34 -64 -51 -22 -23 -32 -28 -38 -19 -4 7 -8 28 -8 46 0 19 8
40 21 53 13 13 18 27 14 39 -3 11 -1 28 4 39 6 10 37 45 69 78 39 39 71 83 95
133 20 41 52 130 71 197 19 66 39 130 45 141 6 11 39 36 74 55 35 20 85 59
111 87 26 28 54 67 62 87 9 20 19 59 24 87 5 33 3 82 -6 141 -7 50 -13 128
-14 175 0 47 7 113 15 145 9 33 28 87 44 120 16 33 49 88 74 122 25 34 76 87
113 117 37 31 101 73 143 95 42 21 112 50 156 64 44 14 163 37 265 52 102 15
235 40 295 55 61 15 157 46 215 69 58 22 141 61 186 87 45 25 121 75 170 112
88 65 230 203 514 498 80 82 180 176 222 207 43 32 108 75 145 96 37 21 92 47
121 57 28 10 52 23 52 28 0 5 -15 6 -33 3 -18 -3 -45 -3 -60 0 -15 3 -27 9
-27 13 0 12 143 30 242 30 72 0 89 3 80 12 -7 7 -52 14 -112 16 -54 2 -129 -1
-166 -8 -38 -6 -137 -33 -221 -61 -84 -27 -163 -49 -175 -49 -18 0 -13 6 24
28 25 15 70 42 100 60 29 17 77 41 105 52 29 11 83 25 120 31 39 6 103 8 148
4 44 -3 107 -13 140 -21 68 -17 146 -45 189 -68 21 -10 35 -12 48 -5 10 5 18
12 18 15 0 3 -30 19 -67 36 -37 17 -111 41 -163 55 -52 13 -135 26 -185 28
-54 3 -119 -1 -162 -9z m-2540 -1686 c-23 -5 -69 -20 -103 -33 -33 -14 -86
-40 -118 -58 -31 -19 -96 -73 -144 -121 -70 -70 -95 -104 -127 -170 -22 -46
-54 -132 -70 -193 -17 -60 -47 -143 -67 -183 -22 -45 -57 -95 -92 -130 -33
-34 -87 -73 -128 -94 -38 -21 -121 -51 -184 -68 -63 -17 -136 -43 -162 -57
-27 -15 -66 -42 -89 -61 l-40 -34 7 28 c15 62 61 140 117 200 46 50 78 72 155
110 53 26 119 63 146 83 27 19 66 61 86 93 21 32 54 99 75 150 20 51 48 113
62 138 50 89 129 183 202 241 40 33 99 73 130 88 31 16 79 36 107 45 28 9 70
20 95 25 24 5 76 9 114 9 64 0 66 -1 28 -8z m-635 -1742 c8 -53 7 -66 -6 -80
-8 -10 -42 -31 -75 -48 -33 -16 -66 -30 -72 -30 -9 0 -10 12 -4 48 5 26 14 61
20 79 6 18 23 46 39 63 19 20 38 30 58 30 28 0 30 -2 40 -62z M4925 3814 c-22
-15 -51 -36 -64 -48 -13 -12 -39 -44 -57 -72 -18 -29 -50 -63 -71 -75 -34 -21
-35 -24 -16 -27 12 -2 35 4 52 12 16 9 46 41 67 71 20 31 51 67 69 80 17 14
35 25 38 25 3 0 -1 -24 -10 -52 -8 -29 -24 -66 -35 -81 -11 -16 -18 -31 -14
-34 3 -3 17 2 31 11 13 9 27 27 31 41 4 17 24 34 60 54 30 16 54 26 54 23 0
-4 -14 -31 -31 -61 -23 -39 -34 -50 -42 -42 -6 6 -15 11 -19 11 -4 0 -8 -4 -8
-8 0 -5 35 -74 79 -154 56 -104 83 -166 95 -219 10 -41 39 -150 67 -244 27
-93 49 -188 49 -210 0 -40 -18 -78 -48 -102 -9 -7 -19 -13 -24 -13 -11 0 -10
87 1 94 5 4 11 1 13 -6 2 -6 10 -8 16 -4 7 4 12 18 12 31 0 12 -7 26 -16 29
-9 3 -25 -4 -39 -18 -13 -13 -27 -36 -31 -51 -4 -15 -2 -42 4 -61 9 -31 8 -34
-10 -34 -11 0 -18 -5 -16 -12 3 -7 17 -14 32 -16 17 -2 42 6 66 22 22 15 47
43 60 71 17 36 21 57 17 93 -3 26 -31 134 -61 240 -31 106 -56 203 -56 216 0
13 -34 89 -75 169 l-76 146 30 42 c17 22 39 66 51 95 11 30 20 59 20 64 0 6
-4 10 -10 10 -5 0 -35 -18 -66 -40 -32 -22 -61 -40 -65 -40 -4 0 -1 20 6 44 8
24 11 47 8 50 -4 3 -11 6 -17 6 -6 0 -29 -12 -51 -26z M4910 3371 c0 -5 17
-23 37 -40 21 -17 49 -31 64 -31 15 0 32 -7 39 -15 7 -8 16 -15 21 -15 5 0 9
11 9 23 0 13 -8 31 -18 40 -10 10 -34 17 -53 17 -19 0 -47 7 -63 15 -15 8 -30
15 -32 15 -2 0 -4 -4 -4 -9z M3543 3161 c-28 -9 -67 -30 -87 -45 -20 -15 -61
-49 -92 -76 -30 -26 -75 -58 -99 -69 -24 -11 -63 -24 -87 -27 -24 -4 -49 -10
-57 -14 -23 -12 43 -23 92 -15 23 4 63 18 90 32 26 13 84 57 128 98 44 41 101
84 125 95 24 12 44 26 44 31 0 5 -1 9 -2 9 -2 -1 -26 -9 -55 -19z M1444 1863
c-8 -21 -26 -86 -39 -144 -13 -59 -37 -142 -54 -185 -17 -44 -52 -113 -79
-154 -27 -42 -77 -106 -111 -143 -35 -37 -91 -88 -125 -113 -33 -26 -96 -64
-138 -84 -42 -21 -117 -47 -167 -60 -52 -13 -88 -26 -85 -32 4 -6 31 -7 68 -3
33 4 90 16 126 27 36 11 83 29 105 40 22 11 70 42 106 69 37 27 96 80 132 118
36 38 84 97 107 132 24 34 59 98 80 143 21 44 45 113 53 151 9 39 21 106 28
149 6 44 15 90 20 103 5 14 5 23 -1 23 -5 0 -17 -17 -26 -37z"/>
</g>
</svg>
