<?xml version="1.0" standalone="no"?>
<!DOCTYPE svg PUBLIC "-//W3C//DTD SVG 20010904//EN"
 "http://www.w3.org/TR/2001/REC-SVG-20010904/DTD/svg10.dtd">
<svg version="1.0" xmlns="http://www.w3.org/2000/svg"
 width="600.000000pt" height="430.000000pt" viewBox="0 0 600.000000 430.000000"
 preserveAspectRatio="xMidYMid meet">
<metadata>
Created by potrace 1.16, written by Peter Selinger 2001-2019
</metadata>
<g transform="translate(0.000000,430.000000) scale(0.100000,-0.100000)"
fill="#f1ead8" stroke="none">
<path d="M4265 3844 c-156 -31 -185 -43 -301 -121 -98 -66 -157 -78 -240 -49
-65 22 -71 20 -43 -10 34 -38 83 -56 169 -63 l75 -6 -87 -48 c-135 -75 -188
-91 -298 -91 -87 -1 -101 2 -164 32 -76 36 -76 36 -76 23 0 -32 120 -111 215
-141 49 -15 67 -30 37 -30 -43 0 -134 -43 -195 -92 -103 -83 -129 -93 -230
-92 -72 1 -85 -1 -76 -12 18 -21 89 -37 141 -31 56 7 109 33 168 82 72 60 122
84 244 115 116 30 186 54 186 64 0 3 -33 3 -73 0 -55 -5 -95 -2 -153 12 l-79
18 90 7 c126 10 150 20 418 171 109 62 189 91 239 86 32 -3 30 -5 -52 -51
-134 -75 -214 -140 -375 -307 -288 -297 -411 -416 -498 -481 -235 -176 -450
-257 -829 -314 -213 -32 -279 -47 -376 -86 -105 -42 -183 -91 -262 -166 l-67
-63 -99 0 c-353 -1 -642 -219 -781 -590 -53 -140 -115 -209 -246 -269 -182
-85 -283 -198 -322 -363 -16 -67 -20 -158 -7 -158 4 0 20 20 35 44 60 96 153
153 317 196 271 71 413 209 486 473 69 249 154 376 324 486 61 40 147 77 203
88 l29 6 -26 -41 c-67 -107 -96 -266 -77 -417 23 -177 24 -199 7 -257 -20 -72
-84 -144 -165 -187 -73 -39 -97 -67 -116 -140 -62 -233 -110 -333 -197 -416
-48 -46 -58 -61 -63 -100 l-7 -45 -47 0 c-87 0 -142 -62 -171 -190 -17 -76
-11 -114 18 -118 45 -7 183 71 252 143 36 36 84 78 107 92 62 36 87 71 153
210 124 261 217 351 622 603 149 93 238 186 320 338 9 18 38 45 64 62 106 67
234 98 534 130 448 47 657 107 860 245 50 34 62 38 125 39 87 2 128 21 385
176 265 160 318 181 305 118 -11 -52 -54 -123 -101 -168 -32 -30 -46 -53 -50
-79 l-6 -38 -48 5 c-33 3 -55 -1 -73 -12 -36 -24 -97 -145 -104 -207 l-6 -52
53 6 c69 8 187 64 242 115 24 22 61 49 83 60 60 30 73 49 111 168 19 60 55
145 78 189 24 44 46 94 50 112 16 74 -35 155 -107 168 -22 4 -78 -5 -168 -28
-73 -19 -153 -37 -177 -41 -42 -6 -43 -6 -28 16 29 47 38 103 40 246 3 165 16
219 69 298 36 54 96 99 145 109 32 7 32 6 32 -31 0 -79 60 -158 158 -208 26
-13 80 -58 120 -99 70 -73 72 -76 72 -125 0 -44 4 -54 31 -76 17 -14 34 -26
39 -26 5 0 15 -3 24 -6 31 -12 16 24 -19 45 -33 19 -35 24 -35 70 0 42 -5 57
-32 88 -75 90 -127 136 -179 163 -128 65 -167 167 -108 281 26 52 8 57 -34 9
-22 -26 -42 -40 -58 -40 -13 0 -47 -11 -74 -24 -123 -57 -201 -220 -193 -403
3 -71 3 -72 -17 -54 -42 39 -88 54 -160 54 -67 0 -164 -27 -150 -42 4 -3 50
-4 104 -3 115 4 160 -10 191 -60 11 -18 20 -49 20 -69 0 -48 -39 -121 -70
-130 -14 -4 -47 -13 -73 -19 -88 -23 -177 -101 -177 -155 0 -13 13 -5 50 29
64 59 110 80 230 101 52 9 157 32 233 51 168 41 199 42 232 9 39 -38 34 -88
-20 -192 -24 -49 -58 -131 -75 -183 -38 -117 -49 -134 -103 -161 -23 -12 -63
-41 -88 -64 -47 -44 -116 -80 -174 -91 -45 -8 -46 8 -7 91 37 78 50 88 109 83
44 -3 48 -5 53 -33 l6 -30 21 34 c17 26 19 39 12 64 -13 45 -14 43 40 97 52
52 111 157 111 197 0 45 -17 63 -61 63 -49 0 -101 -26 -338 -169 -269 -162
-343 -184 -405 -118 -17 18 -40 57 -50 87 -30 85 -126 164 -158 132 -7 -7 -2
-15 18 -25 45 -23 72 -57 100 -128 14 -35 34 -75 44 -90 l19 -25 -82 -51
c-192 -118 -376 -168 -817 -218 -290 -34 -399 -59 -506 -119 -24 -14 -44 -23
-44 -20 0 2 14 35 31 72 52 113 69 161 59 167 -14 8 -55 -52 -96 -140 -127
-274 -130 -281 -197 -352 -40 -42 -107 -96 -164 -133 -54 -35 -156 -101 -226
-148 -214 -140 -342 -286 -433 -494 -53 -121 -74 -151 -127 -182 -23 -14 -58
-41 -77 -61 -30 -31 -35 -33 -42 -18 -14 36 -8 78 12 91 14 8 20 23 20 49 0
31 9 46 65 104 79 82 128 180 175 348 39 144 40 146 102 177 70 36 153 116
182 178 35 72 40 126 22 238 -38 237 -4 390 125 561 94 125 256 229 429 276
41 11 140 30 220 41 292 42 447 84 626 169 206 99 341 206 605 482 232 243
311 319 407 392 69 52 227 140 292 162 20 7 11 10 -42 12 -38 2 -68 8 -68 12
0 12 161 31 260 31 67 0 81 3 72 12 -8 8 -53 14 -126 16 -133 5 -225 -11 -389
-68 -105 -36 -225 -65 -169 -40 12 5 48 27 80 48 106 73 161 94 284 112 127
19 316 -14 446 -78 49 -24 54 -24 69 -9 9 9 15 18 12 20 -15 10 -94 43 -154
64 -122 41 -297 63 -380 47z m-2608 -1700 c-180 -43 -383 -207 -465 -374 -23
-47 -58 -141 -78 -210 -76 -270 -192 -386 -454 -456 -119 -31 -206 -71 -258
-118 l-41 -37 11 38 c34 128 134 237 281 307 174 83 199 111 292 316 79 176
126 248 213 332 147 142 317 216 497 216 l60 0 -58 -14z m-610 -1736 c11 -62
11 -63 -15 -86 -25 -21 -122 -72 -138 -72 -4 0 -4 23 -1 50 8 67 54 152 87
161 53 15 56 12 67 -53z M4925 3814 c-60 -40 -83 -63 -126 -126 -21 -31 -52
-62 -69 -69 -38 -17 -39 -29 -2 -29 38 0 63 20 115 93 25 35 58 72 73 82 l27
17 -7 -38 c-4 -22 -18 -59 -32 -83 -13 -24 -22 -46 -19 -49 10 -10 52 28 65
57 7 17 18 31 24 31 6 0 28 11 49 25 42 29 44 27 21 -18 -22 -42 -54 -83 -54
-68 0 6 -7 11 -15 11 -8 0 -15 -4 -15 -9 0 -5 36 -76 79 -158 59 -111 84 -170
100 -235 11 -48 41 -158 66 -244 57 -198 57 -221 2 -281 -30 -33 -37 -29 -37
21 0 43 14 70 22 44 7 -19 28 1 28 27 0 30 -14 39 -40 25 -33 -18 -53 -68 -46
-117 5 -39 4 -43 -15 -43 -18 0 -19 -2 -9 -15 32 -38 118 0 157 70 33 59 29
101 -32 315 -30 106 -59 217 -64 246 -6 29 -30 88 -54 131 -25 43 -56 102 -71
130 l-26 53 35 45 c31 41 65 126 65 162 0 17 -15 17 -30 -2 -7 -8 -35 -29 -62
-46 l-51 -31 6 29 c4 15 9 38 13 51 9 31 -20 29 -71 -4z M4910 3371 c0 -16 74
-71 95 -71 12 0 30 -7 41 -15 31 -24 47 -19 40 13 -9 36 -32 52 -75 52 -20 1
-47 7 -61 15 -30 17 -40 18 -40 6z M3545 3162 c-57 -20 -92 -43 -174 -114 -69
-61 -116 -86 -191 -101 -72 -15 -72 -32 0 -32 85 0 139 27 237 117 49 44 109
91 135 104 80 41 76 55 -7 26z M1462 1897 c-18 -21 -41 -93 -64 -197 -78 -362
-335 -636 -675 -721 -50 -13 -89 -27 -87 -31 16 -26 202 10 296 58 196 99 385
311 464 520 14 37 34 121 45 188 11 67 25 136 31 154 11 37 7 50 -10 29z"/>
</g>
</svg>
