<?xml version="1.0" standalone="no"?>
<!DOCTYPE svg PUBLIC "-//W3C//DTD SVG 20010904//EN"
 "http://www.w3.org/TR/2001/REC-SVG-20010904/DTD/svg10.dtd">
<svg version="1.0" xmlns="http://www.w3.org/2000/svg"
 width="600.000000pt" height="430.000000pt" viewBox="0 0 600.000000 430.000000"
 preserveAspectRatio="xMidYMid meet">
<metadata>
Created by potrace 1.16, written by Peter Selinger 2001-2019
</metadata>
<g transform="translate(0.000000,430.000000) scale(0.100000,-0.100000)"
fill="#f1ead8" stroke="none">
<path d="M4260 3843 c-56 -8 -117 -24 -155 -40 -22 -9 -82 -44 -134 -77 -82
-52 -102 -60 -152 -64 -39 -3 -72 1 -99 12 -22 9 -46 16 -52 16 -6 0 -3 -9 8
-21 10 -12 37 -30 59 -41 24 -13 70 -23 115 -27 l75 -6 -80 -46 c-44 -25 -107
-56 -140 -69 -47 -18 -81 -23 -160 -24 -93 -1 -105 1 -169 32 -38 18 -71 30
-74 27 -3 -3 10 -22 29 -41 19 -20 65 -52 104 -70 38 -19 84 -37 102 -40 18
-3 33 -10 33 -14 0 -4 -17 -10 -37 -13 -21 -4 -60 -18 -88 -31 -27 -14 -75
-46 -105 -71 -30 -25 -71 -53 -90 -63 -26 -12 -58 -17 -122 -16 -67 0 -85 -2
-78 -11 6 -7 31 -18 55 -25 26 -7 65 -10 90 -7 25 4 62 15 83 26 20 11 59 38
87 61 27 23 70 52 95 65 25 12 93 34 153 49 59 14 124 34 145 45 l37 19 -81
-5 c-61 -4 -100 -1 -155 13 l-74 19 80 6 c44 4 100 12 125 19 24 6 74 27 110
45 36 18 102 56 148 83 45 28 116 64 156 81 44 18 92 31 117 31 27 0 39 -4 34
-9 -6 -6 -37 -24 -70 -42 -33 -17 -96 -57 -140 -88 -46 -32 -145 -123 -235
-216 -85 -88 -213 -218 -285 -290 -71 -72 -166 -158 -210 -191 -44 -33 -108
-77 -142 -98 -34 -20 -99 -54 -145 -75 -46 -21 -126 -52 -178 -69 -52 -16
-147 -39 -210 -51 -63 -11 -186 -32 -273 -46 -116 -18 -181 -34 -248 -60 -49
-20 -118 -53 -152 -73 -34 -20 -92 -65 -128 -99 l-66 -63 -100 0 c-67 0 -126
-7 -179 -20 -43 -11 -115 -38 -159 -59 -44 -21 -112 -63 -151 -94 -39 -30 -95
-86 -126 -124 -31 -37 -72 -97 -91 -133 -20 -36 -52 -106 -72 -157 -20 -50
-51 -112 -69 -138 -18 -25 -48 -57 -67 -71 -19 -14 -74 -46 -124 -70 -49 -25
-110 -61 -136 -81 -26 -19 -63 -57 -83 -83 -19 -25 -46 -71 -60 -101 -13 -30
-28 -78 -35 -107 -6 -29 -11 -73 -11 -97 0 -25 3 -45 8 -45 4 0 20 20 35 44
15 25 45 60 67 80 22 19 61 46 87 59 26 14 104 41 173 62 69 20 152 51 185 68
33 18 90 61 126 97 45 44 78 89 103 137 20 40 50 123 66 185 17 61 50 150 73
197 32 68 58 103 122 167 47 47 107 96 146 117 36 20 92 46 124 57 32 11 64
20 71 20 8 0 2 -19 -17 -52 -16 -29 -38 -81 -49 -116 -11 -35 -22 -98 -26
-140 -3 -49 0 -117 10 -186 9 -60 16 -126 16 -146 0 -20 -7 -57 -16 -83 -8
-25 -34 -66 -56 -92 -22 -25 -71 -63 -109 -86 -38 -22 -76 -50 -84 -63 -8 -12
-31 -80 -50 -150 -20 -72 -52 -162 -75 -205 -27 -52 -61 -97 -100 -135 -53
-50 -60 -61 -60 -96 0 -21 -4 -41 -10 -45 -5 -3 -31 -7 -59 -9 -27 -1 -61 -10
-76 -20 -15 -10 -38 -42 -52 -72 -14 -31 -30 -83 -36 -118 -6 -34 -8 -70 -4
-79 3 -9 16 -17 28 -17 12 0 55 16 96 36 52 25 100 60 162 117 48 45 101 89
118 98 16 9 42 32 56 50 14 19 42 72 62 119 21 47 55 115 77 151 21 36 62 94
91 127 30 34 89 91 133 127 43 37 149 109 234 162 85 52 183 117 218 144 34
27 82 75 107 106 24 32 58 84 74 118 25 50 39 66 85 94 31 18 85 44 120 57 34
12 96 29 137 38 41 8 164 25 274 36 110 11 241 28 290 36 50 8 125 24 168 35
44 11 115 33 159 49 44 16 113 47 154 69 41 23 91 53 111 68 31 24 46 28 102
28 57 0 78 6 151 41 47 22 128 67 180 99 209 127 298 176 333 182 32 5 37 3
37 -13 0 -11 -11 -43 -25 -72 -13 -29 -47 -77 -76 -107 -37 -39 -52 -63 -54
-87 l-3 -33 -54 3 c-48 3 -57 1 -82 -25 -16 -15 -42 -56 -59 -91 -16 -35 -32
-83 -35 -108 -5 -43 -4 -44 25 -44 16 0 54 8 84 19 30 10 74 28 98 40 24 13
62 40 84 60 23 21 61 48 84 59 23 12 50 34 61 49 11 16 31 67 46 114 14 47 48
131 75 185 27 55 52 111 56 126 4 15 1 44 -5 65 -7 21 -22 48 -33 61 -12 12
-37 27 -57 33 -32 10 -57 6 -181 -24 -79 -20 -161 -39 -181 -42 l-36 -7 21 44
c19 37 23 67 28 213 7 178 15 218 63 300 14 22 37 52 53 67 29 28 90 58 118
58 10 0 15 -9 15 -26 0 -15 5 -44 12 -65 6 -22 26 -56 44 -77 18 -21 59 -52
91 -70 34 -18 88 -62 131 -105 70 -72 72 -77 72 -124 0 -39 5 -54 23 -71 13
-13 38 -27 55 -32 25 -6 32 -5 32 5 0 7 -16 22 -35 34 -32 19 -35 24 -35 69 0
41 -6 55 -37 93 -20 24 -55 64 -77 87 -23 24 -66 56 -97 72 -30 16 -72 46 -92
69 -20 22 -39 55 -43 75 -3 20 -3 51 0 69 3 18 15 49 26 69 11 21 16 39 11 42
-4 3 -19 -7 -33 -22 -14 -15 -27 -33 -30 -41 -2 -7 -21 -14 -46 -16 -23 -2
-62 -15 -87 -29 -24 -14 -58 -43 -75 -63 -17 -21 -41 -61 -55 -89 -13 -27 -29
-80 -35 -118 -7 -37 -10 -96 -8 -130 l4 -64 -31 23 c-16 13 -43 29 -60 35 -16
6 -57 11 -90 11 -33 0 -78 -6 -99 -14 -22 -7 -41 -18 -43 -23 -2 -5 36 -7 89
-5 50 2 108 -2 128 -8 20 -6 47 -22 60 -36 15 -16 24 -40 27 -72 4 -37 -1 -58
-19 -93 -15 -28 -34 -48 -49 -52 -135 -37 -142 -40 -195 -92 -36 -35 -54 -60
-54 -76 0 -22 4 -21 48 22 26 26 67 56 92 67 25 11 86 27 135 36 50 9 156 32
237 51 80 20 163 34 184 32 26 -2 43 -11 57 -29 10 -15 19 -42 19 -61 0 -21
-18 -70 -47 -127 -25 -51 -60 -134 -76 -185 -17 -50 -37 -101 -45 -113 -8 -13
-33 -32 -57 -44 -23 -12 -63 -41 -89 -66 -47 -43 -101 -72 -172 -92 -33 -9
-36 -8 -36 12 0 12 13 49 28 82 16 33 36 66 44 72 9 8 37 12 70 10 50 -2 54
-4 50 -24 -2 -13 1 -23 7 -23 6 0 17 12 24 28 10 18 11 36 6 57 -5 17 -7 37
-4 45 3 8 25 35 50 59 25 24 59 72 75 106 17 35 30 73 30 85 0 12 -5 30 -10
41 -8 13 -21 19 -48 19 -20 0 -59 -11 -87 -24 -27 -12 -126 -69 -220 -126 -93
-57 -202 -118 -242 -137 -47 -22 -87 -33 -116 -33 -29 0 -53 7 -70 20 -14 11
-44 58 -66 104 -24 50 -52 93 -69 105 -16 11 -40 23 -54 26 -14 4 -29 2 -32
-4 -4 -5 6 -17 22 -25 17 -9 41 -29 55 -45 14 -17 35 -56 47 -87 11 -31 30
-68 40 -82 20 -24 20 -24 -3 -41 -45 -34 -123 -80 -172 -101 -89 -39 -188 -71
-296 -95 -59 -13 -185 -33 -280 -45 -96 -11 -228 -28 -294 -36 -66 -9 -160
-29 -210 -45 -49 -16 -109 -40 -132 -53 -24 -14 -43 -23 -43 -20 0 2 20 50 45
106 25 56 45 111 45 122 0 19 -1 19 -21 1 -20 -19 -40 -58 -153 -299 -51 -107
-64 -127 -139 -200 -54 -55 -117 -103 -187 -146 -58 -35 -151 -95 -207 -133
-57 -38 -141 -106 -187 -152 -46 -46 -105 -118 -132 -160 -27 -43 -72 -127
-99 -188 -43 -95 -57 -116 -95 -144 -25 -18 -66 -51 -91 -73 -38 -32 -48 -37
-53 -24 -3 9 -6 30 -6 47 0 22 7 36 20 45 15 9 20 22 18 47 -2 31 5 43 59 98
34 34 75 87 92 117 16 30 38 75 47 100 9 25 28 90 44 146 15 55 33 110 39 122
6 12 35 34 63 48 28 14 73 47 100 72 27 25 60 64 73 87 13 22 28 65 34 96 10
45 9 77 -5 165 -11 72 -14 141 -11 204 3 58 14 118 26 154 12 33 33 80 47 105
15 25 45 70 67 99 22 29 70 78 106 108 36 30 100 72 141 94 42 21 115 50 163
64 48 14 152 35 230 46 78 11 188 29 244 41 56 11 144 34 195 50 51 17 135 50
186 74 51 24 137 73 190 108 53 35 135 98 182 139 47 41 157 150 245 242 88
92 164 174 168 182 4 8 52 53 105 100 53 48 130 109 170 136 40 27 108 66 151
87 44 21 90 42 103 46 17 7 6 10 -44 12 -38 2 -68 8 -68 12 0 4 37 13 83 19
45 7 122 12 172 12 68 0 86 3 77 12 -7 7 -56 13 -119 16 -75 3 -135 -1 -196
-12 -48 -9 -136 -34 -195 -55 -59 -21 -127 -42 -152 -45 l-45 -7 50 29 c28 16
77 46 110 66 33 20 87 45 120 55 33 10 89 22 125 25 36 4 105 2 153 -4 49 -6
125 -22 169 -36 44 -14 98 -35 120 -46 36 -19 41 -19 55 -5 14 14 12 17 -23
35 -70 35 -184 72 -271 87 -80 14 -175 17 -233 8z m-2585 -1695 c-27 -5 -97
-32 -155 -60 -91 -44 -115 -62 -195 -142 -63 -64 -102 -112 -127 -161 -20 -38
-55 -133 -78 -210 -23 -77 -58 -169 -78 -205 -19 -36 -59 -88 -87 -115 -28
-28 -83 -67 -121 -87 -39 -21 -121 -51 -184 -68 -63 -17 -136 -43 -162 -57
-27 -15 -67 -42 -89 -62 -39 -33 -41 -33 -35 -10 4 13 23 56 42 95 24 51 51
88 94 128 41 37 94 72 168 108 72 35 122 68 154 99 25 25 56 66 68 90 13 24
42 90 66 147 24 57 64 134 88 171 25 37 81 102 124 143 44 41 108 92 143 111
36 20 85 44 109 53 25 8 72 22 105 29 33 7 92 13 130 13 l70 0 -50 -10z m-628
-1740 c7 -42 7 -67 1 -75 -13 -16 -105 -68 -137 -78 -24 -7 -24 -7 -18 44 3
28 17 72 30 98 13 27 34 54 48 60 13 7 33 13 45 13 17 0 22 -9 31 -62z M4925
3814 c-22 -15 -53 -38 -68 -53 -15 -14 -42 -47 -58 -73 -17 -26 -47 -58 -67
-70 l-37 -23 27 -3 c15 -2 39 5 53 14 15 10 44 43 66 75 21 31 52 67 68 78 16
12 32 21 35 21 3 0 -1 -20 -9 -45 -7 -25 -23 -61 -34 -81 -12 -20 -20 -39 -17
-41 2 -3 14 1 26 7 12 6 28 27 36 45 7 19 24 37 36 41 13 3 35 15 51 26 15 11
27 16 27 11 0 -4 -14 -32 -31 -62 -23 -39 -34 -50 -42 -42 -6 6 -15 11 -20 11
-5 0 -7 -6 -5 -12 2 -7 38 -78 80 -158 56 -107 82 -168 97 -231 11 -47 40
-155 65 -239 25 -85 46 -168 46 -186 0 -18 -4 -44 -10 -58 -5 -14 -18 -34 -30
-46 -11 -11 -24 -20 -30 -20 -13 0 -13 87 -1 94 5 4 11 1 13 -6 2 -6 10 -8 16
-4 7 4 12 18 12 31 0 13 -4 27 -10 30 -5 3 -19 1 -30 -5 -11 -6 -27 -24 -35
-40 -8 -16 -15 -41 -15 -55 0 -15 5 -35 10 -46 9 -17 7 -19 -16 -19 -22 0 -25
-2 -14 -15 7 -8 25 -15 40 -15 15 0 42 10 61 23 18 12 44 40 56 62 13 23 23
57 23 80 0 22 -24 126 -54 230 -30 105 -59 217 -66 250 -7 33 -27 85 -45 115
-18 30 -49 88 -70 129 -36 72 -36 74 -18 95 11 11 26 32 35 47 9 14 23 47 32
74 9 26 15 54 12 62 -4 10 -18 4 -52 -22 -25 -19 -55 -40 -66 -46 -19 -10 -20
-9 -14 26 4 20 10 43 13 51 9 23 -28 17 -72 -12z M4910 3371 c0 -5 17 -23 37
-40 21 -17 47 -31 58 -31 11 0 31 -7 43 -16 12 -8 26 -12 32 -9 6 4 5 16 -1
33 -6 14 -16 30 -22 34 -7 4 -28 8 -47 8 -19 0 -46 7 -60 15 -14 8 -28 14 -32
15 -5 0 -8 -4 -8 -9z M3545 3162 c-28 -10 -66 -29 -85 -42 -19 -14 -59 -47
-89 -74 -30 -26 -79 -60 -109 -74 -30 -13 -75 -27 -99 -30 -24 -2 -46 -8 -49
-13 -2 -5 7 -11 21 -15 15 -4 47 -4 73 0 25 3 66 16 89 27 24 12 80 55 125 96
44 41 102 85 129 98 26 14 50 29 54 35 3 5 3 10 -2 10 -4 -1 -31 -8 -58 -18z
M1444 1863 c-8 -21 -26 -85 -39 -143 -13 -58 -35 -135 -49 -173 -14 -37 -42
-95 -62 -130 -20 -34 -61 -92 -91 -130 -30 -37 -89 -97 -131 -133 -42 -36
-114 -84 -160 -107 -46 -22 -129 -53 -185 -68 -73 -19 -97 -29 -84 -34 11 -4
54 -3 97 3 43 6 108 23 144 38 37 14 93 43 124 64 32 20 88 65 125 100 37 34
90 91 117 125 27 34 65 89 84 123 19 33 46 89 60 125 14 36 37 131 51 213 14
81 28 151 31 155 3 5 0 9 -5 9 -6 0 -18 -17 -27 -37z"/>
</g>
</svg>
