<?xml version="1.0" standalone="no"?>
<!DOCTYPE svg PUBLIC "-//W3C//DTD SVG 20010904//EN"
 "http://www.w3.org/TR/2001/REC-SVG-20010904/DTD/svg10.dtd">
<svg version="1.0" xmlns="http://www.w3.org/2000/svg"
 width="600.000000pt" height="430.000000pt" viewBox="0 0 600.000000 430.000000"
 preserveAspectRatio="xMidYMid meet">
<metadata>
Created by potrace 1.16, written by Peter Selinger 2001-2019
</metadata>
<g transform="translate(0.000000,430.000000) scale(0.100000,-0.100000)"
fill="#f1ead8" stroke="none">
<path d="M4265 3844 c-156 -31 -185 -43 -301 -121 -98 -66 -157 -78 -240 -49
-63 21 -71 20 -48 -5 34 -38 95 -61 174 -68 l75 -6 -45 -26 c-215 -126 -359
-149 -505 -80 -75 34 -75 35 -75 22 0 -34 158 -132 237 -147 36 -7 45 -24 13
-24 -41 0 -133 -44 -193 -92 -103 -83 -129 -93 -230 -92 -72 1 -85 -1 -76 -12
18 -21 89 -37 141 -31 58 7 109 33 173 87 72 60 114 79 257 116 183 47 217 68
95 58 -55 -5 -95 -2 -153 12 l-79 18 85 6 c120 9 213 45 357 137 97 62 219
114 281 120 68 7 64 -2 -23 -48 -150 -80 -268 -181 -490 -420 -438 -472 -672
-604 -1215 -684 -215 -32 -281 -47 -378 -86 -105 -42 -183 -91 -262 -166 l-67
-63 -97 0 c-129 0 -220 -21 -341 -80 -208 -101 -350 -265 -442 -510 -53 -140
-116 -209 -246 -270 -183 -84 -283 -197 -322 -362 -16 -67 -20 -158 -7 -158 4
0 20 20 35 44 61 97 142 148 313 195 286 80 415 206 493 483 38 136 62 195
111 272 86 136 265 264 413 293 l29 6 -26 -41 c-72 -114 -98 -278 -72 -456 20
-135 20 -159 1 -223 -20 -67 -86 -140 -164 -182 -73 -39 -97 -67 -116 -140 -9
-31 -23 -83 -32 -116 -30 -115 -96 -235 -162 -298 -35 -33 -62 -67 -63 -80 -1
-12 -2 -31 -2 -42 -1 -17 -10 -21 -57 -25 -72 -7 -106 -30 -136 -96 -28 -61
-50 -171 -40 -197 18 -47 168 22 275 126 43 41 96 86 119 100 55 35 86 77 130
178 55 128 111 214 196 305 95 101 153 146 351 269 240 150 318 223 383 357
64 131 211 183 658 232 416 47 633 110 825 241 50 34 62 38 125 40 87 2 131
22 385 175 308 187 351 195 280 54 -16 -33 -50 -79 -75 -103 -25 -23 -46 -50
-47 -59 -1 -10 -2 -26 -2 -37 -1 -18 -7 -20 -53 -17 -35 3 -59 -1 -76 -13 -36
-23 -97 -144 -104 -206 l-6 -52 53 6 c69 8 187 64 242 115 24 22 61 49 83 60
60 30 73 49 111 168 19 60 55 145 78 189 24 44 46 94 50 112 10 46 -10 108
-44 137 -49 41 -82 41 -231 3 -73 -19 -154 -38 -177 -42 l-44 -7 15 23 c29 47
38 98 41 245 3 167 16 222 69 300 36 54 96 99 145 109 32 7 32 6 32 -31 0 -79
60 -158 158 -208 26 -13 80 -58 120 -99 70 -73 72 -76 72 -125 0 -44 4 -54 31
-76 17 -14 34 -26 39 -26 5 0 15 -3 24 -6 31 -12 16 24 -19 45 -33 19 -35 24
-35 71 0 48 -3 54 -73 133 -49 55 -92 92 -129 112 -73 39 -106 70 -129 120
-25 54 -24 90 5 152 13 28 22 54 18 57 -8 9 -62 -45 -62 -61 0 -8 -12 -13 -33
-13 -48 0 -131 -45 -172 -93 -72 -84 -110 -209 -103 -341 3 -65 3 -65 -17 -46
-53 50 -173 68 -259 38 -70 -24 -53 -34 48 -30 149 7 205 -24 213 -115 6 -59
-29 -133 -67 -144 -107 -29 -140 -42 -169 -63 -41 -31 -81 -84 -81 -109 0 -16
10 -10 50 27 65 61 109 79 250 106 63 12 168 34 232 51 145 36 181 37 213 4
39 -38 34 -88 -20 -192 -24 -49 -58 -131 -75 -183 -38 -117 -49 -134 -103
-161 -23 -12 -63 -41 -88 -65 -47 -43 -87 -64 -166 -89 -41 -13 -43 -12 -43 8
0 28 52 138 72 155 10 8 36 12 67 10 45 -3 51 -5 51 -25 0 -13 4 -23 10 -23
17 0 37 54 29 80 -13 44 -10 50 40 100 52 52 111 157 111 197 0 45 -17 63 -61
63 -49 0 -75 -13 -317 -157 -215 -129 -287 -162 -348 -163 -58 0 -87 27 -133
124 -39 84 -90 136 -133 136 -30 0 -30 -19 0 -34 43 -22 77 -67 102 -132 11
-32 29 -69 40 -84 l18 -26 -71 -45 c-190 -121 -384 -174 -822 -224 -294 -33
-403 -59 -511 -119 -24 -14 -44 -23 -44 -21 0 2 22 54 49 116 50 114 55 145
19 113 -19 -18 -55 -88 -156 -305 -62 -133 -139 -219 -279 -309 -296 -192
-360 -237 -433 -309 -91 -90 -175 -214 -226 -332 -50 -118 -70 -147 -128 -184
-28 -18 -64 -47 -81 -64 -26 -28 -30 -30 -37 -14 -14 36 -8 78 12 91 14 8 20
23 20 49 0 31 9 46 65 104 79 82 130 182 173 345 38 141 42 149 104 180 62 32
141 104 174 160 40 69 48 139 28 266 -33 214 -5 355 99 511 73 109 168 191
292 252 115 56 198 78 415 110 286 42 450 89 630 180 184 93 323 206 566 462
240 252 323 332 424 404 76 55 215 131 281 154 18 7 8 10 -43 12 -38 2 -68 8
-68 12 0 12 161 31 260 31 65 0 81 3 72 12 -7 7 -56 13 -124 16 -134 5 -225
-11 -391 -68 -62 -21 -130 -41 -152 -45 l-40 -6 35 19 c19 10 64 37 99 60 80
52 153 80 247 93 132 18 323 -15 452 -78 48 -24 54 -25 69 -11 14 15 12 18
-28 39 -139 70 -378 116 -494 93z m-2608 -1700 c-180 -43 -384 -207 -465 -374
-23 -47 -58 -141 -77 -210 -80 -275 -188 -382 -468 -460 -126 -35 -192 -66
-249 -118 -38 -34 -40 -35 -34 -12 4 14 23 57 42 96 47 99 123 167 257 233
141 69 187 111 238 219 134 282 150 311 222 388 154 165 338 252 532 252 l60
0 -58 -14z m-610 -1736 c11 -62 11 -63 -15 -86 -25 -21 -122 -72 -138 -72 -14
0 6 101 29 147 24 48 55 73 93 73 17 0 22 -10 31 -62z M4925 3814 c-58 -39
-92 -72 -126 -126 -17 -26 -47 -58 -67 -70 l-37 -23 28 -3 c39 -5 70 18 116
87 35 51 87 101 105 101 9 0 -21 -88 -43 -126 -12 -20 -20 -39 -17 -41 11 -11
49 21 62 52 7 19 24 37 36 41 13 3 35 15 51 26 31 22 33 19 11 -25 -22 -42
-54 -83 -54 -68 0 6 -7 11 -15 11 -8 0 -15 -4 -15 -8 0 -4 36 -75 79 -158 58
-109 85 -173 99 -235 12 -47 41 -155 66 -241 52 -176 55 -208 25 -258 -39 -64
-59 -66 -59 -6 0 43 14 70 22 44 7 -19 28 1 28 27 0 30 -14 39 -40 25 -41 -22
-63 -98 -40 -141 9 -17 7 -19 -16 -19 -22 0 -25 -2 -14 -15 32 -38 118 0 157
70 33 59 29 102 -31 312 -30 104 -59 216 -65 247 -6 32 -26 83 -45 114 -18 32
-50 90 -70 129 l-36 73 35 45 c31 41 65 126 65 162 0 17 -15 17 -30 -2 -7 -8
-35 -28 -62 -45 l-50 -31 6 36 c4 20 10 43 13 51 9 23 -28 17 -72 -12z M4910
3371 c0 -16 73 -71 93 -71 11 0 32 -8 48 -17 35 -21 43 -15 29 23 -14 36 -26
44 -70 44 -19 0 -46 7 -60 15 -30 17 -40 18 -40 6z M3545 3162 c-57 -20 -93
-43 -174 -115 -66 -58 -137 -94 -204 -103 -55 -8 -69 -21 -32 -30 81 -20 177
20 286 121 46 42 105 88 131 101 80 41 76 55 -7 26z M1455 1887 c-8 -13 -33
-96 -55 -183 -45 -179 -86 -270 -175 -389 -133 -177 -286 -279 -500 -336 -119
-32 -109 -49 17 -31 144 21 262 82 393 205 183 170 273 338 309 577 9 58 21
120 27 138 14 42 6 51 -16 19z"/>
</g>
</svg>
