<?xml version="1.0" standalone="no"?>
<!DOCTYPE svg PUBLIC "-//W3C//DTD SVG 20010904//EN"
 "http://www.w3.org/TR/2001/REC-SVG-20010904/DTD/svg10.dtd">
<svg version="1.0" xmlns="http://www.w3.org/2000/svg"
 width="600.000000pt" height="430.000000pt" viewBox="0 0 600.000000 430.000000"
 preserveAspectRatio="xMidYMid meet">
<metadata>
Created by potrace 1.16, written by Peter Selinger 2001-2019
</metadata>
<g transform="translate(0.000000,430.000000) scale(0.100000,-0.100000)"
fill="#f1ead8" stroke="none">
<path d="M4244 3840 c-28 -4 -69 -13 -90 -20 -21 -7 -61 -24 -88 -37 -27 -14
-80 -46 -118 -71 -58 -39 -79 -46 -128 -50 -40 -3 -73 1 -100 12 -22 9 -46 16
-52 16 -6 0 -3 -9 8 -21 10 -12 37 -30 59 -42 30 -16 60 -21 122 -21 46 -1 83
-2 83 -2 0 -1 -39 -24 -87 -51 -49 -28 -115 -60 -147 -72 -32 -12 -93 -25
-135 -28 -57 -4 -92 -1 -136 11 -33 10 -75 26 -94 37 -18 11 -36 17 -39 14 -3
-3 10 -22 29 -41 19 -20 65 -52 104 -70 38 -19 84 -37 102 -40 18 -3 33 -10
33 -14 0 -4 -17 -10 -37 -13 -21 -4 -60 -18 -88 -31 -27 -14 -75 -46 -105 -71
-30 -25 -71 -53 -90 -63 -26 -12 -58 -17 -122 -16 -67 0 -85 -2 -78 -11 6 -7
30 -18 55 -25 27 -8 63 -10 92 -5 26 3 66 17 89 30 23 13 61 40 84 60 24 20
65 47 91 61 26 13 95 35 153 49 59 13 123 33 144 44 l37 19 -82 -5 c-61 -4
-101 -1 -160 13 l-78 19 90 7 c50 3 113 14 140 23 28 10 75 30 105 45 30 16
92 51 138 78 45 28 116 64 156 81 43 18 92 31 116 31 24 0 39 -4 35 -10 -3 -5
-35 -24 -71 -42 -35 -18 -104 -61 -152 -97 -48 -36 -150 -131 -227 -211 -77
-79 -201 -206 -275 -281 -74 -74 -181 -170 -237 -212 -60 -44 -153 -100 -225
-135 -68 -33 -159 -72 -203 -86 -44 -14 -111 -32 -150 -41 -38 -9 -158 -29
-265 -46 -107 -16 -231 -41 -275 -55 -44 -14 -105 -38 -135 -53 -30 -15 -75
-40 -100 -56 -25 -16 -72 -54 -105 -85 l-60 -58 -125 -5 c-90 -3 -145 -11
-195 -27 -38 -12 -99 -37 -135 -55 -36 -18 -97 -58 -136 -88 -39 -30 -95 -86
-126 -124 -31 -37 -72 -97 -91 -133 -20 -36 -52 -106 -72 -157 -20 -50 -51
-112 -69 -138 -18 -25 -48 -57 -67 -71 -19 -14 -74 -46 -124 -70 -49 -25 -110
-61 -136 -81 -26 -19 -63 -57 -83 -83 -19 -25 -46 -71 -60 -101 -13 -30 -28
-78 -35 -107 -6 -29 -11 -73 -11 -97 0 -25 3 -45 8 -45 4 0 20 20 35 44 15 25
45 60 67 80 22 19 61 46 87 59 26 14 104 41 173 62 69 20 152 51 185 68 33 18
89 61 125 97 40 40 80 92 102 136 20 38 51 122 68 185 17 62 50 152 72 199 34
68 59 102 128 171 71 70 102 93 180 132 52 25 112 49 132 53 l37 6 -29 -53
c-17 -30 -39 -82 -49 -115 -11 -34 -23 -92 -26 -130 -4 -44 -1 -113 9 -191 9
-67 16 -137 16 -155 0 -19 -7 -56 -17 -83 -11 -34 -34 -67 -72 -105 -31 -30
-79 -67 -108 -82 -29 -15 -59 -39 -68 -52 -9 -13 -29 -75 -45 -138 -17 -63
-49 -153 -74 -203 -33 -67 -60 -105 -105 -149 -54 -51 -61 -63 -61 -97 0 -28
-5 -41 -20 -49 -11 -6 -30 -8 -43 -5 -13 4 -40 0 -60 -8 -23 -10 -44 -30 -61
-59 -14 -24 -32 -72 -41 -106 -9 -34 -15 -77 -13 -95 2 -24 8 -33 26 -35 12
-2 56 13 98 33 55 27 99 59 158 115 44 42 95 85 113 93 17 9 45 33 61 53 17
20 45 71 62 113 17 42 51 110 75 151 24 41 70 105 102 143 32 37 99 100 150
140 50 39 154 109 230 155 76 46 166 106 201 133 34 27 82 75 106 106 24 30
58 83 74 117 25 51 39 67 86 95 31 18 85 44 120 57 35 13 100 30 143 39 43 8
180 26 305 40 125 13 273 34 330 45 57 12 149 36 205 55 56 19 130 48 165 66
35 17 90 50 123 73 55 38 65 41 126 41 60 0 77 5 170 52 57 28 156 84 219 124
63 40 148 89 188 111 40 21 84 38 97 38 17 0 25 -6 25 -17 0 -10 -11 -42 -25
-71 -13 -29 -47 -77 -76 -107 -37 -39 -52 -63 -54 -87 l-3 -33 -54 3 c-48 3
-57 1 -82 -25 -16 -15 -42 -56 -59 -91 -16 -35 -32 -83 -35 -108 -5 -43 -4
-44 25 -44 16 0 54 8 84 19 30 10 73 28 94 39 22 11 60 38 85 60 25 21 64 49
87 60 23 12 50 34 61 49 11 16 32 69 47 118 15 50 49 133 75 185 26 52 51 109
55 126 4 20 0 47 -11 73 -9 23 -28 50 -41 61 -14 11 -39 22 -57 25 -20 4 -80
-6 -166 -28 -74 -20 -154 -38 -177 -42 l-42 -7 22 44 c18 37 22 67 28 213 7
178 15 217 63 300 14 22 37 52 53 67 29 28 90 58 118 58 10 0 15 -9 15 -26 0
-15 5 -44 12 -65 6 -22 26 -57 45 -78 18 -22 58 -52 87 -66 34 -16 82 -56 130
-104 74 -77 76 -80 76 -129 0 -44 4 -54 31 -76 17 -14 41 -26 55 -26 13 0 24
4 24 9 0 5 -16 18 -35 30 -32 19 -35 24 -35 69 0 41 -6 55 -37 93 -20 24 -55
64 -77 87 -23 24 -66 56 -97 72 -30 16 -72 46 -92 69 -20 22 -39 55 -43 75 -3
20 -3 51 0 69 3 18 15 49 26 69 11 21 16 39 11 42 -4 3 -19 -7 -33 -22 -14
-15 -27 -33 -30 -41 -2 -7 -21 -14 -46 -16 -23 -2 -62 -15 -87 -29 -24 -14
-58 -43 -75 -63 -17 -21 -41 -61 -55 -89 -13 -27 -29 -80 -35 -118 -7 -37 -10
-95 -8 -130 l4 -63 -44 31 c-38 27 -53 31 -120 34 -48 2 -92 -2 -116 -11 -22
-7 -41 -18 -43 -23 -2 -5 36 -7 89 -5 50 2 108 -2 128 -8 20 -6 47 -22 60 -36
15 -16 24 -40 27 -72 4 -37 -1 -58 -19 -93 -15 -28 -34 -48 -49 -52 -135 -37
-142 -40 -195 -92 -36 -35 -54 -60 -54 -76 0 -22 4 -21 48 22 26 26 67 56 92
67 25 11 86 27 135 36 50 9 156 32 237 51 80 20 163 34 184 32 27 -2 43 -11
57 -31 12 -15 21 -41 20 -60 0 -18 -22 -75 -48 -126 -25 -51 -60 -134 -76
-185 -17 -50 -37 -101 -45 -113 -8 -13 -33 -32 -56 -44 -22 -11 -62 -41 -88
-65 -26 -25 -74 -55 -106 -68 -33 -13 -71 -26 -86 -30 -26 -6 -26 -6 -16 32 6
20 21 58 33 83 13 25 30 51 38 57 8 7 38 11 69 9 50 -2 54 -4 50 -24 -2 -13 1
-23 6 -23 6 0 16 10 23 21 7 13 9 40 5 66 -5 42 -4 45 54 108 37 42 66 86 79
121 12 30 21 62 21 70 0 8 -5 24 -10 35 -8 13 -21 19 -48 19 -20 0 -59 -11
-87 -24 -27 -12 -126 -69 -220 -126 -93 -57 -202 -118 -242 -137 -47 -22 -87
-33 -116 -33 -29 0 -53 7 -70 20 -14 11 -44 58 -66 104 -24 50 -52 93 -69 105
-16 11 -40 23 -54 26 -14 4 -29 2 -32 -4 -4 -5 6 -17 22 -25 17 -9 41 -28 54
-44 14 -17 35 -56 48 -88 13 -33 32 -70 42 -83 17 -23 17 -24 -5 -40 -52 -39
-127 -82 -197 -112 -41 -17 -111 -42 -154 -55 -44 -13 -128 -33 -186 -44 -58
-11 -206 -31 -330 -45 -124 -15 -254 -33 -290 -40 -36 -8 -92 -23 -124 -34
-32 -12 -79 -32 -103 -46 l-44 -24 7 22 c4 12 24 60 45 106 22 46 39 93 39
104 0 20 0 20 -21 2 -20 -19 -41 -59 -152 -296 -45 -96 -67 -129 -125 -190
-45 -48 -107 -98 -172 -139 -256 -162 -340 -223 -416 -298 -79 -77 -138 -154
-182 -237 -12 -22 -41 -84 -66 -137 -38 -84 -51 -102 -92 -130 -27 -18 -67
-50 -90 -71 -34 -31 -43 -35 -48 -21 -3 8 -6 29 -6 45 0 16 9 38 21 50 15 15
19 28 15 45 -5 20 5 36 57 92 35 37 76 89 91 115 15 26 37 71 48 100 11 28 33
97 48 153 15 55 33 110 39 122 6 12 35 34 63 48 28 14 73 46 99 71 27 25 58
60 69 78 11 17 27 59 35 93 15 57 15 72 1 167 -9 58 -16 141 -16 183 0 43 7
105 15 137 8 33 31 92 51 132 20 39 60 100 89 135 29 36 81 86 116 112 35 27
94 63 131 82 37 19 106 45 153 59 47 13 152 34 233 46 81 11 189 29 241 40 52
11 147 37 212 58 64 22 150 56 190 76 41 21 106 58 144 82 39 25 102 70 140
101 39 31 110 94 159 141 48 47 152 156 231 241 79 85 180 186 224 225 45 38
108 87 139 108 62 42 228 127 248 127 7 0 16 5 20 11 4 7 -8 10 -37 9 -24 -1
-54 -1 -66 -1 -13 1 -23 5 -23 9 0 5 37 14 83 20 45 7 122 12 172 12 68 0 86
3 77 12 -7 7 -56 13 -120 16 -78 3 -133 0 -192 -12 -46 -10 -143 -37 -215 -62
-73 -24 -143 -44 -156 -44 -19 0 -14 6 26 29 28 15 77 45 110 65 33 20 87 45
120 55 33 11 90 22 125 26 36 3 105 1 153 -5 49 -6 125 -22 169 -36 44 -14 98
-35 120 -46 36 -19 41 -20 56 -5 15 15 11 19 -49 46 -35 16 -94 38 -130 49
-37 11 -101 25 -144 31 -42 6 -97 10 -123 10 -26 -1 -70 -5 -98 -9z m-2559
-1690 c-22 -5 -63 -17 -92 -28 -29 -11 -83 -37 -120 -57 -43 -24 -99 -69 -153
-124 -58 -58 -97 -108 -122 -156 -20 -38 -55 -133 -78 -210 -23 -77 -56 -167
-73 -200 -18 -33 -57 -85 -87 -115 -30 -30 -87 -72 -126 -92 -38 -20 -121 -51
-184 -68 -63 -17 -136 -43 -162 -57 -27 -15 -67 -42 -89 -62 -39 -33 -41 -33
-35 -10 4 13 23 56 42 95 24 52 51 88 95 128 38 36 91 71 147 97 48 23 110 59
137 79 28 20 63 56 79 78 15 23 52 98 82 167 29 69 69 149 87 178 19 28 53 74
76 100 23 27 65 69 94 94 29 24 79 60 112 78 34 19 81 42 105 51 25 8 72 22
105 29 33 7 92 13 130 13 62 0 65 -1 30 -8z m-638 -1742 c7 -42 7 -67 1 -75
-13 -16 -105 -68 -137 -78 -24 -7 -24 -7 -18 46 4 29 17 74 30 99 13 25 34 51
48 57 13 7 33 13 45 13 17 0 22 -9 31 -62z M4925 3814 c-22 -15 -53 -38 -68
-53 -15 -14 -42 -47 -58 -73 -17 -26 -47 -58 -67 -70 l-37 -23 27 -3 c15 -2
39 5 53 14 15 10 44 43 66 75 21 31 52 67 68 78 16 12 32 21 35 21 3 0 -1 -20
-9 -45 -7 -25 -23 -61 -34 -81 -12 -20 -20 -39 -17 -42 3 -2 17 3 31 12 13 9
27 27 31 41 4 17 24 34 60 54 30 16 54 26 54 23 0 -4 -14 -31 -31 -61 -23 -39
-34 -50 -42 -42 -6 6 -15 11 -20 11 -5 0 -7 -6 -5 -12 2 -7 38 -78 80 -158 58
-109 82 -167 97 -233 12 -48 41 -155 66 -239 25 -83 45 -166 45 -184 0 -18 -4
-44 -10 -58 -5 -14 -18 -34 -30 -46 -11 -11 -24 -20 -30 -20 -13 0 -13 87 -1
94 5 4 11 1 13 -6 2 -6 10 -8 16 -4 7 4 12 18 12 31 0 13 -4 27 -10 30 -5 3
-19 1 -30 -5 -11 -6 -27 -24 -35 -40 -8 -16 -15 -41 -15 -55 0 -15 5 -35 10
-46 9 -16 7 -19 -10 -19 -13 0 -20 -5 -18 -12 3 -7 18 -14 34 -16 18 -2 43 6
64 20 19 13 45 41 57 63 13 23 23 57 23 80 0 22 -24 126 -54 230 -30 105 -59
217 -66 250 -7 33 -27 85 -45 115 -18 30 -49 88 -69 127 l-36 73 34 47 c19 27
41 70 50 97 9 27 15 55 12 63 -4 10 -18 4 -52 -22 -25 -19 -55 -40 -66 -46
-19 -10 -20 -9 -14 26 4 20 10 43 13 51 9 23 -28 17 -72 -12z M4910 3371 c0
-5 17 -23 37 -40 21 -17 49 -31 64 -31 15 0 32 -7 39 -15 7 -8 16 -15 21 -15
5 0 9 11 9 24 0 14 -7 32 -16 40 -8 9 -32 16 -52 16 -20 1 -48 7 -62 15 -14 8
-28 14 -32 15 -5 0 -8 -4 -8 -9z M3545 3162 c-28 -10 -66 -29 -85 -42 -19 -14
-59 -47 -89 -74 -30 -26 -79 -60 -109 -74 -30 -13 -75 -27 -99 -30 -24 -2 -46
-8 -49 -13 -8 -14 43 -22 93 -14 26 4 67 16 91 27 23 11 81 56 128 99 47 42
105 87 129 98 24 11 46 25 50 31 3 5 3 10 -2 10 -4 -1 -31 -8 -58 -18z M1444
1863 c-8 -21 -26 -85 -39 -143 -13 -58 -35 -136 -49 -174 -15 -38 -40 -93 -57
-123 -18 -30 -58 -88 -90 -128 -32 -41 -93 -104 -136 -140 -48 -42 -112 -83
-168 -110 -49 -24 -129 -54 -177 -66 -49 -12 -88 -26 -88 -32 0 -15 130 1 203
25 34 11 80 29 102 40 22 11 69 42 105 69 36 26 90 74 121 106 31 32 75 83 99
113 23 30 61 93 85 140 23 47 49 110 58 140 9 30 25 111 36 179 12 67 24 127
27 132 3 5 0 9 -5 9 -6 0 -18 -17 -27 -37z"/>
</g>
</svg>
