<?xml version="1.0" standalone="no"?>
<!DOCTYPE svg PUBLIC "-//W3C//DTD SVG 20010904//EN"
 "http://www.w3.org/TR/2001/REC-SVG-20010904/DTD/svg10.dtd">
<svg version="1.0" xmlns="http://www.w3.org/2000/svg"
 width="600.000000pt" height="430.000000pt" viewBox="0 0 600.000000 430.000000"
 preserveAspectRatio="xMidYMid meet">
<metadata>
Created by potrace 1.16, written by Peter Selinger 2001-2019
</metadata>
<g transform="translate(0.000000,430.000000) scale(0.100000,-0.100000)"
fill="#f1ead8" stroke="none">
<path d="M4223 3836 c-83 -16 -183 -60 -256 -112 -28 -20 -66 -43 -86 -51 -45
-19 -119 -18 -166 1 -21 9 -42 16 -48 16 -18 0 27 -41 68 -63 31 -16 59 -21
122 -21 46 -1 83 -2 83 -2 0 -1 -39 -24 -87 -52 -49 -27 -115 -60 -148 -72
-33 -12 -94 -24 -135 -27 -55 -4 -92 -1 -135 11 -33 10 -75 26 -94 37 -18 11
-36 17 -39 14 -3 -3 10 -22 29 -41 36 -39 151 -100 206 -110 18 -3 33 -10 33
-14 0 -4 -16 -11 -35 -14 -61 -12 -118 -41 -190 -100 -90 -72 -145 -91 -239
-82 -65 5 -69 4 -51 -9 30 -24 95 -38 140 -31 54 9 110 37 170 87 27 22 70 51
96 64 25 13 95 36 155 50 60 15 125 35 144 45 l35 18 -81 -5 c-57 -4 -104 -1
-157 11 -42 10 -78 20 -81 24 -2 4 35 7 83 7 108 1 182 25 312 101 52 30 136
76 187 101 66 33 110 48 148 51 30 2 54 0 54 -5 0 -5 -33 -25 -73 -45 -40 -20
-111 -64 -157 -99 -47 -35 -148 -129 -225 -209 -277 -287 -422 -426 -510 -492
-156 -116 -362 -211 -560 -258 -44 -11 -170 -33 -279 -50 -110 -17 -236 -43
-280 -57 -140 -44 -247 -105 -346 -199 l-55 -52 -125 -5 c-144 -6 -223 -26
-340 -89 -95 -51 -185 -124 -248 -201 -69 -86 -108 -152 -152 -261 -54 -133
-76 -172 -119 -215 -20 -20 -89 -64 -152 -96 -77 -40 -132 -76 -171 -113 -65
-62 -100 -117 -129 -200 -23 -68 -37 -202 -21 -202 6 0 14 9 17 20 4 11 31 47
61 80 33 36 76 69 108 84 28 13 108 41 176 61 69 20 152 51 185 68 33 18 90
62 126 98 80 80 127 168 170 324 16 61 48 148 71 195 33 68 57 101 127 171 73
73 102 94 183 133 53 26 112 50 132 53 l36 6 -25 -44 c-34 -60 -72 -180 -80
-259 -4 -43 -1 -108 10 -190 10 -68 15 -148 12 -176 -3 -28 -13 -67 -22 -85
-27 -53 -94 -117 -163 -156 -35 -19 -69 -45 -77 -57 -8 -11 -28 -73 -45 -136
-17 -63 -48 -153 -70 -198 -29 -60 -59 -103 -105 -151 -56 -58 -65 -73 -65
-104 0 -20 -6 -39 -12 -43 -7 -5 -33 -8 -58 -9 -25 -1 -57 -9 -72 -19 -15 -10
-39 -42 -53 -71 -28 -56 -52 -173 -41 -200 5 -13 14 -16 37 -11 70 14 162 69
249 149 49 45 108 96 131 112 44 31 54 49 138 225 31 64 76 137 115 186 36 45
103 112 150 150 47 38 147 107 223 153 76 46 171 109 211 139 41 31 94 80 119
111 24 30 60 84 78 120 27 55 42 71 86 98 74 44 131 67 214 86 104 24 111 25
360 52 127 14 274 35 328 46 122 24 284 77 368 119 35 18 91 51 124 74 55 38
65 41 125 41 54 0 78 6 144 38 43 20 158 85 255 144 171 104 277 157 293 147
27 -17 -24 -126 -93 -199 -42 -44 -51 -61 -51 -89 l0 -36 -55 6 c-51 7 -56 5
-88 -26 -40 -38 -83 -129 -91 -194 -6 -44 -6 -46 18 -46 33 0 124 28 173 52
22 12 59 38 82 59 22 21 64 49 92 64 30 15 60 39 71 58 11 18 33 75 50 129 16
53 51 135 76 183 52 99 59 152 28 206 -11 19 -37 43 -58 53 l-39 19 -171 -41
c-94 -23 -179 -42 -189 -42 -16 0 -15 4 5 43 19 37 23 64 29 212 4 113 12 184
22 211 40 107 90 170 159 198 56 24 68 21 68 -16 0 -18 11 -56 24 -84 25 -53
77 -102 142 -131 22 -10 72 -53 113 -96 73 -76 75 -78 72 -126 -2 -43 1 -51
29 -75 31 -25 80 -36 80 -16 0 5 -13 16 -30 25 -16 8 -33 22 -38 32 -5 9 -7
33 -5 52 5 34 -1 43 -71 124 -57 64 -92 95 -135 116 -31 16 -74 47 -94 70 -20
22 -39 55 -43 75 -7 42 2 99 23 139 27 52 -5 48 -37 -5 -15 -25 -26 -31 -59
-33 -50 -4 -119 -42 -157 -87 -42 -50 -84 -148 -96 -225 -6 -37 -8 -93 -5
-125 l5 -56 -45 31 c-39 28 -54 32 -121 35 -48 2 -92 -2 -116 -11 -65 -23 -54
-34 26 -26 140 13 224 -25 235 -107 10 -73 -36 -164 -82 -164 -44 0 -125 -33
-165 -68 -40 -33 -70 -79 -70 -104 0 -7 21 8 48 34 26 25 65 55 87 66 23 11
83 28 135 37 52 9 158 32 235 51 77 19 158 34 181 34 46 0 67 -17 85 -68 10
-30 6 -42 -44 -150 -31 -64 -67 -152 -81 -196 -14 -43 -32 -89 -41 -102 -8
-13 -33 -33 -55 -44 -22 -11 -65 -43 -94 -69 -49 -44 -113 -77 -188 -95 -26
-6 -26 -6 -16 32 13 47 52 125 71 140 8 7 38 11 70 9 53 -2 56 -3 50 -24 -7
-29 13 -30 28 -2 6 13 8 39 4 64 -6 42 -4 45 54 110 38 42 67 86 80 121 12 30
21 63 21 74 0 28 -28 50 -63 50 -18 0 -50 -9 -73 -19 -22 -10 -121 -67 -220
-126 -98 -60 -210 -123 -249 -142 -84 -40 -148 -44 -189 -12 -14 11 -44 57
-65 102 -40 83 -74 120 -124 132 -36 9 -43 -11 -10 -29 43 -22 69 -55 103
-131 17 -38 39 -78 47 -88 15 -16 15 -19 -3 -32 -48 -38 -158 -98 -235 -129
-157 -63 -301 -93 -640 -131 -129 -15 -276 -38 -327 -51 -51 -13 -125 -38
-163 -57 -63 -30 -69 -31 -63 -13 4 12 24 59 45 105 22 46 39 90 39 97 0 26
-20 14 -47 -28 -15 -24 -48 -92 -75 -153 -69 -157 -97 -209 -143 -264 -56 -68
-117 -118 -226 -185 -251 -155 -368 -245 -456 -347 -71 -83 -101 -132 -168
-272 -34 -73 -73 -141 -86 -153 -13 -11 -40 -30 -59 -42 -19 -11 -48 -34 -64
-51 -22 -23 -32 -28 -38 -19 -15 25 -8 78 13 99 13 13 18 27 14 39 -3 11 -1
28 4 39 6 10 37 45 69 78 73 72 118 163 166 330 19 66 39 130 45 141 6 11 39
36 74 55 72 41 151 120 173 174 28 65 33 132 18 228 -18 120 -17 247 1 320 9
33 28 87 44 120 86 184 262 328 486 398 44 14 163 37 265 52 102 15 235 40
295 55 137 34 295 96 401 156 178 100 285 196 684 610 80 82 180 176 222 207
94 70 195 128 266 153 28 10 52 23 52 28 0 5 -15 6 -33 3 -37 -6 -87 2 -87 13
0 12 143 30 242 30 72 0 89 3 80 12 -17 17 -196 23 -278 8 -38 -6 -137 -33
-221 -61 -84 -27 -163 -49 -175 -49 -18 0 -13 6 24 28 25 15 70 42 100 60 113
68 239 98 373 87 115 -9 245 -44 329 -89 21 -10 35 -12 48 -5 10 5 18 12 18
15 0 12 -142 68 -230 91 -119 30 -251 37 -347 19z m-2540 -1686 c-56 -12 -151
-51 -221 -91 -31 -19 -96 -73 -144 -121 -70 -70 -95 -104 -127 -170 -22 -46
-54 -132 -70 -193 -17 -60 -47 -143 -67 -183 -46 -94 -126 -176 -220 -224 -38
-21 -121 -51 -184 -68 -123 -34 -187 -64 -251 -118 l-40 -34 7 28 c15 62 61
140 117 200 46 50 78 72 155 110 53 26 119 63 146 83 27 19 66 61 86 93 21 32
54 99 75 150 20 51 48 113 62 138 50 89 129 183 202 241 138 112 285 167 446
167 64 0 66 -1 28 -8z m-635 -1742 c8 -53 7 -66 -6 -80 -16 -20 -128 -78 -147
-78 -9 0 -10 12 -4 48 14 75 28 109 59 142 19 20 38 30 58 30 28 0 30 -2 40
-62z M4925 3814 c-61 -41 -85 -64 -121 -120 -18 -29 -50 -63 -71 -75 -34 -21
-35 -24 -16 -27 37 -5 80 25 119 83 32 49 89 105 107 105 11 0 -25 -104 -45
-133 -11 -16 -18 -31 -14 -34 10 -11 56 27 62 52 4 17 24 34 60 54 30 16 54
26 54 23 0 -4 -14 -31 -31 -61 -23 -39 -34 -50 -42 -42 -13 13 -27 14 -27 3 0
-5 35 -74 79 -154 56 -104 83 -166 95 -219 10 -41 39 -150 67 -244 27 -93 49
-188 49 -210 0 -40 -18 -78 -48 -102 -9 -7 -19 -13 -24 -13 -11 0 -10 87 1 94
5 4 11 1 13 -6 2 -6 10 -8 16 -4 17 10 15 53 -4 60 -19 7 -61 -33 -70 -69 -4
-15 -2 -42 4 -61 9 -31 8 -34 -10 -34 -30 0 -16 -24 16 -28 41 -5 99 38 126
93 17 36 21 57 17 93 -3 26 -31 134 -61 240 -31 106 -56 203 -56 216 0 13 -34
89 -75 169 l-76 146 30 42 c28 37 71 135 71 159 0 18 -18 10 -76 -30 -32 -22
-61 -40 -65 -40 -4 0 -1 20 6 44 20 65 4 72 -60 30z M4910 3371 c0 -5 17 -23
37 -40 21 -17 49 -31 64 -31 15 0 32 -7 39 -15 18 -22 30 -18 30 8 0 33 -30
57 -71 57 -19 0 -47 7 -63 15 -15 8 -30 15 -32 15 -2 0 -4 -4 -4 -9z M3543
3161 c-54 -18 -87 -41 -179 -121 -63 -55 -124 -87 -186 -96 -24 -4 -49 -10
-57 -14 -23 -12 43 -23 92 -15 67 12 131 50 218 130 44 41 101 84 125 95 24
12 44 26 44 31 0 5 -1 9 -2 9 -2 -1 -26 -9 -55 -19z M1444 1863 c-8 -21 -26
-86 -39 -144 -13 -59 -37 -142 -54 -185 -17 -44 -52 -113 -79 -154 -59 -91
-153 -194 -236 -256 -84 -64 -197 -117 -305 -144 -103 -25 -113 -46 -17 -35
70 8 173 38 231 67 110 56 262 195 345 319 24 34 59 98 80 143 40 85 62 169
81 300 6 44 15 90 20 103 15 39 -9 26 -27 -14z"/>
</g>
</svg>
