<?xml version="1.0" standalone="no"?>
<!DOCTYPE svg PUBLIC "-//W3C//DTD SVG 20010904//EN"
 "http://www.w3.org/TR/2001/REC-SVG-20010904/DTD/svg10.dtd">
<svg version="1.0" xmlns="http://www.w3.org/2000/svg"
 width="600.000000pt" height="430.000000pt" viewBox="0 0 600.000000 430.000000"
 preserveAspectRatio="xMidYMid meet">
<metadata>
Created by potrace 1.16, written by Peter Selinger 2001-2019
</metadata>
<g transform="translate(0.000000,430.000000) scale(0.100000,-0.100000)"
fill="#f1ead8" stroke="none">
<path d="M4223 3835 c-83 -15 -182 -58 -256 -111 -28 -20 -65 -43 -83 -50 -44
-18 -126 -18 -171 1 -19 8 -40 15 -46 15 -18 0 27 -41 68 -63 30 -16 60 -21
122 -21 46 -1 83 -2 83 -2 0 -1 -39 -24 -87 -52 -117 -66 -193 -93 -283 -99
-82 -6 -166 12 -229 48 -18 11 -36 17 -39 14 -3 -3 10 -22 29 -41 36 -39 151
-100 206 -110 36 -7 45 -24 13 -24 -41 0 -128 -43 -203 -101 -101 -78 -141
-92 -236 -85 -61 5 -72 4 -62 -8 6 -7 32 -19 56 -26 81 -23 167 4 260 81 71
59 129 85 249 114 59 13 123 33 144 44 l37 19 -82 -5 c-61 -4 -101 -1 -160 13
l-78 19 90 7 c129 9 187 31 374 142 121 71 229 116 280 116 23 0 41 -3 41 -8
0 -4 -31 -22 -69 -41 -109 -53 -235 -154 -386 -311 -412 -426 -518 -519 -711
-617 -176 -90 -353 -142 -604 -178 -229 -32 -346 -62 -460 -120 -80 -40 -138
-81 -200 -140 l-55 -53 -125 -5 c-144 -6 -223 -26 -340 -89 -41 -22 -105 -64
-142 -94 -89 -72 -188 -206 -239 -324 -109 -254 -123 -271 -285 -351 -75 -38
-127 -72 -171 -113 -71 -66 -103 -114 -133 -202 -23 -65 -39 -204 -24 -204 5
0 18 16 29 36 25 47 112 126 168 152 25 12 101 38 169 57 67 20 150 51 183 68
33 18 90 62 127 98 49 50 76 88 106 150 22 46 52 129 67 184 14 55 44 138 67
185 33 68 57 101 127 170 71 71 102 94 181 132 52 26 112 50 133 54 l37 6 -25
-43 c-36 -62 -72 -183 -80 -264 -4 -44 -1 -113 9 -185 20 -146 20 -175 -1
-235 -20 -60 -105 -148 -180 -187 -29 -15 -59 -39 -68 -52 -9 -13 -29 -75 -46
-138 -42 -160 -94 -264 -174 -347 -56 -58 -65 -73 -65 -104 0 -20 -6 -39 -12
-43 -7 -5 -33 -8 -59 -9 -26 -1 -58 -9 -72 -18 -34 -22 -76 -110 -89 -190 -14
-85 -8 -101 35 -93 68 13 160 69 246 150 48 44 101 88 118 97 42 23 76 71 117
167 76 178 171 305 311 417 44 35 150 107 235 159 85 53 181 116 212 141 71
55 129 128 173 215 28 55 42 70 89 99 71 42 162 76 263 96 43 8 182 26 308 40
267 30 390 53 532 100 117 39 203 80 288 139 55 38 65 41 125 41 54 0 78 6
144 38 43 20 158 85 255 144 171 104 277 157 293 147 27 -17 -24 -126 -92
-198 -37 -39 -51 -62 -53 -87 l-3 -34 -54 3 c-51 3 -57 1 -87 -30 -40 -41 -84
-137 -91 -194 -4 -41 -3 -44 20 -44 34 0 125 28 178 55 25 13 62 39 84 59 21
20 60 48 86 61 27 14 57 37 68 52 11 16 32 68 47 118 15 49 47 130 72 180 58
114 65 140 53 186 -14 52 -45 87 -89 100 -32 10 -55 7 -177 -24 -76 -19 -158
-38 -181 -42 l-42 -7 21 44 c19 37 23 68 29 213 7 178 15 218 63 300 32 52 72
90 118 109 56 24 68 21 68 -16 0 -47 41 -129 81 -162 19 -16 52 -37 74 -47 22
-10 75 -53 117 -96 77 -77 78 -79 78 -130 0 -45 4 -54 31 -77 29 -25 79 -36
79 -17 0 5 -16 18 -35 30 -32 19 -35 24 -35 69 0 47 -3 54 -75 136 -56 63 -91
94 -134 115 -69 36 -127 97 -137 145 -8 47 3 103 28 145 20 31 20 33 2 29 -10
-2 -28 -18 -41 -37 -19 -27 -30 -34 -64 -36 -91 -7 -190 -103 -231 -225 -17
-50 -22 -89 -23 -165 l0 -101 -43 30 c-38 27 -54 31 -120 34 -75 3 -152 -13
-159 -34 -2 -5 36 -7 89 -5 104 4 154 -8 188 -44 34 -36 38 -107 8 -165 -15
-29 -32 -48 -48 -52 -140 -40 -146 -43 -197 -93 -35 -34 -53 -59 -53 -75 0
-22 4 -21 48 22 26 26 68 56 94 68 26 11 95 29 153 40 58 11 161 33 229 50
187 46 219 41 247 -38 10 -30 6 -42 -44 -150 -31 -64 -67 -152 -81 -196 -14
-43 -32 -89 -41 -102 -8 -13 -33 -33 -55 -44 -22 -11 -65 -43 -94 -69 -49 -44
-113 -77 -188 -95 -26 -6 -26 -6 -16 32 13 47 52 125 71 140 8 7 38 11 70 9
53 -2 56 -3 50 -24 -7 -29 13 -30 28 -2 6 13 8 39 4 64 -6 42 -4 45 54 110 38
42 67 86 80 121 24 62 25 77 11 105 -14 25 -71 25 -126 0 -22 -10 -121 -67
-220 -126 -98 -59 -210 -123 -249 -141 -84 -41 -148 -45 -189 -13 -14 11 -44
58 -66 104 -40 84 -71 117 -122 130 -36 9 -44 -11 -11 -29 43 -22 69 -55 103
-131 17 -38 39 -78 47 -88 15 -16 15 -19 -3 -32 -44 -35 -154 -96 -223 -125
-88 -36 -222 -73 -341 -94 -47 -9 -186 -27 -310 -41 -254 -29 -389 -58 -490
-108 -81 -39 -81 -43 -19 92 22 46 39 93 39 104 0 20 0 20 -21 1 -20 -18 -51
-79 -150 -294 -58 -126 -127 -210 -238 -291 -20 -15 -85 -57 -146 -94 -223
-136 -356 -248 -449 -379 -26 -35 -75 -124 -110 -197 -35 -74 -74 -143 -87
-155 -13 -11 -40 -30 -59 -42 -19 -11 -48 -34 -64 -51 -22 -23 -32 -28 -38
-19 -15 25 -8 78 13 99 13 13 19 28 15 42 -7 27 2 41 72 113 73 75 118 164
166 332 20 68 41 132 46 143 6 10 34 31 62 45 66 33 152 115 178 168 35 73 41
136 25 247 -19 126 -19 239 0 314 35 138 138 290 256 379 129 97 254 145 458
177 243 37 394 69 512 109 283 94 473 227 764 536 215 228 324 334 411 400 89
66 191 125 262 150 28 10 52 22 52 26 0 4 -25 7 -55 6 -50 -1 -75 5 -64 16 9
9 166 26 245 26 46 0 84 4 84 9 0 25 -206 28 -318 5 -42 -9 -136 -36 -208 -60
-158 -53 -205 -58 -125 -14 30 17 62 36 70 44 26 22 113 63 176 82 45 14 90
18 180 17 98 -1 136 -6 210 -28 50 -14 114 -38 144 -51 49 -23 55 -24 69 -10
14 14 10 18 -49 45 -123 55 -280 91 -394 90 -27 0 -83 -7 -122 -14z m-2540
-1685 c-57 -12 -151 -51 -221 -91 -31 -19 -95 -72 -142 -119 -104 -104 -144
-176 -195 -350 -48 -167 -93 -257 -163 -328 -73 -74 -167 -123 -312 -162 -124
-34 -187 -64 -251 -119 -39 -32 -41 -33 -34 -10 20 70 70 155 121 209 43 45
79 70 153 106 117 58 187 108 225 162 15 23 52 98 82 167 77 180 140 272 253
368 131 112 297 176 456 175 65 0 67 -1 28 -8z m-635 -1742 c8 -51 7 -66 -4
-79 -18 -21 -139 -82 -152 -78 -14 6 14 125 39 165 22 36 48 52 85 53 18 1 23
-7 32 -61z M4925 3814 c-58 -39 -92 -72 -126 -126 -17 -26 -47 -58 -67 -70
l-37 -23 27 -3 c38 -4 73 22 119 89 33 49 85 99 103 99 10 0 -26 -105 -46
-133 -11 -16 -18 -31 -14 -34 10 -11 56 27 62 52 4 17 24 34 60 54 30 16 54
26 54 23 0 -4 -14 -31 -31 -61 -23 -39 -34 -50 -42 -42 -13 13 -27 14 -27 3 0
-5 35 -74 79 -154 57 -104 83 -166 95 -219 10 -41 39 -151 67 -244 50 -175 56
-215 39 -259 -10 -28 -45 -66 -60 -66 -13 0 -13 87 -1 94 5 4 11 1 13 -6 7
-19 28 1 28 27 0 30 -14 39 -40 25 -41 -22 -63 -98 -40 -141 9 -16 7 -19 -10
-19 -33 0 -18 -25 16 -28 65 -6 144 87 144 168 0 20 -22 113 -50 207 -27 94
-57 206 -66 249 -9 43 -27 94 -39 114 -13 20 -44 78 -69 128 l-46 92 30 41
c27 37 70 136 70 159 0 16 -20 11 -53 -14 -18 -13 -45 -32 -61 -42 l-29 -18 7
38 c4 20 10 44 13 52 9 23 -28 17 -72 -12z M4910 3371 c0 -19 75 -71 101 -71
15 0 32 -7 39 -15 18 -22 30 -18 30 8 0 33 -30 57 -71 57 -19 0 -47 7 -63 15
-33 18 -36 18 -36 6z M3545 3162 c-57 -20 -97 -46 -172 -114 -72 -65 -123 -89
-238 -113 -27 -6 -28 -8 -11 -17 26 -15 117 -2 172 23 25 12 84 57 131 100 47
43 105 88 129 100 24 11 44 25 44 30 0 11 5 12 -55 -9z M1444 1863 c-8 -21
-26 -86 -39 -144 -45 -203 -118 -347 -244 -482 -124 -132 -264 -216 -430 -257
-110 -27 -121 -46 -21 -36 70 7 177 38 241 71 59 30 162 111 225 177 162 170
240 332 274 573 6 44 15 92 20 108 14 41 -7 33 -26 -10z"/>
</g>
</svg>
