<?xml version="1.0" standalone="no"?>
<!DOCTYPE svg PUBLIC "-//W3C//DTD SVG 20010904//EN"
 "http://www.w3.org/TR/2001/REC-SVG-20010904/DTD/svg10.dtd">
<svg version="1.0" xmlns="http://www.w3.org/2000/svg"
 width="980.000000pt" height="190.000000pt" viewBox="0 0 980.000000 190.000000"
 preserveAspectRatio="xMidYMid meet">
<metadata>
Created by potrace 1.16, written by Peter Selinger 2001-2019
</metadata>
<g transform="translate(0.000000,190.000000) scale(0.100000,-0.100000)"
fill="#f1ead8" stroke="none">
<path d="M2646 1625 c-32 -13 -83 -40 -113 -60 l-54 -36 -62 30 c-34 16 -89
37 -122 46 -35 10 -117 19 -197 22 -103 4 -161 1 -239 -12 -57 -9 -142 -30
-190 -45 -48 -16 -125 -48 -170 -71 -46 -23 -117 -64 -157 -92 -40 -27 -108
-88 -152 -134 -57 -60 -91 -107 -120 -167 -29 -58 -43 -100 -47 -142 -3 -33 0
-79 7 -104 8 -29 27 -59 54 -86 23 -23 59 -47 81 -54 22 -6 72 -14 111 -17 47
-4 99 0 155 11 49 10 122 35 174 60 50 23 119 66 155 94 36 29 88 80 117 113
28 34 66 90 83 126 20 41 34 86 37 123 6 57 4 61 -29 94 -22 22 -49 37 -74 42
-21 4 -68 2 -104 -4 -39 -7 -101 -29 -155 -56 -49 -25 -120 -71 -157 -103 -37
-32 -86 -80 -109 -107 -45 -56 -94 -134 -87 -141 3 -3 22 20 43 50 20 30 66
84 101 119 35 35 95 85 135 112 40 26 99 59 133 72 42 17 87 27 143 30 78 4
83 3 108 -23 24 -23 27 -33 23 -70 -3 -24 -15 -64 -28 -90 -12 -25 -58 -84
-102 -130 -44 -47 -108 -106 -141 -131 -34 -25 -96 -63 -138 -84 -41 -21 -102
-46 -135 -56 -34 -10 -93 -18 -139 -18 -64 0 -90 5 -128 23 -30 14 -58 38 -74
62 -20 31 -25 50 -25 101 0 40 8 83 22 117 11 30 37 78 57 108 20 30 64 83 98
117 34 35 95 87 136 116 41 29 115 72 164 97 50 24 126 55 170 68 44 13 120
31 169 40 49 8 132 15 185 15 54 0 124 -5 157 -11 32 -5 86 -19 119 -30 33
-11 70 -28 83 -37 l24 -18 -56 -43 c-30 -23 -102 -91 -159 -150 -58 -60 -177
-206 -271 -332 -93 -123 -201 -262 -240 -309 -39 -47 -98 -112 -131 -145 -33
-33 -87 -81 -120 -106 -33 -26 -87 -60 -120 -76 -33 -17 -84 -38 -114 -47 -30
-9 -88 -16 -129 -16 -41 0 -92 5 -114 12 -21 6 -50 22 -63 36 -14 14 -25 31
-25 38 0 10 9 12 29 8 22 -5 34 -1 51 16 11 11 20 31 18 42 -2 12 -15 30 -29
41 -18 12 -34 17 -48 12 -12 -3 -31 -16 -41 -28 -13 -14 -20 -35 -20 -63 0
-27 7 -51 21 -68 11 -15 40 -36 62 -48 32 -16 66 -22 142 -26 81 -4 118 0 185
17 47 12 118 37 159 56 41 20 104 55 140 79 37 25 96 72 133 105 36 34 100
103 141 153 41 51 134 181 207 288 73 107 164 236 201 286 38 50 102 126 143
170 l75 78 25 -23 c14 -13 32 -44 40 -69 9 -25 16 -71 16 -102 0 -31 -9 -83
-20 -116 -11 -32 -39 -86 -61 -121 -23 -35 -68 -87 -100 -117 -32 -30 -84 -67
-116 -83 -52 -25 -69 -28 -155 -28 -54 0 -98 -3 -98 -6 0 -11 49 -28 97 -34
29 -4 77 0 123 9 41 9 102 29 135 46 33 16 83 50 111 74 29 25 68 70 88 101
21 30 46 80 57 112 11 32 19 83 19 119 0 39 -8 84 -20 118 -12 29 -39 75 -61
100 l-41 46 24 20 c12 11 60 38 106 61 45 23 82 45 82 50 0 5 -3 9 -7 9 -5 0
-34 -11 -67 -25z M5632 1479 c-30 -5 -88 -21 -130 -35 -43 -14 -102 -40 -132
-57 -30 -17 -78 -54 -106 -82 -29 -28 -62 -71 -73 -94 -12 -23 -25 -63 -28
-89 -3 -26 0 -66 6 -89 6 -23 23 -56 37 -73 15 -17 45 -41 68 -54 36 -21 74
-32 168 -51 l26 -5 -53 -79 c-29 -43 -63 -105 -75 -138 -12 -32 -25 -91 -28
-130 -4 -64 -2 -79 22 -128 21 -42 38 -61 74 -83 42 -24 56 -27 142 -27 80 0
107 5 173 29 43 16 111 50 150 76 40 26 98 74 130 108 32 34 66 80 77 104 11
24 20 62 20 86 0 33 -6 48 -25 66 -14 13 -41 26 -60 29 -19 3 -52 3 -72 0 -21
-3 -76 -23 -123 -45 -71 -34 -99 -55 -175 -132 -49 -50 -100 -110 -113 -133
-13 -24 -19 -43 -14 -43 5 0 26 25 47 56 21 30 66 81 101 112 34 31 88 72 119
91 32 19 80 43 109 53 28 9 67 17 87 18 22 0 47 -8 63 -21 18 -14 26 -30 26
-51 0 -16 -8 -46 -17 -66 -9 -21 -53 -73 -97 -117 -59 -58 -103 -92 -162 -122
-45 -24 -107 -49 -140 -58 -32 -8 -80 -15 -106 -15 -26 0 -66 7 -88 16 -22 9
-49 28 -59 43 -10 14 -21 40 -24 58 -3 17 0 58 9 89 8 32 28 82 44 113 17 31
50 82 73 113 24 31 59 75 79 97 28 32 44 41 68 41 56 0 232 40 355 81 66 22
171 64 233 94 61 30 145 77 186 105 41 28 98 76 126 106 28 29 57 69 65 89 8
19 15 44 15 55 0 12 -13 35 -29 51 -26 26 -36 29 -93 29 -35 0 -100 -9 -144
-21 -43 -11 -133 -46 -200 -78 -66 -32 -172 -92 -235 -133 -63 -41 -143 -99
-179 -127 -36 -29 -109 -93 -163 -143 l-98 -90 -50 6 c-28 4 -75 16 -104 27
-33 12 -67 35 -89 59 -19 21 -38 54 -41 73 -4 19 -2 51 3 71 6 20 22 57 36 81
14 24 50 64 78 90 29 25 94 66 143 90 50 24 117 51 150 61 40 11 110 18 215
20 85 2 160 4 165 4 6 0 1 6 -10 12 -25 15 -281 20 -353 7z m939 -49 c29 -16
25 -69 -9 -116 -16 -22 -51 -58 -78 -80 -27 -23 -80 -62 -119 -86 -38 -25
-111 -66 -162 -91 -50 -26 -144 -65 -209 -87 -64 -22 -161 -49 -214 -60 -54
-11 -106 -20 -116 -20 -14 0 -9 10 21 41 67 69 255 228 356 300 52 37 135 89
183 115 48 26 118 57 154 70 38 13 90 24 120 24 29 0 62 -5 73 -10z M9164
1264 c-27 -14 -69 -42 -94 -62 -86 -71 -174 -158 -280 -278 -58 -66 -152 -177
-207 -245 -93 -115 -178 -199 -293 -291 -25 -19 -59 -43 -77 -52 -18 -9 -41
-16 -53 -16 -11 0 -20 6 -20 13 0 6 10 28 21 47 26 42 199 258 228 284 11 10
19 22 16 26 -2 3 -23 5 -47 3 -34 -2 -49 -10 -70 -36 -24 -28 -27 -30 -28 -11
0 11 -8 28 -18 37 -11 10 -35 17 -59 17 -26 0 -65 -12 -112 -36 -52 -26 -102
-64 -179 -138 -59 -56 -130 -118 -159 -139 -28 -20 -72 -46 -97 -58 -25 -11
-51 -17 -56 -14 -6 3 -10 14 -10 24 0 9 13 37 28 62 16 24 79 107 141 184
l113 140 71 5 c44 3 72 10 75 18 3 8 -12 12 -52 12 -31 0 -56 3 -56 7 0 3 33
45 74 94 41 48 73 89 71 91 -3 2 -25 2 -49 -2 -43 -5 -50 -10 -121 -97 l-75
-92 -57 -3 c-32 -2 -58 -8 -60 -15 -3 -8 11 -13 41 -15 l46 -3 -80 -95 c-44
-52 -113 -123 -153 -158 -39 -34 -94 -78 -122 -97 -27 -19 -66 -41 -86 -49
-22 -9 -40 -11 -50 -6 -12 8 -10 16 9 52 13 24 74 104 137 180 62 75 112 138
110 140 -3 2 -24 2 -49 -2 -40 -5 -50 -12 -113 -85 -38 -44 -112 -115 -164
-158 -51 -42 -122 -91 -156 -108 -34 -17 -66 -28 -72 -24 -6 3 -11 12 -11 19
0 7 39 57 86 112 47 54 94 116 105 136 10 21 19 48 19 62 0 13 -7 32 -16 40
-8 9 -30 16 -48 16 -18 0 -60 -14 -94 -31 -34 -16 -83 -50 -110 -75 -28 -24
-53 -44 -58 -44 -4 0 3 12 17 26 34 36 278 348 274 352 -1 1 -20 0 -41 -4 -34
-5 -47 -17 -99 -82 -33 -41 -109 -127 -170 -190 -60 -63 -149 -148 -197 -189
-49 -41 -111 -90 -139 -109 -28 -19 -62 -34 -75 -34 -17 0 -24 6 -24 19 0 10
21 47 48 82 26 35 84 109 130 164 45 55 82 102 82 105 0 3 -20 4 -45 2 -35 -3
-50 -11 -70 -34 -21 -25 -25 -26 -25 -10 0 10 -8 26 -18 35 -10 10 -35 17 -55
17 -20 0 -59 -9 -87 -20 -28 -11 -68 -32 -88 -45 -61 -41 -150 -135 -172 -179
-11 -24 -20 -63 -20 -89 0 -34 6 -53 20 -67 11 -11 32 -20 47 -20 15 0 45 9
68 20 23 11 60 36 83 56 l42 36 0 -40 c0 -25 6 -45 18 -55 10 -10 27 -17 38
-17 10 0 38 9 62 20 23 11 71 41 105 67 34 26 93 77 132 113 38 36 56 49 40
29 -17 -20 -114 -137 -216 -260 -102 -123 -189 -230 -193 -236 -5 -10 4 -13
36 -13 l43 0 179 216 c99 118 209 243 245 276 36 33 89 77 116 98 28 20 69 47
92 59 23 11 51 21 62 21 11 0 22 -4 25 -9 3 -5 -7 -24 -22 -44 -15 -19 -60
-73 -100 -119 -41 -47 -77 -99 -84 -121 -8 -27 -8 -43 0 -62 6 -13 22 -27 36
-31 14 -3 41 -1 60 6 19 6 61 28 94 50 33 21 79 55 102 76 l42 39 -21 -40
c-11 -22 -21 -54 -21 -72 0 -24 7 -37 25 -49 17 -11 35 -14 58 -10 19 3 62 23
96 44 33 20 85 57 114 82 36 31 47 37 36 20 -9 -14 -19 -39 -23 -56 -4 -17 -2
-42 3 -57 6 -16 21 -29 36 -33 14 -3 46 -1 71 6 47 13 137 71 191 123 l32 30
-10 -37 c-6 -21 -7 -51 -4 -67 4 -16 18 -37 31 -45 16 -11 35 -14 57 -10 31 6
89 39 147 85 l26 20 -4 -34 c-3 -24 2 -39 17 -54 12 -12 31 -21 43 -21 12 0
40 9 63 20 23 11 80 51 128 90 83 67 85 68 71 35 -8 -19 -14 -52 -14 -74 0
-30 6 -44 22 -55 12 -9 34 -16 48 -16 14 0 49 11 79 25 29 14 72 39 95 57 22
17 69 58 103 91 34 33 59 65 56 70 -3 5 -24 -9 -47 -31 -22 -22 -67 -60 -99
-86 -32 -25 -75 -55 -97 -66 -22 -11 -53 -20 -70 -20 -25 0 -30 4 -30 24 0 13
22 57 49 97 26 41 75 108 108 149 48 61 83 91 176 153 64 43 151 105 193 138
42 34 112 95 155 136 42 41 93 97 113 126 20 29 38 66 42 83 4 22 1 36 -11 47
-9 10 -27 17 -39 17 -13 0 -45 -12 -72 -26z m90 -20 c3 -8 -4 -34 -15 -56 -12
-23 -58 -78 -103 -123 -85 -86 -245 -216 -349 -287 -34 -23 -55 -33 -47 -22
39 51 205 247 266 315 38 41 90 94 115 117 46 42 94 72 115 72 7 0 15 -7 18
-16z m-2776 -605 c2 -16 -11 -46 -38 -86 -22 -33 -72 -91 -111 -128 -40 -37
-94 -78 -122 -90 -27 -13 -56 -21 -63 -18 -8 3 -14 15 -14 27 0 11 13 44 29
71 16 28 58 82 95 122 36 39 88 85 114 103 32 21 56 30 77 28 24 -2 31 -8 33
-29z m1750 4 c2 -12 -4 -39 -14 -59 -10 -20 -53 -74 -96 -119 -44 -46 -100
-98 -126 -115 -32 -21 -56 -30 -77 -28 -25 3 -30 7 -27 28 1 14 17 49 35 79
18 29 66 88 107 130 41 42 91 84 110 94 19 9 46 16 60 15 17 -2 26 -10 28 -25z
M4705 1256 c-27 -13 -66 -36 -85 -50 -55 -42 -214 -201 -309 -311 -48 -55
-123 -145 -168 -200 -45 -55 -103 -121 -129 -146 -73 -68 -162 -141 -228 -188
-36 -24 -71 -41 -88 -41 -15 0 -28 5 -28 10 0 22 36 78 105 165 40 50 91 112
114 140 22 27 41 52 41 55 0 3 -20 4 -45 3 -34 -1 -50 -7 -65 -25 -11 -12 -19
-26 -20 -30 0 -5 -4 -8 -10 -8 -5 0 -7 6 -4 14 3 8 -4 24 -16 36 -19 19 -31
22 -74 18 -28 -3 -77 -18 -110 -34 -34 -16 -97 -63 -145 -108 -48 -44 -120
-106 -161 -139 -78 -62 -172 -113 -190 -102 -5 3 -10 12 -10 19 0 7 38 58 83
113 46 55 91 119 101 142 9 24 14 52 10 67 -3 13 -14 29 -24 34 -10 6 -28 10
-40 10 -12 0 -49 -15 -83 -32 -33 -18 -84 -55 -114 -81 -29 -27 -53 -45 -53
-41 1 5 7 20 15 34 8 14 14 39 15 56 0 18 -8 38 -18 47 -10 10 -26 17 -36 17
-9 0 -33 -7 -52 -15 -20 -8 -93 -70 -162 -138 -70 -67 -147 -139 -172 -158
-25 -20 -59 -44 -77 -53 -18 -9 -41 -16 -53 -16 -11 0 -20 6 -20 13 0 7 13 33
28 58 16 24 75 100 130 169 56 69 102 127 102 130 0 3 -20 4 -45 2 -35 -3 -50
-11 -70 -34 -22 -26 -25 -27 -25 -9 0 11 -10 27 -22 35 -12 9 -37 16 -54 16
-17 0 -51 -7 -74 -15 -23 -8 -72 -35 -109 -59 -36 -25 -82 -64 -102 -88 -20
-24 -46 -62 -58 -85 -12 -25 -21 -61 -21 -88 0 -32 6 -51 20 -65 11 -11 32
-20 47 -20 15 0 45 9 68 20 23 11 60 36 82 55 23 19 43 35 45 35 2 0 2 -16 0
-35 -3 -25 1 -42 13 -55 10 -11 30 -20 45 -20 14 0 50 12 79 27 36 17 106 76
211 178 87 83 174 160 195 169 48 23 63 10 41 -33 -9 -17 -73 -99 -141 -181
l-125 -150 49 0 c42 0 53 4 71 28 11 15 65 71 118 126 53 54 123 118 154 143
32 24 79 53 104 64 30 14 50 17 56 11 6 -6 6 -18 -3 -33 -6 -13 -43 -60 -81
-104 -39 -44 -78 -97 -89 -117 -10 -21 -19 -49 -19 -63 0 -14 9 -34 20 -45 11
-11 31 -20 45 -20 14 0 42 7 62 15 40 17 127 78 182 129 25 23 32 26 25 11 -5
-11 -9 -42 -9 -68 0 -39 5 -53 24 -68 13 -10 34 -19 47 -19 14 0 41 7 62 16
20 8 58 33 84 55 26 21 48 39 50 39 2 0 2 -16 0 -35 -3 -25 1 -42 14 -56 15
-17 27 -20 57 -16 21 3 63 20 93 38 30 19 93 66 139 107 l85 73 -21 -41 c-12
-23 -24 -61 -27 -85 -4 -37 -1 -47 21 -69 19 -19 37 -26 64 -26 21 0 62 11 92
25 30 14 77 42 105 62 28 21 81 66 118 102 37 35 65 68 62 73 -3 4 -38 -20
-77 -56 -40 -35 -98 -82 -130 -104 -33 -23 -81 -48 -107 -57 -37 -12 -54 -14
-69 -5 -12 6 -21 17 -21 24 0 28 63 133 138 232 68 90 88 108 172 162 52 33
132 88 177 122 45 33 118 95 162 136 44 41 98 103 121 136 23 35 40 72 40 88
0 16 -7 36 -16 44 -8 9 -23 16 -32 16 -9 0 -39 -11 -67 -24z m85 -31 c0 -34
-44 -99 -118 -173 -76 -77 -211 -186 -324 -264 -32 -21 -58 -36 -58 -32 0 8
172 215 269 323 42 47 98 102 124 123 31 24 59 38 78 38 19 0 29 -5 29 -15z
m-2302 -586 c2 -16 -11 -46 -38 -86 -22 -33 -72 -90 -110 -127 -38 -36 -88
-75 -111 -86 -22 -12 -50 -20 -62 -18 -17 2 -22 9 -20 32 1 16 19 54 39 85 21
31 69 88 108 126 39 39 87 79 106 88 19 9 46 16 60 15 19 -2 26 -10 28 -29z
m1262 16 c7 -8 9 -23 4 -37 -4 -13 -20 -43 -37 -68 -17 -25 -58 -73 -90 -107
-33 -35 -81 -76 -106 -92 -25 -16 -58 -31 -72 -35 -18 -4 -31 -1 -39 9 -9 11
-9 22 -2 45 6 16 26 51 44 77 17 27 64 80 103 118 39 39 87 78 106 88 19 9 44
17 55 17 12 0 27 -7 34 -15z M7614 922 c-18 -12 -32 -44 -26 -64 2 -10 15 -21
28 -24 14 -4 31 -1 40 7 8 7 20 21 25 31 6 12 6 25 -1 38 -6 11 -21 20 -33 20
-12 0 -27 -4 -33 -8z"/>
</g>
</svg>
