<?xml version="1.0" standalone="no"?>
<!DOCTYPE svg PUBLIC "-//W3C//DTD SVG 20010904//EN"
 "http://www.w3.org/TR/2001/REC-SVG-20010904/DTD/svg10.dtd">
<svg version="1.0" xmlns="http://www.w3.org/2000/svg"
 width="980.000000pt" height="190.000000pt" viewBox="0 0 980.000000 190.000000"
 preserveAspectRatio="xMidYMid meet">
<metadata>
Created by potrace 1.16, written by Peter Selinger 2001-2019
</metadata>
<g transform="translate(0.000000,190.000000) scale(0.100000,-0.100000)"
fill="#f1ead8" stroke="none">
<path d="M2646 1625 c-32 -13 -83 -40 -112 -59 l-54 -36 -49 25 c-27 13 -82
34 -123 46 -53 15 -112 23 -214 26 -106 4 -166 1 -240 -11 -54 -10 -139 -30
-187 -47 -48 -16 -124 -47 -169 -69 -44 -22 -103 -56 -132 -75 -28 -19 -76
-56 -107 -82 -31 -26 -74 -68 -94 -93 -21 -25 -53 -68 -71 -96 -18 -28 -42
-79 -53 -112 -12 -34 -21 -85 -21 -114 0 -30 8 -70 19 -93 10 -22 31 -52 47
-67 16 -15 47 -34 69 -44 22 -9 74 -19 116 -21 41 -3 106 0 143 6 37 7 102 25
143 42 42 16 106 50 143 73 37 24 94 70 127 102 32 33 74 81 93 109 19 27 44
74 57 105 12 30 23 76 23 103 0 40 -5 53 -33 83 -28 31 -39 36 -94 41 -46 4
-79 0 -134 -16 -41 -13 -104 -40 -140 -61 -37 -22 -94 -62 -127 -90 -61 -51
-138 -142 -181 -212 -12 -21 -19 -38 -13 -38 5 0 26 24 46 54 21 30 75 90 120
134 45 43 114 97 152 120 38 22 97 50 131 61 35 12 87 21 118 21 31 0 69 -7
85 -15 17 -9 31 -26 35 -44 3 -15 3 -41 -1 -57 -15 -62 -58 -129 -135 -209
-44 -46 -112 -106 -152 -133 -40 -27 -99 -63 -133 -80 -33 -17 -89 -38 -125
-48 -35 -9 -98 -17 -139 -17 -57 0 -87 6 -123 23 -26 12 -57 36 -70 54 -19 26
-22 44 -22 116 1 76 4 92 35 155 27 54 59 95 140 176 67 67 134 123 183 154
43 26 117 65 165 85 48 21 134 50 192 64 71 18 144 29 225 33 72 3 149 1 194
-6 40 -6 100 -21 133 -32 33 -11 71 -27 85 -36 l25 -16 -34 -26 c-18 -14 -77
-68 -132 -120 -54 -53 -124 -127 -155 -166 -32 -38 -119 -152 -194 -251 -75
-100 -170 -222 -211 -272 -41 -50 -104 -118 -138 -152 -35 -35 -90 -83 -123
-107 -33 -25 -86 -58 -117 -74 -32 -16 -84 -36 -115 -44 -31 -8 -90 -15 -130
-15 -44 0 -89 6 -111 15 -20 9 -47 26 -59 37 -13 12 -23 27 -23 33 0 7 11 10
29 7 20 -3 35 2 50 17 12 12 21 30 21 41 0 11 -9 29 -20 40 -11 11 -27 20 -35
20 -9 0 -29 -7 -44 -15 -16 -8 -34 -28 -39 -44 -7 -20 -7 -42 -2 -62 5 -18 17
-41 27 -51 10 -11 36 -30 58 -41 30 -16 64 -22 137 -25 68 -3 120 1 175 13 43
9 110 31 148 47 39 17 108 55 155 85 52 34 124 94 185 157 96 97 192 225 400
532 44 65 109 154 145 199 35 44 91 107 123 140 l60 59 27 -32 c15 -18 32 -50
39 -71 6 -21 11 -63 11 -92 0 -31 -11 -83 -24 -121 -13 -37 -44 -96 -70 -132
-25 -35 -67 -83 -93 -106 -27 -23 -75 -56 -108 -73 -52 -27 -71 -31 -140 -32
-44 0 -87 2 -95 5 -9 3 -15 -1 -15 -10 0 -10 19 -20 54 -29 44 -12 68 -13 133
-3 53 8 106 24 156 48 55 26 96 56 143 103 44 44 77 89 100 136 32 65 34 77
34 170 0 85 -3 106 -23 143 -13 24 -39 60 -58 82 l-35 38 33 25 c38 29 150 87
167 87 6 0 11 7 11 15 0 8 -3 15 -7 15 -5 0 -34 -11 -67 -25z M5610 1475 c-36
-7 -87 -21 -115 -30 -27 -9 -77 -31 -109 -48 -33 -18 -82 -53 -111 -78 -28
-26 -63 -70 -78 -98 -15 -28 -30 -72 -34 -98 -3 -26 0 -67 6 -91 7 -23 26 -58
43 -78 17 -19 49 -44 71 -55 21 -11 69 -27 106 -35 36 -7 69 -14 73 -14 4 0
-12 -28 -36 -62 -24 -35 -55 -85 -68 -113 -14 -27 -31 -71 -38 -97 -7 -26 -11
-76 -8 -110 2 -37 12 -80 24 -103 13 -25 39 -51 68 -69 37 -23 61 -30 119 -34
48 -3 94 1 137 12 36 9 98 32 138 52 39 19 100 58 135 85 34 28 77 69 96 92
18 23 42 60 52 82 10 22 19 58 19 80 0 22 -7 50 -15 62 -9 13 -34 27 -56 33
-23 6 -60 8 -83 4 -22 -3 -59 -13 -81 -22 -22 -9 -68 -33 -102 -54 -34 -22
-95 -74 -135 -117 -40 -43 -84 -97 -97 -121 -13 -23 -19 -41 -14 -39 6 2 32
33 59 69 27 35 81 91 119 123 39 32 103 74 143 94 41 19 95 37 125 40 43 4 57
1 80 -17 19 -15 27 -30 27 -53 0 -18 -13 -55 -29 -83 -16 -28 -61 -80 -100
-116 -41 -38 -104 -83 -150 -107 -43 -22 -104 -47 -137 -56 -32 -8 -81 -15
-109 -15 -27 0 -69 9 -92 19 -26 12 -48 32 -58 51 -9 18 -17 52 -17 76 0 24 6
61 13 81 6 21 22 58 35 83 12 25 49 82 82 125 33 44 71 92 85 106 20 21 38 27
88 32 35 3 117 19 181 36 65 16 162 46 215 66 54 20 146 61 206 92 59 30 134
75 167 99 32 25 81 69 109 100 28 30 56 73 62 94 9 30 9 46 0 68 -7 16 -24 34
-37 41 -14 6 -53 11 -86 11 -34 0 -97 -10 -141 -21 -43 -12 -140 -52 -215 -90
-76 -37 -176 -94 -224 -126 -48 -32 -124 -88 -170 -124 -46 -37 -122 -104
-171 -149 l-87 -82 -48 6 c-26 4 -68 14 -93 22 -25 8 -65 31 -87 50 -28 23
-45 49 -52 75 -6 23 -8 55 -5 72 4 18 19 54 33 81 15 26 51 70 81 97 30 26 84
63 120 82 36 19 95 44 131 55 36 12 93 26 128 32 35 6 116 10 180 9 64 -1 117
2 117 7 0 5 -18 12 -40 16 -22 4 -94 7 -160 6 -66 0 -149 -6 -185 -13z m964
-51 c9 -8 16 -28 16 -43 0 -17 -14 -47 -35 -74 -19 -25 -74 -75 -122 -112 -49
-36 -146 -95 -218 -130 -71 -36 -179 -81 -238 -101 -60 -19 -154 -44 -208 -55
-55 -10 -105 -19 -111 -19 -6 0 -5 6 3 17 8 9 61 59 119 111 58 53 155 132
215 177 61 45 137 98 171 118 34 20 91 51 128 68 37 17 88 37 114 44 26 7 70
14 99 14 35 1 57 -4 67 -15z M9175 1271 c-22 -10 -58 -32 -81 -48 -22 -17 -82
-70 -134 -119 -90 -87 -236 -251 -411 -464 -85 -104 -205 -215 -308 -284 -54
-37 -101 -47 -101 -22 0 8 25 49 56 92 31 44 92 120 135 171 44 51 79 95 79
98 0 3 -20 5 -44 5 -39 0 -48 -4 -75 -37 -26 -32 -31 -34 -31 -17 0 12 -8 28
-18 37 -10 10 -35 17 -54 17 -20 0 -54 -7 -77 -14 -22 -8 -67 -33 -98 -55 -32
-21 -83 -65 -113 -96 -30 -32 -88 -84 -129 -117 -40 -32 -91 -68 -112 -78 -21
-11 -50 -20 -64 -20 -16 0 -25 6 -25 15 0 9 7 29 15 46 9 16 72 100 141 187
l126 157 71 5 c44 3 72 10 75 18 3 8 -12 12 -52 12 -31 0 -56 3 -56 6 0 3 34
45 75 94 41 48 72 89 70 91 -2 3 -24 3 -49 1 -44 -4 -48 -7 -121 -97 l-76 -94
-56 -3 c-34 -2 -58 -8 -61 -15 -2 -9 10 -13 43 -13 l46 0 -59 -72 c-33 -40
-77 -91 -99 -114 -21 -22 -68 -64 -104 -94 -35 -29 -91 -71 -123 -92 -33 -21
-72 -38 -88 -38 -17 0 -28 5 -28 14 0 7 12 31 26 52 15 21 76 99 136 172 61
73 108 136 105 139 -4 3 -26 2 -50 -1 -39 -6 -50 -15 -107 -82 -61 -73 -176
-176 -271 -243 -48 -33 -118 -63 -131 -54 -5 2 -8 10 -8 17 0 7 41 59 90 117
50 57 97 118 105 136 8 17 15 41 15 53 0 12 -5 30 -10 41 -8 14 -21 19 -49 19
-22 0 -63 -12 -98 -30 -33 -17 -81 -48 -106 -70 -25 -22 -48 -40 -51 -40 -3 0
30 44 72 98 43 53 109 137 147 186 l69 89 -43 -7 c-30 -5 -50 -15 -65 -34 -11
-15 -62 -74 -112 -132 -50 -58 -133 -146 -185 -195 -52 -50 -132 -120 -179
-156 -47 -37 -95 -71 -107 -78 -12 -6 -31 -11 -42 -11 -12 0 -21 7 -21 15 0 9
8 28 17 43 21 32 192 246 227 283 14 15 22 30 19 33 -4 3 -23 6 -44 6 -30 0
-43 -7 -68 -35 -24 -28 -31 -32 -31 -17 0 10 -8 26 -18 35 -10 10 -35 17 -55
17 -20 0 -60 -9 -89 -20 -29 -11 -83 -43 -120 -70 -62 -47 -117 -110 -148
-169 -7 -13 -13 -47 -13 -74 -1 -40 3 -53 22 -68 13 -11 34 -19 47 -19 14 0
41 7 61 15 20 9 56 31 79 50 23 19 45 35 48 35 3 0 6 -15 6 -33 0 -20 8 -41
18 -50 10 -10 29 -17 41 -17 12 0 39 8 60 19 21 10 67 40 102 67 35 27 95 78
134 114 l69 65 -75 -90 c-213 -254 -369 -444 -369 -449 0 -3 20 -6 43 -6 l44
0 108 133 c60 72 147 176 194 231 46 54 120 128 163 165 43 36 106 83 140 104
59 36 101 46 112 29 3 -5 -5 -22 -17 -39 -12 -17 -57 -70 -99 -118 -85 -95
-109 -147 -90 -190 6 -13 23 -27 37 -31 15 -4 44 0 69 10 24 9 64 30 89 46 24
17 66 49 92 72 l47 41 -21 -39 c-12 -21 -21 -53 -21 -70 0 -17 8 -38 18 -47
10 -10 32 -17 49 -17 16 0 52 12 79 26 51 27 106 67 163 118 34 30 34 30 18 4
-9 -15 -19 -44 -23 -66 -5 -32 -2 -44 15 -61 13 -13 34 -21 54 -21 18 0 55 11
83 25 27 13 77 47 111 74 l62 50 -6 -47 c-4 -38 -1 -52 17 -74 13 -17 31 -28
46 -28 14 0 41 7 61 15 21 9 60 33 88 54 l50 38 -3 -38 c-3 -31 0 -40 22 -54
18 -12 36 -15 60 -11 20 4 59 23 87 42 29 19 79 58 112 87 56 48 59 49 43 20
-9 -18 -17 -50 -18 -73 -1 -26 5 -47 17 -60 10 -11 30 -20 45 -20 15 0 42 5
61 12 19 6 57 26 86 44 29 18 86 65 127 105 42 39 73 75 70 80 -3 5 -39 -21
-80 -57 -42 -36 -103 -83 -137 -105 -44 -29 -70 -39 -92 -37 -21 2 -31 9 -33
23 -2 11 15 48 37 82 21 33 70 100 108 148 56 73 86 100 173 158 58 39 140 97
182 129 43 32 118 97 167 143 48 47 105 109 125 137 19 29 38 67 42 84 4 22 1
36 -11 47 -9 10 -26 17 -38 17 -12 0 -40 -9 -62 -19z m74 -24 c8 -10 6 -23 -7
-49 -10 -19 -36 -56 -56 -82 -21 -25 -82 -83 -135 -129 -89 -77 -207 -169
-291 -227 l-35 -24 40 49 c109 137 189 230 285 328 57 60 120 117 140 127 19
11 38 19 41 20 4 0 12 -6 18 -13z m-2785 -583 c9 -3 16 -16 16 -28 0 -12 -14
-44 -31 -72 -18 -27 -66 -83 -108 -125 -42 -42 -95 -86 -118 -98 -23 -11 -54
-21 -68 -21 -19 0 -25 5 -25 20 0 12 7 35 16 53 9 18 40 62 70 98 29 37 77 87
107 112 50 44 87 65 114 66 6 1 18 -2 27 -5z m1764 -21 c2 -12 -6 -39 -17 -61
-11 -22 -54 -75 -96 -120 -41 -44 -97 -94 -124 -111 -26 -17 -60 -31 -74 -31
-23 0 -27 4 -27 29 0 17 16 53 39 87 22 33 70 90 106 127 37 37 84 76 104 87
20 11 47 19 61 17 17 -1 26 -9 28 -24z M4721 1269 c-47 -18 -152 -101 -234
-183 -45 -45 -123 -129 -173 -186 -51 -58 -130 -152 -176 -210 -46 -58 -127
-143 -179 -189 -52 -46 -125 -105 -163 -132 -44 -31 -80 -49 -98 -49 -16 0
-28 5 -28 13 0 7 13 33 28 58 16 24 74 100 130 168 56 68 102 128 102 133 0 4
-18 8 -40 8 -32 0 -45 -6 -67 -30 l-27 -31 -13 25 c-8 14 -25 29 -39 32 -14 4
-43 4 -65 1 -22 -3 -65 -17 -95 -32 -29 -14 -90 -60 -135 -101 -45 -41 -115
-102 -155 -135 -40 -33 -93 -71 -116 -84 -24 -14 -55 -25 -70 -25 -16 0 -28 3
-28 8 0 14 39 67 99 137 34 39 70 88 81 111 11 22 20 50 20 62 0 12 -9 31 -20
42 -11 11 -33 20 -49 20 -15 0 -50 -12 -77 -26 -27 -14 -69 -42 -92 -62 -24
-21 -53 -44 -64 -52 -20 -14 -20 -14 -4 17 9 18 16 45 16 61 0 16 -8 36 -18
45 -10 10 -29 17 -41 17 -12 0 -36 -7 -54 -17 -18 -9 -84 -66 -147 -127 -63
-61 -140 -132 -170 -157 -30 -26 -69 -54 -87 -63 -18 -9 -41 -16 -53 -16 -11
0 -20 6 -20 13 0 7 13 33 29 58 16 24 74 100 130 169 55 69 101 128 101 133 0
4 -17 7 -37 7 -28 0 -45 -8 -70 -32 -23 -22 -33 -27 -33 -17 0 9 -9 24 -20 34
-15 14 -31 17 -69 13 -27 -3 -73 -17 -103 -31 -29 -15 -74 -43 -100 -62 -26
-19 -66 -60 -89 -90 -23 -31 -48 -77 -54 -103 -8 -30 -9 -58 -4 -77 5 -16 17
-36 26 -43 11 -9 33 -12 57 -8 26 3 65 22 111 54 l71 49 -4 -34 c-3 -23 1 -40
13 -53 10 -11 30 -20 45 -20 14 0 50 12 79 26 35 18 107 78 212 179 87 84 175
160 195 170 24 11 39 14 46 7 6 -6 6 -18 -2 -33 -7 -13 -55 -76 -106 -139 -51
-63 -110 -134 -129 -157 l-37 -43 47 0 c47 0 47 0 162 120 63 66 142 141 176
168 34 27 76 57 94 66 34 17 83 22 83 8 0 -5 -13 -27 -29 -48 -16 -21 -54 -68
-84 -102 -31 -35 -63 -79 -71 -97 -9 -18 -16 -45 -16 -59 0 -14 10 -36 21 -47
17 -17 29 -20 61 -16 21 3 64 20 94 39 31 18 80 55 110 81 47 43 53 45 44 22
-5 -14 -10 -42 -10 -61 0 -24 8 -43 25 -59 14 -15 36 -25 53 -25 15 0 50 11
78 25 27 14 64 38 82 55 l32 31 0 -39 c0 -25 7 -45 18 -55 10 -10 29 -17 43
-17 13 0 44 9 68 20 23 11 62 34 85 52 22 17 69 56 104 86 34 29 62 52 62 49
0 -2 -7 -19 -16 -37 -9 -18 -19 -52 -22 -76 -4 -36 -1 -46 21 -68 19 -19 37
-26 64 -26 21 0 62 11 91 25 29 13 73 39 99 56 25 18 79 64 120 102 40 38 70
73 67 78 -3 5 -42 -23 -86 -61 -45 -39 -106 -86 -136 -106 -30 -20 -74 -43
-98 -50 -25 -7 -51 -11 -58 -8 -8 3 -17 13 -21 21 -3 9 6 39 19 67 14 28 61
99 105 157 43 59 90 114 102 123 13 10 69 47 124 83 55 36 129 89 165 117 36
27 98 82 139 121 41 38 91 97 112 129 22 33 39 72 39 87 0 15 -7 35 -16 43 -8
9 -25 16 -37 15 -12 0 -33 -5 -46 -10z m69 -47 c0 -10 -14 -40 -30 -66 -17
-26 -62 -78 -100 -115 -38 -38 -105 -96 -147 -129 -110 -86 -228 -169 -218
-151 16 27 189 234 269 323 45 49 101 104 125 122 26 20 55 34 72 34 21 0 29
-5 29 -18z m-2302 -583 c2 -16 -11 -46 -38 -86 -22 -33 -72 -90 -110 -127 -38
-36 -88 -75 -111 -86 -22 -12 -50 -20 -62 -18 -17 2 -22 9 -20 30 1 15 18 53
39 85 20 32 69 90 108 128 39 39 87 78 106 88 19 9 46 16 60 15 19 -2 26 -10
28 -29z m1262 16 c10 -12 7 -25 -15 -71 -16 -34 -60 -89 -109 -139 -58 -60
-98 -92 -140 -111 -51 -23 -60 -25 -73 -11 -13 13 -13 20 6 62 11 26 43 75 71
110 28 35 72 81 98 103 26 22 61 46 77 55 17 9 40 16 51 17 12 0 27 -7 34 -15z
M7601 911 c-12 -12 -21 -27 -21 -34 0 -7 6 -21 13 -31 8 -11 22 -17 37 -14 12
1 32 16 44 31 16 21 18 32 10 45 -6 9 -23 18 -37 20 -16 2 -34 -5 -46 -17z"/>
</g>
</svg>
