<?xml version="1.0" standalone="no"?>
<!DOCTYPE svg PUBLIC "-//W3C//DTD SVG 20010904//EN"
 "http://www.w3.org/TR/2001/REC-SVG-20010904/DTD/svg10.dtd">
<svg version="1.0" xmlns="http://www.w3.org/2000/svg"
 width="980.000000pt" height="190.000000pt" viewBox="0 0 980.000000 190.000000"
 preserveAspectRatio="xMidYMid meet">
<metadata>
Created by potrace 1.16, written by Peter Selinger 2001-2019
</metadata>
<g transform="translate(0.000000,190.000000) scale(0.100000,-0.100000)"
fill="#f1ead8" stroke="none">
<path d="M2654 1629 c-28 -10 -79 -36 -114 -58 l-64 -38 -60 28 c-117 55 -173
64 -376 63 -167 0 -194 -3 -283 -27 -243 -65 -461 -194 -596 -351 -60 -69 -88
-117 -117 -192 -55 -148 -12 -278 111 -330 54 -22 177 -29 261 -15 236 41 476
225 560 429 13 32 24 78 24 105 0 40 -5 53 -34 85 l-35 37 -83 -1 c-59 0 -100
-6 -142 -22 -156 -57 -320 -197 -415 -354 -35 -58 -9 -45 34 17 20 30 77 93
125 138 70 67 109 94 193 137 91 46 114 53 179 58 90 5 133 -12 143 -57 14
-66 -29 -153 -134 -264 -91 -95 -197 -173 -304 -222 -94 -42 -166 -59 -252
-58 -80 1 -130 19 -174 63 -57 58 -56 166 4 287 31 63 58 98 139 179 111 110
205 175 344 234 281 120 612 132 815 28 22 -11 37 -21 35 -22 -1 -2 -35 -30
-73 -62 -115 -96 -244 -242 -401 -452 -189 -252 -292 -378 -391 -475 -170
-167 -312 -237 -480 -237 -79 0 -132 16 -170 52 -32 30 -29 45 6 40 34 -5 71
26 71 58 0 24 -34 60 -55 60 -34 0 -74 -30 -85 -64 -9 -27 -8 -41 3 -69 18
-42 68 -81 122 -96 22 -6 80 -11 128 -11 99 0 208 24 303 66 156 69 339 224
471 399 33 44 124 174 203 290 154 226 231 326 324 420 l59 59 27 -33 c79 -94
61 -268 -44 -415 -59 -82 -123 -138 -205 -179 -55 -27 -77 -32 -136 -32 -38 0
-79 2 -90 5 -13 3 -20 0 -20 -10 0 -10 19 -20 54 -29 78 -21 191 -3 291 46 99
48 194 142 241 238 32 65 34 77 34 170 0 85 -3 106 -23 143 -13 24 -39 60 -58
82 l-35 38 33 25 c35 27 115 69 161 86 16 6 25 15 22 21 -8 13 -11 13 -71 -11z
M5627 1480 c-26 -5 -78 -18 -115 -30 -199 -64 -335 -194 -349 -334 -7 -65 9
-116 50 -162 39 -45 92 -72 176 -90 36 -7 70 -14 74 -14 4 0 -8 -21 -28 -47
-20 -26 -55 -85 -78 -131 -36 -74 -41 -93 -45 -170 -3 -77 -1 -92 20 -132 16
-29 41 -55 71 -74 122 -75 354 -26 527 113 111 89 170 178 170 256 0 35 -6 52
-23 69 -34 33 -93 41 -169 21 -91 -23 -161 -68 -263 -170 -81 -81 -150 -175
-128 -175 5 0 29 28 53 61 49 68 138 150 215 198 65 41 176 75 217 67 18 -3
40 -14 50 -23 45 -40 0 -141 -107 -241 -157 -146 -371 -217 -492 -163 -51 24
-73 63 -73 131 0 94 83 247 206 383 28 30 39 35 100 40 81 8 264 55 384 99
115 41 307 140 378 193 136 102 199 199 173 263 -7 16 -24 34 -37 41 -39 17
-140 13 -227 -10 -43 -12 -140 -52 -215 -90 -212 -105 -358 -208 -555 -390
l-98 -91 -47 6 c-85 12 -142 37 -187 80 -29 28 -44 53 -49 78 -25 138 134 302
364 376 101 32 181 43 308 41 117 -1 153 9 77 23 -53 9 -267 8 -328 -2z m947
-56 c43 -43 -5 -125 -126 -216 -128 -97 -255 -164 -430 -229 -82 -30 -242 -71
-328 -84 l-45 -7 30 32 c41 44 227 206 300 262 80 60 218 149 282 182 134 67
282 95 317 60z M9163 1265 c-111 -56 -292 -235 -539 -535 -155 -189 -258 -289
-381 -373 -56 -37 -103 -48 -103 -24 0 20 84 135 184 255 47 56 86 105 86 107
0 3 -20 5 -44 5 -39 0 -48 -4 -75 -37 -26 -32 -31 -34 -31 -17 0 12 -9 29 -20
39 -15 14 -31 17 -69 13 -79 -8 -155 -53 -266 -159 -160 -153 -253 -219 -310
-219 -31 0 -33 22 -4 70 12 19 76 103 143 187 l121 152 69 3 c89 4 103 26 20
30 l-58 3 78 93 c43 52 76 95 74 96 -1 1 -24 1 -50 -2 -46 -4 -49 -6 -123 -97
l-76 -94 -56 -3 c-70 -4 -84 -25 -19 -30 l44 -3 -77 -91 c-91 -108 -188 -197
-289 -265 -74 -49 -132 -65 -132 -35 0 20 41 78 161 223 60 72 109 134 109
137 0 3 -19 6 -41 6 -38 0 -46 -5 -87 -52 -81 -93 -187 -191 -271 -252 -78
-56 -147 -90 -163 -79 -18 11 -3 36 81 132 116 132 138 180 111 232 -26 47
-155 5 -254 -83 -24 -21 -47 -38 -50 -38 -3 0 39 55 92 123 54 67 119 150 146
185 43 57 45 62 24 61 -48 -2 -67 -17 -143 -109 -149 -180 -357 -378 -499
-474 -45 -31 -86 -35 -86 -8 0 20 97 151 198 269 39 44 68 84 65 87 -4 3 -23
6 -44 6 -30 0 -43 -7 -68 -35 -24 -28 -31 -32 -31 -17 0 10 -9 27 -20 37 -15
14 -31 17 -69 13 -27 -3 -73 -17 -103 -31 -80 -39 -178 -126 -217 -192 -27
-45 -35 -68 -35 -108 0 -40 5 -53 23 -68 13 -11 35 -19 50 -19 35 1 97 30 146
70 l40 32 6 -42 c3 -23 12 -46 20 -51 19 -12 52 -11 86 2 39 15 165 111 247
188 l70 66 -75 -90 c-243 -291 -369 -444 -369 -450 0 -3 20 -5 45 -3 l45 3
188 225 c194 233 298 335 414 403 70 41 108 48 108 18 0 -10 -38 -61 -85 -112
-86 -94 -125 -157 -125 -197 0 -29 34 -62 63 -62 36 0 137 54 205 109 34 28
62 49 62 47 0 -2 -7 -17 -15 -32 -20 -39 -19 -87 3 -107 42 -38 130 -7 245 88
37 31 67 54 67 51 0 -2 -7 -17 -15 -32 -33 -64 -5 -124 58 -124 44 0 118 38
194 99 l62 50 -6 -47 c-4 -38 -1 -52 17 -74 13 -17 31 -28 46 -28 36 0 91 26
149 69 l51 38 -4 -34 c-3 -23 1 -40 13 -53 38 -42 110 -16 235 85 47 39 80 60
76 49 -16 -37 -24 -87 -19 -103 25 -70 96 -67 213 7 64 40 202 171 194 183 -3
5 -39 -21 -80 -57 -141 -123 -243 -173 -261 -128 -9 24 17 71 117 203 85 113
99 127 198 193 158 106 257 183 355 277 95 91 167 189 167 226 0 30 -25 55
-54 55 -12 0 -45 -11 -73 -25z m86 -18 c13 -17 -10 -65 -63 -131 -61 -73 -272
-250 -426 -356 l-35 -24 40 49 c214 269 412 471 466 475 4 0 12 -6 18 -13z
m-2785 -583 c9 -3 16 -16 16 -28 0 -53 -131 -208 -232 -276 -63 -42 -118 -53
-118 -25 0 52 96 186 193 268 69 59 105 75 141 61z m1764 -21 c5 -35 -32 -95
-113 -181 -83 -89 -158 -142 -198 -142 -23 0 -27 4 -27 29 0 17 16 53 39 87
49 74 162 188 210 214 47 25 85 22 89 -7z M4694 1254 c-122 -65 -294 -241
-590 -606 -64 -78 -217 -216 -318 -287 -60 -42 -116 -55 -116 -27 0 21 70 121
170 239 49 59 90 112 90 117 0 6 -18 10 -39 10 -32 0 -46 -6 -70 -32 -17 -18
-31 -27 -31 -20 0 6 -9 21 -20 32 -26 26 -83 26 -148 2 -64 -25 -109 -56 -208
-147 -109 -100 -200 -172 -246 -196 -37 -19 -88 -26 -88 -11 0 14 39 67 99
137 64 74 101 137 101 173 0 31 -35 62 -69 62 -35 0 -112 -40 -169 -88 -24
-21 -53 -44 -64 -52 -20 -14 -20 -14 -4 17 21 42 20 86 -2 106 -48 43 -112 6
-280 -161 -66 -66 -149 -138 -182 -161 -62 -41 -110 -53 -110 -28 0 20 48 89
159 227 56 69 101 128 101 133 0 4 -17 7 -37 7 -28 0 -45 -8 -70 -32 -23 -22
-33 -27 -33 -17 0 9 -9 24 -20 34 -50 45 -211 -16 -316 -120 -71 -72 -107
-140 -107 -203 0 -36 5 -49 24 -65 37 -30 90 -17 174 41 l71 49 -4 -34 c-5
-42 20 -73 58 -73 57 0 131 52 288 202 151 145 216 194 239 180 21 -13 -12
-64 -139 -217 l-125 -150 43 -3 43 -3 143 145 c148 150 249 226 300 226 15 0
28 -4 28 -8 0 -12 -48 -76 -113 -150 -88 -101 -108 -161 -66 -203 17 -17 29
-20 61 -16 48 6 131 55 204 120 47 43 53 45 44 22 -5 -14 -10 -42 -10 -61 0
-44 37 -84 78 -84 36 0 117 40 160 79 l32 30 0 -38 c0 -45 24 -71 64 -71 44 0
134 53 228 135 l86 74 -19 -50 c-26 -67 -24 -105 6 -134 17 -18 35 -25 62 -25
75 0 219 88 331 203 30 30 50 57 44 61 -5 3 -31 -15 -58 -40 -121 -112 -234
-184 -293 -186 -66 -2 -59 46 24 167 95 139 143 194 206 233 142 87 281 194
380 292 136 134 177 211 133 254 -22 23 -54 20 -110 -10z m96 -32 c0 -51 -127
-192 -280 -312 -92 -73 -220 -163 -220 -156 0 8 191 237 279 335 42 46 96 99
121 117 50 38 100 45 100 16z m-2302 -583 c4 -36 -63 -132 -148 -213 -97 -92
-181 -131 -196 -92 -11 29 60 140 141 221 84 85 134 117 175 113 19 -2 26 -10
28 -29z m1261 12 c15 -28 -26 -103 -102 -186 -69 -75 -119 -115 -178 -139 -30
-12 -39 -13 -54 -2 -17 12 -16 15 4 61 25 57 113 167 172 215 85 69 139 87
158 51z M7600 910 c-11 -11 -20 -25 -20 -31 0 -24 22 -49 44 -49 25 0 66 38
66 61 0 40 -57 52 -90 19z"/>
</g>
</svg>
