<?xml version="1.0" standalone="no"?>
<!DOCTYPE svg PUBLIC "-//W3C//DTD SVG 20010904//EN"
 "http://www.w3.org/TR/2001/REC-SVG-20010904/DTD/svg10.dtd">
<svg version="1.0" xmlns="http://www.w3.org/2000/svg"
 width="980.000000pt" height="190.000000pt" viewBox="0 0 980.000000 190.000000"
 preserveAspectRatio="xMidYMid meet">
<metadata>
Created by potrace 1.16, written by Peter Selinger 2001-2019
</metadata>
<g transform="translate(0.000000,190.000000) scale(0.100000,-0.100000)"
fill="#f1ead8" stroke="none">
<path d="M2654 1629 c-28 -10 -79 -36 -114 -58 l-64 -38 -60 28 c-34 16 -88
36 -121 45 -80 22 -323 30 -424 14 -42 -7 -114 -23 -161 -37 -46 -13 -119 -39
-160 -58 -42 -18 -107 -52 -145 -75 -38 -24 -100 -68 -137 -98 -37 -30 -89
-83 -116 -116 -26 -34 -56 -74 -66 -89 -10 -16 -28 -58 -42 -93 -15 -41 -24
-85 -24 -122 0 -42 7 -72 25 -108 14 -27 40 -59 60 -73 20 -13 59 -30 88 -38
28 -7 81 -13 117 -13 36 0 95 7 131 14 36 8 94 26 130 41 35 15 96 48 134 72
39 25 102 78 140 118 47 48 84 97 109 148 26 51 41 95 44 130 3 37 -1 63 -11
84 -9 17 -33 38 -53 48 -28 13 -53 16 -103 12 -36 -2 -93 -14 -125 -26 -33
-11 -84 -35 -114 -53 -29 -18 -82 -56 -116 -84 -61 -51 -141 -144 -185 -216
-12 -21 -19 -38 -13 -38 5 0 26 24 46 54 21 30 75 90 120 133 45 43 107 93
139 112 31 18 85 45 119 59 35 14 91 28 126 30 37 3 74 -1 93 -8 17 -7 35 -25
41 -39 5 -14 6 -41 3 -60 -4 -19 -17 -56 -30 -81 -13 -26 -56 -81 -95 -123
-39 -42 -102 -99 -138 -127 -37 -27 -96 -65 -132 -84 -36 -19 -96 -44 -135
-56 -43 -13 -98 -21 -141 -22 -38 0 -89 6 -112 13 -23 6 -57 28 -77 47 -20 20
-37 50 -41 69 -4 19 -4 58 -2 88 3 36 18 81 43 131 28 57 61 101 122 165 47
48 122 113 167 143 46 31 117 71 157 90 41 19 112 46 159 61 47 14 128 33 180
41 52 7 131 14 175 14 44 -1 114 -7 155 -14 78 -14 174 -47 203 -69 14 -11 7
-19 -59 -74 -42 -34 -117 -106 -166 -160 -50 -54 -156 -186 -236 -293 -80
-107 -182 -240 -228 -295 -45 -55 -122 -139 -170 -186 -49 -47 -109 -99 -134
-116 -25 -17 -68 -42 -96 -56 -28 -14 -78 -33 -111 -41 -34 -9 -89 -16 -124
-16 -35 0 -82 5 -103 11 -22 6 -52 24 -68 39 -15 16 -28 33 -28 37 0 5 13 8
29 5 20 -3 35 2 50 17 12 12 21 30 21 41 0 11 -9 29 -20 40 -11 11 -27 20 -35
20 -9 0 -29 -7 -45 -15 -17 -9 -33 -28 -40 -49 -9 -27 -8 -41 3 -69 8 -19 30
-46 48 -60 19 -14 52 -30 74 -36 22 -6 80 -11 128 -11 56 0 118 7 166 20 43
11 104 31 137 46 32 14 97 51 144 81 49 32 126 97 180 152 53 53 122 131 153
173 32 43 116 163 187 268 71 105 158 228 193 273 36 46 95 114 131 151 57 59
68 67 82 55 8 -7 25 -31 36 -53 12 -24 23 -68 26 -106 3 -52 -1 -80 -21 -137
-13 -40 -45 -101 -71 -137 -25 -35 -67 -82 -92 -105 -26 -23 -76 -56 -112 -73
-43 -21 -84 -33 -123 -36 -32 -2 -72 0 -88 6 -21 7 -33 8 -37 1 -3 -6 -2 -15
3 -20 5 -5 35 -15 66 -21 44 -9 73 -9 129 0 43 7 104 27 148 49 52 25 95 57
141 102 43 44 77 90 100 136 32 65 34 76 34 170 0 85 -3 106 -23 143 -13 24
-39 60 -58 82 l-35 38 33 26 c18 13 68 41 111 61 42 21 74 41 71 46 -3 5 -8 9
-12 8 -4 0 -30 -9 -58 -20z M5645 1483 c-70 -10 -155 -37 -231 -73 -45 -22
-106 -62 -136 -89 -30 -27 -66 -72 -82 -100 -16 -29 -30 -74 -33 -105 -3 -31
0 -69 7 -90 7 -21 26 -53 43 -72 16 -20 48 -44 70 -55 21 -11 69 -27 106 -35
36 -7 70 -14 74 -14 4 0 -10 -24 -32 -52 -22 -29 -57 -89 -78 -133 -36 -75
-38 -85 -38 -176 0 -87 2 -99 27 -136 17 -26 45 -50 79 -67 41 -20 68 -26 119
-26 36 0 93 7 125 15 33 9 92 31 130 49 39 18 99 56 135 85 36 29 80 71 98 94
19 23 43 59 53 79 11 21 19 58 19 83 0 35 -6 52 -24 70 -13 13 -40 27 -61 31
-23 4 -61 0 -102 -10 -36 -8 -90 -30 -122 -48 -31 -17 -97 -72 -146 -122 -50
-50 -101 -110 -113 -133 -13 -24 -20 -43 -15 -43 5 0 29 28 53 62 25 34 78 90
119 125 41 35 102 77 135 93 34 17 86 35 116 42 45 9 61 9 85 -3 16 -8 34 -26
39 -41 7 -19 5 -39 -8 -72 -10 -26 -41 -72 -69 -102 -28 -31 -82 -78 -120
-105 -37 -26 -102 -62 -144 -79 -51 -21 -99 -34 -148 -37 -62 -5 -80 -2 -119
17 -28 13 -53 34 -62 53 -11 21 -15 48 -12 91 3 41 14 82 35 126 32 65 110
177 169 243 28 30 39 35 96 40 36 3 119 20 185 36 66 17 160 46 210 65 49 19
132 55 184 81 52 26 123 67 159 90 36 24 93 72 127 107 40 42 65 79 73 106 10
32 10 47 1 71 -8 17 -26 35 -43 42 -17 7 -56 12 -88 11 -31 -1 -96 -13 -144
-27 -48 -14 -140 -52 -204 -84 -64 -32 -155 -83 -202 -113 -47 -30 -125 -87
-175 -125 -49 -39 -132 -110 -183 -158 l-92 -87 -66 12 c-37 6 -88 22 -113 35
-25 12 -56 34 -69 47 -12 14 -27 40 -32 59 -6 19 -7 50 -4 69 4 19 16 53 27
75 11 22 46 65 79 96 37 36 88 72 141 98 45 22 116 50 157 62 59 17 107 23
225 25 83 2 152 7 155 11 3 4 -13 11 -35 15 -22 4 -94 6 -160 6 -66 -1 -133
-3 -150 -5z m927 -60 c10 -9 18 -27 18 -40 0 -14 -13 -44 -30 -68 -16 -23 -58
-65 -92 -93 -35 -27 -94 -69 -133 -92 -38 -24 -110 -62 -160 -85 -49 -24 -138
-59 -197 -78 -59 -20 -152 -46 -208 -57 -57 -12 -107 -19 -113 -17 -5 1 33 42
86 91 52 48 135 119 184 158 48 40 129 98 178 131 50 32 116 72 147 88 31 16
90 40 130 54 40 13 95 25 122 25 32 0 56 -6 68 -17z M9183 1275 c-18 -8 -53
-28 -78 -45 -25 -17 -86 -70 -137 -118 -50 -48 -137 -139 -192 -202 -56 -63
-147 -171 -202 -240 -60 -74 -138 -157 -192 -203 -50 -43 -115 -94 -143 -113
-28 -18 -59 -34 -69 -34 -11 0 -22 5 -26 11 -3 6 14 41 40 77 25 37 86 115
136 175 49 59 90 109 90 112 0 3 -20 5 -44 5 -38 0 -48 -5 -75 -35 -24 -28
-31 -32 -31 -17 0 10 -9 27 -20 37 -15 14 -31 17 -69 13 -27 -3 -76 -18 -108
-34 -35 -18 -96 -66 -158 -125 -55 -52 -124 -115 -154 -138 -30 -23 -72 -51
-92 -62 -21 -10 -50 -19 -64 -19 -17 0 -25 5 -25 18 0 9 10 34 23 54 12 20 76
104 142 186 l120 150 69 4 c42 2 71 8 73 15 3 8 -14 13 -53 15 l-58 3 78 93
c43 52 76 96 73 99 -3 2 -26 1 -51 -2 -42 -7 -50 -13 -121 -101 l-76 -93 -56
-3 c-70 -4 -84 -25 -19 -30 l44 -3 -77 -91 c-42 -50 -108 -119 -147 -153 -38
-34 -102 -85 -142 -112 -47 -31 -84 -49 -103 -49 -18 0 -29 5 -29 14 0 7 12
31 26 52 15 21 75 98 135 170 60 73 109 135 109 138 0 3 -20 6 -44 6 -42 0
-45 -2 -118 -88 -41 -48 -111 -117 -154 -152 -43 -35 -106 -81 -138 -102 -33
-21 -72 -38 -88 -38 -17 0 -28 5 -28 13 0 8 37 56 83 108 45 52 92 110 105
130 12 20 22 49 22 63 0 15 -5 36 -10 47 -8 14 -21 19 -51 19 -23 0 -62 -11
-92 -26 -29 -14 -72 -43 -97 -63 -25 -21 -52 -41 -60 -46 -8 -4 -3 5 11 21 15
16 81 99 148 184 107 138 118 155 98 158 -13 2 -32 -1 -43 -5 -11 -4 -66 -62
-121 -128 -55 -66 -145 -163 -199 -215 -101 -96 -207 -186 -278 -234 -21 -14
-49 -26 -62 -26 -14 0 -24 6 -24 14 0 8 16 37 35 66 39 58 193 248 218 269 9
7 14 17 11 22 -3 5 -22 9 -44 9 -31 0 -44 -6 -69 -35 -24 -28 -31 -32 -31 -17
0 10 -9 27 -20 37 -15 14 -31 17 -69 13 -27 -3 -73 -17 -103 -31 -29 -15 -80
-48 -112 -74 -32 -26 -76 -73 -97 -105 -20 -32 -40 -75 -44 -96 -3 -21 -1 -50
4 -65 6 -15 22 -32 35 -38 13 -7 40 -9 58 -5 31 6 75 30 148 83 22 17 24 17
17 1 -3 -10 -1 -31 4 -47 6 -17 20 -33 31 -37 11 -3 35 -3 53 0 18 4 63 28
101 55 38 26 105 81 149 122 44 41 67 58 51 39 -16 -19 -113 -136 -215 -258
-102 -123 -188 -228 -190 -234 -2 -5 16 -8 43 -6 l46 3 188 225 c116 140 218
251 270 296 45 39 110 87 144 107 35 20 73 37 85 37 16 0 23 -6 23 -19 0 -10
-34 -56 -76 -102 -42 -46 -89 -104 -105 -128 -16 -25 -29 -58 -29 -73 0 -15 9
-37 20 -48 11 -11 31 -20 45 -20 13 0 37 5 52 12 46 20 129 75 172 114 23 20
41 34 41 31 0 -2 -7 -18 -15 -33 -8 -16 -15 -43 -15 -60 0 -18 8 -38 20 -49
15 -13 30 -16 60 -12 23 3 66 20 96 38 30 19 77 53 104 77 28 24 50 41 50 39
0 -3 -7 -18 -15 -33 -8 -16 -15 -41 -15 -56 0 -16 9 -37 20 -48 12 -12 33 -20
53 -20 19 0 60 13 93 30 32 16 82 50 111 75 l52 46 -5 -48 c-5 -40 -2 -53 16
-75 15 -19 31 -28 51 -28 17 0 44 7 62 16 18 9 55 33 82 54 l51 37 -4 -34 c-3
-23 1 -40 13 -53 10 -11 30 -20 44 -20 14 0 44 9 67 19 22 10 76 47 120 83
l80 65 -15 -54 c-14 -51 -13 -55 6 -81 11 -15 31 -29 44 -30 13 -2 41 1 63 8
22 7 65 28 96 47 30 20 87 67 127 106 40 38 70 74 67 79 -3 4 -39 -21 -81 -57
-41 -36 -98 -82 -127 -101 -29 -19 -69 -37 -89 -41 -29 -4 -38 -2 -43 12 -4 9
0 32 9 49 8 18 56 88 107 154 88 118 96 125 223 211 73 50 168 119 213 155 44
35 116 102 160 148 44 47 90 105 104 131 20 37 22 51 14 74 -7 21 -17 29 -39
30 -17 2 -45 -4 -62 -12z m66 -63 c-5 -15 -26 -48 -47 -74 -42 -53 -188 -188
-272 -253 -30 -23 -89 -66 -130 -95 l-75 -53 40 49 c106 131 199 238 290 333
58 60 117 111 140 122 27 12 43 15 51 8 9 -7 10 -18 3 -37z m-2776 -563 c7
-12 4 -28 -11 -60 -12 -24 -51 -76 -87 -116 -36 -39 -93 -90 -126 -112 -38
-25 -73 -41 -91 -41 -29 0 -30 2 -24 33 4 17 23 57 43 87 20 30 68 87 107 125
39 39 87 78 106 88 19 9 44 16 54 14 10 -1 23 -9 29 -18z m1755 -6 c2 -12 -6
-39 -16 -60 -11 -21 -49 -69 -83 -107 -35 -38 -90 -89 -123 -113 -38 -28 -69
-43 -88 -43 -29 0 -30 2 -25 35 3 18 23 60 45 92 22 32 68 86 103 121 35 35
79 72 98 83 20 10 47 18 61 16 17 -1 26 -9 28 -24z M4692 1253 c-28 -16 -81
-52 -117 -82 -63 -53 -174 -170 -301 -316 -33 -38 -98 -116 -143 -173 -50 -62
-128 -142 -195 -199 -61 -53 -134 -111 -163 -129 -29 -19 -64 -34 -78 -34 -14
0 -25 6 -25 13 0 6 10 28 21 47 26 43 199 258 228 284 11 10 18 23 15 27 -3 5
-25 9 -49 9 -37 0 -47 -4 -66 -31 l-22 -31 -14 26 c-7 14 -25 29 -39 32 -14 4
-46 4 -71 0 -25 -3 -68 -18 -95 -33 -27 -15 -83 -57 -124 -93 -41 -36 -107
-93 -147 -128 -40 -35 -94 -76 -122 -93 -27 -16 -62 -29 -77 -29 -16 0 -28 4
-28 9 0 4 10 22 23 39 12 17 53 69 90 114 37 46 73 100 79 121 8 27 8 43 0 62
-6 13 -23 27 -38 31 -14 4 -43 1 -64 -5 -33 -10 -82 -43 -188 -125 l-24 -19
16 31 c9 17 16 44 16 60 0 16 -8 36 -18 45 -10 10 -29 17 -41 17 -12 0 -39 -9
-61 -20 -21 -11 -99 -79 -172 -151 -73 -72 -159 -148 -192 -170 -32 -21 -69
-39 -82 -39 -13 0 -24 6 -24 13 0 6 9 26 19 43 10 17 67 91 126 165 59 73 109
139 112 146 4 9 -6 13 -33 13 -29 0 -46 -7 -71 -32 -23 -22 -33 -27 -33 -17 0
9 -9 24 -20 34 -16 14 -30 17 -75 12 -34 -3 -78 -18 -117 -39 -35 -18 -90 -60
-124 -93 -33 -34 -71 -83 -84 -110 -14 -29 -23 -66 -23 -93 0 -36 5 -49 24
-65 18 -14 33 -18 63 -14 25 4 66 24 111 55 l71 49 -4 -34 c-3 -23 2 -40 14
-54 15 -17 27 -20 57 -16 21 3 62 20 92 38 30 18 118 95 196 171 78 77 159
148 179 158 20 10 41 15 47 12 8 -5 8 -16 -2 -37 -7 -17 -69 -97 -138 -180
l-125 -150 43 -3 44 -3 143 145 c81 81 171 162 207 185 36 23 76 41 93 41 15
0 28 -4 28 -8 0 -5 -13 -27 -29 -48 -16 -21 -54 -68 -84 -102 -31 -35 -63 -79
-71 -97 -9 -18 -16 -45 -16 -59 0 -14 10 -36 21 -47 17 -17 29 -20 61 -16 21
3 64 20 94 39 31 18 80 55 110 81 47 43 53 45 44 22 -5 -14 -10 -42 -10 -61 0
-24 8 -43 25 -59 15 -16 36 -25 55 -25 17 0 45 7 63 16 18 9 53 32 80 51 l47
35 0 -35 c0 -20 7 -41 18 -50 10 -10 31 -17 46 -17 16 0 54 14 85 30 31 17 97
65 145 107 73 63 85 70 71 44 -9 -18 -19 -54 -22 -81 -5 -43 -3 -51 20 -74 19
-19 36 -26 64 -26 21 0 62 12 92 25 30 14 82 45 115 69 34 25 87 71 119 104
34 34 55 62 49 66 -6 4 -35 -16 -64 -43 -29 -27 -76 -67 -103 -89 -28 -22 -73
-52 -99 -66 -28 -15 -65 -26 -86 -26 -22 0 -40 6 -43 13 -3 7 1 29 7 48 13 38
84 145 161 242 27 34 70 72 107 95 133 81 288 201 384 297 56 55 111 119 123
142 11 23 21 55 21 71 0 15 -5 33 -12 40 -7 7 -24 12 -39 12 -14 0 -49 -12
-77 -27z m98 -31 c0 -10 -13 -39 -29 -64 -16 -25 -64 -80 -108 -121 -43 -42
-109 -101 -146 -131 -75 -59 -217 -158 -217 -151 0 7 194 239 274 329 39 43
94 96 121 117 30 23 61 39 78 39 19 0 27 -5 27 -18z m-2302 -580 c2 -12 -8
-43 -23 -68 -14 -24 -53 -74 -87 -109 -33 -36 -87 -83 -120 -105 -33 -22 -71
-40 -84 -40 -14 0 -27 7 -30 14 -3 8 9 42 27 76 18 34 67 96 108 139 42 43 94
88 116 100 22 11 51 20 65 18 18 -1 26 -9 28 -25z m1260 -5 c2 -17 -7 -46 -24
-75 -15 -26 -62 -81 -104 -123 -42 -42 -95 -86 -118 -98 -23 -12 -53 -21 -67
-21 -21 0 -25 5 -25 28 0 17 17 55 40 91 22 34 70 91 106 126 36 36 82 74 102
85 21 11 48 19 62 17 19 -1 26 -8 28 -30z M7600 910 c-11 -11 -20 -25 -20 -31
0 -6 5 -19 10 -30 6 -10 21 -19 34 -19 12 0 32 10 44 23 12 13 22 30 22 38 0
8 -5 20 -12 27 -7 7 -22 12 -35 12 -13 0 -32 -9 -43 -20z"/>
</g>
</svg>
