<?xml version="1.0" standalone="no"?>
<!DOCTYPE svg PUBLIC "-//W3C//DTD SVG 20010904//EN"
 "http://www.w3.org/TR/2001/REC-SVG-20010904/DTD/svg10.dtd">
<svg version="1.0" xmlns="http://www.w3.org/2000/svg"
 width="980.000000pt" height="190.000000pt" viewBox="0 0 980.000000 190.000000"
 preserveAspectRatio="xMidYMid meet">
<metadata>
Created by potrace 1.16, written by Peter Selinger 2001-2019
</metadata>
<g transform="translate(0.000000,190.000000) scale(0.100000,-0.100000)"
fill="#f1ead8" stroke="none">
<path d="M2649 1626 c-58 -23 -122 -59 -151 -83 -14 -13 -23 -11 -66 11 -28
14 -86 36 -129 48 -69 20 -99 23 -263 22 -167 0 -195 -3 -283 -27 -346 -93
-630 -310 -713 -546 -53 -151 -11 -276 111 -327 54 -22 177 -29 261 -15 236
41 476 225 560 429 13 32 24 78 24 105 0 40 -5 53 -34 84 -30 33 -39 37 -94
41 -186 13 -446 -157 -581 -380 -35 -58 -9 -45 33 16 21 30 75 90 120 134 127
122 260 192 382 200 142 9 177 -51 108 -189 -32 -65 -168 -206 -259 -268 -142
-99 -273 -146 -400 -144 -80 1 -130 19 -174 63 -35 36 -46 79 -38 158 9 103
72 206 198 327 134 128 307 224 494 273 235 62 487 52 639 -25 49 -25 49 -25
28 -42 -139 -106 -286 -267 -483 -531 -297 -396 -429 -533 -601 -621 -152 -77
-337 -80 -415 -7 -32 30 -29 45 6 40 34 -5 71 26 71 58 0 24 -34 60 -55 60
-31 0 -73 -30 -83 -59 -24 -68 34 -148 124 -170 23 -6 82 -11 129 -11 212 0
431 104 621 294 102 102 171 193 364 476 144 211 222 312 314 405 l59 59 27
-33 c79 -94 61 -268 -44 -415 -57 -80 -123 -139 -201 -179 -52 -27 -71 -31
-140 -32 -44 0 -87 2 -95 5 -9 3 -15 -1 -15 -10 0 -10 19 -20 54 -29 44 -12
68 -13 133 -3 169 25 326 137 399 287 32 65 34 77 34 170 0 112 -14 151 -81
225 l-35 38 33 25 c38 29 150 87 167 87 6 0 11 7 11 15 0 19 -4 19 -71 -9z
M5610 1475 c-252 -51 -430 -194 -447 -359 -13 -130 66 -218 226 -252 36 -7 69
-14 73 -14 4 0 -13 -29 -37 -64 -25 -35 -59 -95 -77 -132 -27 -57 -33 -83 -35
-154 -3 -74 -1 -91 20 -130 67 -128 257 -146 465 -44 122 60 234 161 283 256
27 53 25 123 -4 152 -54 54 -179 38 -303 -39 -79 -49 -206 -177 -243 -244 -33
-61 -12 -48 45 29 98 130 272 245 387 257 43 4 57 1 80 -17 17 -14 27 -31 27
-49 0 -84 -135 -235 -278 -309 -137 -72 -257 -90 -339 -53 -96 44 -100 171 -8
327 27 46 150 203 167 215 6 4 40 9 76 13 151 14 409 98 595 193 235 120 375
270 338 361 -16 38 -48 52 -123 52 -92 0 -204 -35 -356 -111 -212 -105 -358
-208 -555 -390 l-98 -91 -47 6 c-162 23 -259 113 -237 219 27 128 173 254 365
315 101 33 181 43 308 41 117 -1 153 9 77 23 -65 11 -275 7 -345 -7z m964 -51
c93 -92 -234 -340 -612 -463 -111 -36 -299 -78 -308 -68 -6 6 170 169 261 242
167 134 378 259 492 290 69 19 148 19 167 -1z M9183 1275 c-122 -53 -315 -246
-634 -635 -85 -104 -205 -215 -308 -284 -54 -37 -101 -47 -101 -23 0 20 84
135 184 255 47 56 86 105 86 107 0 3 -20 5 -44 5 -39 0 -48 -4 -75 -37 -26
-32 -31 -34 -31 -17 0 50 -68 68 -149 40 -58 -21 -147 -84 -211 -151 -68 -71
-189 -169 -241 -195 -47 -24 -89 -26 -89 -5 0 30 31 75 156 233 l126 157 71 5
c89 6 103 28 21 32 l-58 3 77 91 c41 51 74 94 72 96 -2 2 -24 2 -49 0 -44 -4
-48 -7 -121 -97 l-76 -94 -56 -3 c-72 -4 -87 -28 -18 -28 l46 0 -59 -72 c-105
-128 -208 -223 -326 -300 -60 -38 -116 -50 -116 -24 0 20 41 78 161 223 60 72
109 134 109 137 0 3 -19 6 -41 6 -38 0 -46 -5 -87 -52 -111 -127 -272 -267
-357 -311 -44 -22 -79 -25 -83 -6 -1 8 38 61 87 118 116 132 138 180 111 232
-26 47 -155 5 -254 -83 -24 -21 -47 -38 -50 -38 -3 0 30 44 72 98 43 53 109
137 147 186 l69 89 -43 -7 c-30 -5 -50 -15 -65 -34 -130 -166 -335 -374 -476
-483 -96 -75 -120 -89 -149 -89 -32 0 -26 26 24 96 53 73 205 257 217 262 20
8 -6 22 -42 22 -31 0 -44 -6 -69 -35 -24 -28 -31 -32 -31 -17 0 52 -72 66
-162 32 -154 -58 -301 -234 -282 -336 16 -84 100 -84 211 1 l48 37 3 -34 c12
-121 133 -76 357 132 l69 65 -75 -90 c-213 -254 -369 -444 -369 -449 0 -3 20
-6 43 -6 l44 0 108 133 c199 241 278 329 357 396 137 116 248 171 248 122 0
-10 -37 -60 -82 -110 -88 -98 -128 -159 -128 -198 0 -29 33 -63 63 -63 49 0
159 65 246 144 l33 31 -21 -40 c-40 -75 -19 -135 46 -135 48 0 146 58 242 144
34 30 34 30 18 4 -9 -15 -19 -44 -23 -66 -5 -32 -2 -44 15 -61 43 -43 131 -16
248 78 l62 50 -6 -47 c-4 -38 -1 -52 17 -74 35 -46 98 -32 195 41 l50 38 -3
-37 c-3 -30 1 -41 19 -54 48 -33 106 -10 227 88 82 67 91 71 72 36 -6 -10 -11
-37 -12 -59 -3 -97 79 -107 209 -25 63 40 205 173 197 185 -3 5 -39 -21 -80
-57 -141 -123 -243 -173 -261 -128 -9 24 17 71 117 203 85 113 99 127 198 193
231 155 407 308 482 421 43 64 49 96 24 121 -19 19 -49 20 -91 1z m66 -28 c13
-17 -10 -65 -63 -131 -61 -73 -272 -250 -426 -356 l-35 -24 40 49 c220 276
412 471 466 475 4 0 12 -6 18 -13z m-2785 -583 c44 -17 -7 -110 -124 -226 -81
-79 -141 -118 -185 -118 -49 0 -28 61 61 171 79 99 174 176 221 178 6 1 18 -2
27 -5z m1764 -21 c5 -35 -32 -95 -113 -181 -83 -89 -158 -142 -198 -142 -23 0
-27 4 -27 29 0 58 163 255 249 301 47 25 85 22 89 -7z M4721 1269 c-108 -43
-332 -266 -590 -587 -127 -158 -371 -362 -433 -362 -16 0 -28 5 -28 13 0 22
52 97 158 226 56 68 102 128 102 133 0 4 -18 8 -40 8 -32 0 -45 -6 -67 -30
l-27 -31 -13 25 c-16 30 -49 41 -104 33 -66 -9 -142 -53 -231 -133 -118 -108
-221 -191 -270 -219 -41 -24 -98 -34 -98 -17 0 14 39 67 99 137 64 74 101 137
101 173 0 31 -35 62 -69 62 -35 0 -112 -40 -169 -88 -24 -21 -53 -44 -64 -52
-20 -14 -20 -14 -4 17 32 64 11 123 -45 123 -39 0 -91 -38 -206 -150 -177
-172 -253 -230 -303 -230 -11 0 -20 6 -20 13 0 21 51 93 159 227 55 69 101
128 101 133 0 4 -17 7 -37 7 -28 0 -45 -8 -70 -32 -23 -22 -33 -27 -33 -17 0
33 -36 52 -89 47 -181 -18 -398 -251 -347 -373 27 -63 89 -59 193 14 l69 48
-4 -34 c-5 -42 20 -73 58 -73 57 0 131 52 291 205 149 143 216 194 239 180 6
-4 5 -16 -1 -33 -9 -23 -119 -163 -234 -299 l-37 -43 46 0 c46 0 46 0 188 144
148 150 249 226 300 226 15 0 28 -4 28 -8 0 -12 -48 -76 -113 -150 -88 -101
-108 -161 -66 -203 17 -17 29 -20 61 -16 48 6 131 55 204 120 47 43 53 45 44
22 -28 -72 6 -145 68 -145 36 0 117 40 160 79 l32 30 0 -38 c0 -44 24 -71 61
-71 53 1 126 45 257 158 34 29 62 52 62 49 0 -2 -7 -19 -16 -37 -9 -18 -19
-52 -22 -76 -4 -36 -1 -46 21 -68 46 -46 134 -27 254 55 64 44 194 169 187
180 -3 5 -42 -23 -86 -61 -101 -88 -178 -139 -232 -155 -102 -30 -106 22 -11
160 87 128 142 193 188 221 307 191 547 417 547 515 0 51 -42 71 -99 48z m69
-47 c0 -51 -127 -192 -280 -312 -107 -85 -225 -166 -215 -149 16 26 188 234
269 323 45 49 101 104 126 122 50 38 100 45 100 16z m-2302 -583 c9 -77 -232
-319 -318 -319 -34 0 -34 25 2 92 37 71 173 214 228 241 49 24 84 19 88 -14z
m1261 12 c15 -28 -26 -103 -102 -186 -99 -108 -196 -168 -232 -141 -17 12 -16
15 4 61 12 26 46 78 77 116 110 135 225 203 253 150z M7600 910 c-11 -11 -20
-25 -20 -31 0 -24 22 -49 44 -49 25 0 66 38 66 61 0 40 -57 52 -90 19z"/>
</g>
</svg>
