<?xml version="1.0" standalone="no"?>
<!DOCTYPE svg PUBLIC "-//W3C//DTD SVG 20010904//EN"
 "http://www.w3.org/TR/2001/REC-SVG-20010904/DTD/svg10.dtd">
<svg version="1.0" xmlns="http://www.w3.org/2000/svg"
 width="980.000000pt" height="190.000000pt" viewBox="0 0 980.000000 190.000000"
 preserveAspectRatio="xMidYMid meet">
<metadata>
Created by potrace 1.16, written by Peter Selinger 2001-2019
</metadata>
<g transform="translate(0.000000,190.000000) scale(0.100000,-0.100000)"
fill="#f1ead8" stroke="none">
<path d="M2646 1625 c-32 -13 -83 -40 -112 -59 l-54 -36 -49 25 c-27 13 -82
34 -123 46 -53 15 -112 23 -214 26 -106 4 -166 1 -240 -11 -54 -10 -138 -30
-186 -46 -48 -16 -127 -49 -175 -74 -48 -24 -119 -66 -158 -94 -38 -27 -96
-75 -127 -106 -32 -32 -78 -88 -102 -124 -24 -37 -54 -95 -65 -129 -12 -34
-21 -86 -21 -115 0 -29 9 -71 19 -93 10 -22 34 -54 54 -72 19 -17 53 -37 74
-44 23 -9 81 -14 148 -14 88 0 124 5 180 23 39 13 98 37 131 54 34 16 97 58
141 92 43 35 101 92 127 127 27 35 60 89 74 119 14 30 28 80 30 110 3 46 0 60
-19 84 -12 16 -37 35 -55 42 -19 8 -54 14 -78 14 -25 0 -80 -11 -123 -25 -46
-14 -110 -46 -158 -77 -44 -28 -107 -80 -141 -113 -33 -34 -79 -88 -101 -121
-22 -32 -43 -65 -47 -71 -4 -7 -3 -13 2 -13 5 0 21 18 35 39 15 22 47 63 73
92 26 29 70 72 98 97 28 24 80 61 116 82 36 21 95 48 130 60 49 17 82 21 134
18 57 -3 72 -8 87 -27 11 -13 19 -37 19 -55 0 -17 -13 -59 -29 -93 -18 -38
-57 -90 -103 -138 -40 -43 -99 -98 -131 -122 -31 -24 -94 -64 -140 -88 -45
-24 -109 -51 -142 -61 -36 -10 -93 -17 -141 -17 -64 0 -92 5 -128 22 -25 13
-56 37 -68 54 -16 23 -24 50 -26 97 -3 47 2 81 16 122 11 31 36 81 56 111 20
30 68 86 106 124 39 39 104 94 145 123 42 28 118 72 170 96 53 25 148 59 213
75 83 21 152 32 237 36 71 3 150 1 193 -6 40 -6 100 -20 135 -32 34 -11 73
-28 86 -38 l23 -18 -33 -23 c-19 -13 -76 -65 -127 -114 -52 -50 -122 -125
-156 -166 -35 -41 -125 -158 -201 -260 -76 -102 -169 -221 -206 -266 -37 -44
-98 -111 -135 -149 -38 -37 -96 -88 -129 -112 -33 -25 -85 -58 -115 -73 -30
-15 -79 -35 -109 -44 -30 -9 -90 -16 -133 -16 -48 0 -93 6 -116 15 -20 9 -47
26 -59 37 -13 12 -23 27 -23 33 0 7 10 10 24 8 13 -3 33 0 45 6 11 7 23 22 27
35 3 13 1 33 -5 44 -6 11 -22 23 -36 26 -15 4 -37 0 -55 -9 -19 -10 -33 -27
-38 -48 -5 -17 -5 -45 -1 -61 5 -16 16 -38 26 -48 10 -11 36 -30 58 -41 30
-16 64 -22 137 -25 69 -3 119 1 174 13 43 9 105 29 138 43 34 14 90 43 126 65
36 21 88 57 117 79 29 22 84 73 123 114 39 41 101 116 139 167 37 50 116 164
176 252 60 88 139 201 176 251 38 50 102 127 144 170 l76 79 28 -33 c15 -18
33 -50 40 -71 6 -21 11 -61 11 -89 0 -27 -9 -79 -20 -114 -11 -37 -41 -95 -69
-135 -27 -38 -71 -89 -98 -112 -26 -24 -75 -57 -108 -74 -52 -27 -71 -31 -140
-32 -44 0 -87 2 -95 5 -9 3 -15 -1 -15 -10 0 -10 19 -20 54 -29 44 -12 68 -13
133 -3 52 7 105 24 151 46 40 19 92 52 116 72 24 21 63 64 87 96 23 32 52 88
64 124 18 53 21 82 18 143 -3 52 -12 90 -27 119 -12 24 -38 61 -58 83 -30 33
-34 42 -22 50 8 5 43 27 79 49 36 21 77 42 93 45 15 4 27 13 27 21 0 8 -3 14
-7 14 -5 0 -34 -11 -67 -25z M5625 1479 c-27 -6 -84 -21 -126 -35 -42 -14
-103 -41 -135 -60 -33 -19 -78 -53 -101 -76 -22 -22 -53 -62 -67 -89 -15 -26
-29 -70 -33 -96 -3 -26 0 -67 6 -91 7 -24 28 -60 47 -81 19 -21 56 -48 82 -59
26 -11 65 -23 87 -27 22 -3 50 -8 62 -11 20 -4 18 -9 -32 -83 -29 -43 -63
-105 -76 -138 -17 -44 -23 -79 -23 -143 -1 -68 3 -93 20 -125 13 -25 39 -51
69 -70 46 -28 54 -30 149 -29 89 0 110 4 181 32 44 17 106 49 138 70 32 21 85
65 118 97 32 32 70 81 84 109 15 30 25 67 25 93 0 34 -6 49 -26 68 -14 13 -42
26 -62 30 -21 3 -60 1 -87 -5 -27 -6 -71 -22 -97 -35 -27 -14 -68 -38 -92 -54
-24 -17 -74 -63 -112 -104 -38 -41 -80 -93 -93 -117 -13 -23 -19 -41 -14 -39
6 2 32 33 59 69 27 35 80 91 119 123 38 32 101 74 140 93 43 21 93 37 125 41
47 4 59 2 83 -17 19 -15 27 -30 27 -53 0 -18 -13 -55 -29 -83 -16 -28 -61 -80
-100 -116 -41 -38 -104 -83 -150 -107 -43 -22 -104 -47 -137 -56 -32 -8 -81
-15 -109 -15 -27 0 -69 9 -92 19 -41 19 -64 49 -76 102 -4 14 0 52 8 83 8 31
26 78 39 104 26 50 125 188 170 235 18 18 37 27 57 27 59 0 235 41 368 86 73
25 179 68 235 96 55 28 133 73 173 100 39 27 95 74 123 104 28 29 57 69 65 89
8 19 15 44 15 55 0 12 -13 35 -29 51 -26 26 -36 29 -94 29 -35 0 -99 -9 -143
-20 -43 -11 -137 -49 -209 -84 -71 -34 -184 -99 -250 -143 -66 -45 -158 -113
-205 -153 -47 -40 -113 -100 -147 -133 l-61 -60 -49 7 c-26 4 -70 14 -97 23
-27 8 -66 31 -87 50 -24 22 -43 50 -50 75 -5 22 -7 54 -4 71 4 18 19 54 33 81
15 26 51 70 81 97 30 26 84 64 120 83 36 18 104 46 151 62 75 24 103 28 240
31 85 2 157 6 160 11 3 4 -15 10 -40 14 -25 3 -97 6 -160 6 -63 0 -137 -4
-165 -9z m949 -55 c9 -8 16 -27 16 -42 0 -14 -12 -43 -26 -64 -15 -21 -50 -57
-78 -81 -28 -25 -82 -65 -121 -89 -38 -25 -106 -63 -150 -85 -44 -22 -123 -57
-176 -76 -53 -20 -139 -47 -190 -61 -52 -13 -119 -27 -149 -30 l-55 -7 90 87
c50 47 131 118 180 158 50 40 128 99 175 130 47 32 126 77 175 102 50 25 113
51 140 59 28 7 73 14 102 14 35 1 57 -4 67 -15z M9175 1271 c-22 -10 -67 -40
-100 -66 -33 -26 -93 -80 -133 -119 -76 -73 -241 -261 -394 -449 -50 -60 -128
-140 -180 -184 -51 -42 -113 -89 -137 -105 -25 -15 -55 -28 -68 -28 -13 0 -23
5 -23 11 0 6 5 20 12 32 17 33 92 131 180 234 43 51 78 95 78 98 0 3 -20 5
-44 5 -39 0 -48 -4 -75 -37 -26 -32 -31 -34 -31 -17 0 12 -8 28 -18 37 -11 10
-35 17 -59 17 -26 0 -66 -13 -114 -37 -54 -27 -100 -62 -169 -128 -52 -51
-119 -111 -149 -134 -30 -23 -72 -51 -92 -62 -21 -10 -50 -19 -64 -19 -16 0
-25 6 -25 15 0 9 7 29 15 46 9 16 72 100 141 187 l126 157 71 5 c44 3 72 10
75 18 3 8 -12 12 -52 12 -31 0 -56 3 -56 6 0 3 34 45 75 94 41 48 72 89 70 91
-2 3 -24 3 -49 1 -44 -4 -48 -7 -121 -97 l-75 -94 -57 -3 c-32 -2 -58 -8 -60
-15 -3 -8 11 -13 40 -15 l45 -3 -76 -92 c-43 -50 -106 -117 -142 -148 -36 -32
-93 -77 -126 -101 -34 -24 -77 -50 -96 -58 -21 -9 -39 -11 -48 -6 -12 8 -12
14 2 42 9 18 70 99 137 181 67 81 121 149 121 152 0 3 -21 2 -47 -1 -41 -4
-53 -11 -82 -47 -19 -23 -66 -74 -105 -112 -72 -72 -197 -170 -251 -198 -16
-8 -41 -17 -55 -18 -16 -3 -26 1 -28 11 -1 9 38 63 88 120 49 58 97 119 105
137 8 17 15 41 15 53 0 12 -5 30 -10 41 -8 14 -21 19 -49 19 -22 0 -63 -12
-98 -30 -33 -17 -81 -48 -106 -70 -25 -22 -48 -40 -51 -40 -3 0 30 44 72 98
43 53 109 137 147 186 l69 89 -44 -7 c-24 -4 -45 -8 -45 -9 0 -1 -34 -42 -75
-92 -40 -49 -119 -137 -174 -194 -56 -57 -146 -140 -201 -186 -55 -45 -116
-92 -135 -104 -19 -11 -45 -21 -57 -21 -14 0 -23 6 -23 15 0 9 8 28 17 43 20
32 161 210 210 265 18 20 33 42 33 47 0 6 -18 10 -39 10 -32 0 -44 -6 -70 -35
-24 -28 -31 -32 -31 -17 0 10 -9 27 -20 37 -15 14 -31 17 -69 13 -27 -3 -73
-17 -103 -31 -29 -15 -79 -48 -110 -73 -32 -26 -74 -71 -94 -99 -19 -29 -40
-71 -45 -94 -7 -31 -5 -50 5 -76 10 -23 24 -37 41 -41 15 -4 44 -1 65 5 21 6
61 29 89 51 28 22 53 40 56 40 3 0 5 -15 5 -33 0 -20 8 -41 18 -50 10 -10 29
-17 41 -17 12 0 41 10 64 21 23 12 69 43 102 68 33 25 91 75 130 111 l69 65
-75 -90 c-196 -234 -369 -445 -369 -450 0 -3 20 -5 43 -5 l44 0 108 133 c60
72 147 176 194 231 46 54 120 128 163 165 43 36 106 83 140 104 60 36 101 46
112 28 3 -5 -7 -24 -22 -44 -15 -19 -60 -73 -100 -119 -41 -47 -77 -99 -84
-121 -8 -27 -8 -43 0 -62 6 -13 23 -27 37 -31 15 -4 44 0 69 10 24 9 64 30 89
46 24 17 66 49 92 72 l47 41 -21 -39 c-12 -21 -21 -53 -21 -70 0 -17 8 -38 18
-47 10 -10 31 -17 46 -17 16 0 51 11 79 25 51 26 106 66 166 119 34 30 34 30
18 4 -9 -15 -19 -44 -23 -66 -5 -32 -2 -44 15 -61 13 -13 34 -21 54 -21 18 0
55 11 83 25 27 13 78 47 112 75 l63 51 -7 -50 c-6 -44 -4 -52 19 -75 15 -14
35 -26 47 -26 11 0 37 7 57 15 21 9 60 33 88 54 l50 38 -3 -38 c-3 -31 0 -40
22 -54 18 -12 36 -15 60 -11 20 4 59 23 87 42 29 19 79 58 112 87 56 48 59 49
43 20 -9 -18 -16 -52 -16 -76 0 -30 6 -49 18 -60 10 -10 32 -17 49 -17 17 0
62 16 100 35 45 22 101 64 156 116 48 44 84 85 81 90 -3 5 -35 -17 -72 -49
-37 -32 -85 -72 -107 -89 -22 -17 -54 -38 -72 -47 -18 -9 -46 -16 -63 -16 -25
0 -30 4 -30 23 0 13 18 51 39 84 22 34 70 100 108 148 58 75 85 99 185 166 64
43 161 115 216 158 54 44 133 116 174 160 72 76 118 148 118 183 0 9 -7 24
-16 32 -8 9 -25 16 -37 16 -12 0 -40 -9 -62 -19z m74 -25 c10 -11 8 -23 -9
-56 -12 -23 -60 -81 -108 -129 -48 -47 -136 -125 -197 -172 -60 -47 -132 -100
-160 -119 l-50 -34 40 50 c118 147 190 230 285 328 58 59 121 116 140 127 19
10 38 18 41 19 4 0 12 -6 18 -14z m-2785 -582 c9 -3 16 -16 16 -28 0 -12 -14
-44 -31 -72 -18 -27 -66 -83 -108 -125 -42 -42 -95 -86 -118 -98 -23 -11 -54
-21 -68 -21 -19 0 -25 5 -25 20 0 12 7 35 16 53 9 18 39 60 66 94 27 34 72 83
101 109 49 44 97 73 124 74 6 0 18 -3 27 -6z m1764 -21 c2 -12 -6 -39 -17 -61
-11 -22 -54 -75 -96 -120 -41 -44 -97 -94 -124 -111 -26 -17 -60 -31 -74 -31
-23 0 -27 4 -27 29 0 17 16 53 40 88 22 33 68 89 104 126 35 36 81 75 103 86
21 11 49 20 63 18 17 -1 26 -9 28 -24z M4706 1260 c-21 -11 -62 -37 -91 -59
-29 -22 -90 -77 -135 -122 -82 -82 -261 -287 -357 -409 -28 -36 -75 -88 -105
-116 -29 -28 -80 -73 -113 -101 -33 -28 -87 -69 -119 -92 -36 -24 -71 -41 -88
-41 -16 0 -28 5 -28 13 0 7 13 33 28 58 16 24 75 100 130 169 56 69 102 128
102 132 0 5 -18 8 -40 8 -32 0 -45 -6 -67 -30 l-27 -31 -13 25 c-8 14 -25 29
-39 32 -14 4 -43 4 -65 1 -22 -3 -65 -17 -95 -32 -29 -14 -91 -61 -136 -102
-46 -42 -119 -105 -163 -141 -44 -36 -102 -75 -129 -88 -27 -12 -55 -20 -62
-17 -8 3 -14 10 -14 17 0 6 39 58 87 116 47 58 92 120 100 139 8 19 11 45 8
62 -4 16 -15 34 -25 39 -10 6 -29 10 -42 10 -12 0 -46 -12 -75 -26 -29 -15
-77 -49 -107 -75 -30 -27 -57 -49 -60 -49 -4 0 0 13 9 30 8 16 15 42 15 58 0
16 -8 36 -18 45 -10 10 -26 17 -36 17 -42 0 -97 -38 -205 -143 -64 -62 -141
-133 -171 -159 -30 -25 -69 -53 -87 -62 -18 -9 -41 -16 -53 -16 -11 0 -20 6
-20 13 0 7 13 33 28 58 16 24 75 100 130 169 56 69 102 129 102 133 0 5 -17 7
-37 6 -26 -2 -48 -12 -71 -33 -22 -21 -32 -25 -32 -15 0 9 -9 24 -20 34 -15
14 -31 17 -69 13 -27 -3 -73 -17 -103 -31 -29 -15 -78 -46 -108 -70 -30 -24
-73 -69 -94 -101 -33 -46 -41 -67 -44 -115 -4 -51 -1 -62 18 -81 18 -18 30
-21 62 -17 35 5 78 29 163 92 20 14 21 13 17 -21 -3 -24 1 -41 13 -54 10 -11
30 -20 45 -20 14 0 50 12 79 26 35 18 107 78 212 179 87 84 175 160 195 170
24 11 39 14 46 7 6 -6 6 -18 -3 -33 -6 -13 -31 -49 -55 -79 -23 -30 -80 -100
-127 -155 l-85 -100 44 -3 45 -3 121 126 c67 70 148 147 180 171 32 25 79 54
104 65 30 14 50 17 56 11 6 -6 6 -17 -1 -30 -6 -12 -45 -60 -86 -109 -41 -48
-82 -102 -90 -120 -8 -17 -15 -43 -15 -57 0 -14 10 -36 21 -47 17 -17 29 -20
61 -16 21 3 64 20 94 39 31 18 81 56 112 83 33 29 52 42 47 30 -4 -11 -10 -39
-13 -62 -3 -35 0 -46 22 -67 15 -16 36 -26 54 -26 15 0 50 11 78 25 27 14 64
38 82 55 l32 31 0 -39 c0 -26 7 -45 20 -57 14 -13 29 -16 56 -12 20 4 61 21
90 39 30 18 90 63 134 100 44 38 80 67 80 65 0 -2 -7 -19 -16 -37 -9 -18 -19
-52 -22 -76 -4 -36 -1 -46 21 -68 19 -19 37 -26 64 -26 21 0 62 11 91 25 29
13 73 39 99 56 25 18 79 64 120 102 40 38 70 73 67 78 -3 6 -36 -17 -72 -49
-37 -32 -95 -80 -130 -105 -34 -25 -84 -53 -110 -61 -27 -9 -56 -14 -65 -11
-8 4 -18 13 -21 21 -3 8 1 31 9 50 8 20 45 79 82 132 37 53 87 116 113 141 25
26 88 73 140 106 52 33 138 94 190 136 52 42 121 103 152 136 31 33 70 82 87
108 17 27 31 61 31 76 0 15 -7 35 -16 43 -8 9 -25 16 -37 16 -12 -1 -39 -9
-61 -20z m84 -38 c0 -10 -14 -40 -31 -68 -17 -27 -64 -80 -103 -118 -74 -71
-181 -157 -301 -242 -38 -27 -65 -42 -60 -34 15 26 186 232 264 319 42 46 98
101 124 123 31 24 59 38 78 38 21 0 29 -5 29 -18z m-2302 -583 c2 -16 -11 -46
-38 -86 -22 -33 -72 -90 -110 -127 -38 -36 -88 -75 -111 -86 -22 -12 -50 -20
-62 -18 -17 2 -22 9 -20 32 1 16 19 54 39 85 20 31 69 88 108 126 39 39 87 78
106 88 19 9 46 16 60 15 19 -2 26 -10 28 -29z m1263 15 c11 -14 9 -25 -16 -72
-17 -32 -65 -93 -110 -139 -57 -58 -98 -90 -139 -109 -52 -23 -60 -25 -73 -11
-13 13 -13 20 6 62 11 26 43 75 71 110 28 35 72 81 98 103 26 22 61 46 77 55
17 9 40 16 51 17 12 0 28 -7 35 -16z M7612 923 c-7 -3 -18 -16 -23 -30 -6 -16
-5 -31 2 -44 7 -14 18 -19 36 -17 14 2 35 16 47 31 16 21 18 32 10 45 -6 9
-22 18 -35 19 -13 1 -30 -1 -37 -4z"/>
</g>
</svg>
