<?xml version="1.0" standalone="no"?>
<!DOCTYPE svg PUBLIC "-//W3C//DTD SVG 20010904//EN"
 "http://www.w3.org/TR/2001/REC-SVG-20010904/DTD/svg10.dtd">
<svg version="1.0" xmlns="http://www.w3.org/2000/svg"
 width="980.000000pt" height="190.000000pt" viewBox="0 0 980.000000 190.000000"
 preserveAspectRatio="xMidYMid meet">
<metadata>
Created by potrace 1.16, written by Peter Selinger 2001-2019
</metadata>
<g transform="translate(0.000000,190.000000) scale(0.100000,-0.100000)"
fill="#f1ead8" stroke="none">
<path d="M2646 1625 c-32 -13 -83 -40 -112 -59 l-54 -36 -49 25 c-93 47 -186
67 -337 72 -106 4 -166 1 -240 -11 -54 -10 -138 -30 -186 -46 -110 -37 -242
-104 -333 -168 -140 -98 -253 -237 -294 -359 -12 -34 -21 -86 -21 -115 0 -29
9 -71 19 -93 22 -49 76 -98 128 -116 23 -9 81 -14 148 -14 88 0 124 5 180 23
107 36 185 77 272 146 86 69 162 161 201 246 14 30 28 80 30 110 3 46 0 60
-19 84 -12 16 -37 35 -55 42 -49 21 -113 17 -201 -11 -141 -44 -308 -174 -400
-311 -53 -79 -56 -84 -45 -84 5 0 21 18 35 39 37 55 110 137 171 189 68 58
167 115 246 142 49 17 82 21 134 18 57 -3 72 -8 87 -27 11 -13 19 -37 19 -55
0 -55 -54 -149 -132 -231 -40 -43 -99 -98 -131 -122 -74 -57 -206 -127 -282
-149 -36 -10 -93 -17 -141 -17 -64 0 -92 5 -128 22 -65 32 -90 71 -94 151 -3
47 2 81 16 122 11 31 36 81 56 111 50 75 162 185 251 247 177 121 401 196 620
207 71 3 150 1 193 -6 87 -14 188 -46 221 -70 l23 -18 -33 -23 c-51 -36 -213
-196 -283 -280 -35 -41 -125 -158 -201 -260 -166 -222 -250 -323 -341 -415
-121 -119 -236 -194 -353 -229 -70 -21 -200 -21 -249 -1 -67 28 -112 88 -58
78 32 -6 64 12 72 41 13 55 -41 89 -96 61 -50 -26 -57 -108 -13 -157 10 -11
36 -30 58 -41 30 -16 64 -22 137 -25 153 -7 286 30 438 121 94 56 160 109 240
193 81 86 163 194 315 419 151 222 232 329 320 421 l76 79 28 -33 c80 -94 64
-263 -38 -409 -27 -38 -71 -89 -98 -112 -26 -24 -75 -57 -108 -74 -52 -27 -71
-31 -140 -32 -44 0 -87 2 -95 5 -9 3 -15 -1 -15 -10 0 -10 19 -20 54 -29 44
-12 68 -13 133 -3 93 13 200 61 267 118 65 56 126 145 151 220 18 53 21 82 18
143 -5 86 -27 138 -85 202 -30 33 -34 42 -22 50 59 39 149 89 172 94 15 4 27
13 27 21 0 8 -3 14 -7 14 -5 0 -34 -11 -67 -25z M5625 1479 c-83 -16 -199 -58
-261 -95 -76 -45 -135 -103 -168 -165 -15 -26 -29 -70 -33 -96 -3 -26 0 -67 6
-91 23 -82 110 -150 216 -167 92 -14 89 -6 30 -94 -29 -43 -63 -105 -76 -138
-17 -44 -23 -79 -23 -143 -1 -68 3 -93 20 -125 13 -25 39 -51 69 -70 46 -28
54 -30 149 -29 89 0 110 4 181 32 44 17 106 49 138 70 81 53 172 146 202 206
15 30 25 67 25 93 0 34 -6 49 -26 68 -63 59 -195 34 -338 -64 -56 -39 -174
-166 -205 -221 -13 -23 -19 -41 -14 -39 6 2 32 33 59 69 99 130 270 245 384
257 47 4 59 2 83 -17 19 -15 27 -30 27 -53 0 -81 -138 -233 -279 -306 -136
-71 -256 -89 -338 -52 -41 19 -64 49 -76 102 -8 33 15 124 47 187 26 50 125
188 170 235 18 18 37 27 57 27 59 0 235 41 368 86 229 77 425 188 531 300 51
54 80 106 80 144 0 12 -13 35 -29 51 -26 26 -36 29 -94 29 -35 0 -99 -9 -143
-20 -43 -11 -137 -49 -209 -84 -209 -101 -420 -252 -602 -429 l-61 -60 -49 7
c-80 12 -144 37 -184 73 -43 39 -64 96 -54 146 12 56 58 128 114 178 66 59
158 108 271 145 75 24 103 28 240 31 85 2 157 6 160 11 3 4 -15 10 -40 14 -64
9 -266 7 -325 -3z m949 -55 c53 -52 -29 -160 -209 -276 -93 -61 -209 -118
-326 -161 -112 -42 -260 -82 -339 -91 l-55 -7 90 87 c109 104 241 211 355 288
101 68 245 141 315 161 71 19 150 19 169 -1z M9175 1271 c-118 -53 -318 -256
-627 -634 -85 -103 -223 -229 -317 -289 -45 -28 -91 -37 -91 -17 0 26 64 115
192 266 43 51 78 95 78 98 0 3 -20 5 -44 5 -39 0 -48 -4 -75 -37 -26 -32 -31
-34 -31 -17 0 32 -32 54 -77 54 -26 0 -66 -13 -114 -37 -54 -27 -100 -62 -169
-128 -153 -148 -249 -215 -305 -215 -29 0 -32 17 -10 61 9 16 72 100 141 187
l126 157 71 5 c44 3 72 10 75 18 3 8 -12 12 -52 12 -31 0 -56 3 -56 6 0 3 34
45 75 94 41 48 72 89 70 91 -2 3 -24 3 -49 1 -44 -4 -48 -7 -121 -97 l-75 -94
-57 -3 c-70 -4 -84 -25 -20 -30 l45 -3 -76 -92 c-81 -96 -166 -175 -268 -249
-75 -54 -125 -76 -144 -64 -12 8 -12 14 2 42 9 18 70 99 137 181 67 81 121
149 121 152 0 3 -21 2 -47 -1 -41 -4 -53 -11 -82 -47 -87 -107 -269 -265 -356
-310 -44 -22 -79 -25 -83 -7 -1 9 38 63 88 120 49 58 97 119 105 137 18 36 19
67 5 94 -25 45 -157 3 -253 -81 -25 -22 -48 -40 -51 -40 -3 0 30 44 72 98 43
53 109 137 147 186 l69 89 -44 -7 c-24 -4 -45 -8 -45 -9 0 -1 -34 -42 -75 -92
-105 -129 -259 -284 -375 -380 -116 -95 -161 -125 -192 -125 -28 0 -30 20 -6
58 20 32 161 210 210 265 18 20 33 42 33 47 0 6 -18 10 -39 10 -32 0 -44 -6
-70 -35 -24 -28 -31 -32 -31 -17 0 10 -9 27 -20 37 -15 14 -31 17 -69 13 -27
-3 -73 -17 -103 -31 -117 -58 -229 -178 -249 -266 -12 -55 9 -107 46 -117 39
-10 97 11 154 56 28 22 53 40 56 40 3 0 5 -15 5 -33 0 -38 25 -67 59 -67 49 0
164 78 296 200 l69 65 -75 -90 c-196 -234 -369 -445 -369 -450 0 -3 20 -5 43
-5 l44 0 108 133 c199 241 278 329 357 396 128 108 233 163 252 132 7 -10 -23
-49 -122 -163 -79 -91 -103 -142 -84 -183 6 -13 23 -27 37 -31 48 -12 150 40
250 128 l47 41 -21 -39 c-26 -48 -27 -95 -3 -117 10 -10 31 -17 46 -17 50 0
150 59 245 144 34 30 34 30 18 4 -9 -15 -19 -44 -23 -66 -5 -32 -2 -44 15 -61
13 -13 34 -21 54 -21 44 0 118 38 195 100 l63 51 -7 -50 c-6 -44 -4 -52 19
-75 15 -14 35 -26 47 -26 32 0 89 27 145 69 l50 38 -3 -38 c-3 -31 0 -40 22
-54 18 -12 36 -15 60 -11 41 8 115 56 199 129 56 48 59 49 43 20 -9 -18 -16
-52 -16 -76 0 -52 22 -77 67 -77 54 0 164 65 256 151 48 44 84 85 81 90 -3 5
-35 -17 -72 -49 -133 -116 -190 -152 -242 -152 -25 0 -30 4 -30 23 0 29 54
114 147 232 58 75 85 99 185 166 158 106 299 221 390 318 72 76 118 148 118
183 0 23 -28 48 -53 48 -12 0 -40 -9 -62 -19z m74 -25 c20 -24 -21 -89 -117
-185 -82 -82 -247 -216 -357 -291 l-50 -34 40 50 c180 224 366 423 425 455 19
10 38 18 41 19 4 0 12 -6 18 -14z m-2785 -582 c44 -17 -7 -109 -123 -225 -78
-79 -141 -119 -186 -119 -19 0 -25 5 -25 20 0 30 26 76 82 147 81 102 178 181
225 183 6 0 18 -3 27 -6z m1764 -21 c5 -35 -32 -95 -113 -181 -83 -89 -158
-142 -198 -142 -23 0 -27 4 -27 29 0 17 16 53 40 88 51 77 157 186 207 212 48
26 87 24 91 -6z M4706 1260 c-59 -30 -136 -91 -226 -181 -82 -82 -261 -287
-357 -409 -115 -145 -363 -350 -425 -350 -16 0 -28 5 -28 13 0 22 51 95 158
227 56 69 102 128 102 132 0 5 -18 8 -40 8 -32 0 -45 -6 -67 -30 l-27 -31 -13
25 c-8 14 -25 29 -39 32 -39 10 -100 -2 -160 -31 -29 -14 -91 -61 -136 -102
-127 -117 -238 -204 -292 -229 -48 -22 -76 -22 -76 0 0 6 39 58 87 116 47 58
92 120 100 139 17 40 9 87 -17 101 -10 6 -29 10 -42 10 -36 0 -122 -48 -182
-101 -30 -27 -57 -49 -60 -49 -4 0 0 13 9 30 20 39 19 83 -3 103 -44 40 -101
10 -241 -126 -184 -179 -260 -237 -311 -237 -11 0 -20 6 -20 13 0 22 51 95
158 227 56 69 102 129 102 133 0 5 -17 7 -37 6 -26 -2 -48 -12 -71 -33 -22
-21 -32 -25 -32 -15 0 9 -9 24 -20 34 -15 14 -31 17 -69 13 -98 -10 -236 -101
-305 -202 -33 -46 -41 -67 -44 -115 -4 -51 -1 -62 18 -81 18 -18 30 -21 62
-17 35 5 78 29 163 92 20 14 21 13 17 -21 -5 -43 19 -74 58 -74 57 0 131 52
291 205 87 84 175 160 195 170 44 21 62 9 43 -26 -17 -33 -81 -115 -182 -234
l-85 -100 44 -3 45 -3 121 126 c133 138 213 205 284 236 52 23 74 15 55 -19
-6 -12 -45 -60 -86 -109 -41 -48 -82 -102 -90 -120 -21 -43 -19 -79 6 -104 17
-17 29 -20 61 -16 48 6 131 56 206 122 33 29 52 42 47 30 -4 -11 -10 -39 -13
-62 -3 -35 0 -46 22 -67 15 -16 36 -26 54 -26 36 0 118 41 160 80 l32 31 0
-39 c0 -26 7 -45 20 -57 42 -38 135 4 280 127 44 38 80 67 80 65 0 -2 -7 -19
-16 -37 -9 -18 -19 -52 -22 -76 -4 -36 -1 -46 21 -68 19 -19 37 -26 64 -26 43
0 120 33 190 81 65 45 194 169 187 180 -3 6 -36 -17 -72 -49 -102 -90 -187
-149 -240 -166 -76 -26 -104 -4 -77 60 22 53 142 221 195 273 25 26 88 73 140
106 119 75 268 194 342 272 71 75 118 149 118 184 0 33 -24 59 -53 59 -12 -1
-39 -9 -61 -20z m84 -38 c0 -53 -128 -194 -285 -316 -118 -92 -220 -163 -210
-146 15 26 186 232 264 319 97 108 164 161 202 161 21 0 29 -5 29 -18z m-2302
-583 c4 -36 -63 -132 -148 -213 -76 -71 -139 -109 -173 -104 -17 2 -22 9 -20
32 1 16 19 54 39 85 46 69 167 190 214 214 19 9 46 16 60 15 19 -2 26 -10 28
-29z m1263 15 c11 -14 9 -25 -16 -72 -17 -32 -65 -93 -110 -139 -57 -58 -98
-90 -139 -109 -52 -23 -60 -25 -73 -11 -13 13 -13 20 6 62 26 59 108 162 169
213 84 70 136 88 163 56z M7612 923 c-21 -8 -33 -52 -21 -74 15 -28 57 -21 83
14 16 21 18 32 10 45 -11 17 -48 25 -72 15z"/>
</g>
</svg>
