<?xml version="1.0" standalone="no"?>
<!DOCTYPE svg PUBLIC "-//W3C//DTD SVG 20010904//EN"
 "http://www.w3.org/TR/2001/REC-SVG-20010904/DTD/svg10.dtd">
<svg version="1.0" xmlns="http://www.w3.org/2000/svg"
 width="980.000000pt" height="190.000000pt" viewBox="0 0 980.000000 190.000000"
 preserveAspectRatio="xMidYMid meet">
<metadata>
Created by potrace 1.16, written by Peter Selinger 2001-2019
</metadata>
<g transform="translate(0.000000,190.000000) scale(0.100000,-0.100000)"
fill="#f1ead8" stroke="none">
<path d="M2654 1629 c-28 -10 -79 -36 -114 -58 l-64 -38 -60 28 c-34 16 -90
36 -126 46 -52 14 -102 18 -250 17 -167 0 -194 -3 -283 -27 -183 -49 -356
-136 -487 -243 -64 -53 -142 -141 -184 -207 -10 -16 -28 -58 -42 -93 -55 -148
-12 -278 111 -330 54 -22 177 -29 261 -15 38 7 102 25 142 41 188 76 352 228
418 388 13 31 24 77 24 100 0 24 -8 57 -17 73 -9 16 -33 36 -52 45 -25 12 -51
15 -100 11 -36 -2 -93 -14 -125 -26 -154 -54 -319 -196 -415 -353 -35 -58 -9
-45 34 17 20 30 77 93 125 139 72 68 108 93 195 136 91 46 116 54 179 58 54 3
80 0 103 -12 20 -10 34 -26 38 -45 14 -66 -29 -153 -134 -264 -44 -46 -114
-108 -156 -136 -87 -61 -197 -113 -273 -131 -69 -16 -159 -16 -216 0 -58 16
-113 68 -122 116 -12 67 1 140 41 220 70 144 260 313 446 398 159 73 351 116
514 116 44 -1 114 -7 155 -14 78 -14 174 -47 203 -69 14 -11 7 -19 -56 -72
-116 -96 -248 -244 -405 -454 -80 -108 -182 -241 -228 -296 -93 -114 -237
-257 -304 -302 -114 -77 -222 -113 -339 -113 -77 0 -131 17 -168 52 -32 30
-29 45 6 40 20 -3 35 2 50 17 12 12 21 30 21 41 0 24 -34 60 -55 60 -34 0 -74
-30 -85 -64 -9 -27 -8 -41 3 -69 18 -42 68 -81 122 -96 22 -6 80 -11 128 -11
99 0 208 24 303 66 92 41 216 126 303 210 45 42 114 120 155 174 41 53 138
190 216 305 148 219 227 321 323 418 49 51 59 57 73 46 30 -25 57 -94 62 -159
3 -52 -1 -80 -21 -137 -29 -83 -96 -183 -163 -242 -67 -59 -164 -104 -235
-109 -32 -2 -72 0 -88 6 -21 7 -33 8 -37 1 -10 -17 9 -29 69 -41 44 -9 73 -9
129 0 43 7 104 27 148 49 99 48 194 142 241 238 32 65 34 76 34 170 0 85 -3
106 -23 143 -13 24 -39 60 -58 82 l-35 38 33 26 c18 13 68 41 111 61 42 21 74
41 71 46 -3 5 -8 9 -12 8 -4 0 -30 -9 -58 -20z M5627 1480 c-71 -12 -175 -48
-241 -83 -78 -42 -155 -113 -190 -176 -33 -61 -44 -142 -26 -195 16 -49 63
-102 113 -127 32 -17 148 -48 180 -49 4 0 -8 -21 -28 -47 -20 -26 -55 -86 -78
-132 -41 -82 -42 -88 -42 -181 0 -88 2 -100 27 -137 17 -26 45 -50 79 -67 41
-20 68 -26 119 -26 36 0 93 7 125 15 88 23 191 75 265 134 111 89 170 178 170
256 0 35 -6 52 -24 70 -13 13 -40 27 -61 31 -50 9 -156 -18 -225 -59 -67 -39
-227 -196 -258 -254 -13 -24 -20 -43 -15 -43 5 0 29 28 53 62 57 77 175 180
254 218 34 17 86 35 116 42 45 9 61 9 85 -3 16 -8 34 -26 39 -41 7 -19 5 -39
-9 -75 -13 -34 -40 -70 -94 -123 -121 -119 -255 -187 -385 -197 -59 -5 -81 -2
-118 15 -62 27 -82 65 -76 146 5 77 48 168 128 274 96 126 99 128 174 135 84
8 285 60 397 102 110 42 256 116 339 170 36 24 93 72 127 107 71 74 94 128 74
176 -7 16 -24 34 -37 41 -39 17 -142 13 -224 -9 -90 -25 -283 -116 -400 -190
-119 -74 -247 -174 -368 -286 l-103 -96 -63 11 c-82 14 -126 33 -170 72 -83
72 -65 191 44 300 27 27 70 62 96 79 65 41 192 89 283 106 46 9 122 14 191 13
116 -2 159 10 85 23 -53 9 -267 8 -328 -2z m945 -57 c10 -9 18 -27 18 -40 0
-37 -52 -105 -122 -161 -131 -103 -303 -193 -490 -256 -105 -35 -301 -80 -321
-73 -12 4 147 151 270 249 102 83 243 177 325 219 140 71 280 98 320 62z
M9183 1275 c-121 -52 -336 -266 -610 -607 -101 -125 -218 -235 -330 -311 -56
-37 -103 -48 -103 -24 0 19 83 134 184 255 47 56 86 104 86 107 0 3 -20 5 -44
5 -39 0 -48 -4 -75 -37 -26 -32 -31 -34 -31 -17 0 12 -9 29 -20 39 -15 14 -31
17 -69 13 -79 -8 -155 -53 -266 -159 -160 -153 -253 -219 -310 -219 -17 0 -25
5 -25 18 0 27 36 80 165 241 l120 149 69 4 c42 2 71 8 73 15 3 8 -14 13 -53
15 l-58 3 78 93 c43 52 76 95 74 96 -1 1 -24 1 -50 -2 -46 -4 -49 -6 -123 -97
l-76 -94 -56 -3 c-70 -4 -84 -25 -19 -30 l44 -3 -77 -91 c-42 -50 -108 -119
-147 -153 -98 -88 -209 -161 -245 -161 -18 0 -29 5 -29 14 0 20 41 78 161 223
60 72 109 134 109 137 0 3 -20 6 -44 6 -42 0 -45 -2 -119 -89 -107 -126 -311
-285 -377 -293 -16 -2 -26 2 -28 12 -1 9 37 62 87 118 49 56 96 117 105 136
19 39 20 69 6 97 -8 14 -21 19 -51 19 -48 0 -132 -41 -203 -100 -27 -22 -51
-40 -54 -40 -3 0 6 12 20 28 14 15 80 97 147 182 107 138 118 155 98 158 -13
2 -32 -1 -43 -5 -11 -4 -66 -62 -121 -128 -144 -172 -341 -358 -477 -449 -46
-31 -86 -35 -86 -8 0 20 97 151 198 269 39 44 68 84 65 87 -4 3 -23 6 -44 6
-30 0 -43 -7 -68 -35 -24 -28 -31 -32 -31 -17 0 10 -9 27 -20 37 -15 14 -31
17 -69 13 -27 -3 -73 -17 -103 -31 -80 -39 -178 -126 -217 -191 -27 -44 -35
-70 -35 -108 -1 -41 3 -53 23 -69 13 -10 35 -19 50 -19 35 1 97 30 146 70 l40
32 6 -42 c3 -23 12 -46 20 -51 8 -6 32 -8 53 -5 50 6 147 72 262 179 l88 82
-83 -100 c-46 -55 -102 -122 -126 -150 -119 -141 -235 -284 -235 -290 0 -3 20
-5 45 -3 l45 3 188 225 c194 233 298 335 414 403 70 41 108 48 108 18 0 -10
-34 -56 -76 -102 -42 -46 -89 -104 -105 -128 -16 -25 -29 -58 -29 -73 0 -35
32 -68 66 -68 39 0 127 47 199 107 36 29 65 52 65 49 0 -2 -7 -17 -15 -32 -21
-41 -19 -87 5 -109 15 -13 30 -16 60 -12 48 6 130 53 200 115 28 24 50 41 50
39 0 -3 -7 -18 -15 -33 -21 -41 -19 -80 6 -105 17 -17 30 -20 65 -16 49 5 133
52 200 110 l43 38 -5 -48 c-5 -40 -2 -53 16 -75 37 -48 91 -36 195 42 l51 37
-4 -34 c-3 -23 1 -40 13 -53 38 -42 110 -16 235 85 47 39 80 60 76 49 -16 -37
-24 -87 -19 -103 25 -70 96 -67 213 7 64 40 202 171 194 183 -3 5 -39 -21 -80
-57 -141 -123 -243 -173 -261 -128 -3 9 1 31 10 48 8 18 57 88 107 155 85 113
99 127 198 193 158 106 257 183 355 277 95 91 167 189 167 226 0 30 -25 55
-53 55 -12 -1 -37 -7 -54 -15z m66 -28 c8 -10 6 -23 -7 -49 -10 -19 -36 -56
-56 -82 -61 -73 -272 -250 -426 -356 l-35 -24 40 49 c168 211 368 425 425 456
19 10 38 18 41 19 4 0 12 -6 18 -13z m-2776 -598 c16 -25 -23 -93 -98 -176
-76 -84 -174 -153 -216 -153 -35 0 -37 17 -10 75 24 50 115 161 173 208 81 67
129 81 151 46z m1755 -6 c5 -35 -32 -95 -113 -181 -83 -89 -158 -142 -198
-142 -23 0 -27 4 -27 28 0 15 18 54 39 87 48 74 161 189 210 215 47 25 85 22
89 -7z M4692 1253 c-123 -66 -290 -238 -588 -605 -64 -77 -217 -216 -319 -287
-58 -40 -115 -55 -115 -28 0 6 10 28 21 47 26 43 199 258 228 284 11 10 18 23
15 27 -3 5 -25 9 -49 9 -37 0 -47 -4 -66 -31 l-22 -31 -14 26 c-7 14 -25 29
-39 32 -39 10 -100 -2 -158 -30 -29 -14 -87 -56 -130 -93 -42 -38 -109 -96
-149 -131 -40 -35 -94 -76 -122 -93 -48 -27 -105 -39 -105 -20 0 11 32 55 109
148 65 79 91 126 91 163 0 29 -35 60 -67 60 -40 -1 -100 -31 -162 -81 -29 -24
-63 -51 -74 -59 -19 -14 -19 -14 -3 17 9 18 16 45 16 61 0 34 -27 62 -59 62
-44 0 -101 -42 -230 -169 -137 -135 -237 -211 -277 -211 -42 0 -31 26 64 150
37 47 90 113 119 148 29 35 53 67 53 73 0 5 -17 9 -37 9 -28 0 -45 -8 -70 -32
-23 -22 -33 -27 -33 -17 0 9 -9 24 -20 34 -16 14 -30 17 -75 12 -73 -7 -173
-63 -246 -137 -31 -32 -66 -79 -79 -105 -14 -29 -23 -67 -23 -93 0 -36 5 -49
24 -65 37 -30 90 -17 174 41 l71 49 -4 -34 c-5 -41 20 -73 57 -73 31 0 94 29
140 63 18 14 94 85 169 157 131 127 197 176 219 162 21 -13 -12 -64 -139 -217
l-125 -150 43 -3 43 -3 143 145 c148 150 249 226 300 226 15 0 28 -4 28 -8 0
-12 -48 -76 -113 -150 -61 -70 -87 -116 -87 -156 0 -14 10 -36 21 -47 17 -17
29 -20 61 -16 48 6 131 55 204 120 47 43 53 45 44 22 -5 -14 -10 -42 -10 -61
0 -24 8 -43 25 -59 13 -14 36 -25 50 -25 36 0 89 24 146 66 l49 36 0 -35 c0
-41 25 -67 64 -67 44 0 134 53 228 135 l86 74 -19 -50 c-26 -67 -24 -105 6
-134 17 -18 35 -25 62 -25 75 0 219 88 331 203 60 61 56 87 -4 31 -68 -64
-168 -141 -218 -168 -52 -28 -121 -35 -129 -13 -9 23 18 81 71 158 95 137 141
189 203 227 142 87 281 194 380 292 59 58 116 124 128 147 23 47 27 93 9 111
-19 19 -62 14 -116 -15z m98 -31 c0 -50 -126 -191 -280 -312 -83 -66 -220
-162 -220 -155 0 6 188 232 269 324 85 96 168 161 204 161 19 0 27 -5 27 -18z
m-2302 -580 c2 -12 -8 -43 -23 -68 -38 -65 -141 -172 -209 -216 -61 -40 -103
-48 -112 -24 -10 27 59 136 135 215 42 43 94 88 116 100 51 27 89 24 93 -7z
m1260 -5 c5 -40 -39 -108 -128 -198 -49 -51 -95 -87 -129 -103 -30 -13 -60
-22 -67 -19 -44 17 21 139 132 248 73 73 126 106 164 102 19 -1 26 -8 28 -30z
M7600 910 c-11 -11 -20 -25 -20 -31 0 -24 22 -49 44 -49 25 0 66 38 66 61 0
40 -57 52 -90 19z"/>
</g>
</svg>
