<?xml version="1.0" standalone="no"?>
<!DOCTYPE svg PUBLIC "-//W3C//DTD SVG 20010904//EN"
 "http://www.w3.org/TR/2001/REC-SVG-20010904/DTD/svg10.dtd">
<svg version="1.0" xmlns="http://www.w3.org/2000/svg"
 width="980.000000pt" height="190.000000pt" viewBox="0 0 980.000000 190.000000"
 preserveAspectRatio="xMidYMid meet">
<metadata>
Created by potrace 1.16, written by Peter Selinger 2001-2019
</metadata>
<g transform="translate(0.000000,190.000000) scale(0.100000,-0.100000)"
fill="#f1ead8" stroke="none">
<path d="M2646 1625 c-32 -13 -83 -40 -112 -59 l-54 -36 -49 25 c-145 73 -390
96 -599 56 -244 -47 -461 -156 -619 -313 -196 -192 -249 -415 -127 -530 109
-102 371 -86 579 35 232 135 397 405 313 512 -48 61 -138 70 -264 26 -168 -58
-334 -202 -438 -378 -18 -31 14 -9 37 25 98 148 264 280 417 332 88 30 193 25
221 -9 78 -96 -125 -359 -384 -496 -108 -57 -184 -78 -282 -79 -146 0 -217 55
-223 174 -7 116 50 230 178 358 276 277 751 403 1093 291 34 -11 73 -28 86
-38 l23 -18 -33 -23 c-51 -36 -213 -196 -283 -280 -35 -41 -125 -158 -201
-260 -280 -373 -418 -516 -585 -600 -156 -79 -338 -82 -417 -8 -26 24 -31 50
-8 42 24 -10 64 5 76 27 27 52 -25 102 -83 78 -36 -15 -48 -37 -48 -87 0 -87
76 -134 226 -140 123 -5 227 18 351 77 229 110 359 243 638 656 149 221 231
329 320 421 l76 79 28 -33 c133 -155 -6 -479 -256 -599 -65 -31 -79 -34 -140
-31 -37 2 -75 6 -83 8 -9 3 -15 -1 -15 -10 0 -23 81 -42 156 -36 205 18 384
154 450 344 16 44 20 75 16 137 -4 90 -25 140 -84 206 -30 33 -34 42 -22 50
59 39 149 89 172 94 15 4 27 13 27 21 0 18 -5 18 -74 -11z M5615 1475 c-298
-55 -497 -253 -446 -442 27 -99 99 -146 278 -179 20 -4 18 -9 -32 -83 -67
-100 -96 -177 -103 -268 -6 -98 26 -169 96 -211 43 -25 55 -27 147 -26 88 0
109 4 180 32 201 80 365 246 365 369 0 112 -128 132 -294 46 -81 -42 -235
-188 -275 -262 -33 -61 -13 -48 45 29 136 179 383 307 467 240 57 -45 18 -141
-102 -252 -154 -143 -369 -213 -488 -159 -120 55 -99 212 55 416 86 115 108
135 143 135 56 0 232 40 354 81 347 115 625 315 625 449 0 12 -13 35 -29 51
-26 26 -36 29 -94 29 -227 0 -616 -214 -935 -514 l-82 -78 -48 6 c-163 23
-259 112 -237 219 28 133 172 253 385 323 75 24 103 28 240 31 85 2 157 6 160
11 15 22 -263 28 -375 7z m956 -45 c28 -15 24 -66 -7 -112 -116 -167 -566
-387 -864 -422 l-55 -7 90 87 c228 218 505 403 670 449 61 16 140 19 166 5z
M9175 1271 c-118 -53 -318 -256 -627 -634 -85 -103 -223 -229 -317 -289 -45
-28 -91 -37 -91 -17 0 26 64 115 192 266 43 51 78 95 78 98 0 3 -19 5 -41 5
-35 0 -47 -6 -75 -36 -28 -29 -34 -32 -34 -16 0 30 -32 52 -77 52 -69 0 -172
-60 -281 -164 -157 -150 -251 -216 -307 -216 -55 0 -27 51 144 265 l113 140
71 5 c89 6 107 30 23 30 -31 0 -56 3 -56 6 0 4 34 46 75 94 41 48 72 89 70 91
-2 2 -24 3 -49 1 -44 -4 -48 -7 -121 -97 l-75 -94 -57 -3 c-71 -4 -88 -28 -18
-28 l46 0 -63 -77 c-140 -173 -372 -356 -425 -336 -31 12 -8 50 150 243 60 73
107 133 105 135 -2 1 -24 -1 -49 -4 -44 -6 -52 -12 -116 -86 -149 -173 -403
-344 -403 -271 0 7 41 59 90 117 116 134 137 178 110 230 -25 45 -157 3 -253
-81 -25 -22 -48 -40 -51 -40 -3 0 29 44 72 98 43 53 109 137 147 186 l69 89
-44 -7 c-24 -4 -45 -8 -45 -9 0 -1 -34 -42 -75 -92 -239 -291 -590 -582 -590
-490 0 25 85 141 227 309 42 50 41 56 -6 56 -32 0 -44 -6 -70 -35 -24 -28 -31
-32 -31 -17 0 58 -93 67 -192 19 -159 -79 -274 -234 -247 -332 22 -79 111 -70
217 21 l42 36 0 -40 c0 -44 23 -72 59 -72 49 0 164 78 296 200 l69 65 -75 -90
c-196 -234 -369 -445 -369 -450 0 -3 20 -5 43 -5 l44 0 108 133 c199 241 278
329 357 396 128 108 233 163 252 132 7 -10 -23 -49 -122 -163 -79 -91 -103
-142 -84 -183 30 -65 147 -26 287 97 l47 41 -21 -39 c-39 -72 -19 -134 43
-134 50 0 150 59 245 144 34 30 34 30 18 4 -29 -46 -33 -102 -8 -127 44 -44
131 -16 249 79 l63 51 -7 -50 c-6 -44 -4 -52 19 -75 41 -41 96 -29 192 43 l50
38 -3 -38 c-3 -31 0 -40 22 -54 49 -33 123 1 258 117 l58 50 -15 -36 c-21 -49
-19 -109 3 -129 49 -44 174 11 305 134 101 94 108 127 9 41 -133 -116 -190
-152 -242 -152 -43 0 -40 31 9 107 103 160 171 232 293 314 286 192 508 411
508 501 0 23 -28 48 -53 48 -12 0 -40 -9 -62 -19z m74 -25 c40 -48 -202 -291
-474 -476 l-50 -34 40 50 c203 253 360 420 430 457 37 20 40 20 54 3z m-2771
-604 c5 -35 -44 -108 -132 -198 -83 -83 -145 -124 -191 -124 -47 0 -29 57 51
161 114 149 262 236 272 161z m1750 1 c5 -37 -26 -88 -109 -176 -86 -93 -161
-147 -202 -147 -64 0 -9 114 117 243 97 100 186 136 194 80z M4706 1260 c-118
-59 -347 -291 -583 -590 -115 -145 -363 -350 -425 -350 -17 0 -28 5 -28 14 0
21 69 119 169 241 50 61 91 113 91 116 0 3 -18 6 -40 7 -31 2 -45 -4 -65 -25
-14 -16 -25 -31 -25 -35 0 -5 -4 -8 -10 -8 -5 0 -7 6 -4 14 3 8 -4 24 -16 36
-52 52 -195 2 -314 -110 -204 -192 -376 -300 -376 -236 0 7 41 61 90 121 54
66 94 124 100 146 19 70 -19 111 -87 94 -36 -8 -141 -76 -178 -115 -37 -38
-50 -38 -30 0 20 39 19 83 -3 103 -44 40 -102 9 -236 -121 -194 -189 -263
-242 -316 -242 -44 0 -13 54 138 240 56 69 102 129 102 133 0 18 -86 -6 -112
-31 -21 -19 -28 -22 -28 -10 0 25 -34 48 -73 48 -114 0 -312 -146 -356 -263
-19 -48 -14 -114 10 -138 39 -39 94 -20 224 76 20 14 21 13 17 -21 -5 -43 19
-74 58 -74 57 0 131 52 291 205 156 150 221 197 241 177 17 -17 -25 -79 -185
-267 l-85 -100 44 -3 44 -3 122 127 c68 70 149 147 180 171 70 53 146 89 160
75 14 -14 0 -37 -83 -134 -109 -129 -131 -186 -88 -229 43 -43 146 -1 267 106
33 29 52 42 47 30 -4 -11 -10 -39 -13 -62 -5 -51 29 -93 76 -93 36 0 118 41
160 80 l32 31 0 -39 c0 -117 115 -88 305 75 84 73 85 73 64 32 -73 -139 6
-221 149 -154 29 13 73 39 99 56 63 44 194 169 187 180 -3 5 -37 -19 -77 -54
-176 -153 -298 -210 -321 -151 -9 23 17 77 81 168 98 142 130 174 252 253 328
213 527 436 455 507 -20 21 -50 20 -98 -4z m84 -35 c0 -56 -123 -194 -280
-316 -107 -83 -220 -162 -220 -155 0 23 325 393 393 448 52 40 107 52 107 23z
m-2302 -586 c6 -55 -161 -250 -259 -299 -136 -70 -97 65 65 225 77 76 126 106
166 103 19 -2 26 -10 28 -29z m1263 15 c53 -64 -280 -390 -338 -331 -53 52
203 345 303 347 12 0 28 -7 35 -16z M7608 918 c-25 -20 -31 -54 -12 -72 22
-23 53 -17 77 15 35 48 -18 94 -65 57z"/>
</g>
</svg>
