<?xml version="1.0" standalone="no"?>
<!DOCTYPE svg PUBLIC "-//W3C//DTD SVG 20010904//EN"
 "http://www.w3.org/TR/2001/REC-SVG-20010904/DTD/svg10.dtd">
<svg version="1.0" xmlns="http://www.w3.org/2000/svg"
 width="980.000000pt" height="190.000000pt" viewBox="0 0 980.000000 190.000000"
 preserveAspectRatio="xMidYMid meet">
<metadata>
Created by potrace 1.16, written by Peter Selinger 2001-2019
</metadata>
<g transform="translate(0.000000,190.000000) scale(0.100000,-0.100000)"
fill="#f1ead8" stroke="none">
<path d="M2646 1625 c-32 -13 -83 -40 -112 -59 l-54 -36 -49 25 c-93 47 -186
67 -337 72 -228 9 -409 -32 -615 -138 -381 -196 -575 -560 -386 -726 54 -47
97 -58 227 -57 92 0 128 5 180 23 267 93 484 312 498 502 4 53 2 59 -29 94
-31 32 -41 37 -96 42 -116 11 -271 -56 -411 -176 -61 -53 -119 -122 -173 -208
-35 -54 -5 -37 34 20 35 51 145 165 197 206 52 39 147 90 210 111 88 30 193
25 221 -9 99 -122 -243 -480 -532 -557 -93 -25 -206 -22 -263 6 -65 31 -90 70
-94 150 -7 118 47 226 180 359 193 193 475 314 763 328 167 8 332 -22 412 -74
l25 -16 -34 -26 c-57 -43 -217 -203 -282 -281 -35 -41 -124 -157 -199 -256
-228 -305 -345 -436 -472 -531 -122 -92 -234 -133 -357 -133 -84 0 -136 16
-175 52 -32 30 -29 45 6 40 34 -5 71 26 71 58 0 24 -34 60 -55 60 -58 0 -101
-63 -84 -124 21 -73 89 -108 221 -114 228 -10 453 91 654 292 99 99 172 194
339 441 149 219 233 330 322 422 l75 78 27 -33 c128 -152 -2 -470 -244 -595
-52 -27 -71 -31 -140 -32 -44 0 -87 2 -95 5 -9 3 -15 -1 -15 -10 0 -10 19 -20
54 -29 110 -30 292 23 400 115 65 56 126 145 151 220 18 53 21 82 18 143 -5
86 -27 138 -85 202 -30 33 -34 42 -22 50 59 39 149 89 172 94 15 4 27 13 27
21 0 18 -5 18 -74 -11z M5610 1475 c-300 -61 -492 -254 -441 -443 23 -82 110
-150 216 -167 92 -14 89 -6 30 -94 -77 -116 -99 -178 -100 -281 0 -106 21
-152 89 -194 110 -69 316 -34 485 82 70 48 159 141 186 196 101 202 -102 260
-339 97 -56 -39 -174 -166 -205 -221 -34 -60 -12 -46 45 30 99 130 270 245
384 257 47 4 59 2 83 -17 57 -45 18 -141 -102 -252 -154 -143 -369 -213 -488
-159 -119 54 -98 213 55 416 95 127 100 131 176 139 89 9 274 57 391 100 346
130 595 336 546 454 -16 39 -48 52 -124 52 -222 0 -637 -234 -944 -533 l-61
-60 -49 7 c-163 23 -260 112 -238 219 28 133 172 253 385 323 75 24 103 28
240 31 85 2 157 6 160 11 15 22 -276 28 -380 7z m964 -51 c26 -25 19 -67 -19
-117 -83 -109 -350 -267 -578 -343 -92 -30 -281 -74 -319 -74 -16 0 6 24 122
128 225 204 472 364 628 407 68 19 147 18 166 -1z M9175 1271 c-123 -57 -313
-249 -627 -634 -85 -103 -223 -229 -317 -289 -48 -30 -91 -37 -91 -14 0 19 97
153 191 263 44 51 79 95 79 98 0 3 -20 5 -44 5 -39 0 -48 -4 -75 -37 -26 -32
-31 -34 -31 -17 0 48 -66 68 -141 42 -61 -20 -142 -78 -229 -163 -139 -135
-239 -205 -295 -205 -54 0 -31 44 131 248 l126 157 71 5 c44 3 72 10 75 18 3
8 -12 12 -52 12 -31 0 -56 3 -56 6 0 3 34 45 75 94 41 48 72 89 70 91 -2 3
-24 3 -49 1 -44 -4 -48 -7 -121 -97 l-76 -94 -56 -3 c-70 -4 -84 -25 -20 -30
l45 -3 -76 -92 c-126 -150 -330 -313 -393 -313 -55 0 -37 32 132 237 60 72
109 134 109 137 0 3 -21 4 -47 1 -42 -4 -52 -10 -82 -47 -85 -106 -268 -265
-356 -311 -44 -22 -79 -25 -83 -7 -1 9 38 63 88 120 116 135 137 179 110 231
-25 45 -157 3 -253 -81 -25 -22 -48 -40 -51 -40 -3 0 30 44 72 98 43 53 109
137 147 186 l69 89 -44 -7 c-24 -4 -45 -8 -45 -9 -6 -16 -173 -207 -249 -286
-101 -104 -271 -250 -336 -290 -67 -40 -100 -21 -63 37 21 32 192 246 227 283
30 32 25 39 -25 39 -30 0 -43 -7 -68 -35 -24 -28 -31 -32 -31 -17 0 29 -33 52
-73 52 -104 0 -272 -115 -342 -234 -37 -63 -40 -140 -6 -167 42 -34 109 -17
187 46 23 19 45 35 48 35 3 0 6 -15 6 -33 0 -38 25 -67 59 -67 49 0 164 78
296 200 l69 65 -75 -90 c-196 -234 -369 -445 -369 -450 0 -3 20 -5 43 -5 l44
0 108 133 c199 241 278 329 357 396 128 108 233 163 252 132 7 -10 -23 -49
-122 -163 -79 -91 -103 -142 -84 -183 30 -65 147 -26 287 97 l47 41 -21 -39
c-40 -74 -19 -134 46 -134 48 0 146 58 242 144 34 30 34 30 18 4 -9 -15 -19
-44 -23 -66 -5 -32 -2 -44 15 -61 44 -44 131 -16 249 79 l63 51 -7 -48 c-5
-40 -2 -53 16 -75 35 -46 98 -32 195 41 l50 38 -3 -38 c-3 -31 0 -40 22 -54
50 -33 125 1 259 118 56 48 59 49 43 20 -22 -44 -21 -115 2 -136 52 -47 174 8
316 144 42 39 73 75 70 80 -3 5 -39 -21 -80 -57 -105 -91 -189 -144 -231 -144
-28 0 -33 4 -33 23 0 29 54 114 147 232 58 75 85 99 185 166 286 192 508 411
508 501 0 23 -28 48 -53 48 -12 0 -40 -9 -62 -19z m74 -25 c16 -19 -1 -52 -63
-128 -63 -78 -264 -247 -426 -358 l-35 -24 40 49 c220 276 412 471 466 475 4
0 12 -6 18 -14z m-2785 -582 c44 -17 -7 -109 -123 -225 -78 -79 -141 -119
-186 -119 -48 0 -28 60 57 167 81 102 178 181 225 183 6 0 18 -3 27 -6z m1764
-21 c5 -35 -32 -95 -113 -181 -83 -89 -158 -142 -198 -142 -23 0 -27 4 -27 29
0 58 162 255 248 301 48 25 86 22 90 -7z M4706 1260 c-123 -62 -291 -232 -603
-612 -65 -80 -217 -217 -317 -287 -59 -41 -116 -55 -116 -28 0 22 52 97 158
226 56 68 102 128 102 133 0 4 -18 8 -40 8 -32 0 -45 -6 -67 -30 l-27 -31 -13
25 c-16 30 -49 41 -104 33 -66 -9 -144 -54 -230 -133 -111 -102 -220 -190
-271 -219 -39 -22 -98 -34 -98 -19 0 14 29 55 98 138 41 49 81 105 89 124 26
62 -1 112 -59 112 -36 0 -122 -48 -182 -101 -30 -27 -57 -49 -60 -49 -4 0 0
13 9 30 20 39 19 83 -3 103 -44 40 -101 10 -241 -126 -184 -179 -260 -237
-311 -237 -11 0 -20 6 -20 13 0 22 51 95 158 227 56 69 102 128 102 132 0 5
-17 8 -37 8 -28 0 -45 -8 -70 -32 -23 -22 -33 -27 -33 -17 0 9 -9 24 -20 34
-64 57 -280 -51 -374 -189 -33 -46 -41 -67 -44 -115 -4 -51 -1 -62 18 -81 40
-40 94 -22 225 75 20 14 21 13 17 -21 -5 -43 19 -74 58 -74 57 0 131 52 291
205 156 150 221 197 241 177 17 -17 -25 -79 -185 -267 l-85 -100 43 -3 44 -3
148 149 c81 81 167 161 190 176 51 34 115 57 126 46 13 -12 -5 -39 -88 -137
-108 -127 -128 -180 -84 -224 17 -17 29 -20 61 -16 48 6 131 55 204 120 47 43
53 45 44 22 -28 -72 6 -145 68 -145 36 0 118 41 160 80 l32 31 0 -39 c0 -45
23 -72 61 -72 53 1 126 45 257 158 34 29 62 52 62 49 0 -2 -7 -19 -16 -37 -9
-18 -19 -52 -22 -76 -4 -36 -1 -46 21 -68 46 -46 134 -27 254 55 65 45 194
169 187 180 -3 6 -36 -17 -72 -49 -105 -93 -190 -151 -243 -166 -84 -25 -104
-1 -65 78 31 62 175 257 207 280 13 10 69 47 124 83 196 129 357 272 424 378
34 54 39 95 15 119 -20 21 -50 20 -98 -4z m84 -38 c0 -51 -124 -190 -277 -310
-110 -86 -228 -169 -218 -151 15 25 186 231 264 318 97 108 164 161 202 161
21 0 29 -5 29 -18z m-2302 -583 c6 -55 -161 -250 -259 -299 -136 -70 -97 65
65 225 77 76 126 106 166 103 19 -2 26 -10 28 -29z m1263 15 c11 -14 9 -24
-16 -72 -43 -81 -177 -215 -249 -248 -51 -23 -60 -25 -73 -11 -53 52 203 345
303 347 12 0 28 -7 35 -16z M7601 911 c-24 -24 -26 -40 -8 -65 18 -25 56 -17
81 17 16 21 18 32 10 45 -16 25 -59 27 -83 3z"/>
</g>
</svg>
