<?xml version="1.0" standalone="no"?>
<!DOCTYPE svg PUBLIC "-//W3C//DTD SVG 20010904//EN"
 "http://www.w3.org/TR/2001/REC-SVG-20010904/DTD/svg10.dtd">
<svg version="1.0" xmlns="http://www.w3.org/2000/svg"
 width="980.000000pt" height="190.000000pt" viewBox="0 0 980.000000 190.000000"
 preserveAspectRatio="xMidYMid meet">
<metadata>
Created by potrace 1.16, written by Peter Selinger 2001-2019
</metadata>
<g transform="translate(0.000000,190.000000) scale(0.100000,-0.100000)"
fill="#f1ead8" stroke="none">
<path d="M2646 1625 c-32 -13 -83 -40 -112 -59 l-54 -36 -49 25 c-93 47 -186
67 -337 72 -106 4 -166 1 -240 -11 -248 -42 -495 -166 -654 -327 -69 -71 -134
-171 -159 -246 -39 -117 -21 -216 52 -280 54 -47 97 -58 227 -57 92 0 128 5
180 23 105 37 182 78 267 145 132 105 223 245 231 357 4 53 2 59 -29 94 -31
32 -41 37 -96 42 -116 11 -271 -56 -411 -176 -61 -53 -119 -122 -173 -208 -35
-55 -5 -37 35 21 54 79 191 206 272 254 38 22 97 50 131 61 109 37 222 22 238
-30 10 -30 -3 -85 -31 -142 -33 -65 -167 -203 -257 -265 -148 -102 -266 -145
-397 -145 -57 0 -87 6 -123 23 -26 12 -57 36 -70 54 -19 26 -22 44 -22 116 0
77 3 92 35 155 46 91 184 237 294 309 137 91 240 135 410 177 104 25 298 35
395 20 82 -13 180 -44 218 -68 l25 -16 -34 -26 c-57 -43 -217 -203 -282 -281
-35 -41 -124 -157 -199 -256 -228 -305 -345 -436 -472 -531 -122 -92 -234
-133 -357 -133 -84 0 -136 16 -175 52 -32 30 -29 45 6 40 34 -5 71 26 71 58 0
24 -34 60 -55 60 -9 0 -29 -7 -45 -15 -50 -26 -57 -109 -13 -157 39 -43 94
-62 195 -66 228 -10 453 91 654 292 99 99 172 194 339 441 149 219 233 330
322 422 l75 78 27 -33 c81 -95 63 -268 -43 -416 -57 -80 -123 -139 -201 -179
-52 -27 -71 -31 -140 -32 -44 0 -87 2 -95 5 -9 3 -15 -1 -15 -10 0 -10 19 -20
54 -29 77 -21 188 -3 289 45 100 48 196 143 243 240 32 64 34 76 34 169 0 85
-3 106 -23 143 -13 24 -39 60 -58 82 l-35 38 33 25 c42 32 147 87 164 87 8 0
14 7 14 15 0 8 -3 15 -7 15 -5 0 -34 -11 -67 -25z M5610 1475 c-194 -39 -348
-134 -413 -254 -69 -125 -32 -262 86 -322 31 -16 148 -48 178 -49 4 0 -17 -36
-46 -79 -77 -116 -99 -178 -100 -281 0 -106 21 -152 89 -194 110 -69 316 -34
485 82 70 48 159 141 186 196 15 30 25 67 25 93 0 34 -6 49 -26 68 -63 59
-195 34 -338 -64 -56 -39 -174 -166 -205 -221 -13 -23 -19 -41 -14 -39 6 2 32
33 59 69 99 130 270 245 384 257 47 4 59 2 83 -17 36 -29 35 -70 -2 -136 -64
-112 -245 -242 -387 -279 -120 -31 -226 -9 -259 55 -44 85 -6 207 113 365 95
127 100 131 176 139 90 9 275 57 393 101 131 49 296 135 375 194 85 64 155
144 169 191 15 48 -1 92 -37 109 -39 17 -140 13 -227 -10 -96 -26 -320 -136
-439 -216 -114 -76 -232 -171 -341 -273 l-87 -82 -48 6 c-124 18 -213 74 -232
147 -14 49 -6 89 28 153 66 121 253 230 460 266 35 6 116 10 180 9 117 -1 153
9 77 23 -65 11 -275 7 -345 -7z m964 -51 c26 -25 19 -67 -19 -117 -83 -109
-350 -267 -578 -343 -92 -30 -281 -74 -319 -74 -16 0 6 24 122 128 113 103
287 236 386 295 81 48 184 96 242 112 68 19 147 18 166 -1z M9175 1271 c-122
-57 -312 -248 -626 -631 -85 -104 -205 -215 -308 -284 -54 -37 -101 -47 -101
-22 0 19 97 153 191 263 44 51 79 95 79 98 0 3 -20 5 -44 5 -39 0 -48 -4 -75
-37 -26 -32 -31 -34 -31 -17 0 50 -68 68 -149 40 -58 -21 -147 -84 -211 -151
-68 -71 -189 -169 -241 -195 -47 -24 -89 -26 -89 -5 0 30 31 75 156 233 l126
157 71 5 c44 3 72 10 75 18 3 8 -12 12 -52 12 -31 0 -56 3 -56 6 0 3 34 45 75
94 41 48 72 89 70 91 -2 3 -24 3 -49 1 -44 -4 -48 -7 -121 -97 l-76 -94 -56
-3 c-34 -2 -58 -8 -61 -15 -2 -9 10 -13 43 -13 l46 0 -59 -72 c-33 -40 -77
-91 -99 -114 -56 -57 -158 -141 -227 -186 -60 -38 -116 -50 -116 -24 0 20 41
78 162 224 61 73 108 136 105 139 -4 3 -26 2 -50 -1 -39 -6 -50 -15 -107 -82
-61 -73 -176 -176 -271 -243 -48 -33 -118 -63 -131 -54 -18 10 -3 35 82 134
116 134 137 178 110 230 -25 45 -157 3 -253 -81 -25 -22 -48 -40 -51 -40 -3 0
30 44 72 98 43 53 109 137 147 186 l69 89 -44 -7 c-24 -4 -45 -8 -45 -9 0 -1
-34 -42 -75 -92 -105 -129 -259 -284 -375 -380 -116 -95 -161 -125 -192 -125
-28 0 -30 20 -6 58 21 32 192 246 227 283 14 15 22 30 19 33 -4 3 -23 6 -44 6
-30 0 -43 -7 -68 -35 -24 -28 -31 -32 -31 -17 0 29 -33 52 -73 52 -104 0 -272
-115 -342 -234 -20 -33 -28 -61 -28 -98 -1 -41 3 -54 22 -69 13 -11 34 -19 47
-19 36 0 92 26 140 65 23 19 45 35 48 35 3 0 6 -15 6 -33 0 -38 25 -67 59 -67
49 0 164 78 296 200 l69 65 -75 -90 c-213 -254 -369 -444 -369 -449 0 -3 20
-6 43 -6 l44 0 108 133 c199 241 278 329 357 396 128 108 233 163 252 132 7
-10 -23 -49 -122 -163 -79 -91 -103 -142 -84 -183 6 -13 23 -27 37 -31 48 -12
150 40 250 128 l47 41 -21 -39 c-40 -74 -19 -134 46 -134 48 0 146 58 242 144
34 30 34 30 18 4 -9 -15 -19 -44 -23 -66 -5 -32 -2 -44 15 -61 44 -44 131 -16
249 79 l63 51 -7 -48 c-5 -40 -2 -53 16 -75 13 -17 31 -28 46 -28 36 0 91 26
149 69 l50 38 -3 -38 c-3 -31 0 -40 22 -54 50 -33 125 1 259 118 56 48 59 49
43 20 -23 -45 -24 -108 -1 -133 48 -53 173 2 319 141 42 39 73 75 70 80 -3 5
-39 -21 -80 -57 -105 -91 -189 -144 -231 -144 -28 0 -33 4 -33 23 0 29 54 114
147 232 58 75 85 99 185 166 232 156 440 344 487 442 25 52 26 70 5 91 -20 21
-50 20 -99 -3z m74 -24 c13 -17 -10 -65 -63 -131 -61 -73 -272 -250 -426 -356
l-35 -24 40 49 c220 276 412 471 466 475 4 0 12 -6 18 -13z m-2785 -583 c44
-17 -7 -109 -123 -225 -78 -79 -141 -119 -186 -119 -48 0 -28 60 57 167 81
102 178 181 225 183 6 0 18 -3 27 -6z m1764 -21 c5 -35 -32 -95 -113 -181 -83
-89 -158 -142 -198 -142 -23 0 -27 4 -27 29 0 17 16 53 40 89 50 74 159 186
208 212 48 25 86 22 90 -7z M4721 1269 c-45 -18 -149 -99 -228 -177 -91 -90
-236 -254 -355 -402 -131 -164 -377 -370 -440 -370 -16 0 -28 5 -28 13 0 22
52 97 158 226 56 68 102 128 102 133 0 4 -18 8 -40 8 -32 0 -45 -6 -67 -30
l-27 -31 -13 25 c-16 30 -49 41 -104 33 -66 -9 -144 -54 -230 -133 -111 -102
-220 -190 -271 -219 -39 -22 -98 -34 -98 -19 0 14 29 55 98 138 103 124 123
175 82 216 -11 11 -32 20 -47 20 -40 0 -124 -46 -187 -101 -30 -27 -57 -49
-60 -49 -4 0 0 13 9 30 20 39 19 83 -3 103 -44 40 -99 11 -240 -125 -189 -182
-262 -238 -312 -238 -11 0 -20 6 -20 13 0 22 51 95 158 227 56 69 102 128 102
132 0 5 -17 8 -37 8 -28 0 -45 -8 -70 -32 -23 -22 -33 -27 -33 -17 0 9 -9 24
-20 34 -41 37 -161 2 -272 -80 -98 -72 -167 -199 -147 -270 21 -72 87 -71 194
3 l71 49 -4 -34 c-5 -42 20 -73 58 -73 57 0 131 52 291 205 156 150 221 197
241 177 17 -17 -25 -79 -185 -267 l-85 -100 43 -3 43 -3 149 148 c81 82 167
161 190 177 51 34 115 57 126 46 13 -12 -5 -39 -88 -137 -41 -48 -82 -102 -90
-120 -21 -43 -19 -79 6 -104 17 -17 29 -20 61 -16 48 6 131 55 204 120 47 43
53 45 44 22 -5 -14 -10 -42 -10 -61 0 -44 37 -84 78 -84 36 0 118 41 160 80
l32 31 0 -39 c0 -45 23 -72 61 -72 53 1 126 45 257 158 34 29 62 52 62 49 0
-2 -7 -19 -16 -37 -9 -18 -19 -52 -22 -76 -4 -36 -1 -46 21 -68 19 -19 37 -26
64 -26 43 0 120 33 190 81 65 45 194 169 187 180 -3 6 -36 -17 -72 -49 -105
-93 -190 -151 -243 -166 -84 -25 -104 -1 -65 78 31 62 175 257 207 280 13 10
69 47 124 83 255 168 455 367 455 454 0 51 -42 71 -99 48z m69 -47 c0 -51
-124 -190 -277 -310 -110 -86 -228 -169 -218 -151 16 27 189 234 269 323 45
49 101 104 125 122 49 38 101 46 101 16z m-2302 -583 c6 -55 -161 -250 -259
-299 -136 -70 -97 65 65 225 77 76 126 106 166 103 19 -2 26 -10 28 -29z
m1262 16 c36 -43 -149 -268 -264 -321 -51 -23 -60 -25 -73 -11 -13 13 -13 20
6 62 26 59 108 162 169 213 83 69 136 88 162 57z M7601 911 c-24 -24 -26 -40
-8 -65 18 -25 56 -17 81 17 16 21 18 32 10 45 -16 25 -59 27 -83 3z"/>
</g>
</svg>
