<?xml version="1.0" standalone="no"?>
<!DOCTYPE svg PUBLIC "-//W3C//DTD SVG 20010904//EN"
 "http://www.w3.org/TR/2001/REC-SVG-20010904/DTD/svg10.dtd">
<svg version="1.0" xmlns="http://www.w3.org/2000/svg"
 width="980.000000pt" height="190.000000pt" viewBox="0 0 980.000000 190.000000"
 preserveAspectRatio="xMidYMid meet">
<metadata>
Created by potrace 1.16, written by Peter Selinger 2001-2019
</metadata>
<g transform="translate(0.000000,190.000000) scale(0.100000,-0.100000)"
fill="#f1ead8" stroke="none">
<path d="M2646 1625 c-32 -13 -82 -39 -111 -59 l-53 -35 -78 34 c-44 18 -114
41 -156 49 -45 9 -128 16 -197 16 -80 0 -156 -7 -226 -21 -59 -11 -139 -32
-178 -46 -40 -14 -108 -44 -152 -66 -44 -22 -113 -62 -153 -90 -40 -27 -108
-88 -152 -134 -57 -60 -91 -107 -120 -167 -29 -58 -43 -100 -47 -142 -3 -32 0
-78 6 -102 7 -23 26 -59 44 -79 18 -20 52 -45 76 -56 24 -11 77 -21 120 -24
52 -4 105 0 162 11 46 10 122 35 169 57 47 22 117 65 157 95 39 30 94 83 122
116 28 34 64 91 82 126 19 39 33 85 36 120 4 49 2 61 -18 86 -12 16 -37 35
-55 42 -19 8 -51 14 -72 14 -21 0 -64 -7 -97 -15 -33 -9 -86 -30 -120 -46 -33
-17 -85 -49 -115 -72 -30 -22 -82 -69 -115 -103 -33 -34 -75 -88 -94 -118 -19
-31 -32 -59 -29 -61 3 -3 22 20 43 50 20 30 66 84 101 119 35 35 95 85 133
111 39 25 99 58 133 73 52 21 79 26 151 27 83 0 90 -2 109 -25 15 -19 19 -35
15 -66 -2 -23 -14 -63 -27 -89 -12 -25 -58 -84 -102 -130 -44 -46 -109 -106
-146 -133 -37 -27 -99 -66 -138 -85 -38 -19 -97 -43 -130 -53 -34 -10 -93 -18
-139 -18 -64 0 -90 5 -128 23 -30 14 -58 38 -74 62 -19 30 -25 51 -25 96 0 32
9 83 20 115 11 31 37 82 58 113 20 31 65 85 99 119 34 35 95 87 136 115 41 29
109 70 151 92 43 21 111 50 152 64 41 14 107 32 148 41 40 8 125 18 188 21 67
3 146 1 190 -6 41 -6 102 -21 135 -31 33 -11 71 -29 84 -39 l23 -18 -49 -36
c-27 -20 -99 -87 -159 -149 -65 -67 -178 -205 -278 -338 -93 -124 -201 -263
-240 -310 -39 -47 -98 -112 -131 -145 -33 -33 -87 -81 -120 -106 -33 -26 -87
-60 -120 -76 -33 -17 -84 -38 -114 -47 -30 -9 -89 -16 -131 -16 -43 0 -92 5
-111 11 -19 7 -46 23 -62 37 -15 14 -27 32 -27 39 0 7 6 10 15 7 8 -4 26 -3
40 0 13 3 29 16 36 27 6 11 8 32 5 45 -4 14 -18 29 -33 35 -14 5 -34 7 -45 3
-10 -3 -28 -15 -38 -27 -13 -14 -20 -35 -20 -63 0 -27 7 -51 21 -68 11 -15 40
-36 62 -48 32 -16 66 -22 142 -26 81 -4 118 0 185 17 47 12 122 39 167 60 45
22 110 59 145 82 35 24 104 84 153 133 50 50 111 118 136 151 26 33 106 148
179 255 73 107 164 236 201 286 38 50 102 127 144 170 l76 79 28 -33 c15 -18
33 -50 40 -71 6 -21 11 -61 11 -89 0 -27 -9 -79 -20 -114 -11 -37 -41 -95 -69
-135 -27 -38 -73 -91 -101 -115 -29 -25 -78 -59 -109 -74 -50 -26 -66 -29
-153 -29 -54 0 -98 -3 -98 -6 0 -4 15 -13 33 -20 18 -8 65 -14 107 -13 50 0
97 8 141 22 36 13 87 36 112 52 25 15 63 45 86 65 22 20 56 61 76 91 20 30 45
79 56 111 11 32 19 83 19 119 0 39 -8 84 -20 118 -12 29 -39 75 -61 100 l-41
46 24 20 c12 11 60 38 106 61 45 23 82 45 82 50 0 5 -3 9 -7 9 -5 0 -34 -11
-67 -25z M5632 1479 c-30 -5 -88 -21 -130 -35 -43 -14 -102 -40 -132 -57 -30
-17 -78 -54 -106 -82 -29 -28 -62 -71 -73 -94 -12 -23 -25 -63 -28 -89 -3 -26
0 -66 6 -89 6 -23 23 -56 37 -73 15 -17 45 -41 68 -55 36 -21 76 -33 173 -51
20 -4 18 -9 -32 -83 -29 -43 -63 -105 -75 -138 -12 -32 -25 -91 -28 -130 -4
-64 -2 -79 22 -128 21 -42 38 -61 74 -83 42 -24 56 -27 142 -27 80 0 107 5
173 29 43 16 111 50 150 76 40 26 98 74 130 108 32 34 66 80 77 104 11 24 20
62 20 86 0 33 -6 48 -25 66 -14 13 -41 26 -60 29 -19 3 -52 3 -72 0 -21 -3
-76 -23 -123 -45 -71 -34 -99 -55 -175 -132 -49 -50 -101 -111 -114 -135 -13
-24 -19 -42 -14 -40 6 2 32 33 59 69 27 35 80 91 119 123 38 32 101 74 140 93
43 21 93 37 125 41 47 4 59 2 83 -17 19 -15 27 -30 27 -53 0 -18 -13 -55 -29
-83 -16 -28 -61 -80 -100 -116 -41 -38 -104 -83 -150 -107 -43 -22 -104 -47
-137 -56 -32 -8 -81 -15 -109 -15 -27 0 -69 9 -92 19 -41 19 -64 49 -76 102
-4 14 0 52 8 83 8 31 26 78 39 104 25 50 124 187 169 235 18 18 36 27 57 27
56 0 232 40 355 81 66 22 171 64 233 94 61 30 145 77 186 105 41 28 98 76 126
106 28 29 57 69 65 89 8 19 15 44 15 55 0 12 -13 35 -29 51 -26 26 -36 29 -94
29 -35 0 -99 -9 -143 -20 -43 -11 -137 -49 -209 -84 -71 -35 -177 -95 -235
-133 -58 -39 -134 -94 -170 -122 -36 -29 -109 -93 -163 -143 l-98 -90 -47 6
c-26 4 -69 14 -96 23 -27 8 -66 31 -87 50 -24 22 -43 50 -50 75 -5 22 -7 54
-4 71 4 18 19 54 33 81 15 26 51 71 82 98 31 28 95 69 145 93 50 24 117 51
150 61 40 11 110 18 215 20 85 2 160 4 165 4 6 0 1 6 -10 12 -25 15 -281 20
-353 7z m939 -49 c29 -16 25 -69 -9 -116 -16 -22 -51 -58 -78 -80 -27 -23 -80
-62 -119 -86 -38 -25 -111 -66 -162 -91 -50 -26 -144 -65 -209 -87 -64 -22
-161 -49 -214 -60 -54 -11 -106 -20 -116 -20 -14 0 -9 10 21 41 67 69 255 228
356 300 52 37 135 89 183 115 48 26 118 57 154 70 38 13 90 24 120 24 29 0 62
-5 73 -10z M9164 1264 c-27 -14 -79 -51 -117 -81 -37 -31 -111 -101 -163 -157
-89 -93 -196 -218 -351 -409 -35 -42 -104 -111 -154 -154 -50 -43 -114 -93
-142 -110 -28 -18 -61 -33 -74 -33 -13 0 -23 6 -23 13 0 6 10 28 21 47 26 42
168 220 216 271 19 20 31 39 26 42 -4 2 -25 4 -47 3 -30 -2 -44 -9 -67 -37
-25 -30 -28 -31 -29 -13 0 11 -8 28 -18 37 -11 10 -35 17 -59 17 -26 0 -65
-12 -112 -36 -52 -26 -102 -64 -179 -138 -59 -56 -129 -118 -157 -137 -27 -20
-64 -44 -82 -53 -18 -9 -43 -16 -58 -16 -17 0 -25 5 -25 18 0 10 13 38 28 63
16 24 79 107 141 184 l113 140 71 5 c44 3 72 10 75 18 3 8 -12 12 -52 12 -31
0 -56 3 -56 7 0 3 33 45 74 94 41 48 73 89 71 91 -3 2 -25 2 -49 -2 -43 -5
-50 -10 -121 -97 l-75 -92 -57 -3 c-32 -2 -58 -8 -60 -15 -3 -8 11 -13 41 -15
l46 -3 -83 -98 c-45 -53 -120 -129 -167 -168 -47 -39 -101 -82 -120 -95 -19
-13 -51 -30 -71 -38 -21 -9 -40 -11 -49 -6 -12 8 -12 14 2 42 8 18 70 99 136
180 66 80 119 148 116 150 -2 2 -23 2 -48 -2 -40 -5 -50 -12 -113 -85 -38 -44
-112 -115 -164 -158 -51 -42 -122 -91 -156 -108 -34 -17 -66 -28 -72 -24 -6 3
-11 12 -11 19 0 7 39 57 86 112 47 54 94 116 105 136 10 21 19 48 19 62 0 13
-7 32 -16 40 -8 9 -30 16 -48 16 -18 0 -60 -14 -94 -31 -34 -16 -83 -50 -110
-75 -28 -24 -53 -44 -58 -44 -4 0 3 12 17 26 34 36 278 348 274 352 -1 1 -20
0 -41 -4 -34 -5 -47 -17 -99 -82 -33 -41 -109 -127 -170 -190 -60 -63 -149
-148 -197 -189 -49 -41 -111 -90 -139 -109 -28 -19 -62 -34 -75 -34 -17 0 -24
6 -24 19 0 10 21 47 48 82 26 35 84 109 130 164 45 55 82 102 82 105 0 3 -20
4 -45 2 -35 -3 -50 -11 -70 -34 -21 -25 -25 -26 -25 -10 0 10 -8 26 -18 35
-10 10 -35 17 -55 17 -20 0 -59 -9 -88 -20 -28 -11 -70 -33 -93 -49 -22 -16
-64 -52 -93 -81 -29 -29 -61 -71 -73 -94 -11 -24 -20 -62 -20 -89 0 -34 6 -53
20 -67 11 -11 32 -20 47 -20 15 0 45 9 68 20 23 11 60 36 83 56 l42 36 0 -40
c0 -25 6 -45 18 -55 10 -10 27 -17 38 -17 10 0 38 9 62 20 23 11 71 41 105 67
34 26 93 77 132 113 38 36 56 49 40 29 -17 -20 -114 -137 -216 -260 -102 -123
-189 -230 -193 -236 -5 -10 4 -13 36 -13 l43 0 179 215 c99 119 205 240 237
269 32 30 84 74 116 99 32 24 77 54 100 66 23 11 51 21 62 21 11 0 22 -4 25
-9 3 -5 -7 -24 -22 -44 -15 -19 -60 -73 -100 -119 -41 -47 -77 -99 -84 -121
-8 -27 -8 -43 0 -62 6 -13 22 -27 36 -31 14 -3 41 -1 60 6 19 6 61 28 94 50
33 21 79 55 102 76 l42 39 -21 -40 c-11 -22 -21 -54 -21 -72 0 -24 7 -37 26
-50 23 -14 32 -15 71 -5 25 7 69 28 98 47 29 20 74 54 101 78 43 37 47 39 30
12 -11 -16 -20 -48 -20 -73 -1 -33 4 -47 19 -59 13 -10 34 -13 62 -10 24 3 67
19 98 38 31 18 78 53 105 76 l48 43 -9 -36 c-6 -19 -7 -49 -4 -65 4 -16 18
-37 31 -45 16 -11 35 -14 57 -10 31 6 89 39 147 85 l25 19 -3 -38 c-3 -32 0
-41 22 -55 18 -12 36 -15 60 -11 18 4 60 25 92 48 33 22 83 61 111 86 l53 44
-15 -35 c-8 -20 -15 -54 -15 -76 0 -30 6 -44 22 -55 12 -9 34 -16 49 -16 14 0
58 16 96 35 45 22 101 64 156 116 48 44 84 85 81 91 -4 5 -25 -8 -48 -30 -22
-22 -67 -60 -99 -86 -32 -25 -75 -55 -97 -66 -22 -11 -53 -20 -70 -20 -25 0
-30 4 -30 24 0 13 22 57 49 97 26 41 75 108 108 149 48 61 83 91 178 154 65
44 162 114 215 157 53 43 131 114 172 158 72 76 118 148 118 183 0 9 -7 24
-16 32 -8 9 -26 16 -38 16 -13 0 -45 -12 -72 -26z m90 -20 c3 -8 -4 -34 -16
-57 -11 -23 -60 -80 -107 -127 -47 -47 -135 -124 -196 -171 -60 -46 -132 -100
-160 -119 -31 -21 -44 -27 -35 -14 37 49 204 246 261 309 35 39 87 92 115 117
50 47 98 78 120 78 7 0 15 -7 18 -16z m-2776 -605 c2 -16 -11 -46 -38 -86 -22
-33 -72 -91 -111 -128 -40 -37 -94 -78 -122 -90 -27 -13 -56 -21 -63 -18 -8 3
-14 15 -14 27 0 11 14 45 31 75 17 30 68 91 113 137 45 46 98 90 117 99 19 8
45 14 59 12 19 -1 26 -9 28 -28z m1750 4 c2 -12 -4 -39 -14 -59 -10 -20 -53
-74 -96 -119 -43 -46 -100 -97 -127 -114 -26 -17 -60 -31 -74 -31 -23 0 -27 4
-27 29 0 17 17 54 42 91 23 35 71 93 108 129 37 37 82 74 101 84 19 9 45 16
59 15 17 -2 26 -10 28 -25z M4693 1251 c-28 -16 -64 -38 -80 -50 -53 -41 -216
-206 -302 -306 -48 -55 -123 -145 -168 -200 -45 -55 -103 -121 -129 -146 -73
-68 -162 -141 -228 -188 -36 -24 -71 -41 -88 -41 -17 0 -28 5 -28 14 0 7 18
40 39 72 22 33 80 109 130 169 50 61 91 112 91 115 0 3 -20 4 -45 3 -34 -1
-50 -7 -65 -25 -11 -12 -19 -26 -20 -30 0 -5 -4 -8 -10 -8 -5 0 -7 6 -4 14 3
8 -4 24 -16 36 -19 19 -31 22 -75 18 -31 -3 -77 -17 -111 -34 -32 -16 -96 -65
-143 -108 -47 -44 -120 -106 -161 -139 -78 -62 -172 -113 -190 -102 -5 3 -10
12 -10 19 0 6 40 60 88 119 52 63 94 123 101 146 8 27 8 47 1 65 -5 15 -20 28
-36 32 -15 4 -43 1 -63 -6 -20 -7 -56 -26 -81 -43 -25 -16 -64 -48 -87 -70
-24 -23 -43 -37 -43 -32 1 6 7 21 15 35 8 14 14 39 15 56 0 18 -8 38 -18 47
-10 10 -26 17 -36 17 -42 0 -98 -38 -200 -138 -61 -60 -136 -130 -165 -156
-30 -26 -72 -56 -93 -67 -20 -10 -46 -19 -58 -19 -11 0 -20 6 -20 13 0 7 13
33 28 58 16 24 75 100 130 169 56 69 102 127 102 130 0 3 -20 4 -45 2 -35 -3
-50 -11 -70 -34 -21 -25 -25 -26 -25 -10 0 10 -8 26 -18 35 -10 10 -35 17 -55
17 -20 0 -59 -9 -87 -19 -27 -10 -78 -39 -112 -64 -35 -24 -77 -62 -94 -84
-17 -21 -41 -57 -53 -80 -12 -25 -21 -61 -21 -88 0 -32 6 -51 20 -65 11 -11
32 -20 47 -20 15 0 45 9 68 20 23 11 60 36 82 55 23 19 43 35 45 35 2 0 2 -16
0 -35 -3 -25 1 -42 13 -55 10 -11 30 -20 45 -20 14 0 50 12 79 27 36 17 106
76 211 178 87 83 174 160 195 169 24 12 40 15 47 8 6 -6 6 -18 -3 -33 -6 -13
-31 -49 -55 -79 -23 -30 -80 -100 -127 -155 l-85 -100 46 -3 c41 -3 50 0 70
25 13 15 67 72 120 127 54 54 123 118 154 143 32 24 79 53 104 64 30 14 50 17
56 11 6 -6 6 -18 -3 -33 -6 -13 -43 -60 -81 -104 -39 -44 -78 -97 -89 -117
-10 -21 -19 -49 -19 -63 0 -14 9 -34 20 -45 11 -11 31 -20 45 -20 14 0 42 7
62 15 40 17 127 78 182 129 26 23 32 26 26 11 -5 -11 -10 -39 -13 -62 -3 -35
0 -46 22 -67 14 -15 37 -26 51 -26 14 0 42 7 61 15 20 8 54 29 77 47 23 18 44
36 45 40 2 5 7 8 11 8 4 0 5 -16 3 -35 -3 -25 1 -42 14 -56 15 -17 27 -20 57
-16 21 3 63 20 93 38 30 19 93 66 139 107 l85 73 -21 -41 c-12 -23 -24 -61
-27 -85 -4 -37 -1 -47 21 -69 19 -19 37 -26 64 -26 21 0 62 11 92 25 30 14 77
42 105 62 28 21 81 66 118 102 37 35 65 68 62 73 -3 4 -35 -18 -72 -51 -37
-32 -95 -79 -130 -104 -34 -25 -84 -53 -111 -62 -38 -12 -55 -14 -70 -5 -12 6
-21 17 -21 24 0 27 59 125 136 229 71 94 89 111 174 165 52 33 132 88 177 122
45 33 118 95 162 136 44 41 98 103 121 136 23 35 40 72 40 88 0 16 -7 36 -16
44 -8 9 -25 16 -37 16 -12 0 -45 -13 -74 -29z m97 -26 c0 -34 -45 -100 -119
-174 -77 -77 -213 -187 -323 -263 -32 -21 -58 -36 -58 -33 0 8 178 223 269
324 42 46 98 101 124 123 31 24 59 38 78 38 19 0 29 -5 29 -15z m-2302 -586
c2 -16 -11 -46 -38 -86 -22 -33 -72 -90 -110 -127 -38 -36 -88 -75 -111 -86
-22 -12 -50 -20 -62 -18 -17 2 -22 9 -20 32 1 16 19 54 39 85 21 31 69 88 108
126 39 39 87 79 106 88 19 9 46 16 60 15 19 -2 26 -10 28 -29z m1262 16 c7 -8
9 -24 5 -37 -12 -37 -89 -139 -146 -194 -30 -28 -72 -62 -94 -76 -22 -14 -52
-28 -66 -32 -36 -8 -51 12 -40 52 5 17 24 53 42 79 18 26 63 78 100 115 37 36
84 75 105 87 22 11 49 20 60 21 12 0 27 -7 34 -15z M7614 922 c-6 -4 -16 -17
-22 -29 -7 -12 -9 -29 -6 -37 3 -9 17 -19 30 -22 14 -4 31 -1 40 7 8 7 20 21
25 31 6 12 6 25 -1 38 -6 11 -21 20 -33 20 -12 0 -27 -4 -33 -8z"/>
</g>
</svg>
