<?xml version="1.0" standalone="no"?>
<!DOCTYPE svg PUBLIC "-//W3C//DTD SVG 20010904//EN"
 "http://www.w3.org/TR/2001/REC-SVG-20010904/DTD/svg10.dtd">
<svg version="1.0" xmlns="http://www.w3.org/2000/svg"
 width="980.000000pt" height="190.000000pt" viewBox="0 0 980.000000 190.000000"
 preserveAspectRatio="xMidYMid meet">
<metadata>
Created by potrace 1.16, written by Peter Selinger 2001-2019
</metadata>
<g transform="translate(0.000000,190.000000) scale(0.100000,-0.100000)"
fill="#f1ead8" stroke="none">
<path d="M2646 1625 c-32 -13 -83 -40 -112 -59 l-54 -36 -49 25 c-27 13 -82
34 -123 46 -53 15 -112 23 -214 26 -106 4 -166 1 -240 -11 -54 -10 -139 -31
-188 -47 -49 -16 -133 -52 -187 -80 -53 -27 -127 -72 -162 -99 -36 -27 -88
-73 -117 -101 -28 -29 -70 -82 -94 -118 -25 -36 -54 -94 -65 -128 -12 -34 -21
-86 -21 -115 0 -29 9 -71 19 -93 10 -22 34 -54 54 -72 19 -17 53 -37 74 -44
24 -9 80 -14 153 -13 92 0 128 5 180 23 36 12 93 36 126 53 34 16 97 58 141
92 43 35 101 92 127 127 27 35 60 89 74 119 15 31 28 80 30 111 4 53 2 59 -29
94 -31 32 -41 37 -96 42 -46 4 -79 0 -134 -16 -41 -13 -105 -41 -142 -63 -38
-22 -99 -66 -135 -97 -61 -53 -119 -122 -173 -208 -35 -55 -5 -37 35 21 21 30
75 90 120 134 45 43 114 97 152 120 38 22 97 50 131 61 35 12 87 21 118 21 31
0 69 -7 85 -15 16 -8 32 -24 35 -36 4 -11 4 -37 0 -57 -4 -20 -18 -58 -31 -85
-14 -27 -61 -86 -105 -132 -85 -88 -184 -162 -285 -213 -33 -17 -89 -38 -125
-48 -35 -9 -98 -17 -139 -17 -57 0 -87 6 -123 23 -26 12 -57 36 -70 54 -19 26
-22 44 -22 116 0 77 3 92 35 155 24 48 63 99 124 163 123 128 274 226 435 281
119 41 225 62 346 68 73 3 149 1 194 -6 82 -13 180 -44 218 -68 l25 -16 -34
-26 c-57 -43 -217 -203 -282 -281 -35 -41 -124 -157 -199 -256 -162 -217 -264
-341 -349 -424 -35 -35 -90 -83 -123 -107 -33 -25 -85 -58 -115 -73 -30 -15
-79 -35 -109 -44 -70 -21 -200 -21 -249 -1 -41 18 -82 52 -82 70 0 7 11 10 29
7 20 -3 35 2 50 17 12 12 21 30 21 41 0 24 -34 60 -55 60 -9 0 -29 -7 -45 -15
-19 -10 -33 -27 -38 -48 -5 -17 -5 -45 -1 -61 5 -16 16 -38 26 -48 10 -11 36
-30 58 -41 30 -16 64 -22 137 -25 68 -3 120 1 175 13 43 9 110 31 148 47 39
17 108 55 155 86 47 30 126 95 176 146 50 50 122 134 161 186 38 52 119 167
178 255 60 88 139 201 177 252 38 50 103 127 145 170 l75 78 27 -33 c16 -18
33 -50 40 -71 18 -60 13 -140 -13 -213 -13 -37 -44 -96 -70 -132 -25 -35 -67
-83 -93 -106 -27 -23 -75 -56 -108 -73 -52 -27 -71 -31 -140 -32 -44 0 -87 2
-95 5 -9 3 -15 -1 -15 -10 0 -10 19 -20 54 -29 44 -12 68 -13 133 -3 53 8 106
24 156 48 56 27 95 55 143 104 44 44 79 92 100 136 32 64 34 76 34 169 0 85
-3 106 -23 143 -13 24 -39 60 -58 82 l-35 38 33 25 c42 32 147 87 164 87 8 0
14 7 14 15 0 8 -3 15 -7 15 -5 0 -34 -11 -67 -25z M5610 1475 c-36 -7 -87 -21
-115 -30 -79 -27 -164 -76 -220 -126 -28 -26 -63 -70 -78 -98 -15 -28 -30 -72
-34 -98 -3 -26 0 -67 6 -91 7 -23 26 -58 43 -78 17 -19 49 -44 71 -55 21 -11
69 -27 106 -35 36 -7 69 -14 72 -14 4 0 -17 -36 -46 -79 -29 -43 -63 -105 -76
-138 -18 -44 -24 -78 -24 -143 0 -67 4 -93 21 -125 13 -24 39 -51 68 -69 37
-23 61 -30 119 -34 48 -3 94 1 137 12 75 19 166 60 229 104 70 48 159 141 186
196 15 30 25 67 25 93 0 34 -6 49 -26 68 -14 13 -42 26 -62 30 -70 11 -174
-24 -276 -94 -56 -39 -174 -166 -205 -221 -13 -23 -19 -41 -14 -39 6 2 32 33
59 69 27 35 80 91 119 123 38 32 101 74 140 93 43 21 93 37 125 41 47 4 59 2
83 -17 19 -15 27 -30 27 -53 0 -18 -13 -55 -29 -83 -16 -28 -61 -80 -100 -116
-79 -73 -195 -139 -287 -163 -32 -8 -81 -15 -109 -15 -27 0 -69 9 -92 19 -26
12 -48 32 -58 51 -9 18 -17 52 -17 76 0 82 39 169 130 289 95 127 100 131 176
139 90 9 275 57 393 101 54 20 146 61 204 91 59 30 136 76 171 103 35 27 85
72 111 101 26 28 52 69 58 90 9 30 9 46 0 68 -7 16 -24 34 -37 41 -39 17 -140
13 -227 -10 -43 -12 -140 -52 -215 -90 -76 -37 -176 -94 -224 -126 -114 -76
-232 -171 -341 -273 l-87 -82 -48 6 c-78 11 -137 35 -180 72 -28 23 -45 49
-52 75 -6 23 -8 55 -5 72 12 56 58 128 114 178 30 26 84 63 120 82 77 40 171
72 259 87 35 6 116 10 180 9 117 -1 153 9 77 23 -65 11 -275 7 -345 -7z m964
-51 c9 -8 16 -28 16 -43 0 -17 -14 -47 -35 -74 -19 -25 -74 -75 -122 -112 -49
-36 -146 -95 -218 -130 -71 -36 -179 -81 -238 -101 -60 -19 -154 -44 -208 -55
-55 -10 -105 -19 -111 -19 -6 0 -5 6 3 17 8 9 61 59 119 111 113 103 287 236
386 295 81 48 184 96 242 112 26 7 70 14 99 14 35 1 57 -4 67 -15z M9175 1271
c-22 -10 -58 -32 -81 -48 -22 -17 -82 -70 -134 -119 -90 -87 -236 -251 -411
-464 -85 -104 -205 -215 -308 -284 -54 -37 -101 -47 -101 -22 0 19 97 153 191
263 44 51 79 95 79 98 0 3 -20 5 -44 5 -39 0 -48 -4 -75 -37 -26 -32 -31 -34
-31 -17 0 12 -8 28 -18 37 -10 10 -35 17 -54 17 -20 0 -54 -7 -77 -14 -22 -8
-67 -33 -98 -55 -32 -21 -83 -65 -113 -96 -68 -71 -189 -169 -241 -195 -47
-24 -89 -26 -89 -5 0 9 7 29 15 46 9 16 72 100 141 187 l126 157 71 5 c44 3
72 10 75 18 3 8 -12 12 -52 12 -31 0 -56 3 -56 6 0 3 34 45 75 94 41 48 72 89
70 91 -2 3 -24 3 -49 1 -44 -4 -48 -7 -121 -97 l-76 -94 -56 -3 c-34 -2 -58
-8 -61 -15 -2 -9 10 -13 43 -13 l46 0 -59 -72 c-33 -40 -77 -91 -99 -114 -56
-57 -158 -141 -227 -186 -60 -38 -116 -50 -116 -24 0 7 12 31 26 52 15 21 76
99 136 172 61 73 108 136 105 139 -4 3 -26 2 -50 -1 -39 -6 -50 -15 -107 -82
-61 -73 -176 -176 -271 -243 -48 -33 -118 -63 -131 -54 -5 2 -8 10 -8 17 0 7
41 59 90 117 50 57 97 118 105 136 8 17 15 41 15 53 0 12 -5 30 -10 41 -16 29
-76 25 -147 -11 -33 -17 -81 -48 -106 -70 -25 -22 -48 -40 -51 -40 -3 0 30 44
72 98 43 53 109 137 147 186 l69 89 -44 -7 c-24 -4 -45 -8 -45 -9 0 -1 -34
-42 -75 -92 -40 -49 -119 -137 -174 -194 -101 -104 -271 -250 -336 -290 -41
-25 -80 -28 -80 -6 0 9 8 28 17 43 21 32 192 246 227 283 14 15 22 30 19 33
-4 3 -23 6 -44 6 -30 0 -43 -7 -68 -35 -24 -28 -31 -32 -31 -17 0 10 -8 26
-18 35 -10 10 -35 17 -55 17 -20 0 -59 -8 -85 -18 -27 -11 -69 -33 -94 -50
-66 -45 -131 -112 -163 -166 -20 -33 -28 -61 -28 -98 -1 -41 3 -54 22 -69 13
-11 34 -19 47 -19 36 0 92 26 140 65 23 19 45 35 48 35 3 0 6 -15 6 -33 0 -38
25 -67 59 -67 49 0 164 78 296 200 l69 65 -75 -90 c-213 -254 -369 -444 -369
-449 0 -3 20 -6 43 -6 l44 0 108 133 c199 241 278 329 357 396 128 108 233
163 252 132 7 -10 -23 -49 -122 -163 -79 -91 -103 -142 -84 -183 6 -13 23 -27
37 -31 15 -4 44 0 69 10 53 21 118 62 181 118 l47 41 -21 -39 c-12 -21 -21
-53 -21 -70 0 -17 8 -38 18 -47 10 -10 32 -17 49 -17 48 0 146 58 242 144 34
30 34 30 18 4 -9 -15 -19 -44 -23 -66 -5 -32 -2 -44 15 -61 13 -13 34 -21 54
-21 18 0 55 11 83 25 27 13 78 47 112 75 l63 51 -7 -48 c-5 -40 -2 -53 16 -75
13 -17 31 -28 46 -28 36 0 91 26 149 69 l50 38 -3 -38 c-3 -31 0 -40 22 -54
18 -12 36 -15 60 -11 41 8 115 56 199 129 56 48 59 49 43 20 -9 -18 -17 -50
-18 -73 -1 -26 5 -47 17 -60 32 -35 99 -23 192 36 63 40 205 173 197 185 -3 5
-39 -21 -80 -57 -105 -91 -189 -144 -231 -144 -28 0 -33 4 -33 23 0 29 54 114
147 232 58 75 85 99 185 166 64 43 161 115 216 158 54 44 133 116 174 160 72
76 118 148 118 183 0 23 -28 48 -53 48 -12 0 -40 -9 -62 -19z m74 -24 c8 -10
6 -23 -7 -49 -10 -19 -36 -56 -56 -82 -61 -73 -272 -250 -426 -356 l-35 -24
40 49 c174 218 367 425 425 455 19 11 38 19 41 20 4 0 12 -6 18 -13z m-2785
-583 c9 -3 16 -16 16 -28 0 -12 -14 -44 -31 -72 -43 -66 -174 -196 -226 -223
-23 -11 -54 -21 -68 -21 -19 0 -25 5 -25 20 0 12 7 35 16 53 25 49 109 150
167 203 49 44 97 73 124 74 6 0 18 -3 27 -6z m1764 -21 c2 -12 -6 -39 -17 -61
-27 -53 -160 -193 -220 -231 -26 -17 -60 -31 -74 -31 -23 0 -27 4 -27 29 0 17
16 53 40 89 50 74 159 186 208 212 20 11 48 19 62 17 17 -1 26 -9 28 -24z
M4721 1269 c-45 -18 -149 -99 -228 -177 -91 -90 -236 -254 -355 -402 -131
-164 -377 -370 -440 -370 -16 0 -28 5 -28 13 0 22 52 97 158 226 56 68 102
128 102 133 0 4 -18 8 -40 8 -32 0 -45 -6 -67 -30 l-27 -31 -13 25 c-8 14 -25
29 -39 32 -39 10 -100 -2 -160 -31 -29 -14 -90 -60 -135 -101 -111 -102 -220
-190 -271 -219 -24 -14 -55 -25 -70 -25 -16 0 -28 3 -28 6 0 14 29 55 98 138
74 90 102 137 102 176 0 11 -9 29 -20 40 -11 11 -32 20 -47 20 -15 0 -51 -12
-80 -26 -29 -15 -77 -49 -107 -75 -30 -27 -57 -49 -60 -49 -4 0 0 13 9 30 8
16 15 42 15 58 0 31 -26 62 -54 62 -42 0 -96 -37 -204 -142 -138 -134 -215
-199 -259 -222 -18 -9 -41 -16 -53 -16 -11 0 -20 6 -20 13 0 22 51 95 158 227
56 69 102 128 102 132 0 5 -17 8 -37 8 -28 0 -45 -8 -70 -32 -23 -22 -33 -27
-33 -17 0 9 -9 24 -20 34 -15 14 -31 17 -69 13 -55 -5 -132 -41 -203 -93 -26
-19 -66 -60 -89 -90 -23 -31 -48 -77 -54 -103 -14 -53 -5 -100 22 -120 32 -24
91 -7 168 46 l71 49 -4 -34 c-3 -23 1 -40 13 -53 10 -11 30 -20 45 -20 57 0
131 52 291 205 87 84 175 160 195 170 44 21 62 9 43 -26 -17 -33 -81 -115
-182 -234 l-85 -100 43 -3 43 -3 149 148 c81 82 167 161 190 177 51 34 115 57
126 46 5 -4 4 -17 -2 -28 -6 -12 -45 -60 -86 -109 -41 -48 -82 -102 -90 -120
-8 -17 -15 -43 -15 -57 0 -14 10 -36 21 -47 17 -17 29 -20 61 -16 21 3 64 20
94 39 31 18 80 55 110 81 47 43 53 45 44 22 -5 -14 -10 -42 -10 -61 0 -24 8
-43 25 -59 14 -15 36 -25 53 -25 36 0 118 41 160 80 l32 31 0 -39 c0 -45 23
-72 61 -72 13 0 44 9 68 20 47 22 92 55 189 138 34 29 62 52 62 49 0 -2 -7
-19 -16 -37 -9 -18 -19 -52 -22 -76 -4 -36 -1 -46 21 -68 19 -19 37 -26 64
-26 43 0 120 33 190 81 65 45 194 169 187 180 -3 6 -36 -17 -72 -49 -37 -32
-96 -80 -130 -105 -63 -46 -150 -81 -177 -71 -7 3 -16 13 -20 21 -3 9 6 39 19
67 31 62 175 257 207 280 13 10 69 47 124 83 55 36 138 96 185 133 47 37 113
97 147 132 33 35 75 86 92 113 17 27 31 61 31 76 0 15 -7 35 -16 43 -17 18
-47 20 -83 5z m69 -47 c0 -31 -57 -110 -130 -181 -38 -38 -105 -96 -147 -129
-110 -86 -228 -169 -218 -151 16 27 189 234 269 323 45 49 101 104 125 122 26
20 55 34 72 34 21 0 29 -5 29 -18z m-2302 -583 c4 -36 -63 -132 -148 -213 -38
-36 -88 -75 -111 -86 -22 -12 -50 -20 -62 -18 -17 2 -22 9 -20 32 1 16 19 54
39 85 46 69 167 190 214 214 19 9 46 16 60 15 19 -2 26 -10 28 -29z m1262 16
c10 -12 7 -25 -15 -71 -16 -34 -60 -89 -109 -139 -58 -60 -98 -92 -140 -111
-51 -23 -60 -25 -73 -11 -13 13 -13 20 6 62 40 89 163 224 246 268 17 9 40 16
51 17 12 0 27 -7 34 -15z M7601 911 c-12 -12 -21 -27 -21 -34 0 -7 6 -21 13
-31 8 -11 22 -17 37 -14 12 1 32 16 44 31 16 21 18 32 10 45 -16 25 -59 27
-83 3z"/>
</g>
</svg>
