<?xml version="1.0" standalone="no"?>
<!DOCTYPE svg PUBLIC "-//W3C//DTD SVG 20010904//EN"
 "http://www.w3.org/TR/2001/REC-SVG-20010904/DTD/svg10.dtd">
<svg version="1.0" xmlns="http://www.w3.org/2000/svg"
 width="980.000000pt" height="190.000000pt" viewBox="0 0 980.000000 190.000000"
 preserveAspectRatio="xMidYMid meet">
<metadata>
Created by potrace 1.16, written by Peter Selinger 2001-2019
</metadata>
<g transform="translate(0.000000,190.000000) scale(0.100000,-0.100000)"
fill="#f1ead8" stroke="none">
<path d="M2646 1625 c-32 -13 -83 -40 -112 -59 l-54 -36 -49 25 c-93 47 -186
67 -337 72 -106 4 -166 1 -240 -11 -311 -53 -603 -227 -748 -444 -108 -164
-114 -321 -13 -409 53 -46 97 -58 222 -58 120 0 191 18 311 77 190 93 361 299
372 448 3 46 0 60 -19 84 -48 61 -131 71 -256 31 -141 -44 -308 -174 -400
-311 -53 -79 -56 -84 -45 -84 5 0 21 18 35 39 97 146 265 280 417 331 88 30
193 25 221 -9 45 -55 1 -167 -113 -286 -92 -97 -165 -154 -271 -210 -110 -58
-184 -79 -283 -78 -147 0 -216 54 -222 173 -7 117 48 227 178 357 195 195 475
316 765 330 169 8 345 -25 414 -76 l23 -18 -33 -23 c-51 -36 -213 -196 -283
-280 -35 -41 -125 -158 -201 -260 -166 -222 -250 -323 -341 -415 -121 -119
-236 -194 -353 -229 -70 -21 -200 -21 -249 -1 -67 28 -112 88 -58 78 75 -15
105 93 31 111 -60 15 -113 -50 -94 -118 21 -73 89 -108 221 -114 153 -7 286
30 438 121 190 113 298 232 555 612 151 222 232 329 320 421 l76 79 28 -33
c80 -94 64 -263 -38 -409 -60 -85 -126 -145 -206 -186 -52 -27 -71 -31 -140
-32 -44 0 -87 2 -95 5 -9 3 -15 -1 -15 -10 0 -10 19 -20 54 -29 110 -30 292
23 400 115 65 56 126 145 151 220 18 53 21 82 18 143 -5 86 -27 138 -85 202
-30 33 -34 42 -22 50 59 39 149 89 172 94 15 4 27 13 27 21 0 18 -5 18 -74
-11z M5625 1479 c-141 -26 -282 -93 -362 -171 -176 -172 -112 -405 122 -443
92 -14 89 -6 30 -94 -76 -114 -99 -177 -99 -281 -1 -107 19 -152 89 -195 46
-28 54 -30 149 -29 89 0 110 4 181 32 201 80 365 246 365 369 0 131 -177 133
-364 4 -56 -39 -174 -166 -205 -221 -34 -60 -12 -46 45 30 99 130 270 245 384
257 47 4 59 2 83 -17 57 -45 18 -141 -102 -252 -267 -247 -623 -231 -556 26
20 77 52 137 123 231 86 115 108 135 143 135 112 0 434 97 603 182 225 112
376 253 376 348 0 12 -13 35 -29 51 -26 26 -36 29 -94 29 -232 0 -641 -228
-954 -533 l-61 -60 -49 7 c-164 23 -260 112 -238 219 28 133 172 253 385 323
75 24 103 28 240 31 85 2 157 6 160 11 14 20 -268 28 -365 11z m949 -55 c85
-85 -187 -307 -535 -437 -112 -42 -260 -82 -339 -91 l-55 -7 90 87 c228 218
505 403 670 449 71 19 150 19 169 -1z M9175 1271 c-118 -53 -318 -256 -627
-634 -85 -103 -223 -229 -317 -289 -45 -28 -91 -37 -91 -17 0 26 64 115 192
266 43 51 78 95 78 98 0 3 -20 5 -44 5 -39 0 -48 -4 -75 -37 -26 -32 -31 -34
-31 -17 0 32 -32 54 -77 54 -70 0 -175 -61 -283 -165 -153 -148 -249 -215
-305 -215 -54 0 -31 44 131 248 l126 157 71 5 c44 3 72 10 75 18 3 8 -12 12
-52 12 -31 0 -56 3 -56 6 0 3 34 45 75 94 41 48 72 89 70 91 -2 3 -24 3 -49 1
-44 -4 -48 -7 -121 -97 l-75 -94 -57 -3 c-70 -4 -84 -25 -20 -30 l45 -3 -76
-92 c-143 -171 -367 -341 -412 -313 -23 14 5 59 139 223 67 81 121 149 121
152 0 3 -21 2 -47 -1 -41 -4 -53 -11 -82 -47 -87 -107 -269 -265 -356 -310
-44 -22 -79 -25 -83 -7 -1 9 38 63 88 120 116 135 137 179 110 231 -25 45
-157 3 -253 -81 -25 -22 -48 -40 -51 -40 -3 0 30 44 72 98 43 53 109 137 147
186 l69 89 -44 -7 c-24 -4 -45 -8 -45 -9 -6 -16 -173 -207 -249 -286 -101
-104 -271 -250 -336 -290 -67 -40 -100 -22 -63 37 20 32 161 210 210 265 18
20 33 42 33 47 0 6 -18 10 -39 10 -32 0 -44 -6 -70 -35 -24 -28 -31 -32 -31
-17 0 36 -35 55 -89 50 -134 -13 -324 -173 -352 -297 -12 -55 9 -107 46 -117
39 -10 97 11 154 56 28 22 53 40 56 40 3 0 5 -15 5 -33 0 -38 25 -67 59 -67
49 0 164 78 296 200 l69 65 -75 -90 c-196 -234 -369 -445 -369 -450 0 -3 20
-5 43 -5 l44 0 108 133 c199 241 278 329 357 396 128 108 233 163 252 132 7
-10 -23 -49 -122 -163 -79 -91 -103 -142 -84 -183 30 -65 147 -26 287 97 l47
41 -21 -39 c-39 -72 -19 -134 43 -134 50 0 150 59 245 144 34 30 34 30 18 4
-9 -15 -19 -44 -23 -66 -5 -32 -2 -44 15 -61 44 -44 131 -16 249 79 l63 51 -7
-50 c-6 -44 -4 -52 19 -75 15 -14 35 -26 47 -26 32 0 89 27 145 69 l50 38 -3
-38 c-3 -31 0 -40 22 -54 50 -33 125 1 259 118 56 48 59 49 43 20 -22 -44 -21
-115 2 -136 49 -44 174 11 305 134 101 94 108 127 9 41 -133 -116 -190 -152
-242 -152 -25 0 -30 4 -30 23 0 29 54 114 147 232 58 75 85 99 185 166 286
192 508 411 508 501 0 23 -28 48 -53 48 -12 0 -40 -9 -62 -19z m74 -25 c40
-48 -204 -292 -474 -476 l-50 -34 40 50 c225 280 411 470 466 474 4 0 12 -6
18 -14z m-2785 -582 c44 -17 -7 -109 -123 -225 -78 -79 -141 -119 -186 -119
-48 0 -28 60 57 167 81 102 178 181 225 183 6 0 18 -3 27 -6z m1764 -21 c5
-35 -32 -95 -113 -181 -83 -89 -158 -142 -198 -142 -23 0 -27 4 -27 29 0 58
161 254 247 300 48 26 87 24 91 -6z M4706 1260 c-120 -60 -344 -287 -583 -590
-115 -145 -363 -350 -425 -350 -16 0 -28 5 -28 13 0 22 51 95 158 227 56 69
102 128 102 132 0 5 -18 8 -40 8 -32 0 -45 -6 -67 -30 l-27 -31 -13 25 c-16
30 -49 41 -104 33 -66 -9 -144 -54 -231 -134 -127 -117 -238 -204 -292 -229
-48 -22 -76 -22 -76 0 0 6 39 58 87 116 47 58 92 120 100 139 26 61 -1 111
-59 111 -36 0 -122 -48 -182 -101 -30 -27 -57 -49 -60 -49 -4 0 0 13 9 30 20
39 19 83 -3 103 -44 40 -101 10 -241 -126 -184 -179 -260 -237 -311 -237 -11
0 -20 6 -20 13 0 22 51 95 158 227 56 69 102 129 102 133 0 5 -17 7 -37 6 -26
-2 -48 -12 -71 -33 -22 -21 -32 -25 -32 -15 0 9 -9 24 -20 34 -64 57 -280 -51
-374 -189 -33 -46 -41 -67 -44 -115 -4 -51 -1 -62 18 -81 40 -40 94 -22 225
75 20 14 21 13 17 -21 -5 -43 19 -74 58 -74 57 0 131 52 291 205 156 150 221
197 241 177 17 -17 -25 -79 -185 -267 l-85 -100 44 -3 45 -3 121 126 c67 70
148 147 180 171 70 54 146 90 160 76 14 -14 0 -37 -87 -139 -108 -127 -128
-180 -84 -224 43 -43 146 -1 267 106 33 29 52 42 47 30 -4 -11 -10 -39 -13
-62 -3 -35 0 -46 22 -67 15 -16 36 -26 54 -26 36 0 118 41 160 80 l32 31 0
-39 c0 -26 7 -45 20 -57 42 -38 135 4 280 127 44 38 80 67 80 65 0 -2 -7 -19
-16 -37 -9 -18 -19 -52 -22 -76 -4 -36 -1 -46 21 -68 46 -46 134 -27 254 55
65 45 194 169 187 180 -3 6 -36 -17 -72 -49 -142 -125 -260 -194 -305 -177
-43 17 -26 65 70 203 86 124 137 173 253 247 244 154 460 369 460 456 0 33
-24 59 -53 59 -12 -1 -39 -9 -61 -20z m84 -38 c0 -53 -128 -194 -285 -316
-118 -92 -220 -163 -210 -146 15 26 186 232 264 319 97 108 164 161 202 161
21 0 29 -5 29 -18z m-2302 -583 c6 -55 -161 -250 -259 -299 -136 -70 -97 65
65 225 77 76 126 106 166 103 19 -2 26 -10 28 -29z m1263 15 c36 -43 -150
-267 -265 -320 -52 -23 -60 -25 -73 -11 -53 52 203 345 303 347 12 0 28 -7 35
-16z M7612 923 c-21 -8 -33 -52 -21 -74 15 -28 57 -21 83 14 16 21 18 32 10
45 -11 17 -48 25 -72 15z"/>
</g>
</svg>
