<?xml version="1.0" standalone="no"?>
<!DOCTYPE svg PUBLIC "-//W3C//DTD SVG 20010904//EN"
 "http://www.w3.org/TR/2001/REC-SVG-20010904/DTD/svg10.dtd">
<svg version="1.0" xmlns="http://www.w3.org/2000/svg"
 width="980.000000pt" height="190.000000pt" viewBox="0 0 980.000000 190.000000"
 preserveAspectRatio="xMidYMid meet">
<metadata>
Created by potrace 1.16, written by Peter Selinger 2001-2019
</metadata>
<g transform="translate(0.000000,190.000000) scale(0.100000,-0.100000)"
fill="#f1ead8" stroke="none">
<path d="M2654 1629 c-28 -10 -79 -36 -114 -58 l-64 -38 -60 28 c-117 55 -173
64 -376 63 -167 0 -194 -3 -283 -27 -412 -111 -738 -405 -737 -665 1 -139 87
-218 251 -229 278 -20 600 179 705 435 35 86 32 143 -10 190 l-35 37 -83 -1
c-59 0 -100 -6 -142 -22 -156 -57 -320 -197 -415 -354 -35 -58 -9 -45 34 17
117 170 345 323 497 333 90 5 133 -12 143 -57 14 -66 -29 -153 -134 -264 -170
-178 -376 -282 -556 -280 -202 3 -271 145 -170 350 48 99 200 255 318 328 312
192 730 241 980 113 22 -11 37 -21 35 -22 -1 -2 -35 -30 -73 -62 -115 -96
-244 -242 -401 -452 -312 -418 -454 -565 -626 -653 -152 -77 -337 -80 -415 -7
-32 30 -29 45 6 40 57 -8 92 57 51 98 -24 24 -41 25 -80 5 -64 -33 -58 -125
11 -178 47 -35 99 -47 202 -47 215 0 433 103 623 294 107 108 163 181 354 461
154 226 231 326 324 420 l59 59 27 -33 c128 -153 -6 -474 -249 -594 -55 -27
-77 -32 -136 -32 -38 0 -79 2 -90 5 -13 3 -20 0 -20 -10 0 -29 97 -45 189 -32
167 24 324 138 397 287 32 65 34 77 34 170 0 112 -14 151 -81 225 l-35 38 33
25 c35 27 115 69 161 86 16 6 25 15 22 21 -8 13 -11 13 -71 -11z M5627 1480
c-130 -22 -269 -86 -352 -161 -154 -141 -150 -340 8 -420 32 -17 148 -48 180
-49 4 0 -8 -21 -28 -47 -20 -26 -55 -85 -78 -131 -36 -74 -41 -93 -45 -170 -5
-109 18 -161 91 -206 177 -109 558 52 678 286 27 53 25 123 -4 152 -50 50
-175 39 -287 -27 -67 -39 -227 -196 -258 -254 -34 -62 -13 -52 38 18 138 190
396 320 482 242 45 -40 0 -141 -107 -241 -157 -146 -371 -217 -492 -163 -112
51 -94 219 44 403 105 139 111 144 189 151 154 15 399 94 587 189 245 125 386
273 348 366 -37 90 -229 66 -479 -59 -212 -105 -358 -208 -555 -390 l-98 -91
-47 6 c-170 24 -264 118 -233 234 33 122 176 241 361 300 101 32 181 43 308
41 117 -1 153 9 77 23 -53 9 -267 8 -328 -2z m947 -56 c87 -86 -194 -311 -556
-445 -82 -30 -242 -71 -328 -84 l-45 -7 30 32 c130 139 428 366 582 444 134
67 282 95 317 60z M9163 1265 c-111 -56 -292 -235 -539 -535 -155 -189 -258
-289 -381 -373 -56 -37 -103 -48 -103 -24 0 20 84 135 184 255 47 56 86 105
86 107 0 3 -20 5 -44 5 -39 0 -48 -4 -75 -37 -26 -32 -31 -34 -31 -17 0 38
-34 57 -89 52 -79 -8 -155 -53 -266 -159 -160 -153 -253 -219 -310 -219 -55 0
-31 44 139 257 l121 152 69 3 c89 4 103 26 20 30 l-58 3 78 93 c43 52 76 95
74 96 -1 1 -24 1 -50 -2 -46 -4 -49 -6 -123 -97 l-76 -94 -56 -3 c-70 -4 -84
-25 -19 -30 l44 -3 -77 -91 c-133 -157 -329 -314 -392 -314 -55 0 -37 32 132
237 60 72 109 134 109 137 0 3 -19 6 -41 6 -38 0 -46 -5 -87 -52 -124 -143
-309 -295 -390 -323 -79 -27 -70 1 37 124 116 132 138 180 111 232 -26 47
-155 5 -254 -83 -24 -21 -47 -38 -50 -38 -3 0 39 55 92 123 188 235 196 247
170 246 -48 -2 -67 -17 -143 -109 -149 -180 -357 -378 -499 -474 -45 -31 -86
-35 -86 -8 0 20 97 151 198 269 39 44 68 84 65 87 -4 3 -23 6 -44 6 -30 0 -43
-7 -68 -35 -24 -28 -31 -32 -31 -17 0 36 -35 55 -89 50 -154 -15 -355 -202
-355 -331 0 -107 97 -115 219 -17 l40 32 6 -42 c8 -59 41 -74 106 -49 39 15
165 111 247 188 l70 66 -75 -90 c-243 -291 -369 -444 -369 -450 0 -3 20 -5 45
-3 l45 3 188 225 c194 233 298 335 414 403 70 41 108 48 108 18 0 -10 -38 -61
-85 -112 -86 -94 -125 -157 -125 -197 0 -29 34 -62 63 -62 36 0 137 54 205
109 34 28 62 49 62 47 0 -2 -7 -17 -15 -32 -20 -39 -19 -87 3 -107 42 -38 130
-7 245 88 37 31 67 54 67 51 0 -2 -7 -17 -15 -32 -33 -64 -5 -124 58 -124 44
0 118 38 194 99 l62 50 -6 -47 c-4 -38 -1 -52 17 -74 35 -46 98 -32 195 41
l51 38 -4 -34 c-3 -23 1 -40 13 -53 38 -42 110 -16 235 85 47 39 80 60 76 49
-16 -37 -24 -87 -19 -103 25 -70 96 -67 213 7 64 40 202 171 194 183 -3 5 -39
-21 -80 -57 -141 -123 -243 -173 -261 -128 -9 24 17 71 117 203 85 113 99 127
198 193 231 155 407 308 482 421 43 64 49 96 24 121 -22 22 -52 20 -111 -9z
m86 -18 c41 -50 -195 -285 -489 -487 l-35 -24 40 49 c214 269 412 471 466 475
4 0 12 -6 18 -13z m-2785 -583 c58 -22 -77 -211 -216 -304 -138 -92 -156 -22
-33 130 103 128 197 194 249 174z m1764 -21 c5 -35 -32 -95 -113 -181 -83 -89
-158 -142 -198 -142 -23 0 -27 4 -27 29 0 58 163 255 249 301 47 25 85 22 89
-7z M4694 1254 c-122 -65 -294 -241 -590 -606 -64 -78 -217 -216 -318 -287
-60 -42 -116 -55 -116 -27 0 21 70 121 170 239 49 59 90 112 90 117 0 6 -18
10 -39 10 -32 0 -46 -6 -70 -32 -17 -18 -31 -27 -31 -20 0 26 -40 52 -80 52
-85 0 -165 -45 -296 -165 -109 -100 -200 -172 -246 -196 -37 -19 -88 -26 -88
-11 0 14 39 67 99 137 96 111 121 175 81 215 -39 39 -122 13 -218 -68 -24 -21
-53 -44 -64 -52 -20 -14 -20 -14 -4 17 21 42 20 86 -2 106 -48 43 -112 6 -280
-161 -127 -126 -228 -202 -268 -202 -48 0 -24 42 135 240 56 69 101 128 101
133 0 4 -17 7 -37 7 -28 0 -45 -8 -70 -32 -23 -22 -33 -27 -33 -17 0 33 -36
52 -90 47 -157 -15 -353 -202 -353 -336 0 -98 78 -107 198 -24 l71 49 -4 -34
c-5 -42 20 -73 58 -73 57 0 131 52 288 202 151 145 216 194 239 180 21 -13
-12 -64 -139 -217 l-125 -150 43 -3 43 -3 143 145 c148 150 249 226 300 226
15 0 28 -4 28 -8 0 -12 -48 -76 -113 -150 -88 -101 -108 -161 -66 -203 42 -42
146 -1 265 104 47 43 53 45 44 22 -28 -72 6 -145 68 -145 36 0 117 40 160 79
l32 30 0 -38 c0 -113 116 -88 292 64 l86 74 -19 -50 c-37 -97 -11 -159 68
-159 75 0 219 88 331 203 66 67 54 84 -14 21 -121 -112 -234 -184 -293 -186
-66 -2 -59 46 24 167 95 139 143 194 206 233 214 132 461 346 508 439 52 105
0 153 -105 97z m96 -32 c0 -51 -127 -192 -280 -312 -92 -73 -220 -163 -220
-156 0 23 340 408 400 452 50 38 100 45 100 16z m-2302 -583 c9 -77 -232 -319
-318 -319 -34 0 -34 25 2 92 37 71 173 214 228 241 49 24 84 19 88 -14z m1261
12 c15 -28 -26 -103 -102 -186 -99 -108 -196 -168 -232 -141 -17 12 -16 15 4
61 25 57 113 167 172 215 85 69 139 87 158 51z M7600 910 c-11 -11 -20 -25
-20 -31 0 -24 22 -49 44 -49 25 0 66 38 66 61 0 40 -57 52 -90 19z"/>
</g>
</svg>
