<?xml version="1.0" standalone="no"?>
<!DOCTYPE svg PUBLIC "-//W3C//DTD SVG 20010904//EN"
 "http://www.w3.org/TR/2001/REC-SVG-20010904/DTD/svg10.dtd">
<svg version="1.0" xmlns="http://www.w3.org/2000/svg"
 width="980.000000pt" height="190.000000pt" viewBox="0 0 980.000000 190.000000"
 preserveAspectRatio="xMidYMid meet">
<metadata>
Created by potrace 1.16, written by Peter Selinger 2001-2019
</metadata>
<g transform="translate(0.000000,190.000000) scale(0.100000,-0.100000)"
fill="#f1ead8" stroke="none">
<path d="M2646 1625 c-32 -13 -83 -40 -112 -59 l-54 -36 -49 25 c-27 13 -82
34 -123 46 -54 16 -111 23 -218 26 -122 5 -164 2 -258 -16 -131 -25 -223 -57
-342 -116 -110 -56 -197 -118 -277 -197 -81 -79 -145 -174 -172 -255 -12 -34
-21 -86 -21 -115 1 -92 51 -168 135 -204 22 -9 78 -19 125 -21 92 -5 183 10
280 49 183 73 352 230 415 386 31 78 33 140 3 177 -12 15 -36 34 -54 41 -19 8
-55 14 -81 14 -68 0 -198 -49 -282 -104 -88 -59 -185 -153 -238 -232 -53 -79
-56 -84 -45 -84 5 0 21 17 35 38 98 148 264 280 417 332 49 17 82 21 134 18
57 -3 72 -8 87 -27 11 -13 19 -37 19 -55 0 -55 -54 -149 -132 -231 -40 -43
-99 -98 -131 -122 -74 -57 -206 -127 -282 -149 -34 -10 -94 -18 -140 -18 -64
0 -90 5 -128 23 -66 32 -91 71 -95 151 -3 47 2 81 16 122 27 76 81 156 162
236 192 193 476 315 765 329 71 3 150 1 193 -6 87 -14 188 -46 221 -70 l23
-18 -33 -23 c-51 -36 -213 -196 -283 -280 -35 -41 -125 -158 -201 -260 -76
-102 -169 -222 -207 -267 -176 -211 -329 -330 -487 -377 -30 -9 -90 -16 -133
-16 -84 0 -136 16 -175 52 -26 24 -31 50 -8 42 24 -10 64 5 76 27 27 52 -25
102 -83 78 -16 -6 -33 -20 -38 -30 -6 -10 -10 -35 -10 -57 0 -48 27 -85 83
-114 33 -17 64 -23 143 -26 80 -3 119 0 185 17 97 24 221 81 311 142 87 59
232 206 315 319 38 52 118 167 178 255 149 221 231 329 320 421 l76 79 28 -33
c80 -94 64 -263 -38 -409 -27 -38 -71 -89 -98 -113 -26 -23 -80 -58 -120 -77
-65 -31 -79 -34 -140 -31 -37 2 -75 6 -83 8 -9 3 -15 -1 -15 -10 0 -8 19 -20
45 -28 85 -25 233 3 339 65 99 58 184 161 222 271 16 44 20 75 16 137 -4 90
-25 140 -84 206 -30 33 -34 42 -22 50 59 39 149 89 172 94 15 4 27 13 27 21 0
8 -3 14 -7 14 -5 0 -34 -11 -67 -25z M5615 1475 c-83 -15 -185 -52 -247 -88
-69 -40 -141 -110 -171 -166 -15 -28 -30 -72 -34 -98 -7 -60 10 -123 43 -163
48 -56 102 -80 241 -106 20 -4 18 -9 -32 -83 -29 -43 -63 -105 -75 -138 -12
-32 -25 -91 -28 -130 -4 -64 -2 -79 22 -128 21 -42 38 -61 74 -83 43 -25 55
-27 147 -26 88 0 109 4 180 32 98 39 182 94 257 169 69 68 108 140 108 200 0
34 -6 49 -26 68 -14 13 -42 26 -62 30 -52 8 -123 -10 -206 -52 -51 -27 -96
-62 -161 -127 -49 -50 -101 -111 -114 -135 -13 -24 -19 -42 -14 -40 6 2 32 33
59 69 99 130 270 245 384 257 47 4 59 2 83 -17 19 -15 27 -30 27 -53 0 -81
-138 -233 -279 -306 -136 -71 -256 -89 -338 -52 -41 19 -64 49 -76 102 -8 33
15 124 47 187 26 50 125 188 170 235 18 18 37 27 57 27 56 0 232 40 354 81
148 49 321 131 419 199 124 86 206 186 206 250 0 12 -13 35 -29 51 -26 26 -36
29 -94 29 -35 0 -99 -9 -143 -20 -98 -25 -291 -118 -421 -202 -119 -76 -260
-188 -371 -292 l-82 -78 -48 6 c-79 12 -143 37 -183 73 -43 39 -64 96 -54 146
12 56 58 128 114 178 66 59 158 108 271 145 75 24 103 28 240 31 85 2 157 6
160 11 15 22 -263 28 -375 7z m956 -45 c28 -15 24 -66 -7 -112 -52 -74 -192
-177 -349 -255 -154 -77 -384 -152 -515 -167 l-55 -7 90 87 c109 104 241 211
355 288 101 68 245 141 315 161 61 16 140 19 166 5z M9175 1271 c-118 -53
-318 -256 -627 -634 -85 -103 -223 -229 -317 -289 -45 -28 -91 -37 -91 -17 0
26 64 115 192 266 43 51 78 95 78 98 0 3 -19 5 -41 5 -35 0 -47 -6 -75 -36
-28 -29 -34 -32 -34 -16 0 30 -32 52 -77 52 -26 0 -65 -13 -113 -36 -51 -26
-100 -63 -168 -128 -157 -150 -251 -216 -307 -216 -55 0 -27 51 144 265 l113
140 71 5 c44 3 72 10 75 18 3 8 -12 12 -52 12 -31 0 -56 3 -56 6 0 4 34 46 75
94 41 48 72 89 70 91 -2 2 -24 3 -49 1 -44 -4 -48 -7 -121 -97 l-75 -94 -57
-3 c-34 -2 -58 -8 -61 -15 -2 -9 10 -13 43 -13 l46 0 -63 -77 c-78 -97 -140
-158 -244 -239 -114 -89 -194 -122 -194 -79 0 19 45 81 163 225 60 73 107 133
105 135 -2 1 -24 -1 -49 -4 -44 -6 -52 -12 -116 -86 -85 -98 -237 -225 -320
-266 -60 -30 -83 -31 -83 -5 0 7 41 59 90 117 50 57 97 118 105 136 18 36 19
67 5 94 -25 45 -157 3 -253 -81 -25 -22 -48 -40 -51 -40 -3 0 29 44 72 98 43
53 109 137 147 186 l69 89 -44 -7 c-24 -4 -45 -8 -45 -9 0 -1 -34 -42 -75 -92
-144 -176 -360 -383 -491 -471 -54 -36 -99 -45 -99 -19 0 9 8 28 17 43 17 27
146 191 210 266 18 22 33 43 33 48 0 4 -18 8 -39 8 -32 0 -44 -6 -70 -35 -24
-28 -31 -32 -31 -17 0 10 -9 27 -20 37 -15 14 -31 17 -69 13 -27 -3 -73 -17
-103 -31 -114 -57 -229 -177 -248 -261 -5 -21 -4 -52 1 -71 16 -58 62 -70 134
-35 23 11 60 36 83 56 l42 36 0 -40 c0 -44 23 -72 59 -72 49 0 164 78 296 200
l69 65 -75 -90 c-196 -234 -369 -445 -369 -450 0 -3 20 -5 43 -5 l44 0 108
133 c199 241 278 329 357 396 128 108 233 163 252 132 7 -10 -23 -49 -122
-163 -79 -91 -103 -142 -84 -183 6 -13 23 -27 37 -31 48 -12 150 40 250 128
l47 41 -21 -39 c-26 -48 -27 -95 -3 -117 10 -10 31 -17 46 -17 50 0 150 59
245 144 34 30 34 30 18 4 -9 -15 -19 -44 -23 -66 -5 -32 -2 -44 15 -61 13 -13
34 -21 54 -21 44 0 118 38 195 100 l63 51 -7 -50 c-6 -44 -4 -52 19 -75 15
-14 35 -26 47 -26 32 0 89 27 145 69 l50 38 -3 -38 c-3 -31 0 -40 22 -54 18
-12 36 -15 60 -11 39 8 114 56 198 128 l58 50 -15 -36 c-21 -49 -19 -109 3
-129 10 -10 32 -17 49 -17 54 0 164 65 256 151 48 44 84 85 81 90 -3 5 -35
-17 -72 -49 -133 -116 -190 -152 -242 -152 -25 0 -30 4 -30 23 0 29 54 114
147 232 58 75 85 99 185 166 158 106 299 221 390 318 72 76 118 148 118 183 0
23 -28 48 -53 48 -12 0 -40 -9 -62 -19z m74 -25 c20 -24 -23 -92 -118 -186
-82 -81 -249 -217 -356 -290 l-50 -34 40 50 c203 253 360 420 430 457 17 9 33
16 36 17 4 0 12 -6 18 -14z m-2771 -604 c5 -35 -44 -108 -132 -198 -83 -83
-145 -124 -191 -124 -19 0 -25 5 -25 20 0 12 7 35 16 53 45 86 186 235 249
263 16 8 41 13 55 11 18 -1 26 -9 28 -25z m1750 1 c5 -37 -26 -88 -109 -176
-86 -93 -161 -147 -202 -147 -23 0 -27 4 -27 29 0 17 16 53 40 88 51 77 157
186 207 212 49 26 87 24 91 -6z M4706 1260 c-58 -29 -132 -88 -225 -181 -84
-83 -260 -284 -358 -409 -115 -145 -363 -350 -425 -350 -17 0 -28 5 -28 14 0
21 69 119 169 241 50 61 91 113 91 116 0 3 -18 6 -40 7 -31 2 -45 -4 -65 -25
-14 -16 -25 -31 -25 -35 0 -5 -4 -8 -10 -8 -5 0 -7 6 -4 14 3 8 -4 24 -16 36
-19 19 -31 22 -75 18 -29 -3 -78 -17 -110 -33 -32 -15 -90 -58 -129 -95 -111
-104 -246 -211 -300 -236 -48 -22 -76 -22 -76 0 0 7 41 61 90 121 54 66 94
124 100 146 19 70 -19 111 -87 94 -36 -8 -141 -76 -178 -115 -16 -16 -33 -30
-37 -30 -5 0 -2 13 7 30 20 39 19 83 -3 103 -44 40 -102 9 -236 -121 -147
-143 -212 -200 -258 -223 -43 -22 -78 -25 -78 -6 0 22 51 95 158 227 56 69
102 129 102 133 0 5 -19 6 -42 2 -25 -4 -55 -18 -70 -33 -21 -19 -28 -22 -28
-10 0 25 -34 48 -73 48 -53 0 -127 -31 -200 -83 -65 -46 -137 -130 -156 -180
-6 -16 -11 -48 -11 -73 0 -31 6 -50 21 -65 17 -17 29 -20 61 -16 35 5 78 29
163 92 20 14 21 13 17 -21 -5 -43 19 -74 58 -74 57 0 131 52 291 205 87 84
175 160 195 170 44 21 62 9 43 -26 -17 -33 -81 -115 -182 -234 l-85 -100 44
-3 44 -3 122 127 c68 70 149 147 180 171 70 53 146 89 160 75 14 -14 0 -37
-83 -134 -78 -91 -109 -144 -109 -183 0 -14 10 -35 21 -46 17 -17 29 -20 61
-16 48 6 131 56 206 122 33 29 52 42 47 30 -4 -11 -10 -39 -13 -62 -3 -35 0
-46 22 -67 15 -16 36 -26 54 -26 36 0 118 41 160 80 l32 31 0 -39 c0 -26 7
-45 20 -57 43 -39 138 5 285 132 84 73 85 73 64 32 -12 -22 -24 -60 -27 -84
-4 -37 -1 -47 21 -69 19 -19 37 -26 64 -26 43 0 120 33 190 81 63 44 194 169
187 180 -3 5 -37 -19 -77 -54 -40 -34 -96 -79 -125 -101 -61 -44 -146 -79
-172 -71 -45 14 -30 64 57 189 98 142 130 174 252 253 64 41 154 106 201 143
154 123 270 261 270 321 0 33 -24 59 -53 59 -12 -1 -39 -9 -61 -20z m84 -35
c0 -56 -123 -194 -280 -316 -107 -83 -220 -162 -220 -155 0 8 184 231 269 325
97 108 164 161 202 161 19 0 29 -5 29 -15z m-2302 -586 c4 -36 -63 -132 -148
-213 -76 -71 -139 -109 -173 -104 -17 2 -22 9 -20 32 1 16 19 54 39 85 46 69
167 190 214 214 19 9 46 16 60 15 19 -2 26 -10 28 -29z m1263 15 c11 -14 9
-25 -16 -72 -17 -32 -65 -93 -110 -139 -57 -58 -98 -90 -139 -109 -52 -23 -60
-25 -73 -11 -13 13 -13 20 6 62 26 59 108 162 169 213 84 70 136 88 163 56z
M7608 918 c-9 -7 -19 -23 -22 -34 -8 -27 18 -56 47 -52 11 2 29 15 40 29 15
22 17 30 8 48 -13 24 -49 28 -73 9z"/>
</g>
</svg>
