<?xml version="1.0" standalone="no"?>
<!DOCTYPE svg PUBLIC "-//W3C//DTD SVG 20010904//EN"
 "http://www.w3.org/TR/2001/REC-SVG-20010904/DTD/svg10.dtd">
<svg version="1.0" xmlns="http://www.w3.org/2000/svg"
 width="980.000000pt" height="190.000000pt" viewBox="0 0 980.000000 190.000000"
 preserveAspectRatio="xMidYMid meet">
<metadata>
Created by potrace 1.16, written by Peter Selinger 2001-2019
</metadata>
<g transform="translate(0.000000,190.000000) scale(0.100000,-0.100000)"
fill="#f1ead8" stroke="none">
<path d="M2646 1625 c-32 -13 -83 -40 -112 -59 l-54 -36 -49 25 c-27 13 -82
34 -123 46 -54 16 -111 23 -218 26 -122 5 -164 2 -258 -16 -131 -25 -223 -57
-342 -116 -110 -56 -197 -118 -277 -197 -81 -79 -145 -174 -172 -255 -36 -106
-25 -196 32 -260 18 -20 52 -45 76 -56 65 -28 189 -34 287 -12 104 22 232 83
321 151 133 102 230 248 240 363 5 51 3 60 -21 88 -15 17 -43 37 -63 44 -21 7
-59 9 -94 6 -124 -14 -273 -93 -393 -211 -34 -34 -81 -89 -103 -122 -53 -79
-56 -84 -45 -84 5 0 26 25 46 55 53 76 157 177 237 231 38 25 97 57 131 72 52
21 79 26 151 27 81 0 90 -2 108 -24 10 -13 19 -37 19 -55 0 -55 -54 -149 -132
-231 -40 -43 -99 -98 -131 -122 -74 -57 -206 -127 -282 -149 -34 -10 -94 -18
-140 -18 -64 0 -90 5 -128 23 -28 13 -58 38 -72 59 -20 29 -25 49 -25 100 0
36 8 85 19 117 26 73 83 156 161 234 192 192 477 314 765 328 71 3 151 1 195
-6 85 -13 186 -45 220 -71 l22 -17 -33 -23 c-51 -36 -213 -196 -283 -280 -35
-41 -125 -158 -201 -260 -76 -102 -170 -223 -209 -270 -173 -208 -327 -327
-485 -374 -30 -9 -90 -16 -133 -16 -84 0 -136 16 -175 52 -26 24 -31 50 -8 42
24 -10 64 5 76 27 27 52 -25 102 -83 78 -16 -6 -33 -20 -38 -30 -6 -10 -10
-35 -10 -57 0 -48 27 -85 83 -114 33 -17 64 -23 143 -26 80 -3 119 0 185 17
97 24 220 81 311 142 35 24 106 86 158 138 100 100 159 177 375 494 132 193
255 348 321 407 l38 33 27 -32 c78 -94 62 -263 -40 -408 -59 -84 -133 -150
-210 -189 -48 -25 -68 -29 -136 -29 -44 0 -86 2 -94 5 -7 3 -15 0 -18 -6 -7
-20 60 -39 137 -38 206 1 402 143 471 342 16 44 20 75 16 137 -4 90 -25 140
-84 206 -30 33 -34 42 -22 50 59 39 149 89 172 94 15 4 27 13 27 21 0 8 -3 14
-7 14 -5 0 -34 -11 -67 -25z M5615 1476 c-84 -17 -186 -53 -247 -89 -69 -40
-141 -110 -171 -166 -15 -28 -30 -72 -34 -98 -7 -60 10 -123 43 -163 48 -56
102 -80 241 -106 20 -4 18 -9 -32 -83 -29 -43 -63 -105 -75 -138 -12 -32 -25
-91 -28 -130 -4 -64 -2 -79 22 -128 21 -42 38 -61 74 -83 43 -25 55 -27 147
-26 88 0 109 4 180 32 98 39 182 94 257 169 69 68 108 140 108 200 0 34 -6 49
-25 67 -14 13 -40 27 -58 30 -51 9 -131 -10 -210 -51 -52 -27 -97 -62 -162
-127 -49 -50 -101 -111 -114 -135 -13 -24 -19 -42 -14 -40 6 2 32 33 59 69 99
130 270 245 384 257 47 4 59 2 83 -17 19 -15 27 -30 27 -53 0 -81 -138 -233
-279 -306 -136 -71 -256 -89 -338 -52 -41 19 -64 49 -76 102 -8 33 15 124 47
187 26 50 125 188 170 235 18 18 37 27 57 27 56 0 232 40 354 81 148 49 321
131 419 199 124 86 206 186 206 250 0 12 -13 35 -29 51 -26 26 -36 29 -94 29
-35 0 -99 -9 -143 -20 -98 -25 -291 -118 -421 -202 -119 -76 -260 -188 -371
-292 l-82 -78 -48 6 c-79 12 -143 37 -183 73 -43 39 -64 96 -54 146 12 57 58
128 115 179 62 56 181 118 285 150 55 16 103 22 225 24 85 2 160 4 165 4 6 0
1 6 -10 12 -30 18 -286 20 -370 4z m956 -46 c28 -15 24 -66 -7 -112 -52 -74
-192 -177 -349 -255 -154 -77 -384 -152 -515 -167 l-55 -7 90 87 c177 169 383
321 538 395 47 22 107 47 134 54 59 16 138 19 164 5z M9175 1271 c-59 -26
-178 -126 -286 -238 -52 -55 -152 -169 -223 -254 -70 -85 -145 -175 -167 -201
-46 -55 -195 -183 -264 -227 -49 -31 -95 -41 -95 -20 0 26 64 115 191 265 43
51 75 95 72 98 -4 3 -22 6 -41 6 -27 0 -42 -8 -68 -36 -28 -29 -34 -32 -34
-16 0 30 -32 52 -77 52 -26 0 -65 -13 -113 -36 -51 -26 -100 -63 -168 -128
-157 -150 -251 -216 -307 -216 -55 0 -27 51 144 265 l113 140 71 5 c44 3 72
10 75 18 3 8 -12 12 -52 12 -31 0 -56 3 -56 7 0 3 33 45 74 94 41 48 73 89 71
91 -2 2 -24 2 -49 0 -44 -4 -48 -7 -121 -97 l-75 -94 -57 -3 c-34 -2 -58 -8
-61 -15 -2 -9 10 -13 43 -13 l46 0 -63 -77 c-34 -43 -85 -100 -113 -127 -74
-72 -207 -173 -256 -195 -43 -19 -69 -18 -69 3 0 21 40 77 155 216 62 76 112
140 110 142 -3 2 -24 2 -49 -2 -40 -5 -50 -12 -113 -85 -85 -98 -237 -225
-320 -266 -60 -30 -83 -31 -83 -5 0 7 39 57 86 112 91 105 124 158 124 198 0
13 -7 32 -16 40 -8 9 -30 16 -48 16 -43 0 -142 -50 -199 -100 -25 -22 -48 -40
-51 -40 -3 0 29 44 72 98 43 53 109 137 147 186 l69 89 -44 -7 c-24 -4 -45 -8
-45 -9 0 -1 -34 -42 -75 -92 -144 -176 -360 -383 -491 -471 -54 -36 -99 -45
-99 -19 0 9 8 28 17 43 17 27 146 191 210 266 18 22 33 43 33 48 0 5 -18 8
-41 6 -32 -1 -47 -9 -70 -35 -23 -27 -29 -30 -29 -15 0 10 -9 27 -20 37 -15
14 -31 17 -69 13 -27 -3 -73 -17 -103 -31 -67 -33 -158 -109 -200 -166 -74
-102 -63 -221 21 -221 34 0 99 33 149 76 l42 36 0 -40 c0 -44 23 -72 59 -72
49 0 164 78 296 200 38 36 57 49 41 30 -16 -19 -116 -140 -223 -267 -106 -128
-193 -235 -193 -238 0 -3 20 -5 43 -5 l44 0 108 133 c199 241 278 329 357 396
128 108 233 163 252 132 7 -10 -23 -49 -122 -163 -79 -91 -103 -142 -84 -183
6 -13 23 -27 37 -31 48 -12 150 40 250 128 l47 41 -21 -39 c-28 -52 -27 -98 1
-118 12 -9 33 -16 46 -16 46 0 149 62 241 144 34 30 34 30 18 4 -9 -15 -19
-44 -23 -66 -5 -32 -2 -44 15 -61 13 -13 34 -21 54 -21 44 0 118 38 195 100
l63 51 -7 -50 c-6 -44 -4 -52 19 -75 15 -14 35 -26 47 -26 32 0 89 27 145 69
l50 38 -3 -38 c-3 -31 0 -40 22 -54 18 -12 36 -15 60 -11 39 8 114 56 198 128
l58 50 -15 -36 c-8 -19 -15 -53 -15 -75 0 -30 6 -44 22 -55 12 -9 34 -16 49
-16 14 0 58 16 96 35 45 22 101 64 156 116 48 44 84 85 81 90 -3 6 -27 -9 -52
-33 -61 -56 -158 -131 -199 -152 -18 -9 -46 -16 -63 -16 -25 0 -30 4 -30 23 0
29 54 114 147 232 58 75 85 99 185 166 158 106 299 221 390 318 72 76 118 148
118 183 0 23 -28 48 -53 48 -12 0 -40 -9 -62 -19z m74 -25 c20 -24 -23 -92
-118 -186 -82 -81 -249 -217 -356 -290 l-50 -34 40 50 c203 253 360 420 430
457 17 9 33 16 36 17 4 0 12 -6 18 -14z m-2771 -604 c5 -35 -44 -108 -132
-198 -83 -83 -145 -124 -191 -124 -19 0 -25 5 -25 23 0 39 60 128 144 213 45
46 98 90 117 99 19 8 45 14 59 12 18 -1 26 -9 28 -25z m1750 1 c5 -37 -26 -88
-109 -176 -86 -93 -161 -147 -202 -147 -23 0 -27 4 -27 29 0 17 16 53 40 88
51 77 157 186 207 212 49 26 87 24 91 -6z M4687 1248 c-112 -61 -304 -256
-544 -553 -107 -132 -221 -238 -357 -334 -60 -42 -116 -55 -116 -27 0 21 69
119 169 241 50 61 91 112 91 115 0 3 -18 6 -39 8 -33 2 -45 -3 -65 -25 -14
-15 -26 -31 -26 -35 0 -5 -4 -8 -10 -8 -5 0 -7 6 -4 14 3 8 -4 24 -16 36 -19
19 -31 22 -75 18 -29 -3 -78 -17 -110 -33 -32 -15 -90 -58 -129 -95 -114 -107
-247 -211 -303 -237 -52 -24 -73 -24 -73 1 0 6 41 61 90 121 54 66 94 124 100
146 21 75 -24 116 -99 89 -47 -17 -116 -63 -168 -113 -44 -42 -53 -41 -28 3
20 35 19 84 -3 103 -44 40 -102 9 -236 -121 -147 -143 -212 -200 -258 -223
-43 -22 -78 -25 -78 -6 0 22 51 95 158 227 56 69 102 128 102 133 0 4 -19 5
-42 1 -29 -4 -52 -15 -70 -35 -24 -25 -28 -26 -28 -11 0 29 -33 52 -73 52 -53
0 -127 -31 -200 -83 -65 -46 -137 -130 -156 -180 -6 -16 -11 -48 -11 -73 0
-31 6 -50 21 -65 17 -17 29 -20 61 -16 35 5 78 29 163 92 20 14 21 13 17 -21
-5 -43 19 -74 58 -74 57 0 131 52 291 205 87 84 175 160 195 170 44 21 62 9
43 -26 -17 -33 -81 -115 -182 -234 l-85 -100 44 -3 44 -3 122 127 c68 70 149
147 180 171 72 55 146 89 161 74 13 -13 -18 -59 -98 -151 -64 -73 -95 -127
-95 -165 0 -32 33 -65 65 -65 14 0 42 7 62 15 40 17 127 78 182 129 26 23 32
26 26 11 -5 -11 -10 -39 -13 -62 -3 -35 0 -46 22 -67 15 -16 36 -26 54 -26 36
0 118 41 159 80 18 16 34 30 35 30 2 0 2 -16 0 -35 -3 -25 1 -42 14 -56 15
-17 27 -20 57 -16 51 7 130 56 232 144 84 73 85 73 64 32 -12 -22 -24 -60 -27
-84 -4 -37 -1 -47 21 -69 19 -19 37 -26 64 -26 43 0 120 33 190 81 63 44 194
169 187 180 -3 5 -37 -19 -77 -54 -105 -91 -171 -137 -228 -158 -54 -21 -83
-18 -93 7 -9 22 23 87 85 174 110 154 121 165 239 241 208 133 379 284 449
394 17 27 31 61 31 76 0 33 -24 59 -53 59 -12 0 -48 -15 -80 -32z m103 -23 c0
-56 -123 -194 -280 -316 -107 -83 -220 -162 -220 -155 0 8 184 231 269 325 97
108 164 161 202 161 19 0 29 -5 29 -15z m-2302 -586 c4 -36 -63 -132 -148
-213 -76 -71 -139 -109 -173 -104 -17 2 -22 9 -20 32 3 41 64 129 147 211 76
76 126 107 166 103 19 -2 26 -10 28 -29z m1263 15 c11 -14 9 -25 -16 -72 -17
-32 -65 -93 -110 -139 -57 -58 -98 -90 -139 -109 -50 -23 -60 -24 -72 -12 -12
11 -12 21 -3 49 16 48 112 171 173 223 87 74 140 93 167 60z M7608 918 c-9 -7
-19 -23 -22 -34 -8 -27 18 -56 47 -52 11 2 29 15 40 29 15 22 17 30 8 48 -13
24 -49 28 -73 9z"/>
</g>
</svg>
