<?xml version="1.0" standalone="no"?>
<!DOCTYPE svg PUBLIC "-//W3C//DTD SVG 20010904//EN"
 "http://www.w3.org/TR/2001/REC-SVG-20010904/DTD/svg10.dtd">
<svg version="1.0" xmlns="http://www.w3.org/2000/svg"
 width="980.000000pt" height="190.000000pt" viewBox="0 0 980.000000 190.000000"
 preserveAspectRatio="xMidYMid meet">
<metadata>
Created by potrace 1.16, written by Peter Selinger 2001-2019
</metadata>
<g transform="translate(0.000000,190.000000) scale(0.100000,-0.100000)"
fill="#f1ead8" stroke="none">
<path d="M2646 1625 c-32 -13 -83 -40 -112 -59 l-54 -36 -49 25 c-95 47 -185
67 -341 72 -122 5 -164 2 -258 -16 -131 -25 -223 -57 -342 -116 -110 -56 -197
-118 -277 -197 -188 -185 -245 -395 -140 -515 44 -51 104 -74 202 -81 261 -16
572 168 686 407 19 38 33 86 36 120 5 51 3 60 -21 88 -35 41 -84 57 -157 50
-192 -21 -415 -187 -543 -404 -4 -7 -3 -13 2 -13 5 0 26 25 46 55 85 122 236
247 368 303 52 21 79 26 151 27 81 0 90 -2 108 -24 27 -33 24 -76 -10 -148
-32 -68 -140 -188 -234 -260 -74 -57 -206 -127 -282 -149 -34 -10 -94 -18
-140 -18 -64 0 -90 5 -128 23 -28 13 -58 38 -72 59 -20 29 -25 49 -25 100 0
116 58 229 180 351 192 192 477 314 765 328 71 3 151 1 195 -6 85 -13 186 -45
220 -71 l22 -17 -33 -23 c-51 -36 -213 -196 -283 -280 -35 -41 -125 -158 -201
-260 -229 -306 -342 -432 -470 -528 -123 -91 -234 -132 -357 -132 -84 0 -136
16 -175 52 -26 24 -31 50 -8 42 24 -10 64 5 76 27 27 52 -25 102 -83 78 -36
-15 -48 -37 -48 -87 0 -48 27 -85 83 -114 33 -17 64 -23 143 -26 80 -3 119 0
185 17 97 24 220 81 311 142 35 24 106 86 158 138 100 100 159 177 375 494
132 193 255 348 321 407 l38 33 27 -32 c78 -94 62 -263 -40 -408 -59 -84 -133
-150 -210 -189 -48 -25 -68 -29 -136 -29 -44 0 -86 2 -94 5 -7 3 -15 0 -18 -6
-7 -20 60 -39 137 -38 206 1 402 143 471 342 16 44 20 75 16 137 -4 90 -25
140 -84 206 -30 33 -34 42 -22 50 59 39 149 89 172 94 15 4 27 13 27 21 0 8
-3 14 -7 14 -5 0 -34 -11 -67 -25z M5615 1476 c-84 -17 -186 -53 -247 -89 -69
-40 -141 -110 -171 -166 -49 -90 -46 -196 9 -261 48 -56 102 -80 241 -106 20
-4 18 -9 -32 -83 -67 -100 -96 -177 -103 -268 -4 -64 -2 -79 22 -128 21 -42
38 -61 74 -83 43 -25 55 -27 147 -26 88 0 109 4 180 32 98 39 182 94 257 169
103 101 138 216 83 267 -33 31 -78 39 -144 26 -93 -18 -187 -74 -286 -174 -49
-50 -101 -111 -114 -135 -13 -24 -19 -42 -14 -40 6 2 32 33 59 69 99 130 270
245 384 257 47 4 59 2 83 -17 36 -29 35 -70 -2 -136 -64 -112 -245 -242 -387
-279 -193 -50 -310 31 -269 189 20 77 52 137 123 231 86 115 108 135 143 135
56 0 232 40 354 81 148 49 321 131 419 199 124 86 206 186 206 250 0 12 -13
35 -29 51 -26 26 -36 29 -94 29 -93 0 -205 -32 -344 -99 -205 -100 -404 -239
-591 -415 l-82 -78 -48 6 c-163 23 -259 112 -237 219 21 99 118 202 250 268
135 67 199 81 375 85 85 2 160 4 165 4 6 0 1 6 -10 12 -30 18 -286 20 -370 4z
m956 -46 c28 -15 24 -66 -7 -112 -52 -74 -192 -177 -349 -255 -154 -77 -384
-152 -515 -167 l-55 -7 90 87 c230 220 503 403 672 449 59 16 138 19 164 5z
M9175 1271 c-102 -46 -291 -229 -509 -492 -70 -85 -145 -175 -167 -201 -46
-55 -195 -183 -264 -227 -49 -31 -95 -41 -95 -20 0 26 64 115 191 265 43 51
75 95 72 98 -4 3 -22 6 -41 6 -27 0 -42 -8 -68 -36 -28 -29 -34 -32 -34 -16 0
30 -32 52 -77 52 -69 0 -172 -60 -281 -164 -157 -150 -251 -216 -307 -216 -55
0 -27 51 144 265 l113 140 71 5 c44 3 72 10 75 18 3 8 -12 12 -52 12 -31 0
-56 3 -56 7 0 3 33 45 74 94 41 48 73 89 71 91 -2 2 -24 2 -49 0 -44 -4 -48
-7 -121 -97 l-75 -94 -57 -3 c-34 -2 -58 -8 -61 -15 -2 -9 10 -13 43 -13 l46
0 -63 -77 c-78 -97 -140 -158 -244 -239 -86 -67 -158 -106 -181 -97 -32 12 -8
51 142 233 62 76 112 140 110 142 -3 2 -24 2 -49 -2 -40 -5 -50 -12 -113 -85
-85 -98 -237 -225 -320 -266 -60 -30 -83 -31 -83 -5 0 7 39 57 86 112 47 54
94 116 105 136 36 70 17 118 -45 118 -43 0 -142 -50 -199 -100 -25 -22 -48
-40 -51 -40 -3 0 29 44 72 98 43 53 109 137 147 186 l69 89 -44 -7 c-24 -4
-45 -8 -45 -9 0 -1 -34 -42 -75 -92 -194 -236 -495 -505 -566 -505 -29 0 -31
19 -7 58 17 27 146 191 210 266 18 22 33 43 33 48 0 5 -18 8 -41 6 -32 -1 -47
-9 -70 -35 -23 -27 -29 -30 -29 -15 0 10 -9 27 -20 37 -15 14 -31 17 -69 13
-27 -3 -73 -17 -103 -31 -67 -33 -158 -109 -200 -166 -74 -102 -63 -221 21
-221 34 0 99 33 149 76 l42 36 0 -40 c0 -44 23 -72 59 -72 49 0 164 78 296
200 38 36 57 49 41 30 -16 -19 -116 -140 -223 -267 -106 -128 -193 -235 -193
-238 0 -3 20 -5 43 -5 l44 0 108 133 c199 241 278 329 357 396 128 108 233
163 252 132 7 -10 -23 -49 -122 -163 -79 -91 -103 -142 -84 -183 6 -13 23 -27
37 -31 48 -12 150 40 250 128 l47 41 -21 -39 c-28 -52 -27 -98 1 -118 12 -9
33 -16 46 -16 46 0 149 62 241 144 34 30 34 30 18 4 -9 -15 -19 -44 -23 -66
-5 -32 -2 -44 15 -61 44 -44 131 -16 249 79 l63 51 -7 -50 c-6 -44 -4 -52 19
-75 15 -14 35 -26 47 -26 32 0 89 27 145 69 l50 38 -3 -38 c-3 -31 0 -40 22
-54 49 -33 123 1 258 117 l58 50 -15 -36 c-8 -19 -15 -53 -15 -75 0 -30 6 -44
22 -55 12 -9 34 -16 49 -16 51 0 163 67 252 151 48 44 84 85 81 90 -3 6 -27
-9 -52 -33 -61 -56 -158 -131 -199 -152 -18 -9 -46 -16 -63 -16 -25 0 -30 4
-30 23 0 29 54 114 147 232 58 75 85 99 185 166 232 156 440 344 487 442 25
52 26 70 5 91 -20 21 -50 20 -99 -3z m74 -25 c20 -24 -23 -92 -118 -186 -82
-81 -249 -217 -356 -290 l-50 -34 40 50 c203 253 360 420 430 457 37 20 40 20
54 3z m-2771 -604 c5 -35 -44 -108 -132 -198 -83 -83 -145 -124 -191 -124 -19
0 -25 5 -25 23 0 39 60 128 144 213 84 85 132 115 176 111 18 -1 26 -9 28 -25z
m1750 1 c5 -37 -26 -88 -109 -176 -86 -93 -161 -147 -202 -147 -23 0 -27 4
-27 29 0 17 16 53 40 88 51 77 157 186 207 212 49 26 87 24 91 -6z M4687 1248
c-112 -61 -304 -256 -544 -553 -107 -132 -221 -238 -357 -334 -60 -42 -116
-55 -116 -27 0 21 69 119 169 241 50 61 91 112 91 115 0 3 -18 6 -39 8 -33 2
-45 -3 -65 -25 -14 -15 -26 -31 -26 -35 0 -5 -4 -8 -10 -8 -5 0 -7 6 -4 14 3
8 -4 24 -16 36 -19 19 -31 22 -75 18 -75 -6 -157 -50 -239 -128 -114 -107
-247 -211 -303 -237 -52 -24 -73 -24 -73 1 0 6 41 61 90 121 95 115 118 163
100 209 -25 68 -146 29 -267 -87 -44 -42 -53 -41 -28 3 20 35 19 84 -3 103
-44 40 -102 9 -236 -121 -147 -143 -212 -200 -258 -223 -43 -22 -78 -25 -78
-6 0 22 51 95 158 227 56 69 102 128 102 133 0 4 -19 5 -42 1 -29 -4 -52 -15
-70 -35 -24 -25 -28 -26 -28 -11 0 29 -33 52 -73 52 -86 0 -231 -87 -304 -182
-50 -64 -63 -96 -63 -154 0 -61 27 -88 82 -81 35 5 78 29 163 92 20 14 21 13
17 -21 -5 -43 19 -74 58 -74 57 0 131 52 291 205 156 150 221 197 241 177 17
-17 -25 -79 -185 -267 l-85 -100 44 -3 44 -3 122 127 c68 70 149 147 180 171
72 55 146 89 161 74 13 -13 -18 -59 -98 -151 -93 -106 -116 -169 -75 -210 24
-24 58 -25 107 -5 40 17 127 78 182 129 26 23 32 26 26 11 -5 -11 -10 -39 -13
-62 -3 -35 0 -46 22 -67 15 -16 36 -26 54 -26 36 0 118 41 159 80 18 16 34 30
35 30 2 0 2 -16 0 -35 -3 -25 1 -42 14 -56 41 -45 138 -2 289 128 84 73 85 73
64 32 -12 -22 -24 -60 -27 -84 -4 -37 -1 -47 21 -69 19 -19 37 -26 64 -26 43
0 120 33 190 81 63 44 194 169 187 180 -3 5 -37 -19 -77 -54 -105 -91 -171
-137 -228 -158 -122 -46 -124 18 -8 181 110 154 121 165 239 241 208 133 379
284 449 394 34 54 39 95 15 119 -23 23 -52 19 -117 -16z m103 -23 c0 -56 -123
-194 -280 -316 -107 -83 -220 -162 -220 -155 0 8 184 231 269 325 97 108 164
161 202 161 19 0 29 -5 29 -15z m-2302 -586 c6 -55 -161 -250 -259 -299 -135
-70 -97 64 65 225 76 76 126 107 166 103 19 -2 26 -10 28 -29z m1263 15 c11
-14 9 -25 -16 -72 -42 -81 -176 -215 -249 -248 -50 -23 -60 -24 -72 -12 -12
11 -12 21 -3 49 16 48 112 171 173 223 87 74 140 93 167 60z M7608 918 c-25
-20 -31 -54 -12 -72 22 -23 53 -17 77 15 15 22 17 30 8 48 -13 24 -49 28 -73
9z"/>
</g>
</svg>
