<?xml version="1.0" standalone="no"?>
<!DOCTYPE svg PUBLIC "-//W3C//DTD SVG 20010904//EN"
 "http://www.w3.org/TR/2001/REC-SVG-20010904/DTD/svg10.dtd">
<svg version="1.0" xmlns="http://www.w3.org/2000/svg"
 width="980.000000pt" height="190.000000pt" viewBox="0 0 980.000000 190.000000"
 preserveAspectRatio="xMidYMid meet">
<metadata>
Created by potrace 1.16, written by Peter Selinger 2001-2019
</metadata>
<g transform="translate(0.000000,190.000000) scale(0.100000,-0.100000)"
fill="#f1ead8" stroke="none">
<path d="M2646 1625 c-32 -13 -83 -40 -112 -59 l-54 -36 -49 25 c-93 47 -186
67 -337 72 -106 4 -166 1 -240 -11 -128 -22 -253 -64 -375 -127 -164 -84 -289
-191 -373 -318 -25 -36 -54 -94 -65 -128 -12 -34 -21 -86 -21 -115 0 -29 9
-71 19 -93 22 -49 76 -98 128 -116 24 -9 80 -14 153 -13 92 0 128 5 180 23
105 37 182 78 267 145 86 69 162 161 201 246 15 31 28 80 30 111 4 53 2 59
-29 94 -31 32 -41 37 -96 42 -46 4 -79 0 -134 -16 -41 -13 -105 -41 -142 -63
-125 -73 -222 -170 -308 -305 -35 -55 -5 -37 35 21 54 79 191 206 272 254 38
22 97 50 131 61 109 37 222 22 238 -30 10 -30 -3 -85 -31 -142 -33 -65 -167
-203 -257 -265 -148 -102 -266 -145 -397 -145 -57 0 -87 6 -123 23 -26 12 -57
36 -70 54 -19 26 -22 44 -22 116 0 77 3 92 35 155 46 91 184 237 294 309 137
91 240 135 410 177 104 25 298 35 395 20 82 -13 180 -44 218 -68 l25 -16 -34
-26 c-57 -43 -217 -203 -282 -281 -35 -41 -124 -157 -199 -256 -75 -100 -170
-222 -211 -272 -177 -213 -327 -329 -485 -376 -70 -21 -200 -21 -249 -1 -41
18 -82 52 -82 70 0 7 11 10 29 7 20 -3 35 2 50 17 12 12 21 30 21 41 0 24 -34
60 -55 60 -9 0 -29 -7 -45 -15 -50 -26 -57 -109 -13 -157 10 -11 36 -30 58
-41 57 -30 206 -35 312 -12 167 37 335 134 479 279 99 99 172 194 339 441 149
219 233 330 322 422 l75 78 27 -33 c81 -95 63 -268 -43 -416 -25 -35 -67 -83
-93 -106 -27 -23 -75 -56 -108 -73 -52 -27 -71 -31 -140 -32 -44 0 -87 2 -95
5 -9 3 -15 -1 -15 -10 0 -10 19 -20 54 -29 44 -12 68 -13 133 -3 117 17 216
67 299 152 44 44 79 92 100 136 32 64 34 76 34 169 0 85 -3 106 -23 143 -13
24 -39 60 -58 82 l-35 38 33 25 c42 32 147 87 164 87 8 0 14 7 14 15 0 8 -3
15 -7 15 -5 0 -34 -11 -67 -25z M5610 1475 c-36 -7 -87 -21 -115 -30 -131 -44
-249 -133 -298 -224 -15 -28 -30 -72 -34 -98 -3 -26 0 -67 6 -91 14 -52 61
-106 114 -133 21 -11 69 -27 106 -35 36 -7 69 -14 72 -14 4 0 -17 -36 -46 -79
-29 -43 -63 -105 -76 -138 -18 -44 -24 -78 -24 -143 0 -67 4 -93 21 -125 13
-24 39 -51 68 -69 37 -23 61 -30 119 -34 84 -5 170 14 262 57 82 39 137 78
206 146 70 70 109 142 109 202 0 34 -6 49 -26 68 -63 59 -195 34 -338 -64 -56
-39 -174 -166 -205 -221 -13 -23 -19 -41 -14 -39 6 2 32 33 59 69 99 130 270
245 384 257 47 4 59 2 83 -17 19 -15 27 -30 27 -53 0 -81 -138 -233 -279 -306
-136 -71 -256 -89 -338 -52 -50 23 -75 65 -75 127 0 82 39 169 130 289 95 127
100 131 176 139 90 9 275 57 393 101 131 49 296 135 375 194 85 64 155 144
169 191 9 30 9 46 0 68 -7 16 -24 34 -37 41 -39 17 -140 13 -227 -10 -96 -26
-320 -136 -439 -216 -114 -76 -232 -171 -341 -273 l-87 -82 -48 6 c-78 11
-137 35 -180 72 -46 39 -68 95 -57 147 12 56 58 128 114 178 90 80 231 143
379 169 35 6 116 10 180 9 117 -1 153 9 77 23 -65 11 -275 7 -345 -7z m964
-51 c26 -25 19 -67 -19 -117 -83 -109 -350 -267 -578 -343 -92 -30 -281 -74
-319 -74 -16 0 6 24 122 128 113 103 287 236 386 295 81 48 184 96 242 112 68
19 147 18 166 -1z M9175 1271 c-58 -27 -109 -67 -215 -167 -90 -87 -236 -251
-411 -464 -85 -104 -205 -215 -308 -284 -54 -37 -101 -47 -101 -22 0 19 97
153 191 263 44 51 79 95 79 98 0 3 -20 5 -44 5 -39 0 -48 -4 -75 -37 -26 -32
-31 -34 -31 -17 0 12 -8 28 -18 37 -23 21 -76 22 -131 3 -58 -21 -147 -84
-211 -151 -68 -71 -189 -169 -241 -195 -47 -24 -89 -26 -89 -5 0 30 31 75 156
233 l126 157 71 5 c44 3 72 10 75 18 3 8 -12 12 -52 12 -31 0 -56 3 -56 6 0 3
34 45 75 94 41 48 72 89 70 91 -2 3 -24 3 -49 1 -44 -4 -48 -7 -121 -97 l-76
-94 -56 -3 c-34 -2 -58 -8 -61 -15 -2 -9 10 -13 43 -13 l46 0 -59 -72 c-33
-40 -77 -91 -99 -114 -56 -57 -158 -141 -227 -186 -60 -38 -116 -50 -116 -24
0 20 41 78 162 224 61 73 108 136 105 139 -4 3 -26 2 -50 -1 -39 -6 -50 -15
-107 -82 -61 -73 -176 -176 -271 -243 -48 -33 -118 -63 -131 -54 -5 2 -8 10
-8 17 0 7 41 59 90 117 50 57 97 118 105 136 18 36 19 67 5 94 -25 45 -157 3
-253 -81 -25 -22 -48 -40 -51 -40 -3 0 30 44 72 98 43 53 109 137 147 186 l69
89 -44 -7 c-24 -4 -45 -8 -45 -9 0 -1 -34 -42 -75 -92 -105 -129 -259 -284
-375 -380 -116 -95 -161 -125 -192 -125 -28 0 -30 20 -6 58 21 32 192 246 227
283 14 15 22 30 19 33 -4 3 -23 6 -44 6 -30 0 -43 -7 -68 -35 -24 -28 -31 -32
-31 -17 0 29 -33 52 -73 52 -20 0 -59 -8 -85 -18 -95 -36 -207 -130 -257 -216
-20 -33 -28 -61 -28 -98 -1 -41 3 -54 22 -69 13 -11 34 -19 47 -19 36 0 92 26
140 65 23 19 45 35 48 35 3 0 6 -15 6 -33 0 -38 25 -67 59 -67 49 0 164 78
296 200 l69 65 -75 -90 c-213 -254 -369 -444 -369 -449 0 -3 20 -6 43 -6 l44
0 108 133 c199 241 278 329 357 396 128 108 233 163 252 132 7 -10 -23 -49
-122 -163 -79 -91 -103 -142 -84 -183 6 -13 23 -27 37 -31 48 -12 150 40 250
128 l47 41 -21 -39 c-26 -48 -27 -95 -3 -117 10 -10 32 -17 49 -17 48 0 146
58 242 144 34 30 34 30 18 4 -9 -15 -19 -44 -23 -66 -5 -32 -2 -44 15 -61 13
-13 34 -21 54 -21 44 0 118 38 195 100 l63 51 -7 -48 c-5 -40 -2 -53 16 -75
13 -17 31 -28 46 -28 36 0 91 26 149 69 l50 38 -3 -38 c-3 -31 0 -40 22 -54
18 -12 36 -15 60 -11 41 8 115 56 199 129 56 48 59 49 43 20 -23 -45 -24 -108
-1 -133 48 -53 173 2 319 141 42 39 73 75 70 80 -3 5 -39 -21 -80 -57 -105
-91 -189 -144 -231 -144 -28 0 -33 4 -33 23 0 29 54 114 147 232 58 75 85 99
185 166 158 106 299 221 390 318 72 76 118 148 118 183 0 23 -28 48 -53 48
-12 0 -40 -9 -62 -19z m74 -24 c8 -10 6 -23 -7 -49 -10 -19 -36 -56 -56 -82
-61 -73 -272 -250 -426 -356 l-35 -24 40 49 c174 218 367 425 425 455 19 11
38 19 41 20 4 0 12 -6 18 -13z m-2785 -583 c44 -17 -7 -109 -123 -225 -78 -79
-141 -119 -186 -119 -19 0 -25 5 -25 20 0 30 26 76 82 147 81 102 178 181 225
183 6 0 18 -3 27 -6z m1764 -21 c5 -35 -32 -95 -113 -181 -83 -89 -158 -142
-198 -142 -23 0 -27 4 -27 29 0 17 16 53 40 89 50 74 159 186 208 212 48 25
86 22 90 -7z M4721 1269 c-45 -18 -149 -99 -228 -177 -91 -90 -236 -254 -355
-402 -131 -164 -377 -370 -440 -370 -16 0 -28 5 -28 13 0 22 52 97 158 226 56
68 102 128 102 133 0 4 -18 8 -40 8 -32 0 -45 -6 -67 -30 l-27 -31 -13 25 c-8
14 -25 29 -39 32 -39 10 -100 -2 -160 -31 -29 -14 -90 -60 -135 -101 -111
-102 -220 -190 -271 -219 -24 -14 -55 -25 -70 -25 -16 0 -28 3 -28 6 0 14 29
55 98 138 74 90 102 137 102 176 0 29 -35 60 -67 60 -40 0 -124 -46 -187 -101
-30 -27 -57 -49 -60 -49 -4 0 0 13 9 30 20 39 19 83 -3 103 -44 40 -99 11
-240 -125 -189 -182 -262 -238 -312 -238 -11 0 -20 6 -20 13 0 22 51 95 158
227 56 69 102 128 102 132 0 5 -17 8 -37 8 -28 0 -45 -8 -70 -32 -23 -22 -33
-27 -33 -17 0 9 -9 24 -20 34 -41 37 -161 2 -272 -80 -62 -46 -129 -135 -143
-193 -14 -53 -5 -100 22 -120 32 -24 91 -7 168 46 l71 49 -4 -34 c-5 -42 20
-73 58 -73 57 0 131 52 291 205 87 84 175 160 195 170 44 21 62 9 43 -26 -17
-33 -81 -115 -182 -234 l-85 -100 43 -3 43 -3 149 148 c81 82 167 161 190 177
51 34 115 57 126 46 5 -4 4 -17 -2 -28 -6 -12 -45 -60 -86 -109 -41 -48 -82
-102 -90 -120 -21 -43 -19 -79 6 -104 17 -17 29 -20 61 -16 48 6 131 55 204
120 47 43 53 45 44 22 -5 -14 -10 -42 -10 -61 0 -44 37 -84 78 -84 36 0 118
41 160 80 l32 31 0 -39 c0 -45 23 -72 61 -72 13 0 44 9 68 20 47 22 92 55 189
138 34 29 62 52 62 49 0 -2 -7 -19 -16 -37 -9 -18 -19 -52 -22 -76 -4 -36 -1
-46 21 -68 19 -19 37 -26 64 -26 43 0 120 33 190 81 65 45 194 169 187 180 -3
6 -36 -17 -72 -49 -37 -32 -96 -80 -130 -105 -63 -46 -150 -81 -177 -71 -25
10 -26 37 -1 88 31 62 175 257 207 280 13 10 69 47 124 83 196 129 357 272
424 378 17 27 31 61 31 76 0 51 -42 71 -99 48z m69 -47 c0 -51 -124 -190 -277
-310 -110 -86 -228 -169 -218 -151 16 27 189 234 269 323 45 49 101 104 125
122 49 38 101 46 101 16z m-2302 -583 c4 -36 -63 -132 -148 -213 -76 -71 -139
-109 -173 -104 -17 2 -22 9 -20 32 1 16 19 54 39 85 46 69 167 190 214 214 19
9 46 16 60 15 19 -2 26 -10 28 -29z m1262 16 c21 -26 -32 -116 -124 -210 -58
-60 -98 -92 -140 -111 -51 -23 -60 -25 -73 -11 -13 13 -13 20 6 62 26 59 108
162 169 213 83 69 136 88 162 57z M7601 911 c-12 -12 -21 -27 -21 -34 0 -7 6
-21 13 -31 18 -25 56 -17 81 17 16 21 18 32 10 45 -16 25 -59 27 -83 3z"/>
</g>
</svg>
