<?xml version="1.0" standalone="no"?>
<!DOCTYPE svg PUBLIC "-//W3C//DTD SVG 20010904//EN"
 "http://www.w3.org/TR/2001/REC-SVG-20010904/DTD/svg10.dtd">
<svg version="1.0" xmlns="http://www.w3.org/2000/svg"
 width="980.000000pt" height="190.000000pt" viewBox="0 0 980.000000 190.000000"
 preserveAspectRatio="xMidYMid meet">
<metadata>
Created by potrace 1.16, written by Peter Selinger 2001-2019
</metadata>
<g transform="translate(0.000000,190.000000) scale(0.100000,-0.100000)"
fill="#f1ead8" stroke="none">
<path d="M2646 1625 c-32 -13 -83 -40 -113 -60 l-54 -36 -62 30 c-99 47 -170
62 -319 68 -350 14 -683 -116 -908 -354 -177 -187 -220 -386 -106 -499 47 -47
90 -63 192 -71 308 -23 697 261 721 527 6 57 4 61 -29 94 -22 22 -49 37 -74
42 -169 32 -467 -152 -591 -363 -37 -64 -23 -62 22 2 85 124 239 250 369 303
42 17 87 27 143 30 78 4 83 3 108 -23 55 -55 17 -160 -107 -290 -178 -188
-370 -288 -553 -289 -150 0 -228 64 -227 186 2 277 385 588 816 663 199 34
456 4 544 -63 l24 -18 -56 -43 c-105 -81 -262 -257 -430 -482 -312 -416 -443
-552 -611 -636 -119 -61 -259 -80 -357 -51 -69 20 -122 94 -59 82 22 -5 34 -1
51 16 27 27 23 57 -11 83 -74 54 -148 -70 -88 -147 38 -49 94 -69 204 -74 161
-7 318 42 484 152 153 102 268 232 481 546 174 255 253 360 344 456 l75 78 25
-23 c56 -52 72 -182 36 -287 -44 -126 -163 -264 -277 -321 -52 -25 -69 -28
-155 -28 -54 0 -98 -3 -98 -6 0 -11 49 -28 97 -34 29 -4 77 0 123 9 344 72
527 445 329 670 l-41 46 24 20 c12 11 60 38 106 61 45 23 82 45 82 50 0 13 -8
11 -74 -16z M5632 1479 c-252 -44 -449 -195 -469 -357 -7 -59 10 -122 43 -162
46 -54 101 -78 236 -105 l26 -5 -53 -79 c-67 -100 -96 -177 -103 -268 -6 -98
26 -169 96 -211 42 -24 56 -27 142 -27 115 0 211 31 323 105 183 120 279 293
202 364 -51 48 -130 43 -255 -16 -71 -34 -99 -55 -175 -132 -82 -83 -149 -176
-127 -176 5 0 26 25 47 56 127 184 390 323 479 253 56 -44 27 -119 -88 -234
-222 -221 -544 -264 -579 -78 -13 68 40 200 126 315 82 109 113 138 147 138
56 0 232 40 355 81 347 115 625 315 625 449 0 12 -13 35 -29 51 -26 26 -36 29
-93 29 -140 0 -359 -88 -579 -232 -134 -88 -209 -147 -342 -270 l-98 -90 -50
6 c-165 22 -261 119 -231 230 29 103 117 193 257 261 134 65 187 77 365 81 85
2 160 4 165 4 6 0 1 6 -10 12 -25 15 -281 20 -353 7z m939 -49 c13 -7 19 -21
19 -44 0 -143 -438 -400 -810 -476 -139 -28 -142 -28 -95 21 67 69 255 228
356 300 223 160 446 243 530 199z M9164 1264 c-126 -67 -322 -264 -581 -585
-152 -189 -352 -359 -423 -359 -42 0 -19 43 115 210 51 63 102 124 114 134 28
25 20 33 -31 29 -34 -2 -49 -10 -70 -36 -24 -28 -27 -30 -28 -11 0 32 -32 54
-77 54 -71 0 -171 -59 -291 -174 -59 -56 -130 -118 -159 -139 -60 -43 -139
-81 -153 -72 -31 19 1 73 159 270 l113 140 71 5 c89 6 107 30 23 30 -31 0 -56
3 -56 7 0 3 33 45 74 94 41 48 73 89 71 91 -3 2 -25 2 -49 -2 -43 -5 -50 -10
-121 -97 l-75 -92 -57 -3 c-70 -4 -84 -26 -19 -30 l46 -3 -80 -95 c-150 -178
-364 -339 -411 -310 -22 15 16 76 146 232 62 75 112 138 110 140 -3 2 -24 2
-49 -2 -40 -5 -50 -12 -113 -85 -150 -174 -403 -344 -403 -271 0 7 39 57 86
112 119 138 147 199 108 238 -38 38 -158 -5 -252 -90 -54 -48 -80 -60 -41 -18
34 36 278 348 274 352 -1 1 -20 0 -41 -4 -34 -5 -47 -17 -99 -82 -180 -226
-509 -522 -581 -522 -53 0 -24 49 154 265 45 55 82 102 82 105 0 3 -20 4 -45
2 -35 -3 -50 -11 -70 -34 -21 -25 -25 -26 -25 -10 0 52 -73 66 -160 32 -67
-26 -112 -58 -182 -126 -69 -68 -98 -123 -98 -187 0 -110 97 -115 218 -11 l42
36 0 -40 c0 -42 23 -72 56 -72 53 1 166 77 299 200 38 36 56 49 40 29 -17 -20
-114 -137 -216 -260 -102 -123 -189 -230 -193 -236 -5 -10 4 -13 36 -13 l43 0
179 216 c176 211 261 299 361 374 89 66 164 96 179 71 7 -10 -23 -49 -122
-163 -41 -47 -77 -99 -84 -121 -22 -71 22 -112 96 -87 44 14 142 77 196 126
l42 39 -21 -40 c-44 -82 -13 -145 62 -131 43 8 141 67 210 126 36 31 47 37 36
20 -39 -61 -31 -134 16 -146 56 -14 172 43 262 129 l32 30 -10 -37 c-21 -78
18 -134 84 -122 31 6 89 39 147 85 l26 20 -4 -34 c-5 -38 24 -75 60 -75 37 0
100 37 191 110 83 67 85 68 71 35 -33 -81 -9 -145 56 -145 33 0 121 42 174 82
66 51 166 151 159 161 -3 5 -24 -9 -47 -31 -112 -107 -212 -172 -266 -172 -45
0 -40 33 19 121 106 162 161 220 284 302 338 225 559 463 492 530 -23 24 -54
21 -111 -9z m90 -20 c22 -58 -217 -297 -467 -466 -69 -46 -69 -48 59 107 249
300 385 419 408 359z m-2776 -605 c10 -81 -267 -348 -334 -322 -55 21 94 237
224 323 59 39 105 39 110 -1z m1750 4 c5 -38 -28 -92 -110 -178 -96 -101 -161
-147 -203 -143 -25 3 -30 7 -27 28 7 65 172 263 252 303 47 23 84 19 88 -10z
M4705 1256 c-68 -32 -104 -61 -214 -169 -100 -99 -218 -232 -348 -392 -107
-132 -221 -239 -357 -334 -57 -39 -116 -55 -116 -31 0 30 65 121 219 305 22
27 41 52 41 55 0 3 -20 4 -45 3 -42 -1 -83 -28 -85 -55 0 -5 -4 -8 -10 -8 -5
0 -7 6 -4 14 3 8 -4 24 -16 36 -19 19 -31 22 -74 18 -76 -7 -159 -53 -255
-142 -206 -191 -361 -286 -361 -222 0 7 38 58 83 113 46 55 91 119 101 142 26
66 4 111 -54 111 -35 0 -138 -60 -197 -113 -54 -50 -63 -52 -38 -7 20 35 19
84 -3 103 -45 40 -100 10 -250 -136 -180 -174 -250 -227 -302 -227 -44 0 -13
53 138 240 56 69 102 127 102 130 0 3 -20 4 -45 2 -35 -3 -50 -11 -70 -34 -22
-26 -25 -27 -25 -9 0 46 -71 64 -150 36 -148 -52 -290 -209 -290 -320 0 -107
98 -112 217 -10 23 19 43 35 45 35 2 0 2 -16 0 -35 -5 -44 19 -75 58 -75 58 0
131 52 290 205 154 148 221 198 242 177 16 -16 -15 -63 -147 -222 l-125 -150
49 0 c42 0 53 4 71 28 40 51 215 224 272 269 70 53 146 89 160 75 14 -14 -5
-45 -84 -137 -107 -122 -130 -183 -88 -225 46 -46 153 0 289 124 25 23 32 26
25 11 -5 -11 -9 -42 -9 -68 0 -108 99 -116 217 -16 26 21 48 39 50 39 2 0 2
-16 0 -35 -3 -25 1 -42 14 -56 41 -45 138 -2 289 129 l85 73 -21 -41 c-73
-140 6 -222 150 -155 70 33 140 84 223 164 89 85 77 99 -15 17 -143 -127 -260
-191 -306 -166 -12 6 -21 17 -21 24 0 28 63 133 138 232 68 90 88 108 172 162
341 217 558 453 484 526 -21 22 -40 20 -99 -8z m85 -31 c0 -57 -126 -198 -290
-324 -113 -87 -210 -154 -210 -145 0 23 327 393 393 446 52 40 107 52 107 23z
m-2302 -586 c6 -55 -161 -250 -259 -299 -135 -70 -97 64 65 225 76 76 126 107
166 103 19 -2 26 -10 28 -29z m1262 16 c23 -28 -22 -106 -123 -212 -94 -98
-190 -151 -217 -118 -26 32 32 129 145 240 97 96 164 127 195 90z M7614 922
c-37 -25 -36 -79 2 -88 41 -10 83 40 64 76 -11 20 -45 26 -66 12z"/>
</g>
</svg>
