<?xml version="1.0" standalone="no"?>
<!DOCTYPE svg PUBLIC "-//W3C//DTD SVG 20010904//EN"
 "http://www.w3.org/TR/2001/REC-SVG-20010904/DTD/svg10.dtd">
<svg version="1.0" xmlns="http://www.w3.org/2000/svg"
 width="980.000000pt" height="190.000000pt" viewBox="0 0 980.000000 190.000000"
 preserveAspectRatio="xMidYMid meet">
<metadata>
Created by potrace 1.16, written by Peter Selinger 2001-2019
</metadata>
<g transform="translate(0.000000,190.000000) scale(0.100000,-0.100000)"
fill="#f1ead8" stroke="none">
<path d="M2654 1629 c-28 -10 -79 -36 -114 -58 l-64 -38 -60 28 c-117 55 -173
64 -376 63 -167 0 -194 -3 -283 -27 -412 -111 -738 -405 -737 -665 1 -139 87
-218 251 -229 228 -16 494 115 636 314 149 209 115 365 -76 350 -191 -14 -413
-170 -540 -379 -35 -58 -9 -45 34 17 117 170 346 323 499 333 192 12 195 -121
7 -321 -201 -211 -460 -319 -645 -267 -238 66 -124 421 208 644 289 195 686
260 957 157 98 -37 98 -38 16 -106 -116 -96 -248 -244 -405 -454 -306 -411
-455 -567 -628 -654 -147 -74 -335 -77 -411 -5 -32 30 -29 45 6 40 57 -8 92
57 51 98 -24 24 -41 25 -80 5 -64 -33 -58 -125 11 -178 47 -35 99 -47 202 -47
268 0 540 161 761 450 41 53 138 190 216 305 148 219 227 321 323 418 65 67
72 66 109 -7 87 -170 -49 -449 -270 -558 -71 -35 -160 -48 -211 -30 -21 7 -33
8 -37 1 -10 -17 9 -29 69 -41 182 -38 424 96 518 287 32 65 34 76 34 170 0
112 -14 151 -81 225 l-35 38 33 26 c18 13 68 41 111 61 42 21 74 41 71 46 -7
12 -10 11 -70 -12z M5627 1480 c-130 -22 -269 -86 -352 -161 -154 -141 -150
-340 8 -420 32 -17 148 -48 180 -49 4 0 -8 -21 -28 -47 -20 -26 -55 -86 -78
-132 -41 -82 -42 -88 -42 -181 0 -88 2 -100 27 -137 74 -112 253 -124 453 -29
80 38 185 118 233 179 102 127 96 242 -13 263 -50 9 -156 -18 -225 -59 -67
-39 -227 -196 -258 -254 -34 -63 -13 -52 38 19 120 165 362 302 455 257 76
-36 51 -125 -64 -239 -121 -119 -255 -187 -385 -197 -234 -18 -264 175 -66
435 96 126 99 128 174 135 84 8 285 60 397 102 346 132 589 335 540 453 -36
86 -219 68 -456 -47 -212 -102 -382 -220 -573 -397 l-103 -96 -63 11 c-239 42
-293 204 -126 372 131 131 336 202 570 198 116 -2 159 10 85 23 -53 9 -267 8
-328 -2z m945 -57 c96 -87 -222 -332 -594 -457 -105 -35 -301 -80 -321 -73
-24 8 294 278 448 380 210 138 409 202 467 150z M9183 1275 c-121 -52 -336
-266 -610 -607 -101 -125 -218 -235 -330 -311 -56 -37 -103 -48 -103 -24 0 19
83 134 184 255 47 56 86 104 86 107 0 3 -20 5 -44 5 -39 0 -48 -4 -75 -37 -26
-32 -31 -34 -31 -17 0 38 -34 57 -89 52 -79 -8 -155 -53 -266 -159 -160 -153
-253 -219 -310 -219 -55 0 -30 47 140 259 l120 149 69 4 c89 4 103 26 20 30
l-58 3 78 93 c43 52 76 95 74 96 -1 1 -24 1 -50 -2 -46 -4 -49 -6 -123 -97
l-76 -94 -56 -3 c-70 -4 -84 -25 -19 -30 l44 -3 -77 -91 c-133 -157 -329 -314
-392 -314 -55 0 -37 32 132 237 60 72 109 134 109 137 0 3 -20 6 -44 6 -42 0
-45 -2 -119 -89 -142 -167 -393 -341 -405 -281 -1 9 37 62 87 118 115 132 138
181 111 233 -25 47 -146 8 -254 -81 -56 -46 -71 -52 -34 -12 14 15 80 97 147
182 107 138 118 155 98 158 -41 5 -63 -12 -164 -133 -144 -172 -341 -358 -477
-449 -46 -31 -86 -35 -86 -8 0 20 97 151 198 269 39 44 68 84 65 87 -4 3 -23
6 -44 6 -30 0 -43 -7 -68 -35 -24 -28 -31 -32 -31 -17 0 36 -35 55 -89 50
-153 -15 -353 -201 -355 -330 -2 -108 97 -117 219 -18 l40 32 6 -42 c7 -51 22
-62 73 -56 50 6 147 72 262 179 l88 82 -83 -100 c-46 -55 -102 -122 -126 -150
-119 -141 -235 -284 -235 -290 0 -3 20 -5 45 -3 l45 3 188 225 c194 233 298
335 414 403 128 76 143 37 32 -84 -130 -143 -159 -204 -114 -249 11 -11 32
-20 46 -20 39 0 127 47 199 107 36 29 65 52 65 49 0 -2 -7 -17 -15 -32 -21
-41 -19 -87 5 -109 41 -37 148 5 260 103 55 48 57 48 35 6 -21 -41 -19 -80 6
-105 43 -43 154 -3 265 94 l43 38 -5 -48 c-5 -40 -2 -53 16 -75 37 -48 91 -36
195 42 l51 37 -4 -34 c-3 -23 1 -40 13 -53 38 -42 110 -16 235 85 47 39 80 60
76 49 -16 -37 -24 -87 -19 -103 25 -70 96 -67 213 7 64 40 202 171 194 183 -3
5 -39 -21 -80 -57 -141 -123 -243 -173 -261 -128 -9 24 17 71 117 203 85 113
99 127 198 193 231 155 407 308 482 421 43 64 49 96 24 121 -19 19 -49 20 -91
1z m66 -28 c41 -50 -195 -285 -489 -487 l-35 -24 40 49 c214 269 412 471 466
475 4 0 12 -6 18 -13z m-2776 -598 c37 -59 -222 -329 -314 -329 -21 0 -29 5
-29 18 1 71 160 261 265 317 36 18 64 16 78 -6z m1755 -6 c5 -35 -32 -95 -113
-181 -121 -128 -225 -181 -225 -114 0 58 163 257 249 302 47 25 85 22 89 -7z
M4692 1253 c-123 -66 -290 -238 -588 -605 -107 -130 -351 -328 -406 -328 -34
0 -35 13 -7 60 26 43 199 258 228 284 28 25 18 36 -34 36 -37 0 -47 -4 -66
-31 l-22 -31 -14 26 c-39 75 -183 35 -327 -91 -42 -38 -109 -96 -149 -131 -40
-35 -94 -76 -122 -93 -48 -27 -105 -39 -105 -20 0 11 32 55 109 148 92 112
110 164 71 203 -39 39 -113 17 -209 -61 -29 -24 -63 -51 -74 -59 -19 -14 -19
-14 -3 17 21 42 20 86 -2 106 -48 43 -107 10 -271 -152 -137 -135 -237 -211
-277 -211 -42 0 -31 26 64 150 37 47 90 113 119 148 29 35 53 67 53 73 0 5
-17 9 -37 9 -28 0 -45 -8 -70 -32 -23 -22 -33 -27 -33 -17 0 35 -36 52 -95 46
-154 -16 -348 -203 -348 -335 0 -98 78 -107 198 -24 l71 49 -4 -34 c-8 -67 45
-90 123 -54 59 28 93 56 243 201 131 127 197 176 219 162 21 -13 -12 -64 -139
-217 l-125 -150 43 -3 43 -3 143 145 c148 150 249 226 300 226 15 0 28 -4 28
-8 0 -12 -48 -76 -113 -150 -88 -101 -108 -161 -66 -203 42 -42 146 -1 265
104 47 43 53 45 44 22 -18 -47 -12 -94 15 -120 40 -41 102 -28 196 41 l49 36
0 -35 c0 -109 119 -81 292 68 l86 74 -19 -50 c-37 -97 -11 -159 68 -159 75 0
219 88 331 203 60 61 56 87 -4 31 -68 -64 -168 -141 -218 -168 -52 -28 -121
-35 -129 -13 -9 23 18 81 71 158 95 137 141 189 203 227 214 132 461 346 508
439 54 109 3 155 -107 96z m98 -31 c0 -50 -126 -191 -280 -312 -83 -66 -220
-162 -220 -155 0 6 188 232 269 324 85 96 168 161 204 161 19 0 27 -5 27 -18z
m-2302 -580 c14 -97 -313 -389 -344 -308 -17 45 160 267 251 315 51 27 89 24
93 -7z m1260 -5 c5 -40 -39 -108 -128 -198 -76 -78 -166 -134 -196 -122 -44
17 21 139 132 248 105 104 185 134 192 72z M7600 910 c-11 -11 -20 -25 -20
-31 0 -24 22 -49 44 -49 25 0 66 38 66 61 0 40 -57 52 -90 19z"/>
</g>
</svg>
