<?xml version="1.0" standalone="no"?>
<!DOCTYPE svg PUBLIC "-//W3C//DTD SVG 20010904//EN"
 "http://www.w3.org/TR/2001/REC-SVG-20010904/DTD/svg10.dtd">
<svg version="1.0" xmlns="http://www.w3.org/2000/svg"
 width="980.000000pt" height="190.000000pt" viewBox="0 0 980.000000 190.000000"
 preserveAspectRatio="xMidYMid meet">
<metadata>
Created by potrace 1.16, written by Peter Selinger 2001-2019
</metadata>
<g transform="translate(0.000000,190.000000) scale(0.100000,-0.100000)"
fill="#f1ead8" stroke="none">
<path d="M2646 1625 c-32 -13 -83 -40 -112 -59 l-54 -36 -49 25 c-187 94 -507
100 -763 15 -110 -37 -242 -104 -333 -168 -287 -202 -400 -500 -242 -639 53
-46 97 -58 222 -58 167 0 303 51 452 169 177 140 280 354 212 440 -126 159
-518 -37 -703 -351 -18 -32 14 -9 37 26 97 146 265 280 417 331 88 30 193 25
221 -9 78 -96 -125 -359 -384 -496 -110 -58 -184 -79 -283 -78 -147 0 -216 54
-222 173 -7 117 48 227 178 357 195 195 475 316 765 330 169 8 345 -25 414
-76 l23 -18 -33 -23 c-51 -36 -213 -196 -283 -280 -35 -41 -125 -158 -201
-260 -325 -435 -484 -581 -694 -644 -70 -21 -200 -21 -249 -1 -67 28 -112 88
-58 78 75 -15 105 93 31 111 -83 21 -131 -97 -68 -166 78 -87 317 -91 507 -10
249 106 388 244 681 677 151 222 232 329 320 421 l76 79 28 -33 c129 -151 -1
-470 -244 -595 -52 -27 -71 -31 -140 -32 -44 0 -87 2 -95 5 -9 3 -15 -1 -15
-10 0 -29 97 -45 187 -32 361 52 564 448 351 683 -30 33 -34 42 -22 50 59 39
149 89 172 94 15 4 27 13 27 21 0 18 -5 18 -74 -11z M5625 1479 c-141 -26
-282 -93 -362 -171 -176 -172 -112 -405 122 -443 92 -14 89 -6 30 -94 -76
-114 -99 -177 -99 -281 -1 -107 19 -152 89 -195 46 -28 54 -30 149 -29 89 0
110 4 181 32 201 80 365 246 365 369 0 131 -177 133 -364 4 -56 -39 -174 -166
-205 -221 -34 -60 -12 -46 45 30 136 179 383 307 467 240 57 -45 18 -141 -102
-252 -154 -143 -369 -213 -488 -159 -120 55 -99 212 55 416 86 115 108 135
143 135 112 0 434 97 603 182 225 112 376 253 376 348 0 12 -13 35 -29 51 -26
26 -36 29 -94 29 -232 0 -641 -228 -954 -533 l-61 -60 -49 7 c-164 23 -260
112 -238 219 28 133 172 253 385 323 75 24 103 28 240 31 85 2 157 6 160 11
14 20 -268 28 -365 11z m949 -55 c124 -123 -468 -481 -874 -528 l-55 -7 90 87
c228 218 505 403 670 449 71 19 150 19 169 -1z M9175 1271 c-118 -53 -318
-256 -627 -634 -85 -103 -223 -229 -317 -289 -45 -28 -91 -37 -91 -17 0 26 64
115 192 266 43 51 78 95 78 98 0 3 -20 5 -44 5 -39 0 -48 -4 -75 -37 -26 -32
-31 -34 -31 -17 0 32 -32 54 -77 54 -70 0 -175 -61 -283 -165 -153 -148 -249
-215 -305 -215 -54 0 -31 44 131 248 l126 157 71 5 c89 6 107 30 23 30 -31 0
-56 3 -56 6 0 3 34 45 75 94 41 48 72 89 70 91 -2 3 -24 3 -49 1 -44 -4 -48
-7 -121 -97 l-75 -94 -57 -3 c-70 -4 -84 -25 -20 -30 l45 -3 -76 -92 c-143
-171 -367 -341 -412 -313 -23 14 5 59 139 223 67 81 121 149 121 152 0 3 -21
2 -47 -1 -41 -4 -53 -11 -82 -47 -151 -185 -425 -383 -439 -317 -1 9 38 63 88
120 116 135 137 179 110 231 -25 45 -157 3 -253 -81 -25 -22 -48 -40 -51 -40
-3 0 30 44 72 98 43 53 109 137 147 186 l69 89 -44 -7 c-24 -4 -45 -8 -45 -9
-6 -16 -173 -207 -249 -286 -101 -104 -271 -250 -336 -290 -67 -40 -100 -22
-63 37 20 32 161 210 210 265 43 48 42 57 -6 57 -32 0 -44 -6 -70 -35 -24 -28
-31 -32 -31 -17 0 58 -93 67 -192 19 -165 -82 -283 -247 -244 -342 27 -63 104
-57 195 15 28 22 53 40 56 40 3 0 5 -15 5 -33 0 -38 25 -67 59 -67 49 0 164
78 296 200 l69 65 -75 -90 c-196 -234 -369 -445 -369 -450 0 -3 20 -5 43 -5
l44 0 108 133 c199 241 278 329 357 396 128 108 233 163 252 132 7 -10 -23
-49 -122 -163 -79 -91 -103 -142 -84 -183 30 -65 147 -26 287 97 l47 41 -21
-39 c-39 -72 -19 -134 43 -134 50 0 150 59 245 144 34 30 34 30 18 4 -29 -46
-33 -102 -8 -127 44 -44 131 -16 249 79 l63 51 -7 -50 c-6 -44 -4 -52 19 -75
41 -41 96 -29 192 43 l50 38 -3 -38 c-3 -31 0 -40 22 -54 50 -33 125 1 259
118 56 48 59 49 43 20 -22 -44 -21 -115 2 -136 49 -44 174 11 305 134 101 94
108 127 9 41 -133 -116 -190 -152 -242 -152 -43 0 -40 31 9 107 103 160 171
232 293 314 286 192 508 411 508 501 0 23 -28 48 -53 48 -12 0 -40 -9 -62 -19z
m74 -25 c40 -48 -204 -292 -474 -476 l-50 -34 40 50 c225 280 411 470 466 474
4 0 12 -6 18 -14z m-2785 -582 c44 -17 -7 -109 -123 -225 -137 -137 -256 -165
-195 -46 43 84 187 236 249 263 34 15 47 17 69 8z m1764 -21 c5 -35 -32 -95
-113 -181 -83 -89 -158 -142 -198 -142 -64 0 -9 114 117 243 97 99 186 136
194 80z M4706 1260 c-120 -60 -344 -287 -583 -590 -115 -145 -363 -350 -425
-350 -16 0 -28 5 -28 13 0 22 51 95 158 227 56 69 102 128 102 132 0 5 -18 8
-40 8 -32 0 -45 -6 -67 -30 l-27 -31 -13 25 c-41 77 -190 32 -335 -101 -181
-167 -317 -261 -354 -246 -25 9 -15 27 73 133 95 116 117 157 108 201 -18 79
-127 56 -249 -52 -63 -57 -72 -60 -51 -19 20 39 19 83 -3 103 -44 40 -101 10
-241 -126 -184 -179 -260 -237 -311 -237 -44 0 -13 54 138 240 56 69 102 129
102 133 0 21 -76 2 -108 -27 -22 -21 -32 -25 -32 -15 0 9 -9 24 -20 34 -64 57
-280 -51 -374 -189 -51 -73 -62 -160 -26 -196 40 -40 94 -22 225 75 20 14 21
13 17 -21 -5 -43 19 -74 58 -74 57 0 131 52 291 205 156 150 221 197 241 177
17 -17 -25 -79 -185 -267 l-85 -100 44 -3 45 -3 121 126 c67 70 148 147 180
171 70 54 146 90 160 76 14 -14 0 -37 -87 -139 -108 -127 -128 -180 -84 -224
43 -43 146 -1 267 106 33 29 52 42 47 30 -4 -11 -10 -39 -13 -62 -5 -51 29
-93 76 -93 36 0 118 41 160 80 l32 31 0 -39 c0 -115 113 -89 300 70 44 38 80
67 80 65 0 -2 -7 -19 -16 -37 -66 -132 16 -210 154 -145 74 34 135 78 219 158
90 86 86 109 -5 29 -176 -155 -303 -216 -326 -156 -9 24 18 78 91 182 86 124
137 173 253 247 244 154 460 369 460 456 0 57 -46 73 -114 39z m84 -38 c0 -71
-181 -249 -435 -428 -81 -57 -79 -53 39 91 206 251 313 355 367 355 21 0 29
-5 29 -18z m-2302 -583 c6 -55 -161 -250 -259 -299 -136 -70 -97 65 65 225 77
76 126 106 166 103 19 -2 26 -10 28 -29z m1263 15 c53 -64 -280 -390 -338
-331 -53 52 203 345 303 347 12 0 28 -7 35 -16z M7612 923 c-21 -8 -33 -52
-21 -74 15 -28 57 -21 83 14 16 21 18 32 10 45 -11 17 -48 25 -72 15z"/>
</g>
</svg>
