<?xml version="1.0" standalone="no"?>
<!DOCTYPE svg PUBLIC "-//W3C//DTD SVG 20010904//EN"
 "http://www.w3.org/TR/2001/REC-SVG-20010904/DTD/svg10.dtd">
<svg version="1.0" xmlns="http://www.w3.org/2000/svg"
 width="980.000000pt" height="190.000000pt" viewBox="0 0 980.000000 190.000000"
 preserveAspectRatio="xMidYMid meet">
<metadata>
Created by potrace 1.16, written by Peter Selinger 2001-2019
</metadata>
<g transform="translate(0.000000,190.000000) scale(0.100000,-0.100000)"
fill="#f1ead8" stroke="none">
<path d="M2654 1629 c-28 -10 -79 -36 -114 -58 l-64 -38 -60 28 c-34 16 -90
36 -126 46 -52 14 -102 18 -250 17 -167 0 -194 -3 -283 -27 -53 -14 -137 -43
-185 -63 -48 -21 -121 -58 -162 -82 -41 -24 -104 -69 -140 -99 -36 -31 -85
-79 -109 -107 -24 -28 -55 -68 -68 -90 -14 -21 -36 -67 -49 -102 -15 -41 -24
-85 -24 -122 0 -34 8 -73 19 -97 10 -22 31 -52 47 -67 16 -15 47 -34 69 -44
22 -9 74 -19 116 -21 41 -3 107 0 145 6 38 7 102 25 142 41 39 16 98 46 130
66 31 20 83 59 115 87 32 27 79 79 104 114 25 36 56 90 69 121 13 32 24 78 24
105 0 40 -5 53 -34 85 l-35 37 -83 -1 c-59 0 -100 -6 -142 -22 -33 -12 -84
-36 -114 -54 -30 -18 -84 -58 -120 -89 -66 -55 -136 -137 -181 -211 -12 -21
-19 -38 -13 -38 5 0 26 25 47 55 20 30 77 93 125 138 70 67 109 94 193 137 91
46 114 53 179 58 56 3 82 0 105 -12 20 -10 34 -26 38 -45 14 -66 -29 -153
-134 -264 -44 -46 -114 -108 -156 -136 -41 -29 -108 -67 -148 -86 -39 -18 -97
-38 -127 -46 -30 -7 -86 -12 -125 -12 -39 1 -86 8 -106 17 -20 8 -51 29 -68
46 -16 17 -33 47 -37 66 -3 19 -4 59 -2 89 3 36 18 81 43 132 31 63 58 98 139
179 61 61 132 120 179 149 43 26 117 64 165 85 48 20 123 47 167 58 44 12 121
26 170 33 52 7 134 9 195 6 64 -4 133 -15 175 -28 39 -12 87 -30 108 -41 22
-11 37 -21 35 -22 -1 -2 -35 -30 -73 -62 -39 -33 -112 -103 -162 -157 -50 -53
-158 -186 -239 -295 -81 -108 -184 -242 -230 -297 -45 -55 -117 -135 -161
-178 -43 -43 -101 -94 -128 -113 -28 -20 -76 -49 -107 -65 -32 -16 -84 -36
-115 -44 -31 -8 -90 -15 -130 -15 -44 0 -89 6 -111 15 -20 9 -47 26 -59 37
-13 12 -23 27 -23 33 0 7 11 10 29 7 20 -3 35 2 50 17 12 12 21 30 21 41 0 11
-9 29 -20 40 -11 11 -27 20 -35 20 -9 0 -29 -7 -45 -15 -17 -9 -33 -28 -40
-49 -9 -27 -8 -41 3 -69 8 -19 30 -46 48 -60 19 -14 52 -30 74 -36 22 -6 80
-11 128 -11 56 0 118 7 166 20 43 11 104 31 137 46 32 14 97 51 144 81 47 31
126 97 176 147 50 50 118 127 151 171 33 44 124 174 203 290 78 115 170 243
203 285 34 41 88 102 121 135 l59 59 27 -33 c16 -18 33 -53 39 -76 6 -24 11
-65 11 -92 0 -26 -11 -78 -24 -115 -13 -37 -44 -96 -70 -132 -25 -35 -67 -82
-92 -105 -26 -23 -77 -56 -113 -74 -55 -27 -77 -32 -136 -32 -38 0 -79 2 -90
5 -13 3 -20 0 -20 -10 0 -10 19 -20 54 -29 44 -12 68 -13 135 -3 56 8 105 23
156 49 52 25 96 57 141 102 44 44 77 89 100 136 32 65 34 77 34 170 0 85 -3
106 -23 143 -13 24 -39 60 -58 82 l-35 38 33 25 c35 27 115 69 161 86 16 6 25
15 22 21 -3 5 -9 10 -13 9 -4 0 -30 -9 -58 -20z M5627 1480 c-26 -5 -78 -18
-115 -30 -37 -12 -94 -36 -126 -53 -33 -17 -82 -53 -111 -78 -28 -26 -63 -70
-79 -98 -16 -29 -30 -74 -33 -105 -3 -31 0 -69 7 -90 7 -21 26 -53 43 -72 16
-20 48 -44 70 -55 21 -11 69 -27 106 -35 36 -7 70 -14 74 -14 4 0 -8 -21 -28
-47 -20 -26 -55 -85 -78 -131 -36 -74 -41 -93 -45 -170 -3 -77 -1 -92 20 -132
16 -29 41 -55 71 -74 38 -23 62 -30 120 -34 48 -3 94 1 137 12 36 9 97 31 135
50 39 18 99 56 135 85 36 29 80 71 98 94 19 23 43 59 53 79 11 21 19 58 19 83
0 35 -6 52 -23 69 -13 13 -42 27 -65 31 -26 4 -63 1 -104 -10 -35 -8 -88 -30
-118 -48 -30 -18 -96 -72 -145 -122 -50 -49 -101 -109 -113 -132 -13 -24 -20
-43 -15 -43 5 0 29 28 53 61 25 34 72 85 105 114 33 29 83 67 110 84 28 18 81
41 118 53 43 13 80 18 99 14 18 -3 40 -14 50 -23 10 -9 18 -28 18 -43 0 -14
-12 -49 -26 -78 -16 -31 -54 -78 -99 -120 -45 -42 -105 -86 -153 -110 -44 -23
-105 -48 -138 -57 -32 -8 -81 -15 -109 -15 -27 0 -69 9 -92 19 -25 12 -48 32
-57 50 -9 16 -16 53 -16 81 0 34 10 75 30 123 16 40 56 106 87 149 32 42 72
92 89 111 28 30 39 35 100 40 38 4 121 21 184 37 63 17 153 45 200 62 47 17
138 57 203 90 64 33 143 79 175 103 32 24 81 68 109 98 31 32 56 71 64 95 9
32 9 47 0 70 -7 16 -24 34 -37 41 -14 6 -53 11 -86 11 -34 0 -97 -10 -141 -21
-43 -12 -140 -52 -215 -90 -76 -37 -177 -95 -227 -128 -49 -33 -121 -85 -160
-116 -38 -31 -114 -97 -168 -146 l-98 -91 -47 6 c-26 4 -69 14 -96 23 -28 9
-65 32 -91 57 -29 28 -44 53 -49 78 -4 21 -2 55 3 76 6 21 25 60 42 86 17 26
57 67 87 92 31 25 81 58 111 73 31 16 85 38 121 49 36 12 93 26 128 32 35 6
116 10 180 9 64 -1 117 2 117 7 0 5 -18 12 -40 16 -22 4 -94 7 -160 6 -66 0
-141 -4 -168 -8z m947 -56 c9 -8 16 -28 16 -43 0 -17 -14 -47 -34 -73 -19 -24
-67 -69 -108 -100 -40 -30 -101 -72 -135 -92 -34 -20 -96 -52 -137 -71 -41
-20 -112 -49 -158 -66 -82 -30 -242 -71 -328 -84 l-45 -7 30 32 c41 44 227
206 300 262 33 25 98 70 145 100 47 31 108 67 137 82 28 14 85 37 125 51 40
13 96 25 125 25 34 0 57 -5 67 -16z M9163 1265 c-28 -14 -84 -54 -124 -89 -41
-34 -115 -106 -166 -159 -51 -53 -163 -183 -249 -287 -99 -121 -188 -218 -241
-263 -46 -40 -109 -89 -140 -110 -56 -37 -103 -48 -103 -24 0 8 22 45 49 83
27 38 87 115 135 172 47 56 86 105 86 107 0 3 -20 5 -44 5 -39 0 -48 -4 -75
-37 -26 -32 -31 -34 -31 -17 0 12 -9 29 -20 39 -15 14 -31 17 -69 13 -27 -3
-76 -18 -108 -34 -35 -18 -96 -66 -158 -125 -55 -52 -124 -115 -154 -138 -30
-23 -72 -51 -92 -62 -21 -10 -50 -19 -64 -19 -17 0 -25 5 -25 18 0 9 10 33 21
52 12 19 76 103 143 187 l121 152 69 3 c43 2 71 8 73 15 3 8 -14 13 -53 15
l-58 3 78 93 c43 52 76 95 74 96 -1 1 -24 1 -50 -2 -46 -4 -49 -6 -123 -97
l-76 -94 -56 -3 c-70 -4 -84 -25 -19 -30 l44 -3 -77 -91 c-42 -50 -108 -119
-147 -153 -38 -34 -102 -85 -142 -112 -47 -31 -84 -49 -103 -49 -18 0 -29 5
-29 14 0 7 12 31 26 52 15 21 75 98 135 171 60 72 109 134 109 137 0 3 -19 6
-41 6 -38 0 -46 -5 -87 -52 -81 -93 -187 -191 -271 -252 -78 -56 -147 -90
-163 -79 -5 2 -8 10 -8 17 0 7 40 59 89 115 49 56 96 117 105 136 9 18 16 43
16 55 0 12 -5 30 -10 41 -8 14 -21 19 -51 19 -27 0 -62 -11 -101 -32 -32 -17
-79 -49 -102 -70 -24 -21 -47 -38 -50 -38 -3 0 39 55 92 123 54 67 119 150
146 185 43 57 45 62 24 61 -13 -1 -32 -4 -44 -7 -11 -4 -56 -50 -99 -102 -43
-52 -124 -141 -179 -198 -96 -99 -237 -220 -320 -276 -21 -14 -49 -26 -62 -26
-16 0 -24 6 -24 18 0 9 29 55 64 102 35 47 95 122 134 167 39 44 68 84 65 87
-4 3 -23 6 -44 6 -30 0 -43 -7 -68 -35 -24 -28 -31 -32 -31 -17 0 10 -9 27
-20 37 -15 14 -31 17 -69 13 -27 -3 -73 -17 -103 -31 -29 -14 -82 -50 -118
-80 -38 -32 -79 -78 -99 -112 -27 -45 -35 -68 -35 -108 0 -40 5 -53 23 -68 13
-11 35 -19 50 -19 14 0 44 9 66 19 22 10 58 33 80 51 l40 32 6 -42 c3 -23 12
-46 20 -51 8 -5 24 -9 36 -9 12 0 34 5 50 11 15 6 62 36 103 67 41 30 106 85
144 121 l70 66 -75 -90 c-243 -291 -369 -444 -369 -450 0 -3 20 -5 45 -3 l45
3 188 225 c116 140 218 251 270 296 45 39 110 87 144 107 35 20 73 37 85 37
16 0 23 -6 23 -19 0 -10 -38 -61 -85 -112 -47 -52 -94 -112 -105 -135 -11 -22
-20 -50 -20 -62 0 -12 9 -31 20 -42 11 -11 30 -20 43 -20 12 0 49 13 82 29 33
16 88 52 123 80 34 28 62 49 62 47 0 -2 -7 -17 -15 -32 -8 -16 -15 -43 -15
-60 0 -17 8 -38 18 -47 10 -10 32 -17 48 -17 17 0 52 11 80 25 27 13 80 50
117 80 37 31 67 54 67 51 0 -2 -7 -17 -15 -32 -8 -16 -15 -41 -15 -56 0 -16 9
-37 20 -48 12 -12 33 -20 53 -20 18 0 55 11 83 25 27 13 77 47 111 74 l62 50
-6 -47 c-4 -38 -1 -52 17 -74 13 -17 31 -28 46 -28 14 0 41 7 61 15 21 9 60
33 88 54 l51 38 -4 -34 c-3 -23 1 -40 13 -53 10 -11 30 -20 44 -20 14 0 44 9
66 19 23 10 79 49 125 86 47 39 80 60 76 49 -16 -37 -24 -87 -19 -103 11 -31
36 -51 63 -51 15 0 42 5 61 12 19 6 59 27 89 46 30 19 87 66 127 105 40 38 70
74 67 78 -3 5 -39 -21 -80 -57 -42 -36 -103 -83 -136 -105 -35 -22 -73 -39
-90 -39 -17 0 -31 6 -35 16 -3 9 1 31 10 48 8 18 57 88 107 155 85 113 99 127
198 193 59 39 143 99 187 132 44 33 120 98 168 145 48 46 106 111 127 144 22
33 40 70 40 82 0 13 -7 31 -16 39 -8 9 -25 16 -38 16 -12 0 -45 -11 -73 -25z
m86 -18 c8 -10 6 -23 -7 -49 -10 -19 -36 -56 -56 -82 -21 -25 -82 -83 -135
-129 -89 -77 -207 -169 -291 -227 l-35 -24 40 49 c99 125 198 238 290 334 55
56 116 111 135 122 19 10 38 18 41 19 4 0 12 -6 18 -13z m-2785 -583 c9 -3 16
-16 16 -28 0 -12 -13 -42 -28 -67 -16 -24 -54 -72 -86 -106 -32 -34 -85 -81
-118 -103 -36 -24 -72 -40 -89 -40 -19 0 -29 5 -29 15 0 32 32 90 85 155 29
37 78 88 108 113 50 44 87 65 114 66 6 1 18 -2 27 -5z m1764 -21 c2 -12 -6
-39 -17 -61 -11 -22 -54 -75 -96 -120 -41 -44 -97 -94 -124 -111 -26 -17 -60
-31 -74 -31 -23 0 -27 4 -27 29 0 17 16 53 39 87 22 33 70 90 106 127 37 37
84 76 104 87 20 11 47 19 61 17 17 -1 26 -9 28 -24z M4694 1254 c-26 -14 -83
-55 -125 -91 -42 -35 -124 -117 -182 -181 -103 -115 -160 -182 -283 -334 -64
-78 -217 -216 -318 -287 -36 -24 -71 -41 -88 -41 -17 0 -28 5 -28 14 0 7 18
40 40 72 21 33 80 108 130 167 49 59 90 112 90 117 0 6 -18 10 -39 10 -32 0
-46 -6 -70 -32 -17 -18 -31 -27 -31 -20 0 6 -9 21 -20 32 -13 13 -33 20 -60
20 -22 0 -61 -8 -88 -18 -26 -10 -65 -30 -87 -45 -21 -14 -75 -60 -121 -102
-46 -42 -112 -99 -146 -127 -35 -27 -80 -59 -100 -69 -21 -10 -49 -19 -63 -19
-14 0 -25 3 -25 8 0 14 39 67 99 137 34 39 70 88 81 111 11 22 20 50 20 62 0
12 -9 31 -20 42 -11 11 -33 20 -49 20 -15 0 -50 -12 -77 -26 -27 -14 -69 -42
-92 -62 -24 -21 -53 -44 -64 -52 -20 -14 -20 -14 -4 17 9 18 16 45 16 61 0 16
-8 36 -18 45 -10 10 -30 17 -43 17 -14 0 -46 -13 -71 -29 -25 -16 -100 -83
-166 -149 -66 -66 -149 -138 -182 -161 -62 -41 -110 -53 -110 -28 0 8 13 33
29 58 16 24 75 100 130 169 56 69 101 128 101 133 0 4 -17 7 -37 7 -28 0 -45
-8 -70 -32 -23 -22 -33 -27 -33 -17 0 9 -9 24 -20 34 -15 14 -31 17 -70 13
-29 -3 -79 -19 -118 -39 -40 -20 -91 -58 -128 -94 -33 -34 -71 -83 -84 -110
-14 -29 -23 -66 -23 -93 0 -36 5 -49 24 -65 18 -14 33 -18 63 -14 25 4 66 24
111 55 l71 49 -4 -34 c-3 -23 1 -40 13 -53 10 -11 30 -20 45 -20 14 0 50 12
79 26 34 18 107 78 209 176 86 82 172 158 192 168 20 10 41 15 47 12 8 -5 8
-16 -2 -37 -7 -17 -69 -97 -137 -180 l-125 -150 43 -3 43 -3 143 145 c81 81
171 162 207 185 36 23 76 41 93 41 15 0 28 -4 28 -8 0 -5 -13 -27 -29 -48 -16
-21 -54 -68 -84 -102 -31 -35 -63 -79 -71 -97 -9 -18 -16 -45 -16 -59 0 -14
10 -36 21 -47 17 -17 29 -20 61 -16 21 3 64 20 94 39 31 18 80 55 110 81 47
43 53 45 44 22 -5 -14 -10 -42 -10 -61 0 -24 8 -43 25 -59 14 -15 36 -25 53
-25 15 0 50 11 78 25 27 13 64 38 82 54 l32 30 0 -38 c0 -24 7 -44 18 -54 10
-10 31 -17 46 -17 16 0 54 14 85 30 31 17 96 64 143 105 l86 74 -19 -50 c-11
-27 -19 -63 -19 -80 0 -18 9 -39 25 -54 17 -18 35 -25 62 -25 21 0 65 13 98
29 33 15 87 49 120 74 33 25 84 70 113 100 30 30 50 57 44 61 -5 3 -31 -15
-58 -40 -27 -25 -75 -66 -106 -90 -31 -25 -79 -56 -106 -70 -27 -14 -64 -26
-81 -26 -18 -1 -36 5 -41 12 -4 7 -4 27 1 44 10 33 90 155 164 249 26 33 71
73 106 95 142 87 281 194 380 292 59 58 116 124 128 147 12 23 21 53 21 67 0
13 -7 32 -16 40 -8 9 -26 16 -38 16 -13 0 -45 -12 -72 -26z m96 -32 c0 -10
-13 -39 -30 -65 -16 -26 -63 -79 -102 -118 -40 -39 -107 -97 -148 -129 -92
-73 -220 -163 -220 -156 0 8 191 237 279 335 42 46 96 99 121 117 50 38 100
45 100 16z m-2302 -583 c2 -16 -11 -46 -38 -86 -22 -33 -72 -90 -110 -127 -38
-36 -88 -75 -110 -86 -21 -11 -49 -20 -60 -20 -11 0 -23 7 -26 14 -3 8 9 43
28 78 20 38 65 95 113 143 44 44 96 88 115 98 19 9 46 16 60 15 19 -2 26 -10
28 -29z m1261 12 c8 -14 4 -30 -14 -67 -13 -27 -53 -81 -88 -119 -36 -39 -82
-83 -103 -97 -22 -15 -55 -34 -75 -42 -30 -12 -39 -13 -54 -2 -17 12 -16 15 4
61 12 26 46 78 75 114 30 37 74 82 97 101 24 19 56 43 73 52 17 9 41 17 53 18
12 0 27 -8 32 -19z M7600 910 c-11 -11 -20 -25 -20 -31 0 -6 5 -19 10 -30 6
-10 21 -19 34 -19 12 0 32 10 44 23 12 13 22 30 22 38 0 8 -5 20 -12 27 -7 7
-22 12 -35 12 -13 0 -32 -9 -43 -20z"/>
</g>
</svg>
