<?xml version="1.0" standalone="no"?>
<!DOCTYPE svg PUBLIC "-//W3C//DTD SVG 20010904//EN"
 "http://www.w3.org/TR/2001/REC-SVG-20010904/DTD/svg10.dtd">
<svg version="1.0" xmlns="http://www.w3.org/2000/svg"
 width="980.000000pt" height="190.000000pt" viewBox="0 0 980.000000 190.000000"
 preserveAspectRatio="xMidYMid meet">
<metadata>
Created by potrace 1.16, written by Peter Selinger 2001-2019
</metadata>
<g transform="translate(0.000000,190.000000) scale(0.100000,-0.100000)"
fill="#f1ead8" stroke="none">
<path d="M2646 1625 c-32 -13 -82 -39 -111 -59 l-53 -35 -78 34 c-44 18 -114
41 -156 49 -111 23 -292 21 -423 -5 -123 -23 -217 -55 -330 -112 -120 -60
-217 -131 -305 -224 -57 -60 -91 -107 -120 -167 -29 -58 -43 -100 -47 -142 -3
-32 0 -78 6 -102 7 -23 26 -59 44 -79 18 -20 52 -45 76 -56 24 -11 77 -21 120
-24 103 -7 222 17 331 68 47 22 117 65 157 95 132 101 230 249 240 362 4 49 2
61 -18 86 -27 35 -75 56 -127 56 -55 0 -147 -26 -217 -61 -80 -41 -157 -99
-230 -175 -58 -60 -133 -169 -123 -179 3 -3 22 20 43 50 85 124 234 246 367
303 52 21 79 26 151 27 83 0 90 -2 109 -25 15 -19 19 -35 15 -66 -2 -23 -14
-63 -27 -89 -28 -58 -160 -199 -248 -263 -80 -59 -186 -114 -268 -138 -34 -10
-93 -18 -139 -18 -64 0 -90 5 -128 23 -30 14 -58 38 -74 62 -19 30 -25 51 -25
96 0 111 60 229 177 347 148 150 360 263 587 312 101 21 287 29 378 15 89 -14
186 -44 219 -70 l23 -18 -49 -36 c-97 -71 -268 -261 -437 -487 -93 -124 -201
-263 -240 -310 -178 -214 -324 -326 -485 -374 -63 -19 -193 -21 -242 -5 -19 7
-46 23 -62 37 -29 28 -37 55 -12 46 24 -10 64 5 76 27 16 30 3 68 -28 80 -54
20 -103 -21 -103 -87 0 -50 26 -86 83 -116 32 -16 66 -22 142 -26 81 -4 118 0
185 17 98 24 221 81 312 142 73 49 223 197 289 284 26 33 106 148 179 255 176
258 254 361 345 456 l76 79 28 -33 c80 -94 64 -263 -38 -409 -59 -84 -133
-150 -210 -189 -50 -26 -66 -29 -153 -29 -54 0 -98 -3 -98 -6 0 -4 15 -13 33
-20 18 -8 65 -14 107 -13 162 1 322 90 415 230 49 73 75 154 75 230 0 81 -29
158 -81 218 l-41 46 24 20 c12 11 60 38 106 61 45 23 82 45 82 50 0 5 -3 9 -7
9 -5 0 -34 -11 -67 -25z M5632 1479 c-78 -13 -199 -56 -262 -92 -68 -39 -151
-120 -179 -176 -43 -84 -37 -189 15 -251 48 -56 102 -80 241 -106 20 -4 18 -9
-32 -83 -29 -43 -63 -105 -75 -138 -12 -32 -25 -91 -28 -130 -4 -64 -2 -79 22
-128 21 -42 38 -61 74 -83 42 -24 56 -27 142 -27 80 0 107 5 173 29 43 16 111
50 150 76 86 56 180 153 207 212 11 24 20 62 20 86 0 33 -6 48 -25 66 -28 27
-77 37 -132 29 -21 -3 -76 -23 -123 -45 -71 -34 -99 -55 -175 -132 -49 -50
-101 -111 -114 -135 -13 -24 -19 -42 -14 -40 6 2 32 33 59 69 99 130 270 245
384 257 47 4 59 2 83 -17 19 -15 27 -30 27 -53 0 -81 -138 -233 -279 -306
-136 -71 -256 -89 -338 -52 -41 19 -64 49 -76 102 -8 33 15 124 47 187 25 50
124 187 169 235 18 18 36 27 57 27 56 0 232 40 355 81 148 49 321 131 419 199
124 86 206 186 206 250 0 12 -13 35 -29 51 -26 26 -36 29 -94 29 -35 0 -99 -9
-143 -20 -153 -39 -433 -194 -614 -339 -36 -29 -109 -93 -163 -143 l-98 -90
-47 6 c-79 12 -143 37 -183 73 -43 39 -64 96 -54 146 12 57 58 128 115 179 60
54 200 127 295 154 40 11 110 18 215 20 85 2 160 4 165 4 6 0 1 6 -10 12 -25
15 -281 20 -353 7z m939 -49 c29 -16 25 -69 -9 -116 -82 -113 -325 -260 -568
-344 -106 -37 -285 -80 -330 -80 -14 0 -9 10 21 41 67 69 255 228 356 300 111
79 243 152 337 185 71 25 160 31 193 14z M9164 1264 c-134 -71 -310 -251 -631
-647 -66 -81 -211 -210 -296 -264 -52 -34 -97 -43 -97 -20 0 6 10 28 21 47 26
42 168 220 216 271 19 20 31 39 26 42 -4 2 -25 4 -47 3 -30 -2 -44 -9 -67 -37
-25 -30 -28 -31 -29 -13 0 11 -8 28 -18 37 -31 28 -91 21 -171 -19 -52 -26
-102 -64 -179 -138 -150 -142 -242 -206 -297 -206 -55 0 -27 52 144 265 l113
140 71 5 c44 3 72 10 75 18 3 8 -12 12 -52 12 -31 0 -56 3 -56 7 0 3 33 45 74
94 41 48 73 89 71 91 -3 2 -25 2 -49 -2 -43 -5 -50 -10 -121 -97 l-75 -92 -57
-3 c-70 -4 -84 -26 -19 -30 l46 -3 -83 -98 c-76 -90 -203 -206 -287 -263 -53
-35 -104 -54 -120 -44 -12 8 -12 14 2 42 8 18 70 99 136 180 66 80 119 148
116 150 -2 2 -23 2 -48 -2 -40 -5 -50 -12 -113 -85 -85 -98 -237 -225 -320
-266 -60 -30 -83 -31 -83 -5 0 7 39 57 86 112 91 105 124 158 124 198 0 13 -7
32 -16 40 -8 9 -30 16 -48 16 -45 0 -144 -52 -204 -106 -54 -48 -80 -60 -41
-18 34 36 278 348 274 352 -1 1 -20 0 -41 -4 -34 -5 -47 -17 -99 -82 -33 -41
-109 -127 -170 -190 -174 -182 -360 -332 -411 -332 -53 0 -24 49 154 265 45
55 82 102 82 105 0 3 -20 4 -45 2 -35 -3 -50 -11 -70 -34 -21 -25 -25 -26 -25
-10 0 29 -32 52 -73 52 -44 0 -125 -31 -181 -69 -63 -44 -143 -128 -166 -175
-27 -56 -27 -129 0 -156 11 -11 32 -20 47 -20 36 0 100 32 151 76 l42 36 0
-40 c0 -42 23 -72 56 -72 53 1 166 77 299 200 38 36 56 49 40 29 -17 -20 -114
-137 -216 -260 -102 -123 -189 -230 -193 -236 -5 -10 4 -13 36 -13 l43 0 179
215 c99 119 205 240 237 269 118 109 233 186 278 186 47 0 35 -21 -97 -172
-79 -91 -103 -142 -84 -183 6 -13 22 -27 36 -31 14 -3 41 -1 60 6 44 14 142
77 196 126 l42 39 -21 -40 c-11 -22 -21 -54 -21 -72 0 -24 7 -37 26 -50 23
-14 32 -15 71 -5 51 14 126 61 199 125 43 37 47 39 30 12 -11 -16 -20 -48 -20
-73 -1 -33 4 -47 19 -59 46 -34 155 8 265 104 l48 43 -9 -36 c-21 -76 18 -132
84 -120 31 6 89 39 147 85 l25 19 -3 -38 c-3 -32 0 -41 22 -55 18 -12 36 -15
60 -11 36 7 119 61 203 134 l53 44 -15 -35 c-8 -20 -15 -54 -15 -76 0 -30 6
-44 22 -55 12 -9 34 -16 49 -16 14 0 58 16 96 35 45 22 101 64 156 116 48 44
84 85 81 91 -4 5 -25 -8 -48 -30 -63 -60 -152 -130 -196 -152 -22 -11 -53 -20
-70 -20 -25 0 -30 4 -30 24 0 27 70 137 157 246 48 61 83 91 178 154 157 105
295 217 387 315 72 76 118 148 118 183 0 24 -28 48 -54 48 -13 0 -45 -12 -72
-26z m90 -20 c18 -46 -121 -201 -319 -355 -138 -107 -215 -159 -195 -133 37
49 204 246 261 309 113 125 198 195 235 195 7 0 15 -7 18 -16z m-2776 -605 c4
-36 -63 -132 -149 -214 -71 -67 -159 -118 -185 -108 -42 16 16 124 130 239 45
46 98 90 117 99 19 8 45 14 59 12 19 -1 26 -9 28 -28z m1750 4 c5 -38 -28 -92
-110 -178 -87 -92 -161 -145 -201 -145 -23 0 -27 4 -27 29 0 17 17 54 42 91
50 76 162 189 209 213 46 23 83 19 87 -10z M4693 1251 c-70 -39 -92 -57 -202
-164 -99 -97 -214 -227 -348 -392 -107 -132 -221 -239 -357 -334 -60 -42 -116
-55 -116 -27 0 21 69 119 169 241 50 61 91 112 91 115 0 3 -20 4 -45 3 -34 -1
-50 -7 -65 -25 -11 -12 -19 -26 -20 -30 0 -5 -4 -8 -10 -8 -5 0 -7 6 -4 14 3
8 -4 24 -16 36 -19 19 -31 22 -75 18 -31 -3 -77 -17 -111 -34 -32 -16 -96 -65
-143 -108 -124 -115 -228 -196 -288 -223 -52 -24 -73 -24 -73 1 0 6 40 60 88
119 52 63 94 123 101 146 23 77 -22 118 -98 91 -47 -17 -116 -63 -168 -113
-44 -42 -53 -41 -28 3 20 35 19 84 -3 103 -44 40 -102 9 -236 -121 -147 -143
-212 -200 -258 -223 -43 -22 -78 -25 -78 -6 0 22 51 95 158 227 56 69 102 127
102 130 0 3 -20 4 -45 2 -35 -3 -50 -11 -70 -34 -21 -25 -25 -26 -25 -10 0 29
-32 52 -73 52 -52 0 -127 -31 -199 -83 -104 -74 -168 -170 -168 -252 0 -32 6
-51 20 -65 11 -11 32 -20 47 -20 36 0 100 32 150 75 23 19 43 35 45 35 2 0 2
-16 0 -35 -5 -44 19 -75 58 -75 58 0 131 52 290 205 154 148 221 198 242 177
6 -6 6 -18 -3 -33 -17 -33 -81 -115 -182 -234 l-85 -100 46 -3 c41 -3 50 0 70
25 53 63 221 228 274 270 70 53 146 89 160 75 14 -14 -5 -45 -84 -137 -76 -87
-108 -140 -108 -180 0 -32 33 -65 65 -65 14 0 42 7 62 15 40 17 127 78 182
129 26 23 32 26 26 11 -5 -11 -10 -39 -13 -62 -3 -35 0 -46 22 -67 14 -15 37
-26 51 -26 14 0 42 7 61 15 35 14 116 72 122 87 2 5 7 8 11 8 4 0 5 -16 3 -35
-3 -25 1 -42 14 -56 15 -17 27 -20 57 -16 51 7 129 56 232 145 l85 73 -21 -41
c-12 -23 -24 -61 -27 -85 -4 -37 -1 -47 21 -69 19 -19 37 -26 64 -26 45 0 126
36 197 87 70 51 187 164 180 175 -3 4 -35 -18 -72 -51 -152 -134 -265 -196
-311 -171 -12 6 -21 17 -21 24 0 27 59 125 136 229 71 94 89 111 174 165 52
33 132 88 177 122 177 131 323 294 323 360 0 34 -23 60 -53 60 -12 0 -45 -13
-74 -29z m97 -26 c0 -57 -125 -196 -291 -325 -108 -84 -209 -153 -209 -145 0
3 44 59 97 123 219 265 320 362 374 362 19 0 29 -5 29 -15z m-2302 -586 c4
-36 -63 -132 -148 -213 -76 -71 -139 -109 -173 -104 -17 2 -22 9 -20 32 3 41
64 129 147 211 76 76 126 107 166 103 19 -2 26 -10 28 -29z m1262 16 c7 -8 9
-24 5 -37 -12 -37 -89 -139 -146 -194 -94 -88 -174 -129 -198 -101 -26 32 31
130 140 239 95 94 169 129 199 93z M7614 922 c-19 -12 -34 -50 -28 -66 8 -22
51 -31 70 -15 27 22 36 47 24 69 -11 20 -45 26 -66 12z"/>
</g>
</svg>
