<?xml version="1.0" standalone="no"?>
<!DOCTYPE svg PUBLIC "-//W3C//DTD SVG 20010904//EN"
 "http://www.w3.org/TR/2001/REC-SVG-20010904/DTD/svg10.dtd">
<svg version="1.0" xmlns="http://www.w3.org/2000/svg"
 width="980.000000pt" height="190.000000pt" viewBox="0 0 980.000000 190.000000"
 preserveAspectRatio="xMidYMid meet">
<metadata>
Created by potrace 1.16, written by Peter Selinger 2001-2019
</metadata>
<g transform="translate(0.000000,190.000000) scale(0.100000,-0.100000)"
fill="#f1ead8" stroke="none">
<path d="M2646 1625 c-32 -13 -82 -39 -111 -59 l-53 -35 -78 34 c-108 46 -210
65 -353 65 -330 0 -648 -132 -861 -357 -170 -180 -217 -376 -117 -490 121
-137 448 -98 684 83 132 101 230 249 240 362 4 49 2 61 -18 86 -95 120 -367
35 -574 -180 -58 -60 -133 -169 -123 -179 3 -3 22 20 43 50 85 124 234 246
367 303 52 21 79 26 151 27 83 0 90 -2 109 -25 15 -19 19 -35 15 -66 -7 -67
-44 -129 -129 -219 -177 -187 -371 -288 -553 -289 -147 0 -227 64 -227 181 0
266 353 570 764 659 101 21 287 29 378 15 89 -14 186 -44 219 -70 l23 -18 -49
-36 c-97 -71 -268 -261 -437 -487 -93 -124 -201 -263 -240 -310 -228 -273
-413 -390 -616 -390 -89 0 -134 13 -173 48 -29 28 -37 55 -12 46 24 -10 64 5
76 27 16 30 3 68 -28 80 -54 20 -103 -21 -103 -87 0 -89 73 -135 225 -142 122
-5 227 18 352 77 119 57 196 113 298 215 108 109 142 152 315 406 176 258 254
361 345 456 l76 79 28 -33 c34 -40 51 -93 51 -160 0 -157 -135 -356 -299 -438
-50 -26 -66 -29 -153 -29 -54 0 -98 -3 -98 -6 0 -17 72 -34 140 -33 370 2 628
429 409 678 l-41 46 24 20 c12 11 60 38 106 61 45 23 82 45 82 50 0 13 -8 11
-74 -16z M5632 1479 c-78 -13 -199 -56 -262 -92 -68 -39 -151 -120 -179 -176
-43 -84 -37 -189 15 -251 48 -56 102 -80 241 -106 20 -4 18 -9 -32 -83 -67
-100 -96 -177 -103 -268 -4 -64 -2 -79 22 -128 21 -42 38 -61 74 -83 42 -24
56 -27 142 -27 80 0 107 5 173 29 146 54 311 187 357 288 28 62 26 123 -5 152
-51 48 -130 43 -255 -16 -71 -34 -99 -55 -175 -132 -49 -50 -101 -111 -114
-135 -33 -61 -13 -48 45 29 99 130 270 245 384 257 47 4 59 2 83 -17 57 -45
18 -141 -102 -252 -267 -247 -623 -231 -556 26 20 76 52 137 123 231 86 117
106 135 142 135 56 0 232 40 355 81 347 115 625 315 625 449 0 12 -13 35 -29
51 -26 26 -36 29 -94 29 -95 0 -207 -33 -352 -104 -205 -100 -371 -216 -568
-398 l-98 -90 -47 6 c-125 18 -212 73 -233 148 -30 115 74 255 256 343 134 65
187 77 365 81 85 2 160 4 165 4 6 0 1 6 -10 12 -25 15 -281 20 -353 7z m939
-49 c13 -7 19 -21 19 -44 0 -143 -438 -400 -810 -476 -139 -28 -142 -28 -95
21 67 69 255 228 356 300 223 160 446 243 530 199z M9164 1264 c-134 -71 -310
-251 -631 -647 -102 -125 -316 -297 -370 -297 -29 0 -29 15 -2 60 26 42 168
220 216 271 19 20 31 39 26 42 -4 2 -25 4 -47 3 -30 -2 -44 -9 -67 -37 -25
-30 -28 -31 -29 -13 0 32 -32 54 -77 54 -71 0 -171 -59 -291 -174 -150 -142
-242 -206 -297 -206 -55 0 -27 52 144 265 l113 140 71 5 c44 3 72 10 75 18 3
8 -12 12 -52 12 -31 0 -56 3 -56 7 0 3 33 45 74 94 41 48 73 89 71 91 -3 2
-25 2 -49 -2 -43 -5 -50 -10 -121 -97 l-75 -92 -57 -3 c-70 -4 -84 -26 -19
-30 l46 -3 -83 -98 c-144 -171 -362 -335 -407 -307 -23 14 5 60 138 222 66 80
119 148 116 150 -2 2 -23 2 -48 -2 -40 -5 -50 -12 -113 -85 -119 -138 -356
-313 -392 -290 -21 13 -10 33 75 131 47 54 94 116 105 136 36 70 17 118 -45
118 -45 0 -144 -52 -204 -106 -54 -48 -80 -60 -41 -18 34 36 278 348 274 352
-1 1 -20 0 -41 -4 -34 -5 -47 -17 -99 -82 -180 -226 -509 -522 -581 -522 -53
0 -24 49 154 265 45 55 82 102 82 105 0 3 -20 4 -45 2 -35 -3 -50 -11 -70 -34
-21 -25 -25 -26 -25 -10 0 52 -73 66 -161 32 -98 -39 -220 -144 -259 -224 -41
-87 -18 -176 47 -176 36 0 100 32 151 76 l42 36 0 -40 c0 -42 23 -72 56 -72
53 1 166 77 299 200 38 36 56 49 40 29 -17 -20 -114 -137 -216 -260 -102 -123
-189 -230 -193 -236 -5 -10 4 -13 36 -13 l43 0 179 215 c99 119 205 240 237
269 118 109 233 186 278 186 47 0 35 -21 -97 -172 -41 -47 -77 -99 -84 -121
-22 -71 22 -112 96 -87 44 14 142 77 196 126 l42 39 -21 -40 c-30 -56 -28
-100 5 -122 23 -14 32 -15 71 -5 51 14 126 61 199 125 43 37 47 39 30 12 -27
-41 -27 -112 -1 -132 46 -34 155 8 265 104 l48 43 -9 -36 c-21 -76 18 -132 84
-120 31 6 89 39 147 85 l25 19 -3 -38 c-3 -32 0 -41 22 -55 49 -32 123 2 263
123 l53 44 -15 -35 c-23 -55 -20 -113 7 -131 34 -24 68 -19 145 19 75 37 248
189 237 207 -4 5 -25 -8 -48 -30 -112 -107 -212 -172 -266 -172 -25 0 -30 4
-30 24 0 27 70 137 157 246 48 61 83 91 178 154 283 189 505 408 505 498 0 24
-28 48 -54 48 -13 0 -45 -12 -72 -26z m90 -20 c22 -59 -216 -295 -479 -474
-57 -39 -57 -40 71 115 171 206 291 329 350 360 37 19 50 19 58 -1z m-2776
-605 c7 -59 -169 -257 -271 -304 -84 -39 -100 -10 -46 84 38 66 183 215 230
236 50 22 83 16 87 -16z m1750 4 c5 -38 -28 -92 -110 -178 -87 -92 -161 -145
-201 -145 -23 0 -27 4 -27 29 0 59 168 262 251 304 46 23 83 19 87 -10z M4693
1251 c-70 -39 -92 -57 -202 -164 -99 -97 -214 -227 -348 -392 -107 -132 -221
-239 -357 -334 -60 -42 -116 -55 -116 -27 0 21 69 119 169 241 50 61 91 112
91 115 0 3 -20 4 -45 3 -34 -1 -50 -7 -65 -25 -11 -12 -19 -26 -20 -30 0 -5
-4 -8 -10 -8 -5 0 -7 6 -4 14 3 8 -4 24 -16 36 -19 19 -31 22 -75 18 -76 -6
-156 -51 -254 -142 -170 -157 -320 -260 -351 -241 -20 12 -8 33 78 138 94 114
120 166 102 211 -25 68 -146 29 -267 -87 -44 -42 -53 -41 -28 3 20 35 19 84
-3 103 -44 40 -102 9 -236 -121 -147 -143 -212 -200 -258 -223 -43 -22 -78
-25 -78 -6 0 22 51 95 158 227 56 69 102 127 102 130 0 3 -20 4 -45 2 -35 -3
-50 -11 -70 -34 -21 -25 -25 -26 -25 -10 0 51 -72 66 -160 33 -104 -39 -210
-133 -259 -228 -43 -84 -19 -173 46 -173 36 0 100 32 150 75 23 19 43 35 45
35 2 0 2 -16 0 -35 -5 -44 19 -75 58 -75 58 0 131 52 290 205 154 148 221 198
242 177 17 -17 -25 -79 -185 -267 l-85 -100 46 -3 c41 -3 50 0 70 25 53 63
221 228 274 270 70 53 146 89 160 75 14 -14 -5 -45 -84 -137 -107 -122 -130
-183 -88 -225 24 -24 58 -25 107 -5 40 17 127 78 182 129 26 23 32 26 26 11
-5 -11 -10 -39 -13 -62 -3 -35 0 -46 22 -67 29 -30 61 -33 112 -11 35 14 116
72 122 87 9 21 18 4 14 -27 -3 -25 1 -42 14 -56 41 -45 138 -2 289 129 l85 73
-21 -41 c-12 -23 -24 -61 -27 -85 -4 -37 -1 -47 21 -69 64 -64 207 -2 379 163
37 35 65 68 62 73 -3 4 -35 -18 -72 -51 -152 -134 -265 -196 -311 -171 -12 6
-21 17 -21 24 0 27 59 125 136 229 71 94 89 111 174 165 210 134 387 285 460
394 43 64 50 106 24 132 -22 23 -52 19 -111 -13z m97 -26 c0 -57 -125 -196
-291 -325 -108 -84 -209 -153 -209 -145 0 3 44 59 97 123 219 265 320 362 374
362 19 0 29 -5 29 -15z m-2302 -586 c6 -55 -161 -250 -259 -299 -135 -70 -97
64 65 225 76 76 126 107 166 103 19 -2 26 -10 28 -29z m1262 16 c16 -20 5 -49
-45 -120 -97 -137 -259 -253 -294 -212 -26 32 31 130 140 239 95 94 169 129
199 93z M7614 922 c-19 -12 -34 -50 -28 -66 8 -22 51 -31 70 -15 27 22 36 47
24 69 -11 20 -45 26 -66 12z"/>
</g>
</svg>
