<?xml version="1.0" standalone="no"?>
<!DOCTYPE svg PUBLIC "-//W3C//DTD SVG 20010904//EN"
 "http://www.w3.org/TR/2001/REC-SVG-20010904/DTD/svg10.dtd">
<svg version="1.0" xmlns="http://www.w3.org/2000/svg"
 width="980.000000pt" height="190.000000pt" viewBox="0 0 980.000000 190.000000"
 preserveAspectRatio="xMidYMid meet">
<metadata>
Created by potrace 1.16, written by Peter Selinger 2001-2019
</metadata>
<g transform="translate(0.000000,190.000000) scale(0.100000,-0.100000)"
fill="#f1ead8" stroke="none">
<path d="M2649 1626 c-58 -23 -122 -59 -151 -83 -14 -13 -23 -11 -66 11 -28
14 -86 36 -129 48 -69 20 -99 23 -263 22 -167 0 -195 -3 -283 -27 -53 -14
-137 -43 -185 -63 -48 -21 -121 -58 -162 -82 -41 -24 -104 -69 -140 -99 -114
-98 -185 -192 -225 -298 -30 -80 -33 -163 -6 -220 10 -22 31 -52 47 -67 16
-15 47 -34 69 -44 22 -9 74 -19 116 -21 41 -3 107 0 145 6 38 7 102 25 142 41
39 16 98 46 130 66 87 56 168 130 219 201 25 36 56 90 69 121 13 32 24 78 24
105 0 40 -5 53 -34 84 -30 33 -39 37 -94 41 -44 3 -81 -2 -134 -18 -40 -12
-103 -39 -139 -60 -37 -22 -94 -62 -127 -90 -61 -51 -138 -142 -181 -212 -12
-21 -19 -38 -13 -38 5 0 26 25 47 55 20 30 78 93 126 140 73 68 109 94 194
136 89 45 114 53 177 57 56 3 82 0 105 -12 20 -10 34 -26 38 -45 14 -66 -29
-153 -134 -264 -44 -46 -114 -108 -156 -136 -41 -29 -108 -67 -148 -86 -39
-18 -97 -38 -127 -46 -30 -7 -86 -12 -125 -12 -39 1 -86 8 -106 17 -20 8 -51
29 -68 46 -16 17 -33 47 -37 66 -3 19 -4 59 -2 89 3 36 18 81 43 132 31 63 58
98 139 179 61 61 132 120 179 149 43 26 117 64 165 85 172 73 356 107 532 97
58 -4 134 -15 170 -25 62 -18 156 -60 148 -66 -1 -2 -35 -30 -73 -62 -39 -33
-112 -103 -162 -156 -50 -54 -158 -187 -239 -295 -81 -109 -184 -243 -229
-298 -95 -116 -218 -239 -290 -291 -70 -50 -155 -92 -222 -109 -75 -20 -193
-19 -241 0 -41 18 -82 52 -82 70 0 7 11 10 29 7 20 -3 35 2 50 17 12 12 21 30
21 41 0 24 -34 60 -55 60 -9 0 -29 -7 -45 -15 -17 -9 -33 -28 -40 -49 -9 -27
-8 -41 3 -69 8 -19 30 -46 48 -60 19 -14 52 -30 74 -36 22 -6 80 -11 128 -11
102 0 209 24 307 69 36 16 101 53 145 81 44 29 121 94 171 144 50 50 118 127
151 171 33 44 124 174 203 290 78 115 170 243 203 285 34 41 88 102 121 135
l59 59 27 -33 c16 -18 33 -53 39 -76 6 -24 11 -65 11 -92 0 -26 -11 -78 -24
-115 -13 -37 -44 -96 -70 -132 -25 -35 -67 -83 -93 -106 -27 -23 -75 -56 -108
-73 -51 -26 -71 -31 -135 -32 -41 0 -84 2 -95 5 -13 3 -20 0 -20 -10 0 -10 19
-20 54 -29 44 -12 68 -13 135 -3 114 16 212 66 297 151 44 44 77 89 100 136
32 65 34 77 34 170 0 85 -3 106 -23 143 -13 24 -39 60 -58 82 l-35 38 33 25
c35 27 115 69 161 86 16 6 25 15 22 21 -3 5 -9 10 -13 10 -4 0 -32 -11 -63
-24z M5627 1480 c-71 -12 -175 -48 -241 -83 -33 -17 -82 -53 -111 -78 -28 -26
-63 -70 -79 -98 -16 -29 -30 -74 -33 -105 -3 -31 0 -69 7 -90 7 -21 26 -53 43
-72 16 -20 48 -44 70 -55 21 -11 69 -27 106 -35 36 -7 70 -14 74 -14 4 0 -8
-21 -28 -47 -20 -26 -55 -85 -78 -131 -36 -74 -41 -93 -45 -170 -3 -77 -1 -92
20 -132 16 -29 41 -55 71 -74 38 -23 62 -30 120 -34 89 -5 173 14 275 64 39
19 100 58 135 85 67 54 118 113 148 171 11 21 19 58 19 83 0 35 -6 52 -23 69
-13 13 -42 27 -65 31 -54 9 -151 -16 -222 -58 -67 -39 -227 -196 -258 -254
-13 -24 -19 -43 -14 -43 5 0 26 25 47 55 21 31 63 79 94 107 31 28 83 69 116
90 32 21 90 48 128 59 73 23 118 20 149 -8 10 -9 18 -28 18 -43 0 -14 -12 -49
-26 -78 -35 -71 -153 -179 -252 -230 -44 -23 -105 -48 -138 -57 -32 -8 -81
-15 -109 -15 -27 0 -69 9 -92 19 -26 12 -48 32 -58 52 -33 63 -14 165 50 275
27 46 150 203 167 215 6 4 40 9 76 13 80 7 263 54 382 98 115 42 308 140 379
194 33 25 82 69 110 100 28 30 56 73 62 94 9 30 9 46 0 68 -7 16 -24 34 -37
41 -39 17 -140 13 -227 -10 -43 -12 -140 -52 -215 -90 -146 -72 -273 -153
-387 -244 -38 -31 -114 -97 -168 -146 l-98 -91 -47 6 c-78 11 -137 35 -180 72
-28 23 -45 49 -52 75 -6 23 -8 55 -5 72 12 56 58 128 114 178 30 26 84 63 120
82 77 40 171 72 259 87 35 6 116 10 180 9 117 -1 153 9 77 23 -53 9 -267 8
-328 -2z m947 -56 c9 -8 16 -28 16 -43 0 -17 -14 -47 -34 -73 -37 -49 -145
-134 -243 -192 -153 -91 -367 -172 -544 -207 -55 -10 -105 -19 -111 -19 -7 0
1 14 18 31 42 45 228 207 299 261 81 61 218 149 285 183 130 66 279 94 314 59z
M9163 1265 c-28 -14 -84 -54 -124 -89 -41 -34 -115 -106 -166 -159 -51 -53
-163 -183 -249 -287 -155 -189 -258 -289 -381 -373 -56 -37 -103 -48 -103 -24
0 20 84 135 184 255 47 56 86 105 86 107 0 3 -20 5 -44 5 -39 0 -48 -4 -75
-37 -26 -32 -31 -34 -31 -17 0 12 -8 28 -18 37 -10 10 -35 17 -54 17 -20 0
-54 -7 -77 -14 -22 -8 -67 -33 -98 -55 -32 -21 -83 -65 -113 -96 -68 -71 -189
-169 -241 -195 -21 -11 -50 -20 -64 -20 -17 0 -25 5 -25 18 0 9 10 33 21 52
12 19 76 103 143 187 l121 152 69 3 c43 2 71 8 73 15 3 8 -14 13 -53 15 l-58
3 78 93 c43 52 76 95 74 96 -1 1 -24 1 -50 -2 -46 -4 -49 -6 -123 -97 l-76
-94 -56 -3 c-70 -4 -84 -25 -19 -30 l44 -3 -81 -96 c-45 -53 -111 -122 -147
-153 -97 -85 -207 -156 -241 -156 -18 0 -29 5 -29 14 0 7 12 31 26 52 15 21
75 98 135 171 60 72 109 134 109 137 0 3 -19 6 -41 6 -38 0 -46 -5 -87 -52
-81 -93 -187 -191 -271 -252 -78 -56 -147 -90 -163 -79 -5 2 -8 10 -8 17 0 7
40 59 89 115 49 56 96 117 105 136 9 18 16 43 16 55 0 12 -5 30 -10 41 -8 14
-21 19 -51 19 -27 0 -62 -11 -101 -32 -32 -17 -79 -49 -102 -70 -24 -21 -47
-38 -50 -38 -3 0 39 55 92 123 54 67 119 150 146 185 43 57 45 62 24 61 -13
-1 -32 -4 -44 -7 -11 -4 -66 -61 -121 -127 -55 -66 -147 -165 -204 -220 -99
-96 -248 -219 -296 -244 -32 -16 -63 -14 -63 5 0 9 16 40 37 68 50 71 186 237
211 260 12 10 19 23 16 27 -3 5 -22 9 -44 9 -31 0 -44 -6 -69 -35 -24 -28 -31
-32 -31 -17 0 10 -8 26 -18 35 -10 10 -35 17 -55 17 -20 0 -60 -9 -89 -20 -29
-11 -83 -43 -120 -70 -37 -28 -83 -73 -104 -101 -20 -28 -43 -69 -51 -91 -8
-23 -11 -54 -7 -74 3 -19 16 -41 27 -49 12 -8 32 -15 45 -15 34 0 86 24 139
65 l48 37 3 -34 c2 -18 11 -41 19 -51 9 -9 26 -17 38 -17 13 0 38 6 57 14 45
19 166 112 247 190 l64 61 -75 -90 c-288 -346 -368 -444 -368 -450 0 -3 20 -5
45 -3 l45 3 188 225 c194 233 298 335 414 403 70 41 108 48 108 18 0 -10 -38
-61 -85 -112 -86 -94 -125 -157 -125 -197 0 -12 9 -31 20 -42 11 -11 30 -20
43 -20 36 0 137 54 205 109 34 28 62 49 62 47 0 -2 -7 -17 -15 -32 -8 -16 -15
-43 -15 -60 0 -17 8 -38 18 -47 10 -10 32 -17 48 -17 17 0 53 11 81 25 28 14
83 53 122 85 l71 60 -20 -37 c-11 -21 -20 -50 -20 -65 0 -16 9 -37 20 -48 12
-12 33 -20 53 -20 18 0 55 11 83 25 27 13 77 47 111 74 l62 50 -6 -47 c-4 -38
-1 -52 17 -74 13 -17 31 -28 46 -28 36 0 91 26 149 69 l51 38 -4 -34 c-3 -23
1 -40 13 -53 10 -11 30 -20 44 -20 14 0 44 9 66 19 23 10 79 49 125 86 47 39
80 60 76 49 -16 -37 -24 -87 -19 -103 11 -31 36 -51 63 -51 69 0 171 60 277
163 40 38 70 74 67 78 -3 5 -39 -21 -80 -57 -42 -36 -103 -83 -136 -105 -65
-41 -114 -51 -125 -23 -3 9 1 31 10 48 8 18 57 88 107 155 85 113 99 127 198
193 158 106 257 183 355 277 95 91 167 189 167 226 0 13 -7 31 -16 39 -8 9
-25 16 -38 16 -12 0 -45 -11 -73 -25z m86 -18 c8 -10 6 -23 -7 -49 -10 -19
-36 -56 -56 -82 -61 -73 -272 -250 -426 -356 l-35 -24 40 49 c174 218 367 425
425 455 19 11 38 19 41 20 4 0 12 -6 18 -13z m-2785 -583 c9 -3 16 -16 16 -28
0 -12 -14 -44 -31 -72 -41 -64 -176 -197 -228 -223 -48 -25 -91 -28 -91 -6 0
32 32 90 85 155 81 101 175 177 222 179 6 1 18 -2 27 -5z m1764 -21 c2 -12 -6
-39 -17 -61 -27 -53 -160 -193 -220 -231 -26 -17 -60 -31 -74 -31 -23 0 -27 4
-27 29 0 17 16 53 39 87 49 74 162 188 210 214 20 11 47 19 61 17 17 -1 26 -9
28 -24z M4694 1254 c-122 -65 -294 -241 -590 -606 -64 -78 -217 -216 -318
-287 -36 -24 -71 -41 -88 -41 -16 0 -28 5 -28 13 0 22 52 97 158 226 56 68
102 128 102 133 0 4 -18 8 -39 8 -32 0 -46 -6 -70 -32 -17 -18 -31 -27 -31
-20 0 6 -9 21 -20 32 -13 13 -33 20 -60 20 -46 0 -121 -26 -172 -61 -19 -13
-73 -58 -119 -101 -110 -100 -205 -175 -251 -199 -37 -19 -88 -26 -88 -11 0
14 39 67 99 137 64 74 101 137 101 173 0 12 -9 31 -20 42 -11 11 -33 20 -49
20 -35 0 -112 -40 -169 -88 -24 -21 -53 -44 -64 -52 -20 -14 -20 -14 -4 17 9
18 16 45 16 61 0 16 -8 36 -18 45 -10 10 -30 17 -43 17 -14 0 -45 -13 -70 -29
-24 -16 -99 -83 -167 -149 -68 -67 -150 -139 -184 -162 -60 -40 -108 -52 -108
-27 0 20 48 89 159 227 56 69 101 128 101 133 0 4 -17 7 -37 7 -28 0 -45 -8
-70 -32 -23 -22 -33 -27 -33 -17 0 9 -9 24 -20 34 -15 14 -31 17 -70 13 -73
-7 -174 -62 -246 -133 -33 -34 -70 -82 -83 -108 -13 -27 -23 -67 -24 -94 0
-37 4 -50 24 -66 37 -30 90 -17 174 41 l71 49 -4 -34 c-3 -23 1 -40 13 -53 10
-11 30 -20 45 -20 57 0 131 52 287 202 147 141 213 191 240 181 27 -10 -17
-74 -212 -305 l-57 -68 46 0 c46 0 46 1 188 144 81 82 171 162 207 185 36 23
76 41 93 41 15 0 28 -4 28 -8 0 -12 -48 -76 -113 -150 -31 -35 -63 -79 -71
-97 -9 -18 -16 -45 -16 -59 0 -14 10 -36 21 -47 17 -17 29 -20 61 -16 21 3 64
20 94 39 31 18 80 55 110 81 47 43 53 45 44 22 -5 -14 -10 -42 -10 -61 0 -24
8 -43 25 -59 14 -15 36 -25 53 -25 36 0 117 40 160 79 l32 30 0 -38 c0 -44 24
-71 64 -71 14 0 49 11 77 25 27 14 92 61 144 105 52 44 95 78 95 76 0 -1 -7
-18 -16 -36 -9 -18 -19 -52 -22 -76 -4 -36 -1 -46 21 -68 19 -19 37 -26 64
-26 21 0 65 13 98 29 33 15 87 49 120 74 78 59 170 153 157 161 -5 3 -31 -15
-58 -40 -73 -68 -157 -131 -212 -160 -27 -14 -64 -26 -81 -26 -18 -1 -36 5
-41 12 -4 7 -4 27 1 44 10 33 90 155 164 249 26 33 71 73 106 95 142 87 281
194 380 292 59 58 116 124 128 147 12 23 21 53 21 67 0 13 -7 32 -16 40 -8 9
-26 16 -38 16 -13 0 -45 -12 -72 -26z m96 -32 c0 -31 -57 -110 -132 -183 -40
-39 -107 -97 -148 -129 -92 -73 -220 -163 -220 -156 0 8 191 237 279 335 42
46 96 99 121 117 50 38 100 45 100 16z m-2302 -583 c4 -36 -63 -132 -148 -213
-72 -67 -134 -106 -170 -106 -11 0 -23 7 -26 14 -3 8 9 43 28 78 20 38 65 95
113 143 44 44 96 88 115 98 19 9 46 16 60 15 19 -2 26 -10 28 -29z m1261 12
c8 -14 4 -30 -14 -67 -28 -57 -135 -177 -191 -216 -22 -15 -55 -34 -75 -42
-30 -12 -39 -13 -54 -2 -17 12 -16 15 4 61 12 26 46 78 77 116 81 100 171 168
221 169 12 0 27 -8 32 -19z M7600 910 c-11 -11 -20 -25 -20 -31 0 -24 22 -49
44 -49 25 0 66 38 66 61 0 22 -21 39 -47 39 -13 0 -32 -9 -43 -20z"/>
</g>
</svg>
