<?xml version="1.0" standalone="no"?>
<!DOCTYPE svg PUBLIC "-//W3C//DTD SVG 20010904//EN"
 "http://www.w3.org/TR/2001/REC-SVG-20010904/DTD/svg10.dtd">
<svg version="1.0" xmlns="http://www.w3.org/2000/svg"
 width="980.000000pt" height="190.000000pt" viewBox="0 0 980.000000 190.000000"
 preserveAspectRatio="xMidYMid meet">
<metadata>
Created by potrace 1.16, written by Peter Selinger 2001-2019
</metadata>
<g transform="translate(0.000000,190.000000) scale(0.100000,-0.100000)"
fill="#f1ead8" stroke="none">
<path d="M2646 1625 c-32 -13 -82 -39 -111 -59 l-53 -35 -78 34 c-108 46 -210
65 -353 65 -253 0 -497 -76 -709 -223 -40 -27 -108 -88 -152 -134 -170 -180
-217 -376 -117 -490 44 -51 104 -74 202 -81 261 -16 572 168 686 407 19 38 33
86 36 120 5 51 3 60 -21 88 -35 41 -84 57 -157 50 -129 -14 -279 -97 -403
-223 -67 -67 -156 -194 -138 -194 5 0 26 25 46 55 85 122 236 247 368 303 52
21 79 26 151 27 81 0 90 -2 108 -24 27 -33 24 -76 -10 -148 -32 -68 -140 -188
-234 -260 -74 -57 -206 -127 -282 -149 -34 -10 -94 -18 -140 -18 -64 0 -90 5
-128 23 -28 13 -58 38 -72 59 -20 29 -25 49 -25 100 0 114 56 226 175 346 148
150 360 263 587 312 101 21 287 29 378 15 89 -14 186 -44 219 -70 l23 -18 -49
-36 c-100 -73 -268 -262 -465 -522 -221 -292 -305 -391 -408 -480 -83 -72
-155 -117 -242 -153 -47 -19 -86 -27 -154 -30 -102 -5 -148 6 -194 45 -32 26
-41 57 -15 47 24 -10 64 5 76 27 27 52 -25 102 -83 78 -36 -15 -48 -37 -48
-87 0 -48 27 -85 83 -114 33 -17 64 -23 143 -26 80 -3 119 0 185 17 96 24 220
81 311 142 35 23 106 86 158 138 100 100 162 183 375 494 132 193 255 348 321
407 l38 33 27 -32 c78 -94 62 -263 -40 -408 -59 -84 -133 -150 -210 -189 -48
-25 -68 -29 -136 -29 -44 0 -86 2 -94 5 -7 3 -15 0 -18 -6 -7 -20 60 -39 137
-38 206 1 402 143 471 342 16 44 20 75 16 137 -4 90 -25 140 -84 206 -35 38
-35 40 -17 54 35 27 139 83 167 90 15 4 27 13 27 21 0 8 -3 14 -7 14 -5 0 -34
-11 -67 -25z M5615 1476 c-84 -17 -186 -53 -247 -89 -69 -40 -141 -110 -171
-166 -49 -90 -46 -196 9 -261 48 -56 102 -80 241 -106 20 -4 18 -9 -32 -83
-67 -100 -96 -177 -103 -268 -4 -64 -2 -79 22 -128 21 -42 38 -61 74 -83 43
-25 55 -27 147 -26 88 0 109 4 180 32 98 39 182 94 257 169 103 101 138 216
83 267 -33 31 -78 39 -144 26 -93 -18 -187 -74 -286 -174 -49 -50 -101 -111
-114 -135 -13 -24 -19 -42 -14 -40 6 2 32 33 59 69 99 130 270 245 384 257 47
4 59 2 83 -17 36 -29 35 -70 -2 -136 -64 -112 -245 -242 -387 -279 -193 -50
-310 31 -269 189 20 76 52 137 123 231 86 117 106 135 142 135 56 0 232 40
355 81 148 49 321 131 419 199 124 86 206 186 206 250 0 12 -13 35 -29 51 -26
26 -36 29 -94 29 -93 0 -205 -32 -344 -99 -205 -100 -404 -239 -591 -415 l-82
-78 -48 6 c-163 23 -259 112 -237 219 21 99 118 202 250 268 135 67 199 81
375 85 85 2 160 4 165 4 6 0 1 6 -10 12 -30 18 -286 20 -370 4z m956 -46 c13
-7 19 -21 19 -44 0 -112 -284 -308 -609 -420 -97 -34 -277 -77 -318 -76 -12 1
10 28 72 87 286 272 597 461 763 462 29 1 62 -4 73 -9z M9175 1271 c-102 -46
-291 -229 -509 -492 -70 -85 -145 -175 -167 -201 -46 -55 -195 -183 -264 -227
-50 -32 -95 -41 -95 -18 0 6 10 28 21 47 26 42 199 258 228 284 11 10 18 23
15 27 -3 5 -21 9 -41 9 -28 0 -43 -8 -69 -36 -28 -29 -34 -32 -34 -16 0 30
-32 52 -77 52 -69 0 -172 -60 -281 -164 -157 -150 -251 -216 -307 -216 -55 0
-27 52 144 265 l113 140 71 5 c44 3 72 10 75 18 3 8 -12 12 -52 12 -31 0 -56
3 -56 7 0 3 33 45 74 94 41 48 73 89 71 91 -2 2 -24 2 -48 0 -43 -4 -48 -7
-121 -97 l-76 -94 -57 -3 c-70 -4 -84 -26 -19 -30 l46 -3 -78 -92 c-141 -167
-358 -335 -409 -316 -32 12 -8 51 142 233 62 76 112 140 110 142 -3 2 -24 2
-49 -2 -40 -5 -50 -12 -113 -85 -85 -98 -237 -225 -320 -266 -60 -30 -83 -31
-83 -5 0 7 39 57 86 112 47 54 94 116 105 136 36 70 17 118 -45 118 -45 0
-144 -52 -204 -106 -55 -49 -81 -60 -40 -16 39 41 277 346 273 350 -2 2 -21 1
-42 -3 -32 -6 -47 -18 -98 -82 -131 -166 -373 -399 -506 -489 -81 -54 -123
-42 -82 24 18 28 130 171 202 257 22 27 41 52 41 55 0 3 -18 6 -40 6 -34 1
-46 -5 -70 -33 -24 -27 -30 -30 -30 -15 0 10 -9 27 -20 37 -15 14 -31 17 -69
13 -97 -9 -238 -103 -308 -205 -30 -43 -38 -65 -41 -112 -4 -50 -1 -62 17 -80
11 -11 33 -21 48 -21 36 0 100 32 151 76 l42 36 0 -40 c0 -44 23 -72 59 -72
49 0 164 78 296 200 38 36 57 49 41 30 -16 -19 -116 -140 -223 -267 -106 -128
-193 -235 -193 -238 0 -3 20 -5 43 -5 l44 0 108 133 c199 241 278 329 357 396
128 108 233 163 252 132 7 -10 -23 -49 -122 -163 -79 -91 -103 -142 -84 -183
6 -13 23 -27 37 -31 48 -12 150 40 250 128 l47 41 -21 -39 c-28 -52 -27 -98 1
-118 12 -9 33 -16 46 -16 46 0 149 62 241 144 34 30 34 30 18 4 -9 -15 -19
-44 -23 -66 -5 -32 -2 -44 15 -61 44 -44 131 -16 249 79 l63 51 -7 -50 c-6
-45 -4 -52 21 -76 22 -23 33 -26 61 -22 37 6 97 39 149 82 l30 24 -3 -38 c-3
-31 0 -42 19 -55 13 -9 33 -16 44 -16 36 1 98 36 187 108 82 67 85 68 72 36
-8 -18 -14 -51 -14 -73 0 -30 6 -44 22 -55 12 -9 34 -16 49 -16 51 0 163 67
252 151 48 44 84 85 81 91 -4 5 -25 -8 -48 -29 -63 -60 -155 -132 -197 -154
-21 -10 -52 -19 -69 -19 -25 0 -30 4 -30 23 0 29 56 117 150 236 60 77 87 100
183 163 276 182 507 410 507 500 0 23 -28 48 -53 48 -12 0 -40 -9 -62 -19z
m79 -27 c11 -28 -36 -98 -123 -184 -82 -81 -249 -217 -356 -290 l-50 -34 40
50 c245 306 410 471 471 474 7 0 15 -7 18 -16z m-2776 -602 c5 -35 -44 -108
-132 -198 -83 -83 -145 -124 -191 -124 -19 0 -25 5 -25 23 0 39 60 128 144
213 84 85 132 115 176 111 18 -1 26 -9 28 -25z m1750 1 c5 -38 -28 -92 -110
-178 -87 -92 -161 -145 -201 -145 -23 0 -27 4 -27 29 0 17 17 53 40 89 50 75
165 192 211 215 46 23 83 19 87 -10z M4687 1248 c-112 -61 -304 -256 -544
-553 -107 -132 -221 -238 -357 -334 -60 -42 -116 -55 -116 -27 0 21 69 119
169 241 50 61 91 112 91 115 0 3 -18 6 -39 8 -33 2 -45 -3 -65 -25 -14 -15
-26 -31 -26 -35 0 -5 -4 -8 -10 -8 -5 0 -7 6 -4 14 3 8 -4 24 -16 36 -19 19
-31 22 -75 18 -76 -6 -154 -49 -249 -137 -125 -116 -235 -201 -293 -228 -52
-24 -73 -24 -73 1 0 6 41 61 90 121 95 115 118 163 100 209 -25 68 -146 29
-267 -87 -44 -42 -53 -41 -28 3 20 35 19 84 -3 103 -44 40 -102 9 -236 -121
-147 -143 -212 -200 -258 -223 -43 -22 -78 -25 -78 -6 0 22 51 95 158 227 56
69 102 128 102 132 0 3 -19 4 -42 1 -30 -3 -51 -14 -70 -34 -24 -25 -28 -26
-28 -11 0 29 -33 52 -73 52 -86 0 -233 -88 -303 -182 -51 -68 -64 -98 -64
-153 0 -62 27 -89 82 -82 35 5 78 29 163 92 20 14 21 13 17 -21 -5 -43 19 -74
58 -74 57 0 131 52 291 205 156 150 221 197 241 177 17 -17 -25 -79 -185 -267
l-85 -100 44 -3 44 -3 122 127 c68 70 149 147 180 171 72 55 146 89 161 74 13
-13 -18 -59 -98 -151 -93 -106 -116 -169 -75 -210 24 -24 58 -25 107 -5 40 17
127 78 182 129 26 23 32 26 26 11 -5 -11 -10 -39 -13 -62 -3 -35 0 -46 22 -67
15 -16 36 -26 54 -26 36 0 118 41 159 80 18 16 34 30 35 30 2 0 2 -16 0 -35
-3 -25 1 -42 14 -56 41 -45 138 -2 289 129 l85 73 -21 -41 c-12 -23 -24 -61
-27 -85 -4 -37 -1 -47 21 -69 19 -19 37 -26 64 -26 43 0 120 33 190 81 63 44
194 169 187 180 -3 5 -37 -19 -77 -54 -105 -91 -171 -137 -228 -158 -122 -46
-124 18 -8 181 110 154 121 165 239 241 208 133 379 284 449 394 34 54 39 95
15 119 -23 23 -52 19 -117 -16z m103 -23 c0 -56 -123 -194 -280 -316 -112 -87
-220 -162 -220 -154 0 3 44 59 97 123 219 265 320 362 374 362 19 0 29 -5 29
-15z m-2302 -586 c6 -55 -161 -250 -259 -299 -135 -70 -97 64 65 225 76 76
126 107 166 103 19 -2 26 -10 28 -29z m1263 15 c11 -14 9 -25 -16 -72 -42 -81
-176 -215 -249 -248 -50 -23 -60 -24 -72 -12 -12 11 -12 20 -3 49 18 51 66
116 140 191 96 96 169 129 200 92z M7608 918 c-25 -20 -31 -54 -12 -72 22 -23
53 -17 77 15 15 22 17 30 8 48 -13 24 -49 28 -73 9z"/>
</g>
</svg>
