<?xml version="1.0" standalone="no"?>
<!DOCTYPE svg PUBLIC "-//W3C//DTD SVG 20010904//EN"
 "http://www.w3.org/TR/2001/REC-SVG-20010904/DTD/svg10.dtd">
<svg version="1.0" xmlns="http://www.w3.org/2000/svg"
 width="980.000000pt" height="190.000000pt" viewBox="0 0 980.000000 190.000000"
 preserveAspectRatio="xMidYMid meet">
<metadata>
Created by potrace 1.16, written by Peter Selinger 2001-2019
</metadata>
<g transform="translate(0.000000,190.000000) scale(0.100000,-0.100000)"
fill="#f1ead8" stroke="none">
<path d="M2646 1625 c-32 -13 -82 -39 -111 -59 l-53 -35 -78 34 c-108 46 -210
65 -353 65 -330 0 -648 -132 -861 -357 -208 -219 -226 -464 -41 -546 65 -28
189 -34 287 -12 277 60 542 303 561 514 5 51 3 60 -21 88 -52 61 -150 68 -281
18 -138 -52 -307 -193 -388 -324 -46 -76 -34 -80 17 -6 85 122 236 247 368
303 52 21 79 26 151 27 81 0 90 -2 108 -24 45 -55 1 -167 -113 -286 -92 -97
-165 -154 -271 -210 -108 -57 -184 -78 -282 -79 -64 0 -90 5 -128 23 -69 33
-97 79 -97 159 0 267 349 569 762 658 101 21 287 29 378 15 89 -14 186 -44
219 -70 l23 -18 -49 -36 c-100 -73 -268 -262 -465 -522 -221 -292 -305 -391
-408 -480 -142 -123 -258 -176 -396 -183 -102 -5 -148 6 -194 45 -32 26 -41
57 -15 47 44 -17 92 26 81 72 -13 49 -101 51 -126 3 -17 -31 -12 -94 11 -123
39 -50 94 -70 205 -74 123 -5 227 18 351 77 121 58 197 113 303 220 100 100
162 183 375 494 132 193 255 348 321 407 l38 33 27 -32 c32 -39 49 -93 49
-159 0 -157 -135 -356 -299 -438 -48 -25 -68 -29 -136 -29 -44 0 -86 2 -94 5
-7 3 -15 0 -18 -6 -7 -20 60 -39 137 -38 206 1 402 143 471 342 16 44 20 75
16 137 -4 90 -25 140 -84 206 -35 38 -35 40 -17 54 35 27 139 83 167 90 15 4
27 13 27 21 0 18 -5 18 -74 -11z M5615 1476 c-84 -17 -186 -53 -247 -89 -230
-135 -277 -375 -94 -482 36 -21 76 -33 173 -51 20 -4 18 -9 -32 -83 -67 -100
-96 -177 -103 -268 -4 -64 -2 -79 22 -128 21 -42 38 -61 74 -83 43 -25 55 -27
147 -26 88 0 109 4 180 32 201 80 365 246 365 369 0 111 -129 131 -293 46 -82
-42 -236 -188 -276 -262 -33 -61 -13 -48 45 29 99 130 270 245 384 257 47 4
59 2 83 -17 57 -45 18 -141 -102 -252 -267 -247 -623 -231 -556 26 20 76 52
137 123 231 86 117 106 135 142 135 56 0 232 40 355 81 347 115 625 315 625
449 0 12 -13 35 -29 51 -26 26 -36 29 -94 29 -227 0 -616 -214 -935 -514 l-82
-78 -48 6 c-125 18 -212 73 -233 148 -30 112 73 253 246 339 135 67 199 81
375 85 85 2 160 4 165 4 6 0 1 6 -10 12 -30 18 -286 20 -370 4z m956 -46 c13
-7 19 -21 19 -44 0 -112 -284 -308 -609 -420 -97 -34 -277 -77 -318 -76 -12 1
10 28 72 87 286 272 597 461 763 462 29 1 62 -4 73 -9z M9175 1271 c-102 -46
-291 -229 -509 -492 -70 -85 -145 -175 -167 -201 -46 -55 -195 -183 -264 -227
-50 -32 -95 -41 -95 -18 0 6 10 28 21 47 26 42 199 258 228 284 27 24 18 36
-26 36 -28 0 -43 -8 -69 -36 -28 -29 -34 -32 -34 -16 0 30 -32 52 -77 52 -69
0 -172 -60 -281 -164 -157 -150 -251 -216 -307 -216 -55 0 -27 52 144 265
l113 140 71 5 c44 3 72 10 75 18 3 8 -12 12 -52 12 -31 0 -56 3 -56 7 0 3 33
45 74 94 41 48 73 89 71 91 -2 2 -24 2 -48 0 -43 -4 -48 -7 -121 -97 l-76 -94
-57 -3 c-70 -4 -84 -26 -19 -30 l46 -3 -78 -92 c-141 -167 -358 -335 -409
-316 -32 12 -8 51 142 233 62 76 112 140 110 142 -3 2 -24 2 -49 -2 -40 -5
-50 -12 -113 -85 -119 -138 -356 -313 -392 -290 -21 13 -10 33 75 131 47 54
94 116 105 136 36 70 17 118 -45 118 -45 0 -144 -52 -204 -106 -55 -49 -81
-60 -40 -16 39 41 277 346 273 350 -2 2 -21 1 -42 -3 -32 -6 -47 -18 -98 -82
-131 -166 -373 -399 -506 -489 -81 -54 -123 -42 -82 24 18 28 130 171 202 257
22 27 41 52 41 55 0 3 -18 6 -40 6 -34 1 -46 -5 -70 -33 -24 -27 -30 -30 -30
-15 0 10 -9 27 -20 37 -64 58 -281 -53 -377 -192 -30 -43 -38 -65 -41 -112 -4
-50 -1 -62 17 -80 11 -11 33 -21 48 -21 36 0 100 32 151 76 l42 36 0 -40 c0
-44 23 -72 59 -72 49 0 164 78 296 200 38 36 57 49 41 30 -16 -19 -116 -140
-223 -267 -106 -128 -193 -235 -193 -238 0 -3 20 -5 43 -5 l44 0 108 133 c199
241 278 329 357 396 128 108 233 163 252 132 7 -10 -23 -49 -122 -163 -79 -91
-103 -142 -84 -183 30 -65 147 -26 287 97 l47 41 -21 -39 c-40 -73 -18 -134
47 -134 46 0 149 62 241 144 34 30 34 30 18 4 -9 -15 -19 -44 -23 -66 -5 -32
-2 -44 15 -61 44 -44 131 -16 249 79 l63 51 -7 -50 c-6 -45 -4 -52 21 -76 22
-23 33 -26 61 -22 37 6 97 39 149 82 l30 24 -3 -38 c-3 -31 0 -42 19 -55 48
-33 104 -11 231 92 82 67 85 68 72 36 -22 -52 -18 -110 8 -128 34 -24 68 -19
145 19 75 37 248 189 237 207 -4 5 -25 -8 -48 -29 -113 -108 -213 -173 -266
-173 -25 0 -30 4 -30 23 0 29 56 117 150 236 60 77 87 100 183 163 276 182
507 410 507 500 0 23 -28 48 -53 48 -12 0 -40 -9 -62 -19z m79 -27 c22 -59
-216 -295 -479 -474 l-50 -34 40 50 c245 306 410 471 471 474 7 0 15 -7 18
-16z m-2776 -602 c5 -35 -44 -108 -132 -198 -83 -83 -145 -124 -191 -124 -35
0 -33 31 6 99 38 66 183 215 230 236 48 21 83 16 87 -13z m1750 1 c5 -38 -28
-92 -110 -178 -87 -92 -161 -145 -201 -145 -23 0 -27 4 -27 29 0 58 169 263
251 304 46 23 83 19 87 -10z M4687 1248 c-112 -61 -304 -256 -544 -553 -107
-132 -221 -238 -357 -334 -60 -42 -116 -55 -116 -27 0 21 69 119 169 241 50
61 91 112 91 115 0 3 -18 6 -39 8 -33 2 -45 -3 -65 -25 -14 -15 -26 -31 -26
-35 0 -5 -4 -8 -10 -8 -5 0 -7 6 -4 14 3 8 -4 24 -16 36 -19 19 -31 22 -75 18
-76 -6 -154 -49 -249 -137 -173 -161 -325 -265 -356 -246 -20 12 -8 33 80 140
95 115 118 163 100 209 -25 68 -146 29 -267 -87 -44 -42 -53 -41 -28 3 20 35
19 84 -3 103 -44 40 -102 9 -236 -121 -147 -143 -212 -200 -258 -223 -43 -22
-78 -25 -78 -6 0 22 51 95 158 227 56 69 102 128 102 132 0 3 -19 4 -42 1 -30
-3 -51 -14 -70 -34 -24 -25 -28 -26 -28 -11 0 29 -33 52 -73 52 -115 0 -303
-139 -355 -263 -20 -46 -15 -114 9 -138 39 -39 94 -20 224 76 20 14 21 13 17
-21 -5 -43 19 -74 58 -74 57 0 131 52 291 205 156 150 221 197 241 177 17 -17
-25 -79 -185 -267 l-85 -100 44 -3 44 -3 122 127 c135 139 213 204 284 235 92
41 79 -5 -41 -141 -93 -106 -116 -169 -75 -210 24 -24 58 -25 107 -5 40 17
127 78 182 129 26 23 32 26 26 11 -5 -11 -10 -39 -13 -62 -3 -35 0 -46 22 -67
15 -16 36 -26 54 -26 36 0 118 41 159 80 18 16 34 30 35 30 2 0 2 -16 0 -35
-3 -25 1 -42 14 -56 41 -45 138 -2 289 129 l85 73 -21 -41 c-12 -23 -24 -61
-27 -85 -4 -37 -1 -47 21 -69 46 -46 134 -27 254 55 63 44 194 169 187 180 -3
5 -37 -19 -77 -54 -105 -91 -171 -137 -228 -158 -122 -46 -124 18 -8 181 110
154 121 165 239 241 328 211 536 441 464 513 -23 23 -52 19 -117 -16z m103
-23 c0 -56 -123 -194 -280 -316 -112 -87 -220 -162 -220 -154 0 3 44 59 97
123 219 265 320 362 374 362 19 0 29 -5 29 -15z m-2302 -586 c6 -55 -161 -250
-259 -299 -135 -70 -97 64 65 225 76 76 126 107 166 103 19 -2 26 -10 28 -29z
m1263 15 c36 -43 -150 -267 -265 -320 -50 -23 -60 -24 -72 -12 -30 30 26 129
137 240 96 96 169 129 200 92z M7608 918 c-25 -20 -31 -54 -12 -72 22 -23 53
-17 77 15 15 22 17 30 8 48 -13 24 -49 28 -73 9z"/>
</g>
</svg>
