<?xml version="1.0" standalone="no"?>
<!DOCTYPE svg PUBLIC "-//W3C//DTD SVG 20010904//EN"
 "http://www.w3.org/TR/2001/REC-SVG-20010904/DTD/svg10.dtd">
<svg version="1.0" xmlns="http://www.w3.org/2000/svg"
 width="980.000000pt" height="190.000000pt" viewBox="0 0 980.000000 190.000000"
 preserveAspectRatio="xMidYMid meet">
<metadata>
Created by potrace 1.16, written by Peter Selinger 2001-2019
</metadata>
<g transform="translate(0.000000,190.000000) scale(0.100000,-0.100000)"
fill="#f1ead8" stroke="none">
<path d="M2646 1625 c-32 -13 -83 -40 -113 -60 l-54 -36 -62 30 c-99 47 -170
62 -319 68 -103 4 -161 1 -239 -12 -187 -31 -363 -102 -517 -208 -40 -27 -108
-88 -152 -134 -177 -187 -220 -386 -106 -499 47 -47 90 -63 192 -71 148 -11
348 57 484 165 134 107 227 249 237 362 6 57 4 61 -29 94 -22 22 -49 37 -74
42 -138 26 -385 -102 -525 -270 -45 -56 -94 -134 -87 -141 3 -3 22 20 43 50
85 124 239 250 369 303 42 17 87 27 143 30 78 4 83 3 108 -23 24 -23 27 -33
23 -70 -8 -68 -44 -130 -130 -220 -96 -102 -177 -164 -279 -215 -105 -53 -180
-73 -274 -74 -64 0 -90 5 -128 23 -30 14 -58 38 -74 62 -20 31 -25 50 -25 101
1 109 60 224 177 342 203 207 521 336 824 336 54 0 124 -5 157 -11 79 -14 174
-45 202 -67 l24 -18 -56 -43 c-105 -81 -262 -257 -430 -482 -188 -250 -282
-365 -371 -454 -117 -117 -235 -194 -354 -229 -64 -19 -187 -21 -243 -4 -69
20 -122 94 -59 82 22 -5 34 -1 51 16 27 27 23 57 -11 83 -74 54 -148 -70 -88
-147 38 -49 94 -69 204 -74 81 -4 118 0 185 17 151 38 304 123 432 240 92 84
193 213 348 441 174 255 253 360 344 456 l75 78 25 -23 c56 -52 72 -182 36
-287 -44 -126 -163 -264 -277 -321 -52 -25 -69 -28 -155 -28 -54 0 -98 -3 -98
-6 0 -11 49 -28 97 -34 63 -9 181 17 258 55 161 79 275 248 275 406 0 81 -29
158 -81 218 l-41 46 24 20 c12 11 60 38 106 61 45 23 82 45 82 50 0 13 -8 11
-74 -16z M5632 1479 c-78 -13 -199 -56 -262 -92 -68 -39 -151 -120 -179 -176
-43 -84 -37 -189 15 -251 46 -54 101 -78 236 -105 l26 -5 -53 -79 c-67 -100
-96 -177 -103 -268 -4 -64 -2 -79 22 -128 21 -42 38 -61 74 -83 42 -24 56 -27
142 -27 80 0 107 5 173 29 100 37 207 107 280 184 67 71 96 129 97 190 0 33
-6 48 -25 66 -28 27 -77 37 -132 29 -21 -3 -76 -23 -123 -45 -71 -34 -99 -55
-175 -132 -82 -83 -149 -176 -127 -176 5 0 26 25 47 56 47 68 144 157 220 203
70 42 148 70 196 71 49 0 89 -32 89 -72 0 -51 -30 -100 -114 -183 -59 -58
-103 -92 -162 -122 -135 -71 -251 -90 -334 -57 -74 30 -99 95 -74 190 24 94
95 211 196 323 28 32 44 41 68 41 56 0 232 40 355 81 148 49 321 131 419 199
124 86 206 186 206 250 0 12 -13 35 -29 51 -26 26 -36 29 -93 29 -35 0 -100
-9 -144 -21 -154 -39 -435 -195 -614 -338 -36 -29 -109 -93 -163 -143 l-98
-90 -50 6 c-82 11 -154 43 -193 86 -40 44 -52 91 -38 144 29 103 117 193 257
261 134 65 187 77 365 81 85 2 160 4 165 4 6 0 1 6 -10 12 -25 15 -281 20
-353 7z m939 -49 c13 -7 19 -21 19 -44 0 -143 -438 -400 -810 -476 -139 -28
-142 -28 -95 21 67 69 255 228 356 300 111 79 243 152 337 185 71 25 160 31
193 14z M9164 1264 c-126 -67 -322 -264 -581 -585 -152 -189 -352 -359 -423
-359 -42 0 -19 43 115 210 51 63 102 124 114 134 11 10 19 22 16 26 -2 3 -23
5 -47 3 -34 -2 -49 -10 -70 -36 -24 -28 -27 -30 -28 -11 0 32 -32 54 -77 54
-71 0 -171 -59 -291 -174 -59 -56 -130 -118 -159 -139 -60 -43 -139 -81 -153
-72 -31 19 1 73 159 270 l113 140 71 5 c44 3 72 10 75 18 3 8 -12 12 -52 12
-31 0 -56 3 -56 7 0 3 33 45 74 94 41 48 73 89 71 91 -3 2 -25 2 -49 -2 -43
-5 -50 -10 -121 -97 l-75 -92 -57 -3 c-70 -4 -84 -26 -19 -30 l46 -3 -80 -95
c-150 -178 -364 -339 -411 -310 -12 8 -10 16 9 52 13 24 74 104 137 180 62 75
112 138 110 140 -3 2 -24 2 -49 -2 -40 -5 -50 -12 -113 -85 -85 -98 -237 -225
-320 -266 -60 -30 -83 -31 -83 -5 0 7 39 57 86 112 47 54 94 116 105 136 36
70 17 118 -45 118 -45 0 -144 -52 -204 -106 -54 -48 -80 -60 -41 -18 34 36
278 348 274 352 -1 1 -20 0 -41 -4 -34 -5 -47 -17 -99 -82 -180 -226 -509
-522 -581 -522 -53 0 -24 49 154 265 45 55 82 102 82 105 0 3 -20 4 -45 2 -35
-3 -50 -11 -70 -34 -21 -25 -25 -26 -25 -10 0 29 -32 52 -73 52 -43 0 -123
-30 -175 -65 -61 -41 -150 -135 -172 -179 -27 -56 -27 -129 0 -156 11 -11 32
-20 47 -20 36 0 100 32 151 76 l42 36 0 -40 c0 -42 23 -72 56 -72 53 1 166 77
299 200 38 36 56 49 40 29 -17 -20 -114 -137 -216 -260 -102 -123 -189 -230
-193 -236 -5 -10 4 -13 36 -13 l43 0 179 216 c176 211 261 299 361 374 89 66
164 96 179 71 7 -10 -23 -49 -122 -163 -41 -47 -77 -99 -84 -121 -22 -71 22
-112 96 -87 44 14 142 77 196 126 l42 39 -21 -40 c-11 -22 -21 -54 -21 -72 0
-43 36 -68 83 -59 43 8 141 67 210 126 36 31 47 37 36 20 -39 -61 -31 -134 16
-146 56 -14 172 43 262 129 l32 30 -10 -37 c-21 -78 18 -134 84 -122 31 6 89
39 147 85 l26 20 -4 -34 c-3 -24 2 -39 17 -54 12 -12 31 -21 43 -21 37 0 100
37 191 110 83 67 85 68 71 35 -8 -19 -14 -52 -14 -74 0 -30 6 -44 22 -55 12
-9 34 -16 48 -16 33 0 121 42 174 82 66 51 166 151 159 161 -3 5 -24 -9 -47
-31 -63 -60 -152 -130 -196 -152 -22 -11 -53 -20 -70 -20 -25 0 -30 4 -30 24
0 27 70 137 157 246 48 61 83 91 176 153 338 225 559 463 492 530 -23 24 -54
21 -111 -9z m90 -20 c17 -45 -111 -190 -302 -342 -122 -97 -233 -174 -212
-146 8 10 56 69 106 129 175 210 289 328 350 360 37 19 50 19 58 -1z m-2776
-605 c4 -36 -63 -132 -149 -214 -71 -67 -159 -118 -185 -108 -39 15 9 111 110
220 83 89 150 135 191 131 24 -2 31 -8 33 -29z m1750 4 c5 -38 -28 -92 -110
-178 -96 -101 -161 -147 -203 -143 -25 3 -30 7 -27 28 5 42 63 128 142 209 41
42 91 84 110 94 47 23 84 19 88 -10z M4705 1256 c-68 -32 -104 -61 -214 -169
-100 -99 -218 -232 -348 -392 -107 -132 -221 -239 -357 -334 -57 -39 -116 -55
-116 -31 0 30 65 121 219 305 22 27 41 52 41 55 0 3 -20 4 -45 3 -34 -1 -50
-7 -65 -25 -11 -12 -19 -26 -20 -30 0 -5 -4 -8 -10 -8 -5 0 -7 6 -4 14 3 8 -4
24 -16 36 -19 19 -31 22 -74 18 -76 -7 -159 -53 -255 -142 -124 -115 -228
-196 -288 -223 -52 -24 -73 -24 -73 1 0 7 38 58 83 113 46 55 91 119 101 142
26 66 4 111 -54 111 -35 0 -138 -60 -197 -113 -54 -50 -63 -52 -38 -7 20 35
19 84 -3 103 -45 40 -100 10 -250 -136 -139 -134 -200 -186 -249 -211 -39 -19
-73 -21 -73 -3 0 22 51 95 158 227 56 69 102 127 102 130 0 3 -20 4 -45 2 -35
-3 -50 -11 -70 -34 -22 -26 -25 -27 -25 -9 0 11 -10 27 -22 35 -47 34 -130 13
-237 -58 -110 -74 -181 -176 -181 -261 0 -53 25 -85 67 -85 36 0 100 32 150
75 23 19 43 35 45 35 2 0 2 -16 0 -35 -5 -44 19 -75 58 -75 58 0 131 52 290
205 154 148 221 198 242 177 16 -16 -15 -63 -147 -222 l-125 -150 49 0 c42 0
53 4 71 28 40 51 215 224 272 269 70 53 146 89 160 75 14 -14 -5 -45 -84 -137
-107 -122 -130 -183 -88 -225 24 -24 58 -25 107 -5 40 17 127 78 182 129 25
23 32 26 25 11 -5 -11 -9 -42 -9 -68 0 -39 5 -53 24 -68 13 -10 34 -19 47 -19
38 0 95 27 146 71 26 21 48 39 50 39 2 0 2 -16 0 -35 -3 -25 1 -42 14 -56 41
-45 138 -2 289 129 l85 73 -21 -41 c-12 -23 -24 -61 -27 -85 -4 -37 -1 -47 21
-69 19 -19 37 -26 64 -26 45 0 126 36 197 87 70 51 187 164 180 175 -3 4 -38
-20 -77 -56 -143 -127 -260 -191 -306 -166 -12 6 -21 17 -21 24 0 28 63 133
138 232 68 90 88 108 172 162 211 134 387 285 460 394 43 64 50 106 24 132
-21 22 -40 20 -99 -8z m85 -31 c0 -57 -126 -198 -290 -324 -113 -87 -210 -154
-210 -145 0 3 44 59 97 123 222 267 320 361 374 361 19 0 29 -5 29 -15z
m-2302 -586 c6 -55 -161 -250 -259 -299 -135 -70 -97 64 65 225 76 76 126 107
166 103 19 -2 26 -10 28 -29z m1262 16 c7 -8 9 -23 4 -37 -19 -64 -154 -217
-233 -267 -59 -37 -95 -45 -111 -26 -26 32 32 129 145 240 97 96 164 127 195
90z M7614 922 c-18 -12 -32 -44 -26 -64 6 -23 47 -34 68 -17 27 22 36 47 24
69 -11 20 -45 26 -66 12z"/>
</g>
</svg>
