<?xml version="1.0" standalone="no"?>
<!DOCTYPE svg PUBLIC "-//W3C//DTD SVG 20010904//EN"
 "http://www.w3.org/TR/2001/REC-SVG-20010904/DTD/svg10.dtd">
<svg version="1.0" xmlns="http://www.w3.org/2000/svg"
 width="980.000000pt" height="190.000000pt" viewBox="0 0 980.000000 190.000000"
 preserveAspectRatio="xMidYMid meet">
<metadata>
Created by potrace 1.16, written by Peter Selinger 2001-2019
</metadata>
<g transform="translate(0.000000,190.000000) scale(0.100000,-0.100000)"
fill="#f1ead8" stroke="none">
<path d="M2646 1625 c-32 -13 -83 -40 -112 -59 l-54 -36 -49 25 c-93 47 -186
67 -337 72 -228 9 -409 -32 -615 -138 -381 -196 -575 -560 -386 -726 54 -47
97 -58 227 -57 92 0 128 5 180 23 267 93 484 312 498 502 4 53 2 59 -29 94
-31 32 -41 37 -96 42 -116 11 -271 -56 -411 -176 -61 -53 -119 -122 -173 -208
-35 -55 -5 -37 35 21 54 79 191 206 272 254 38 22 97 50 131 61 109 37 222 22
238 -30 37 -115 -179 -366 -421 -487 -133 -67 -296 -85 -387 -42 -74 35 -92
68 -92 170 0 77 3 92 35 155 67 133 256 304 435 393 193 95 473 143 664 113
82 -13 180 -44 218 -68 l25 -16 -34 -26 c-57 -43 -217 -203 -282 -281 -35 -41
-124 -157 -199 -256 -228 -305 -345 -436 -472 -531 -122 -92 -234 -133 -357
-133 -84 0 -136 16 -175 52 -32 30 -29 45 6 40 34 -5 71 26 71 58 0 24 -34 60
-55 60 -58 0 -101 -63 -84 -124 21 -73 89 -108 221 -114 228 -10 453 91 654
292 99 99 172 194 339 441 149 219 233 330 322 422 l75 78 27 -33 c128 -152
-2 -470 -244 -595 -52 -27 -71 -31 -140 -32 -44 0 -87 2 -95 5 -9 3 -15 -1
-15 -10 0 -10 19 -20 54 -29 77 -21 188 -3 289 45 100 48 196 143 243 240 32
64 34 76 34 169 0 112 -14 151 -81 225 l-35 38 33 25 c42 32 147 87 164 87 8
0 14 7 14 15 0 20 -4 19 -74 -10z M5610 1475 c-194 -39 -348 -134 -413 -254
-69 -125 -32 -262 86 -322 31 -16 148 -48 178 -49 4 0 -17 -36 -46 -79 -77
-116 -99 -178 -100 -281 0 -106 21 -152 89 -194 110 -69 316 -34 485 82 70 48
159 141 186 196 101 202 -102 260 -339 97 -56 -39 -174 -166 -205 -221 -34
-60 -12 -46 45 30 99 130 270 245 384 257 47 4 59 2 83 -17 57 -45 18 -141
-102 -252 -154 -143 -369 -213 -488 -159 -119 54 -98 213 55 416 95 127 100
131 176 139 90 9 275 57 393 101 345 129 593 335 544 453 -16 38 -48 52 -123
52 -92 0 -204 -35 -356 -111 -208 -103 -376 -222 -565 -399 l-87 -82 -48 6
c-124 18 -213 74 -232 147 -38 139 123 311 360 387 101 33 181 43 308 41 117
-1 153 9 77 23 -65 11 -275 7 -345 -7z m964 -51 c26 -25 19 -67 -19 -117 -83
-109 -350 -267 -578 -343 -92 -30 -281 -74 -319 -74 -16 0 6 24 122 128 225
204 472 364 628 407 68 19 147 18 166 -1z M9175 1271 c-122 -57 -312 -248
-626 -631 -85 -104 -205 -215 -308 -284 -54 -37 -101 -47 -101 -22 0 19 97
153 191 263 44 51 79 95 79 98 0 3 -20 5 -44 5 -39 0 -48 -4 -75 -37 -26 -32
-31 -34 -31 -17 0 50 -68 68 -149 40 -58 -21 -147 -84 -211 -151 -68 -71 -189
-169 -241 -195 -47 -24 -89 -26 -89 -5 0 30 31 75 156 233 l126 157 71 5 c44
3 72 10 75 18 3 8 -12 12 -52 12 -31 0 -56 3 -56 6 0 3 34 45 75 94 41 48 72
89 70 91 -2 3 -24 3 -49 1 -44 -4 -48 -7 -121 -97 l-76 -94 -56 -3 c-72 -4
-87 -28 -18 -28 l46 0 -59 -72 c-76 -93 -123 -141 -203 -208 -93 -78 -178
-130 -211 -130 -54 0 -35 32 134 238 61 73 108 136 105 139 -4 3 -26 2 -50 -1
-39 -6 -50 -15 -107 -82 -95 -114 -278 -262 -356 -289 -81 -28 -73 -1 36 126
116 134 137 178 110 230 -25 45 -157 3 -253 -81 -25 -22 -48 -40 -51 -40 -3 0
30 44 72 98 43 53 109 137 147 186 l69 89 -44 -7 c-24 -4 -45 -8 -45 -9 -6
-16 -173 -207 -249 -286 -101 -104 -271 -250 -336 -290 -67 -40 -100 -21 -63
37 21 32 192 246 227 283 30 32 25 39 -25 39 -30 0 -43 -7 -68 -35 -24 -28
-31 -32 -31 -17 0 29 -33 52 -73 52 -104 0 -272 -115 -342 -234 -37 -63 -40
-140 -6 -167 42 -34 109 -17 187 46 23 19 45 35 48 35 3 0 6 -15 6 -33 0 -38
25 -67 59 -67 49 0 164 78 296 200 l69 65 -75 -90 c-213 -254 -369 -444 -369
-449 0 -3 20 -6 43 -6 l44 0 108 133 c199 241 278 329 357 396 128 108 233
163 252 132 7 -10 -23 -49 -122 -163 -79 -91 -103 -142 -84 -183 30 -65 147
-26 287 97 l47 41 -21 -39 c-40 -74 -19 -134 46 -134 48 0 146 58 242 144 34
30 34 30 18 4 -9 -15 -19 -44 -23 -66 -5 -32 -2 -44 15 -61 44 -44 131 -16
249 79 l63 51 -7 -48 c-5 -40 -2 -53 16 -75 35 -46 98 -32 195 41 l50 38 -3
-38 c-3 -31 0 -40 22 -54 50 -33 125 1 259 118 56 48 59 49 43 20 -23 -45 -24
-108 -1 -133 48 -53 173 2 319 141 42 39 73 75 70 80 -3 5 -39 -21 -80 -57
-105 -91 -189 -144 -231 -144 -28 0 -33 4 -33 23 0 29 54 114 147 232 58 75
85 99 185 166 286 192 508 411 508 501 0 23 -28 48 -53 48 -12 0 -40 -9 -62
-19z m74 -24 c13 -17 -10 -65 -63 -131 -61 -73 -272 -250 -426 -356 l-35 -24
40 49 c220 276 412 471 466 475 4 0 12 -6 18 -13z m-2785 -583 c44 -17 -7
-109 -123 -225 -78 -79 -141 -119 -186 -119 -48 0 -28 60 57 167 81 102 178
181 225 183 6 0 18 -3 27 -6z m1764 -21 c5 -35 -32 -95 -113 -181 -83 -89
-158 -142 -198 -142 -23 0 -27 4 -27 29 0 58 162 255 248 301 48 25 86 22 90
-7z M4721 1269 c-108 -43 -327 -261 -583 -579 -131 -164 -377 -370 -440 -370
-16 0 -28 5 -28 13 0 22 52 97 158 226 56 68 102 128 102 133 0 4 -18 8 -40 8
-32 0 -45 -6 -67 -30 l-27 -31 -13 25 c-16 30 -49 41 -104 33 -66 -9 -144 -54
-230 -133 -111 -102 -220 -190 -271 -219 -39 -22 -98 -34 -98 -19 0 14 29 55
98 138 103 124 123 175 82 216 -11 11 -32 20 -47 20 -40 0 -124 -46 -187 -101
-30 -27 -57 -49 -60 -49 -4 0 0 13 9 30 20 39 19 83 -3 103 -44 40 -99 11
-240 -125 -189 -182 -262 -238 -312 -238 -11 0 -20 6 -20 13 0 22 51 95 158
227 56 69 102 128 102 132 0 5 -17 8 -37 8 -28 0 -45 -8 -70 -32 -23 -22 -33
-27 -33 -17 0 33 -36 52 -89 47 -174 -17 -386 -237 -350 -363 21 -72 87 -71
194 3 l71 49 -4 -34 c-5 -42 20 -73 58 -73 57 0 131 52 291 205 156 150 221
197 241 177 17 -17 -25 -79 -185 -267 l-85 -100 43 -3 43 -3 149 148 c81 82
167 161 190 177 51 34 115 57 126 46 13 -12 -5 -39 -88 -137 -108 -127 -128
-180 -84 -224 17 -17 29 -20 61 -16 48 6 131 55 204 120 47 43 53 45 44 22
-28 -72 6 -145 68 -145 36 0 118 41 160 80 l32 31 0 -39 c0 -45 23 -72 61 -72
53 1 126 45 257 158 34 29 62 52 62 49 0 -2 -7 -19 -16 -37 -9 -18 -19 -52
-22 -76 -4 -36 -1 -46 21 -68 46 -46 134 -27 254 55 65 45 194 169 187 180 -3
6 -36 -17 -72 -49 -105 -93 -190 -151 -243 -166 -84 -25 -104 -1 -65 78 31 62
175 257 207 280 13 10 69 47 124 83 255 168 455 367 455 454 0 51 -42 71 -99
48z m69 -47 c0 -51 -124 -190 -277 -310 -110 -86 -228 -169 -218 -151 42 70
330 397 394 445 49 38 101 46 101 16z m-2302 -583 c6 -55 -161 -250 -259 -299
-136 -70 -97 65 65 225 77 76 126 106 166 103 19 -2 26 -10 28 -29z m1262 16
c36 -43 -149 -268 -264 -321 -51 -23 -60 -25 -73 -11 -53 52 203 345 303 347
12 0 27 -7 34 -15z M7601 911 c-24 -24 -26 -40 -8 -65 18 -25 56 -17 81 17 16
21 18 32 10 45 -16 25 -59 27 -83 3z"/>
</g>
</svg>
