<?xml version="1.0" standalone="no"?>
<!DOCTYPE svg PUBLIC "-//W3C//DTD SVG 20010904//EN"
 "http://www.w3.org/TR/2001/REC-SVG-20010904/DTD/svg10.dtd">
<svg version="1.0" xmlns="http://www.w3.org/2000/svg"
 width="980.000000pt" height="190.000000pt" viewBox="0 0 980.000000 190.000000"
 preserveAspectRatio="xMidYMid meet">
<metadata>
Created by potrace 1.16, written by Peter Selinger 2001-2019
</metadata>
<g transform="translate(0.000000,190.000000) scale(0.100000,-0.100000)"
fill="#f1ead8" stroke="none">
<path d="M2646 1625 c-32 -13 -83 -40 -112 -59 l-54 -36 -49 25 c-187 94 -507
100 -764 14 -367 -122 -648 -401 -647 -641 1 -134 90 -214 251 -225 278 -19
600 180 706 437 73 177 -35 272 -238 211 -169 -51 -346 -194 -448 -363 -35
-58 -9 -45 33 16 54 79 191 206 272 254 130 75 265 103 334 67 132 -68 -96
-378 -386 -523 -181 -91 -387 -86 -457 12 -19 26 -22 44 -22 116 1 124 36 191
175 331 156 157 314 246 540 303 226 58 514 39 637 -41 l25 -16 -34 -26 c-57
-43 -228 -213 -287 -286 -32 -38 -119 -152 -194 -251 -283 -378 -422 -520
-589 -605 -153 -77 -337 -80 -415 -7 -32 30 -29 45 6 40 57 -8 92 57 51 98
-54 54 -143 -20 -120 -101 22 -76 89 -111 222 -117 233 -10 456 91 663 302 96
97 192 225 400 532 96 141 188 257 268 339 l60 59 27 -32 c127 -153 -3 -470
-245 -595 -52 -27 -71 -31 -140 -32 -44 0 -87 2 -95 5 -9 3 -15 -1 -15 -10 0
-29 97 -45 187 -32 169 25 326 137 399 287 32 65 34 77 34 170 0 112 -14 151
-81 225 l-35 38 33 25 c38 29 150 87 167 87 6 0 11 7 11 15 0 20 -4 19 -74
-10z M5610 1475 c-194 -39 -348 -134 -413 -254 -69 -125 -32 -262 86 -322 32
-17 148 -48 179 -49 4 0 -12 -28 -36 -62 -114 -165 -146 -314 -90 -423 80
-155 373 -133 597 46 138 111 202 244 152 316 -32 45 -127 51 -220 15 -111
-43 -276 -187 -334 -292 -34 -60 -12 -46 45 30 135 178 383 306 467 240 57
-45 18 -141 -102 -252 -154 -143 -369 -213 -488 -159 -119 54 -98 213 55 416
95 126 101 131 173 138 86 8 277 57 396 102 346 130 593 335 544 453 -37 90
-229 66 -479 -59 -208 -103 -376 -222 -565 -399 l-87 -82 -48 6 c-124 18 -213
74 -232 147 -38 139 123 311 360 387 101 33 181 43 308 41 117 -1 153 9 77 23
-65 11 -275 7 -345 -7z m964 -51 c115 -114 -384 -433 -805 -515 -55 -10 -105
-19 -111 -19 -16 0 6 24 122 128 225 204 472 364 628 407 68 19 147 18 166 -1z
M9175 1271 c-122 -57 -312 -248 -626 -631 -154 -189 -409 -379 -409 -306 0 19
97 153 191 263 44 51 79 95 79 98 0 3 -20 5 -44 5 -39 0 -48 -4 -75 -37 -26
-32 -31 -34 -31 -17 0 50 -68 68 -149 40 -58 -21 -147 -84 -211 -151 -114
-118 -251 -215 -305 -215 -54 0 -31 44 131 248 l126 157 71 5 c89 6 107 30 23
30 -31 0 -56 3 -56 6 0 3 34 45 75 94 41 48 72 89 70 91 -2 3 -24 3 -49 1 -44
-4 -48 -7 -121 -97 l-76 -94 -56 -3 c-72 -4 -87 -28 -18 -28 l46 0 -59 -72
c-140 -172 -344 -338 -414 -338 -54 0 -35 32 134 238 61 73 108 136 105 139
-4 3 -26 2 -50 -1 -39 -6 -50 -15 -107 -82 -95 -114 -278 -262 -356 -289 -81
-28 -73 -1 36 126 116 134 137 178 110 230 -25 45 -157 3 -253 -81 -25 -22
-48 -40 -51 -40 -3 0 30 44 72 98 43 53 109 137 147 186 l69 89 -43 -7 c-30
-5 -50 -15 -65 -34 -165 -210 -465 -499 -583 -561 -55 -29 -79 -5 -46 47 21
32 192 246 227 283 30 32 25 39 -25 39 -30 0 -43 -7 -68 -35 -24 -28 -31 -32
-31 -17 0 29 -33 52 -73 52 -112 0 -288 -128 -357 -259 -7 -13 -13 -47 -13
-74 -2 -106 94 -116 209 -22 23 19 45 35 48 35 3 0 6 -15 6 -33 0 -38 25 -67
59 -67 51 0 162 75 296 200 l69 65 -75 -90 c-213 -254 -369 -444 -369 -449 0
-3 20 -6 43 -6 l44 0 108 133 c199 241 278 329 357 396 127 108 233 163 252
133 7 -12 -23 -52 -116 -157 -85 -95 -109 -147 -90 -190 30 -65 147 -26 287
97 l47 41 -21 -39 c-40 -74 -19 -134 46 -134 48 0 146 58 242 144 34 30 34 30
18 4 -29 -46 -33 -102 -8 -127 43 -43 131 -16 248 78 l62 50 -6 -47 c-4 -38
-1 -52 17 -74 35 -46 98 -32 195 41 l50 38 -3 -38 c-3 -31 0 -40 22 -54 50
-33 125 1 259 118 56 48 59 49 43 20 -23 -45 -24 -108 -1 -133 48 -53 173 2
319 141 42 39 73 75 70 80 -3 5 -39 -21 -80 -57 -108 -94 -191 -146 -229 -142
-61 6 -34 67 112 253 56 73 86 100 173 158 352 236 573 472 505 540 -21 22
-50 21 -100 -2z m74 -24 c41 -50 -195 -285 -489 -487 l-35 -24 40 49 c220 276
412 471 466 475 4 0 12 -6 18 -13z m-2785 -583 c44 -17 -7 -109 -123 -225
-137 -137 -255 -165 -195 -46 26 51 118 160 177 210 69 59 105 75 141 61z
m1764 -21 c5 -35 -32 -95 -113 -181 -83 -89 -158 -142 -198 -142 -23 0 -27 4
-27 29 0 58 163 255 249 301 47 25 85 22 89 -7z M4721 1269 c-108 -43 -330
-264 -583 -579 -131 -163 -377 -370 -440 -370 -16 0 -28 5 -28 13 0 22 52 97
158 226 56 68 102 128 102 133 0 4 -18 8 -40 8 -32 0 -45 -6 -67 -30 l-27 -31
-13 25 c-40 77 -190 32 -334 -100 -111 -102 -220 -190 -271 -219 -41 -24 -98
-34 -98 -17 0 14 39 67 99 137 96 111 121 175 81 215 -39 39 -122 13 -218 -68
-24 -21 -53 -44 -64 -52 -20 -14 -20 -14 -4 17 32 63 11 123 -43 123 -40 0
-85 -32 -201 -144 -187 -180 -260 -236 -310 -236 -44 0 -14 51 139 240 55 69
101 128 101 133 0 4 -17 7 -37 7 -28 0 -45 -8 -70 -32 -23 -22 -33 -27 -33
-17 0 33 -36 52 -89 47 -174 -17 -386 -237 -350 -363 21 -72 87 -71 194 3 l71
49 -4 -34 c-5 -42 20 -73 58 -73 57 0 131 52 291 205 87 84 175 160 195 170
44 20 62 9 44 -26 -12 -22 -147 -192 -235 -296 l-37 -43 47 0 c47 0 47 0 162
120 116 121 212 204 270 234 34 17 83 22 83 8 0 -12 -48 -76 -113 -150 -88
-101 -108 -161 -66 -203 42 -42 146 -1 265 104 47 43 53 45 44 22 -28 -72 6
-145 68 -145 36 0 118 41 160 80 l32 31 0 -39 c0 -45 23 -72 61 -72 53 1 126
45 257 158 34 29 62 52 62 49 0 -2 -7 -19 -16 -37 -66 -132 16 -210 154 -145
29 13 73 39 99 56 64 44 194 169 187 180 -3 5 -42 -23 -86 -61 -102 -89 -178
-139 -234 -156 -78 -23 -98 3 -60 80 31 62 175 257 207 280 13 10 69 47 124
83 316 208 510 427 439 497 -17 18 -47 20 -83 5z m69 -47 c0 -51 -124 -190
-277 -310 -110 -86 -228 -169 -218 -151 42 70 330 397 394 445 49 38 101 46
101 16z m-2302 -583 c4 -36 -63 -132 -148 -213 -155 -146 -250 -139 -154 11
44 69 165 191 214 216 49 24 84 19 88 -14z m1262 16 c36 -43 -149 -268 -264
-321 -51 -23 -60 -25 -73 -11 -53 52 203 345 303 347 12 0 27 -7 34 -15z
M7601 911 c-24 -24 -26 -40 -8 -65 18 -25 56 -17 81 17 16 21 18 32 10 45 -16
25 -59 27 -83 3z"/>
</g>
</svg>
