<?xml version="1.0" standalone="no"?>
<!DOCTYPE svg PUBLIC "-//W3C//DTD SVG 20010904//EN"
 "http://www.w3.org/TR/2001/REC-SVG-20010904/DTD/svg10.dtd">
<svg version="1.0" xmlns="http://www.w3.org/2000/svg"
 width="980.000000pt" height="190.000000pt" viewBox="0 0 980.000000 190.000000"
 preserveAspectRatio="xMidYMid meet">
<metadata>
Created by potrace 1.16, written by Peter Selinger 2001-2019
</metadata>
<g transform="translate(0.000000,190.000000) scale(0.100000,-0.100000)"
fill="#f1ead8" stroke="none">
<path d="M2646 1625 c-32 -13 -83 -40 -112 -59 l-54 -36 -49 25 c-93 47 -186
67 -337 72 -106 4 -166 1 -240 -11 -124 -21 -247 -62 -361 -120 -113 -57 -200
-118 -280 -198 -196 -192 -249 -415 -127 -530 43 -40 100 -60 190 -66 92 -5
195 13 295 54 176 72 343 229 404 382 31 78 33 140 3 177 -48 61 -138 70 -264
26 -168 -58 -334 -202 -438 -378 -4 -7 -3 -13 2 -13 5 0 21 17 35 38 98 148
264 280 417 332 49 17 82 21 134 18 57 -3 72 -8 87 -27 27 -33 24 -76 -10
-148 -32 -68 -140 -188 -234 -260 -74 -57 -206 -127 -282 -149 -34 -10 -94
-18 -140 -18 -64 0 -90 5 -128 23 -66 32 -91 71 -95 151 -7 117 50 231 180
360 195 193 474 313 763 327 71 3 150 1 193 -6 87 -14 188 -46 221 -70 l23
-18 -33 -23 c-51 -36 -213 -196 -283 -280 -35 -41 -125 -158 -201 -260 -76
-102 -169 -222 -207 -267 -176 -211 -329 -330 -487 -377 -70 -21 -200 -21
-249 -1 -67 28 -112 88 -58 78 32 -6 64 12 72 41 13 55 -41 89 -96 61 -50 -26
-57 -108 -13 -157 39 -43 94 -62 195 -66 124 -5 222 15 344 73 126 59 204 114
310 219 98 98 169 190 339 441 151 222 232 329 320 421 l76 79 28 -33 c80 -94
64 -263 -38 -409 -64 -91 -129 -148 -218 -190 -65 -31 -79 -34 -140 -31 -37 2
-75 6 -83 8 -9 3 -15 -1 -15 -10 0 -23 81 -42 156 -36 110 10 224 58 306 129
59 52 120 142 143 213 18 53 21 82 18 143 -5 86 -27 138 -85 202 -30 33 -34
42 -22 50 59 39 149 89 172 94 15 4 27 13 27 21 0 8 -3 14 -7 14 -5 0 -34 -11
-67 -25z M5625 1479 c-141 -26 -282 -93 -362 -171 -108 -106 -133 -257 -57
-348 48 -56 102 -80 241 -106 20 -4 18 -9 -32 -83 -65 -97 -96 -176 -102 -262
-9 -107 23 -176 100 -220 37 -21 54 -24 142 -23 88 0 109 4 180 32 100 40 179
91 256 167 70 69 109 141 109 202 0 34 -6 49 -26 68 -63 59 -195 34 -338 -64
-56 -39 -174 -166 -205 -221 -13 -23 -19 -41 -14 -39 6 2 32 33 59 69 99 130
270 245 384 257 47 4 59 2 83 -17 36 -29 35 -70 -2 -136 -64 -112 -245 -242
-387 -279 -193 -50 -310 31 -269 189 20 77 52 137 123 231 86 115 108 135 143
135 56 0 232 40 354 81 148 49 321 131 419 199 124 86 206 186 206 250 0 12
-13 35 -29 51 -26 26 -36 29 -94 29 -95 0 -206 -33 -352 -104 -209 -101 -420
-252 -602 -429 l-61 -60 -49 7 c-126 18 -213 73 -234 148 -13 48 -5 88 29 152
53 97 182 186 352 242 75 24 103 28 240 31 85 2 157 6 160 11 14 20 -268 28
-365 11z m946 -49 c28 -15 24 -66 -7 -112 -52 -74 -192 -177 -349 -255 -154
-77 -384 -152 -515 -167 l-55 -7 90 87 c228 218 505 403 670 449 61 16 140 19
166 5z M9175 1271 c-118 -53 -318 -256 -627 -634 -85 -103 -223 -229 -317
-289 -45 -28 -91 -37 -91 -17 0 26 64 115 192 266 43 51 78 95 78 98 0 3 -20
5 -44 5 -39 0 -48 -4 -75 -37 -26 -32 -31 -34 -31 -17 0 32 -32 54 -77 54 -70
0 -175 -61 -283 -165 -153 -148 -249 -215 -305 -215 -55 0 -27 51 144 265
l113 140 71 5 c44 3 72 10 75 18 3 8 -12 12 -52 12 -31 0 -56 3 -56 6 0 3 34
45 75 94 41 48 72 89 70 91 -2 3 -24 3 -49 1 -44 -4 -48 -7 -121 -97 l-75 -94
-57 -3 c-70 -4 -84 -25 -20 -30 l45 -3 -76 -92 c-143 -171 -367 -341 -412
-313 -12 8 -12 14 2 42 9 18 70 99 137 181 67 81 121 149 121 152 0 2 -21 2
-47 -1 -41 -5 -53 -12 -82 -47 -89 -109 -269 -265 -356 -310 -44 -22 -79 -25
-83 -7 -1 9 38 63 88 120 116 135 137 179 110 231 -25 45 -157 3 -253 -81 -25
-22 -48 -40 -51 -40 -3 0 29 44 72 98 43 53 109 137 147 186 l69 89 -44 -7
c-24 -4 -45 -8 -45 -9 0 -1 -34 -42 -75 -92 -194 -236 -495 -505 -566 -505
-29 0 -31 19 -7 58 17 27 146 191 210 266 18 22 33 43 33 48 0 4 -18 8 -39 8
-32 0 -44 -6 -70 -35 -24 -28 -31 -32 -31 -17 0 10 -9 27 -20 37 -15 14 -31
17 -69 13 -131 -13 -324 -173 -351 -292 -5 -21 -4 -52 1 -71 16 -58 62 -70
134 -35 23 11 60 36 83 56 l42 36 0 -40 c0 -44 23 -72 59 -72 49 0 164 78 296
200 l69 65 -75 -90 c-196 -234 -369 -445 -369 -450 0 -3 20 -5 43 -5 l44 0
108 133 c199 241 278 329 357 396 128 108 233 163 252 132 7 -10 -23 -49 -122
-163 -79 -91 -103 -142 -84 -183 6 -13 23 -27 37 -31 48 -12 150 40 250 128
l47 41 -21 -39 c-39 -72 -19 -134 43 -134 50 0 150 59 245 144 34 30 34 30 18
4 -9 -15 -19 -44 -23 -66 -5 -32 -2 -44 15 -61 44 -44 131 -16 249 79 l63 51
-7 -50 c-6 -44 -4 -52 19 -75 15 -14 35 -26 47 -26 32 0 89 27 145 69 l50 38
-3 -38 c-3 -31 0 -40 22 -54 49 -33 125 2 257 116 l59 51 -15 -36 c-21 -49
-19 -109 3 -129 10 -10 32 -17 49 -17 54 0 164 65 256 151 48 44 84 85 81 90
-3 5 -35 -17 -72 -49 -133 -116 -190 -152 -242 -152 -25 0 -30 4 -30 23 0 29
54 114 147 232 58 75 85 99 185 166 232 156 440 344 487 442 25 52 26 70 5 91
-20 21 -50 20 -99 -3z m74 -25 c32 -38 -107 -196 -314 -357 -133 -103 -216
-160 -194 -133 8 10 46 57 84 104 150 184 310 351 368 382 40 21 42 21 56 4z
m-2771 -604 c5 -35 -44 -108 -132 -198 -83 -83 -145 -124 -191 -124 -19 0 -25
5 -25 20 0 47 83 164 177 250 64 59 105 81 143 77 18 -1 26 -9 28 -25z m1750
1 c5 -35 -32 -95 -113 -181 -83 -89 -158 -142 -198 -142 -23 0 -27 4 -27 29 0
17 16 53 40 88 51 77 157 186 207 212 48 26 87 24 91 -6z M4706 1260 c-59 -30
-132 -89 -224 -180 -84 -83 -261 -286 -359 -410 -115 -145 -363 -350 -425
-350 -17 0 -28 5 -28 14 0 21 69 119 169 241 50 61 91 113 91 116 0 3 -18 6
-40 7 -33 2 -45 -3 -67 -28 l-27 -31 -13 25 c-16 30 -49 41 -104 33 -66 -9
-144 -54 -231 -134 -127 -117 -238 -204 -292 -229 -48 -22 -76 -22 -76 0 0 6
41 60 90 121 54 65 94 124 100 146 19 70 -19 111 -87 94 -40 -10 -107 -51
-162 -101 -27 -24 -52 -44 -55 -44 -4 0 0 13 9 30 20 39 19 83 -3 103 -44 40
-102 9 -236 -121 -147 -143 -212 -200 -258 -223 -43 -22 -78 -25 -78 -6 0 22
51 95 158 227 56 69 102 129 102 133 0 18 -86 -6 -112 -31 -21 -19 -28 -22
-28 -10 0 25 -34 48 -73 48 -86 0 -231 -87 -304 -182 -50 -64 -63 -96 -63
-154 0 -61 27 -88 82 -81 35 5 78 29 163 92 20 14 21 13 17 -21 -5 -43 19 -74
58 -74 57 0 131 52 291 205 156 150 221 197 241 177 17 -17 -25 -79 -185 -267
l-85 -100 44 -3 45 -3 121 126 c67 70 148 147 180 171 70 54 146 90 160 76 14
-14 0 -37 -87 -139 -41 -48 -82 -102 -90 -120 -21 -43 -19 -79 6 -104 17 -17
29 -20 61 -16 48 6 131 56 206 122 33 29 52 42 47 30 -4 -11 -10 -39 -13 -62
-3 -35 0 -46 22 -67 15 -16 36 -26 54 -26 36 0 118 41 160 80 l32 31 0 -39 c0
-26 7 -45 20 -57 42 -38 135 4 280 127 44 38 80 67 80 65 0 -2 -7 -19 -16 -37
-9 -18 -19 -52 -22 -76 -4 -36 -1 -46 21 -68 19 -19 37 -26 64 -26 43 0 120
33 190 81 65 45 194 169 187 180 -3 6 -36 -17 -72 -49 -102 -90 -187 -149
-240 -166 -76 -26 -104 -4 -77 61 17 40 108 174 168 246 24 29 85 78 156 124
209 136 371 278 440 388 34 54 39 95 15 119 -20 21 -50 20 -98 -4z m84 -35 c0
-74 -176 -249 -432 -429 -38 -26 -68 -45 -68 -42 0 8 184 231 269 325 97 108
164 161 202 161 19 0 29 -5 29 -15z m-2302 -586 c6 -55 -161 -250 -259 -299
-136 -70 -97 65 65 225 77 76 126 106 166 103 19 -2 26 -10 28 -29z m1263 15
c11 -14 9 -25 -16 -72 -42 -81 -176 -215 -249 -248 -52 -23 -60 -25 -73 -11
-13 13 -13 20 6 62 26 59 108 162 169 213 84 70 136 88 163 56z M7608 918
c-25 -20 -31 -54 -12 -72 22 -23 53 -17 77 15 15 22 17 30 8 48 -13 24 -49 28
-73 9z"/>
</g>
</svg>
