<?xml version="1.0" standalone="no"?>
<!DOCTYPE svg PUBLIC "-//W3C//DTD SVG 20010904//EN"
 "http://www.w3.org/TR/2001/REC-SVG-20010904/DTD/svg10.dtd">
<svg version="1.0" xmlns="http://www.w3.org/2000/svg"
 width="980.000000pt" height="190.000000pt" viewBox="0 0 980.000000 190.000000"
 preserveAspectRatio="xMidYMid meet">
<metadata>
Created by potrace 1.16, written by Peter Selinger 2001-2019
</metadata>
<g transform="translate(0.000000,190.000000) scale(0.100000,-0.100000)"
fill="#f1ead8" stroke="none">
<path d="M2649 1626 c-58 -23 -122 -59 -151 -83 -14 -13 -23 -11 -66 11 -113
57 -190 71 -392 70 -167 0 -195 -3 -283 -27 -411 -110 -737 -405 -737 -667 0
-136 88 -216 251 -227 278 -20 600 179 705 435 35 85 32 143 -10 189 -30 33
-39 37 -94 41 -186 13 -446 -157 -581 -380 -35 -58 -9 -45 33 16 84 122 236
246 376 305 72 31 184 40 227 17 138 -71 -107 -397 -400 -531 -130 -59 -277
-76 -358 -41 -85 36 -116 96 -106 204 17 185 248 423 525 542 277 118 611 132
806 33 49 -25 49 -25 28 -42 -139 -106 -286 -267 -483 -531 -297 -396 -429
-533 -601 -621 -152 -77 -337 -80 -415 -7 -32 30 -29 45 6 40 57 -8 92 57 51
98 -24 24 -41 25 -79 5 -62 -31 -59 -121 6 -174 45 -37 100 -51 208 -51 212 0
431 104 621 294 102 102 171 193 364 476 144 211 222 312 314 405 l59 59 27
-33 c127 -151 -5 -470 -245 -594 -52 -27 -71 -31 -140 -32 -44 0 -87 2 -95 5
-9 3 -15 -1 -15 -10 0 -29 97 -45 187 -32 169 25 326 137 399 287 32 65 34 77
34 170 0 112 -14 151 -81 225 l-35 38 33 25 c38 29 150 87 167 87 6 0 11 7 11
15 0 19 -4 19 -71 -9z M5610 1475 c-252 -51 -430 -194 -447 -359 -13 -130 66
-218 226 -252 36 -7 69 -14 73 -14 4 0 -13 -29 -37 -64 -79 -112 -109 -188
-112 -286 -3 -74 -1 -91 20 -130 84 -160 372 -141 600 41 108 87 167 176 167
254 0 122 -155 136 -326 30 -79 -49 -206 -177 -243 -244 -33 -61 -12 -48 45
29 135 178 383 306 467 240 56 -44 18 -140 -98 -248 -157 -146 -371 -217 -492
-163 -96 44 -100 171 -8 327 27 46 150 203 167 215 6 4 40 9 76 13 84 8 268
56 392 102 343 129 589 335 541 452 -37 90 -229 66 -479 -59 -212 -105 -358
-208 -555 -390 l-98 -91 -47 6 c-162 23 -259 113 -237 219 27 128 173 254 365
315 101 33 181 43 308 41 117 -1 153 9 77 23 -65 11 -275 7 -345 -7z m964 -51
c93 -92 -234 -340 -612 -463 -111 -36 -299 -78 -308 -68 -6 6 170 169 261 242
167 134 378 259 492 290 69 19 148 19 167 -1z M9183 1275 c-122 -53 -315 -246
-634 -635 -85 -104 -205 -215 -308 -284 -54 -37 -101 -47 -101 -23 0 20 84
135 184 255 47 56 86 105 86 107 0 3 -20 5 -44 5 -39 0 -48 -4 -75 -37 -26
-32 -31 -34 -31 -17 0 50 -68 68 -149 40 -58 -21 -147 -84 -211 -151 -114
-118 -251 -215 -305 -215 -54 0 -31 44 131 248 l126 157 71 5 c89 6 103 28 21
32 l-58 3 77 91 c41 51 74 94 72 96 -2 2 -24 2 -49 0 -44 -4 -48 -7 -121 -97
l-76 -94 -56 -3 c-72 -4 -87 -28 -18 -28 l46 0 -59 -72 c-140 -172 -344 -338
-414 -338 -54 0 -35 32 133 237 60 72 109 134 109 137 0 3 -19 6 -41 6 -38 0
-46 -5 -87 -52 -147 -168 -335 -318 -412 -329 -47 -7 -32 26 59 130 116 132
138 180 111 232 -26 47 -155 5 -254 -83 -24 -21 -47 -38 -50 -38 -3 0 30 44
72 98 43 53 109 137 147 186 l69 89 -43 -7 c-30 -5 -50 -15 -65 -34 -165 -210
-465 -499 -583 -561 -32 -16 -63 -14 -63 5 0 27 232 330 262 342 20 8 -6 22
-42 22 -31 0 -44 -6 -69 -35 -24 -28 -31 -32 -31 -17 0 29 -33 52 -73 52 -160
0 -396 -226 -371 -356 16 -84 100 -84 211 1 l48 37 3 -34 c12 -121 133 -76
357 132 l69 65 -75 -90 c-213 -254 -369 -444 -369 -449 0 -3 20 -6 43 -6 l44
0 108 133 c199 241 278 329 357 396 137 116 248 171 248 122 0 -10 -37 -60
-82 -110 -88 -98 -128 -159 -128 -198 0 -29 33 -63 63 -63 49 0 159 65 246
144 l33 31 -21 -40 c-40 -75 -19 -135 46 -135 48 0 146 58 242 144 34 30 34
30 18 4 -29 -46 -33 -102 -8 -127 43 -43 131 -16 248 78 l62 50 -6 -47 c-4
-38 -1 -52 17 -74 35 -46 98 -32 195 41 l50 38 -3 -37 c-3 -30 1 -41 19 -54
48 -33 106 -10 227 88 82 67 91 71 72 36 -6 -10 -11 -37 -12 -59 -3 -97 79
-107 209 -25 63 40 205 173 197 185 -3 5 -39 -21 -80 -57 -141 -123 -243 -173
-261 -128 -9 24 17 71 117 203 85 113 99 127 198 193 231 155 407 308 482 421
43 64 49 96 24 121 -19 19 -49 20 -91 1z m66 -28 c41 -50 -195 -285 -489 -487
l-35 -24 40 49 c220 276 412 471 466 475 4 0 12 -6 18 -13z m-2785 -583 c44
-17 -7 -110 -124 -226 -81 -79 -141 -118 -185 -118 -49 0 -28 61 61 171 101
127 196 193 248 173z m1764 -21 c5 -35 -32 -95 -113 -181 -83 -89 -158 -142
-198 -142 -23 0 -27 4 -27 29 0 58 163 255 249 301 47 25 85 22 89 -7z M4721
1269 c-108 -43 -332 -266 -590 -587 -127 -158 -371 -362 -433 -362 -16 0 -28
5 -28 13 0 22 52 97 158 226 56 68 102 128 102 133 0 4 -18 8 -40 8 -32 0 -45
-6 -67 -30 l-27 -31 -13 25 c-40 77 -188 33 -335 -100 -118 -108 -221 -191
-270 -219 -41 -24 -98 -34 -98 -17 0 14 39 67 99 137 96 111 121 175 81 215
-39 39 -122 13 -218 -68 -24 -21 -53 -44 -64 -52 -20 -14 -20 -14 -4 17 32 64
11 123 -45 123 -39 0 -91 -38 -206 -150 -177 -172 -253 -230 -303 -230 -44 0
-14 51 139 240 55 69 101 128 101 133 0 4 -17 7 -37 7 -28 0 -45 -8 -70 -32
-23 -22 -33 -27 -33 -17 0 33 -36 52 -89 47 -181 -18 -398 -251 -347 -373 27
-63 89 -59 193 14 l69 48 -4 -34 c-5 -42 20 -73 58 -73 57 0 131 52 291 205
87 84 175 160 194 169 102 49 50 -39 -190 -321 l-37 -43 46 0 c46 0 46 0 188
144 148 150 249 226 300 226 15 0 28 -4 28 -8 0 -12 -48 -76 -113 -150 -88
-101 -108 -161 -66 -203 42 -42 146 -1 265 104 47 43 53 45 44 22 -28 -72 6
-145 68 -145 36 0 117 40 160 79 l32 30 0 -38 c0 -44 24 -71 61 -71 53 1 126
45 257 158 34 29 62 52 62 49 0 -2 -7 -19 -16 -37 -66 -132 16 -210 154 -145
29 13 73 39 99 56 64 44 194 169 187 180 -3 5 -42 -23 -86 -61 -161 -140 -278
-195 -309 -147 -26 39 164 317 254 373 371 231 609 481 531 558 -17 18 -47 20
-83 5z m69 -47 c0 -69 -187 -253 -429 -424 -87 -61 -86 -58 33 87 130 160 244
283 296 321 50 38 100 45 100 16z m-2302 -583 c9 -77 -232 -319 -318 -319 -34
0 -34 25 2 92 37 71 173 214 228 241 49 24 84 19 88 -14z m1261 12 c15 -28
-26 -103 -102 -186 -99 -108 -196 -168 -232 -141 -17 12 -16 15 4 61 12 26 46
78 77 116 110 135 225 203 253 150z M7600 910 c-11 -11 -20 -25 -20 -31 0 -24
22 -49 44 -49 25 0 66 38 66 61 0 40 -57 52 -90 19z"/>
</g>
</svg>
