<?xml version="1.0" standalone="no"?>
<!DOCTYPE svg PUBLIC "-//W3C//DTD SVG 20010904//EN"
 "http://www.w3.org/TR/2001/REC-SVG-20010904/DTD/svg10.dtd">
<svg version="1.0" xmlns="http://www.w3.org/2000/svg"
 width="980.000000pt" height="190.000000pt" viewBox="0 0 980.000000 190.000000"
 preserveAspectRatio="xMidYMid meet">
<metadata>
Created by potrace 1.16, written by Peter Selinger 2001-2019
</metadata>
<g transform="translate(0.000000,190.000000) scale(0.100000,-0.100000)"
fill="#f1ead8" stroke="none">
<path d="M2646 1625 c-32 -13 -83 -40 -113 -60 l-54 -36 -62 30 c-34 16 -89
37 -122 46 -35 10 -117 19 -197 22 -103 4 -161 1 -239 -12 -57 -9 -142 -30
-190 -45 -48 -16 -125 -48 -170 -71 -46 -23 -117 -64 -157 -92 -40 -27 -108
-88 -152 -134 -57 -60 -91 -107 -120 -167 -29 -58 -43 -100 -47 -142 -3 -33 0
-79 7 -104 15 -56 80 -123 135 -140 22 -6 72 -14 111 -17 98 -8 217 18 329 71
50 23 119 66 155 94 36 29 88 80 117 113 28 34 66 90 83 126 20 41 34 86 37
123 6 57 4 61 -29 94 -22 22 -49 37 -74 42 -63 12 -160 -11 -259 -60 -96 -48
-199 -130 -266 -210 -45 -56 -94 -134 -87 -141 3 -3 22 20 43 50 20 30 66 84
101 119 35 35 95 85 135 112 105 69 178 96 276 102 78 4 83 3 108 -23 24 -23
27 -33 23 -70 -3 -24 -15 -64 -28 -90 -27 -56 -159 -198 -243 -261 -75 -56
-192 -116 -273 -140 -34 -10 -93 -18 -139 -18 -64 0 -90 5 -128 23 -30 14 -58
38 -74 62 -20 31 -25 50 -25 101 1 74 25 145 79 225 20 30 64 83 98 117 34 35
95 87 136 116 41 29 115 72 164 97 50 24 126 55 170 68 44 13 120 31 169 40
103 17 256 20 342 4 79 -14 174 -45 202 -67 l24 -18 -56 -43 c-105 -81 -262
-257 -430 -482 -93 -123 -201 -262 -240 -309 -90 -108 -175 -193 -251 -251
-33 -26 -87 -60 -120 -76 -33 -17 -84 -38 -114 -47 -64 -19 -187 -21 -243 -4
-41 12 -88 52 -88 74 0 10 9 12 29 8 22 -5 34 -1 51 16 11 11 20 31 18 42 -2
12 -15 30 -29 41 -30 22 -59 17 -89 -16 -27 -29 -27 -96 1 -131 11 -15 40 -36
62 -48 32 -16 66 -22 142 -26 81 -4 118 0 185 17 47 12 118 37 159 56 41 20
104 55 140 79 37 25 96 72 133 105 36 34 100 103 141 153 41 51 134 181 207
288 73 107 164 236 201 286 38 50 102 126 143 170 l75 78 25 -23 c14 -13 32
-44 40 -69 9 -25 16 -71 16 -102 0 -31 -9 -83 -20 -116 -11 -32 -39 -86 -61
-121 -23 -35 -68 -87 -100 -117 -32 -30 -84 -67 -116 -83 -52 -25 -69 -28
-155 -28 -54 0 -98 -3 -98 -6 0 -11 49 -28 97 -34 63 -9 181 17 258 55 33 16
83 50 111 74 29 25 68 70 88 101 21 30 46 80 57 112 25 74 25 167 -1 237 -12
29 -39 75 -61 100 l-41 46 24 20 c12 11 60 38 106 61 45 23 82 45 82 50 0 5
-3 9 -7 9 -5 0 -34 -11 -67 -25z M5632 1479 c-78 -13 -199 -56 -262 -92 -30
-17 -78 -54 -106 -82 -29 -28 -62 -71 -73 -94 -12 -23 -25 -63 -28 -89 -3 -26
0 -66 6 -89 6 -23 23 -56 37 -73 15 -17 45 -41 68 -54 36 -21 74 -32 168 -51
l26 -5 -53 -79 c-29 -43 -63 -105 -75 -138 -12 -32 -25 -91 -28 -130 -4 -64
-2 -79 22 -128 21 -42 38 -61 74 -83 42 -24 56 -27 142 -27 80 0 107 5 173 29
43 16 111 50 150 76 40 26 98 74 130 108 32 34 66 80 77 104 11 24 20 62 20
86 0 33 -6 48 -25 66 -14 13 -41 26 -60 29 -19 3 -52 3 -72 0 -21 -3 -76 -23
-123 -45 -71 -34 -99 -55 -175 -132 -49 -50 -100 -110 -113 -133 -13 -24 -19
-43 -14 -43 5 0 26 25 47 56 21 30 66 81 101 112 34 31 88 72 119 91 32 19 80
43 109 53 28 9 67 17 87 18 22 0 47 -8 63 -21 18 -14 26 -30 26 -51 0 -16 -8
-46 -17 -66 -9 -21 -53 -73 -97 -117 -59 -58 -103 -92 -162 -122 -45 -24 -107
-49 -140 -58 -32 -8 -80 -15 -106 -15 -26 0 -66 7 -88 16 -22 9 -49 28 -59 43
-10 14 -21 40 -24 58 -3 17 0 58 9 89 8 32 28 82 44 113 33 61 95 146 152 210
28 32 44 41 68 41 56 0 232 40 355 81 66 22 171 64 233 94 61 30 145 77 186
105 124 86 206 186 206 250 0 12 -13 35 -29 51 -26 26 -36 29 -93 29 -35 0
-100 -9 -144 -21 -43 -11 -133 -46 -200 -78 -128 -62 -307 -174 -414 -260 -36
-29 -109 -93 -163 -143 l-98 -90 -50 6 c-82 11 -154 43 -193 86 -19 21 -38 54
-41 73 -14 71 34 168 117 242 59 52 201 125 293 151 40 11 110 18 215 20 85 2
160 4 165 4 6 0 1 6 -10 12 -25 15 -281 20 -353 7z m939 -49 c29 -16 25 -69
-9 -116 -55 -76 -191 -173 -359 -257 -50 -26 -144 -65 -209 -87 -106 -37 -285
-80 -330 -80 -14 0 -9 10 21 41 67 69 255 228 356 300 52 37 135 89 183 115
48 26 118 57 154 70 71 25 160 31 193 14z M9164 1264 c-92 -49 -218 -163 -374
-340 -58 -66 -152 -177 -207 -245 -93 -115 -178 -199 -293 -291 -54 -43 -102
-68 -130 -68 -11 0 -20 6 -20 13 0 6 10 28 21 47 26 42 199 258 228 284 11 10
19 22 16 26 -2 3 -23 5 -47 3 -34 -2 -49 -10 -70 -36 -24 -28 -27 -30 -28 -11
0 11 -8 28 -18 37 -31 28 -91 21 -171 -19 -52 -26 -102 -64 -179 -138 -59 -56
-130 -118 -159 -139 -60 -43 -139 -81 -153 -72 -17 11 -11 40 18 86 16 24 79
107 141 184 l113 140 71 5 c44 3 72 10 75 18 3 8 -12 12 -52 12 -31 0 -56 3
-56 7 0 3 33 45 74 94 41 48 73 89 71 91 -3 2 -25 2 -49 -2 -43 -5 -50 -10
-121 -97 l-75 -92 -57 -3 c-70 -4 -84 -26 -19 -30 l46 -3 -80 -95 c-150 -178
-364 -339 -411 -310 -12 8 -10 16 9 52 13 24 74 104 137 180 62 75 112 138
110 140 -3 2 -24 2 -49 -2 -40 -5 -50 -12 -113 -85 -38 -44 -112 -115 -164
-158 -96 -79 -209 -144 -228 -132 -6 3 -11 12 -11 19 0 7 39 57 86 112 47 54
94 116 105 136 10 21 19 48 19 62 0 13 -7 32 -16 40 -8 9 -30 16 -48 16 -18 0
-60 -14 -94 -31 -34 -16 -83 -50 -110 -75 -54 -48 -80 -60 -41 -18 34 36 278
348 274 352 -1 1 -20 0 -41 -4 -34 -5 -47 -17 -99 -82 -33 -41 -109 -127 -170
-190 -116 -121 -250 -240 -336 -298 -58 -39 -99 -45 -99 -15 0 21 54 95 178
246 45 55 82 102 82 105 0 3 -20 4 -45 2 -35 -3 -50 -11 -70 -34 -21 -25 -25
-26 -25 -10 0 10 -8 26 -18 35 -10 10 -35 17 -55 17 -43 0 -123 -30 -175 -65
-61 -41 -150 -135 -172 -179 -11 -24 -20 -63 -20 -89 0 -34 6 -53 20 -67 11
-11 32 -20 47 -20 15 0 45 9 68 20 23 11 60 36 83 56 l42 36 0 -40 c0 -25 6
-45 18 -55 10 -10 27 -17 38 -17 32 1 101 37 167 87 34 26 93 77 132 113 38
36 56 49 40 29 -17 -20 -114 -137 -216 -260 -102 -123 -189 -230 -193 -236 -5
-10 4 -13 36 -13 l43 0 179 216 c99 118 209 243 245 276 36 33 89 77 116 98
89 66 164 96 179 71 7 -10 -23 -49 -122 -163 -79 -91 -103 -142 -84 -183 6
-13 22 -27 36 -31 14 -3 41 -1 60 6 44 14 142 77 196 126 l42 39 -21 -40 c-11
-22 -21 -54 -21 -72 0 -24 7 -37 25 -49 17 -11 35 -14 58 -10 43 8 141 67 210
126 36 31 47 37 36 20 -23 -36 -31 -82 -20 -113 6 -16 21 -29 36 -33 14 -3 46
-1 71 6 47 13 137 71 191 123 l32 30 -10 -37 c-6 -21 -7 -51 -4 -67 9 -40 46
-63 88 -55 31 6 89 39 147 85 l26 20 -4 -34 c-3 -24 2 -39 17 -54 12 -12 31
-21 43 -21 37 0 100 37 191 110 83 67 85 68 71 35 -8 -19 -14 -52 -14 -74 0
-30 6 -44 22 -55 12 -9 34 -16 48 -16 33 0 121 42 174 82 66 51 166 151 159
161 -3 5 -24 -9 -47 -31 -63 -60 -152 -130 -196 -152 -22 -11 -53 -20 -70 -20
-25 0 -30 4 -30 24 0 27 70 137 157 246 48 61 83 91 176 153 64 43 151 105
193 138 110 88 226 202 268 262 44 64 54 107 31 130 -9 10 -27 17 -39 17 -13
0 -45 -12 -72 -26z m90 -20 c10 -27 -34 -96 -118 -179 -85 -86 -245 -216 -349
-287 -34 -23 -55 -33 -47 -22 39 51 205 247 266 315 38 41 90 94 115 117 46
42 94 72 115 72 7 0 15 -7 18 -16z m-2776 -605 c4 -36 -63 -132 -149 -214 -71
-67 -159 -118 -185 -108 -39 15 9 111 110 220 83 89 150 135 191 131 24 -2 31
-8 33 -29z m1750 4 c2 -12 -4 -39 -14 -59 -22 -47 -162 -194 -222 -234 -32
-21 -56 -30 -77 -28 -25 3 -30 7 -27 28 5 42 63 128 142 209 41 42 91 84 110
94 19 9 46 16 60 15 17 -2 26 -10 28 -25z M4705 1256 c-27 -13 -66 -36 -85
-50 -55 -42 -214 -201 -309 -311 -48 -55 -123 -145 -168 -200 -83 -103 -134
-154 -238 -242 -100 -84 -176 -133 -207 -133 -15 0 -28 5 -28 10 0 30 65 121
219 305 22 27 41 52 41 55 0 3 -20 4 -45 3 -34 -1 -50 -7 -65 -25 -11 -12 -19
-26 -20 -30 0 -5 -4 -8 -10 -8 -5 0 -7 6 -4 14 3 8 -4 24 -16 36 -19 19 -31
22 -74 18 -28 -3 -77 -18 -110 -34 -34 -16 -97 -63 -145 -108 -48 -44 -120
-106 -161 -139 -78 -62 -172 -113 -190 -102 -5 3 -10 12 -10 19 0 7 38 58 83
113 46 55 91 119 101 142 9 24 14 52 10 67 -3 13 -14 29 -24 34 -10 6 -28 10
-40 10 -35 0 -138 -60 -197 -113 -29 -27 -53 -45 -53 -41 1 5 7 20 15 34 8 14
14 39 15 56 0 18 -8 38 -18 47 -45 40 -100 10 -250 -136 -70 -67 -147 -139
-172 -158 -54 -44 -102 -69 -130 -69 -11 0 -20 6 -20 13 0 22 51 95 158 227
56 69 102 127 102 130 0 3 -20 4 -45 2 -35 -3 -50 -11 -70 -34 -22 -26 -25
-27 -25 -9 0 11 -10 27 -22 35 -12 9 -37 16 -54 16 -17 0 -51 -7 -74 -15 -61
-22 -169 -97 -211 -147 -20 -24 -46 -62 -58 -85 -12 -25 -21 -61 -21 -88 0
-32 6 -51 20 -65 11 -11 32 -20 47 -20 15 0 45 9 68 20 23 11 60 36 82 55 23
19 43 35 45 35 2 0 2 -16 0 -35 -3 -25 1 -42 13 -55 10 -11 30 -20 45 -20 14
0 50 12 79 27 36 17 106 76 211 178 87 83 174 160 195 169 48 23 63 10 41 -33
-9 -17 -73 -99 -141 -181 l-125 -150 49 0 c42 0 53 4 71 28 40 51 215 224 272
269 70 53 146 89 160 75 6 -6 6 -18 -3 -33 -6 -13 -43 -60 -81 -104 -39 -44
-78 -97 -89 -117 -10 -21 -19 -49 -19 -63 0 -14 9 -34 20 -45 11 -11 31 -20
45 -20 14 0 42 7 62 15 40 17 127 78 182 129 25 23 32 26 25 11 -5 -11 -9 -42
-9 -68 0 -39 5 -53 24 -68 13 -10 34 -19 47 -19 38 0 95 27 146 71 26 21 48
39 50 39 2 0 2 -16 0 -35 -3 -25 1 -42 14 -56 15 -17 27 -20 57 -16 21 3 63
20 93 38 30 19 93 66 139 107 l85 73 -21 -41 c-12 -23 -24 -61 -27 -85 -4 -37
-1 -47 21 -69 19 -19 37 -26 64 -26 21 0 62 11 92 25 30 14 77 42 105 62 70
51 187 164 180 175 -3 4 -38 -20 -77 -56 -40 -35 -98 -82 -130 -104 -33 -23
-81 -48 -107 -57 -37 -12 -54 -14 -69 -5 -12 6 -21 17 -21 24 0 28 63 133 138
232 68 90 88 108 172 162 135 86 246 171 339 258 44 41 98 103 121 136 23 35
40 72 40 88 0 32 -23 60 -48 60 -9 0 -39 -11 -67 -24z m85 -31 c0 -34 -44 -99
-118 -173 -76 -77 -211 -186 -324 -264 -32 -21 -58 -36 -58 -32 0 8 172 215
269 323 42 47 98 102 124 123 31 24 59 38 78 38 19 0 29 -5 29 -15z m-2302
-586 c4 -36 -63 -132 -148 -213 -38 -36 -88 -75 -111 -86 -22 -12 -50 -20 -62
-18 -17 2 -22 9 -20 32 1 16 19 54 39 85 47 70 168 191 214 214 19 9 46 16 60
15 19 -2 26 -10 28 -29z m1262 16 c7 -8 9 -23 4 -37 -19 -64 -154 -217 -233
-267 -59 -37 -95 -45 -111 -26 -9 11 -9 22 -2 45 17 48 71 120 147 195 72 72
123 104 161 105 12 0 27 -7 34 -15z M7614 922 c-18 -12 -32 -44 -26 -64 2 -10
15 -21 28 -24 26 -7 48 7 65 38 13 25 -6 58 -34 58 -12 0 -27 -4 -33 -8z"/>
</g>
</svg>
