<?xml version="1.0" standalone="no"?>
<!DOCTYPE svg PUBLIC "-//W3C//DTD SVG 20010904//EN"
 "http://www.w3.org/TR/2001/REC-SVG-20010904/DTD/svg10.dtd">
<svg version="1.0" xmlns="http://www.w3.org/2000/svg"
 width="980.000000pt" height="190.000000pt" viewBox="0 0 980.000000 190.000000"
 preserveAspectRatio="xMidYMid meet">
<metadata>
Created by potrace 1.16, written by Peter Selinger 2001-2019
</metadata>
<g transform="translate(0.000000,190.000000) scale(0.100000,-0.100000)"
fill="#f1ead8" stroke="none">
<path d="M2646 1625 c-32 -13 -83 -40 -112 -59 l-54 -36 -49 25 c-95 47 -185
67 -341 72 -122 5 -164 2 -258 -16 -244 -47 -461 -156 -619 -313 -231 -227
-257 -490 -58 -574 59 -25 195 -29 280 -10 134 31 232 80 346 172 165 132 263
346 197 429 -48 61 -138 70 -264 26 -168 -58 -334 -202 -438 -378 -4 -7 -3
-13 2 -13 5 0 21 17 35 38 98 148 264 280 417 332 88 30 193 25 221 -9 45 -55
1 -167 -113 -286 -92 -97 -165 -154 -271 -210 -108 -57 -184 -78 -282 -79 -94
0 -161 26 -197 77 -32 45 -37 143 -10 219 58 166 246 345 477 454 244 116 558
145 778 73 34 -11 73 -28 86 -38 l23 -18 -33 -23 c-51 -36 -213 -196 -283
-280 -35 -41 -125 -158 -201 -260 -166 -221 -252 -326 -342 -416 -168 -167
-321 -244 -485 -244 -84 0 -136 16 -175 52 -26 24 -31 50 -8 42 44 -17 92 26
81 72 -13 49 -101 51 -126 3 -17 -31 -12 -94 11 -123 39 -50 94 -70 205 -74
123 -5 227 18 351 77 118 57 196 113 299 215 98 98 169 190 339 441 149 221
231 329 320 421 l76 79 28 -33 c80 -94 64 -263 -38 -409 -64 -91 -129 -148
-218 -190 -65 -31 -79 -34 -140 -31 -37 2 -75 6 -83 8 -9 3 -15 -1 -15 -10 0
-23 81 -42 156 -36 205 18 384 154 450 344 16 44 20 75 16 137 -4 90 -25 140
-84 206 -30 33 -34 42 -22 50 59 39 149 89 172 94 15 4 27 13 27 21 0 18 -5
18 -74 -11z M5615 1475 c-298 -55 -497 -253 -446 -442 27 -99 99 -146 278
-179 20 -4 18 -9 -32 -83 -67 -100 -96 -177 -103 -268 -4 -64 -2 -79 22 -128
21 -42 38 -61 74 -83 43 -25 55 -27 147 -26 88 0 109 4 180 32 201 80 365 246
365 369 0 112 -128 132 -294 46 -81 -42 -235 -188 -275 -262 -33 -61 -13 -48
45 29 99 130 270 245 384 257 47 4 59 2 83 -17 57 -45 18 -141 -102 -252 -267
-247 -623 -231 -556 26 20 77 52 137 123 231 86 115 108 135 143 135 56 0 232
40 354 81 347 115 625 315 625 449 0 12 -13 35 -29 51 -26 26 -36 29 -94 29
-227 0 -616 -214 -935 -514 l-82 -78 -48 6 c-163 23 -259 112 -237 219 28 133
172 253 385 323 75 24 103 28 240 31 85 2 157 6 160 11 15 22 -263 28 -375 7z
m956 -45 c48 -26 10 -113 -85 -193 -183 -157 -543 -313 -786 -341 l-55 -7 90
87 c228 218 505 403 670 449 61 16 140 19 166 5z M9175 1271 c-118 -53 -318
-256 -627 -634 -85 -103 -223 -229 -317 -289 -45 -28 -91 -37 -91 -17 0 26 64
115 192 266 43 51 78 95 78 98 0 3 -19 5 -41 5 -35 0 -47 -6 -75 -36 -28 -29
-34 -32 -34 -16 0 30 -32 52 -77 52 -69 0 -172 -60 -281 -164 -157 -150 -251
-216 -307 -216 -55 0 -27 51 144 265 l113 140 71 5 c44 3 72 10 75 18 3 8 -12
12 -52 12 -31 0 -56 3 -56 6 0 4 34 46 75 94 41 48 72 89 70 91 -2 2 -24 3
-49 1 -44 -4 -48 -7 -121 -97 l-75 -94 -57 -3 c-71 -4 -88 -28 -18 -28 l46 0
-63 -77 c-78 -97 -140 -158 -244 -239 -114 -89 -194 -122 -194 -79 0 19 45 81
163 225 60 73 107 133 105 135 -2 1 -24 -1 -49 -4 -44 -6 -52 -12 -116 -86
-119 -138 -356 -313 -392 -290 -21 13 -10 33 79 136 116 134 137 178 110 230
-25 45 -157 3 -253 -81 -25 -22 -48 -40 -51 -40 -3 0 29 44 72 98 43 53 109
137 147 186 l69 89 -44 -7 c-24 -4 -45 -8 -45 -9 0 -1 -34 -42 -75 -92 -194
-236 -495 -505 -566 -505 -29 0 -31 19 -7 58 17 27 146 191 210 266 18 22 33
43 33 48 0 4 -18 8 -39 8 -32 0 -44 -6 -70 -35 -24 -28 -31 -32 -31 -17 0 36
-35 55 -89 50 -131 -13 -324 -173 -351 -292 -10 -46 4 -102 30 -116 43 -23
113 1 188 66 l42 36 0 -40 c0 -44 23 -72 59 -72 49 0 164 78 296 200 l69 65
-75 -90 c-196 -234 -369 -445 -369 -450 0 -3 20 -5 43 -5 l44 0 108 133 c199
241 278 329 357 396 128 108 233 163 252 132 7 -10 -23 -49 -122 -163 -79 -91
-103 -142 -84 -183 30 -65 147 -26 287 97 l47 41 -21 -39 c-39 -72 -19 -134
43 -134 50 0 150 59 245 144 34 30 34 30 18 4 -9 -15 -19 -44 -23 -66 -5 -32
-2 -44 15 -61 44 -44 131 -16 249 79 l63 51 -7 -50 c-6 -44 -4 -52 19 -75 15
-14 35 -26 47 -26 32 0 89 27 145 69 l50 38 -3 -38 c-3 -31 0 -40 22 -54 49
-33 123 1 258 117 l58 50 -15 -36 c-21 -49 -19 -109 3 -129 49 -44 174 11 305
134 101 94 108 127 9 41 -133 -116 -190 -152 -242 -152 -25 0 -30 4 -30 23 0
29 54 114 147 232 58 75 85 99 185 166 286 192 508 411 508 501 0 23 -28 48
-53 48 -12 0 -40 -9 -62 -19z m74 -25 c40 -48 -202 -291 -474 -476 l-50 -34
40 50 c203 253 360 420 430 457 37 20 40 20 54 3z m-2771 -604 c5 -35 -44
-108 -132 -198 -83 -83 -145 -124 -191 -124 -47 0 -29 57 51 161 52 68 148
157 189 175 44 20 79 14 83 -14z m1750 1 c5 -37 -26 -88 -109 -176 -86 -93
-161 -147 -202 -147 -23 0 -27 4 -27 29 0 58 161 254 247 300 49 26 87 24 91
-6z M4706 1260 c-118 -59 -347 -291 -583 -590 -115 -145 -363 -350 -425 -350
-17 0 -28 5 -28 14 0 21 69 119 169 241 50 61 91 113 91 116 0 3 -18 6 -40 7
-31 2 -45 -4 -65 -25 -14 -16 -25 -31 -25 -35 0 -5 -4 -8 -10 -8 -5 0 -7 6 -4
14 3 8 -4 24 -16 36 -19 19 -31 22 -75 18 -75 -6 -157 -50 -239 -128 -204
-192 -376 -300 -376 -236 0 7 41 61 90 121 54 66 94 124 100 146 19 70 -19
111 -87 94 -36 -8 -141 -76 -178 -115 -37 -38 -50 -38 -30 0 20 39 19 83 -3
103 -44 40 -102 9 -236 -121 -147 -143 -212 -200 -258 -223 -43 -22 -78 -25
-78 -6 0 22 51 95 158 227 56 69 102 129 102 133 0 18 -86 -6 -112 -31 -21
-19 -28 -22 -28 -10 0 25 -34 48 -73 48 -114 0 -312 -146 -356 -263 -19 -48
-14 -114 10 -138 39 -39 94 -20 224 76 20 14 21 13 17 -21 -5 -43 19 -74 58
-74 57 0 131 52 291 205 156 150 221 197 241 177 17 -17 -25 -79 -185 -267
l-85 -100 44 -3 44 -3 122 127 c68 70 149 147 180 171 70 53 146 89 160 75 14
-14 0 -37 -83 -134 -109 -129 -131 -186 -88 -229 43 -43 146 -1 267 106 33 29
52 42 47 30 -4 -11 -10 -39 -13 -62 -3 -35 0 -46 22 -67 15 -16 36 -26 54 -26
36 0 118 41 160 80 l32 31 0 -39 c0 -26 7 -45 20 -57 43 -39 138 5 285 132 84
73 85 73 64 32 -12 -22 -24 -60 -27 -84 -4 -37 -1 -47 21 -69 46 -46 134 -27
254 55 63 44 194 169 187 180 -3 5 -37 -19 -77 -54 -142 -123 -252 -186 -297
-172 -45 14 -30 64 57 189 98 142 130 174 252 253 209 136 371 278 440 388 34
54 39 95 15 119 -20 21 -50 20 -98 -4z m84 -35 c0 -56 -123 -194 -280 -316
-107 -83 -220 -162 -220 -155 0 8 184 231 269 325 97 108 164 161 202 161 19
0 29 -5 29 -15z m-2302 -586 c6 -55 -161 -250 -259 -299 -136 -70 -97 65 65
225 77 76 126 106 166 103 19 -2 26 -10 28 -29z m1263 15 c36 -43 -150 -267
-265 -320 -52 -23 -60 -25 -73 -11 -53 52 203 345 303 347 12 0 28 -7 35 -16z
M7608 918 c-25 -20 -31 -54 -12 -72 22 -23 53 -17 77 15 15 22 17 30 8 48 -13
24 -49 28 -73 9z"/>
</g>
</svg>
