<?xml version="1.0" standalone="no"?>
<!DOCTYPE svg PUBLIC "-//W3C//DTD SVG 20010904//EN"
 "http://www.w3.org/TR/2001/REC-SVG-20010904/DTD/svg10.dtd">
<svg version="1.0" xmlns="http://www.w3.org/2000/svg"
 width="980.000000pt" height="190.000000pt" viewBox="0 0 980.000000 190.000000"
 preserveAspectRatio="xMidYMid meet">
<metadata>
Created by potrace 1.16, written by Peter Selinger 2001-2019
</metadata>
<g transform="translate(0.000000,190.000000) scale(0.100000,-0.100000)"
fill="#f1ead8" stroke="none">
<path d="M2646 1625 c-32 -13 -82 -39 -111 -59 l-53 -35 -78 34 c-255 109
-609 83 -909 -68 -371 -185 -578 -536 -422 -714 150 -171 592 -62 806 199 105
129 148 271 100 332 -95 120 -367 35 -574 -180 -58 -60 -133 -169 -123 -179 3
-3 22 20 43 50 85 124 234 246 367 303 52 21 79 26 151 27 83 0 90 -2 109 -25
45 -56 4 -161 -114 -285 -177 -187 -371 -288 -553 -289 -147 0 -227 64 -227
181 0 266 353 570 764 659 209 45 502 18 597 -55 l23 -18 -49 -36 c-97 -71
-268 -261 -437 -487 -93 -124 -201 -263 -240 -310 -228 -273 -413 -390 -616
-390 -89 0 -134 13 -173 48 -29 28 -37 55 -12 46 24 -10 64 5 76 27 16 30 3
68 -28 80 -54 20 -103 -21 -103 -87 0 -89 73 -135 225 -142 224 -10 450 92
650 292 108 109 142 152 315 406 176 258 254 361 345 456 l76 79 28 -33 c129
-151 -5 -475 -248 -598 -50 -26 -66 -29 -153 -29 -54 0 -98 -3 -98 -6 0 -17
72 -34 140 -33 370 2 628 429 409 678 l-41 46 24 20 c12 11 60 38 106 61 45
23 82 45 82 50 0 13 -8 11 -74 -16z M5632 1479 c-252 -44 -449 -195 -469 -357
-11 -93 28 -168 111 -217 36 -21 76 -33 173 -51 20 -4 18 -9 -32 -83 -67 -100
-96 -177 -103 -268 -6 -98 26 -169 96 -211 42 -24 56 -27 142 -27 115 0 211
31 323 105 183 120 279 293 202 364 -51 48 -130 43 -255 -16 -71 -34 -99 -55
-175 -132 -49 -50 -101 -111 -114 -135 -33 -61 -13 -48 45 29 136 179 383 307
467 240 57 -45 18 -141 -102 -252 -154 -143 -369 -213 -488 -159 -119 55 -99
211 55 416 86 117 106 135 142 135 56 0 232 40 355 81 347 115 625 315 625
449 0 12 -13 35 -29 51 -26 26 -36 29 -94 29 -95 0 -207 -33 -352 -104 -205
-100 -371 -216 -568 -398 l-98 -90 -47 6 c-125 18 -212 73 -233 148 -30 115
74 255 256 343 134 65 187 77 365 81 85 2 160 4 165 4 6 0 1 6 -10 12 -25 15
-281 20 -353 7z m939 -49 c13 -7 19 -21 19 -44 0 -143 -438 -400 -810 -476
-139 -28 -142 -28 -95 21 67 69 255 228 356 300 223 160 446 243 530 199z
M9164 1264 c-134 -71 -310 -251 -631 -647 -102 -125 -316 -297 -370 -297 -29
0 -29 15 -2 60 26 42 168 220 216 271 39 41 36 47 -21 45 -30 -2 -44 -9 -67
-37 -25 -30 -28 -31 -29 -13 0 32 -32 54 -77 54 -71 0 -171 -59 -291 -174
-150 -142 -242 -206 -297 -206 -55 0 -27 52 144 265 l113 140 71 5 c89 6 107
30 23 30 -31 0 -56 3 -56 7 0 3 33 45 74 94 41 48 73 89 71 91 -3 2 -25 2 -49
-2 -43 -5 -50 -10 -121 -97 l-75 -92 -57 -3 c-70 -4 -84 -26 -19 -30 l46 -3
-83 -98 c-144 -171 -362 -335 -407 -307 -23 14 5 60 138 222 66 80 119 148
116 150 -2 2 -23 2 -48 -2 -40 -5 -50 -12 -113 -85 -150 -173 -403 -344 -403
-271 0 7 39 57 86 112 119 138 147 199 108 238 -38 38 -158 -5 -252 -90 -54
-48 -80 -60 -41 -18 34 36 278 348 274 352 -1 1 -20 0 -41 -4 -34 -5 -47 -17
-99 -82 -180 -226 -509 -522 -581 -522 -53 0 -24 49 154 265 45 55 82 102 82
105 0 3 -20 4 -45 2 -35 -3 -50 -11 -70 -34 -21 -25 -25 -26 -25 -10 0 29 -32
52 -73 52 -77 0 -182 -57 -274 -150 -64 -64 -93 -121 -93 -183 0 -110 97 -115
218 -11 l42 36 0 -40 c0 -42 23 -72 56 -72 53 1 166 77 299 200 38 36 56 49
40 29 -17 -20 -114 -137 -216 -260 -102 -123 -189 -230 -193 -236 -5 -10 4
-13 36 -13 l43 0 179 215 c99 119 205 240 237 269 118 109 233 186 278 186 47
0 35 -21 -97 -172 -41 -47 -77 -99 -84 -121 -22 -71 22 -112 96 -87 44 14 142
77 196 126 l42 39 -21 -40 c-48 -90 -12 -150 76 -127 51 14 126 61 199 125 43
37 47 39 30 12 -27 -41 -27 -112 -1 -132 46 -34 155 8 265 104 l48 43 -9 -36
c-21 -76 18 -132 84 -120 31 6 89 39 147 85 l25 19 -3 -38 c-3 -32 0 -41 22
-55 49 -32 123 2 263 123 l53 44 -15 -35 c-23 -55 -20 -113 7 -131 34 -24 68
-19 145 19 75 37 248 189 237 207 -4 5 -25 -8 -48 -30 -112 -107 -212 -172
-266 -172 -45 0 -40 33 19 121 107 163 161 220 286 303 283 189 505 408 505
498 0 24 -28 48 -54 48 -13 0 -45 -12 -72 -26z m90 -20 c22 -59 -216 -295
-479 -474 -57 -39 -57 -40 71 115 247 298 385 419 408 359z m-2776 -605 c7
-59 -169 -257 -271 -304 -84 -39 -100 -10 -46 84 38 66 183 215 230 236 50 22
83 16 87 -16z m1750 4 c5 -38 -28 -92 -110 -178 -87 -92 -161 -145 -201 -145
-23 0 -27 4 -27 29 0 59 168 262 251 304 46 23 83 19 87 -10z M4693 1251 c-70
-39 -92 -57 -202 -164 -99 -97 -214 -227 -348 -392 -107 -132 -221 -239 -357
-334 -60 -42 -116 -55 -116 -27 0 21 69 119 169 241 50 61 91 112 91 115 0 3
-20 4 -45 3 -42 -1 -83 -28 -85 -55 0 -5 -4 -8 -10 -8 -5 0 -7 6 -4 14 3 8 -4
24 -16 36 -19 19 -31 22 -75 18 -76 -6 -156 -51 -254 -142 -206 -191 -361
-286 -361 -222 0 6 40 60 88 119 94 114 120 166 102 211 -25 68 -146 29 -267
-87 -44 -42 -53 -41 -28 3 20 35 19 84 -3 103 -44 40 -102 9 -236 -121 -194
-189 -263 -242 -316 -242 -44 0 -13 54 138 240 56 69 102 127 102 130 0 3 -20
4 -45 2 -35 -3 -50 -11 -70 -34 -21 -25 -25 -26 -25 -10 0 51 -72 66 -160 33
-147 -56 -280 -206 -280 -316 0 -107 98 -112 217 -10 23 19 43 35 45 35 2 0 2
-16 0 -35 -5 -44 19 -75 58 -75 58 0 131 52 290 205 154 148 221 198 242 177
17 -17 -25 -79 -185 -267 l-85 -100 46 -3 c41 -3 50 0 70 25 53 63 221 228
274 270 70 53 146 89 160 75 14 -14 -5 -45 -84 -137 -107 -122 -130 -183 -88
-225 46 -46 153 0 289 124 26 23 32 26 26 11 -5 -11 -10 -39 -13 -62 -7 -76
53 -112 134 -78 35 14 116 72 122 87 9 21 18 4 14 -27 -3 -25 1 -42 14 -56 41
-45 138 -2 289 129 l85 73 -21 -41 c-73 -140 6 -222 150 -155 70 33 140 84
223 164 86 82 78 100 -10 22 -152 -134 -265 -196 -311 -171 -12 6 -21 17 -21
24 0 27 59 125 136 229 71 94 89 111 174 165 341 217 558 453 484 526 -22 23
-52 19 -111 -13z m97 -26 c0 -57 -125 -196 -291 -325 -108 -84 -209 -153 -209
-145 0 23 327 394 393 447 52 40 107 52 107 23z m-2302 -586 c6 -55 -161 -250
-259 -299 -135 -70 -97 64 65 225 76 76 126 107 166 103 19 -2 26 -10 28 -29z
m1262 16 c16 -20 5 -49 -45 -120 -97 -137 -259 -253 -294 -212 -26 32 31 130
140 239 95 94 169 129 199 93z M7614 922 c-19 -12 -34 -50 -28 -66 15 -38 71
-29 95 16 20 38 -29 75 -67 50z"/>
</g>
</svg>
