<?xml version="1.0" standalone="no"?>
<!DOCTYPE svg PUBLIC "-//W3C//DTD SVG 20010904//EN"
 "http://www.w3.org/TR/2001/REC-SVG-20010904/DTD/svg10.dtd">
<svg version="1.0" xmlns="http://www.w3.org/2000/svg"
 width="980.000000pt" height="190.000000pt" viewBox="0 0 980.000000 190.000000"
 preserveAspectRatio="xMidYMid meet">
<metadata>
Created by potrace 1.16, written by Peter Selinger 2001-2019
</metadata>
<g transform="translate(0.000000,190.000000) scale(0.100000,-0.100000)"
fill="#f1ead8" stroke="none">
<path d="M2654 1629 c-28 -10 -79 -36 -114 -58 l-64 -38 -60 28 c-34 16 -90
36 -126 46 -52 14 -102 18 -250 17 -167 0 -194 -3 -283 -27 -53 -14 -137 -43
-185 -63 -48 -21 -120 -57 -160 -81 -40 -23 -104 -68 -142 -99 -64 -53 -142
-141 -184 -207 -10 -16 -28 -58 -42 -93 -29 -79 -31 -162 -5 -219 10 -22 31
-52 47 -67 16 -15 47 -34 69 -44 22 -9 74 -19 116 -21 41 -3 107 0 145 6 38 7
102 25 142 41 39 16 98 46 130 66 87 56 168 130 219 201 25 36 56 90 69 121
13 31 24 77 24 100 0 24 -8 57 -17 73 -9 16 -33 36 -52 45 -25 12 -51 15 -100
11 -36 -2 -93 -14 -125 -26 -33 -11 -84 -35 -114 -53 -80 -49 -181 -137 -233
-204 -57 -74 -93 -134 -81 -134 5 0 26 25 47 55 20 30 77 93 125 139 72 68
108 93 195 136 91 46 116 54 179 58 54 3 80 0 103 -12 20 -10 34 -26 38 -45
14 -66 -29 -153 -134 -264 -44 -46 -114 -108 -156 -136 -41 -29 -108 -67 -148
-86 -39 -18 -96 -38 -125 -45 -29 -7 -79 -12 -111 -13 -32 0 -79 6 -105 13
-25 7 -61 27 -80 46 -21 21 -38 48 -42 70 -3 19 -4 59 -2 89 3 36 18 81 43
131 28 57 61 101 122 165 47 48 122 113 167 143 46 31 117 71 157 90 41 19
112 46 159 61 47 14 128 33 180 41 52 7 131 14 175 14 44 -1 114 -7 155 -14
78 -14 174 -47 203 -69 14 -11 7 -19 -56 -72 -40 -33 -115 -105 -166 -159 -51
-55 -159 -188 -239 -295 -80 -108 -182 -241 -228 -296 -93 -114 -237 -257
-304 -302 -69 -46 -140 -80 -207 -97 -78 -20 -193 -21 -241 -1 -41 18 -82 52
-82 70 0 7 11 10 29 7 20 -3 35 2 50 17 12 12 21 30 21 41 0 24 -34 60 -55 60
-9 0 -29 -7 -45 -15 -17 -9 -33 -28 -40 -49 -9 -27 -8 -41 3 -69 8 -19 30 -46
48 -60 19 -14 52 -30 74 -36 22 -6 80 -11 128 -11 99 0 208 24 303 66 92 41
216 126 303 210 45 42 114 120 155 174 41 53 138 190 216 305 78 114 169 242
203 284 34 41 88 102 120 134 49 51 59 57 73 46 30 -25 57 -94 62 -159 3 -52
-1 -80 -21 -137 -13 -40 -45 -101 -71 -137 -25 -35 -67 -82 -92 -105 -26 -23
-76 -56 -112 -73 -43 -21 -84 -33 -123 -36 -32 -2 -72 0 -88 6 -21 7 -33 8
-37 1 -3 -6 -2 -15 3 -20 5 -5 35 -15 66 -21 44 -9 73 -9 129 0 43 7 104 27
148 49 99 48 194 142 241 238 32 65 34 76 34 170 0 85 -3 106 -23 143 -13 24
-39 60 -58 82 l-35 38 33 26 c18 13 68 41 111 61 42 21 74 41 71 46 -3 5 -8 9
-12 8 -4 0 -30 -9 -58 -20z M5627 1480 c-71 -12 -175 -48 -241 -83 -33 -17
-82 -53 -111 -78 -28 -26 -63 -70 -79 -98 -16 -29 -30 -74 -33 -105 -3 -31 0
-69 7 -90 7 -21 26 -53 43 -72 16 -20 48 -44 70 -55 21 -11 69 -27 106 -35 36
-7 70 -14 74 -14 4 0 -8 -21 -28 -47 -20 -26 -55 -86 -78 -132 -41 -82 -42
-88 -42 -181 0 -88 2 -100 27 -137 17 -26 45 -50 79 -67 41 -20 68 -26 119
-26 36 0 93 7 125 15 33 9 92 31 130 49 39 18 99 56 135 85 70 56 121 114 151
173 11 21 19 58 19 83 0 35 -6 52 -24 70 -13 13 -40 27 -61 31 -50 9 -156 -18
-225 -59 -67 -39 -227 -196 -258 -254 -13 -24 -20 -43 -15 -43 5 0 29 28 53
62 25 34 78 90 119 125 41 35 102 77 135 93 34 17 86 35 116 42 45 9 61 9 85
-3 16 -8 34 -26 39 -41 7 -19 5 -39 -9 -75 -13 -34 -40 -70 -94 -123 -42 -41
-102 -90 -134 -109 -91 -53 -173 -82 -251 -88 -59 -5 -81 -2 -118 15 -62 27
-82 65 -76 146 3 42 14 82 37 129 30 63 120 190 174 248 20 21 38 27 91 32 84
8 285 60 397 102 110 42 256 116 339 170 36 24 93 72 127 107 71 74 94 128 74
176 -7 16 -24 34 -37 41 -39 17 -142 13 -224 -9 -90 -25 -283 -116 -400 -190
-119 -74 -247 -174 -368 -286 l-103 -96 -63 11 c-35 6 -80 18 -100 26 -55 23
-104 72 -116 115 -5 20 -7 53 -4 71 4 19 16 51 26 73 11 21 42 61 68 87 27 27
70 62 96 79 65 41 192 89 283 106 46 9 122 14 191 13 116 -2 159 10 85 23 -53
9 -267 8 -328 -2z m945 -57 c10 -9 18 -27 18 -40 0 -14 -13 -44 -30 -68 -34
-49 -123 -123 -225 -185 -98 -61 -233 -122 -357 -164 -105 -35 -301 -80 -321
-73 -12 4 147 151 270 249 102 83 243 177 325 219 87 44 197 78 252 79 32 0
56 -6 68 -17z M9183 1275 c-55 -24 -119 -72 -215 -163 -104 -99 -246 -259
-395 -444 -101 -125 -218 -235 -330 -311 -56 -37 -103 -48 -103 -24 0 19 83
134 184 255 47 56 86 104 86 107 0 3 -20 5 -44 5 -39 0 -48 -4 -75 -37 -26
-32 -31 -34 -31 -17 0 12 -9 29 -20 39 -15 14 -31 17 -69 13 -27 -3 -76 -18
-108 -34 -35 -18 -96 -66 -158 -125 -114 -109 -192 -172 -246 -200 -21 -10
-50 -19 -64 -19 -17 0 -25 5 -25 18 0 9 10 34 23 54 12 20 76 104 142 187
l120 149 69 4 c42 2 71 8 73 15 3 8 -14 13 -53 15 l-58 3 78 93 c43 52 76 95
74 96 -1 1 -24 1 -50 -2 -46 -4 -49 -6 -123 -97 l-76 -94 -56 -3 c-70 -4 -84
-25 -19 -30 l44 -3 -77 -91 c-42 -50 -108 -119 -147 -153 -98 -88 -209 -161
-245 -161 -18 0 -29 5 -29 14 0 7 12 31 26 52 15 21 75 98 135 171 60 72 109
134 109 137 0 3 -20 6 -44 6 -42 0 -45 -2 -119 -89 -76 -89 -203 -199 -300
-258 -60 -37 -100 -45 -105 -23 -1 9 37 62 87 118 49 56 96 117 105 136 9 19
16 44 16 56 0 12 -5 30 -10 41 -8 14 -21 19 -51 19 -48 0 -132 -41 -203 -100
-27 -22 -51 -40 -54 -40 -3 0 6 12 20 28 14 15 80 97 147 182 107 138 118 155
98 158 -13 2 -32 -1 -43 -5 -11 -4 -66 -62 -121 -128 -55 -66 -145 -163 -199
-215 -101 -96 -207 -186 -278 -234 -46 -31 -86 -35 -86 -8 0 20 97 151 198
269 39 44 68 84 65 87 -4 3 -23 6 -44 6 -30 0 -43 -7 -68 -35 -24 -28 -31 -32
-31 -17 0 10 -9 27 -20 37 -15 14 -31 17 -69 13 -27 -3 -73 -17 -103 -31 -80
-39 -178 -126 -217 -191 -27 -44 -35 -70 -35 -108 -1 -41 3 -53 23 -69 13 -10
35 -19 50 -19 35 1 97 30 146 70 l40 32 6 -42 c3 -23 12 -46 20 -51 8 -6 32
-8 53 -5 24 3 64 22 106 50 37 26 107 83 156 129 l88 82 -83 -100 c-46 -55
-102 -122 -126 -150 -119 -141 -235 -284 -235 -290 0 -3 20 -5 45 -3 l45 3
188 225 c194 233 298 335 414 403 70 41 108 48 108 18 0 -10 -34 -56 -76 -102
-42 -46 -89 -104 -105 -128 -16 -25 -29 -58 -29 -73 0 -15 9 -37 20 -48 11
-11 32 -20 46 -20 39 0 127 47 199 107 36 29 65 52 65 49 0 -2 -7 -17 -15 -32
-8 -16 -15 -43 -15 -60 0 -18 8 -38 20 -49 15 -13 30 -16 60 -12 23 3 66 20
96 38 30 19 77 53 104 77 28 24 50 41 50 39 0 -3 -7 -18 -15 -33 -8 -16 -15
-41 -15 -56 0 -16 10 -38 21 -49 17 -17 30 -20 65 -16 49 5 133 52 200 110
l43 38 -5 -48 c-5 -40 -2 -53 16 -75 15 -19 31 -28 51 -28 17 0 44 7 62 16 18
9 55 33 82 54 l51 37 -4 -34 c-3 -23 1 -40 13 -53 10 -11 30 -20 44 -20 14 0
44 9 66 19 23 10 79 49 125 86 47 39 80 60 76 49 -16 -37 -24 -87 -19 -103 11
-31 36 -51 63 -51 69 0 171 60 277 163 40 38 70 74 67 78 -3 5 -39 -21 -80
-57 -42 -36 -103 -83 -136 -105 -65 -41 -114 -51 -125 -23 -3 9 1 31 10 48 8
18 57 88 107 155 85 113 99 127 198 193 158 106 257 183 355 277 95 91 167
189 167 226 0 13 -7 31 -16 39 -8 9 -25 16 -37 16 -12 -1 -37 -7 -54 -15z m66
-28 c8 -10 6 -23 -7 -49 -10 -19 -36 -56 -56 -82 -61 -73 -272 -250 -426 -356
l-35 -24 40 49 c168 211 368 425 425 456 19 10 38 18 41 19 4 0 12 -6 18 -13z
m-2776 -598 c16 -25 -23 -93 -98 -176 -36 -39 -93 -90 -126 -112 -66 -44 -119
-55 -119 -23 1 32 37 96 93 163 58 70 123 128 172 154 17 8 39 14 49 13 10 -2
23 -10 29 -19z m1755 -6 c2 -12 -6 -39 -17 -61 -27 -53 -160 -193 -220 -231
-26 -17 -60 -31 -74 -31 -23 0 -27 4 -27 28 0 15 18 54 39 87 48 74 161 189
210 215 20 11 47 19 61 17 17 -1 26 -9 28 -24z M4692 1253 c-123 -66 -290
-238 -588 -605 -64 -77 -217 -216 -319 -287 -35 -25 -70 -41 -87 -41 -16 0
-28 5 -28 13 0 6 10 28 21 47 26 43 199 258 228 284 11 10 18 23 15 27 -3 5
-25 9 -49 9 -37 0 -47 -4 -66 -31 l-22 -31 -14 26 c-7 14 -25 29 -39 32 -39
10 -100 -2 -158 -30 -29 -14 -87 -56 -130 -93 -42 -38 -109 -96 -149 -131 -40
-35 -94 -76 -122 -93 -48 -27 -105 -39 -105 -20 0 11 32 55 109 148 65 79 91
126 91 163 0 11 -9 29 -20 40 -11 11 -32 20 -47 20 -16 0 -46 -9 -68 -19 -22
-10 -64 -38 -94 -62 -29 -24 -63 -51 -74 -59 -19 -14 -19 -14 -3 17 9 18 16
45 16 61 0 16 -8 36 -18 45 -10 10 -29 17 -41 17 -12 0 -39 -9 -60 -19 -21
-11 -97 -78 -170 -150 -72 -71 -159 -148 -192 -170 -59 -39 -109 -53 -109 -30
0 6 5 20 11 32 14 26 122 167 196 255 29 35 53 67 53 73 0 5 -17 9 -37 9 -28
0 -45 -8 -70 -32 -23 -22 -33 -27 -33 -17 0 9 -9 24 -20 34 -16 14 -30 17 -75
12 -73 -7 -173 -63 -246 -137 -31 -32 -66 -79 -79 -105 -14 -29 -23 -67 -23
-93 0 -36 5 -49 24 -65 37 -30 90 -17 174 41 l71 49 -4 -34 c-3 -23 1 -40 13
-53 10 -11 30 -20 44 -20 31 0 94 29 140 63 18 14 94 85 169 157 131 127 197
176 219 162 8 -5 8 -16 -2 -37 -7 -17 -69 -97 -137 -180 l-125 -150 43 -3 43
-3 143 145 c81 81 171 162 207 185 36 23 76 41 93 41 15 0 28 -4 28 -8 0 -12
-48 -76 -113 -150 -31 -35 -63 -79 -71 -97 -9 -18 -16 -45 -16 -59 0 -14 10
-36 21 -47 17 -17 29 -20 61 -16 21 3 64 20 94 39 31 18 80 55 110 81 47 43
53 45 44 22 -5 -14 -10 -42 -10 -61 0 -24 8 -43 25 -59 13 -14 36 -25 50 -25
14 0 42 7 61 15 20 8 58 31 85 51 l49 36 0 -35 c0 -20 7 -41 18 -50 10 -10 31
-17 46 -17 16 0 54 14 85 30 31 17 96 64 143 105 l86 74 -19 -50 c-11 -27 -19
-63 -19 -80 0 -18 9 -39 25 -54 17 -18 35 -25 62 -25 21 0 65 13 98 29 33 15
87 49 120 74 78 59 170 153 157 161 -5 3 -27 -10 -48 -30 -68 -64 -168 -141
-218 -168 -52 -28 -121 -35 -129 -13 -9 23 18 81 71 158 95 137 141 189 203
227 142 87 281 194 380 292 59 58 116 124 128 147 12 23 21 55 21 71 0 15 -5
33 -12 40 -7 7 -24 12 -39 12 -14 0 -49 -12 -77 -27z m98 -31 c0 -31 -56 -108
-132 -182 -40 -39 -107 -98 -148 -130 -83 -66 -220 -162 -220 -155 0 6 188
232 269 324 85 96 168 161 204 161 19 0 27 -5 27 -18z m-2302 -580 c2 -12 -8
-43 -23 -68 -38 -65 -141 -172 -209 -216 -33 -21 -70 -38 -83 -38 -13 0 -26 7
-29 14 -10 27 59 136 135 215 42 43 94 88 116 100 22 11 51 20 65 18 18 -1 26
-9 28 -25z m1260 -5 c2 -17 -7 -46 -24 -74 -15 -26 -61 -82 -104 -124 -49 -51
-95 -87 -129 -103 -30 -13 -60 -22 -67 -19 -25 9 -15 59 26 122 47 72 156 183
208 211 21 11 48 19 62 17 19 -1 26 -8 28 -30z M7600 910 c-11 -11 -20 -25
-20 -31 0 -24 22 -49 44 -49 25 0 66 38 66 61 0 22 -21 39 -47 39 -13 0 -32
-9 -43 -20z"/>
</g>
</svg>
