<?xml version="1.0" standalone="no"?>
<!DOCTYPE svg PUBLIC "-//W3C//DTD SVG 20010904//EN"
 "http://www.w3.org/TR/2001/REC-SVG-20010904/DTD/svg10.dtd">
<svg version="1.0" xmlns="http://www.w3.org/2000/svg"
 width="980.000000pt" height="190.000000pt" viewBox="0 0 980.000000 190.000000"
 preserveAspectRatio="xMidYMid meet">
<metadata>
Created by potrace 1.16, written by Peter Selinger 2001-2019
</metadata>
<g transform="translate(0.000000,190.000000) scale(0.100000,-0.100000)"
fill="#f1ead8" stroke="none">
<path d="M2646 1625 c-32 -13 -83 -40 -112 -59 l-54 -36 -49 25 c-93 47 -186
67 -337 72 -106 4 -166 1 -240 -11 -380 -65 -723 -307 -813 -574 -49 -145 -5
-268 114 -318 53 -22 177 -29 259 -15 238 42 478 226 563 431 12 30 23 76 23
103 0 40 -5 53 -33 83 -28 31 -39 36 -94 41 -183 17 -446 -155 -582 -379 -35
-58 -9 -45 33 16 54 79 191 206 272 254 130 75 265 103 334 67 132 -68 -96
-378 -386 -523 -133 -67 -296 -85 -387 -42 -74 35 -92 68 -92 170 1 76 4 92
35 155 46 92 211 261 323 330 282 173 649 232 909 144 33 -11 71 -27 85 -36
l25 -16 -34 -26 c-57 -43 -228 -213 -287 -286 -32 -38 -119 -152 -194 -251
-283 -378 -422 -520 -589 -605 -153 -77 -337 -80 -415 -7 -32 30 -29 45 6 40
34 -5 71 26 71 58 0 24 -34 60 -55 60 -58 0 -101 -63 -85 -121 22 -76 89 -111
222 -117 233 -10 456 91 663 302 96 97 192 225 400 532 96 141 188 257 268
339 l60 59 27 -32 c127 -153 -3 -470 -245 -595 -52 -27 -71 -31 -140 -32 -44
0 -87 2 -95 5 -9 3 -15 -1 -15 -10 0 -10 19 -20 54 -29 44 -12 68 -13 133 -3
169 25 326 137 399 287 32 65 34 77 34 170 0 112 -14 151 -81 225 l-35 38 33
25 c38 29 150 87 167 87 6 0 11 7 11 15 0 20 -4 19 -74 -10z M5610 1475 c-194
-39 -348 -134 -413 -254 -69 -125 -32 -262 86 -322 32 -17 148 -48 179 -49 4
0 -12 -28 -36 -62 -88 -126 -121 -219 -114 -320 5 -84 32 -135 92 -172 122
-76 353 -25 529 115 107 86 166 176 167 254 0 53 -21 82 -71 95 -108 29 -267
-46 -401 -189 -67 -72 -134 -169 -111 -160 6 2 32 33 59 69 98 130 272 245
387 257 66 7 107 -20 107 -70 0 -81 -138 -233 -279 -306 -228 -118 -413 -85
-413 75 0 82 39 169 130 289 95 126 101 131 173 138 156 15 414 98 602 194
235 120 375 270 338 361 -16 38 -48 52 -123 52 -92 0 -204 -35 -356 -111 -208
-103 -376 -222 -565 -399 l-87 -82 -48 6 c-124 18 -213 74 -232 147 -38 139
123 311 360 387 101 33 181 43 308 41 117 -1 153 9 77 23 -65 11 -275 7 -345
-7z m964 -51 c26 -25 19 -67 -19 -117 -83 -109 -350 -267 -578 -343 -92 -30
-281 -74 -319 -74 -16 0 6 24 122 128 225 204 472 364 628 407 68 19 147 18
166 -1z M9175 1271 c-122 -57 -312 -248 -626 -631 -85 -104 -205 -215 -308
-284 -54 -37 -101 -47 -101 -22 0 19 97 153 191 263 44 51 79 95 79 98 0 3
-20 5 -44 5 -39 0 -48 -4 -75 -37 -26 -32 -31 -34 -31 -17 0 50 -68 68 -149
40 -58 -21 -147 -84 -211 -151 -68 -71 -189 -169 -241 -195 -47 -24 -89 -26
-89 -5 0 30 31 75 156 233 l126 157 71 5 c44 3 72 10 75 18 3 8 -12 12 -52 12
-31 0 -56 3 -56 6 0 3 34 45 75 94 41 48 72 89 70 91 -2 3 -24 3 -49 1 -44 -4
-48 -7 -121 -97 l-76 -94 -56 -3 c-72 -4 -87 -28 -18 -28 l46 0 -59 -72 c-76
-93 -123 -141 -203 -208 -93 -78 -178 -130 -211 -130 -54 0 -35 32 134 238 61
73 108 136 105 139 -4 3 -26 2 -50 -1 -39 -6 -50 -15 -107 -82 -95 -114 -278
-262 -356 -289 -81 -28 -73 -1 36 126 116 134 137 178 110 230 -25 45 -157 3
-253 -81 -25 -22 -48 -40 -51 -40 -3 0 30 44 72 98 43 53 109 137 147 186 l69
89 -43 -7 c-30 -5 -50 -15 -65 -34 -130 -166 -335 -374 -476 -483 -96 -75
-120 -89 -149 -89 -26 0 -27 21 -4 58 21 32 192 246 227 283 30 32 25 39 -25
39 -30 0 -43 -7 -68 -35 -24 -28 -31 -32 -31 -17 0 29 -33 52 -73 52 -112 0
-288 -128 -357 -259 -7 -13 -13 -47 -13 -74 -1 -40 3 -53 22 -68 42 -34 109
-17 187 46 23 19 45 35 48 35 3 0 6 -15 6 -33 0 -38 25 -67 59 -67 51 0 162
75 296 200 l69 65 -75 -90 c-213 -254 -369 -444 -369 -449 0 -3 20 -6 43 -6
l44 0 108 133 c199 241 278 329 357 396 127 108 233 163 252 133 7 -12 -23
-52 -116 -157 -85 -95 -109 -147 -90 -190 30 -65 147 -26 287 97 l47 41 -21
-39 c-40 -74 -19 -134 46 -134 48 0 146 58 242 144 34 30 34 30 18 4 -9 -15
-19 -44 -23 -66 -5 -32 -2 -44 15 -61 43 -43 131 -16 248 78 l62 50 -6 -47
c-4 -38 -1 -52 17 -74 35 -46 98 -32 195 41 l50 38 -3 -38 c-3 -31 0 -40 22
-54 50 -33 125 1 259 118 56 48 59 49 43 20 -23 -45 -24 -108 -1 -133 48 -53
173 2 319 141 42 39 73 75 70 80 -3 5 -39 -21 -80 -57 -108 -94 -191 -146
-229 -142 -21 2 -31 9 -33 23 -3 24 50 110 145 230 56 73 86 100 173 158 154
103 248 177 349 272 139 133 195 229 156 268 -21 22 -50 21 -100 -2z m74 -24
c13 -17 -10 -65 -63 -131 -61 -73 -272 -250 -426 -356 l-35 -24 40 49 c220
276 412 471 466 475 4 0 12 -6 18 -13z m-2785 -583 c44 -17 -7 -109 -123 -225
-78 -79 -141 -119 -186 -119 -49 0 -28 61 61 171 79 99 174 176 221 178 6 1
18 -2 27 -5z m1764 -21 c5 -35 -32 -95 -113 -181 -83 -89 -158 -142 -198 -142
-23 0 -27 4 -27 29 0 58 163 255 249 301 47 25 85 22 89 -7z M4721 1269 c-108
-43 -330 -264 -583 -579 -131 -163 -377 -370 -440 -370 -16 0 -28 5 -28 13 0
22 52 97 158 226 56 68 102 128 102 133 0 4 -18 8 -40 8 -32 0 -45 -6 -67 -30
l-27 -31 -13 25 c-16 30 -49 41 -104 33 -66 -9 -144 -54 -230 -133 -111 -102
-220 -190 -271 -219 -41 -24 -98 -34 -98 -17 0 14 39 67 99 137 64 74 101 137
101 173 0 31 -35 62 -69 62 -35 0 -112 -40 -169 -88 -24 -21 -53 -44 -64 -52
-20 -14 -20 -14 -4 17 32 63 11 123 -43 123 -40 0 -85 -32 -201 -144 -187
-180 -260 -236 -310 -236 -11 0 -20 6 -20 13 0 21 51 93 159 227 55 69 101
128 101 133 0 4 -17 7 -37 7 -28 0 -45 -8 -70 -32 -23 -22 -33 -27 -33 -17 0
33 -36 52 -89 47 -174 -17 -386 -237 -350 -363 21 -72 87 -71 194 3 l71 49 -4
-34 c-5 -42 20 -73 58 -73 57 0 131 52 291 205 87 84 175 160 195 170 44 20
62 9 44 -26 -12 -22 -147 -192 -235 -296 l-37 -43 47 0 c47 0 47 0 162 120
116 121 212 204 270 234 34 17 83 22 83 8 0 -12 -48 -76 -113 -150 -88 -101
-108 -161 -66 -203 17 -17 29 -20 61 -16 48 6 131 55 204 120 47 43 53 45 44
22 -28 -72 6 -145 68 -145 36 0 118 41 160 80 l32 31 0 -39 c0 -45 23 -72 61
-72 53 1 126 45 257 158 34 29 62 52 62 49 0 -2 -7 -19 -16 -37 -9 -18 -19
-52 -22 -76 -4 -36 -1 -46 21 -68 46 -46 134 -27 254 55 64 44 194 169 187
180 -3 5 -42 -23 -86 -61 -102 -89 -178 -139 -234 -156 -78 -23 -98 3 -60 80
31 62 175 257 207 280 13 10 69 47 124 83 256 168 455 367 455 454 0 51 -42
71 -99 48z m69 -47 c0 -51 -124 -190 -277 -310 -110 -86 -228 -169 -218 -151
42 70 330 397 394 445 49 38 101 46 101 16z m-2302 -583 c4 -36 -63 -132 -148
-213 -155 -146 -250 -139 -154 11 44 69 165 191 214 216 49 24 84 19 88 -14z
m1262 16 c36 -43 -149 -268 -264 -321 -51 -23 -60 -25 -73 -11 -53 52 203 345
303 347 12 0 27 -7 34 -15z M7601 911 c-24 -24 -26 -40 -8 -65 18 -25 56 -17
81 17 16 21 18 32 10 45 -16 25 -59 27 -83 3z"/>
</g>
</svg>
