<?xml version="1.0" standalone="no"?>
<!DOCTYPE svg PUBLIC "-//W3C//DTD SVG 20010904//EN"
 "http://www.w3.org/TR/2001/REC-SVG-20010904/DTD/svg10.dtd">
<svg version="1.0" xmlns="http://www.w3.org/2000/svg"
 width="980.000000pt" height="190.000000pt" viewBox="0 0 980.000000 190.000000"
 preserveAspectRatio="xMidYMid meet">
<metadata>
Created by potrace 1.16, written by Peter Selinger 2001-2019
</metadata>
<g transform="translate(0.000000,190.000000) scale(0.100000,-0.100000)"
fill="#f1ead8" stroke="none">
<path d="M2646 1625 c-32 -13 -83 -40 -112 -59 l-54 -36 -49 25 c-27 13 -82
34 -123 46 -54 16 -111 23 -218 26 -122 5 -164 2 -258 -16 -62 -12 -145 -33
-185 -48 -97 -35 -228 -102 -306 -156 -35 -25 -93 -74 -128 -109 -36 -34 -84
-92 -108 -128 -24 -36 -53 -93 -64 -127 -12 -34 -21 -82 -21 -105 0 -24 5 -60
11 -81 5 -21 24 -54 42 -74 18 -20 52 -45 76 -56 27 -12 77 -21 126 -25 58 -3
106 1 161 13 43 9 117 35 164 56 47 22 117 65 157 95 39 30 95 83 123 117 28
34 65 91 81 126 19 38 33 86 36 120 5 51 3 60 -21 88 -15 17 -43 37 -63 44
-21 7 -59 9 -94 6 -31 -4 -87 -18 -124 -32 -37 -14 -98 -46 -136 -71 -39 -25
-98 -74 -133 -108 -34 -34 -81 -89 -103 -122 -53 -79 -56 -84 -45 -84 5 0 26
25 46 55 21 30 68 84 104 120 36 36 96 86 133 111 38 25 97 57 131 72 52 21
79 26 151 27 81 0 90 -2 108 -24 10 -13 19 -37 19 -55 0 -17 -13 -59 -29 -93
-18 -38 -57 -90 -103 -138 -40 -43 -99 -98 -131 -122 -74 -57 -206 -127 -282
-149 -34 -10 -94 -18 -140 -18 -64 0 -90 5 -128 23 -28 13 -58 38 -72 59 -20
29 -25 49 -25 100 0 36 8 85 19 117 10 29 36 79 57 111 21 32 68 87 104 123
36 36 101 90 143 119 43 29 120 74 172 98 53 25 148 59 213 75 83 21 152 32
237 36 71 3 151 1 195 -6 85 -13 186 -45 220 -71 l22 -17 -33 -23 c-51 -36
-213 -196 -283 -280 -35 -41 -125 -158 -201 -260 -76 -102 -170 -223 -209
-270 -89 -106 -183 -200 -261 -258 -33 -24 -85 -57 -115 -72 -30 -15 -79 -35
-109 -44 -30 -9 -90 -16 -133 -16 -84 0 -136 16 -175 52 -26 24 -31 50 -8 42
24 -10 64 5 76 27 6 11 8 32 5 45 -4 14 -18 29 -33 35 -19 7 -35 6 -55 -2 -16
-6 -33 -20 -38 -30 -6 -10 -10 -35 -10 -57 0 -25 8 -49 21 -66 11 -15 40 -36
62 -48 33 -17 64 -23 143 -26 80 -3 119 0 185 17 46 12 121 39 166 60 45 22
110 59 145 82 35 24 106 86 158 138 53 53 130 143 171 201 42 58 133 190 204
293 132 193 255 348 321 407 l38 33 27 -32 c14 -17 31 -49 38 -70 6 -21 11
-61 11 -89 0 -27 -9 -79 -20 -114 -11 -37 -41 -95 -69 -135 -27 -38 -73 -91
-101 -115 -29 -25 -78 -59 -109 -74 -48 -25 -68 -29 -136 -29 -44 0 -86 2 -94
5 -7 3 -15 0 -18 -6 -7 -20 60 -39 137 -38 50 0 97 8 141 22 36 13 87 36 112
52 25 15 63 45 86 65 22 20 56 61 76 91 20 30 45 80 56 112 16 44 20 75 16
137 -2 57 -10 92 -26 123 -12 24 -38 61 -58 83 -30 33 -34 42 -22 50 59 39
149 89 172 94 15 4 27 13 27 21 0 8 -3 14 -7 14 -5 0 -34 -11 -67 -25z M5615
1476 c-84 -17 -186 -53 -247 -89 -69 -40 -141 -110 -171 -166 -15 -28 -30 -72
-34 -98 -3 -26 0 -67 6 -90 6 -23 23 -56 37 -73 15 -17 45 -41 68 -55 36 -21
76 -33 173 -51 20 -4 18 -9 -32 -83 -29 -43 -63 -105 -75 -138 -12 -32 -25
-91 -28 -130 -4 -64 -2 -79 22 -128 21 -42 38 -61 74 -83 43 -25 55 -27 147
-26 88 0 109 4 180 32 44 17 107 50 140 72 33 22 86 65 117 97 32 31 69 79 83
107 15 30 25 67 25 93 0 34 -6 49 -25 67 -14 13 -40 27 -58 30 -18 3 -57 2
-86 -4 -29 -5 -85 -26 -124 -47 -52 -27 -97 -62 -162 -127 -49 -50 -101 -111
-114 -135 -13 -24 -19 -42 -14 -40 6 2 32 33 59 69 27 35 80 91 119 123 38 32
101 74 140 93 43 21 93 37 125 41 47 4 59 2 83 -17 19 -15 27 -30 27 -53 0
-18 -13 -55 -29 -83 -16 -28 -61 -80 -100 -116 -79 -73 -195 -139 -287 -163
-32 -8 -81 -15 -109 -15 -27 0 -69 9 -92 19 -41 19 -64 49 -76 102 -8 33 15
124 47 187 26 50 125 188 170 235 18 18 37 27 57 27 56 0 232 40 354 81 66 22
171 64 233 94 61 30 145 77 186 105 124 86 206 186 206 250 0 12 -13 35 -29
51 -26 26 -36 29 -94 29 -35 0 -99 -9 -143 -20 -43 -11 -134 -47 -201 -79 -67
-33 -166 -88 -220 -123 -119 -76 -260 -188 -371 -292 l-82 -78 -48 6 c-79 12
-143 37 -183 73 -43 39 -64 96 -54 146 12 57 58 128 115 179 30 27 91 67 135
89 44 22 112 49 150 61 55 16 103 22 225 24 85 2 160 4 165 4 6 0 1 6 -10 12
-12 7 -77 13 -160 15 -89 1 -166 -3 -210 -11z m956 -46 c28 -15 24 -66 -7
-112 -52 -74 -192 -177 -349 -255 -44 -22 -123 -57 -176 -76 -112 -42 -260
-82 -339 -91 l-55 -7 90 87 c177 169 383 321 538 395 47 22 107 47 134 54 59
16 138 19 164 5z M9175 1271 c-59 -26 -178 -126 -286 -238 -52 -55 -152 -169
-223 -254 -70 -85 -145 -175 -167 -201 -46 -55 -195 -183 -264 -227 -49 -31
-95 -41 -95 -20 0 6 5 20 12 32 17 33 92 131 179 233 43 51 75 95 72 98 -4 3
-22 6 -41 6 -27 0 -42 -8 -68 -36 -28 -29 -34 -32 -34 -16 0 30 -32 52 -77 52
-26 0 -65 -13 -113 -36 -51 -26 -100 -63 -168 -128 -111 -106 -189 -169 -243
-197 -21 -10 -50 -19 -64 -19 -17 0 -25 5 -25 18 0 10 13 38 29 63 15 24 79
107 140 184 l113 140 71 5 c44 3 72 10 75 18 3 8 -12 12 -52 12 -31 0 -56 3
-56 7 0 3 33 45 74 94 41 48 73 89 71 91 -2 2 -24 2 -49 0 -44 -4 -48 -7 -121
-97 l-75 -94 -57 -3 c-34 -2 -58 -8 -61 -15 -2 -9 10 -13 43 -13 l46 0 -63
-77 c-34 -43 -85 -100 -113 -127 -74 -72 -207 -173 -256 -195 -43 -19 -69 -18
-69 3 0 21 40 77 155 216 62 76 112 140 110 142 -3 2 -24 2 -49 -2 -40 -5 -50
-12 -113 -85 -38 -44 -112 -115 -164 -158 -96 -79 -209 -144 -228 -132 -6 3
-11 12 -11 19 0 7 39 57 86 112 47 54 94 116 105 136 10 21 19 48 19 62 0 13
-7 32 -16 40 -8 9 -30 16 -48 16 -18 0 -60 -14 -93 -30 -33 -17 -81 -48 -106
-70 -25 -22 -48 -40 -51 -40 -3 0 29 44 72 98 43 53 109 137 147 186 l69 89
-44 -7 c-24 -4 -45 -8 -45 -9 0 -1 -34 -42 -75 -92 -144 -176 -360 -383 -491
-471 -54 -36 -99 -45 -99 -19 0 9 8 28 17 43 17 27 146 191 210 266 18 22 33
43 33 48 0 5 -18 8 -41 6 -32 -1 -47 -9 -70 -35 -23 -27 -29 -30 -29 -15 0 10
-9 27 -20 37 -15 14 -31 17 -69 13 -27 -3 -73 -17 -103 -31 -29 -15 -79 -48
-110 -74 -32 -26 -72 -68 -90 -92 -17 -24 -37 -65 -44 -90 -13 -52 -4 -99 23
-118 9 -7 28 -13 42 -13 34 0 99 33 149 76 l42 36 0 -40 c0 -25 6 -45 18 -55
10 -10 29 -17 41 -17 49 0 164 78 296 200 38 36 57 49 41 30 -16 -19 -116
-140 -223 -267 -106 -128 -193 -235 -193 -238 0 -3 20 -5 43 -5 l44 0 108 133
c199 241 278 329 357 396 128 108 233 163 252 132 7 -10 -23 -49 -122 -163
-79 -91 -103 -142 -84 -183 6 -13 23 -27 37 -31 15 -4 44 0 69 10 53 21 118
62 181 118 l47 41 -21 -39 c-12 -21 -21 -53 -21 -71 0 -22 7 -37 22 -47 12 -9
33 -16 46 -16 13 0 47 11 75 25 51 26 106 66 166 119 34 30 34 30 18 4 -9 -15
-19 -44 -23 -66 -5 -32 -2 -44 15 -61 13 -13 34 -21 54 -21 18 0 55 11 83 25
27 13 78 47 112 75 l63 51 -7 -50 c-6 -44 -4 -52 19 -75 15 -14 35 -26 47 -26
32 0 89 27 145 69 l50 38 -3 -38 c-3 -31 0 -40 22 -54 18 -12 36 -15 60 -11
39 8 114 56 198 128 l58 50 -15 -36 c-8 -19 -15 -53 -15 -75 0 -30 6 -44 22
-55 12 -9 34 -16 49 -16 14 0 58 16 96 35 45 22 101 64 156 116 48 44 84 85
81 90 -3 6 -27 -9 -52 -33 -61 -56 -158 -131 -199 -152 -18 -9 -46 -16 -63
-16 -25 0 -30 4 -30 23 0 29 54 114 147 232 58 75 85 99 185 166 64 43 161
115 216 158 54 44 133 116 174 160 72 76 118 148 118 183 0 23 -28 48 -53 48
-12 0 -40 -9 -62 -19z m74 -25 c10 -11 7 -24 -10 -58 -12 -23 -61 -81 -108
-128 -82 -81 -249 -217 -356 -290 l-50 -34 40 50 c203 253 360 420 430 457 17
9 33 16 36 17 4 0 12 -6 18 -14z m-2771 -604 c2 -12 -9 -44 -24 -69 -37 -63
-179 -205 -231 -232 -23 -11 -54 -21 -68 -21 -19 0 -25 5 -25 23 0 39 60 128
144 213 45 46 98 90 117 99 19 8 45 14 59 12 18 -1 26 -9 28 -25z m1750 1 c2
-12 -4 -38 -13 -57 -23 -48 -164 -197 -223 -235 -27 -17 -61 -31 -75 -31 -23
0 -27 4 -27 29 0 17 16 53 40 88 51 77 157 186 207 212 21 11 49 20 63 18 17
-1 26 -9 28 -24z M4687 1248 c-31 -17 -94 -65 -140 -107 -124 -115 -236 -238
-404 -446 -83 -103 -133 -154 -238 -242 -100 -84 -176 -133 -207 -133 -17 0
-28 5 -28 14 0 21 69 119 169 241 50 61 91 112 91 115 0 3 -18 6 -39 8 -33 2
-45 -3 -65 -25 -14 -15 -26 -31 -26 -35 0 -5 -4 -8 -10 -8 -5 0 -7 6 -4 14 3
8 -4 24 -16 36 -19 19 -31 22 -75 18 -29 -3 -78 -17 -110 -33 -32 -15 -90 -58
-129 -95 -39 -37 -111 -100 -161 -140 -90 -73 -186 -127 -205 -115 -5 3 -10
12 -10 19 0 6 41 61 90 121 54 66 94 124 100 146 13 49 -1 86 -36 95 -15 4
-43 1 -63 -6 -47 -17 -116 -63 -168 -113 -24 -23 -43 -37 -43 -32 1 6 7 21 15
35 8 14 14 39 15 56 0 33 -26 64 -54 64 -42 0 -98 -38 -200 -138 -61 -60 -136
-130 -165 -156 -60 -52 -119 -86 -151 -86 -11 0 -20 6 -20 13 0 22 51 95 158
227 56 69 102 128 102 133 0 4 -19 5 -42 1 -29 -4 -52 -15 -70 -35 -24 -25
-28 -26 -28 -11 0 11 -8 26 -18 35 -10 10 -35 17 -55 17 -20 0 -59 -9 -87 -19
-27 -10 -78 -39 -113 -64 -65 -46 -137 -130 -156 -180 -6 -16 -11 -48 -11 -73
0 -31 6 -50 21 -65 17 -17 29 -20 61 -16 35 5 78 29 163 92 20 14 21 13 17
-21 -3 -24 1 -41 13 -54 10 -11 30 -20 45 -20 57 0 131 52 291 205 87 84 175
160 195 170 44 21 62 9 43 -26 -17 -33 -81 -115 -182 -234 l-85 -100 44 -3 44
-3 122 127 c68 70 149 147 180 171 72 55 146 89 161 74 7 -7 3 -22 -15 -48
-14 -21 -51 -67 -83 -103 -31 -36 -65 -82 -76 -102 -10 -21 -19 -49 -19 -63 0
-14 9 -34 20 -45 11 -11 31 -20 45 -20 14 0 42 7 62 15 40 17 127 78 182 129
26 23 32 26 26 11 -5 -11 -10 -39 -13 -62 -3 -35 0 -46 22 -67 15 -16 36 -26
54 -26 36 0 118 41 159 80 18 16 34 30 35 30 2 0 2 -16 0 -35 -3 -25 1 -42 14
-56 15 -17 27 -20 57 -16 21 3 63 20 93 39 31 18 93 66 139 105 84 73 85 73
64 32 -12 -22 -24 -60 -27 -84 -4 -37 -1 -47 21 -69 19 -19 37 -26 64 -26 43
0 120 33 190 81 63 44 194 169 187 180 -3 5 -37 -19 -77 -54 -40 -34 -96 -79
-125 -101 -61 -44 -146 -79 -172 -71 -10 3 -21 13 -24 21 -3 9 2 35 13 57 18
40 84 138 161 238 23 31 74 71 150 120 63 41 158 108 210 150 52 42 121 103
152 136 31 33 70 82 87 108 17 27 31 61 31 76 0 15 -7 35 -16 43 -8 9 -25 16
-37 16 -12 0 -48 -15 -80 -32z m103 -23 c0 -34 -45 -100 -118 -173 -76 -76
-185 -165 -314 -256 -38 -26 -68 -45 -68 -42 0 8 184 231 269 325 42 46 98
101 124 123 31 24 59 38 78 38 19 0 29 -5 29 -15z m-2302 -586 c4 -36 -63
-132 -148 -213 -38 -36 -88 -75 -111 -86 -22 -12 -50 -20 -62 -18 -17 2 -22 9
-20 32 1 16 19 54 39 85 47 70 168 191 214 214 19 9 46 16 60 15 19 -2 26 -10
28 -29z m1263 15 c11 -14 9 -25 -16 -72 -17 -32 -65 -93 -110 -139 -57 -58
-98 -90 -139 -109 -50 -23 -60 -24 -72 -12 -12 11 -12 21 -3 49 6 18 36 67 67
107 56 74 133 147 187 175 17 9 40 16 51 17 12 0 28 -7 35 -16z M7608 918 c-9
-7 -19 -23 -22 -34 -8 -27 18 -56 47 -52 11 2 29 15 40 29 15 22 17 30 8 48
-13 24 -49 28 -73 9z"/>
</g>
</svg>
