<?xml version="1.0" standalone="no"?>
<!DOCTYPE svg PUBLIC "-//W3C//DTD SVG 20010904//EN"
 "http://www.w3.org/TR/2001/REC-SVG-20010904/DTD/svg10.dtd">
<svg version="1.0" xmlns="http://www.w3.org/2000/svg"
 width="980.000000pt" height="190.000000pt" viewBox="0 0 980.000000 190.000000"
 preserveAspectRatio="xMidYMid meet">
<metadata>
Created by potrace 1.16, written by Peter Selinger 2001-2019
</metadata>
<g transform="translate(0.000000,190.000000) scale(0.100000,-0.100000)"
fill="#f1ead8" stroke="none">
<path d="M2646 1625 c-32 -13 -83 -40 -113 -60 l-54 -36 -62 30 c-99 47 -170
62 -319 68 -103 4 -161 1 -239 -12 -127 -21 -251 -61 -360 -116 -125 -62 -220
-132 -309 -226 -57 -60 -91 -107 -120 -167 -29 -58 -43 -100 -47 -142 -3 -33
0 -79 7 -104 15 -56 80 -123 135 -140 72 -21 176 -24 266 -6 105 22 243 86
329 154 134 107 227 249 237 362 6 57 4 61 -29 94 -22 22 -49 37 -74 42 -138
26 -385 -102 -525 -270 -45 -56 -94 -134 -87 -141 3 -3 22 20 43 50 85 124
239 250 369 303 42 17 87 27 143 30 78 4 83 3 108 -23 24 -23 27 -33 23 -70
-3 -24 -15 -64 -28 -90 -27 -56 -159 -198 -243 -261 -75 -56 -192 -116 -273
-140 -34 -10 -93 -18 -139 -18 -64 0 -90 5 -128 23 -30 14 -58 38 -74 62 -20
31 -25 50 -25 101 1 109 60 224 177 342 79 81 186 157 300 213 161 79 349 123
524 123 54 0 124 -5 157 -11 79 -14 174 -45 202 -67 l24 -18 -56 -43 c-105
-81 -262 -257 -430 -482 -188 -250 -282 -365 -371 -454 -117 -117 -235 -194
-354 -229 -64 -19 -187 -21 -243 -4 -41 12 -88 52 -88 74 0 10 9 12 29 8 22
-5 34 -1 51 16 11 11 20 31 18 42 -4 30 -50 62 -77 53 -38 -12 -61 -46 -61
-91 0 -50 26 -86 83 -116 32 -16 66 -22 142 -26 81 -4 118 0 185 17 151 38
304 123 432 240 92 84 193 213 348 441 174 255 253 360 344 456 l75 78 25 -23
c33 -31 56 -101 56 -171 0 -31 -9 -83 -20 -116 -44 -126 -163 -264 -277 -321
-52 -25 -69 -28 -155 -28 -54 0 -98 -3 -98 -6 0 -11 49 -28 97 -34 63 -9 181
17 258 55 116 57 215 167 256 287 25 74 25 167 -1 237 -12 29 -39 75 -61 100
l-41 46 24 20 c12 11 60 38 106 61 45 23 82 45 82 50 0 5 -3 9 -7 9 -5 0 -34
-11 -67 -25z M5632 1479 c-78 -13 -199 -56 -262 -92 -68 -39 -151 -120 -179
-176 -43 -84 -37 -189 15 -251 46 -54 101 -78 236 -105 l26 -5 -53 -79 c-29
-43 -63 -105 -75 -138 -12 -32 -25 -91 -28 -130 -4 -64 -2 -79 22 -128 21 -42
38 -61 74 -83 42 -24 56 -27 142 -27 80 0 107 5 173 29 43 16 111 50 150 76
86 56 180 153 207 212 11 24 20 62 20 86 0 33 -6 48 -25 66 -28 27 -77 37
-132 29 -21 -3 -76 -23 -123 -45 -71 -34 -99 -55 -175 -132 -49 -50 -100 -110
-113 -133 -13 -24 -19 -43 -14 -43 5 0 26 25 47 56 47 68 144 157 220 203 70
42 148 70 196 71 49 0 89 -32 89 -72 0 -16 -8 -46 -17 -66 -9 -21 -53 -73 -97
-117 -59 -58 -103 -92 -162 -122 -135 -71 -251 -90 -334 -57 -45 18 -74 53
-83 101 -8 41 16 132 53 202 33 61 95 146 152 210 28 32 44 41 68 41 56 0 232
40 355 81 148 49 321 131 419 199 124 86 206 186 206 250 0 12 -13 35 -29 51
-26 26 -36 29 -93 29 -35 0 -100 -9 -144 -21 -154 -39 -435 -195 -614 -338
-36 -29 -109 -93 -163 -143 l-98 -90 -50 6 c-82 11 -154 43 -193 86 -19 21
-38 54 -41 73 -14 71 34 168 117 242 59 52 201 125 293 151 40 11 110 18 215
20 85 2 160 4 165 4 6 0 1 6 -10 12 -25 15 -281 20 -353 7z m939 -49 c29 -16
25 -69 -9 -116 -82 -113 -325 -260 -568 -344 -106 -37 -285 -80 -330 -80 -14
0 -9 10 21 41 67 69 255 228 356 300 111 79 243 152 337 185 71 25 160 31 193
14z M9164 1264 c-126 -67 -322 -264 -581 -585 -93 -115 -178 -199 -293 -291
-54 -43 -102 -68 -130 -68 -11 0 -20 6 -20 13 0 6 10 28 21 47 26 42 199 258
228 284 11 10 19 22 16 26 -2 3 -23 5 -47 3 -34 -2 -49 -10 -70 -36 -24 -28
-27 -30 -28 -11 0 11 -8 28 -18 37 -31 28 -91 21 -171 -19 -52 -26 -102 -64
-179 -138 -59 -56 -130 -118 -159 -139 -60 -43 -139 -81 -153 -72 -17 11 -11
40 18 86 16 24 79 107 141 184 l113 140 71 5 c44 3 72 10 75 18 3 8 -12 12
-52 12 -31 0 -56 3 -56 7 0 3 33 45 74 94 41 48 73 89 71 91 -3 2 -25 2 -49
-2 -43 -5 -50 -10 -121 -97 l-75 -92 -57 -3 c-70 -4 -84 -26 -19 -30 l46 -3
-80 -95 c-150 -178 -364 -339 -411 -310 -12 8 -10 16 9 52 13 24 74 104 137
180 62 75 112 138 110 140 -3 2 -24 2 -49 -2 -40 -5 -50 -12 -113 -85 -85 -98
-237 -225 -320 -266 -60 -30 -83 -31 -83 -5 0 7 39 57 86 112 91 105 124 158
124 198 0 13 -7 32 -16 40 -8 9 -30 16 -48 16 -45 0 -144 -52 -204 -106 -54
-48 -80 -60 -41 -18 34 36 278 348 274 352 -1 1 -20 0 -41 -4 -34 -5 -47 -17
-99 -82 -33 -41 -109 -127 -170 -190 -174 -182 -360 -332 -411 -332 -53 0 -24
49 154 265 45 55 82 102 82 105 0 3 -20 4 -45 2 -35 -3 -50 -11 -70 -34 -21
-25 -25 -26 -25 -10 0 29 -32 52 -73 52 -43 0 -123 -30 -175 -65 -61 -41 -150
-135 -172 -179 -27 -56 -27 -129 0 -156 11 -11 32 -20 47 -20 36 0 100 32 151
76 l42 36 0 -40 c0 -42 23 -72 56 -72 53 1 166 77 299 200 38 36 56 49 40 29
-17 -20 -114 -137 -216 -260 -102 -123 -189 -230 -193 -236 -5 -10 4 -13 36
-13 l43 0 179 216 c176 211 261 299 361 374 89 66 164 96 179 71 7 -10 -23
-49 -122 -163 -79 -91 -103 -142 -84 -183 6 -13 22 -27 36 -31 14 -3 41 -1 60
6 44 14 142 77 196 126 l42 39 -21 -40 c-11 -22 -21 -54 -21 -72 0 -43 36 -68
83 -59 43 8 141 67 210 126 36 31 47 37 36 20 -39 -61 -31 -134 16 -146 14 -3
46 -1 71 6 47 13 137 71 191 123 l32 30 -10 -37 c-21 -78 18 -134 84 -122 31
6 89 39 147 85 l26 20 -4 -34 c-3 -24 2 -39 17 -54 12 -12 31 -21 43 -21 37 0
100 37 191 110 83 67 85 68 71 35 -8 -19 -14 -52 -14 -74 0 -30 6 -44 22 -55
12 -9 34 -16 48 -16 33 0 121 42 174 82 66 51 166 151 159 161 -3 5 -24 -9
-47 -31 -63 -60 -152 -130 -196 -152 -22 -11 -53 -20 -70 -20 -25 0 -30 4 -30
24 0 27 70 137 157 246 48 61 83 91 176 153 142 94 245 176 348 274 128 122
182 219 144 256 -9 10 -27 17 -39 17 -13 0 -45 -12 -72 -26z m90 -20 c17 -45
-111 -190 -302 -342 -122 -97 -233 -174 -212 -146 39 51 205 247 266 315 111
122 192 189 230 189 7 0 15 -7 18 -16z m-2776 -605 c4 -36 -63 -132 -149 -214
-71 -67 -159 -118 -185 -108 -39 15 9 111 110 220 83 89 150 135 191 131 24
-2 31 -8 33 -29z m1750 4 c5 -38 -28 -92 -110 -178 -96 -101 -161 -147 -203
-143 -25 3 -30 7 -27 28 5 42 63 128 142 209 41 42 91 84 110 94 47 23 84 19
88 -10z M4705 1256 c-27 -13 -66 -36 -85 -50 -93 -70 -296 -288 -477 -511 -83
-103 -134 -154 -238 -242 -100 -84 -176 -133 -207 -133 -15 0 -28 5 -28 10 0
30 65 121 219 305 22 27 41 52 41 55 0 3 -20 4 -45 3 -34 -1 -50 -7 -65 -25
-11 -12 -19 -26 -20 -30 0 -5 -4 -8 -10 -8 -5 0 -7 6 -4 14 3 8 -4 24 -16 36
-19 19 -31 22 -74 18 -28 -3 -77 -18 -110 -34 -34 -16 -97 -63 -145 -108 -124
-115 -228 -196 -288 -223 -52 -24 -73 -24 -73 1 0 7 38 58 83 113 46 55 91
119 101 142 9 24 14 52 10 67 -7 27 -31 44 -64 44 -35 0 -138 -60 -197 -113
-29 -27 -53 -45 -53 -41 1 5 7 20 15 34 20 35 19 84 -3 103 -45 40 -100 10
-250 -136 -139 -134 -200 -186 -249 -211 -39 -19 -73 -21 -73 -3 0 22 51 95
158 227 56 69 102 127 102 130 0 3 -20 4 -45 2 -35 -3 -50 -11 -70 -34 -22
-26 -25 -27 -25 -9 0 11 -10 27 -22 35 -47 34 -130 13 -237 -58 -110 -74 -181
-176 -181 -261 0 -32 6 -51 20 -65 11 -11 32 -20 47 -20 36 0 100 32 150 75
23 19 43 35 45 35 2 0 2 -16 0 -35 -5 -44 19 -75 58 -75 58 0 131 52 290 205
87 83 174 160 195 169 48 23 63 10 41 -33 -9 -17 -73 -99 -141 -181 l-125
-150 49 0 c42 0 53 4 71 28 40 51 215 224 272 269 70 53 146 89 160 75 14 -14
-5 -45 -84 -137 -76 -87 -108 -140 -108 -180 0 -32 33 -65 65 -65 14 0 42 7
62 15 40 17 127 78 182 129 25 23 32 26 25 11 -5 -11 -9 -42 -9 -68 0 -39 5
-53 24 -68 13 -10 34 -19 47 -19 38 0 95 27 146 71 26 21 48 39 50 39 2 0 2
-16 0 -35 -3 -25 1 -42 14 -56 15 -17 27 -20 57 -16 51 7 129 56 232 145 l85
73 -21 -41 c-12 -23 -24 -61 -27 -85 -4 -37 -1 -47 21 -69 19 -19 37 -26 64
-26 45 0 126 36 197 87 70 51 187 164 180 175 -3 4 -38 -20 -77 -56 -97 -86
-179 -142 -237 -161 -37 -12 -54 -14 -69 -5 -12 6 -21 17 -21 24 0 28 63 133
138 232 68 90 88 108 172 162 52 33 132 88 177 122 177 131 323 294 323 360 0
32 -23 60 -48 60 -9 0 -39 -11 -67 -24z m85 -31 c0 -57 -126 -198 -290 -324
-113 -87 -210 -154 -210 -145 0 3 44 59 97 123 222 267 320 361 374 361 19 0
29 -5 29 -15z m-2302 -586 c4 -36 -63 -132 -148 -213 -76 -71 -139 -109 -173
-104 -17 2 -22 9 -20 32 3 41 64 129 147 211 76 76 126 107 166 103 19 -2 26
-10 28 -29z m1262 16 c7 -8 9 -23 4 -37 -19 -64 -154 -217 -233 -267 -59 -37
-95 -45 -111 -26 -9 11 -9 22 -2 45 17 48 71 120 147 195 97 96 164 127 195
90z M7614 922 c-18 -12 -32 -44 -26 -64 6 -23 47 -34 68 -17 27 22 36 47 24
69 -11 20 -45 26 -66 12z"/>
</g>
</svg>
