<?xml version="1.0" standalone="no"?>
<!DOCTYPE svg PUBLIC "-//W3C//DTD SVG 20010904//EN"
 "http://www.w3.org/TR/2001/REC-SVG-20010904/DTD/svg10.dtd">
<svg version="1.0" xmlns="http://www.w3.org/2000/svg"
 width="980.000000pt" height="190.000000pt" viewBox="0 0 980.000000 190.000000"
 preserveAspectRatio="xMidYMid meet">
<metadata>
Created by potrace 1.16, written by Peter Selinger 2001-2019
</metadata>
<g transform="translate(0.000000,190.000000) scale(0.100000,-0.100000)"
fill="#f1ead8" stroke="none">
<path d="M2646 1625 c-32 -13 -83 -40 -112 -59 l-54 -36 -49 25 c-27 13 -82
34 -123 46 -54 16 -111 23 -218 26 -122 5 -164 2 -258 -16 -62 -12 -145 -33
-185 -48 -40 -14 -110 -45 -157 -68 -47 -24 -114 -64 -149 -88 -35 -25 -93
-74 -128 -109 -36 -34 -84 -92 -108 -128 -24 -36 -53 -93 -64 -127 -12 -34
-21 -86 -21 -115 0 -30 8 -70 19 -93 10 -22 31 -52 47 -67 16 -15 47 -35 69
-44 22 -9 78 -19 125 -21 58 -4 107 0 155 11 39 9 95 26 125 38 30 12 78 35
105 51 28 16 80 53 116 83 37 29 90 84 118 121 28 37 62 96 76 131 14 34 25
82 25 106 0 29 -7 52 -22 71 -12 15 -36 34 -54 41 -19 8 -55 14 -81 14 -27 0
-85 -13 -129 -29 -45 -15 -114 -49 -153 -75 -39 -27 -100 -76 -135 -110 -34
-34 -81 -89 -103 -122 -22 -32 -43 -65 -47 -71 -4 -7 -3 -13 2 -13 5 0 21 17
35 38 13 21 44 60 67 88 24 27 68 71 99 97 31 27 85 66 121 87 36 21 95 48
130 60 49 17 82 21 134 18 57 -3 72 -8 87 -27 11 -13 19 -37 19 -55 0 -17 -13
-59 -29 -93 -18 -38 -57 -90 -103 -138 -40 -43 -99 -98 -131 -122 -31 -24 -94
-64 -140 -88 -45 -24 -109 -51 -142 -61 -34 -10 -94 -18 -140 -18 -64 0 -90 5
-128 23 -26 12 -57 37 -69 54 -16 23 -24 50 -26 97 -3 47 2 81 16 122 11 31
37 82 57 113 21 31 68 86 105 123 36 37 101 91 143 120 43 29 120 74 172 98
53 25 148 59 213 75 83 21 152 32 237 36 71 3 150 1 193 -6 40 -6 100 -20 135
-32 34 -11 73 -28 86 -38 l23 -18 -33 -23 c-19 -13 -76 -65 -127 -114 -52 -50
-122 -125 -156 -166 -35 -41 -125 -158 -201 -260 -76 -102 -169 -222 -207
-267 -37 -45 -98 -112 -135 -149 -38 -37 -95 -87 -128 -112 -33 -24 -85 -57
-115 -72 -30 -15 -79 -35 -109 -44 -30 -9 -90 -16 -133 -16 -48 0 -93 6 -116
15 -20 9 -47 26 -59 37 -13 12 -23 27 -23 34 0 8 6 11 15 8 8 -4 26 -3 40 0
13 3 29 16 36 27 6 11 8 32 5 45 -4 14 -18 29 -33 35 -19 7 -35 6 -55 -2 -16
-6 -33 -20 -38 -30 -6 -10 -10 -35 -10 -57 0 -25 8 -49 21 -66 11 -15 40 -36
62 -48 33 -17 64 -23 143 -26 80 -3 119 0 185 17 46 12 121 39 166 60 45 22
110 59 145 82 35 24 104 84 154 133 50 50 123 134 161 186 38 52 118 167 178
255 59 88 139 201 176 251 38 50 102 127 144 170 l76 79 28 -33 c15 -18 33
-50 40 -71 6 -21 11 -61 11 -89 0 -27 -9 -79 -20 -114 -11 -37 -41 -95 -69
-135 -27 -38 -71 -89 -98 -113 -26 -23 -80 -58 -120 -77 -65 -31 -79 -34 -140
-31 -37 2 -75 6 -83 8 -9 3 -15 -1 -15 -10 0 -8 19 -20 45 -28 29 -8 69 -11
111 -8 36 3 92 15 124 26 32 11 79 32 104 47 24 14 64 44 88 65 23 22 58 64
78 94 20 30 45 80 56 112 16 44 20 75 16 137 -2 57 -10 92 -26 123 -12 24 -38
61 -58 83 -30 33 -34 42 -22 50 8 5 43 27 79 49 36 21 77 42 93 45 15 4 27 13
27 21 0 8 -3 14 -7 14 -5 0 -34 -11 -67 -25z M5615 1475 c-38 -7 -100 -24
-136 -37 -37 -14 -86 -36 -111 -51 -24 -14 -67 -46 -94 -70 -27 -25 -62 -68
-77 -96 -15 -28 -30 -72 -34 -98 -3 -26 0 -67 6 -90 6 -23 23 -56 37 -73 15
-17 45 -41 68 -55 36 -21 76 -33 173 -51 20 -4 18 -9 -32 -83 -29 -43 -63
-105 -75 -138 -12 -32 -25 -91 -28 -130 -4 -64 -2 -79 22 -128 21 -42 38 -61
74 -83 43 -25 55 -27 147 -26 88 0 109 4 180 32 44 17 107 50 140 72 33 22 86
65 117 97 32 31 69 79 83 107 15 30 25 67 25 93 0 34 -6 49 -26 68 -14 13 -42
26 -62 30 -21 3 -60 1 -87 -5 -27 -6 -81 -27 -119 -47 -51 -27 -96 -62 -161
-127 -49 -50 -101 -111 -114 -135 -13 -24 -19 -42 -14 -40 6 2 32 33 59 69 27
35 80 91 119 123 38 32 101 74 140 93 43 21 93 37 125 41 47 4 59 2 83 -17 19
-15 27 -30 27 -53 0 -18 -13 -55 -29 -83 -16 -28 -61 -80 -100 -116 -41 -38
-104 -83 -150 -107 -43 -22 -104 -47 -137 -56 -32 -8 -81 -15 -109 -15 -27 0
-69 9 -92 19 -41 19 -64 49 -76 102 -4 14 0 52 8 83 8 31 26 78 39 104 26 50
125 188 170 235 18 18 37 27 57 27 56 0 232 40 354 81 66 22 171 64 233 94 61
30 145 77 186 105 41 28 98 76 126 106 28 29 57 69 65 89 8 19 15 44 15 55 0
12 -13 35 -29 51 -26 26 -36 29 -94 29 -35 0 -99 -9 -143 -20 -43 -11 -134
-47 -201 -79 -67 -33 -166 -88 -220 -123 -54 -35 -141 -97 -193 -139 -52 -41
-132 -111 -178 -153 l-82 -78 -48 6 c-26 4 -69 14 -96 23 -27 8 -66 31 -87 50
-24 22 -43 50 -50 75 -5 22 -7 54 -4 71 4 18 19 54 33 81 15 26 51 70 81 97
30 26 84 64 120 83 36 18 104 46 151 62 75 24 103 28 240 31 85 2 157 6 160
11 3 4 -15 10 -40 14 -74 11 -260 7 -335 -7z m956 -45 c13 -7 19 -21 19 -42 0
-18 -11 -48 -26 -70 -15 -21 -50 -57 -78 -81 -28 -25 -82 -65 -121 -89 -38
-25 -106 -63 -150 -85 -44 -22 -123 -57 -176 -76 -53 -20 -139 -47 -190 -61
-52 -13 -119 -27 -149 -30 l-55 -7 90 87 c50 47 131 118 180 158 50 40 128 99
175 130 47 32 126 77 175 102 50 25 113 51 140 59 28 7 72 14 98 14 27 1 57
-4 68 -9z M9175 1271 c-22 -10 -67 -40 -100 -66 -33 -26 -93 -80 -133 -119
-76 -73 -241 -261 -394 -449 -50 -60 -128 -140 -180 -184 -51 -42 -113 -89
-137 -105 -25 -15 -55 -28 -68 -28 -13 0 -23 5 -23 11 0 6 5 20 12 32 17 33
92 131 180 234 43 51 78 95 78 98 0 3 -19 5 -41 5 -35 0 -47 -6 -75 -36 -28
-29 -34 -32 -34 -16 0 10 -8 26 -18 35 -11 10 -35 17 -59 17 -26 0 -65 -13
-113 -36 -51 -26 -100 -63 -168 -128 -54 -51 -121 -112 -151 -135 -30 -23 -72
-51 -92 -62 -21 -10 -50 -19 -64 -19 -17 0 -25 5 -25 18 0 10 13 38 29 63 15
24 79 107 140 184 l113 140 71 5 c44 3 72 10 75 18 3 8 -12 12 -52 12 -31 0
-56 3 -56 6 0 4 34 46 75 94 41 48 72 89 70 91 -2 2 -24 3 -49 1 -44 -4 -48
-7 -121 -97 l-75 -94 -57 -3 c-34 -2 -58 -8 -61 -15 -2 -9 10 -13 43 -13 l46
0 -63 -77 c-34 -43 -85 -100 -113 -127 -27 -26 -87 -77 -131 -112 -45 -35
-101 -73 -125 -83 -23 -11 -48 -17 -56 -14 -7 3 -13 11 -13 18 0 6 12 30 28
53 15 22 76 100 135 172 60 73 107 133 105 135 -2 1 -24 -1 -49 -4 -44 -6 -52
-12 -116 -86 -38 -44 -112 -115 -164 -158 -51 -42 -122 -91 -156 -108 -34 -17
-66 -28 -72 -24 -6 3 -11 12 -11 19 0 7 41 59 90 117 50 57 97 118 105 136 8
17 15 41 15 53 0 12 -5 30 -10 41 -8 14 -21 19 -49 19 -22 0 -63 -12 -98 -30
-33 -17 -81 -48 -106 -70 -25 -22 -48 -40 -51 -40 -3 0 29 44 72 98 43 53 109
137 147 186 l69 89 -44 -7 c-24 -4 -45 -8 -45 -9 0 -1 -34 -42 -75 -92 -40
-49 -117 -134 -169 -189 -53 -54 -135 -132 -183 -173 -49 -41 -111 -90 -139
-109 -28 -19 -62 -34 -75 -34 -15 0 -24 6 -24 15 0 9 8 28 17 43 17 27 146
191 210 266 18 22 33 43 33 48 0 4 -18 8 -39 8 -32 0 -44 -6 -70 -35 -24 -28
-31 -32 -31 -17 0 10 -9 27 -20 37 -15 14 -31 17 -69 13 -27 -3 -73 -17 -103
-31 -29 -15 -79 -48 -110 -73 -32 -26 -74 -71 -94 -99 -19 -29 -39 -69 -44
-89 -5 -21 -4 -52 1 -71 6 -19 18 -39 29 -45 10 -5 29 -10 41 -10 13 0 41 9
64 20 23 11 60 36 83 56 l42 36 0 -40 c0 -25 6 -45 18 -55 10 -10 29 -17 41
-17 12 0 41 10 64 21 23 12 69 43 102 68 33 25 91 75 130 111 l69 65 -75 -90
c-196 -234 -369 -445 -369 -450 0 -3 20 -5 43 -5 l44 0 108 133 c60 72 147
176 194 231 46 54 120 128 163 165 43 36 106 83 140 104 60 36 101 46 112 28
3 -5 -7 -24 -22 -44 -15 -19 -60 -73 -100 -119 -41 -47 -77 -99 -84 -121 -8
-27 -8 -43 0 -62 6 -13 23 -27 37 -31 15 -4 44 0 69 10 24 9 64 30 89 46 24
17 66 49 92 72 l47 41 -21 -39 c-12 -21 -21 -53 -21 -70 0 -17 8 -38 18 -47
10 -10 31 -17 46 -17 16 0 51 11 79 25 51 26 106 66 166 119 34 30 34 30 18 4
-9 -15 -19 -44 -23 -66 -5 -32 -2 -44 15 -61 13 -13 34 -21 54 -21 18 0 55 11
83 25 27 13 78 47 112 75 l63 51 -7 -50 c-6 -44 -4 -52 19 -75 15 -14 35 -26
47 -26 11 0 37 7 57 15 21 9 60 33 88 54 l50 38 -3 -38 c-3 -31 0 -40 22 -54
18 -12 36 -15 60 -11 19 4 59 23 88 43 29 20 79 58 110 85 l58 50 -15 -36 c-8
-19 -15 -53 -15 -74 0 -25 7 -45 18 -55 10 -10 32 -17 49 -17 17 0 62 16 100
35 45 22 101 64 156 116 48 44 84 85 81 90 -3 5 -35 -17 -72 -49 -37 -32 -85
-72 -107 -89 -22 -17 -54 -38 -72 -47 -18 -9 -46 -16 -63 -16 -25 0 -30 4 -30
23 0 13 18 51 39 84 22 34 70 100 108 148 58 75 85 99 185 166 64 43 161 115
216 158 54 44 133 116 174 160 72 76 118 148 118 183 0 9 -7 24 -16 32 -8 9
-25 16 -37 16 -12 0 -40 -9 -62 -19z m74 -25 c10 -11 7 -24 -10 -58 -12 -23
-61 -81 -108 -128 -47 -47 -135 -124 -196 -171 -60 -46 -132 -100 -160 -119
l-50 -34 40 50 c86 108 175 212 236 279 35 39 87 91 114 116 28 26 64 53 80
62 17 9 33 16 36 17 4 0 12 -6 18 -14z m-2771 -604 c2 -12 -9 -44 -24 -69 -15
-26 -64 -84 -108 -129 -45 -45 -100 -91 -123 -103 -23 -11 -54 -21 -68 -21
-19 0 -25 5 -25 20 0 12 7 35 16 53 10 18 36 57 60 88 23 31 69 80 101 109 32
29 71 59 88 66 16 8 41 13 55 11 18 -1 26 -9 28 -25z m1750 1 c2 -12 -4 -38
-13 -57 -9 -19 -52 -73 -96 -119 -43 -47 -100 -99 -127 -116 -27 -17 -61 -31
-75 -31 -23 0 -27 4 -27 29 0 17 16 53 40 88 22 33 68 89 104 126 35 36 81 75
103 86 21 11 49 20 63 18 17 -1 26 -9 28 -24z M4706 1260 c-21 -11 -62 -37
-90 -58 -28 -22 -89 -77 -135 -123 -84 -83 -260 -284 -358 -409 -28 -36 -75
-88 -105 -116 -29 -28 -80 -73 -113 -101 -33 -28 -87 -69 -119 -92 -36 -24
-71 -41 -88 -41 -17 0 -28 5 -28 14 0 7 18 40 39 72 22 33 80 109 130 169 50
61 91 113 91 116 0 3 -18 6 -40 7 -31 2 -45 -4 -65 -25 -14 -16 -25 -31 -25
-35 0 -5 -4 -8 -10 -8 -5 0 -7 6 -4 14 3 8 -4 24 -16 36 -19 19 -31 22 -75 18
-29 -3 -78 -17 -110 -33 -32 -15 -90 -58 -129 -95 -39 -37 -111 -100 -161
-140 -49 -40 -112 -83 -139 -96 -27 -12 -55 -20 -62 -17 -8 3 -14 11 -14 17 0
7 41 61 90 121 54 66 94 124 100 146 7 24 7 46 0 63 -5 14 -20 28 -35 32 -14
3 -37 3 -52 -1 -16 -3 -55 -24 -89 -46 -33 -21 -73 -52 -89 -69 -16 -16 -33
-30 -37 -30 -5 0 -2 13 7 30 8 16 15 42 15 58 0 16 -8 36 -18 45 -10 10 -26
17 -36 17 -42 0 -98 -38 -200 -138 -61 -60 -136 -130 -165 -156 -30 -26 -72
-56 -93 -67 -20 -10 -46 -19 -58 -19 -11 0 -20 6 -20 13 0 7 13 33 28 58 16
24 75 100 130 169 56 69 102 129 102 133 0 5 -19 6 -42 2 -25 -4 -55 -18 -70
-33 -21 -19 -28 -22 -28 -10 0 8 -8 22 -18 31 -10 10 -35 17 -55 17 -20 0 -59
-9 -87 -19 -27 -10 -78 -39 -113 -64 -65 -46 -137 -130 -156 -180 -6 -16 -11
-48 -11 -73 0 -31 6 -50 21 -65 17 -17 29 -20 61 -16 35 5 78 29 163 92 20 14
21 13 17 -21 -3 -24 1 -41 13 -54 10 -11 30 -20 45 -20 14 0 50 12 79 26 35
18 107 78 212 179 87 84 175 160 195 170 24 11 39 14 46 7 6 -6 6 -18 -3 -33
-6 -13 -31 -49 -55 -79 -23 -30 -80 -100 -127 -155 l-85 -100 44 -3 44 -3 122
127 c68 70 149 147 180 171 32 24 79 53 104 64 30 14 50 17 56 11 6 -6 6 -17
-1 -30 -6 -11 -43 -58 -82 -104 -39 -46 -79 -100 -90 -120 -10 -21 -19 -49
-19 -63 0 -14 10 -35 21 -46 17 -17 29 -20 61 -16 21 3 64 20 94 39 31 18 81
56 112 83 33 29 52 42 47 30 -4 -11 -10 -39 -13 -62 -3 -35 0 -46 22 -67 15
-16 36 -26 54 -26 15 0 50 11 78 25 27 14 64 38 82 55 l32 31 0 -39 c0 -26 7
-45 20 -57 14 -13 29 -16 56 -12 20 4 61 21 91 39 30 18 92 66 138 105 84 73
85 73 64 32 -12 -22 -24 -60 -27 -84 -4 -37 -1 -47 21 -69 19 -19 37 -26 64
-26 21 0 62 11 91 25 29 13 73 39 99 56 25 18 79 64 120 102 40 38 70 73 67
78 -3 5 -37 -19 -77 -54 -40 -34 -96 -79 -125 -101 -29 -21 -75 -47 -103 -57
-28 -11 -59 -17 -69 -14 -10 3 -21 13 -24 21 -3 8 1 31 9 51 17 40 108 174
168 246 24 29 85 78 156 124 64 41 154 106 201 143 47 37 113 97 147 132 33
35 75 86 92 113 17 27 31 61 31 76 0 15 -7 35 -16 43 -8 9 -25 16 -37 16 -12
-1 -39 -9 -61 -20z m84 -35 c0 -34 -45 -100 -118 -173 -76 -76 -185 -165 -314
-256 -38 -26 -68 -45 -68 -42 0 8 184 231 269 325 42 46 98 101 124 123 31 24
59 38 78 38 19 0 29 -5 29 -15z m-2302 -586 c2 -16 -11 -46 -38 -86 -22 -33
-72 -90 -110 -127 -38 -36 -88 -75 -111 -86 -22 -12 -50 -20 -62 -18 -17 2
-22 9 -20 32 1 16 19 54 39 85 20 31 69 88 108 126 39 39 87 78 106 88 19 9
46 16 60 15 19 -2 26 -10 28 -29z m1263 15 c11 -14 9 -25 -16 -72 -17 -32 -65
-93 -110 -139 -57 -58 -98 -90 -139 -109 -52 -23 -60 -25 -73 -11 -13 13 -13
20 6 62 11 26 43 75 71 110 28 35 72 81 98 103 26 22 61 46 77 55 17 9 40 16
51 17 12 0 28 -7 35 -16z M7608 918 c-9 -7 -19 -23 -22 -34 -4 -14 -1 -28 10
-38 9 -10 26 -16 37 -14 11 2 29 15 40 29 15 22 17 30 8 48 -7 12 -21 21 -34
21 -13 0 -30 -6 -39 -12z"/>
</g>
</svg>
