<?xml version="1.0" standalone="no"?>
<!DOCTYPE svg PUBLIC "-//W3C//DTD SVG 20010904//EN"
 "http://www.w3.org/TR/2001/REC-SVG-20010904/DTD/svg10.dtd">
<svg version="1.0" xmlns="http://www.w3.org/2000/svg"
 width="980.000000pt" height="190.000000pt" viewBox="0 0 980.000000 190.000000"
 preserveAspectRatio="xMidYMid meet">
<metadata>
Created by potrace 1.16, written by Peter Selinger 2001-2019
</metadata>
<g transform="translate(0.000000,190.000000) scale(0.100000,-0.100000)"
fill="#f1ead8" stroke="none">
<path d="M2654 1629 c-28 -10 -79 -36 -114 -58 l-64 -38 -60 28 c-102 47 -170
61 -325 66 -158 6 -245 -4 -381 -44 -267 -77 -501 -241 -624 -436 -35 -57 -66
-156 -66 -215 0 -73 35 -147 85 -181 102 -69 296 -67 466 4 162 68 315 204
383 338 67 131 59 224 -20 262 -72 34 -223 5 -342 -67 -118 -71 -231 -185
-301 -300 -35 -58 -9 -45 33 16 50 72 188 203 259 245 131 77 267 110 338 81
86 -36 52 -160 -81 -303 -167 -179 -373 -288 -546 -289 -92 0 -146 17 -189 60
-61 62 -62 164 0 288 70 144 260 313 446 398 216 99 470 138 669 102 78 -14
174 -47 203 -69 14 -11 7 -19 -59 -74 -113 -92 -239 -235 -402 -453 -192 -258
-291 -377 -398 -481 -94 -90 -147 -130 -230 -172 -103 -52 -246 -72 -338 -46
-37 10 -96 57 -96 76 0 5 13 8 29 5 34 -5 71 26 71 58 0 24 -34 60 -55 60 -34
0 -74 -30 -85 -64 -9 -27 -8 -41 3 -69 18 -42 68 -81 122 -96 22 -6 80 -11
128 -11 99 0 208 24 303 66 104 46 225 133 324 233 109 109 159 174 340 441
150 221 232 329 324 424 57 59 68 67 82 55 30 -25 57 -94 62 -159 3 -52 -1
-80 -21 -137 -29 -83 -96 -183 -163 -242 -67 -59 -164 -104 -235 -109 -32 -2
-72 0 -88 6 -21 7 -33 8 -37 1 -10 -17 9 -29 69 -41 79 -17 179 1 277 49 99
48 194 142 241 238 32 65 34 76 34 170 0 85 -3 106 -23 143 -13 24 -39 60 -58
82 l-35 38 33 26 c18 13 68 41 111 61 42 21 74 41 71 46 -7 12 -10 11 -70 -12z
M5645 1483 c-127 -18 -285 -87 -367 -162 -30 -27 -66 -72 -82 -100 -33 -61
-44 -142 -26 -195 16 -49 63 -102 113 -127 32 -17 148 -48 180 -49 4 0 -10
-24 -32 -52 -22 -29 -57 -89 -78 -133 -36 -75 -38 -85 -38 -176 0 -87 2 -99
27 -136 38 -58 112 -93 198 -93 127 0 275 56 390 149 111 89 170 178 170 256
0 87 -68 121 -187 91 -96 -23 -167 -69 -268 -170 -81 -82 -150 -176 -128 -176
5 0 29 28 53 62 57 77 175 180 254 218 34 17 86 35 116 42 45 9 61 9 85 -3 67
-32 52 -117 -38 -215 -110 -121 -279 -211 -412 -221 -62 -5 -80 -2 -119 17
-61 29 -79 64 -74 144 3 41 14 82 35 126 32 65 110 177 169 243 28 30 39 35
96 40 87 8 284 58 395 101 114 43 260 116 343 171 89 59 185 160 200 213 25
83 -21 127 -130 124 -83 -2 -216 -44 -348 -111 -202 -101 -383 -229 -560 -396
l-92 -87 -66 12 c-75 12 -148 46 -182 82 -46 50 -50 123 -9 203 32 64 127 148
220 194 136 67 210 83 382 87 151 3 194 13 120 26 -42 7 -259 8 -310 1z m927
-60 c26 -23 22 -58 -12 -108 -78 -113 -328 -263 -582 -348 -105 -36 -301 -81
-321 -74 -12 4 147 151 270 249 102 83 243 177 325 219 140 71 280 98 320 62z
M9183 1275 c-122 -53 -336 -266 -609 -605 -99 -122 -226 -242 -335 -316 -52
-35 -83 -42 -95 -23 -8 14 64 118 176 252 49 59 90 109 90 112 0 3 -20 5 -44
5 -38 0 -48 -5 -75 -35 -24 -28 -31 -32 -31 -17 0 10 -9 27 -20 37 -15 14 -31
17 -69 13 -79 -8 -155 -53 -266 -159 -160 -153 -253 -219 -310 -219 -55 0 -31
45 140 258 l120 150 69 4 c89 4 103 26 20 30 l-58 3 78 93 c43 52 76 96 73 99
-3 2 -26 1 -51 -2 -42 -7 -50 -13 -121 -101 l-76 -93 -56 -3 c-70 -4 -84 -25
-19 -30 l44 -3 -77 -91 c-91 -108 -188 -197 -289 -265 -74 -49 -132 -65 -132
-35 0 20 41 76 161 222 60 73 109 135 109 138 0 3 -20 6 -44 6 -42 0 -45 -2
-118 -88 -114 -133 -320 -292 -380 -292 -17 0 -28 5 -28 13 0 8 37 56 83 108
45 52 92 110 105 130 24 39 28 79 12 110 -24 45 -142 10 -240 -70 -60 -50 -81
-60 -49 -25 15 16 81 99 148 184 107 138 118 155 98 158 -13 2 -32 -1 -43 -5
-11 -4 -66 -62 -121 -128 -144 -172 -341 -358 -477 -449 -42 -28 -86 -35 -86
-12 0 8 16 37 35 66 39 58 193 248 218 269 24 19 12 31 -33 31 -31 0 -44 -6
-69 -35 -24 -28 -31 -32 -31 -17 0 10 -9 27 -20 37 -15 14 -31 17 -69 13 -138
-13 -335 -183 -356 -306 -8 -48 8 -89 39 -103 45 -21 95 -2 206 78 22 17 24
17 17 1 -3 -10 -1 -31 4 -47 21 -59 85 -53 185 18 38 26 105 81 149 122 44 41
67 58 51 39 -16 -19 -113 -136 -215 -258 -102 -123 -188 -228 -190 -234 -2 -5
16 -8 43 -6 l46 3 188 225 c194 233 298 335 414 403 70 41 108 48 108 18 0
-10 -34 -56 -76 -102 -130 -143 -159 -204 -114 -249 23 -23 56 -26 97 -8 46
20 129 75 172 114 23 20 41 34 41 31 0 -2 -7 -18 -15 -33 -21 -41 -19 -87 5
-109 41 -37 148 5 260 103 28 24 50 41 50 39 0 -3 -7 -18 -15 -33 -33 -64 -5
-124 58 -124 45 0 140 49 204 105 l52 46 -5 -48 c-5 -40 -2 -53 16 -75 37 -48
91 -36 195 42 l51 37 -4 -34 c-3 -23 1 -40 13 -53 38 -42 110 -16 231 82 l80
65 -15 -54 c-14 -51 -13 -55 6 -81 11 -15 31 -29 44 -30 35 -6 97 16 159 55
65 42 202 172 194 185 -3 4 -39 -21 -81 -57 -99 -87 -172 -134 -216 -142 -29
-4 -38 -2 -43 12 -10 25 15 70 116 203 88 118 96 125 223 211 73 50 168 119
213 155 103 83 232 219 264 279 20 37 22 51 14 74 -7 21 -17 29 -39 30 -17 2
-45 -4 -62 -12z m66 -63 c-28 -80 -215 -256 -449 -422 l-75 -53 40 49 c189
236 372 428 430 455 49 22 68 11 54 -29z m-2776 -563 c37 -59 -222 -329 -315
-329 -29 0 -30 2 -24 33 10 48 70 133 150 212 99 98 163 126 189 84z m1755 -6
c5 -33 -30 -91 -99 -167 -83 -91 -172 -156 -211 -156 -29 0 -30 2 -25 35 3 18
23 60 45 92 50 73 155 179 201 204 47 24 85 21 89 -8z M4692 1253 c-28 -16
-81 -52 -117 -82 -92 -77 -273 -276 -444 -489 -84 -105 -257 -263 -358 -328
-52 -34 -103 -45 -103 -21 0 6 10 28 21 47 26 43 199 258 228 284 11 10 18 23
15 27 -3 5 -25 9 -49 9 -37 0 -47 -4 -66 -31 l-22 -31 -14 26 c-16 31 -49 41
-110 32 -62 -8 -131 -48 -219 -126 -41 -36 -107 -93 -147 -128 -40 -35 -94
-76 -122 -93 -48 -27 -105 -39 -105 -20 0 11 31 53 113 153 75 92 97 143 79
183 -6 13 -23 27 -38 31 -52 13 -101 -12 -252 -130 l-24 -19 16 31 c21 41 20
85 -2 105 -48 43 -108 9 -274 -154 -139 -137 -234 -209 -274 -209 -48 0 -29
33 121 221 59 73 109 139 112 146 4 9 -6 13 -33 13 -29 0 -46 -7 -71 -32 -23
-22 -33 -27 -33 -17 0 9 -9 24 -20 34 -16 14 -30 17 -75 12 -74 -8 -166 -58
-241 -132 -71 -72 -107 -140 -107 -203 0 -36 5 -49 24 -65 37 -30 90 -17 174
41 l71 49 -4 -34 c-3 -23 2 -40 14 -54 15 -17 27 -20 57 -16 63 9 139 63 288
209 137 135 203 184 226 170 21 -13 -12 -65 -140 -217 l-125 -150 43 -3 44 -3
143 145 c148 150 249 226 300 226 15 0 28 -4 28 -8 0 -12 -48 -76 -113 -150
-88 -101 -108 -161 -66 -203 17 -17 29 -20 61 -16 48 6 131 55 204 120 47 43
53 45 44 22 -18 -47 -12 -94 15 -120 42 -43 96 -32 198 42 l47 35 0 -35 c0
-41 25 -67 64 -67 44 0 134 54 230 137 73 63 85 70 71 44 -9 -18 -19 -54 -22
-81 -5 -43 -3 -51 20 -74 19 -19 36 -26 64 -26 75 0 217 86 326 198 34 34 55
62 49 66 -6 4 -35 -16 -64 -43 -79 -73 -148 -126 -202 -155 -53 -28 -121 -35
-129 -13 -9 23 18 81 71 158 96 138 141 188 204 227 133 81 288 201 384 297
104 102 144 162 144 213 0 59 -48 68 -128 25z m98 -31 c0 -67 -204 -268 -426
-421 -41 -28 -74 -48 -74 -46 0 2 46 60 102 127 219 264 316 358 371 358 19 0
27 -5 27 -18z m-2302 -580 c8 -52 -120 -208 -230 -282 -62 -41 -104 -51 -114
-26 -10 27 59 136 135 215 42 43 94 88 116 100 51 27 89 24 93 -7z m1260 -5
c5 -41 -40 -110 -128 -198 -79 -80 -141 -119 -185 -119 -21 0 -25 5 -25 28 0
40 67 140 146 217 73 73 126 106 164 102 19 -1 26 -8 28 -30z M7600 910 c-11
-11 -20 -25 -20 -31 0 -24 22 -49 44 -49 25 0 66 38 66 61 0 40 -57 52 -90 19z"/>
</g>
</svg>
