<?xml version="1.0" standalone="no"?>
<!DOCTYPE svg PUBLIC "-//W3C//DTD SVG 20010904//EN"
 "http://www.w3.org/TR/2001/REC-SVG-20010904/DTD/svg10.dtd">
<svg version="1.0" xmlns="http://www.w3.org/2000/svg"
 width="980.000000pt" height="190.000000pt" viewBox="0 0 980.000000 190.000000"
 preserveAspectRatio="xMidYMid meet">
<metadata>
Created by potrace 1.16, written by Peter Selinger 2001-2019
</metadata>
<g transform="translate(0.000000,190.000000) scale(0.100000,-0.100000)"
fill="#f1ead8" stroke="none">
<path d="M2649 1626 c-58 -23 -122 -59 -151 -83 -14 -13 -23 -11 -66 11 -28
14 -86 36 -129 48 -69 20 -99 23 -263 22 -167 0 -195 -3 -283 -27 -183 -49
-365 -140 -487 -244 -114 -98 -185 -192 -225 -298 -56 -149 -13 -279 110 -331
54 -22 177 -29 261 -15 38 7 102 25 142 41 188 76 352 228 418 388 13 32 24
78 24 105 0 40 -5 53 -34 84 -30 33 -39 37 -94 41 -114 8 -265 -55 -400 -168
-61 -51 -138 -142 -181 -212 -35 -58 -9 -45 34 17 20 30 78 93 126 140 73 68
109 94 194 136 89 45 114 53 177 57 56 3 82 0 105 -12 20 -10 34 -26 38 -45
14 -66 -29 -153 -134 -264 -44 -46 -114 -108 -156 -136 -87 -61 -196 -113
-275 -132 -72 -17 -186 -15 -231 5 -51 22 -97 71 -105 112 -12 67 1 140 41
221 31 63 58 98 139 179 61 61 132 120 179 149 211 130 462 195 697 182 58 -4
134 -15 170 -25 62 -18 156 -60 148 -66 -1 -2 -35 -30 -73 -62 -115 -96 -244
-241 -401 -451 -189 -254 -292 -379 -390 -475 -90 -89 -154 -137 -236 -179
-79 -40 -158 -59 -245 -59 -79 0 -132 16 -170 52 -32 30 -29 45 6 40 20 -3 35
2 50 17 12 12 21 30 21 41 0 24 -34 60 -55 60 -34 0 -74 -30 -85 -64 -9 -27
-8 -41 3 -69 18 -42 68 -81 122 -96 22 -6 80 -11 128 -11 214 0 433 103 623
294 50 50 118 127 151 171 33 44 124 174 203 290 154 226 231 326 324 420 l59
59 27 -33 c32 -38 50 -99 50 -168 -1 -105 -83 -261 -187 -353 -27 -23 -75 -56
-108 -73 -51 -26 -71 -31 -135 -32 -41 0 -84 2 -95 5 -13 3 -20 0 -20 -10 0
-10 19 -20 54 -29 44 -12 68 -13 135 -3 114 16 212 66 297 151 44 44 77 89
100 136 32 65 34 77 34 170 0 85 -3 106 -23 143 -13 24 -39 60 -58 82 l-35 38
33 25 c35 27 115 69 161 86 16 6 25 15 22 21 -3 5 -9 10 -13 10 -4 0 -32 -11
-63 -24z M5627 1480 c-71 -12 -175 -48 -241 -83 -78 -42 -155 -113 -190 -176
-33 -61 -44 -142 -26 -195 16 -49 63 -102 113 -127 32 -17 148 -48 180 -49 4
0 -8 -21 -28 -47 -20 -26 -55 -85 -78 -131 -36 -74 -41 -93 -45 -170 -3 -77
-1 -92 20 -132 16 -29 41 -55 71 -74 38 -23 62 -30 120 -34 48 -3 94 1 137 12
173 43 353 175 421 308 11 21 19 58 19 83 0 35 -6 52 -23 69 -13 13 -42 27
-65 31 -54 9 -151 -16 -222 -58 -67 -39 -227 -196 -258 -254 -13 -24 -19 -43
-14 -43 5 0 26 25 47 55 45 67 128 144 210 197 72 47 183 83 227 74 42 -8 68
-33 68 -66 0 -49 -49 -127 -125 -198 -118 -110 -277 -182 -400 -182 -67 1
-129 30 -150 71 -33 63 -14 165 50 275 27 46 150 203 167 215 6 4 40 9 76 13
80 7 263 54 382 98 115 42 308 140 379 194 82 62 158 148 172 194 9 30 9 46 0
68 -7 16 -24 34 -37 41 -39 17 -140 13 -227 -10 -43 -12 -140 -52 -215 -90
-212 -105 -358 -208 -555 -390 l-98 -91 -47 6 c-78 11 -137 35 -180 72 -46 39
-68 95 -57 147 12 56 58 128 114 178 90 80 231 143 379 169 35 6 116 10 180 9
117 -1 153 9 77 23 -53 9 -267 8 -328 -2z m947 -56 c43 -43 -5 -125 -126 -216
-139 -105 -288 -182 -472 -243 -91 -31 -279 -75 -318 -75 -7 0 1 14 18 31 42
45 228 207 299 261 81 61 218 149 285 183 130 66 279 94 314 59z M9163 1265
c-28 -14 -84 -54 -124 -89 -110 -93 -239 -233 -415 -446 -155 -189 -258 -289
-381 -373 -56 -37 -103 -48 -103 -24 0 20 84 135 184 255 47 56 86 105 86 107
0 3 -20 5 -44 5 -39 0 -48 -4 -75 -37 -26 -32 -31 -34 -31 -17 0 12 -8 28 -18
37 -23 21 -76 22 -131 3 -58 -21 -147 -84 -211 -151 -68 -71 -189 -169 -241
-195 -49 -25 -89 -26 -89 -2 0 27 34 76 164 239 l121 152 69 3 c43 2 71 8 73
15 3 8 -14 13 -53 15 l-58 3 78 93 c43 52 76 95 74 96 -1 1 -24 1 -50 -2 -46
-4 -49 -6 -123 -97 l-76 -94 -56 -3 c-70 -4 -84 -25 -19 -30 l44 -3 -81 -96
c-45 -53 -111 -122 -147 -153 -97 -85 -207 -156 -241 -156 -18 0 -29 5 -29 14
0 20 41 78 161 223 60 72 109 134 109 137 0 3 -19 6 -41 6 -38 0 -46 -5 -87
-52 -81 -93 -187 -191 -271 -252 -78 -56 -147 -90 -163 -79 -5 2 -8 10 -8 17
0 7 40 59 89 115 49 56 96 117 105 136 19 38 20 68 6 96 -8 14 -21 19 -51 19
-49 0 -139 -45 -203 -102 -24 -21 -47 -38 -50 -38 -3 0 39 55 92 123 54 67
119 150 146 185 43 57 45 62 24 61 -13 -1 -32 -4 -44 -7 -11 -4 -66 -61 -121
-127 -118 -141 -274 -294 -393 -386 -96 -75 -120 -89 -149 -89 -46 0 -19 47
129 230 43 52 87 103 98 114 12 10 19 23 16 27 -3 5 -22 9 -44 9 -31 0 -44 -6
-69 -35 -24 -28 -31 -32 -31 -17 0 29 -33 52 -73 52 -55 0 -135 -34 -209 -90
-73 -56 -133 -130 -155 -192 -25 -73 5 -138 65 -138 34 0 86 24 139 65 l48 37
3 -34 c2 -18 11 -41 19 -51 33 -36 93 -16 204 68 41 32 103 85 138 119 l64 61
-75 -90 c-288 -346 -368 -444 -368 -450 0 -3 20 -5 45 -3 l45 3 188 225 c194
233 298 335 414 403 70 41 108 48 108 18 0 -10 -38 -61 -85 -112 -86 -94 -125
-157 -125 -197 0 -29 34 -62 63 -62 36 0 137 54 205 109 34 28 62 49 62 47 0
-2 -7 -17 -15 -32 -20 -39 -19 -87 3 -107 10 -10 32 -17 48 -17 44 0 122 43
203 110 l71 60 -20 -37 c-11 -21 -20 -50 -20 -65 0 -38 32 -68 73 -68 44 0
118 38 194 99 l62 50 -6 -47 c-4 -38 -1 -52 17 -74 13 -17 31 -28 46 -28 36 0
91 26 149 69 l51 38 -4 -34 c-3 -23 1 -40 13 -53 38 -42 110 -16 235 85 47 39
80 60 76 49 -16 -37 -24 -87 -19 -103 25 -70 96 -67 213 7 64 40 202 171 194
183 -3 5 -39 -21 -80 -57 -141 -123 -243 -173 -261 -128 -3 9 1 31 10 48 8 18
57 88 107 155 85 113 99 127 198 193 158 106 257 183 355 277 95 91 167 189
167 226 0 30 -25 55 -54 55 -12 0 -45 -11 -73 -25z m86 -18 c8 -10 6 -23 -7
-49 -10 -19 -36 -56 -56 -82 -61 -73 -272 -250 -426 -356 l-35 -24 40 49 c174
218 367 425 425 455 19 11 38 19 41 20 4 0 12 -6 18 -13z m-2785 -583 c44 -17
-7 -110 -124 -226 -43 -42 -96 -86 -119 -97 -48 -25 -91 -28 -91 -6 0 52 96
186 193 268 69 59 105 75 141 61z m1764 -21 c5 -35 -32 -95 -113 -181 -83 -89
-158 -142 -198 -142 -23 0 -27 4 -27 29 0 17 16 53 39 87 49 74 162 188 210
214 47 25 85 22 89 -7z M4694 1254 c-122 -65 -294 -241 -590 -606 -64 -78
-217 -216 -318 -287 -59 -41 -116 -55 -116 -28 0 22 52 97 158 226 56 68 102
128 102 133 0 4 -18 8 -39 8 -32 0 -46 -6 -70 -32 -17 -18 -31 -27 -31 -20 0
6 -9 21 -20 32 -26 26 -83 26 -148 2 -64 -25 -103 -52 -203 -144 -110 -100
-205 -175 -251 -199 -37 -19 -88 -26 -88 -11 0 14 39 67 99 137 64 74 101 137
101 173 0 31 -35 62 -69 62 -35 0 -112 -40 -169 -88 -24 -21 -53 -44 -64 -52
-20 -14 -20 -14 -4 17 21 42 20 86 -2 106 -10 10 -30 17 -43 17 -14 0 -45 -13
-70 -29 -24 -16 -99 -83 -167 -149 -68 -67 -150 -139 -184 -162 -60 -40 -108
-52 -108 -27 0 20 48 89 159 227 56 69 101 128 101 133 0 4 -17 7 -37 7 -28 0
-45 -8 -70 -32 -23 -22 -33 -27 -33 -17 0 9 -9 24 -20 34 -15 14 -31 17 -70
13 -73 -7 -174 -62 -246 -133 -33 -34 -70 -82 -83 -108 -13 -27 -23 -67 -24
-94 0 -37 4 -50 24 -66 37 -30 90 -17 174 41 l71 49 -4 -34 c-5 -42 20 -73 58
-73 57 0 131 52 287 202 147 141 213 191 240 181 27 -10 -17 -74 -212 -305
l-57 -68 46 0 c46 0 46 1 188 144 148 150 249 226 300 226 15 0 28 -4 28 -8 0
-12 -48 -76 -113 -150 -61 -70 -87 -116 -87 -156 0 -14 10 -36 21 -47 17 -17
29 -20 61 -16 48 6 131 55 204 120 47 43 53 45 44 22 -5 -14 -10 -42 -10 -61
0 -44 37 -84 78 -84 36 0 117 40 160 79 l32 30 0 -38 c0 -44 24 -71 64 -71 43
0 120 45 221 130 52 44 95 78 95 76 0 -1 -7 -18 -16 -36 -9 -18 -19 -52 -22
-76 -4 -36 -1 -46 21 -68 19 -19 37 -26 64 -26 75 0 219 88 331 203 30 30 50
57 44 61 -5 3 -31 -15 -58 -40 -73 -68 -157 -131 -212 -160 -54 -28 -109 -34
-122 -14 -13 21 7 71 65 155 95 139 143 194 206 233 142 87 281 194 380 292
106 104 149 166 149 214 0 31 -24 56 -54 56 -13 0 -45 -12 -72 -26z m96 -32
c0 -51 -127 -192 -280 -312 -92 -73 -220 -163 -220 -156 0 8 191 237 279 335
42 46 96 99 121 117 50 38 100 45 100 16z m-2302 -583 c4 -36 -63 -132 -148
-213 -97 -92 -181 -131 -196 -92 -3 8 9 43 28 78 37 71 173 214 228 241 19 9
46 16 60 15 19 -2 26 -10 28 -29z m1261 12 c15 -28 -26 -103 -102 -186 -69
-75 -119 -115 -178 -139 -30 -12 -39 -13 -54 -2 -17 12 -16 15 4 61 12 26 46
78 77 116 110 135 225 203 253 150z M7600 910 c-11 -11 -20 -25 -20 -31 0 -24
22 -49 44 -49 25 0 66 38 66 61 0 40 -57 52 -90 19z"/>
</g>
</svg>
