<?xml version="1.0" standalone="no"?>
<!DOCTYPE svg PUBLIC "-//W3C//DTD SVG 20010904//EN"
 "http://www.w3.org/TR/2001/REC-SVG-20010904/DTD/svg10.dtd">
<svg version="1.0" xmlns="http://www.w3.org/2000/svg"
 width="980.000000pt" height="190.000000pt" viewBox="0 0 980.000000 190.000000"
 preserveAspectRatio="xMidYMid meet">
<metadata>
Created by potrace 1.16, written by Peter Selinger 2001-2019
</metadata>
<g transform="translate(0.000000,190.000000) scale(0.100000,-0.100000)"
fill="#f1ead8" stroke="none">
<path d="M2649 1626 c-58 -23 -122 -59 -151 -83 -14 -13 -23 -11 -66 11 -28
14 -86 36 -129 48 -69 20 -99 23 -263 22 -167 0 -195 -3 -283 -27 -109 -29
-242 -83 -332 -136 -79 -46 -163 -110 -226 -174 -28 -29 -70 -79 -92 -111 -22
-33 -51 -89 -63 -125 -14 -39 -24 -89 -24 -121 0 -32 8 -71 19 -95 10 -22 31
-52 47 -67 16 -15 47 -34 69 -44 22 -9 74 -19 116 -21 41 -3 107 0 145 6 38 7
102 25 142 41 39 16 98 46 130 66 87 56 168 130 219 201 25 36 56 90 69 121
13 32 24 78 24 105 0 40 -5 53 -34 84 -30 33 -39 37 -94 41 -44 3 -81 -2 -134
-18 -40 -12 -103 -39 -139 -60 -37 -22 -94 -62 -127 -90 -61 -51 -138 -142
-181 -212 -12 -21 -19 -38 -13 -38 5 0 26 24 46 54 21 30 75 90 120 134 127
122 260 192 382 200 52 3 78 0 101 -12 20 -10 34 -26 38 -45 14 -66 -29 -153
-134 -264 -44 -46 -114 -108 -156 -136 -41 -29 -108 -67 -148 -86 -39 -18 -97
-38 -127 -46 -30 -7 -86 -12 -125 -12 -39 1 -86 8 -106 17 -20 8 -51 29 -68
46 -17 17 -33 47 -37 66 -10 52 1 143 22 189 35 75 92 150 175 230 46 44 119
102 162 129 43 27 117 65 165 86 48 20 123 47 167 58 44 12 121 26 170 33 50
6 134 9 191 6 56 -3 130 -13 164 -22 35 -9 86 -28 114 -42 49 -25 49 -25 28
-42 -139 -106 -286 -267 -483 -531 -89 -118 -191 -251 -228 -295 -84 -100
-201 -214 -266 -261 -69 -50 -155 -92 -222 -109 -75 -20 -193 -19 -241 0 -41
18 -82 52 -82 70 0 7 11 10 29 7 20 -3 35 2 50 17 12 12 21 30 21 41 0 24 -34
60 -55 60 -31 0 -73 -30 -83 -59 -16 -44 2 -95 45 -130 19 -16 55 -34 79 -40
23 -6 82 -11 129 -11 99 0 208 25 305 69 36 16 101 53 145 81 44 29 121 94
171 144 50 50 123 134 161 186 39 53 130 183 203 290 73 107 160 228 193 270
34 41 88 102 121 135 l59 59 27 -33 c16 -18 33 -53 39 -76 6 -24 11 -65 11
-92 0 -26 -11 -78 -24 -115 -13 -37 -44 -96 -70 -132 -25 -35 -67 -83 -93
-106 -27 -23 -75 -56 -108 -73 -52 -27 -71 -31 -140 -32 -44 0 -87 2 -95 5 -9
3 -15 -1 -15 -10 0 -10 19 -20 54 -29 44 -12 68 -13 133 -3 53 8 106 24 156
48 55 26 96 56 143 103 44 44 77 89 100 136 32 65 34 77 34 170 0 85 -3 106
-23 143 -13 24 -39 60 -58 82 l-35 38 33 25 c38 29 150 87 167 87 6 0 11 7 11
15 0 8 -3 15 -7 15 -5 0 -33 -11 -64 -24z M5610 1475 c-36 -7 -87 -21 -115
-30 -79 -27 -164 -76 -220 -126 -28 -26 -63 -70 -79 -98 -16 -29 -30 -74 -33
-105 -3 -31 0 -69 7 -90 7 -21 26 -53 43 -72 16 -20 48 -44 70 -55 21 -11 69
-27 106 -35 36 -7 69 -14 73 -14 4 0 -13 -29 -37 -64 -25 -35 -59 -95 -77
-132 -27 -57 -33 -83 -35 -154 -3 -74 -1 -91 20 -130 15 -30 40 -55 70 -74 38
-23 62 -30 120 -34 89 -5 173 14 275 64 39 19 100 58 135 85 67 54 118 113
148 171 11 21 19 58 19 83 0 35 -6 52 -23 69 -13 13 -42 27 -65 31 -59 10
-154 -18 -238 -70 -79 -49 -206 -177 -243 -244 -13 -24 -19 -42 -14 -40 6 2
32 33 59 69 27 35 81 91 119 123 39 32 103 74 143 94 41 19 95 37 125 40 43 4
57 1 80 -17 17 -14 27 -31 27 -49 0 -50 -49 -128 -125 -199 -82 -77 -197 -142
-291 -167 -32 -8 -81 -15 -109 -15 -27 0 -69 9 -92 19 -26 12 -48 32 -58 52
-33 63 -14 165 50 275 27 46 150 203 167 215 6 4 40 9 76 13 84 8 268 56 392
102 124 47 296 135 370 190 32 25 81 69 109 100 28 30 56 73 62 94 9 30 9 46
0 68 -7 16 -24 34 -37 41 -39 17 -140 13 -227 -10 -43 -12 -140 -52 -215 -90
-146 -72 -273 -153 -387 -244 -38 -31 -114 -97 -168 -146 l-98 -91 -47 6 c-78
11 -137 35 -180 72 -28 23 -45 49 -52 75 -6 23 -8 55 -5 72 12 56 58 128 114
178 30 26 84 63 120 82 77 40 171 72 259 87 35 6 116 10 180 9 117 -1 153 9
77 23 -65 11 -275 7 -345 -7z m964 -51 c9 -8 16 -28 16 -43 0 -17 -14 -47 -34
-73 -37 -49 -145 -134 -243 -192 -98 -58 -224 -114 -351 -155 -111 -36 -299
-78 -308 -68 -6 6 170 169 261 242 105 84 280 199 367 240 43 20 99 43 125 50
26 7 71 14 100 14 35 1 57 -4 67 -15z M9183 1275 c-57 -24 -121 -73 -220 -168
-93 -89 -239 -254 -414 -467 -85 -104 -205 -215 -308 -284 -54 -37 -101 -47
-101 -23 0 20 84 135 184 255 47 56 86 105 86 107 0 3 -20 5 -44 5 -39 0 -48
-4 -75 -37 -26 -32 -31 -34 -31 -17 0 12 -8 28 -18 37 -10 10 -35 17 -54 17
-20 0 -54 -7 -77 -14 -22 -8 -67 -33 -98 -55 -32 -21 -83 -65 -113 -96 -68
-71 -189 -169 -241 -195 -47 -24 -89 -26 -89 -5 0 9 7 29 15 46 9 16 72 100
141 187 l126 157 71 5 c42 3 72 10 74 17 3 8 -14 13 -53 15 l-58 3 77 91 c41
51 74 94 72 96 -2 2 -24 2 -49 0 -44 -4 -48 -7 -121 -97 l-76 -94 -56 -3 c-34
-2 -58 -8 -61 -15 -2 -9 10 -13 43 -13 l46 0 -59 -72 c-33 -40 -77 -91 -99
-114 -56 -57 -158 -141 -227 -186 -60 -38 -116 -50 -116 -24 0 7 12 31 26 52
15 21 75 98 135 171 60 72 109 134 109 137 0 3 -19 6 -41 6 -38 0 -46 -5 -87
-52 -26 -29 -76 -82 -112 -118 -69 -68 -194 -166 -245 -193 -16 -8 -41 -17
-55 -18 -16 -3 -26 1 -28 12 -1 8 38 61 87 118 49 56 96 117 105 136 9 18 16
43 16 55 0 12 -5 30 -10 41 -8 14 -21 19 -51 19 -27 0 -62 -11 -101 -32 -32
-17 -79 -49 -102 -70 -24 -21 -47 -38 -50 -38 -3 0 30 44 72 98 43 53 109 137
147 186 l69 89 -43 -7 c-30 -5 -50 -15 -65 -34 -66 -84 -216 -249 -297 -327
-91 -88 -241 -210 -286 -234 -32 -16 -63 -14 -63 5 0 9 20 45 45 80 53 73 205
257 217 262 4 2 6 8 2 13 -3 5 -22 9 -44 9 -31 0 -44 -6 -69 -35 -24 -28 -31
-32 -31 -17 0 10 -8 26 -18 35 -10 10 -35 17 -55 17 -20 0 -60 -9 -89 -20 -29
-11 -83 -43 -120 -70 -37 -28 -83 -73 -104 -101 -20 -28 -43 -69 -51 -91 -8
-23 -11 -54 -7 -74 3 -19 16 -41 27 -49 12 -8 32 -15 45 -15 34 0 86 24 139
65 l48 37 3 -34 c2 -18 11 -41 19 -51 9 -9 27 -17 40 -17 13 0 41 8 62 19 50
23 147 98 236 181 l69 65 -75 -90 c-213 -254 -369 -444 -369 -449 0 -3 20 -6
43 -6 l44 0 108 133 c199 241 278 329 357 396 43 36 106 83 140 104 69 41 108
48 108 18 0 -10 -37 -60 -82 -110 -46 -51 -93 -110 -105 -133 -13 -23 -23 -52
-23 -65 0 -12 9 -32 20 -43 11 -11 30 -20 43 -20 12 0 46 11 76 25 54 26 110
64 170 119 l33 31 -21 -40 c-12 -22 -21 -54 -21 -71 0 -17 8 -38 18 -47 10
-10 32 -17 49 -17 48 0 146 58 242 144 34 30 34 30 18 4 -9 -15 -19 -44 -23
-66 -5 -32 -2 -44 15 -61 13 -13 34 -21 54 -21 18 0 55 11 83 25 27 13 77 47
111 74 l62 50 -6 -47 c-4 -38 -1 -52 17 -74 13 -17 31 -28 46 -28 36 0 91 26
149 69 l50 38 -3 -37 c-3 -30 1 -41 19 -54 13 -9 33 -16 44 -16 37 1 100 36
183 104 45 37 82 64 82 61 0 -4 -5 -15 -10 -25 -6 -10 -11 -37 -12 -59 -1 -27
5 -48 17 -61 32 -35 99 -23 192 36 63 40 205 173 197 185 -3 5 -39 -21 -80
-57 -42 -36 -103 -83 -136 -105 -65 -41 -114 -51 -125 -23 -3 9 1 31 10 48 8
18 57 88 107 155 85 113 99 127 198 193 158 106 257 183 355 277 95 91 167
189 167 226 0 13 -7 31 -16 39 -8 9 -25 16 -37 16 -12 -1 -37 -7 -54 -15z m66
-28 c8 -10 6 -23 -7 -49 -10 -19 -36 -56 -56 -82 -61 -73 -272 -250 -426 -356
l-35 -24 40 49 c174 218 367 425 425 455 19 11 38 19 41 20 4 0 12 -6 18 -13z
m-2785 -583 c9 -3 16 -16 16 -28 0 -12 -14 -44 -31 -72 -41 -64 -176 -197
-228 -223 -22 -12 -52 -21 -66 -21 -19 0 -25 5 -25 20 0 12 7 35 16 53 26 51
118 160 177 210 50 44 87 65 114 66 6 1 18 -2 27 -5z m1764 -21 c2 -12 -6 -39
-17 -61 -27 -53 -160 -193 -220 -231 -26 -17 -60 -31 -74 -31 -23 0 -27 4 -27
29 0 17 16 53 39 87 49 74 162 188 210 214 20 11 47 19 61 17 17 -1 26 -9 28
-24z M4721 1269 c-45 -18 -148 -98 -227 -176 -91 -90 -243 -261 -363 -411 -84
-104 -231 -241 -344 -319 -36 -26 -72 -43 -89 -43 -16 0 -28 5 -28 13 0 22 52
97 158 226 56 68 102 128 102 133 0 4 -18 8 -40 8 -32 0 -45 -6 -67 -30 l-27
-31 -13 25 c-8 14 -25 29 -39 32 -39 10 -100 -2 -159 -31 -29 -14 -91 -60
-137 -101 -118 -108 -221 -191 -270 -219 -41 -24 -98 -34 -98 -17 0 14 39 67
99 137 64 74 101 137 101 173 0 12 -9 31 -20 42 -11 11 -33 20 -49 20 -35 0
-112 -40 -169 -88 -24 -21 -53 -44 -64 -52 -20 -14 -20 -14 -4 17 9 18 16 45
16 61 0 16 -8 36 -18 45 -10 10 -29 17 -43 17 -13 0 -41 -10 -61 -23 -20 -12
-86 -69 -145 -127 -128 -125 -206 -191 -250 -214 -18 -9 -41 -16 -53 -16 -11
0 -20 6 -20 13 0 21 51 93 159 227 55 69 101 128 101 133 0 4 -17 7 -37 7 -28
0 -45 -8 -70 -32 -23 -22 -33 -27 -33 -17 0 9 -9 24 -20 34 -15 14 -31 17 -69
13 -27 -3 -75 -17 -105 -32 -31 -15 -78 -45 -104 -66 -27 -21 -66 -61 -87 -90
-21 -29 -44 -75 -52 -102 -10 -42 -10 -56 1 -83 8 -18 24 -36 36 -40 12 -4 37
-4 55 -1 18 4 64 28 102 55 l69 48 -4 -34 c-3 -23 1 -40 13 -53 10 -11 30 -20
45 -20 57 0 131 52 291 205 149 143 216 194 239 180 6 -4 5 -16 -1 -33 -9 -23
-119 -163 -234 -299 l-37 -43 46 0 c46 0 46 0 188 144 81 82 171 162 207 185
36 23 76 41 93 41 15 0 28 -4 28 -8 0 -12 -48 -76 -113 -150 -31 -35 -63 -79
-71 -97 -9 -18 -16 -45 -16 -59 0 -14 10 -36 21 -47 17 -17 29 -20 61 -16 21
3 64 20 94 39 31 18 80 55 110 81 47 43 53 45 44 22 -5 -14 -10 -42 -10 -61 0
-24 8 -43 25 -59 14 -15 36 -25 53 -25 36 0 117 40 160 79 l32 30 0 -38 c0
-44 24 -71 61 -71 13 0 44 9 68 20 47 22 92 55 189 138 34 29 62 52 62 49 0
-2 -7 -19 -16 -37 -9 -18 -19 -52 -22 -76 -4 -36 -1 -46 21 -68 19 -19 37 -26
64 -26 43 0 120 33 190 81 64 44 194 169 187 180 -3 5 -42 -23 -86 -61 -45
-39 -106 -86 -136 -106 -58 -39 -127 -64 -152 -56 -8 3 -18 9 -21 15 -12 18
11 72 66 152 87 128 142 193 188 221 83 52 193 128 257 178 103 80 210 186
251 250 22 33 39 72 39 87 0 15 -7 35 -16 43 -17 18 -47 20 -83 5z m69 -47 c0
-31 -57 -110 -132 -183 -40 -39 -107 -97 -148 -129 -107 -85 -225 -166 -215
-149 16 26 188 234 269 323 45 49 101 104 126 122 50 38 100 45 100 16z
m-2302 -583 c4 -36 -63 -132 -148 -213 -72 -67 -134 -106 -170 -106 -11 0 -23
7 -26 14 -3 8 9 43 28 78 20 38 65 95 113 143 44 44 96 88 115 98 19 9 46 16
60 15 19 -2 26 -10 28 -29z m1261 12 c8 -14 4 -30 -14 -67 -28 -57 -135 -177
-191 -216 -22 -15 -55 -34 -75 -42 -30 -12 -39 -13 -54 -2 -17 12 -16 15 4 61
12 26 46 78 77 116 81 100 171 168 221 169 12 0 27 -8 32 -19z M7600 910 c-11
-11 -20 -25 -20 -31 0 -24 22 -49 44 -49 25 0 66 38 66 61 0 22 -21 39 -47 39
-13 0 -32 -9 -43 -20z"/>
</g>
</svg>
