<?xml version="1.0" standalone="no"?>
<!DOCTYPE svg PUBLIC "-//W3C//DTD SVG 20010904//EN"
 "http://www.w3.org/TR/2001/REC-SVG-20010904/DTD/svg10.dtd">
<svg version="1.0" xmlns="http://www.w3.org/2000/svg"
 width="980.000000pt" height="190.000000pt" viewBox="0 0 980.000000 190.000000"
 preserveAspectRatio="xMidYMid meet">
<metadata>
Created by potrace 1.16, written by Peter Selinger 2001-2019
</metadata>
<g transform="translate(0.000000,190.000000) scale(0.100000,-0.100000)"
fill="#f1ead8" stroke="none">
<path d="M2649 1626 c-58 -23 -122 -59 -151 -83 -14 -13 -23 -11 -66 11 -113
57 -190 71 -392 70 -167 0 -195 -3 -283 -27 -410 -110 -738 -405 -737 -665 1
-139 87 -218 251 -229 278 -20 600 179 705 435 35 85 32 143 -10 189 -30 33
-39 37 -94 41 -186 13 -446 -157 -581 -380 -35 -58 -9 -45 34 17 117 171 345
323 497 333 90 5 133 -12 143 -57 14 -66 -29 -153 -134 -264 -170 -178 -376
-282 -556 -280 -202 3 -271 145 -170 350 48 99 200 255 318 328 310 191 731
241 976 116 23 -12 41 -24 39 -25 -1 -2 -35 -30 -73 -62 -115 -96 -244 -241
-401 -451 -313 -420 -453 -565 -626 -654 -152 -77 -337 -80 -415 -7 -32 30
-29 45 6 40 57 -8 92 57 51 98 -24 24 -41 25 -80 5 -64 -33 -58 -125 11 -178
47 -35 99 -47 202 -47 214 0 433 103 623 294 107 108 163 181 354 461 154 226
231 326 324 420 l59 59 27 -33 c127 -151 -5 -470 -245 -594 -51 -26 -71 -31
-135 -32 -41 0 -84 2 -95 5 -13 3 -20 0 -20 -10 0 -29 97 -45 189 -32 167 24
324 138 397 287 32 65 34 77 34 170 0 112 -14 151 -81 225 l-35 38 33 25 c35
27 115 69 161 86 16 6 25 15 22 21 -8 14 -12 13 -76 -14z M5627 1480 c-130
-22 -269 -86 -352 -161 -154 -141 -150 -340 8 -420 32 -17 148 -48 180 -49 4
0 -8 -21 -28 -47 -20 -26 -55 -85 -78 -131 -36 -74 -41 -93 -45 -170 -3 -77
-1 -92 20 -132 86 -160 373 -141 601 41 187 150 227 329 79 354 -54 9 -151
-16 -222 -58 -67 -39 -227 -196 -258 -254 -33 -61 -12 -53 33 12 129 188 401
326 487 248 91 -82 -168 -348 -398 -408 -254 -66 -351 88 -209 331 27 46 150
203 167 215 6 4 40 9 76 13 213 20 594 167 761 292 82 62 158 148 172 194 48
159 -171 163 -479 9 -212 -105 -358 -208 -555 -390 l-98 -91 -47 6 c-162 23
-259 113 -237 219 27 128 173 254 365 315 101 33 181 43 308 41 117 -1 153 9
77 23 -53 9 -267 8 -328 -2z m947 -56 c91 -91 -227 -335 -598 -459 -91 -31
-279 -75 -318 -75 -17 0 31 48 152 154 165 144 321 256 450 321 130 66 279 94
314 59z M9163 1265 c-111 -56 -292 -235 -539 -535 -155 -189 -258 -289 -381
-373 -56 -37 -103 -48 -103 -24 0 20 84 135 184 255 47 56 86 105 86 107 0 3
-20 5 -44 5 -39 0 -48 -4 -75 -37 -26 -32 -31 -34 -31 -17 0 50 -68 68 -149
40 -58 -21 -147 -84 -211 -151 -114 -118 -251 -215 -305 -215 -55 0 -31 44
139 257 l121 152 69 3 c89 4 103 26 20 30 l-58 3 78 93 c43 52 76 95 74 96 -1
1 -24 1 -50 -2 -46 -4 -49 -6 -123 -97 l-76 -94 -56 -3 c-70 -4 -84 -25 -19
-30 l44 -3 -81 -96 c-132 -156 -325 -309 -388 -309 -55 0 -37 32 132 237 60
72 109 134 109 137 0 3 -19 6 -41 6 -38 0 -46 -5 -87 -52 -124 -143 -309 -295
-390 -323 -79 -27 -70 1 37 124 116 132 138 180 111 232 -26 47 -155 5 -254
-83 -24 -21 -47 -38 -50 -38 -3 0 39 55 92 123 188 235 196 247 170 246 -48
-2 -67 -17 -165 -134 -152 -181 -400 -411 -500 -464 -32 -16 -63 -14 -63 5 0
26 189 275 248 328 28 25 19 36 -28 36 -31 0 -44 -6 -69 -35 -24 -28 -31 -32
-31 -17 0 29 -33 52 -73 52 -160 0 -396 -226 -371 -356 16 -84 100 -84 211 1
l48 37 3 -34 c7 -64 46 -82 114 -54 45 19 166 112 247 190 l64 61 -75 -90
c-288 -346 -368 -444 -368 -450 0 -3 20 -5 45 -3 l45 3 188 225 c194 233 298
335 414 403 70 41 108 48 108 18 0 -10 -38 -61 -85 -112 -86 -94 -125 -157
-125 -197 0 -29 34 -62 63 -62 36 0 137 54 205 109 34 28 62 49 62 47 0 -2 -7
-17 -15 -32 -20 -39 -19 -87 3 -107 43 -39 133 -5 251 93 l71 60 -20 -37 c-25
-48 -25 -88 0 -113 42 -42 132 -14 247 79 l62 50 -6 -47 c-4 -38 -1 -52 17
-74 35 -46 98 -32 195 41 l51 38 -4 -34 c-3 -23 1 -40 13 -53 38 -42 110 -16
235 85 47 39 80 60 76 49 -16 -37 -24 -87 -19 -103 25 -70 96 -67 213 7 64 40
202 171 194 183 -3 5 -39 -21 -80 -57 -141 -123 -243 -173 -261 -128 -9 24 17
71 117 203 85 113 99 127 198 193 231 155 407 308 482 421 43 64 49 96 24 121
-22 22 -52 20 -111 -9z m86 -18 c41 -50 -195 -285 -489 -487 l-35 -24 40 49
c220 276 412 471 466 475 4 0 12 -6 18 -13z m-2785 -583 c44 -17 -7 -110 -124
-226 -81 -79 -141 -118 -185 -118 -104 0 173 343 282 349 6 1 18 -2 27 -5z
m1764 -21 c5 -35 -32 -95 -113 -181 -83 -89 -158 -142 -198 -142 -23 0 -27 4
-27 29 0 58 163 255 249 301 47 25 85 22 89 -7z M4694 1254 c-122 -65 -294
-241 -590 -606 -64 -78 -217 -216 -318 -287 -59 -41 -116 -55 -116 -28 0 22
52 97 158 226 56 68 102 128 102 133 0 4 -18 8 -39 8 -32 0 -46 -6 -70 -32
-17 -18 -31 -27 -31 -20 0 26 -40 52 -80 52 -84 0 -160 -42 -291 -162 -110
-100 -205 -175 -251 -199 -37 -19 -88 -26 -88 -11 0 14 39 67 99 137 96 111
121 175 81 215 -39 39 -122 13 -218 -68 -24 -21 -53 -44 -64 -52 -20 -14 -20
-14 -4 17 32 64 11 123 -45 123 -40 0 -105 -49 -237 -178 -130 -128 -229 -202
-268 -202 -48 0 -24 42 135 240 56 69 101 128 101 133 0 4 -17 7 -37 7 -28 0
-45 -8 -70 -32 -23 -22 -33 -27 -33 -17 0 59 -98 63 -208 8 -129 -65 -233
-196 -235 -296 -1 -99 77 -109 198 -25 l71 49 -4 -34 c-5 -42 20 -73 58 -73
57 0 131 52 287 202 147 141 213 191 240 181 27 -10 -17 -74 -212 -305 l-57
-68 46 0 c46 0 46 1 188 144 148 150 249 226 300 226 15 0 28 -4 28 -8 0 -12
-48 -76 -113 -150 -88 -101 -108 -161 -66 -203 42 -42 146 -1 265 104 47 43
53 45 44 22 -28 -72 6 -145 68 -145 36 0 117 40 160 79 l32 30 0 -38 c0 -44
24 -71 64 -71 43 0 120 45 221 130 52 44 95 78 95 76 0 -1 -7 -18 -16 -36 -9
-18 -19 -52 -22 -76 -6 -56 28 -94 85 -94 75 0 219 88 331 203 66 67 54 84
-14 21 -121 -112 -234 -184 -293 -186 -66 -2 -59 46 24 167 95 139 143 194
206 233 214 132 461 346 508 439 52 105 0 153 -105 97z m96 -32 c0 -51 -127
-192 -280 -312 -92 -73 -220 -163 -220 -156 0 23 340 408 400 452 50 38 100
45 100 16z m-2302 -583 c9 -77 -232 -319 -318 -319 -34 0 -34 25 2 92 37 71
173 214 228 241 49 24 84 19 88 -14z m1261 12 c15 -28 -26 -103 -102 -186 -99
-108 -196 -168 -232 -141 -17 12 -16 15 4 61 12 26 46 78 77 116 110 135 225
203 253 150z M7600 910 c-11 -11 -20 -25 -20 -31 0 -24 22 -49 44 -49 25 0 66
38 66 61 0 40 -57 52 -90 19z"/>
</g>
</svg>
