<?xml version="1.0" standalone="no"?>
<!DOCTYPE svg PUBLIC "-//W3C//DTD SVG 20010904//EN"
 "http://www.w3.org/TR/2001/REC-SVG-20010904/DTD/svg10.dtd">
<svg version="1.0" xmlns="http://www.w3.org/2000/svg"
 width="980.000000pt" height="190.000000pt" viewBox="0 0 980.000000 190.000000"
 preserveAspectRatio="xMidYMid meet">
<metadata>
Created by potrace 1.16, written by Peter Selinger 2001-2019
</metadata>
<g transform="translate(0.000000,190.000000) scale(0.100000,-0.100000)"
fill="#f1ead8" stroke="none">
<path d="M2654 1629 c-28 -10 -79 -36 -114 -58 l-64 -38 -60 28 c-102 47 -170
61 -325 66 -158 6 -245 -4 -381 -44 -382 -110 -690 -401 -690 -651 0 -148 106
-232 290 -232 249 1 533 174 644 393 91 179 43 287 -123 274 -192 -14 -414
-170 -540 -379 -35 -58 -9 -45 33 16 50 72 188 203 259 245 173 102 348 122
379 42 23 -61 -21 -156 -122 -264 -167 -179 -373 -288 -546 -289 -92 0 -146
17 -189 60 -153 153 86 521 446 686 268 123 582 150 800 67 98 -37 98 -38 13
-108 -113 -92 -239 -235 -402 -453 -307 -411 -456 -566 -628 -653 -146 -74
-336 -77 -406 -7 -36 36 -35 48 1 42 57 -8 92 57 51 98 -24 24 -41 25 -80 5
-64 -33 -58 -125 11 -178 47 -35 99 -47 202 -47 217 0 433 103 627 299 109
109 159 174 340 441 150 221 232 329 324 424 74 77 80 77 118 2 87 -170 -49
-449 -270 -558 -71 -35 -160 -48 -211 -30 -21 7 -33 8 -37 1 -10 -17 9 -29 69
-41 182 -38 424 96 518 287 32 65 34 76 34 170 0 112 -14 151 -81 225 l-35 38
33 26 c18 13 68 41 111 61 42 21 74 41 71 46 -7 12 -10 11 -70 -12z M5645
1483 c-127 -18 -285 -87 -367 -162 -157 -143 -155 -341 5 -422 32 -17 148 -48
180 -49 4 0 -10 -24 -32 -52 -22 -29 -57 -89 -78 -133 -36 -75 -38 -85 -38
-176 0 -87 2 -99 27 -136 56 -84 180 -114 323 -78 221 57 435 249 435 390 0
116 -144 136 -309 43 -66 -37 -227 -195 -259 -255 -34 -63 -13 -52 38 19 120
165 362 302 455 257 166 -79 -182 -416 -450 -436 -88 -7 -155 19 -181 70 -40
75 2 211 108 354 98 132 107 139 180 146 207 19 543 143 738 272 240 159 278
343 70 337 -217 -6 -608 -224 -908 -507 l-92 -87 -66 12 c-242 42 -291 209
-112 381 66 64 180 126 298 160 59 17 107 23 225 25 151 3 194 13 120 26 -42
7 -259 8 -310 1z m927 -60 c97 -87 -220 -330 -594 -456 -105 -36 -301 -81
-321 -74 -24 8 294 278 448 380 210 138 409 202 467 150z M9183 1275 c-122
-53 -336 -266 -609 -605 -99 -122 -226 -242 -335 -316 -52 -35 -83 -42 -95
-23 -8 14 64 118 176 252 49 59 90 109 90 112 0 3 -20 5 -44 5 -38 0 -48 -5
-75 -35 -24 -28 -31 -32 -31 -17 0 36 -35 55 -89 50 -79 -8 -155 -53 -266
-159 -160 -153 -253 -219 -310 -219 -55 0 -31 45 140 258 l120 150 69 4 c89 4
103 26 20 30 l-58 3 78 93 c43 52 76 96 73 99 -3 2 -26 1 -51 -2 -42 -7 -50
-13 -121 -101 l-76 -93 -56 -3 c-70 -4 -84 -25 -19 -30 l44 -3 -77 -91 c-133
-157 -329 -314 -392 -314 -55 0 -37 31 132 236 60 73 109 135 109 138 0 3 -20
6 -44 6 -42 0 -45 -2 -118 -88 -114 -133 -320 -292 -380 -292 -17 0 -28 5 -28
13 0 8 37 56 83 108 124 141 145 186 117 240 -24 45 -142 10 -240 -70 -60 -50
-81 -60 -49 -25 15 16 81 99 148 184 107 138 118 155 98 158 -41 5 -63 -12
-164 -133 -188 -225 -472 -475 -539 -475 -33 0 -30 19 11 80 39 58 193 248
218 269 24 19 12 31 -33 31 -31 0 -44 -6 -69 -35 -24 -28 -31 -32 -31 -17 0
58 -93 67 -192 19 -199 -99 -328 -327 -214 -378 45 -21 95 -2 206 78 22 17 24
17 17 1 -3 -10 -1 -31 4 -47 29 -83 145 -35 334 140 44 41 67 58 51 39 -16
-19 -113 -136 -215 -258 -102 -123 -188 -228 -190 -234 -2 -5 16 -8 43 -6 l46
3 188 225 c194 233 298 335 414 403 128 76 143 37 32 -84 -130 -143 -159 -204
-114 -249 23 -23 56 -26 97 -8 46 20 129 75 172 114 45 40 48 40 26 -2 -21
-41 -19 -87 5 -109 41 -37 148 5 260 103 55 48 57 48 35 6 -33 -64 -5 -124 58
-124 45 0 140 49 204 105 l52 46 -5 -48 c-5 -40 -2 -53 16 -75 37 -48 91 -36
195 42 l51 37 -4 -34 c-3 -23 1 -40 13 -53 38 -42 110 -16 231 82 l80 65 -15
-54 c-14 -51 -13 -55 6 -81 35 -47 102 -39 203 25 65 42 202 172 194 185 -3 4
-39 -21 -81 -57 -139 -122 -242 -174 -259 -130 -10 25 15 70 116 203 88 118
96 125 223 211 237 161 421 328 477 434 44 83 -1 131 -87 92z m66 -63 c-28
-80 -215 -256 -449 -422 l-75 -53 40 49 c189 236 372 428 430 455 49 22 68 11
54 -29z m-2776 -563 c37 -59 -222 -329 -315 -329 -29 0 -30 2 -24 33 10 48 70
133 150 212 99 98 163 126 189 84z m1755 -6 c11 -75 -227 -323 -310 -323 -29
0 -30 2 -25 35 11 68 164 251 246 296 47 24 85 21 89 -8z M4692 1253 c-121
-66 -307 -255 -561 -571 -126 -156 -373 -362 -436 -362 -31 0 -32 14 -4 60 26
43 199 258 228 284 28 25 18 36 -34 36 -37 0 -47 -4 -66 -31 l-22 -31 -14 26
c-16 31 -49 41 -110 32 -62 -8 -131 -48 -219 -126 -41 -36 -107 -93 -147 -128
-86 -76 -162 -122 -199 -122 -45 0 -39 11 85 162 75 92 97 143 79 183 -6 13
-23 27 -38 31 -52 13 -101 -12 -252 -130 l-24 -19 16 31 c21 41 20 85 -2 105
-48 43 -108 9 -274 -154 -139 -137 -234 -209 -274 -209 -48 0 -29 33 121 221
59 73 109 139 112 146 4 9 -6 13 -33 13 -29 0 -46 -7 -71 -32 -23 -22 -33 -27
-33 -17 0 35 -36 52 -95 46 -155 -16 -348 -202 -348 -335 0 -98 78 -107 198
-24 l71 49 -4 -34 c-6 -50 21 -77 71 -70 63 9 139 63 288 209 137 135 203 184
226 170 21 -13 -12 -65 -140 -217 l-125 -150 43 -3 44 -3 143 145 c148 150
249 226 300 226 15 0 28 -4 28 -8 0 -12 -48 -76 -113 -150 -88 -101 -108 -161
-66 -203 42 -42 146 -1 265 104 47 43 53 45 44 22 -18 -47 -12 -94 15 -120 42
-43 96 -32 198 42 l47 35 0 -35 c0 -41 25 -67 64 -67 44 0 134 54 230 137 73
63 85 70 71 44 -9 -18 -19 -54 -22 -81 -11 -94 65 -126 176 -75 74 35 164 101
234 173 72 73 60 92 -15 23 -79 -73 -148 -126 -202 -155 -53 -28 -121 -35
-129 -13 -9 23 18 81 71 158 96 138 141 188 204 227 207 127 460 346 507 439
54 109 3 155 -107 96z m98 -31 c0 -67 -204 -268 -426 -421 -41 -28 -74 -48
-74 -46 0 2 46 60 102 127 219 264 316 358 371 358 19 0 27 -5 27 -18z m-2302
-580 c14 -97 -313 -389 -344 -308 -17 45 160 267 251 315 51 27 89 24 93 -7z
m1260 -5 c5 -41 -40 -110 -128 -198 -161 -161 -274 -161 -170 0 47 72 156 183
208 211 52 28 86 23 90 -13z M7600 910 c-11 -11 -20 -25 -20 -31 0 -24 22 -49
44 -49 25 0 66 38 66 61 0 40 -57 52 -90 19z"/>
</g>
</svg>
