<?xml version="1.0" standalone="no"?>
<!DOCTYPE svg PUBLIC "-//W3C//DTD SVG 20010904//EN"
 "http://www.w3.org/TR/2001/REC-SVG-20010904/DTD/svg10.dtd">
<svg version="1.0" xmlns="http://www.w3.org/2000/svg"
 width="980.000000pt" height="190.000000pt" viewBox="0 0 980.000000 190.000000"
 preserveAspectRatio="xMidYMid meet">
<metadata>
Created by potrace 1.16, written by Peter Selinger 2001-2019
</metadata>
<g transform="translate(0.000000,190.000000) scale(0.100000,-0.100000)"
fill="#f1ead8" stroke="none">
<path d="M2646 1625 c-32 -13 -83 -40 -112 -59 l-54 -36 -49 25 c-137 69 -378
94 -577 61 -377 -64 -724 -309 -813 -573 -50 -150 0 -280 126 -324 64 -23 254
-17 333 10 267 93 484 312 498 502 4 53 2 59 -29 94 -31 32 -41 37 -96 42
-187 17 -433 -145 -584 -384 -35 -54 -5 -37 34 20 35 51 145 165 197 206 52
39 147 90 210 111 88 30 193 25 221 -9 99 -122 -243 -480 -532 -557 -93 -25
-206 -22 -263 6 -65 31 -90 70 -94 150 -14 248 311 549 704 650 239 62 524 46
651 -37 l25 -16 -34 -26 c-57 -43 -217 -203 -282 -281 -35 -41 -124 -157 -199
-256 -282 -376 -422 -520 -587 -604 -156 -79 -338 -82 -417 -8 -32 30 -29 45
6 40 57 -8 92 57 51 98 -55 55 -142 -21 -119 -104 37 -130 305 -157 544 -54
235 102 386 254 670 673 149 219 233 330 322 422 l75 78 27 -33 c128 -152 -2
-470 -244 -595 -52 -27 -71 -31 -140 -32 -44 0 -87 2 -95 5 -9 3 -15 -1 -15
-10 0 -29 97 -45 187 -32 361 52 564 448 351 683 -30 33 -34 42 -22 50 59 39
149 89 172 94 15 4 27 13 27 21 0 18 -5 18 -74 -11z M5610 1475 c-300 -61
-492 -254 -441 -443 23 -82 110 -150 216 -167 92 -14 89 -6 30 -94 -77 -116
-99 -178 -100 -281 0 -67 4 -93 21 -125 62 -119 254 -138 449 -46 228 108 382
330 289 416 -63 59 -195 34 -338 -64 -56 -39 -174 -166 -205 -221 -34 -60 -12
-46 45 30 136 179 383 307 467 240 57 -45 18 -141 -102 -252 -154 -143 -369
-213 -488 -159 -119 54 -98 213 55 416 95 127 100 131 176 139 89 9 274 57
391 100 346 130 595 336 546 454 -16 39 -48 52 -124 52 -222 0 -637 -234 -944
-533 l-61 -60 -49 7 c-163 23 -260 112 -238 219 28 133 172 253 385 323 75 24
103 28 240 31 85 2 157 6 160 11 15 22 -276 28 -380 7z m964 -51 c115 -114
-384 -433 -805 -515 -55 -10 -105 -19 -111 -19 -16 0 6 24 122 128 225 204
472 364 628 407 68 19 147 18 166 -1z M9175 1271 c-123 -57 -313 -249 -627
-634 -85 -103 -223 -229 -317 -289 -48 -30 -91 -37 -91 -14 0 19 97 153 191
263 44 51 79 95 79 98 0 3 -20 5 -44 5 -39 0 -48 -4 -75 -37 -26 -32 -31 -34
-31 -17 0 48 -66 68 -141 42 -61 -20 -142 -78 -229 -163 -139 -135 -239 -205
-295 -205 -54 0 -31 44 131 248 l126 157 71 5 c89 6 107 30 23 30 -31 0 -56 3
-56 6 0 3 34 45 75 94 41 48 72 89 70 91 -2 3 -24 3 -49 1 -44 -4 -48 -7 -121
-97 l-76 -94 -56 -3 c-70 -4 -84 -25 -20 -30 l45 -3 -76 -92 c-126 -150 -330
-313 -393 -313 -55 0 -37 32 132 237 60 72 109 134 109 137 0 3 -21 4 -47 1
-42 -4 -52 -10 -82 -47 -116 -144 -333 -318 -411 -329 -46 -7 -32 25 60 131
116 135 137 179 110 231 -25 45 -157 3 -253 -81 -25 -22 -48 -40 -51 -40 -3 0
30 44 72 98 43 53 109 137 147 186 l69 89 -44 -7 c-24 -4 -45 -8 -45 -9 -6
-16 -173 -207 -249 -286 -101 -104 -271 -250 -336 -290 -67 -40 -100 -21 -63
37 21 32 192 246 227 283 30 32 25 39 -25 39 -30 0 -43 -7 -68 -35 -24 -28
-31 -32 -31 -17 0 29 -33 52 -73 52 -104 0 -272 -115 -342 -234 -37 -63 -40
-140 -6 -167 42 -34 109 -17 187 46 23 19 45 35 48 35 3 0 6 -15 6 -33 0 -38
25 -67 59 -67 49 0 164 78 296 200 l69 65 -75 -90 c-196 -234 -369 -445 -369
-450 0 -3 20 -5 43 -5 l44 0 108 133 c199 241 278 329 357 396 128 108 233
163 252 132 7 -10 -23 -49 -122 -163 -79 -91 -103 -142 -84 -183 30 -65 147
-26 287 97 l47 41 -21 -39 c-40 -74 -19 -134 46 -134 48 0 146 58 242 144 34
30 34 30 18 4 -29 -46 -33 -102 -8 -127 44 -44 131 -16 249 79 l63 51 -7 -48
c-5 -40 -2 -53 16 -75 35 -46 98 -32 195 41 l50 38 -3 -38 c-3 -31 0 -40 22
-54 50 -33 125 1 259 118 56 48 59 49 43 20 -22 -44 -21 -115 2 -136 52 -47
174 8 316 144 42 39 73 75 70 80 -3 5 -39 -21 -80 -57 -105 -91 -189 -144
-231 -144 -46 0 -44 30 6 107 103 160 171 232 293 314 286 192 508 411 508
501 0 23 -28 48 -53 48 -12 0 -40 -9 -62 -19z m74 -25 c41 -49 -195 -284 -489
-486 l-35 -24 40 49 c220 276 412 471 466 475 4 0 12 -6 18 -14z m-2785 -582
c44 -17 -7 -109 -123 -225 -137 -137 -256 -165 -195 -46 43 84 187 236 249
263 34 15 47 17 69 8z m1764 -21 c5 -35 -32 -95 -113 -181 -83 -89 -158 -142
-198 -142 -65 0 -8 116 119 244 99 100 184 135 192 79z M4706 1260 c-123 -62
-291 -232 -603 -612 -65 -80 -217 -217 -317 -287 -59 -41 -116 -55 -116 -28 0
22 52 97 158 226 56 68 102 128 102 133 0 4 -18 8 -40 8 -32 0 -45 -6 -67 -30
l-27 -31 -13 25 c-40 77 -190 32 -334 -100 -111 -102 -220 -190 -271 -219 -39
-22 -98 -34 -98 -19 0 14 29 55 98 138 84 101 106 144 97 187 -18 79 -127 56
-249 -52 -63 -57 -72 -60 -51 -19 20 39 19 83 -3 103 -44 40 -101 10 -241
-126 -184 -179 -260 -237 -311 -237 -44 0 -13 54 138 240 56 69 102 128 102
132 0 5 -17 8 -37 8 -28 0 -45 -8 -70 -32 -23 -22 -33 -27 -33 -17 0 9 -9 24
-20 34 -64 57 -280 -51 -374 -189 -51 -73 -62 -160 -26 -196 40 -40 94 -22
225 75 20 14 21 13 17 -21 -5 -43 19 -74 58 -74 57 0 131 52 291 205 156 150
221 197 241 177 17 -17 -25 -79 -185 -267 l-85 -100 43 -3 44 -3 148 149 c152
153 204 194 270 217 78 27 68 -2 -42 -132 -108 -127 -128 -180 -84 -224 42
-42 146 -1 265 104 47 43 53 45 44 22 -28 -72 6 -145 68 -145 36 0 118 41 160
80 l32 31 0 -39 c0 -45 23 -72 61 -72 53 1 126 45 257 158 34 29 62 52 62 49
0 -2 -7 -19 -16 -37 -66 -132 16 -210 154 -145 74 34 135 78 219 158 90 86 86
109 -5 29 -105 -93 -190 -151 -243 -166 -84 -25 -104 -1 -65 78 31 62 175 257
207 280 13 10 69 47 124 83 315 207 509 427 439 497 -20 21 -50 20 -98 -4z
m84 -38 c0 -69 -185 -252 -429 -424 -87 -61 -86 -58 33 87 206 251 313 355
367 355 21 0 29 -5 29 -18z m-2302 -583 c6 -55 -161 -250 -259 -299 -136 -70
-97 65 65 225 77 76 126 106 166 103 19 -2 26 -10 28 -29z m1263 15 c35 -43
-151 -268 -265 -320 -51 -23 -60 -25 -73 -11 -53 52 203 345 303 347 12 0 28
-7 35 -16z M7601 911 c-24 -24 -26 -40 -8 -65 18 -25 56 -17 81 17 16 21 18
32 10 45 -16 25 -59 27 -83 3z"/>
</g>
</svg>
