<?xml version="1.0" standalone="no"?>
<!DOCTYPE svg PUBLIC "-//W3C//DTD SVG 20010904//EN"
 "http://www.w3.org/TR/2001/REC-SVG-20010904/DTD/svg10.dtd">
<svg version="1.0" xmlns="http://www.w3.org/2000/svg"
 width="980.000000pt" height="190.000000pt" viewBox="0 0 980.000000 190.000000"
 preserveAspectRatio="xMidYMid meet">
<metadata>
Created by potrace 1.16, written by Peter Selinger 2001-2019
</metadata>
<g transform="translate(0.000000,190.000000) scale(0.100000,-0.100000)"
fill="#f1ead8" stroke="none">
<path d="M2646 1625 c-32 -13 -83 -40 -112 -59 l-54 -36 -49 25 c-95 47 -185
67 -341 72 -223 8 -398 -31 -600 -132 -370 -187 -573 -534 -417 -712 121 -138
447 -98 684 83 133 102 230 248 240 363 5 51 3 60 -21 88 -115 136 -476 -20
-653 -283 -53 -79 -56 -84 -45 -84 5 0 26 25 46 55 85 122 236 247 368 303 52
21 79 26 151 27 81 0 90 -2 108 -24 78 -96 -125 -359 -384 -496 -108 -57 -184
-78 -282 -79 -149 0 -225 61 -225 182 0 318 471 656 945 679 172 8 345 -24
415 -77 l22 -17 -33 -23 c-51 -36 -213 -196 -283 -280 -35 -41 -125 -158 -201
-260 -281 -375 -418 -515 -585 -600 -156 -79 -338 -82 -417 -8 -26 24 -31 50
-8 42 24 -10 64 5 76 27 27 52 -25 102 -83 78 -36 -15 -48 -37 -48 -87 0 -87
76 -134 226 -140 123 -5 227 18 351 77 236 113 347 230 678 714 132 193 255
348 321 407 l38 33 27 -32 c127 -152 -8 -475 -250 -597 -48 -25 -68 -29 -136
-29 -44 0 -86 2 -94 5 -30 11 -20 -18 11 -31 50 -21 171 -17 249 9 214 72 356
260 346 457 -4 90 -25 140 -84 206 -30 33 -34 42 -22 50 59 39 149 89 172 94
15 4 27 13 27 21 0 18 -5 18 -74 -11z M5615 1476 c-300 -59 -497 -254 -446
-443 27 -99 99 -146 278 -179 20 -4 18 -9 -32 -83 -67 -100 -96 -177 -103
-268 -6 -98 26 -169 96 -211 43 -25 55 -27 147 -26 88 0 109 4 180 32 201 80
365 246 365 369 0 111 -129 131 -293 46 -82 -42 -236 -188 -276 -262 -33 -61
-13 -48 45 29 136 179 383 307 467 240 57 -45 18 -141 -102 -252 -154 -143
-369 -213 -488 -159 -120 55 -99 212 55 416 86 115 108 135 143 135 56 0 232
40 354 81 347 115 625 315 625 449 0 12 -13 35 -29 51 -26 26 -36 29 -94 29
-227 0 -616 -214 -935 -514 l-82 -78 -48 6 c-125 18 -212 73 -233 148 -30 112
73 253 246 339 135 67 199 81 375 85 85 2 160 4 165 4 6 0 1 6 -10 12 -30 18
-286 20 -370 4z m956 -46 c28 -15 24 -66 -7 -112 -116 -167 -566 -387 -864
-422 l-55 -7 90 87 c230 220 503 403 672 449 59 16 138 19 164 5z M9175 1271
c-102 -46 -291 -229 -509 -492 -70 -85 -145 -175 -167 -201 -46 -55 -195 -183
-264 -227 -49 -31 -95 -41 -95 -20 0 26 64 115 191 265 43 51 75 95 72 98 -4
3 -22 6 -41 6 -27 0 -42 -8 -68 -36 -28 -29 -34 -32 -34 -16 0 30 -32 52 -77
52 -69 0 -172 -60 -281 -164 -157 -150 -251 -216 -307 -216 -55 0 -27 51 144
265 l113 140 71 5 c89 6 107 30 23 30 -31 0 -56 3 -56 7 0 3 33 45 74 94 41
48 73 89 71 91 -2 2 -24 2 -49 0 -44 -4 -48 -7 -121 -97 l-75 -94 -57 -3 c-71
-4 -88 -28 -18 -28 l46 0 -63 -77 c-140 -173 -372 -356 -425 -336 -32 12 -8
51 142 233 62 76 112 140 110 142 -3 2 -24 2 -49 -2 -40 -5 -50 -12 -113 -85
-150 -173 -403 -344 -403 -271 0 7 39 57 86 112 119 138 147 199 108 238 -37
37 -155 -3 -247 -84 -25 -22 -48 -40 -51 -40 -3 0 29 44 72 98 43 53 109 137
147 186 l69 89 -44 -7 c-24 -4 -45 -8 -45 -9 0 -1 -34 -42 -75 -92 -239 -291
-590 -582 -590 -490 0 25 85 141 227 309 43 51 42 57 -8 54 -32 -1 -47 -9 -70
-35 -23 -27 -29 -30 -29 -15 0 36 -35 55 -89 50 -132 -13 -316 -165 -347 -287
-36 -144 76 -173 214 -55 l42 36 0 -40 c0 -44 23 -72 59 -72 49 0 164 78 296
200 38 36 57 49 41 30 -16 -19 -116 -140 -223 -267 -106 -128 -193 -235 -193
-238 0 -3 20 -5 43 -5 l44 0 108 133 c199 241 278 329 357 396 128 108 233
163 252 132 7 -10 -23 -49 -122 -163 -79 -91 -103 -142 -84 -183 30 -65 147
-26 287 97 l47 41 -21 -39 c-40 -73 -18 -134 47 -134 46 0 149 62 241 144 34
30 34 30 18 4 -29 -46 -33 -102 -8 -127 44 -44 131 -16 249 79 l63 51 -7 -50
c-6 -44 -4 -52 19 -75 41 -41 96 -29 192 43 l50 38 -3 -38 c-3 -31 0 -40 22
-54 49 -33 123 1 258 117 l58 50 -15 -36 c-23 -54 -20 -112 7 -130 34 -24 68
-19 145 19 74 37 248 189 237 206 -3 6 -27 -9 -52 -33 -114 -105 -211 -168
-262 -168 -43 0 -40 31 9 107 103 160 171 232 293 314 286 192 508 411 508
501 0 23 -28 48 -53 48 -12 0 -40 -9 -62 -19z m74 -25 c40 -48 -202 -291 -474
-476 l-50 -34 40 50 c203 253 360 420 430 457 37 20 40 20 54 3z m-2771 -604
c5 -35 -44 -108 -132 -198 -83 -83 -145 -124 -191 -124 -35 0 -33 31 6 99 38
66 183 215 230 236 48 21 83 16 87 -13z m1750 1 c5 -37 -26 -88 -109 -176 -86
-93 -161 -147 -202 -147 -64 0 -9 114 117 243 97 100 186 136 194 80z M4687
1248 c-112 -61 -304 -256 -544 -553 -107 -132 -221 -238 -357 -334 -60 -42
-116 -55 -116 -27 0 21 69 119 169 241 50 61 91 112 91 115 0 3 -18 6 -39 8
-33 2 -45 -3 -65 -25 -14 -15 -26 -31 -26 -35 0 -5 -4 -8 -10 -8 -5 0 -7 6 -4
14 3 8 -4 24 -16 36 -52 52 -195 2 -314 -110 -204 -192 -376 -300 -376 -236 0
6 41 61 90 121 95 115 118 163 100 209 -25 68 -146 29 -267 -87 -44 -42 -53
-41 -28 3 20 35 19 84 -3 103 -44 40 -102 9 -236 -121 -194 -189 -263 -242
-316 -242 -44 0 -13 54 138 240 56 69 102 128 102 133 0 19 -87 -7 -112 -34
-24 -25 -28 -26 -28 -11 0 51 -73 66 -160 33 -104 -40 -237 -160 -269 -244
-19 -48 -14 -114 10 -138 39 -39 94 -20 224 76 20 14 21 13 17 -21 -5 -43 19
-74 58 -74 57 0 131 52 291 205 156 150 221 197 241 177 17 -17 -25 -79 -185
-267 l-85 -100 44 -3 44 -3 122 127 c135 139 213 204 284 235 92 41 79 -5 -41
-141 -93 -106 -116 -169 -75 -210 46 -46 153 0 289 124 26 23 32 26 26 11 -5
-11 -10 -39 -13 -62 -5 -51 29 -93 76 -93 36 0 118 41 159 80 18 16 34 30 35
30 2 0 2 -16 0 -35 -3 -25 1 -42 14 -56 41 -45 138 -2 289 128 84 73 85 73 64
32 -73 -139 6 -221 149 -154 29 13 73 39 99 56 63 44 194 169 187 180 -3 5
-37 -19 -77 -54 -105 -91 -171 -137 -228 -158 -122 -46 -124 18 -8 181 110
154 121 165 239 241 328 211 536 441 464 513 -23 23 -52 19 -117 -16z m103
-23 c0 -56 -123 -194 -280 -316 -107 -83 -220 -162 -220 -155 0 23 325 393
393 448 52 40 107 52 107 23z m-2302 -586 c6 -55 -161 -250 -259 -299 -135
-70 -97 64 65 225 76 76 126 107 166 103 19 -2 26 -10 28 -29z m1263 15 c52
-63 -279 -390 -337 -332 -53 53 201 346 302 348 12 0 28 -7 35 -16z M7608 918
c-25 -20 -31 -54 -12 -72 22 -23 53 -17 77 15 35 48 -18 94 -65 57z"/>
</g>
</svg>
