<?xml version="1.0" standalone="no"?>
<!DOCTYPE svg PUBLIC "-//W3C//DTD SVG 20010904//EN"
 "http://www.w3.org/TR/2001/REC-SVG-20010904/DTD/svg10.dtd">
<svg version="1.0" xmlns="http://www.w3.org/2000/svg"
 width="980.000000pt" height="190.000000pt" viewBox="0 0 980.000000 190.000000"
 preserveAspectRatio="xMidYMid meet">
<metadata>
Created by potrace 1.16, written by Peter Selinger 2001-2019
</metadata>
<g transform="translate(0.000000,190.000000) scale(0.100000,-0.100000)"
fill="#f1ead8" stroke="none">
<path d="M2646 1625 c-32 -13 -83 -40 -112 -59 l-54 -36 -49 25 c-137 69 -378
94 -577 61 -377 -64 -724 -309 -813 -573 -50 -150 0 -280 126 -324 64 -23 254
-17 333 10 267 93 484 312 498 502 4 53 2 59 -29 94 -31 32 -41 37 -96 42
-187 17 -433 -145 -584 -384 -35 -55 -5 -37 35 21 90 131 267 269 403 315 109
37 222 22 238 -30 37 -115 -179 -366 -421 -487 -181 -91 -387 -86 -457 12 -19
26 -22 44 -22 116 0 117 36 189 159 318 203 212 474 333 781 349 166 8 332
-22 412 -74 l25 -16 -34 -26 c-57 -43 -217 -203 -282 -281 -35 -41 -124 -157
-199 -256 -282 -376 -422 -520 -587 -604 -156 -79 -338 -82 -417 -8 -32 30
-29 45 6 40 57 -8 92 57 51 98 -55 55 -142 -21 -119 -104 37 -130 305 -157
544 -54 235 102 386 254 670 673 149 219 233 330 322 422 l75 78 27 -33 c128
-152 -2 -470 -244 -595 -52 -27 -71 -31 -140 -32 -44 0 -87 2 -95 5 -9 3 -15
-1 -15 -10 0 -29 97 -45 187 -32 169 25 326 138 399 288 32 64 34 76 34 169 0
112 -14 151 -81 225 l-35 38 33 25 c42 32 147 87 164 87 8 0 14 7 14 15 0 20
-4 19 -74 -10z M5610 1475 c-194 -39 -348 -134 -413 -254 -69 -125 -32 -262
86 -322 31 -16 148 -48 178 -49 4 0 -17 -36 -46 -79 -77 -116 -99 -178 -100
-281 0 -67 4 -93 21 -125 62 -119 254 -138 449 -46 228 108 382 330 289 416
-63 59 -195 34 -338 -64 -56 -39 -174 -166 -205 -221 -34 -60 -12 -46 45 30
136 179 383 307 467 240 57 -45 18 -141 -102 -252 -154 -143 -369 -213 -488
-159 -119 54 -98 213 55 416 95 127 100 131 176 139 90 9 275 57 393 101 345
129 593 335 544 453 -37 90 -229 66 -479 -59 -208 -103 -376 -222 -565 -399
l-87 -82 -48 6 c-124 18 -213 74 -232 147 -38 139 123 311 360 387 101 33 181
43 308 41 117 -1 153 9 77 23 -65 11 -275 7 -345 -7z m964 -51 c115 -114 -384
-433 -805 -515 -55 -10 -105 -19 -111 -19 -16 0 6 24 122 128 225 204 472 364
628 407 68 19 147 18 166 -1z M9175 1271 c-122 -57 -312 -248 -626 -631 -154
-189 -409 -379 -409 -306 0 19 97 153 191 263 44 51 79 95 79 98 0 3 -20 5
-44 5 -39 0 -48 -4 -75 -37 -26 -32 -31 -34 -31 -17 0 50 -68 68 -149 40 -58
-21 -147 -84 -211 -151 -114 -118 -251 -215 -305 -215 -54 0 -31 44 131 248
l126 157 71 5 c89 6 107 30 23 30 -31 0 -56 3 -56 6 0 3 34 45 75 94 41 48 72
89 70 91 -2 3 -24 3 -49 1 -44 -4 -48 -7 -121 -97 l-76 -94 -56 -3 c-72 -4
-87 -28 -18 -28 l46 0 -59 -72 c-140 -172 -344 -338 -414 -338 -54 0 -35 32
134 238 61 73 108 136 105 139 -4 3 -26 2 -50 -1 -39 -6 -50 -15 -107 -82 -95
-114 -278 -262 -356 -289 -81 -28 -73 -1 36 126 116 134 137 178 110 230 -25
45 -157 3 -253 -81 -25 -22 -48 -40 -51 -40 -3 0 30 44 72 98 43 53 109 137
147 186 l69 89 -44 -7 c-24 -4 -45 -8 -45 -9 -6 -16 -173 -207 -249 -286 -101
-104 -271 -250 -336 -290 -67 -40 -100 -21 -63 37 21 32 192 246 227 283 30
32 25 39 -25 39 -30 0 -43 -7 -68 -35 -24 -28 -31 -32 -31 -17 0 29 -33 52
-73 52 -104 0 -272 -115 -342 -234 -37 -63 -40 -140 -6 -167 42 -34 109 -17
187 46 23 19 45 35 48 35 3 0 6 -15 6 -33 0 -38 25 -67 59 -67 49 0 164 78
296 200 l69 65 -75 -90 c-213 -254 -369 -444 -369 -449 0 -3 20 -6 43 -6 l44
0 108 133 c199 241 278 329 357 396 128 108 233 163 252 132 7 -10 -23 -49
-122 -163 -79 -91 -103 -142 -84 -183 30 -65 147 -26 287 97 l47 41 -21 -39
c-40 -74 -19 -134 46 -134 48 0 146 58 242 144 34 30 34 30 18 4 -29 -46 -33
-102 -8 -127 44 -44 131 -16 249 79 l63 51 -7 -48 c-5 -40 -2 -53 16 -75 35
-46 98 -32 195 41 l50 38 -3 -38 c-3 -31 0 -40 22 -54 50 -33 125 1 259 118
56 48 59 49 43 20 -23 -45 -24 -108 -1 -133 48 -53 173 2 319 141 42 39 73 75
70 80 -3 5 -39 -21 -80 -57 -105 -91 -189 -144 -231 -144 -46 0 -44 30 6 107
103 160 171 232 293 314 286 192 508 411 508 501 0 23 -28 48 -53 48 -12 0
-40 -9 -62 -19z m74 -24 c41 -50 -195 -285 -489 -487 l-35 -24 40 49 c220 276
412 471 466 475 4 0 12 -6 18 -13z m-2785 -583 c44 -17 -7 -109 -123 -225
-137 -137 -256 -165 -195 -46 43 84 187 236 249 263 34 15 47 17 69 8z m1764
-21 c5 -35 -32 -95 -113 -181 -83 -89 -158 -142 -198 -142 -65 0 -8 116 119
244 99 100 184 135 192 79z M4721 1269 c-108 -43 -327 -261 -583 -579 -131
-164 -377 -370 -440 -370 -16 0 -28 5 -28 13 0 22 52 97 158 226 56 68 102
128 102 133 0 4 -18 8 -40 8 -32 0 -45 -6 -67 -30 l-27 -31 -13 25 c-40 77
-190 32 -334 -100 -111 -102 -220 -190 -271 -219 -39 -22 -98 -34 -98 -19 0
14 29 55 98 138 103 124 123 175 82 216 -11 11 -32 20 -47 20 -40 0 -124 -46
-187 -101 -63 -57 -72 -60 -51 -19 20 39 19 83 -3 103 -44 40 -99 11 -240
-125 -189 -182 -262 -238 -312 -238 -44 0 -13 54 138 240 56 69 102 128 102
132 0 5 -17 8 -37 8 -28 0 -45 -8 -70 -32 -23 -22 -33 -27 -33 -17 0 33 -36
52 -89 47 -174 -17 -386 -237 -350 -363 21 -72 87 -71 194 3 l71 49 -4 -34
c-5 -42 20 -73 58 -73 57 0 131 52 291 205 156 150 221 197 241 177 17 -17
-25 -79 -185 -267 l-85 -100 43 -3 43 -3 149 148 c153 154 205 196 270 218 78
27 68 -2 -42 -132 -108 -127 -128 -180 -84 -224 42 -42 146 -1 265 104 47 43
53 45 44 22 -28 -72 6 -145 68 -145 36 0 118 41 160 80 l32 31 0 -39 c0 -45
23 -72 61 -72 53 1 126 45 257 158 34 29 62 52 62 49 0 -2 -7 -19 -16 -37 -66
-132 16 -210 154 -145 74 34 135 78 219 158 90 86 86 109 -5 29 -105 -93 -190
-151 -243 -166 -84 -25 -104 -1 -65 78 31 62 175 257 207 280 13 10 69 47 124
83 255 168 455 367 455 454 0 51 -42 71 -99 48z m69 -47 c0 -51 -124 -190
-277 -310 -110 -86 -228 -169 -218 -151 42 70 330 397 394 445 49 38 101 46
101 16z m-2302 -583 c6 -55 -161 -250 -259 -299 -136 -70 -97 65 65 225 77 76
126 106 166 103 19 -2 26 -10 28 -29z m1262 16 c36 -43 -149 -268 -264 -321
-51 -23 -60 -25 -73 -11 -53 52 203 345 303 347 12 0 27 -7 34 -15z M7601 911
c-24 -24 -26 -40 -8 -65 18 -25 56 -17 81 17 16 21 18 32 10 45 -16 25 -59 27
-83 3z"/>
</g>
</svg>
