<?xml version="1.0" standalone="no"?>
<!DOCTYPE svg PUBLIC "-//W3C//DTD SVG 20010904//EN"
 "http://www.w3.org/TR/2001/REC-SVG-20010904/DTD/svg10.dtd">
<svg version="1.0" xmlns="http://www.w3.org/2000/svg"
 width="980.000000pt" height="190.000000pt" viewBox="0 0 980.000000 190.000000"
 preserveAspectRatio="xMidYMid meet">
<metadata>
Created by potrace 1.16, written by Peter Selinger 2001-2019
</metadata>
<g transform="translate(0.000000,190.000000) scale(0.100000,-0.100000)"
fill="#f1ead8" stroke="none">
<path d="M2654 1629 c-28 -10 -79 -36 -114 -58 l-64 -38 -60 28 c-117 55 -173
64 -376 63 -167 0 -194 -3 -283 -27 -249 -67 -480 -205 -605 -361 -65 -82 -79
-106 -108 -182 -55 -148 -12 -278 111 -330 54 -22 177 -29 261 -15 184 32 383
157 491 308 113 159 123 292 24 339 -44 21 -143 15 -225 -15 -154 -54 -319
-196 -415 -353 -35 -58 -9 -45 34 17 20 30 77 93 125 139 72 68 108 93 195
136 91 46 116 54 179 58 88 5 131 -12 141 -57 14 -66 -29 -153 -134 -264 -91
-95 -197 -173 -304 -222 -87 -40 -158 -57 -236 -58 -82 0 -144 19 -185 59 -62
61 -63 166 -1 290 70 144 260 313 446 398 216 99 470 138 669 102 78 -14 174
-47 203 -69 14 -11 7 -19 -56 -72 -116 -96 -248 -244 -405 -454 -80 -108 -182
-241 -228 -296 -93 -114 -237 -257 -304 -302 -114 -77 -222 -113 -339 -113
-77 0 -131 17 -168 52 -32 30 -29 45 6 40 34 -5 71 26 71 58 0 24 -34 60 -55
60 -34 0 -74 -30 -85 -64 -9 -27 -8 -41 3 -69 18 -42 68 -81 122 -96 22 -6 80
-11 128 -11 99 0 208 24 303 66 92 41 216 126 303 210 98 93 187 208 371 479
148 219 227 321 323 418 49 51 59 57 73 46 30 -25 57 -94 62 -159 3 -52 -1
-80 -21 -137 -29 -83 -96 -183 -163 -242 -67 -59 -164 -104 -235 -109 -32 -2
-72 0 -88 6 -21 7 -33 8 -37 1 -10 -17 9 -29 69 -41 79 -17 179 1 277 49 99
48 194 142 241 238 32 65 34 76 34 170 0 85 -3 106 -23 143 -13 24 -39 60 -58
82 l-35 38 33 26 c18 13 68 41 111 61 42 21 74 41 71 46 -7 12 -10 11 -70 -12z
M5627 1480 c-26 -5 -78 -18 -115 -30 -199 -64 -335 -194 -349 -334 -7 -65 9
-116 50 -162 39 -45 92 -72 176 -90 36 -7 70 -14 74 -14 4 0 -8 -21 -28 -47
-20 -26 -55 -86 -78 -132 -41 -82 -42 -88 -42 -181 0 -88 2 -100 27 -137 38
-58 112 -93 198 -93 127 0 275 56 390 149 111 89 170 178 170 256 0 88 -68
121 -188 91 -37 -9 -91 -31 -122 -49 -67 -39 -227 -196 -258 -254 -13 -24 -20
-43 -15 -43 5 0 29 28 53 62 57 77 175 180 254 218 34 17 86 35 116 42 45 9
61 9 85 -3 76 -36 51 -125 -64 -239 -121 -119 -255 -187 -385 -197 -59 -5 -81
-2 -118 15 -62 27 -82 65 -76 146 5 77 48 168 128 274 96 126 99 128 174 135
84 8 285 60 397 102 110 42 256 116 339 170 36 24 93 72 127 107 71 74 94 128
74 176 -7 16 -24 34 -37 41 -39 17 -142 13 -224 -9 -90 -25 -283 -116 -400
-190 -119 -74 -247 -174 -368 -286 l-103 -96 -63 11 c-82 14 -126 33 -170 72
-83 72 -65 191 44 300 63 63 125 102 224 140 114 44 212 60 346 58 116 -2 159
10 85 23 -53 9 -267 8 -328 -2z m945 -57 c26 -23 22 -58 -12 -108 -78 -113
-331 -265 -582 -349 -105 -35 -301 -80 -321 -73 -12 4 147 151 270 249 102 83
243 177 325 219 140 71 280 98 320 62z M9183 1275 c-121 -52 -336 -266 -610
-607 -101 -125 -218 -235 -330 -311 -56 -37 -103 -48 -103 -24 0 19 83 134
184 255 47 56 86 104 86 107 0 3 -20 5 -44 5 -39 0 -48 -4 -75 -37 -26 -32
-31 -34 -31 -17 0 12 -9 29 -20 39 -15 14 -31 17 -69 13 -79 -8 -155 -53 -266
-159 -160 -153 -253 -219 -310 -219 -55 0 -30 47 140 259 l120 149 69 4 c89 4
103 26 20 30 l-58 3 78 93 c43 52 76 95 74 96 -1 1 -24 1 -50 -2 -46 -4 -49
-6 -123 -97 l-76 -94 -56 -3 c-70 -4 -84 -25 -19 -30 l44 -3 -77 -91 c-91
-108 -188 -197 -289 -265 -74 -49 -132 -65 -132 -35 0 20 41 78 161 223 60 72
109 134 109 137 0 3 -20 6 -44 6 -42 0 -45 -2 -119 -89 -142 -167 -393 -341
-405 -281 -1 9 37 62 87 118 115 132 138 181 111 233 -25 47 -146 8 -254 -81
-27 -22 -51 -40 -54 -40 -3 0 6 12 20 28 14 15 80 97 147 182 107 138 118 155
98 158 -13 2 -32 -1 -43 -5 -11 -4 -66 -62 -121 -128 -144 -172 -341 -358
-477 -449 -46 -31 -86 -35 -86 -8 0 20 97 151 198 269 39 44 68 84 65 87 -4 3
-23 6 -44 6 -30 0 -43 -7 -68 -35 -24 -28 -31 -32 -31 -17 0 10 -9 27 -20 37
-15 14 -31 17 -69 13 -65 -6 -141 -44 -221 -111 -84 -70 -133 -150 -134 -219
-1 -41 3 -53 23 -69 13 -10 35 -19 50 -19 35 1 97 30 146 70 l40 32 6 -42 c3
-23 12 -46 20 -51 8 -6 32 -8 53 -5 50 6 147 72 262 179 l88 82 -83 -100 c-46
-55 -102 -122 -126 -150 -119 -141 -235 -284 -235 -290 0 -3 20 -5 45 -3 l45
3 188 225 c194 233 298 335 414 403 70 41 108 48 108 18 0 -10 -34 -56 -76
-102 -130 -143 -159 -204 -114 -249 11 -11 32 -20 46 -20 39 0 127 47 199 107
36 29 65 52 65 49 0 -2 -7 -17 -15 -32 -21 -41 -19 -87 5 -109 41 -37 148 5
260 103 28 24 50 41 50 39 0 -3 -7 -18 -15 -33 -21 -41 -19 -80 6 -105 17 -17
30 -20 65 -16 49 5 133 52 200 110 l43 38 -5 -48 c-5 -40 -2 -53 16 -75 37
-48 91 -36 195 42 l51 37 -4 -34 c-3 -23 1 -40 13 -53 38 -42 110 -16 235 85
47 39 80 60 76 49 -16 -37 -24 -87 -19 -103 25 -70 96 -67 213 7 64 40 202
171 194 183 -3 5 -39 -21 -80 -57 -141 -123 -243 -173 -261 -128 -9 24 17 71
117 203 85 113 99 127 198 193 158 106 257 183 355 277 95 91 167 189 167 226
0 30 -25 55 -53 55 -12 -1 -37 -7 -54 -15z m66 -28 c13 -17 -10 -65 -63 -131
-61 -73 -272 -250 -426 -356 l-35 -24 40 49 c214 269 412 471 466 475 4 0 12
-6 18 -13z m-2776 -598 c37 -59 -222 -329 -314 -329 -21 0 -29 5 -29 18 1 71
160 261 265 317 36 18 64 16 78 -6z m1755 -6 c5 -35 -32 -95 -113 -181 -83
-89 -158 -142 -198 -142 -23 0 -27 4 -27 28 0 15 18 54 39 87 48 74 161 189
210 215 47 25 85 22 89 -7z M4692 1253 c-123 -66 -290 -238 -588 -605 -64 -77
-217 -216 -319 -287 -58 -40 -115 -55 -115 -28 0 6 10 28 21 47 26 43 199 258
228 284 11 10 18 23 15 27 -3 5 -25 9 -49 9 -37 0 -47 -4 -66 -31 l-22 -31
-14 26 c-16 30 -48 41 -104 33 -63 -8 -139 -51 -223 -124 -42 -38 -109 -96
-149 -131 -40 -35 -94 -76 -122 -93 -48 -27 -105 -39 -105 -20 0 11 32 55 109
148 92 112 110 164 71 203 -39 39 -113 17 -209 -61 -29 -24 -63 -51 -74 -59
-19 -14 -19 -14 -3 17 21 42 20 86 -2 106 -48 43 -107 10 -271 -152 -137 -135
-237 -211 -277 -211 -42 0 -31 26 64 150 37 47 90 113 119 148 29 35 53 67 53
73 0 5 -17 9 -37 9 -28 0 -45 -8 -70 -32 -23 -22 -33 -27 -33 -17 0 9 -9 24
-20 34 -16 14 -30 17 -75 12 -73 -7 -173 -63 -246 -137 -67 -69 -102 -137
-102 -198 0 -36 5 -49 24 -65 37 -30 90 -17 174 41 l71 49 -4 -34 c-5 -41 20
-73 57 -73 31 0 94 29 140 63 18 14 94 85 169 157 131 127 197 176 219 162 21
-13 -12 -64 -139 -217 l-125 -150 43 -3 43 -3 143 145 c148 150 249 226 300
226 15 0 28 -4 28 -8 0 -12 -48 -76 -113 -150 -88 -101 -108 -161 -66 -203 17
-17 29 -20 61 -16 48 6 131 55 204 120 47 43 53 45 44 22 -5 -14 -10 -42 -10
-61 0 -42 37 -84 75 -84 36 0 89 24 146 66 l49 36 0 -35 c0 -41 25 -67 64 -67
44 0 134 53 228 135 l86 74 -19 -50 c-26 -67 -24 -105 6 -134 17 -18 35 -25
62 -25 75 0 219 88 331 203 60 61 56 87 -4 31 -68 -64 -168 -141 -218 -168
-52 -28 -121 -35 -129 -13 -9 23 18 81 71 158 95 137 141 189 203 227 142 87
281 194 380 292 108 106 149 166 149 218 0 59 -48 68 -128 25z m98 -31 c0 -50
-126 -191 -280 -312 -83 -66 -220 -162 -220 -155 0 6 188 232 269 324 85 96
168 161 204 161 19 0 27 -5 27 -18z m-2302 -580 c5 -32 -38 -101 -111 -179
-100 -107 -217 -172 -233 -129 -10 27 59 136 135 215 42 43 94 88 116 100 51
27 89 24 93 -7z m1260 -5 c5 -40 -39 -108 -128 -198 -76 -78 -166 -134 -196
-122 -44 17 21 139 132 248 73 73 126 106 164 102 19 -1 26 -8 28 -30z M7600
910 c-11 -11 -20 -25 -20 -31 0 -24 22 -49 44 -49 25 0 66 38 66 61 0 40 -57
52 -90 19z"/>
</g>
</svg>
