<?xml version="1.0" standalone="no"?>
<!DOCTYPE svg PUBLIC "-//W3C//DTD SVG 20010904//EN"
 "http://www.w3.org/TR/2001/REC-SVG-20010904/DTD/svg10.dtd">
<svg version="1.0" xmlns="http://www.w3.org/2000/svg"
 width="980.000000pt" height="190.000000pt" viewBox="0 0 980.000000 190.000000"
 preserveAspectRatio="xMidYMid meet">
<metadata>
Created by potrace 1.16, written by Peter Selinger 2001-2019
</metadata>
<g transform="translate(0.000000,190.000000) scale(0.100000,-0.100000)"
fill="#f1ead8" stroke="none">
<path d="M2646 1625 c-32 -13 -83 -40 -112 -59 l-54 -36 -49 25 c-27 13 -82
34 -123 46 -53 15 -112 23 -214 26 -106 4 -166 1 -240 -11 -54 -10 -139 -31
-188 -47 -49 -16 -133 -52 -187 -80 -53 -27 -127 -72 -162 -99 -36 -27 -88
-73 -117 -101 -28 -29 -70 -82 -94 -118 -25 -36 -54 -94 -65 -128 -12 -34 -21
-86 -21 -115 0 -29 9 -71 19 -93 10 -22 34 -54 54 -72 19 -17 53 -37 74 -44
24 -9 80 -14 153 -13 92 0 128 5 180 23 36 12 93 36 126 53 34 16 97 58 141
92 43 35 101 92 127 127 27 35 60 89 74 119 15 31 28 80 30 111 4 53 2 59 -29
94 -31 32 -41 37 -96 42 -46 4 -79 0 -134 -16 -41 -13 -105 -41 -142 -63 -38
-22 -99 -66 -135 -97 -37 -32 -86 -84 -110 -117 -24 -32 -52 -74 -63 -91 -12
-18 -17 -33 -12 -33 5 0 26 24 46 53 20 29 67 83 104 120 38 36 79 75 93 86
14 10 53 35 86 54 32 19 88 45 124 57 49 17 82 21 134 18 57 -3 72 -8 87 -27
11 -13 19 -37 19 -55 0 -17 -13 -59 -29 -93 -20 -41 -57 -91 -111 -147 -45
-46 -113 -107 -153 -134 -40 -27 -99 -63 -133 -80 -33 -17 -89 -38 -125 -48
-35 -9 -98 -17 -141 -17 -58 0 -87 6 -122 23 -25 12 -56 36 -68 53 -16 23 -24
50 -26 97 -3 47 2 81 16 122 11 31 36 81 55 110 20 29 69 86 109 127 40 40
109 97 154 127 45 30 119 72 166 94 47 22 139 53 204 70 86 23 152 33 239 37
71 3 150 1 194 -6 40 -6 100 -21 133 -32 33 -11 71 -27 85 -36 l25 -16 -34
-26 c-18 -14 -75 -66 -126 -115 -52 -50 -122 -125 -156 -166 -35 -41 -124
-157 -199 -256 -75 -100 -170 -222 -211 -272 -41 -50 -104 -118 -138 -152 -35
-35 -90 -83 -123 -107 -33 -25 -85 -58 -115 -73 -30 -15 -79 -35 -109 -44 -30
-9 -90 -16 -133 -16 -48 0 -93 6 -116 15 -20 9 -47 26 -59 37 -13 12 -23 27
-23 33 0 7 11 10 29 7 20 -3 35 2 50 17 12 12 21 30 21 41 0 11 -9 29 -20 40
-11 11 -27 20 -35 20 -9 0 -29 -7 -45 -15 -19 -10 -33 -27 -38 -48 -5 -17 -5
-45 -1 -61 5 -16 16 -38 26 -48 10 -11 36 -30 58 -41 30 -16 64 -22 137 -25
68 -3 120 1 175 13 43 9 110 31 148 47 39 17 108 55 155 86 47 30 126 95 176
146 50 50 122 134 161 186 38 52 119 167 178 255 60 88 139 201 177 252 38 50
103 127 145 170 l75 78 27 -33 c16 -18 33 -50 40 -71 6 -21 11 -63 11 -92 0
-31 -11 -83 -24 -121 -13 -37 -44 -96 -70 -132 -25 -35 -67 -83 -93 -106 -27
-23 -75 -56 -108 -73 -52 -27 -71 -31 -140 -32 -44 0 -87 2 -95 5 -9 3 -15 -1
-15 -10 0 -10 19 -20 54 -29 44 -12 68 -13 133 -3 52 7 105 24 151 46 40 19
92 52 116 72 24 21 63 64 87 96 23 32 52 88 64 124 18 53 21 82 18 143 -3 52
-12 90 -27 119 -12 24 -38 61 -58 83 -30 33 -34 42 -22 50 8 5 43 27 79 49 36
21 77 42 93 45 15 4 27 13 27 21 0 8 -3 14 -7 14 -5 0 -34 -11 -67 -25z M5610
1475 c-36 -7 -87 -21 -115 -30 -27 -9 -77 -31 -109 -48 -33 -18 -82 -53 -111
-78 -28 -26 -63 -70 -78 -98 -15 -28 -30 -72 -34 -98 -3 -26 0 -67 6 -91 7
-24 28 -60 47 -81 19 -21 56 -48 82 -59 26 -11 65 -23 87 -27 22 -3 50 -8 62
-11 20 -4 18 -9 -32 -83 -29 -43 -63 -105 -76 -138 -18 -44 -24 -78 -24 -143
0 -67 4 -93 21 -125 13 -24 39 -51 68 -69 37 -23 61 -30 119 -34 48 -3 94 1
137 12 36 9 92 29 125 45 33 16 80 42 104 59 24 16 70 56 102 87 32 32 70 81
84 109 15 30 25 67 25 93 0 34 -6 49 -26 68 -14 13 -42 26 -62 30 -21 3 -60 1
-87 -5 -27 -6 -71 -22 -97 -35 -27 -14 -68 -38 -92 -54 -24 -17 -74 -63 -112
-104 -38 -41 -80 -93 -93 -117 -13 -23 -19 -41 -14 -39 6 2 32 33 59 69 27 35
80 91 119 123 38 32 101 74 140 93 43 21 93 37 125 41 47 4 59 2 83 -17 19
-15 27 -30 27 -53 0 -18 -13 -55 -29 -83 -16 -28 -61 -80 -100 -116 -41 -38
-104 -83 -150 -107 -43 -22 -104 -47 -137 -56 -32 -8 -81 -15 -109 -15 -27 0
-69 9 -92 19 -26 12 -48 32 -58 51 -9 18 -17 52 -17 76 0 24 6 61 13 81 6 21
22 58 35 83 12 25 49 82 82 125 33 44 71 92 85 106 20 21 38 27 91 33 36 4
118 20 181 36 63 16 158 45 210 64 52 20 137 57 188 82 50 26 125 69 165 97
40 27 97 76 127 109 31 33 59 75 66 98 9 30 9 46 0 68 -7 16 -24 34 -37 41
-14 6 -53 11 -87 11 -34 0 -96 -9 -137 -20 -41 -12 -133 -49 -205 -84 -71 -35
-184 -99 -250 -143 -66 -45 -158 -113 -205 -153 -47 -40 -113 -100 -147 -133
l-61 -60 -49 7 c-26 4 -69 14 -94 22 -25 8 -65 31 -87 50 -28 23 -45 49 -52
75 -6 23 -8 55 -5 72 4 18 19 54 33 81 15 26 51 70 81 97 30 26 84 64 120 83
36 18 104 46 151 62 75 24 103 28 240 31 85 2 157 6 160 11 3 4 -15 10 -40 14
-25 3 -97 6 -160 6 -63 0 -144 -6 -180 -13z m964 -51 c9 -8 16 -28 16 -43 0
-17 -14 -47 -35 -74 -19 -25 -74 -75 -122 -112 -49 -36 -146 -95 -218 -130
-71 -36 -179 -81 -238 -101 -60 -19 -154 -44 -208 -55 -55 -10 -105 -19 -111
-19 -6 0 -5 6 3 17 8 9 61 59 119 111 58 53 155 132 215 177 61 45 137 98 171
118 34 20 91 51 128 68 37 17 88 37 114 44 26 7 70 14 99 14 35 1 57 -4 67
-15z M9175 1271 c-22 -10 -58 -32 -81 -48 -22 -17 -82 -70 -134 -119 -51 -49
-145 -150 -209 -224 -64 -75 -155 -184 -203 -243 -50 -60 -128 -140 -180 -184
-51 -42 -113 -89 -137 -105 -25 -15 -55 -28 -68 -28 -13 0 -23 6 -23 14 0 8
25 49 56 92 31 44 92 120 135 171 44 51 79 95 79 98 0 3 -20 5 -44 5 -39 0
-48 -4 -75 -37 -26 -32 -31 -34 -31 -17 0 12 -8 28 -18 37 -10 10 -34 17 -54
17 -19 0 -50 -5 -69 -12 -19 -6 -59 -27 -89 -46 -30 -18 -93 -71 -140 -117
-47 -45 -109 -101 -139 -124 -30 -24 -72 -51 -92 -62 -21 -10 -50 -19 -64 -19
-16 0 -25 6 -25 15 0 9 7 29 15 46 9 16 72 100 141 187 l126 157 71 5 c44 3
72 10 75 18 3 8 -12 12 -52 12 -31 0 -56 3 -56 6 0 3 34 45 75 94 41 48 72 89
70 91 -2 3 -24 3 -49 1 -44 -4 -48 -7 -121 -97 l-76 -94 -56 -3 c-32 -2 -58
-8 -60 -15 -3 -8 11 -13 40 -15 l45 -3 -76 -92 c-43 -50 -108 -119 -147 -153
-38 -33 -103 -83 -143 -110 -47 -32 -84 -50 -103 -50 -18 0 -29 5 -29 14 0 7
12 31 26 52 15 21 75 98 135 171 60 72 109 134 109 137 0 3 -21 4 -47 1 -42
-4 -52 -10 -82 -47 -19 -24 -66 -75 -105 -113 -39 -39 -105 -96 -146 -126 -41
-31 -88 -63 -105 -72 -16 -8 -41 -17 -55 -18 -16 -3 -26 1 -28 11 -1 9 38 63
88 120 49 58 97 119 105 137 8 17 15 41 15 53 0 12 -5 30 -10 41 -8 14 -21 19
-49 19 -22 0 -63 -12 -98 -30 -33 -17 -81 -48 -106 -70 -25 -22 -48 -40 -51
-40 -3 0 30 44 72 98 43 53 109 137 147 186 l69 89 -44 -7 c-24 -4 -45 -8 -45
-9 0 -1 -34 -42 -75 -92 -40 -49 -119 -137 -174 -194 -56 -57 -146 -140 -201
-186 -55 -45 -116 -92 -135 -104 -19 -11 -45 -21 -57 -21 -14 0 -23 6 -23 15
0 9 8 28 17 43 10 15 59 79 110 142 50 63 103 127 117 141 14 15 22 30 19 33
-4 3 -23 6 -44 6 -30 0 -43 -7 -68 -35 -24 -28 -31 -32 -31 -17 0 10 -8 26
-18 35 -10 10 -35 17 -55 17 -20 0 -59 -8 -85 -18 -27 -11 -69 -33 -94 -50
-25 -17 -65 -51 -90 -75 -25 -24 -57 -65 -73 -91 -20 -33 -28 -61 -28 -98 -1
-41 3 -54 22 -69 13 -11 34 -19 47 -19 14 0 41 7 61 15 20 9 56 31 79 50 23
19 45 35 48 35 3 0 6 -15 6 -33 0 -20 8 -41 18 -50 10 -10 29 -17 41 -17 12 0
41 10 64 21 23 12 69 43 102 68 33 25 91 75 130 111 l69 65 -75 -90 c-41 -49
-141 -170 -222 -267 -81 -98 -147 -180 -147 -183 0 -3 20 -5 43 -5 l44 0 108
133 c60 72 147 176 194 231 46 54 120 128 163 165 43 36 106 83 140 104 34 20
72 37 84 37 13 0 25 -4 28 -9 3 -5 -7 -24 -22 -44 -15 -19 -60 -73 -100 -119
-41 -47 -77 -99 -84 -121 -8 -27 -8 -43 0 -62 6 -13 23 -27 37 -31 15 -4 44 0
69 10 24 9 64 30 89 46 24 17 66 49 92 72 l47 41 -21 -39 c-12 -21 -21 -53
-21 -70 0 -17 8 -38 18 -47 10 -10 32 -17 49 -17 16 0 52 12 79 26 26 14 66
40 89 57 22 17 55 44 74 61 34 30 34 30 18 4 -9 -15 -19 -44 -23 -66 -5 -32
-2 -44 15 -61 13 -13 34 -21 54 -21 18 0 55 11 83 25 27 13 78 47 112 75 l63
51 -7 -48 c-5 -40 -2 -53 16 -75 13 -17 31 -28 46 -28 14 0 41 7 61 15 21 9
60 33 88 54 l50 38 -3 -38 c-3 -31 0 -40 22 -54 18 -12 36 -15 60 -11 20 4 59
23 87 42 29 19 79 58 112 87 56 48 59 49 43 20 -9 -18 -16 -52 -16 -76 0 -30
6 -49 18 -60 10 -10 30 -17 44 -17 14 0 40 5 59 12 19 6 57 26 86 44 29 18 86
65 127 105 42 39 73 75 70 80 -3 5 -39 -21 -80 -57 -42 -36 -103 -83 -136
-105 -40 -25 -73 -39 -95 -39 -28 0 -33 4 -33 23 0 13 18 51 39 84 22 34 70
100 108 148 58 75 85 99 185 166 64 43 161 115 216 158 54 44 133 116 174 160
42 44 85 100 97 124 12 24 21 51 21 59 0 9 -7 24 -16 32 -8 9 -25 16 -37 16
-12 0 -40 -9 -62 -19z m74 -25 c10 -11 9 -21 -3 -44 -8 -16 -35 -54 -60 -84
-25 -30 -87 -91 -138 -135 -51 -44 -129 -106 -173 -139 -44 -33 -96 -71 -115
-84 l-35 -24 40 49 c109 137 189 230 285 328 57 60 120 117 140 127 19 11 38
19 41 20 4 0 12 -6 18 -14z m-2785 -582 c9 -3 16 -16 16 -28 0 -12 -14 -44
-31 -72 -18 -27 -66 -83 -108 -125 -42 -42 -95 -86 -118 -98 -23 -11 -54 -21
-68 -21 -19 0 -25 5 -25 20 0 12 7 35 16 53 9 18 39 60 66 94 27 34 72 83 101
109 29 26 66 53 82 60 17 7 35 13 42 14 6 0 18 -3 27 -6z m1764 -21 c2 -12 -6
-39 -17 -61 -11 -22 -54 -75 -96 -120 -41 -44 -97 -94 -124 -111 -26 -17 -60
-31 -74 -31 -23 0 -27 4 -27 29 0 17 16 53 40 89 22 33 70 89 106 126 36 36
82 75 102 86 20 11 48 19 62 17 17 -1 26 -9 28 -24z M4706 1260 c-21 -11 -62
-37 -91 -59 -29 -22 -90 -77 -136 -123 -45 -46 -135 -144 -198 -219 -64 -75
-144 -170 -178 -211 -34 -42 -106 -114 -160 -161 -54 -46 -125 -103 -157 -126
-36 -24 -71 -41 -88 -41 -16 0 -28 5 -28 13 0 7 13 33 28 58 16 24 74 100 130
168 56 68 102 128 102 133 0 4 -18 8 -40 8 -32 0 -45 -6 -67 -30 l-27 -31 -13
25 c-8 14 -25 29 -39 32 -14 4 -43 4 -65 1 -22 -3 -65 -17 -95 -32 -29 -14
-90 -60 -135 -101 -45 -41 -115 -102 -155 -135 -40 -33 -93 -71 -116 -84 -24
-14 -55 -25 -70 -25 -16 0 -28 3 -28 6 0 14 29 55 98 138 41 49 81 105 89 124
8 20 11 46 8 63 -4 16 -15 34 -25 39 -10 6 -29 10 -42 10 -12 0 -46 -12 -75
-26 -29 -15 -77 -49 -107 -75 -30 -27 -57 -49 -60 -49 -4 0 0 13 9 30 8 16 15
42 15 58 0 16 -8 36 -18 45 -10 10 -26 17 -36 17 -9 0 -33 -7 -53 -15 -19 -8
-88 -66 -152 -128 -64 -62 -141 -133 -171 -159 -30 -25 -69 -53 -87 -62 -18
-9 -41 -16 -53 -16 -11 0 -20 6 -20 13 0 7 13 33 28 58 16 24 75 100 130 169
56 69 102 128 102 132 0 5 -17 8 -37 8 -28 0 -45 -8 -70 -32 -23 -22 -33 -27
-33 -17 0 9 -9 24 -20 34 -15 14 -31 17 -69 13 -27 -3 -73 -17 -103 -31 -29
-15 -78 -46 -108 -70 -30 -24 -73 -69 -94 -101 -33 -46 -41 -67 -44 -115 -4
-51 -1 -62 18 -81 18 -18 30 -21 62 -17 22 3 62 21 91 41 29 20 61 42 72 51
20 14 21 13 17 -21 -3 -24 1 -41 13 -54 10 -11 30 -20 45 -20 14 0 50 12 79
26 35 18 107 78 212 179 87 84 175 160 195 170 24 11 39 14 46 7 6 -6 6 -18
-3 -33 -6 -13 -31 -49 -55 -79 -23 -30 -80 -100 -127 -155 l-85 -100 43 -3 44
-3 148 149 c81 81 167 161 190 176 23 15 59 34 80 41 21 7 42 10 46 5 5 -4 4
-17 -2 -28 -6 -12 -45 -60 -86 -109 -41 -48 -82 -102 -90 -120 -8 -17 -15 -43
-15 -57 0 -14 10 -36 21 -47 17 -17 29 -20 61 -16 21 3 64 20 94 39 31 18 80
55 110 81 47 43 53 45 44 22 -5 -14 -10 -42 -10 -61 0 -24 8 -43 25 -59 14
-15 36 -25 53 -25 15 0 50 11 78 25 27 14 64 38 82 55 l32 31 0 -39 c0 -25 7
-45 18 -55 10 -10 29 -17 43 -17 13 0 44 9 68 20 23 11 62 34 85 52 22 17 69
56 104 86 34 29 62 52 62 49 0 -2 -7 -19 -16 -37 -9 -18 -19 -52 -22 -76 -4
-36 -1 -46 21 -68 19 -19 37 -26 64 -26 21 0 62 11 91 25 29 13 73 39 99 56
25 18 79 64 120 102 40 38 70 73 67 78 -3 6 -36 -17 -72 -49 -37 -32 -96 -80
-130 -105 -35 -26 -86 -53 -113 -61 -27 -9 -56 -13 -64 -10 -7 3 -16 13 -20
21 -3 9 6 39 19 67 14 28 61 99 105 157 43 59 90 114 102 123 13 10 69 47 124
83 55 36 138 96 185 133 47 37 113 97 147 132 33 35 75 86 92 113 17 27 31 61
31 76 0 15 -7 35 -16 43 -8 9 -25 16 -37 16 -12 -1 -39 -9 -61 -20z m84 -38
c0 -10 -14 -40 -30 -66 -17 -26 -62 -78 -100 -115 -38 -38 -105 -96 -147 -129
-43 -34 -111 -85 -152 -114 -41 -28 -71 -45 -66 -37 5 8 49 64 99 124 49 61
124 148 165 194 42 46 98 101 124 123 31 24 59 38 78 38 21 0 29 -5 29 -18z
m-2302 -583 c2 -16 -11 -46 -38 -86 -22 -33 -72 -90 -110 -127 -38 -36 -88
-75 -111 -86 -22 -12 -50 -20 -62 -18 -17 2 -22 9 -20 32 1 16 19 54 39 85 20
31 69 88 108 126 39 39 87 78 106 88 19 9 46 16 60 15 19 -2 26 -10 28 -29z
m1263 15 c11 -14 9 -24 -16 -72 -16 -31 -66 -93 -110 -139 -57 -58 -97 -90
-139 -109 -51 -23 -60 -25 -73 -11 -13 13 -13 20 6 62 11 26 43 75 71 110 28
35 72 81 98 103 26 22 61 46 77 55 17 9 40 16 51 17 12 0 28 -7 35 -16z M7601
911 c-12 -12 -21 -27 -21 -34 0 -7 6 -21 13 -31 8 -11 22 -17 37 -14 12 1 32
16 44 31 16 21 18 32 10 45 -6 9 -23 18 -37 20 -16 2 -34 -5 -46 -17z"/>
</g>
</svg>
