<?xml version="1.0" standalone="no"?>
<!DOCTYPE svg PUBLIC "-//W3C//DTD SVG 20010904//EN"
 "http://www.w3.org/TR/2001/REC-SVG-20010904/DTD/svg10.dtd">
<svg version="1.0" xmlns="http://www.w3.org/2000/svg"
 width="980.000000pt" height="190.000000pt" viewBox="0 0 980.000000 190.000000"
 preserveAspectRatio="xMidYMid meet">
<metadata>
Created by potrace 1.16, written by Peter Selinger 2001-2019
</metadata>
<g transform="translate(0.000000,190.000000) scale(0.100000,-0.100000)"
fill="#f1ead8" stroke="none">
<path d="M2646 1625 c-32 -13 -83 -40 -112 -59 l-54 -36 -49 25 c-27 13 -82
34 -123 46 -54 16 -111 23 -218 26 -122 5 -164 2 -258 -16 -62 -12 -145 -33
-185 -48 -40 -14 -110 -45 -157 -68 -47 -24 -114 -64 -149 -88 -35 -25 -93
-74 -128 -109 -36 -34 -84 -92 -108 -128 -24 -36 -53 -93 -64 -127 -12 -34
-21 -82 -21 -105 0 -24 5 -60 11 -81 5 -21 24 -54 42 -74 18 -20 52 -45 76
-56 27 -12 77 -21 126 -25 58 -3 106 1 161 13 43 9 117 35 164 56 47 22 117
65 157 95 39 30 95 83 123 117 28 34 65 91 81 126 19 38 33 86 36 120 5 51 3
60 -21 88 -15 17 -43 37 -63 44 -21 7 -59 9 -94 6 -31 -4 -87 -18 -124 -32
-37 -14 -98 -46 -136 -71 -39 -25 -98 -74 -133 -108 -34 -34 -81 -89 -103
-122 -22 -32 -43 -65 -47 -71 -4 -7 -3 -13 2 -13 5 0 26 25 46 55 21 30 68 84
104 120 36 36 96 86 133 111 38 25 97 57 131 72 52 21 79 26 151 27 81 0 90
-2 108 -24 10 -13 19 -37 19 -55 0 -17 -13 -59 -29 -93 -18 -38 -57 -90 -103
-138 -40 -43 -99 -98 -131 -122 -31 -24 -94 -64 -140 -88 -45 -24 -109 -51
-142 -61 -34 -10 -94 -18 -140 -18 -64 0 -90 5 -128 23 -28 13 -58 38 -72 59
-20 29 -25 49 -25 100 0 36 8 85 19 117 10 29 36 79 57 111 21 32 68 87 104
123 36 36 101 90 143 119 43 29 120 74 172 98 53 25 148 59 213 75 83 21 152
32 237 36 71 3 151 1 195 -6 41 -6 102 -21 136 -32 34 -12 71 -29 84 -39 l22
-17 -33 -23 c-19 -13 -76 -65 -127 -114 -52 -50 -122 -125 -156 -166 -35 -41
-125 -158 -201 -260 -76 -102 -170 -223 -209 -270 -39 -47 -100 -114 -136
-149 -36 -35 -92 -84 -125 -109 -33 -24 -85 -57 -115 -72 -30 -15 -79 -35
-109 -44 -30 -9 -90 -16 -133 -16 -48 0 -93 6 -116 15 -20 9 -47 26 -59 37
-13 12 -23 27 -23 34 0 8 6 11 15 8 8 -4 26 -3 40 0 13 3 29 16 36 27 6 11 8
32 5 45 -4 14 -18 29 -33 35 -19 7 -35 6 -55 -2 -16 -6 -33 -20 -38 -30 -6
-10 -10 -35 -10 -57 0 -25 8 -49 21 -66 11 -15 40 -36 62 -48 33 -17 64 -23
143 -26 80 -3 119 0 185 17 46 12 121 39 166 60 45 22 110 59 145 82 35 24
106 86 158 138 53 53 130 143 171 201 42 58 133 190 204 293 71 104 164 230
206 281 43 51 94 108 115 126 l38 33 27 -32 c14 -17 31 -49 38 -70 6 -21 11
-61 11 -89 0 -27 -9 -79 -20 -114 -11 -37 -41 -95 -69 -135 -27 -38 -73 -91
-101 -115 -29 -25 -78 -59 -109 -74 -48 -25 -68 -29 -136 -29 -44 0 -86 2 -94
5 -7 3 -15 0 -18 -6 -2 -6 11 -18 29 -25 19 -8 65 -14 108 -13 50 0 97 8 141
22 36 13 87 36 112 52 25 15 63 45 86 65 22 20 56 61 76 91 20 30 45 80 56
112 16 44 20 75 16 137 -2 57 -10 92 -26 123 -12 24 -38 61 -58 83 -30 33 -34
42 -22 50 8 5 43 27 79 49 36 21 77 42 93 45 15 4 27 13 27 21 0 8 -3 14 -7
14 -5 0 -34 -11 -67 -25z M5615 1476 c-38 -8 -100 -25 -136 -38 -37 -14 -86
-36 -111 -51 -24 -14 -67 -46 -94 -70 -27 -25 -62 -68 -77 -96 -15 -28 -30
-72 -34 -98 -3 -26 0 -67 6 -90 6 -23 23 -56 37 -73 15 -17 45 -41 68 -55 36
-21 76 -33 173 -51 20 -4 18 -9 -32 -83 -29 -43 -63 -105 -75 -138 -12 -32
-25 -91 -28 -130 -4 -64 -2 -79 22 -128 21 -42 38 -61 74 -83 43 -25 55 -27
147 -26 88 0 109 4 180 32 44 17 107 50 140 72 33 22 86 65 117 97 32 31 69
79 83 107 15 30 25 67 25 93 0 34 -6 49 -25 67 -14 13 -40 27 -58 30 -18 3
-57 2 -86 -4 -29 -5 -85 -26 -124 -47 -52 -27 -97 -62 -162 -127 -49 -50 -101
-111 -114 -135 -13 -24 -19 -42 -14 -40 6 2 32 33 59 69 27 35 80 91 119 123
38 32 101 74 140 93 43 21 93 37 125 41 47 4 59 2 83 -17 19 -15 27 -30 27
-53 0 -18 -13 -55 -29 -83 -16 -28 -61 -80 -100 -116 -41 -38 -104 -83 -150
-107 -43 -22 -104 -47 -137 -56 -32 -8 -81 -15 -109 -15 -27 0 -69 9 -92 19
-24 11 -48 31 -56 48 -8 15 -17 40 -20 54 -4 14 0 52 8 83 8 31 26 78 39 104
13 26 51 84 84 127 33 44 72 92 86 108 18 18 37 27 57 27 17 0 77 9 132 21 56
11 156 38 222 60 66 22 171 64 233 94 61 30 145 77 186 105 41 28 98 76 126
106 28 29 57 69 65 89 8 19 15 44 15 55 0 12 -13 35 -29 51 -26 26 -36 29 -94
29 -35 0 -99 -9 -143 -20 -43 -11 -134 -47 -201 -79 -67 -33 -166 -88 -220
-123 -54 -35 -141 -97 -193 -139 -52 -41 -132 -111 -178 -153 l-82 -78 -48 6
c-26 4 -69 14 -96 23 -27 8 -66 31 -87 50 -24 22 -43 50 -50 75 -5 22 -7 54
-4 71 4 18 19 54 33 81 15 26 51 71 82 98 30 27 91 67 135 89 44 22 112 49
150 61 55 16 103 22 225 24 85 2 160 4 165 4 6 0 1 6 -10 12 -12 7 -77 13
-160 15 -89 1 -166 -3 -210 -11z m956 -46 c13 -7 19 -21 19 -42 0 -18 -11 -48
-26 -70 -15 -21 -50 -57 -78 -81 -28 -25 -82 -65 -121 -89 -38 -25 -106 -63
-150 -85 -44 -22 -123 -57 -176 -76 -53 -20 -139 -47 -190 -61 -52 -13 -119
-27 -149 -30 l-55 -7 90 87 c50 47 131 118 180 158 50 40 131 101 182 135 50
34 130 80 176 102 47 22 107 47 134 54 26 7 70 14 96 14 27 1 57 -4 68 -9z
M9175 1271 c-22 -10 -74 -45 -116 -79 -41 -33 -118 -105 -170 -159 -52 -55
-152 -169 -223 -254 -70 -85 -145 -175 -167 -201 -21 -25 -78 -80 -127 -121
-48 -41 -110 -89 -137 -106 -27 -17 -59 -31 -72 -31 -13 0 -23 5 -23 11 0 6 5
20 12 32 6 12 31 49 56 82 25 33 81 101 123 151 43 51 75 95 72 98 -4 3 -22 6
-41 6 -27 0 -42 -8 -68 -36 -28 -29 -34 -32 -34 -16 0 10 -8 26 -18 35 -11 10
-35 17 -59 17 -26 0 -65 -13 -113 -36 -51 -26 -100 -63 -168 -128 -54 -51
-121 -112 -151 -135 -30 -23 -72 -51 -92 -62 -21 -10 -50 -19 -64 -19 -17 0
-25 5 -25 18 0 10 13 38 29 63 15 24 79 107 140 184 l113 140 71 5 c44 3 72
10 75 18 3 8 -12 12 -52 12 -31 0 -56 3 -56 7 0 3 33 45 74 94 41 48 73 89 71
91 -2 2 -24 2 -49 0 -44 -4 -48 -7 -121 -97 l-75 -94 -57 -3 c-34 -2 -58 -8
-61 -15 -2 -9 10 -13 43 -13 l46 0 -63 -77 c-34 -43 -85 -100 -113 -127 -27
-26 -87 -77 -131 -112 -45 -35 -101 -73 -125 -83 -23 -11 -48 -17 -56 -14 -7
3 -13 10 -13 17 0 6 9 26 20 44 11 18 72 96 135 172 62 76 112 140 110 142 -3
2 -24 2 -49 -2 -40 -5 -50 -12 -113 -85 -38 -44 -112 -115 -164 -158 -51 -42
-122 -91 -156 -108 -34 -17 -66 -28 -72 -24 -6 3 -11 12 -11 19 0 7 39 57 86
112 47 54 94 116 105 136 10 21 19 48 19 62 0 13 -7 32 -16 40 -8 9 -30 16
-48 16 -18 0 -60 -14 -93 -30 -33 -17 -81 -48 -106 -70 -25 -22 -48 -40 -51
-40 -3 0 29 44 72 98 43 53 109 137 147 186 l69 89 -44 -7 c-24 -4 -45 -8 -45
-9 0 -1 -34 -42 -75 -92 -40 -49 -117 -134 -169 -189 -53 -54 -135 -132 -183
-173 -49 -41 -111 -90 -139 -109 -28 -19 -62 -34 -75 -34 -15 0 -24 6 -24 15
0 9 8 28 17 43 9 15 53 72 97 127 44 55 95 118 113 139 18 22 33 43 33 48 0 5
-18 8 -41 6 -32 -1 -47 -9 -70 -35 -23 -27 -29 -30 -29 -15 0 10 -9 27 -20 37
-15 14 -31 17 -69 13 -27 -3 -73 -17 -103 -31 -29 -15 -79 -48 -110 -74 -32
-26 -72 -68 -90 -92 -17 -24 -37 -65 -44 -90 -7 -29 -8 -57 -3 -76 5 -16 17
-36 26 -42 9 -7 28 -13 42 -13 13 0 43 9 66 20 23 11 60 36 83 56 l42 36 0
-40 c0 -25 6 -45 18 -55 10 -10 29 -17 41 -17 12 0 41 10 64 21 23 12 69 43
102 68 33 25 91 75 130 111 38 36 57 49 41 30 -16 -19 -116 -140 -223 -267
-106 -128 -193 -235 -193 -238 0 -3 20 -5 43 -5 l44 0 108 133 c60 72 147 176
194 231 46 54 120 128 163 165 43 36 106 83 140 104 34 20 72 37 84 37 13 0
25 -4 28 -9 3 -5 -7 -24 -22 -44 -15 -19 -60 -73 -100 -119 -41 -47 -77 -99
-84 -121 -8 -27 -8 -43 0 -62 6 -13 23 -27 37 -31 15 -4 44 0 69 10 24 9 64
30 89 46 24 17 66 49 92 72 l47 41 -21 -39 c-12 -21 -21 -53 -21 -71 0 -22 7
-37 22 -47 12 -9 33 -16 46 -16 13 0 47 11 75 25 27 14 68 40 91 57 23 17 56
45 75 62 34 30 34 30 18 4 -9 -15 -19 -44 -23 -66 -5 -32 -2 -44 15 -61 13
-13 34 -21 54 -21 18 0 55 11 83 25 27 13 78 47 112 75 l63 51 -7 -50 c-6 -44
-4 -52 19 -75 15 -14 35 -26 47 -26 11 0 37 7 57 15 21 9 60 33 88 54 l50 38
-3 -38 c-3 -31 0 -40 22 -54 18 -12 36 -15 60 -11 19 4 59 23 88 43 29 20 79
58 110 85 l58 50 -15 -36 c-8 -19 -15 -53 -15 -75 0 -30 6 -44 22 -55 12 -9
34 -16 49 -16 14 0 58 16 96 35 45 22 101 64 156 116 48 44 84 85 81 90 -3 6
-27 -9 -52 -33 -26 -24 -74 -64 -107 -89 -33 -25 -74 -53 -92 -63 -18 -9 -46
-16 -63 -16 -25 0 -30 4 -30 23 0 13 18 51 39 84 22 34 70 100 108 148 58 75
85 99 185 166 64 43 161 115 216 158 54 44 133 116 174 160 42 44 85 100 97
124 12 24 21 51 21 59 0 9 -7 24 -16 32 -8 9 -25 16 -37 16 -12 0 -40 -9 -62
-19z m74 -25 c10 -11 7 -24 -10 -58 -12 -23 -61 -81 -108 -128 -47 -47 -135
-124 -196 -171 -60 -46 -132 -100 -160 -119 l-50 -34 40 50 c86 108 175 212
236 279 35 39 87 91 114 116 28 26 64 53 80 62 17 9 33 16 36 17 4 0 12 -6 18
-14z m-2771 -604 c2 -12 -9 -44 -24 -69 -15 -26 -64 -84 -108 -129 -45 -45
-100 -91 -123 -103 -23 -11 -54 -21 -68 -21 -19 0 -25 5 -25 23 0 12 14 46 31
76 17 30 68 91 113 137 45 46 98 90 117 99 19 8 45 14 59 12 18 -1 26 -9 28
-25z m1750 1 c2 -12 -4 -38 -13 -57 -9 -19 -52 -73 -96 -119 -43 -47 -100 -99
-127 -116 -27 -17 -61 -31 -75 -31 -23 0 -27 4 -27 29 0 17 16 53 40 88 22 33
68 89 104 126 35 36 81 75 103 86 21 11 49 20 63 18 17 -1 26 -9 28 -24z
M4687 1248 c-31 -17 -94 -65 -140 -107 -45 -42 -109 -105 -142 -141 -34 -36
-88 -96 -121 -135 -33 -38 -97 -115 -141 -170 -45 -55 -103 -121 -129 -146
-27 -25 -76 -68 -109 -96 -33 -28 -87 -69 -119 -92 -36 -24 -71 -41 -88 -41
-17 0 -28 5 -28 14 0 7 18 40 39 72 22 33 80 109 130 169 50 61 91 112 91 115
0 3 -18 6 -39 8 -33 2 -45 -3 -65 -25 -14 -15 -26 -31 -26 -35 0 -5 -4 -8 -10
-8 -5 0 -7 6 -4 14 3 8 -4 24 -16 36 -19 19 -31 22 -75 18 -29 -3 -78 -17
-110 -33 -32 -15 -90 -58 -129 -95 -39 -37 -111 -100 -161 -140 -49 -40 -114
-84 -142 -97 -29 -14 -57 -22 -63 -18 -5 3 -10 12 -10 19 0 6 41 61 90 121 54
66 94 124 100 146 7 24 7 46 0 63 -5 15 -20 28 -36 32 -15 4 -43 1 -63 -6 -20
-7 -56 -26 -81 -43 -25 -16 -64 -48 -87 -70 -24 -23 -43 -37 -43 -32 1 6 7 21
15 35 8 14 14 39 15 56 0 18 -8 38 -18 47 -10 10 -26 17 -36 17 -9 0 -33 -7
-53 -15 -20 -9 -86 -64 -147 -123 -61 -60 -136 -130 -165 -156 -30 -26 -72
-56 -93 -67 -20 -10 -46 -19 -58 -19 -11 0 -20 6 -20 13 0 7 13 33 28 58 16
24 75 100 130 169 56 69 102 128 102 133 0 4 -19 5 -42 1 -29 -4 -52 -15 -70
-35 -24 -25 -28 -26 -28 -11 0 11 -8 26 -18 35 -10 10 -35 17 -55 17 -20 0
-59 -9 -87 -19 -27 -10 -78 -39 -113 -64 -35 -25 -82 -69 -104 -99 -23 -29
-46 -66 -52 -81 -6 -16 -11 -48 -11 -73 0 -31 6 -50 21 -65 17 -17 29 -20 61
-16 22 3 62 21 91 41 29 20 61 42 72 51 20 14 21 13 17 -21 -3 -24 1 -41 13
-54 10 -11 30 -20 45 -20 14 0 50 12 79 26 35 18 107 78 212 179 87 84 175
160 195 170 24 11 39 14 46 7 6 -6 6 -18 -3 -33 -6 -13 -31 -49 -55 -79 -23
-30 -80 -100 -127 -155 l-85 -100 44 -3 44 -3 122 127 c68 70 149 147 180 171
32 24 79 53 104 64 32 15 49 18 57 10 7 -7 3 -22 -15 -48 -14 -21 -51 -67 -83
-103 -31 -36 -65 -82 -76 -102 -10 -21 -19 -49 -19 -63 0 -14 9 -34 20 -45 11
-11 31 -20 45 -20 14 0 42 7 62 15 21 9 62 34 93 57 30 22 70 55 89 72 26 23
32 26 26 11 -5 -11 -10 -39 -13 -62 -3 -35 0 -46 22 -67 15 -16 36 -26 54 -26
15 0 50 11 78 25 27 14 63 38 81 55 18 16 34 30 35 30 2 0 2 -16 0 -35 -3 -25
1 -42 14 -56 15 -17 27 -20 57 -16 21 3 63 20 93 39 31 18 93 66 139 105 84
73 85 73 64 32 -12 -22 -24 -60 -27 -84 -4 -37 -1 -47 21 -69 19 -19 37 -26
64 -26 21 0 62 11 91 25 29 13 73 39 99 56 25 18 79 64 120 102 40 38 70 73
67 78 -3 5 -37 -19 -77 -54 -40 -34 -96 -79 -125 -101 -29 -21 -75 -47 -103
-57 -28 -11 -59 -17 -69 -14 -10 3 -21 13 -24 21 -3 9 2 35 13 57 10 23 43 76
72 117 30 42 70 96 89 121 23 31 74 71 150 120 63 41 158 108 210 150 52 42
121 103 152 136 31 33 70 82 87 108 17 27 31 61 31 76 0 15 -7 35 -16 43 -8 9
-25 16 -37 16 -12 0 -48 -15 -80 -32z m103 -23 c0 -9 -9 -34 -20 -56 -12 -22
-56 -75 -98 -117 -42 -42 -115 -107 -162 -143 -47 -36 -115 -87 -152 -113 -38
-26 -68 -45 -68 -42 0 3 43 58 97 123 53 65 130 156 172 202 42 46 98 101 124
123 31 24 59 38 78 38 19 0 29 -5 29 -15z m-2302 -586 c2 -16 -11 -46 -38 -86
-22 -33 -72 -90 -110 -127 -38 -36 -88 -75 -111 -86 -22 -12 -50 -20 -62 -18
-17 2 -22 9 -20 32 1 16 19 54 39 85 21 31 69 88 108 126 39 39 87 79 106 88
19 9 46 16 60 15 19 -2 26 -10 28 -29z m1263 15 c11 -14 9 -25 -16 -72 -17
-32 -65 -93 -110 -139 -57 -58 -98 -90 -139 -109 -50 -23 -60 -24 -72 -12 -12
11 -12 21 -3 49 6 18 36 67 67 107 30 40 78 92 106 116 28 24 65 51 81 59 17
9 40 16 51 17 12 0 28 -7 35 -16z M7608 918 c-9 -7 -19 -23 -22 -34 -4 -14 -1
-28 10 -38 9 -10 26 -16 37 -14 11 2 29 15 40 29 15 22 17 30 8 48 -7 12 -21
21 -34 21 -13 0 -30 -6 -39 -12z"/>
</g>
</svg>
