<?xml version="1.0" encoding="UTF-8"?>
<svg xmlns="http://www.w3.org/2000/svg" viewBox="0 0 600 430" width="600" height="430" fill="none">
  <title>Layered spline reconstruction</title>
  <g fill="#f1ead8" stroke="none">
    <g opacity="0.08333333" transform="translate(0,430) scale(0.100000,-0.100000)">
      <path d="M4260 3841 c-114 -17 -199 -51 -291 -116 -64 -46 -97 -62 -144 -69
      -27 -4 -58 0 -95 13 -30 11 -57 17 -60 14 -3 -2 8 -15 23 -29 39 -33 128 -57
      193 -52 30 3 54 4 54 2 0 -1 -37 -24 -81 -50 -45 -26 -111 -59 -148 -73 -55
      -20 -84 -25 -171 -25 -98 -1 -110 1 -172 31 -38 17 -68 28 -68 23 0 -4 21 -26
      46 -48 45 -41 174 -102 213 -102 37 0 22 -17 -20 -24 -54 -9 -142 -55 -204
      -106 -81 -68 -99 -75 -203 -75 -77 0 -90 -2 -75 -13 10 -7 35 -17 57 -23 29
      -8 56 -8 96 0 53 11 67 19 208 121 36 26 78 44 135 59 121 31 216 61 221 70 3
      4 -30 6 -74 3 -54 -3 -100 1 -149 13 -39 9 -73 20 -75 24 -2 3 35 6 82 6 70 0
      102 6 165 29 42 15 114 51 160 78 112 69 222 123 282 140 49 14 95 14 95 0 0
      -4 -38 -27 -85 -51 -47 -24 -122 -74 -167 -110 -46 -36 -137 -122 -203 -191
      -264 -275 -444 -447 -530 -509 -95 -67 -247 -148 -354 -188 -106 -40 -246 -71
      -461 -103 -233 -35 -353 -71 -475 -141 -43 -24 -108 -72 -145 -106 l-68 -63
      -86 0 c-48 0 -121 -7 -163 -16 -169 -35 -301 -111 -431 -248 -72 -76 -91 -105
      -141 -210 -32 -66 -71 -150 -87 -185 -16 -35 -47 -83 -70 -106 -26 -27 -83
      -64 -153 -100 -127 -65 -208 -133 -258 -217 -18 -29 -42 -89 -53 -132 -20 -80
      -27 -166 -12 -166 4 0 16 16 26 35 28 52 119 133 178 159 29 13 98 36 153 50
      145 40 235 87 314 166 36 36 80 93 98 125 17 33 48 116 67 185 20 69 55 163
      78 210 33 69 57 101 127 170 63 63 107 96 166 127 73 38 185 78 185 67 0 -2
      -13 -28 -29 -57 -16 -28 -39 -85 -52 -126 -26 -89 -30 -200 -10 -344 8 -54 11
      -120 8 -147 -3 -27 -15 -66 -26 -87 -25 -50 -105 -125 -168 -157 -27 -13 -57
      -36 -66 -50 -9 -14 -28 -67 -41 -118 -29 -112 -68 -218 -98 -267 -12 -20 -51
      -66 -85 -103 -51 -55 -63 -73 -63 -101 0 -18 -5 -38 -12 -45 -7 -7 -35 -12
      -64 -12 -43 0 -56 -5 -79 -27 -15 -16 -36 -47 -46 -71 -22 -51 -43 -166 -35
      -188 8 -22 46 -14 133 28 44 22 94 58 143 105 41 39 98 87 125 105 46 31 56
      44 130 192 141 279 222 360 597 590 174 106 252 183 319 311 17 33 41 68 53
      78 39 33 154 87 228 106 84 23 151 33 413 61 200 22 344 47 460 82 106 31 232
      88 315 143 70 47 79 50 141 51 55 1 80 7 141 36 41 19 154 83 250 142 97 58
      202 118 233 132 70 32 84 24 66 -37 -16 -55 -49 -104 -100 -154 -34 -32 -41
      -46 -41 -77 l0 -38 -53 6 c-50 6 -56 4 -89 -25 -40 -35 -85 -128 -94 -195 -6
      -44 -6 -46 18 -46 33 0 124 27 173 52 22 11 61 40 86 63 25 23 66 52 91 63 26
      11 54 32 64 46 9 15 34 78 54 141 21 62 56 147 79 188 33 59 41 85 41 124 0
      65 -31 113 -85 131 -35 11 -51 9 -179 -22 -78 -20 -161 -38 -184 -42 l-44 -7
      23 44 c20 39 24 63 29 214 5 124 11 183 24 220 25 68 32 80 74 127 38 42 98
      78 132 78 16 0 20 -6 20 -30 0 -37 23 -93 55 -135 13 -18 54 -48 92 -68 49
      -26 88 -58 137 -113 66 -72 69 -79 67 -120 -1 -35 3 -49 23 -69 26 -26 72 -42
      84 -30 4 4 -2 12 -12 19 -11 6 -31 21 -44 34 -18 18 -22 29 -17 52 4 16 1 39
      -6 52 -7 13 -40 54 -73 91 -38 42 -83 80 -117 99 -101 53 -149 117 -149 195 0
      21 9 58 20 82 11 24 18 46 15 49 -7 8 -35 -19 -50 -48 -11 -21 -22 -27 -51
      -28 -53 -2 -119 -38 -159 -86 -19 -23 -46 -67 -59 -97 -31 -67 -50 -185 -41
      -255 4 -33 3 -54 -3 -54 -6 0 -12 6 -15 14 -3 7 -25 23 -49 35 -32 15 -62 21
      -109 20 -69 -1 -140 -18 -146 -35 -2 -7 17 -8 64 -2 110 14 180 -5 222 -58 37
      -46 24 -139 -27 -196 -8 -10 -25 -18 -38 -18 -39 0 -134 -40 -170 -73 -36 -31
      -70 -85 -60 -94 3 -4 28 15 56 41 28 26 65 53 83 61 18 7 73 21 123 30 49 9
      164 34 255 56 92 22 175 36 185 33 34 -12 64 -47 70 -80 5 -27 -3 -52 -44
      -132 -27 -54 -64 -143 -82 -198 -18 -54 -42 -110 -54 -123 -11 -13 -36 -30
      -54 -37 -17 -8 -56 -36 -86 -63 -49 -45 -113 -77 -190 -95 -21 -5 -27 -4 -24
      6 3 7 13 37 22 66 10 29 33 68 51 88 27 29 39 34 57 28 13 -4 36 -7 51 -6 26
      1 28 -2 23 -24 -4 -13 -2 -24 3 -24 20 0 33 42 26 88 -6 46 -5 48 41 92 47 46
      114 166 114 206 0 11 -8 28 -18 37 -42 38 -91 19 -354 -139 -205 -124 -298
      -167 -354 -167 -57 0 -86 26 -129 118 -18 39 -46 82 -62 98 -28 26 -93 53 -93
      39 0 -4 22 -26 49 -49 36 -31 54 -56 66 -92 9 -28 28 -67 41 -87 14 -20 21
      -40 17 -43 -5 -3 -30 -21 -57 -39 -64 -46 -195 -105 -297 -136 -104 -31 -253
      -60 -379 -75 -317 -37 -433 -54 -502 -72 -42 -11 -106 -36 -142 -54 -63 -32
      -67 -32 -60 -12 3 12 24 60 45 106 39 84 46 111 30 111 -17 0 -69 -94 -126
      -225 -30 -71 -72 -155 -92 -185 -20 -30 -61 -79 -91 -108 -30 -29 -100 -80
      -154 -115 -239 -150 -319 -207 -405 -290 -50 -48 -112 -120 -138 -159 -26 -38
      -69 -118 -96 -176 -26 -58 -58 -119 -69 -135 -12 -15 -46 -44 -76 -63 -29 -19
      -64 -48 -76 -64 -16 -22 -24 -27 -30 -18 -4 7 -8 31 -8 52 0 25 6 43 17 51 12
      9 16 24 15 49 -2 32 4 42 66 103 49 49 78 89 105 145 20 42 48 118 62 170 46
      165 52 176 125 220 36 22 84 58 107 80 23 22 54 68 68 101 25 55 27 66 21 156
      -3 53 -9 142 -12 199 -7 121 5 198 47 290 36 81 103 175 163 230 61 56 166
      123 244 156 79 33 195 61 342 81 170 23 312 53 430 91 197 64 365 161 542 311
      48 40 149 140 224 221 205 219 352 360 441 424 87 63 246 148 275 148 10 0 18
      5 18 11 0 7 -12 9 -33 5 -36 -7 -97 2 -97 14 0 11 157 30 255 30 67 0 86 3 78
      11 -7 7 -56 14 -110 17 -123 5 -222 -12 -403 -73 -74 -25 -145 -45 -159 -45
      -20 0 -12 8 40 40 105 66 200 109 279 126 134 28 327 2 476 -66 54 -24 65 -26
      81 -15 16 12 11 17 -52 45 -141 64 -346 99 -475 81z m-2585 -1696 c-113 -25
      -243 -95 -337 -183 -67 -62 -133 -156 -165 -234 -14 -35 -39 -110 -55 -166
      -16 -57 -45 -136 -65 -175 -45 -91 -135 -180 -223 -224 -36 -17 -114 -45 -174
      -62 -60 -17 -133 -42 -163 -57 -29 -15 -72 -44 -94 -65 l-40 -37 6 32 c14 65
      65 152 122 209 42 42 89 74 173 117 63 33 129 72 146 87 53 47 84 97 134 217
      26 64 59 135 73 159 49 83 119 167 185 222 81 68 205 131 304 156 40 9 109 18
      153 17 l80 0 -60 -13z m-629 -1705 c2 -14 6 -42 9 -62 4 -33 1 -40 -27 -61
      -41 -31 -112 -67 -132 -67 -11 0 -13 8 -9 38 10 64 43 141 71 162 16 13 37 20
      56 18 23 -2 30 -9 32 -28z M4945 3823 c-56 -30 -103 -73 -140 -129 -21 -31
      -54 -66 -74 -77 -28 -17 -32 -23 -18 -25 36 -7 78 21 117 79 22 31 56 71 77
      88 20 17 38 29 39 28 2 -1 -2 -23 -7 -49 -6 -26 -21 -63 -34 -82 -13 -19 -21
      -37 -18 -40 10 -10 51 25 57 49 4 15 25 34 61 54 53 28 56 29 49 8 -4 -12 -18
      -39 -32 -59 -20 -31 -28 -36 -39 -27 -7 7 -16 9 -19 6 -3 -3 31 -73 75 -155
      61 -114 85 -171 101 -238 11 -49 41 -158 65 -242 25 -84 45 -172 45 -196 0
      -28 -8 -55 -23 -77 -12 -19 -30 -35 -39 -37 -21 -4 -31 39 -17 74 7 21 12 25
      18 15 12 -19 31 -4 31 25 0 17 -5 24 -20 24 -47 0 -82 -77 -61 -133 9 -24 8
      -27 -10 -27 -31 0 -17 -24 15 -28 40 -5 99 38 125 90 11 25 21 58 21 75 0 16
      -25 117 -55 223 -30 107 -60 219 -66 249 -7 34 -39 109 -83 190 l-72 135 24
      23 c24 24 65 108 76 156 4 17 2 27 -5 27 -6 0 -28 -13 -48 -29 -35 -27 -74
      -51 -85 -51 -2 0 0 15 5 32 11 40 12 68 2 68 -5 -1 -21 -8 -38 -17z M4920
      3365 c0 -19 69 -65 97 -65 12 0 28 -7 37 -15 8 -8 17 -15 20 -15 3 0 6 11 6
      24 0 31 -34 56 -75 56 -16 0 -42 7 -57 14 -24 13 -28 13 -28 1z M3550 3163
      c-60 -22 -102 -49 -179 -118 -36 -32 -83 -66 -105 -75 -23 -10 -68 -24 -101
      -31 -57 -11 -58 -12 -30 -20 38 -11 122 4 173 30 22 11 76 53 120 94 45 41
      102 85 127 97 25 12 45 26 45 31 0 5 -1 9 -2 8 -2 0 -23 -8 -48 -16z M1446
      1860 c-8 -22 -29 -96 -46 -165 -16 -69 -45 -159 -64 -200 -19 -41 -58 -108
      -86 -149 -59 -85 -178 -203 -260 -257 -70 -47 -159 -84 -268 -113 -47 -12 -81
      -26 -75 -29 20 -12 162 12 235 41 135 52 271 162 379 305 69 92 118 184 147
      278 11 36 28 114 37 175 10 60 21 119 26 132 15 40 -8 23 -25 -18z"/>
    </g>
    <g opacity="0.09090909" transform="translate(0,430) scale(0.100000,-0.100000)">
      <path d="M4245 3840 c-32 -6 -75 -15 -95 -21 -52 -17 -129 -57 -181 -94 -95
      -68 -143 -81 -216 -61 -107 31 -102 31 -66 -3 42 -39 128 -65 199 -59 30 3 54
      4 54 3 0 -1 -37 -24 -82 -50 -45 -27 -111 -60 -147 -74 -55 -20 -84 -25 -171
      -25 -98 -1 -109 1 -170 31 -35 17 -67 30 -69 27 -3 -2 11 -20 30 -40 37 -38
      151 -98 215 -112 42 -10 41 -11 -50 -38 -35 -10 -83 -36 -118 -63 -33 -25 -81
      -59 -106 -76 -42 -28 -52 -30 -139 -30 -78 0 -90 -2 -76 -13 10 -7 36 -17 58
      -24 58 -16 137 3 200 48 27 19 74 53 103 74 36 26 78 44 135 59 121 31 216 61
      221 70 3 4 -30 6 -74 3 -54 -3 -100 1 -149 13 -39 9 -73 20 -75 24 -2 3 35 6
      82 6 71 0 101 5 165 29 42 15 114 51 160 78 45 28 124 71 175 96 64 31 110 47
      148 50 30 2 54 1 54 -4 0 -5 -38 -29 -85 -53 -47 -24 -122 -74 -167 -110 -46
      -36 -139 -124 -208 -196 -261 -271 -418 -423 -505 -488 -98 -72 -259 -160
      -370 -202 -112 -42 -254 -74 -469 -106 -228 -34 -349 -70 -471 -140 -43 -24
      -108 -72 -145 -106 l-68 -63 -86 0 c-101 0 -214 -21 -304 -57 -139 -56 -289
      -180 -377 -313 -24 -36 -60 -103 -80 -150 -102 -240 -121 -263 -283 -344 -166
      -83 -255 -175 -302 -312 -23 -65 -39 -204 -24 -204 5 0 18 16 28 35 26 49 117
      132 168 155 24 10 93 33 153 50 164 47 243 88 324 170 84 84 125 163 176 340
      20 69 53 157 73 195 25 48 63 97 122 155 63 64 105 96 165 127 44 23 104 48
      133 56 28 9 52 14 52 13 0 -2 -11 -24 -25 -48 -36 -65 -64 -152 -76 -237 -8
      -58 -7 -102 7 -209 9 -74 14 -156 11 -183 -3 -26 -15 -65 -26 -86 -25 -50
      -105 -125 -168 -157 -27 -13 -57 -36 -66 -50 -9 -14 -28 -68 -42 -121 -28
      -110 -68 -213 -103 -270 -14 -22 -51 -68 -83 -102 -49 -51 -59 -67 -59 -97 0
      -42 -17 -54 -76 -53 -22 0 -52 -8 -67 -18 -15 -9 -38 -40 -51 -68 -27 -56 -52
      -177 -42 -203 5 -12 14 -15 37 -10 68 13 165 72 244 146 44 42 99 88 123 103
      24 16 53 44 65 64 11 20 40 78 63 129 22 50 63 125 90 165 57 86 151 183 247
      255 38 28 123 84 190 124 234 141 316 216 391 360 28 53 44 71 88 97 127 76
      227 102 523 133 355 38 518 72 694 148 47 21 120 60 161 87 70 47 79 50 141
      51 55 1 80 7 141 36 41 20 151 81 243 137 191 116 250 147 285 152 22 4 25 1
      24 -28 -2 -47 -41 -116 -95 -169 -42 -41 -49 -54 -49 -86 l0 -38 -53 6 c-50 6
      -56 4 -89 -25 -40 -35 -85 -128 -94 -195 -6 -44 -6 -46 18 -46 34 0 125 28
      178 55 25 13 59 37 75 55 17 18 56 45 87 61 32 16 65 40 74 54 8 13 34 77 56
      142 21 65 57 150 79 189 31 56 39 82 39 121 0 65 -31 113 -85 131 -35 11 -51
      9 -179 -22 -78 -20 -161 -38 -184 -42 l-44 -7 23 44 c20 39 24 64 30 214 4
      122 11 184 24 219 33 94 89 162 157 190 57 24 68 21 68 -17 0 -46 45 -132 85
      -163 18 -14 53 -35 78 -47 26 -13 76 -56 118 -100 69 -75 73 -81 70 -123 -1
      -35 3 -49 23 -69 26 -26 72 -42 84 -30 4 4 -2 12 -12 19 -11 6 -31 21 -44 34
      -18 18 -22 29 -17 52 4 16 1 39 -6 52 -7 13 -41 55 -76 95 -39 43 -81 79 -108
      92 -58 27 -124 87 -142 128 -18 45 -16 101 7 152 11 24 18 46 15 49 -7 8 -35
      -19 -50 -48 -11 -21 -21 -26 -55 -27 -49 -2 -116 -39 -155 -85 -69 -81 -113
      -235 -101 -350 3 -32 2 -58 -3 -58 -5 0 -11 6 -14 14 -3 7 -25 23 -49 35 -33
      16 -62 21 -114 20 -70 -1 -135 -17 -141 -35 -2 -7 20 -8 64 -2 110 14 180 -5
      222 -58 14 -18 21 -41 21 -71 0 -43 -26 -110 -52 -130 -7 -6 -33 -13 -56 -17
      -80 -12 -167 -68 -198 -128 -27 -51 -14 -51 41 1 30 29 70 58 88 66 18 7 84
      23 147 35 63 12 179 37 256 56 151 37 171 36 209 -6 32 -35 25 -92 -23 -180
      -22 -41 -57 -124 -78 -185 -20 -60 -46 -121 -58 -133 -12 -13 -35 -30 -52 -37
      -17 -7 -56 -35 -87 -63 -50 -46 -113 -77 -191 -96 -21 -5 -27 -4 -24 6 3 7 13
      37 22 66 19 55 78 128 96 117 5 -3 28 -7 51 -7 38 0 40 -2 35 -24 -8 -30 9
      -32 25 -3 6 13 8 39 4 65 -6 42 -4 46 44 97 51 54 97 133 107 186 5 23 2 37
      -11 51 -10 11 -31 20 -48 20 -37 0 -142 -53 -317 -160 -187 -115 -286 -162
      -345 -162 -35 0 -53 6 -72 24 -14 13 -40 55 -58 93 -18 39 -45 82 -61 97 -31
      28 -83 52 -93 43 -3 -4 14 -23 38 -43 32 -26 54 -57 78 -112 19 -41 42 -83 51
      -93 10 -11 12 -21 6 -25 -5 -4 -31 -22 -58 -40 -64 -46 -195 -105 -297 -136
      -127 -38 -270 -63 -519 -91 -124 -15 -258 -33 -299 -41 -86 -18 -188 -55 -239
      -86 l-34 -21 7 24 c4 13 25 62 46 108 21 46 39 90 39 97 0 26 -20 14 -47 -28
      -14 -24 -54 -106 -88 -184 -34 -77 -77 -163 -95 -190 -67 -98 -155 -168 -360
      -292 -127 -75 -216 -143 -303 -230 -43 -42 -98 -106 -122 -142 -24 -37 -69
      -120 -100 -185 -31 -66 -66 -130 -77 -143 -12 -12 -41 -33 -64 -47 -22 -13
      -55 -40 -72 -59 -29 -33 -30 -33 -36 -13 -11 42 -6 77 14 97 14 14 18 28 14
      47 -5 25 4 38 63 98 81 83 129 174 168 315 46 167 52 178 125 222 82 50 140
      106 171 166 21 41 24 60 23 147 0 55 -4 150 -9 212 -9 131 2 205 46 301 36 81
      103 175 163 230 66 60 171 126 257 160 89 36 177 55 369 82 80 12 198 34 262
      50 223 56 405 142 585 277 79 59 239 215 503 489 84 88 183 179 235 217 89 66
      257 157 289 157 9 0 16 5 16 11 0 8 -12 10 -33 6 -37 -6 -87 2 -87 13 0 12
      143 30 242 30 68 0 89 3 81 11 -18 18 -184 23 -270 9 -43 -6 -147 -34 -230
      -61 -165 -53 -228 -64 -158 -27 22 11 54 31 70 44 50 38 157 83 236 100 133
      28 326 2 475 -66 54 -24 65 -26 81 -15 16 12 11 17 -52 45 -147 67 -355 101
      -490 80z m-2572 -1695 c-34 -7 -83 -23 -108 -34 -78 -35 -167 -92 -224 -146
      -65 -61 -133 -154 -165 -226 -13 -30 -38 -106 -56 -169 -18 -63 -48 -146 -69
      -185 -47 -91 -136 -180 -221 -222 -36 -17 -114 -45 -174 -62 -60 -17 -132 -42
      -160 -55 -29 -14 -71 -42 -94 -62 l-43 -36 7 28 c3 16 20 57 36 91 44 90 133
      172 245 225 48 23 107 55 131 72 24 17 59 52 78 78 20 26 60 105 90 175 79
      187 147 282 269 380 128 102 291 162 440 162 l80 -1 -62 -13z m-624 -1737 c9
      -52 8 -64 -5 -79 -19 -21 -127 -79 -147 -79 -13 0 -15 8 -10 38 10 64 43 141
      70 162 14 11 38 20 53 20 26 0 29 -4 39 -62z M4945 3823 c-57 -30 -108 -77
      -142 -131 -19 -29 -51 -63 -71 -75 -29 -17 -33 -23 -19 -25 36 -7 78 21 117
      78 37 55 92 110 110 110 14 0 -10 -84 -36 -123 -14 -22 -23 -41 -21 -44 10
      -10 57 30 63 53 4 15 25 34 60 53 52 28 55 29 48 8 -4 -12 -18 -39 -32 -59
      -20 -31 -28 -36 -39 -27 -34 29 -19 -10 55 -149 60 -112 86 -171 101 -235 11
      -47 41 -156 66 -243 25 -87 45 -177 45 -200 0 -26 -8 -53 -23 -75 -12 -19 -30
      -35 -39 -37 -21 -4 -31 39 -17 74 7 21 12 25 18 15 12 -20 31 -4 31 25 0 22
      -4 25 -27 22 -21 -2 -33 -13 -47 -42 -16 -32 -17 -46 -9 -78 9 -34 8 -38 -9
      -38 -30 0 -16 -25 16 -28 40 -5 99 38 125 90 11 25 21 58 21 75 0 16 -25 117
      -55 223 -30 107 -60 219 -66 249 -7 34 -39 109 -83 190 l-72 135 24 23 c38 39
      96 183 73 183 -6 0 -36 -18 -67 -40 -32 -22 -61 -40 -65 -40 -4 0 -3 15 2 32
      11 40 12 68 2 68 -5 -1 -21 -8 -38 -17z M4920 3365 c0 -19 69 -65 97 -65 12 0
      28 -7 37 -15 8 -8 17 -15 20 -15 3 0 6 11 6 23 0 33 -30 57 -71 57 -19 0 -46
      7 -61 14 -24 13 -28 13 -28 1z M3550 3163 c-58 -21 -101 -49 -171 -110 -31
      -28 -72 -60 -91 -71 -20 -12 -68 -29 -109 -39 -64 -14 -70 -17 -49 -25 34 -13
      105 -1 167 27 29 13 86 56 131 98 44 41 101 84 126 96 25 13 46 27 46 32 0 5
      -1 9 -2 8 -2 0 -23 -8 -48 -16z M1441 1845 c-12 -31 -28 -90 -37 -133 -21
      -103 -49 -184 -90 -262 -71 -134 -195 -272 -324 -360 -69 -47 -178 -93 -278
      -117 -39 -9 -69 -20 -66 -25 9 -14 121 2 205 28 45 14 110 46 155 75 91 59
      221 187 281 274 54 80 96 166 121 246 11 36 28 114 37 175 10 60 21 119 26
      132 5 13 5 22 -1 22 -4 0 -18 -25 -29 -55z"/>
    </g>
    <g opacity="0.10000000" transform="translate(0,430) scale(0.100000,-0.100000)">
      <path d="M4245 3840 c-32 -6 -75 -15 -95 -21 -52 -17 -129 -57 -181 -94 -26
      -18 -61 -41 -79 -50 -41 -21 -124 -22 -174 -1 -21 9 -44 16 -50 16 -6 0 4 -14
      21 -30 42 -38 130 -64 199 -58 30 3 54 4 54 3 0 -2 -40 -26 -89 -54 -49 -28
      -116 -61 -148 -72 -32 -11 -92 -23 -133 -26 -56 -4 -92 -1 -135 11 -33 10 -75
      26 -94 37 -18 11 -36 17 -39 14 -3 -3 10 -22 29 -41 36 -39 151 -100 206 -110
      18 -3 33 -10 33 -14 0 -4 -16 -11 -35 -14 -61 -12 -118 -41 -190 -100 -90 -72
      -145 -91 -239 -82 -64 5 -69 4 -51 -9 21 -17 79 -35 111 -35 48 0 120 32 187
      83 40 30 91 64 114 76 22 11 90 32 150 47 94 23 163 47 163 58 0 2 -33 1 -74
      -2 -49 -3 -99 1 -150 12 -41 10 -77 20 -80 24 -2 4 35 7 83 7 106 1 183 25
      302 95 46 28 130 73 187 102 75 37 118 53 158 56 29 2 54 0 54 -5 0 -5 -33
      -25 -73 -45 -40 -20 -111 -64 -157 -99 -47 -35 -146 -127 -220 -204 -287 -297
      -428 -433 -515 -497 -98 -73 -237 -150 -355 -196 -83 -33 -240 -75 -340 -91
      -36 -6 -128 -20 -205 -32 -217 -33 -349 -81 -480 -174 -33 -24 -78 -62 -100
      -84 l-39 -41 -88 0 c-103 0 -215 -21 -306 -57 -35 -14 -97 -48 -138 -74 -138
      -91 -252 -230 -320 -391 -99 -235 -120 -261 -282 -342 -121 -61 -213 -136
      -257 -212 -15 -25 -35 -71 -46 -102 -23 -68 -37 -202 -21 -202 6 0 14 9 17 20
      4 11 31 47 61 80 34 36 76 69 108 84 30 14 102 39 162 57 162 46 244 89 324
      168 81 81 126 167 171 326 17 61 49 148 71 195 33 69 57 100 127 170 64 64
      107 96 166 127 77 40 190 80 183 65 -2 -4 -15 -29 -29 -57 -35 -65 -65 -164
      -74 -240 -4 -39 0 -108 10 -190 10 -72 15 -153 12 -181 -3 -29 -13 -67 -22
      -85 -27 -53 -94 -117 -163 -156 -35 -19 -69 -45 -77 -57 -8 -12 -26 -64 -39
      -116 -14 -52 -31 -113 -39 -136 -31 -87 -81 -169 -143 -235 -54 -57 -64 -74
      -64 -103 0 -42 -17 -54 -76 -53 -22 0 -52 -8 -67 -18 -15 -9 -38 -40 -51 -68
      -28 -58 -53 -175 -42 -202 5 -13 13 -16 37 -11 70 14 162 69 249 149 49 45
      108 96 131 112 44 31 54 49 138 225 31 64 76 137 115 186 36 45 103 112 150
      150 46 38 153 111 238 163 84 52 181 116 216 143 72 58 136 137 180 223 24 48
      40 66 84 92 126 76 247 106 563 137 88 9 212 25 276 36 222 38 421 111 553
      203 60 42 67 44 128 44 57 -1 77 5 149 40 46 22 155 83 242 136 179 110 241
      143 277 148 22 4 25 1 24 -28 -2 -47 -41 -116 -95 -169 -42 -41 -49 -54 -49
      -86 l0 -38 -56 6 c-53 7 -57 5 -89 -26 -40 -38 -83 -129 -91 -194 -6 -44 -6
      -46 18 -46 34 0 125 28 178 55 25 13 59 37 75 55 17 18 56 45 87 61 32 16 65
      40 74 54 8 13 33 76 55 140 21 64 57 149 79 189 31 57 40 83 40 122 0 63 -28
      110 -78 131 -35 15 -43 14 -182 -20 -80 -20 -165 -39 -188 -43 l-44 -7 23 44
      c20 39 24 64 30 214 4 113 12 184 22 211 40 107 90 170 159 198 56 24 68 21
      68 -16 0 -18 11 -56 24 -84 25 -54 68 -93 140 -128 23 -12 75 -56 116 -99 72
      -76 73 -79 71 -125 -1 -39 3 -52 22 -70 26 -24 87 -41 87 -24 0 7 -13 18 -30
      27 -16 8 -34 24 -39 34 -6 10 -8 33 -5 52 5 31 -1 41 -71 121 -53 61 -92 95
      -128 113 -63 32 -115 79 -133 122 -19 45 -17 100 6 152 11 24 18 46 16 48 -8
      8 -27 -8 -46 -39 -15 -25 -26 -31 -61 -34 -51 -5 -117 -41 -154 -86 -69 -81
      -113 -235 -101 -350 l6 -57 -46 32 c-40 28 -55 32 -122 35 -48 2 -92 -2 -116
      -11 -64 -22 -54 -34 21 -25 88 9 166 -6 204 -40 39 -35 48 -94 25 -156 -9 -24
      -24 -50 -34 -58 -9 -9 -37 -18 -60 -22 -80 -12 -167 -68 -198 -128 -26 -50
      -14 -52 34 -6 26 25 65 55 87 66 22 11 92 30 155 42 63 12 177 36 253 55 91
      22 147 31 165 26 29 -8 72 -62 72 -91 0 -9 -22 -61 -48 -116 -27 -54 -63 -143
      -81 -196 -18 -53 -41 -109 -53 -123 -11 -14 -35 -32 -53 -39 -18 -8 -57 -36
      -88 -64 -32 -29 -77 -58 -108 -69 -59 -22 -109 -35 -109 -30 0 2 9 30 20 62
      11 32 32 73 46 92 24 32 28 33 85 31 57 -2 60 -3 54 -25 -3 -13 -1 -23 4 -23
      20 0 33 42 26 85 -6 42 -4 45 53 108 37 41 66 86 80 122 12 31 22 65 22 74 0
      27 -33 51 -67 51 -37 0 -135 -50 -317 -163 -72 -44 -167 -97 -210 -119 -61
      -29 -92 -38 -131 -38 -43 0 -55 4 -77 27 -14 16 -39 57 -56 93 -16 36 -41 77
      -56 91 -35 35 -84 55 -98 41 -7 -7 -2 -15 18 -25 44 -23 70 -55 104 -132 17
      -38 39 -78 47 -88 15 -16 15 -19 -3 -32 -48 -38 -158 -98 -238 -130 -98 -40
      -243 -77 -386 -99 -52 -8 -183 -25 -290 -37 -107 -11 -237 -32 -288 -45 -51
      -13 -125 -38 -163 -57 -63 -30 -69 -31 -63 -13 3 12 24 59 45 105 21 46 39 90
      39 97 0 26 -20 14 -47 -28 -15 -24 -53 -102 -84 -174 -31 -72 -73 -156 -92
      -186 -19 -30 -61 -81 -93 -112 -33 -32 -106 -87 -164 -123 -269 -168 -369
      -243 -462 -350 -71 -80 -105 -134 -173 -276 -34 -73 -73 -141 -86 -153 -13
      -11 -41 -31 -61 -43 -20 -12 -50 -37 -66 -56 -29 -32 -30 -33 -36 -12 -11 42
      -6 77 15 98 13 13 18 27 14 39 -3 11 -1 28 4 39 6 10 37 45 69 78 70 69 119
      164 157 303 14 52 34 115 43 140 15 37 27 50 80 80 35 20 82 56 106 79 81 80
      110 175 92 301 -5 36 -10 126 -10 200 0 121 2 142 26 202 37 99 85 173 158
      249 102 104 236 181 390 223 30 9 134 27 230 41 217 32 374 70 510 124 129 50
      240 112 354 198 116 86 226 193 422 404 89 97 206 211 258 255 114 94 228 165
      314 196 66 24 83 44 29 35 -37 -6 -87 2 -87 13 0 12 143 30 242 30 72 0 89 3
      80 12 -18 18 -193 23 -276 8 -39 -7 -140 -34 -223 -61 -166 -53 -228 -64 -158
      -27 22 11 54 31 70 44 50 38 157 83 236 100 53 11 100 14 165 10 100 -7 215
      -34 290 -68 27 -12 56 -25 66 -29 9 -4 24 -2 35 6 16 12 12 16 -52 45 -147 67
      -355 101 -490 80z m-2574 -1695 c-123 -27 -266 -110 -356 -206 -64 -68 -110
      -134 -141 -205 -13 -30 -38 -105 -55 -167 -17 -62 -47 -143 -67 -182 -48 -91
      -137 -180 -223 -222 -36 -18 -117 -46 -179 -63 -123 -34 -187 -64 -251 -118
      l-40 -34 7 28 c15 63 59 139 117 200 49 53 78 74 156 111 53 26 117 62 144 81
      26 19 61 54 78 79 17 25 56 102 85 171 79 186 147 282 269 379 128 102 291
      162 440 162 l80 -1 -64 -13z m-623 -1737 c10 -54 9 -64 -5 -80 -17 -19 -129
      -78 -148 -78 -9 0 -10 13 -4 48 16 101 64 172 117 172 27 0 29 -3 40 -62z
      M4925 3814 c-61 -41 -85 -64 -122 -122 -19 -30 -51 -63 -71 -75 -29 -17 -33
      -23 -19 -25 36 -7 78 21 117 78 37 55 92 110 110 110 14 0 -10 -84 -36 -123
      -14 -22 -23 -41 -20 -44 10 -11 56 27 62 52 4 17 24 34 60 54 30 16 54 26 54
      23 0 -4 -14 -31 -31 -60 -25 -45 -33 -51 -45 -41 -8 6 -17 9 -20 6 -4 -3 30
      -74 74 -157 65 -121 86 -170 106 -253 13 -56 43 -165 65 -241 23 -76 41 -157
      41 -179 0 -22 -9 -54 -20 -72 -20 -32 -47 -51 -58 -40 -8 8 -5 71 3 85 6 9 9
      9 15 0 4 -7 13 -9 19 -6 16 10 14 53 -3 59 -23 9 -55 -21 -67 -62 -8 -29 -9
      -48 -1 -70 10 -28 9 -31 -9 -31 -31 0 -17 -24 15 -28 41 -5 99 38 126 93 18
      37 21 57 17 95 -3 26 -27 119 -52 205 -26 87 -53 189 -61 227 -10 47 -37 112
      -87 207 -67 126 -72 139 -56 149 19 12 74 120 83 165 4 15 2 27 -3 27 -6 0
      -36 -18 -67 -40 -32 -22 -61 -40 -65 -40 -5 0 -2 20 5 44 20 65 5 72 -59 30z
      M4920 3361 c13 -25 71 -61 98 -61 11 0 27 -7 36 -15 8 -8 17 -15 20 -15 3 0 6
      11 6 23 0 33 -30 57 -71 57 -19 0 -47 7 -63 15 -15 8 -30 15 -32 15 -3 0 0 -9
      6 -19z M3541 3160 c-56 -20 -87 -41 -177 -120 -30 -26 -74 -57 -97 -68 -23
      -11 -69 -25 -102 -32 -54 -11 -58 -14 -35 -22 34 -13 104 -1 166 27 28 12 88
      57 134 98 45 42 102 86 126 97 24 12 44 26 44 31 0 5 -1 9 -2 9 -2 -1 -27 -9
      -57 -20z M1442 1853 c-11 -27 -28 -86 -37 -133 -41 -204 -119 -351 -260 -496
      -49 -50 -121 -112 -160 -136 -81 -52 -169 -89 -272 -113 -40 -10 -70 -22 -67
      -27 8 -13 114 0 194 24 36 11 90 33 120 50 117 65 249 188 331 310 72 106 116
      214 139 339 12 63 27 140 34 172 7 31 9 57 6 57 -4 0 -17 -21 -28 -47z"/>
    </g>
    <g opacity="0.11111111" transform="translate(0,430) scale(0.100000,-0.100000)">
      <path d="M4223 3836 c-83 -16 -183 -60 -256 -112 -28 -20 -66 -43 -86 -51 -45
      -19 -119 -18 -166 1 -21 9 -42 16 -48 16 -18 0 27 -41 68 -63 31 -16 59 -21
      122 -21 46 -1 83 -2 83 -2 0 -1 -39 -24 -87 -52 -49 -27 -115 -60 -148 -72
      -33 -12 -94 -24 -135 -27 -55 -4 -92 -1 -135 11 -33 10 -75 26 -94 37 -18 11
      -36 17 -39 14 -3 -3 10 -22 29 -41 36 -39 151 -100 206 -110 18 -3 33 -10 33
      -14 0 -4 -16 -11 -35 -14 -61 -12 -118 -41 -190 -100 -90 -72 -145 -91 -239
      -82 -65 5 -69 4 -51 -9 30 -24 95 -38 140 -31 54 9 110 37 170 87 27 22 70 51
      96 64 25 13 95 36 155 50 60 15 125 35 144 45 l35 18 -81 -5 c-57 -4 -104 -1
      -157 11 -42 10 -78 20 -81 24 -2 4 35 7 83 7 108 1 182 25 312 101 52 30 136
      76 187 101 66 33 110 48 148 51 30 2 54 0 54 -5 0 -5 -33 -25 -73 -45 -40 -20
      -111 -64 -157 -99 -47 -35 -148 -129 -225 -209 -294 -304 -413 -419 -511 -491
      -162 -121 -357 -211 -559 -259 -44 -11 -170 -33 -279 -50 -110 -17 -236 -43
      -280 -57 -140 -44 -247 -105 -346 -199 l-55 -52 -125 -5 c-144 -6 -223 -26
      -340 -89 -99 -53 -188 -126 -255 -211 -71 -89 -98 -135 -145 -250 -54 -134
      -76 -173 -119 -216 -20 -20 -89 -64 -152 -96 -77 -40 -132 -76 -171 -113 -65
      -62 -100 -117 -129 -200 -23 -68 -37 -202 -21 -202 6 0 14 9 17 20 4 11 31 47
      61 80 33 36 76 69 108 84 28 13 108 41 176 61 69 20 152 51 185 68 33 18 90
      62 126 98 80 80 127 168 170 324 16 61 48 148 71 195 33 68 57 101 127 171 73
      73 102 94 183 133 53 26 112 50 132 53 l36 6 -25 -44 c-33 -58 -71 -179 -80
      -255 -4 -37 -1 -101 7 -160 7 -55 13 -135 13 -179 -1 -57 -6 -90 -19 -115 -28
      -54 -95 -118 -164 -157 -35 -19 -69 -45 -77 -57 -8 -11 -28 -73 -45 -136 -17
      -63 -48 -153 -70 -198 -29 -60 -59 -103 -105 -151 -56 -58 -65 -73 -65 -104 0
      -20 -6 -39 -12 -43 -7 -5 -33 -8 -58 -9 -25 -1 -57 -9 -72 -19 -15 -10 -39
      -42 -53 -71 -28 -56 -52 -173 -41 -200 5 -13 14 -16 37 -11 70 14 162 69 249
      149 49 45 108 96 131 112 44 31 53 46 139 226 31 63 77 139 115 187 36 44 102
      110 149 148 47 38 147 107 223 153 76 46 171 109 211 139 41 31 94 80 119 111
      24 30 60 84 78 120 27 55 42 71 86 98 74 44 131 67 214 86 104 24 111 25 360
      52 127 14 274 35 328 46 122 24 284 77 368 119 35 18 91 51 124 74 55 38 65
      41 125 41 54 0 78 6 144 38 43 20 158 85 255 144 171 104 277 157 293 147 27
      -17 -24 -126 -93 -199 -42 -44 -51 -61 -51 -89 l0 -36 -55 6 c-51 7 -56 5 -88
      -26 -40 -38 -83 -129 -91 -194 -6 -44 -6 -46 18 -46 33 0 124 28 173 52 22 12
      59 38 82 59 22 21 64 49 92 64 30 15 60 39 71 58 11 18 33 75 50 129 16 53 51
      135 76 183 52 99 59 152 28 206 -11 19 -37 43 -58 53 l-39 19 -171 -41 c-94
      -23 -179 -42 -189 -42 -16 0 -15 4 5 43 19 37 23 64 29 212 4 113 12 184 22
      211 40 107 90 170 159 198 56 24 68 21 68 -16 0 -18 11 -56 24 -84 25 -53 77
      -102 142 -131 22 -10 72 -53 113 -96 73 -76 75 -78 72 -126 -2 -43 1 -51 29
      -75 31 -25 80 -36 80 -16 0 5 -13 16 -30 25 -16 8 -33 22 -38 32 -5 9 -7 33
      -5 52 5 34 -1 43 -71 124 -57 64 -92 95 -135 116 -31 16 -74 47 -94 70 -20 22
      -39 55 -43 75 -8 44 2 101 24 138 16 28 12 45 -8 33 -6 -4 -20 -21 -30 -37
      -15 -25 -26 -31 -59 -33 -50 -4 -119 -42 -157 -87 -42 -50 -84 -148 -96 -225
      -6 -37 -8 -93 -5 -125 l5 -56 -45 31 c-39 28 -54 32 -121 35 -48 2 -92 -2
      -116 -11 -65 -23 -54 -34 26 -26 140 13 224 -25 235 -107 10 -73 -36 -164 -82
      -164 -44 0 -125 -33 -165 -68 -40 -33 -70 -79 -70 -104 0 -7 21 8 48 34 26 25
      65 55 87 66 23 11 83 28 135 37 52 9 158 32 235 51 77 19 158 34 181 34 46 0
      67 -17 85 -68 10 -30 6 -42 -44 -150 -31 -64 -67 -152 -81 -196 -14 -43 -32
      -89 -41 -102 -8 -13 -33 -33 -55 -44 -22 -11 -65 -43 -94 -69 -49 -44 -113
      -77 -188 -95 -26 -6 -26 -6 -16 32 13 47 52 125 71 140 8 7 38 11 70 9 53 -2
      56 -3 50 -24 -7 -29 13 -30 28 -2 6 13 8 39 4 64 -6 42 -4 45 54 110 38 42 67
      86 80 121 12 30 21 63 21 74 0 28 -28 50 -63 50 -18 0 -50 -9 -73 -19 -22 -10
      -121 -67 -220 -126 -98 -60 -210 -123 -249 -142 -84 -40 -148 -44 -189 -12
      -14 11 -44 57 -65 102 -40 83 -74 120 -124 132 -36 9 -43 -11 -10 -29 43 -22
      69 -55 103 -131 17 -38 39 -78 47 -88 15 -16 15 -19 -3 -32 -48 -38 -158 -98
      -235 -129 -157 -63 -301 -93 -640 -131 -129 -15 -276 -38 -327 -51 -51 -13
      -125 -38 -163 -57 -63 -30 -69 -31 -63 -13 4 12 24 59 45 105 22 46 39 90 39
      97 0 26 -20 14 -47 -28 -15 -24 -48 -92 -75 -153 -69 -157 -97 -209 -143 -264
      -56 -68 -117 -118 -226 -185 -251 -155 -368 -245 -456 -347 -71 -83 -101 -132
      -168 -272 -34 -73 -73 -141 -86 -153 -13 -11 -40 -30 -59 -42 -19 -11 -48 -34
      -64 -51 -22 -23 -32 -28 -38 -19 -15 25 -8 78 13 99 13 13 18 27 14 39 -3 11
      -1 28 4 39 6 10 37 45 69 78 73 72 118 163 166 330 19 66 39 130 45 141 6 11
      39 36 74 55 72 41 151 120 173 174 28 65 33 132 18 228 -18 120 -17 247 1 320
      9 33 28 87 44 120 87 184 262 328 486 398 45 14 164 37 265 52 102 15 234 39
      295 55 137 34 295 96 401 156 178 100 285 196 684 610 80 82 180 176 222 207
      94 70 195 128 266 153 28 10 52 23 52 28 0 5 -15 6 -33 3 -37 -6 -87 2 -87 13
      0 12 143 30 242 30 73 0 89 3 80 12 -8 8 -53 14 -116 16 -126 5 -210 -10 -398
      -73 -75 -25 -146 -45 -159 -45 -20 0 -16 5 23 28 25 15 70 42 100 60 113 68
      239 98 373 87 115 -9 245 -44 329 -89 21 -10 35 -12 48 -5 10 5 18 12 18 15 0
      12 -142 68 -230 91 -119 30 -251 37 -347 19z m-2540 -1686 c-56 -12 -151 -51
      -221 -91 -31 -19 -96 -73 -144 -121 -70 -70 -95 -104 -127 -170 -22 -46 -54
      -132 -70 -193 -17 -60 -47 -143 -67 -183 -46 -94 -126 -176 -220 -224 -38 -21
      -121 -51 -184 -68 -123 -34 -187 -64 -251 -118 l-40 -34 7 28 c15 62 61 140
      117 200 46 50 78 72 155 110 53 26 119 63 146 83 27 19 66 61 86 93 21 32 54
      99 75 150 20 51 48 113 62 138 50 89 129 183 202 241 138 112 285 167 446 167
      64 0 66 -1 28 -8z m-635 -1742 c8 -53 7 -66 -6 -80 -16 -20 -128 -78 -147 -78
      -9 0 -10 12 -4 48 14 75 28 109 59 142 19 20 38 30 58 30 28 0 30 -2 40 -62z
      M4925 3814 c-61 -41 -85 -64 -121 -120 -18 -29 -50 -63 -71 -75 -34 -21 -35
      -24 -16 -27 37 -5 80 25 119 83 32 49 89 105 107 105 11 0 -25 -104 -45 -133
      -11 -16 -18 -31 -14 -34 10 -11 56 27 62 52 4 17 24 34 60 54 30 16 54 26 54
      23 0 -4 -14 -31 -31 -61 -23 -39 -34 -50 -42 -42 -13 13 -27 14 -27 3 0 -5 35
      -74 79 -154 56 -104 83 -166 95 -219 10 -41 39 -150 67 -244 27 -93 49 -188
      49 -210 0 -40 -18 -78 -48 -102 -9 -7 -19 -13 -24 -13 -11 0 -10 87 1 94 5 4
      11 1 13 -6 2 -6 10 -8 16 -4 17 10 15 53 -4 60 -19 7 -61 -33 -70 -69 -4 -15
      -2 -42 4 -61 9 -31 8 -34 -10 -34 -30 0 -16 -24 16 -28 41 -5 99 38 126 93 17
      36 21 57 17 93 -3 26 -31 134 -61 240 -31 106 -56 203 -56 216 0 13 -34 89
      -75 169 l-76 146 30 42 c28 37 71 135 71 159 0 18 -18 10 -76 -30 -32 -22 -61
      -40 -65 -40 -5 0 -5 10 0 23 4 12 11 34 15 50 5 22 3 27 -11 27 -10 0 -36 -12
      -58 -26z M4910 3371 c0 -5 17 -23 37 -40 21 -17 49 -31 64 -31 15 0 32 -7 39
      -15 18 -22 30 -18 30 8 0 33 -30 57 -71 57 -19 0 -47 7 -63 15 -15 8 -30 15
      -32 15 -2 0 -4 -4 -4 -9z M3543 3161 c-54 -18 -87 -41 -179 -121 -63 -55 -124
      -87 -186 -96 -24 -4 -49 -10 -57 -14 -23 -12 43 -23 92 -15 67 12 131 50 218
      130 44 41 101 84 125 95 24 12 44 26 44 31 0 5 -1 9 -2 9 -2 -1 -26 -9 -55
      -19z M1444 1863 c-8 -21 -26 -86 -39 -144 -13 -59 -37 -142 -54 -185 -17 -44
      -52 -113 -79 -154 -59 -91 -153 -194 -236 -256 -84 -64 -197 -117 -305 -144
      -103 -25 -113 -46 -17 -35 70 8 173 38 231 67 110 56 262 195 345 319 24 34
      59 98 80 143 40 85 62 169 81 300 6 44 15 90 20 103 15 39 -9 26 -27 -14z"/>
    </g>
    <g opacity="0.12500000" transform="translate(0,430) scale(0.100000,-0.100000)">
      <path d="M4223 3835 c-83 -15 -182 -58 -256 -111 -28 -20 -65 -43 -83 -50 -44
      -18 -126 -18 -171 1 -19 8 -40 15 -46 15 -18 0 27 -41 68 -63 30 -16 60 -21
      122 -21 46 -1 83 -2 83 -2 0 -1 -39 -24 -87 -52 -49 -27 -115 -60 -148 -72
      -33 -12 -94 -24 -135 -27 -55 -4 -92 -1 -135 11 -33 10 -75 26 -94 37 -18 11
      -36 17 -39 14 -3 -3 10 -22 29 -41 36 -39 151 -100 206 -110 36 -7 45 -24 13
      -24 -41 0 -128 -43 -203 -101 -42 -33 -96 -67 -120 -75 -30 -12 -62 -14 -116
      -10 -61 5 -72 4 -62 -8 6 -7 32 -19 56 -26 81 -23 167 4 260 81 27 22 71 52
      97 65 25 13 94 35 152 49 59 13 123 33 144 44 l37 19 -82 -5 c-61 -4 -101 -1
      -160 13 l-78 19 90 7 c129 9 187 31 374 142 121 71 229 116 280 116 23 0 41
      -3 41 -8 0 -4 -31 -22 -69 -41 -38 -18 -109 -63 -158 -100 -48 -36 -151 -131
      -228 -211 -296 -306 -413 -419 -511 -491 -55 -42 -145 -98 -200 -126 -176 -90
      -353 -142 -604 -178 -229 -32 -346 -62 -460 -120 -80 -40 -138 -81 -200 -140
      l-55 -53 -125 -5 c-89 -3 -145 -11 -195 -27 -140 -43 -295 -144 -381 -247 -64
      -75 -119 -165 -154 -251 -60 -146 -87 -197 -127 -238 -25 -26 -81 -62 -149
      -95 -183 -91 -276 -198 -319 -364 -16 -63 -20 -155 -7 -155 4 0 16 16 27 36
      25 47 112 126 168 152 25 12 101 38 169 57 67 20 150 51 183 68 33 18 90 62
      127 98 49 50 76 88 106 150 22 46 52 129 67 184 14 55 44 138 67 185 34 68 60
      102 128 171 71 71 101 93 180 131 52 26 112 50 132 54 l38 6 -26 -45 c-37 -67
      -63 -148 -76 -236 -8 -62 -7 -102 6 -204 9 -69 16 -142 16 -160 0 -18 -7 -55
      -17 -82 -11 -34 -34 -67 -72 -105 -31 -30 -79 -67 -108 -82 -29 -15 -59 -39
      -68 -52 -9 -13 -29 -75 -46 -138 -16 -62 -47 -151 -69 -196 -29 -60 -59 -103
      -105 -151 -56 -58 -65 -73 -65 -104 0 -20 -6 -39 -12 -43 -7 -5 -33 -8 -59 -9
      -26 -1 -58 -9 -72 -18 -14 -9 -37 -41 -52 -70 -28 -58 -52 -175 -41 -202 5
      -14 14 -16 39 -11 68 13 160 69 246 150 48 44 101 88 118 97 16 9 42 32 56 50
      14 19 42 71 61 117 89 208 197 340 390 476 33 24 117 77 186 119 69 42 151 97
      182 122 71 55 129 128 173 215 28 55 42 70 89 99 71 42 162 76 263 96 43 8
      182 26 308 40 127 14 275 35 330 46 121 24 281 77 367 120 35 17 90 50 123 73
      55 38 65 41 126 41 60 0 76 5 170 52 57 29 163 89 234 133 134 83 235 137 270
      142 12 2 21 -4 23 -14 6 -31 -45 -126 -97 -181 -38 -40 -52 -63 -54 -88 l-3
      -34 -54 3 c-51 3 -57 1 -87 -30 -40 -41 -84 -137 -91 -194 -4 -41 -3 -44 20
      -44 34 0 125 28 178 55 25 13 62 39 84 59 21 20 60 48 86 61 27 14 57 37 68
      52 11 16 32 68 47 118 15 49 47 130 72 180 25 49 50 103 54 119 11 36 -4 94
      -32 129 -11 15 -37 32 -58 38 -32 10 -55 7 -177 -24 -76 -19 -158 -38 -181
      -42 l-42 -7 21 44 c19 37 23 68 29 213 7 178 15 218 63 300 32 52 72 90 118
      109 56 24 68 21 68 -16 0 -47 41 -129 81 -162 19 -16 52 -37 74 -47 22 -10 75
      -53 117 -96 77 -77 78 -79 78 -130 0 -45 4 -54 31 -77 29 -25 79 -36 79 -17 0
      5 -16 18 -35 30 -32 19 -35 24 -35 69 0 47 -3 54 -75 136 -56 63 -91 94 -134
      115 -31 16 -74 47 -94 70 -20 22 -39 55 -43 75 -8 47 3 103 28 145 20 31 20
      33 2 29 -10 -2 -28 -18 -41 -37 -19 -27 -30 -34 -64 -36 -55 -5 -125 -49 -171
      -110 -21 -28 -48 -79 -60 -115 -17 -50 -22 -89 -23 -165 l0 -101 -43 30 c-38
      27 -54 31 -120 34 -75 3 -152 -13 -159 -34 -2 -5 36 -7 89 -5 50 2 108 -2 128
      -8 53 -16 82 -51 87 -108 3 -36 -1 -59 -19 -93 -15 -29 -32 -48 -48 -52 -140
      -40 -146 -43 -197 -93 -35 -34 -53 -59 -53 -75 0 -22 4 -21 48 22 26 26 67 56
      92 67 25 11 94 29 153 40 60 12 165 35 234 51 69 17 142 30 163 30 41 0 64
      -19 81 -68 10 -30 6 -42 -45 -150 -30 -64 -67 -153 -81 -197 -14 -44 -32 -90
      -40 -102 -9 -13 -33 -32 -55 -43 -22 -11 -65 -43 -94 -69 -49 -44 -113 -77
      -188 -95 -26 -6 -26 -6 -16 32 13 47 52 125 71 140 8 7 38 11 70 9 53 -2 56
      -3 50 -24 -7 -29 13 -30 28 -2 6 13 8 39 4 64 -6 42 -4 45 54 110 38 42 67 86
      80 121 12 30 21 62 21 70 0 8 -5 24 -10 35 -8 14 -21 19 -48 19 -20 0 -55 -9
      -78 -19 -22 -10 -121 -67 -220 -126 -98 -59 -210 -123 -249 -141 -84 -41 -148
      -45 -189 -13 -14 11 -44 58 -66 104 -40 84 -71 117 -122 130 -36 9 -44 -11
      -11 -29 43 -22 69 -55 103 -131 17 -38 39 -78 47 -88 15 -16 15 -19 -3 -32
      -44 -35 -154 -96 -223 -125 -88 -36 -222 -73 -341 -94 -47 -9 -186 -27 -310
      -41 -124 -14 -269 -36 -323 -50 -54 -13 -129 -39 -167 -58 -64 -30 -70 -31
      -64 -13 4 12 24 59 45 105 22 46 39 93 39 104 0 20 0 20 -21 1 -20 -18 -51
      -79 -150 -294 -44 -96 -97 -170 -167 -235 -20 -19 -81 -63 -136 -97 -248 -159
      -336 -221 -408 -292 -42 -41 -97 -104 -122 -139 -25 -36 -75 -125 -110 -198
      -35 -74 -74 -143 -87 -155 -13 -11 -40 -30 -59 -42 -19 -11 -48 -34 -64 -51
      -22 -23 -32 -28 -38 -19 -15 25 -8 78 13 99 13 13 19 28 15 42 -3 11 -1 27 4
      36 5 9 35 43 68 77 73 75 118 164 166 332 20 68 41 132 46 143 6 10 34 31 62
      45 66 33 152 115 178 168 11 23 24 66 30 95 7 39 6 78 -5 152 -19 126 -19 239
      0 314 8 33 31 92 51 132 104 207 306 353 564 408 36 7 119 21 185 30 240 32
      466 95 619 172 102 51 218 128 321 214 50 42 162 152 250 245 88 93 200 209
      249 257 144 141 282 238 416 289 33 13 60 26 60 30 0 4 -25 7 -55 6 -50 -1
      -75 5 -64 16 10 10 168 26 252 26 70 0 88 3 79 12 -7 7 -56 13 -120 16 -132 5
      -219 -10 -407 -74 -73 -24 -143 -44 -156 -44 -19 0 -12 7 30 30 30 17 62 36
      70 44 26 22 113 63 176 82 45 14 90 18 180 17 98 -1 136 -6 210 -28 50 -14
      114 -38 144 -51 49 -23 55 -24 69 -10 14 14 10 18 -49 45 -123 55 -280 91
      -394 90 -27 0 -83 -7 -122 -14z m-2540 -1685 c-57 -12 -151 -51 -221 -91 -31
      -19 -95 -72 -142 -119 -59 -59 -97 -107 -122 -155 -20 -38 -53 -126 -73 -195
      -19 -69 -52 -158 -71 -198 -46 -94 -126 -176 -220 -224 -38 -21 -121 -51 -184
      -68 -124 -34 -187 -64 -251 -119 -39 -32 -41 -33 -34 -10 20 70 70 155 121
      209 43 45 79 70 153 106 53 26 119 64 146 84 28 20 63 56 79 78 15 23 52 98
      82 167 56 131 96 200 159 275 79 95 208 187 315 226 76 27 162 42 235 42 65 0
      67 -1 28 -8z m-635 -1742 c8 -51 7 -66 -4 -79 -18 -21 -139 -82 -152 -78 -14
      6 14 125 39 165 22 36 48 52 85 53 18 1 23 -7 32 -61z M4925 3814 c-58 -39
      -92 -72 -126 -126 -17 -26 -47 -58 -67 -70 l-37 -23 27 -3 c15 -2 39 5 53 14
      15 10 44 43 66 75 21 31 52 67 68 78 16 12 32 21 35 21 10 0 -26 -105 -46
      -133 -11 -16 -18 -31 -14 -34 10 -11 56 27 62 52 4 17 24 34 60 54 30 16 54
      26 54 23 0 -4 -14 -31 -31 -61 -23 -39 -34 -50 -42 -42 -13 13 -27 14 -27 3 0
      -5 34 -71 76 -148 64 -117 81 -160 109 -269 19 -71 50 -184 69 -250 20 -66 36
      -134 36 -152 0 -17 -4 -43 -10 -57 -10 -28 -45 -66 -60 -66 -13 0 -13 87 -1
      94 5 4 11 1 13 -6 2 -6 10 -8 16 -4 14 9 16 52 2 61 -15 10 -49 -13 -65 -45
      -17 -34 -19 -73 -5 -101 9 -16 7 -19 -10 -19 -33 0 -18 -25 16 -28 42 -4 94
      34 122 88 12 24 22 61 22 81 0 20 -23 114 -50 208 -28 95 -58 207 -67 249 -8
      42 -26 92 -38 112 -13 20 -44 78 -69 128 l-46 92 30 41 c27 37 70 136 70 159
      0 16 -20 11 -53 -14 -18 -13 -45 -32 -61 -42 l-29 -18 7 38 c4 20 10 44 13 52
      9 23 -28 17 -72 -12z M4910 3371 c0 -5 17 -23 37 -40 21 -17 49 -31 64 -31 15
      0 32 -7 39 -15 18 -22 30 -18 30 8 0 33 -30 57 -71 57 -19 0 -47 7 -63 15 -15
      8 -30 15 -32 15 -2 0 -4 -4 -4 -9z M3545 3162 c-57 -20 -97 -46 -172 -114 -72
      -65 -123 -89 -238 -113 -27 -6 -28 -8 -11 -17 26 -15 117 -2 172 23 25 12 84
      57 131 100 47 43 105 88 129 100 24 11 44 25 44 30 0 5 -1 9 -2 9 -2 -1 -26
      -8 -53 -18z M1444 1863 c-8 -21 -26 -86 -39 -144 -13 -59 -37 -142 -54 -185
      -17 -44 -52 -113 -79 -154 -59 -91 -153 -194 -236 -256 -84 -64 -197 -117
      -305 -144 -50 -12 -91 -27 -91 -32 0 -17 131 0 208 26 38 13 84 31 103 41 59
      30 162 111 225 177 82 85 134 159 182 255 44 86 74 190 92 318 6 44 15 92 20
      108 14 41 -7 33 -26 -10z"/>
    </g>
    <g opacity="0.14285714" transform="translate(0,430) scale(0.100000,-0.100000)">
      <path d="M4270 3844 c-124 -18 -196 -48 -322 -132 -58 -39 -79 -46 -128 -50
      -40 -3 -73 1 -100 12 -22 9 -46 16 -52 16 -19 0 25 -41 67 -63 30 -16 60 -21
      122 -21 46 -1 83 -2 83 -2 0 -1 -39 -24 -87 -51 -49 -28 -115 -60 -147 -72
      -32 -12 -93 -25 -135 -28 -57 -4 -92 -1 -136 11 -33 10 -75 26 -94 37 -18 11
      -36 17 -39 14 -3 -3 10 -22 29 -41 36 -39 151 -100 206 -110 18 -3 33 -10 33
      -14 0 -4 -17 -10 -37 -13 -53 -9 -128 -49 -193 -102 -85 -70 -112 -80 -212
      -79 -67 0 -85 -2 -78 -11 18 -22 96 -38 147 -30 54 7 109 36 173 90 24 20 65
      47 91 61 26 13 95 35 153 49 59 13 122 33 141 42 l34 18 -112 1 c-78 0 -124 5
      -152 17 l-40 16 57 0 c120 2 222 38 395 143 118 72 230 118 283 118 23 0 39
      -4 36 -9 -3 -4 -35 -23 -71 -42 -111 -57 -233 -156 -385 -314 -298 -308 -408
      -414 -507 -488 -112 -83 -299 -179 -428 -221 -116 -37 -196 -54 -415 -87 -107
      -16 -231 -41 -275 -55 -143 -46 -247 -105 -340 -194 l-60 -58 -125 -5 c-138
      -5 -217 -25 -330 -82 -140 -70 -277 -204 -353 -345 -20 -36 -52 -106 -72 -157
      -41 -103 -85 -171 -136 -209 -19 -14 -74 -46 -124 -70 -49 -25 -110 -61 -136
      -81 -86 -65 -153 -175 -178 -291 -13 -60 -15 -142 -3 -142 4 0 20 20 35 44 36
      57 93 109 154 139 26 14 104 41 173 62 69 20 152 51 185 68 83 44 182 146 227
      233 21 38 51 122 68 185 17 62 50 152 72 199 34 68 59 102 128 171 71 70 102
      93 180 132 52 25 112 49 132 53 l37 6 -29 -53 c-17 -30 -39 -82 -49 -115 -30
      -96 -35 -184 -17 -321 9 -67 16 -137 16 -155 0 -19 -7 -56 -17 -83 -11 -34
      -34 -67 -72 -105 -31 -30 -79 -67 -108 -82 -29 -15 -59 -38 -68 -51 -8 -13
      -31 -81 -50 -151 -45 -164 -97 -264 -175 -340 -53 -51 -60 -63 -60 -97 0 -21
      -5 -41 -11 -45 -7 -4 -33 -8 -59 -8 -26 -1 -59 -9 -73 -19 -14 -9 -37 -41 -52
      -71 -28 -58 -53 -172 -42 -199 3 -9 16 -17 28 -17 12 0 55 16 96 36 52 25 100
      60 162 117 48 45 101 89 118 98 16 9 42 32 56 50 14 19 42 72 62 119 80 183
      169 300 315 418 47 37 151 107 230 156 80 48 173 110 208 137 74 59 140 141
      181 224 25 50 39 66 85 94 69 41 159 75 257 95 41 8 164 25 274 36 309 32 453
      60 617 120 89 33 210 95 265 137 31 24 46 28 102 28 57 0 78 6 151 41 47 22
      128 67 180 99 209 127 298 176 333 182 32 5 37 3 37 -13 0 -37 -50 -125 -101
      -179 -37 -39 -52 -63 -54 -87 l-3 -33 -54 3 c-48 3 -57 1 -82 -25 -38 -36 -87
      -143 -94 -199 -5 -43 -4 -44 25 -44 34 0 120 28 178 58 22 11 60 38 85 60 25
      21 64 49 87 60 23 12 50 34 61 49 11 16 32 69 47 118 15 50 49 133 75 185 27
      52 52 108 56 123 9 37 -20 111 -53 137 -14 11 -39 22 -57 25 -20 4 -80 -6
      -166 -28 -74 -20 -154 -38 -177 -42 l-42 -7 22 44 c18 37 22 67 28 213 7 178
      16 219 63 300 32 52 72 90 118 109 54 23 68 21 68 -10 0 -47 22 -103 57 -143
      18 -22 58 -52 87 -66 34 -16 82 -56 130 -104 74 -77 76 -80 76 -129 0 -44 4
      -54 31 -76 29 -25 79 -36 79 -17 0 5 -16 18 -35 30 -32 19 -35 24 -35 69 0 41
      -6 55 -37 93 -76 91 -120 132 -174 159 -30 16 -72 46 -92 69 -55 61 -61 132
      -17 213 11 21 16 39 11 42 -9 6 -56 -41 -63 -63 -2 -7 -21 -14 -46 -16 -23 -2
      -62 -15 -87 -29 -83 -49 -144 -149 -165 -270 -7 -37 -10 -95 -8 -130 l4 -63
      -44 31 c-38 27 -53 31 -120 34 -75 3 -152 -13 -159 -34 -2 -5 36 -7 89 -5 50
      2 108 -2 128 -8 53 -16 82 -51 87 -108 4 -37 -1 -58 -19 -93 -15 -28 -34 -48
      -49 -52 -135 -37 -142 -40 -195 -92 -36 -35 -54 -60 -54 -76 0 -22 4 -21 48
      22 26 26 67 56 92 67 25 11 86 27 135 36 50 9 156 32 237 51 80 20 163 34 184
      32 27 -2 43 -11 57 -31 12 -15 21 -41 20 -60 0 -18 -22 -75 -48 -126 -25 -51
      -60 -134 -76 -185 -17 -50 -37 -101 -45 -113 -8 -13 -32 -32 -53 -43 -22 -11
      -65 -42 -95 -69 -50 -43 -109 -72 -193 -96 -21 -6 -21 -4 -11 32 13 48 52 126
      71 141 8 7 38 11 69 9 50 -2 54 -4 50 -24 -2 -13 1 -23 6 -23 21 0 34 42 28
      87 -6 43 -4 46 45 96 51 53 109 157 109 197 0 12 -5 30 -10 41 -15 27 -72 25
      -135 -5 -27 -12 -126 -69 -220 -126 -93 -57 -202 -118 -242 -137 -85 -39 -147
      -44 -186 -13 -14 11 -44 58 -66 104 -41 85 -73 118 -123 131 -37 9 -44 -11
      -10 -29 42 -22 77 -67 102 -132 11 -31 30 -68 40 -82 20 -24 20 -24 -3 -41
      -87 -66 -213 -126 -351 -167 -116 -35 -261 -60 -516 -89 -124 -15 -254 -33
      -290 -40 -84 -18 -172 -49 -227 -80 -43 -24 -44 -24 -37 -3 3 12 24 59 45 106
      22 46 39 93 39 105 0 20 0 20 -21 2 -20 -19 -40 -58 -153 -299 -51 -107 -64
      -127 -139 -200 -54 -55 -117 -103 -187 -146 -325 -197 -468 -327 -568 -515
      -12 -22 -41 -84 -66 -137 -38 -84 -51 -102 -92 -130 -27 -18 -67 -50 -90 -71
      -34 -31 -43 -35 -48 -21 -3 8 -6 30 -6 47 0 22 7 36 21 45 17 11 20 20 15 44
      -5 27 1 37 58 97 65 68 113 142 142 221 9 25 28 90 44 146 15 55 33 110 39
      122 6 12 35 34 63 48 57 29 138 101 168 149 11 17 27 59 35 93 15 57 15 72 1
      167 -20 133 -20 244 -1 320 8 33 31 92 51 132 69 138 188 254 336 329 94 47
      214 80 381 104 242 34 363 62 512 117 158 58 309 149 460 274 50 42 167 155
      260 253 94 98 174 184 178 192 15 26 201 186 275 236 74 50 226 128 248 128 7
      0 16 5 20 11 4 7 -8 10 -37 9 -68 -3 -89 -1 -89 8 0 13 152 32 255 32 68 0 86
      3 77 12 -7 7 -56 13 -120 16 -132 5 -219 -10 -407 -74 -73 -24 -143 -44 -156
      -44 -19 0 -14 6 26 29 28 15 77 45 110 65 114 70 247 95 398 76 94 -12 225
      -49 289 -82 36 -19 41 -20 56 -5 15 15 11 19 -49 46 -35 16 -94 38 -130 49
      -109 34 -251 48 -339 36z m-2595 -1695 c-27 -5 -97 -33 -155 -61 -91 -45 -117
      -64 -195 -142 -64 -64 -101 -112 -127 -161 -20 -38 -55 -133 -78 -210 -23 -77
      -56 -167 -73 -200 -18 -33 -57 -85 -87 -115 -30 -30 -87 -72 -126 -92 -38 -20
      -121 -51 -184 -68 -124 -34 -187 -64 -251 -119 -39 -33 -41 -33 -35 -10 4 13
      23 56 42 95 46 96 125 170 242 225 48 23 110 59 137 79 28 20 63 56 79 78 15
      23 53 98 83 169 30 70 74 157 98 193 40 60 137 164 195 208 39 30 131 80 180
      97 76 28 162 43 235 43 l70 0 -50 -9z m-628 -1741 c7 -42 7 -67 1 -75 -13 -16
      -105 -68 -137 -78 -24 -7 -24 -7 -18 44 3 28 17 72 30 98 24 48 55 73 93 73
      17 0 22 -9 31 -62z M4925 3814 c-58 -39 -92 -72 -126 -126 -17 -26 -47 -58
      -67 -70 l-37 -23 27 -3 c15 -2 39 5 53 14 15 10 44 43 66 75 21 31 52 67 68
      78 16 12 32 21 35 21 9 0 -21 -88 -43 -126 -12 -20 -20 -39 -17 -42 10 -10 56
      29 62 53 4 17 24 34 60 54 30 16 54 26 54 23 0 -4 -14 -31 -31 -61 -23 -39
      -34 -50 -42 -42 -15 15 -29 14 -25 -1 2 -7 38 -78 80 -158 58 -109 82 -167 97
      -233 12 -48 41 -155 66 -239 25 -83 45 -166 45 -184 0 -18 -4 -44 -10 -58 -10
      -28 -45 -66 -60 -66 -13 0 -13 87 -1 94 5 4 11 1 13 -6 2 -6 10 -8 16 -4 14 9
      16 52 2 61 -15 10 -49 -13 -65 -45 -17 -34 -19 -73 -5 -101 9 -17 7 -19 -16
      -19 -22 0 -25 -2 -14 -15 18 -22 62 -18 101 8 44 30 79 92 79 142 0 22 -24
      126 -54 230 -30 105 -59 217 -66 250 -7 33 -27 85 -45 115 -18 30 -49 88 -70
      129 -36 72 -36 74 -18 95 11 11 26 32 35 47 23 37 50 120 44 136 -4 10 -18 4
      -52 -22 -25 -19 -55 -40 -66 -46 -19 -10 -20 -9 -14 26 4 20 10 43 13 51 9 23
      -28 17 -72 -12z M4910 3371 c0 -5 17 -23 37 -40 21 -17 49 -31 64 -31 15 0 32
      -7 39 -15 7 -8 16 -15 21 -15 15 0 10 48 -7 64 -8 9 -32 16 -52 16 -20 1 -48
      7 -62 15 -30 17 -40 18 -40 6z M3545 3162 c-58 -20 -97 -46 -174 -116 -61 -55
      -144 -97 -208 -104 -24 -2 -46 -8 -49 -13 -8 -14 43 -22 93 -14 26 4 67 16 91
      27 24 12 80 54 124 95 45 41 102 85 129 98 44 23 71 45 52 45 -4 -1 -31 -8
      -58 -18z M1444 1863 c-8 -21 -26 -85 -39 -143 -27 -122 -62 -220 -106 -297
      -50 -87 -142 -196 -226 -268 -93 -80 -221 -145 -345 -176 -49 -12 -88 -26 -88
      -32 0 -15 130 1 203 25 34 11 80 29 102 40 64 33 165 111 231 180 87 90 143
      170 192 275 30 64 49 123 63 195 11 57 25 133 33 171 7 37 9 67 4 67 -4 0 -15
      -17 -24 -37z"/>
    </g>
    <g opacity="0.16666667" transform="translate(0,430) scale(0.100000,-0.100000)">
      <path d="M4232 3839 c-87 -15 -156 -44 -257 -110 -81 -52 -106 -63 -150 -67
      -34 -3 -71 2 -101 12 -26 9 -52 16 -57 16 -6 0 -2 -9 9 -21 34 -38 95 -61 174
      -68 l75 -6 -71 -41 c-40 -23 -103 -54 -140 -70 -59 -24 -84 -28 -169 -28 -93
      -1 -105 1 -169 32 -38 18 -71 30 -74 27 -3 -3 10 -22 29 -41 36 -39 151 -100
      206 -110 18 -3 33 -10 33 -14 0 -4 -17 -10 -37 -13 -52 -9 -128 -48 -188 -98
      -27 -22 -68 -51 -90 -62 -33 -18 -56 -22 -128 -21 -68 1 -85 -1 -77 -11 17
      -21 97 -38 145 -32 25 4 60 14 78 23 17 9 59 38 92 64 33 26 78 56 100 67 22
      11 90 32 150 47 61 15 126 36 145 46 l35 18 -81 -5 c-61 -4 -100 -1 -155 13
      l-74 19 80 6 c44 4 100 12 125 19 53 14 145 60 258 128 110 67 220 112 273
      112 27 0 39 -4 34 -9 -6 -6 -37 -24 -70 -42 -119 -62 -220 -144 -375 -304
      -395 -406 -481 -485 -637 -579 -127 -76 -303 -146 -453 -180 -36 -8 -144 -26
      -240 -41 -96 -14 -204 -33 -239 -41 -148 -33 -296 -111 -400 -210 l-68 -64
      -100 0 c-121 0 -224 -24 -338 -79 -44 -21 -114 -65 -155 -98 -42 -33 -99 -89
      -127 -125 -62 -77 -121 -183 -163 -294 -35 -92 -81 -162 -131 -200 -19 -15
      -70 -43 -114 -64 -182 -86 -281 -198 -320 -362 -16 -67 -20 -158 -7 -158 4 0
      20 20 35 44 36 57 93 109 154 139 26 14 104 41 173 62 69 20 152 51 185 68 33
      18 90 61 126 97 82 80 127 167 169 322 17 61 49 149 71 194 50 102 133 195
      234 263 70 47 157 86 217 98 l28 5 -30 -53 c-71 -128 -91 -266 -66 -443 9 -60
      16 -126 16 -146 0 -57 -28 -125 -72 -175 -22 -25 -71 -63 -109 -86 -38 -22
      -77 -51 -85 -65 -9 -13 -30 -75 -46 -137 -16 -62 -49 -152 -73 -202 -33 -69
      -58 -104 -104 -147 -53 -51 -60 -63 -63 -100 l-3 -43 -57 -6 c-32 -4 -69 -14
      -84 -23 -14 -10 -37 -42 -51 -72 -28 -61 -50 -171 -40 -197 3 -9 16 -17 28
      -17 12 0 56 16 98 36 54 26 98 58 151 109 41 40 94 84 117 98 23 15 53 42 67
      60 15 19 43 72 63 118 44 104 107 208 164 274 52 61 162 158 228 202 26 18
      105 67 174 110 69 43 153 99 186 125 72 56 139 139 180 223 30 60 56 83 148
      129 79 39 211 67 469 96 145 16 310 39 366 50 57 12 150 37 208 56 113 38 248
      105 311 155 34 27 44 30 78 24 21 -3 58 -1 82 5 56 15 152 63 270 135 208 127
      297 176 332 182 32 5 37 3 37 -13 0 -37 -50 -125 -101 -179 -37 -39 -52 -63
      -54 -87 l-3 -33 -54 3 c-48 3 -57 1 -82 -25 -38 -36 -87 -143 -94 -199 -5 -43
      -4 -44 25 -44 35 0 120 28 182 59 24 13 62 40 84 60 23 21 61 48 84 59 23 12
      50 34 61 49 11 16 31 67 46 114 14 47 48 131 75 185 27 55 52 111 56 126 8 33
      -11 95 -38 126 -12 12 -37 27 -57 33 -32 10 -57 6 -181 -24 -79 -20 -161 -39
      -181 -42 l-36 -7 21 44 c19 37 23 67 28 213 7 178 15 218 63 300 32 52 72 90
      118 109 57 24 68 21 68 -19 0 -48 35 -118 76 -155 19 -16 56 -41 82 -54 26
      -13 80 -58 120 -99 70 -73 72 -76 72 -125 0 -44 4 -54 31 -76 17 -14 34 -26
      39 -26 5 0 15 -3 24 -6 10 -4 16 -1 16 9 0 8 -16 24 -35 36 -33 19 -35 24 -35
      71 0 48 -3 54 -73 133 -49 55 -91 92 -130 113 -31 16 -73 45 -92 64 -40 38
      -60 97 -51 148 3 19 14 51 25 73 11 21 17 41 12 43 -9 6 -56 -41 -63 -63 -2
      -7 -21 -14 -46 -16 -23 -2 -62 -15 -87 -29 -113 -67 -182 -226 -173 -400 3
      -65 3 -65 -17 -46 -53 49 -174 67 -259 38 -70 -24 -53 -34 48 -30 55 3 108 0
      128 -7 51 -17 79 -52 85 -105 4 -33 0 -56 -17 -91 -12 -26 -32 -50 -44 -55
      -11 -4 -43 -13 -71 -19 -27 -7 -71 -26 -96 -43 -50 -34 -89 -83 -89 -113 0
      -15 11 -9 48 27 26 26 67 56 92 67 25 11 86 27 135 36 50 9 155 32 234 51 79
      19 160 34 181 34 30 0 43 -6 59 -26 34 -43 27 -92 -25 -195 -25 -50 -59 -132
      -75 -183 -17 -50 -37 -101 -45 -113 -8 -13 -33 -32 -57 -44 -23 -12 -63 -41
      -89 -66 -47 -43 -101 -72 -172 -92 -33 -9 -36 -8 -36 12 0 27 51 138 72 154 9
      8 37 12 70 10 50 -2 54 -4 50 -24 -6 -32 15 -29 31 5 10 18 11 36 6 57 -5 17
      -7 37 -4 45 3 8 25 35 50 59 46 45 105 151 105 191 0 12 -5 30 -10 41 -8 14
      -21 19 -48 19 -20 0 -57 -10 -82 -21 -25 -11 -132 -72 -238 -136 -106 -64
      -219 -126 -250 -139 -71 -29 -131 -31 -165 -4 -14 11 -44 58 -66 104 -41 85
      -73 118 -123 131 -37 9 -44 -11 -10 -29 42 -22 77 -67 102 -132 11 -31 30 -68
      41 -82 l20 -26 -68 -44 c-37 -24 -95 -56 -128 -71 -125 -58 -301 -105 -485
      -130 -41 -6 -140 -18 -220 -26 -80 -9 -184 -22 -231 -30 -99 -17 -212 -54
      -275 -89 -24 -14 -44 -23 -44 -21 0 2 22 55 49 117 27 62 47 116 44 121 -10
      16 -45 -29 -83 -108 -21 -44 -63 -133 -94 -199 -51 -107 -64 -127 -139 -200
      -54 -55 -117 -103 -187 -146 -189 -115 -309 -201 -389 -279 -91 -89 -172 -208
      -226 -331 -20 -47 -46 -100 -57 -118 -11 -18 -45 -50 -77 -71 -31 -21 -67 -51
      -80 -65 -18 -19 -27 -23 -33 -14 -4 7 -8 29 -8 48 0 24 6 39 20 48 14 8 20 23
      20 49 0 31 9 46 64 102 86 90 129 177 180 367 13 50 29 101 35 113 7 11 35 33
      63 47 62 31 142 104 173 159 13 22 29 67 35 100 9 49 9 78 -4 157 -29 180 -16
      307 44 432 66 139 195 268 342 342 37 19 105 45 150 58 46 13 164 36 263 51
      287 42 423 80 601 164 118 57 227 128 340 222 44 37 161 152 260 256 240 252
      323 332 424 404 76 55 215 131 281 154 18 7 8 10 -43 12 -38 2 -68 8 -68 12 0
      12 161 31 260 31 63 0 81 3 73 11 -18 18 -202 23 -291 10 -42 -7 -135 -32
      -207 -56 -71 -24 -148 -46 -170 -50 l-40 -6 50 28 c28 16 72 44 100 61 112 72
      245 100 399 83 99 -11 231 -48 298 -83 36 -19 41 -19 55 -5 14 14 11 17 -28
      38 -110 56 -296 100 -413 98 -33 -1 -85 -5 -114 -10z m-2557 -1691 c-27 -5
      -97 -32 -155 -60 -91 -44 -116 -62 -195 -142 -75 -74 -99 -107 -133 -176 -23
      -47 -58 -141 -77 -210 -20 -69 -52 -153 -72 -188 -19 -35 -58 -87 -87 -115
      -28 -29 -83 -69 -121 -89 -39 -20 -121 -50 -183 -67 -63 -18 -136 -43 -163
      -57 -27 -13 -68 -41 -91 -62 -38 -34 -40 -35 -34 -12 4 14 23 57 42 96 48 100
      122 167 261 235 117 57 185 115 223 190 13 24 42 90 66 147 24 57 64 134 88
      171 55 83 182 206 256 248 117 67 238 101 355 101 l70 0 -50 -10z m-628 -1740
      c11 -62 11 -63 -15 -86 -25 -21 -122 -72 -138 -72 -14 0 6 101 29 147 24 48
      55 73 93 73 17 0 22 -10 31 -62z M4925 3814 c-58 -39 -92 -72 -126 -126 -17
      -26 -47 -58 -67 -70 l-37 -23 27 -3 c15 -2 39 5 53 14 15 10 44 43 66 75 21
      31 52 67 68 78 16 12 32 21 35 21 9 0 -21 -88 -43 -126 -12 -20 -20 -39 -17
      -41 11 -11 49 21 62 52 7 19 24 37 36 41 13 3 35 15 51 26 15 11 27 17 27 13
      0 -10 -32 -69 -51 -93 -10 -13 -20 -18 -24 -12 -9 14 -27 13 -23 -2 2 -7 37
      -78 80 -158 56 -106 82 -168 96 -230 12 -47 41 -156 66 -242 25 -86 46 -170
      46 -187 0 -16 -4 -40 -9 -53 -11 -27 -48 -68 -61 -68 -13 0 -13 87 -1 94 5 4
      11 1 13 -6 2 -6 10 -8 16 -4 14 9 16 52 2 61 -15 10 -49 -13 -65 -45 -17 -34
      -19 -73 -5 -101 9 -17 7 -19 -16 -19 -22 0 -25 -2 -14 -15 18 -22 62 -18 101
      8 44 30 79 92 79 142 0 22 -24 126 -54 230 -29 105 -59 217 -66 250 -7 33 -27
      85 -45 115 -18 30 -49 88 -70 129 l-36 73 20 22 c27 29 68 114 76 159 4 20 5
      37 1 37 -3 0 -27 -16 -52 -35 -25 -20 -55 -40 -66 -46 -19 -10 -20 -9 -14 26
      4 20 10 43 13 51 9 23 -28 17 -72 -12z M4910 3371 c0 -16 74 -71 95 -71 11 0
      31 -7 43 -16 30 -21 44 -10 31 24 -6 14 -16 30 -22 34 -7 4 -28 8 -47 8 -19 0
      -46 7 -60 15 -30 17 -40 18 -40 6z M3545 3162 c-58 -20 -97 -46 -174 -116 -61
      -55 -144 -97 -208 -104 -24 -2 -46 -8 -49 -13 -8 -13 44 -22 93 -15 24 3 64
      14 86 24 23 11 80 54 127 96 47 43 106 89 132 102 43 22 70 44 51 44 -4 -1
      -31 -8 -58 -18z M1444 1863 c-8 -21 -26 -85 -39 -143 -13 -58 -35 -135 -49
      -173 -77 -204 -257 -407 -444 -500 -46 -22 -129 -53 -185 -68 -76 -20 -97 -29
      -83 -35 30 -12 165 12 240 42 36 14 93 43 124 64 73 47 178 144 241 224 110
      138 161 256 195 452 13 77 27 147 31 157 4 10 3 17 -4 17 -6 0 -18 -17 -27
      -37z"/>
    </g>
    <g opacity="0.20000000" transform="translate(0,430) scale(0.100000,-0.100000)">
      <path d="M4265 3844 c-156 -31 -185 -43 -301 -121 -71 -47 -93 -57 -138 -61
      -35 -3 -72 2 -106 13 -28 9 -53 15 -56 12 -3 -3 11 -18 32 -35 42 -35 100 -52
      176 -52 50 -1 52 -2 33 -16 -44 -34 -224 -114 -283 -125 -88 -17 -169 -7 -248
      30 -36 17 -68 31 -70 31 -2 0 -4 -4 -4 -9 0 -5 15 -24 32 -42 35 -35 153 -95
      205 -105 36 -7 45 -24 13 -24 -41 0 -133 -44 -193 -92 -34 -27 -80 -60 -102
      -71 -33 -18 -55 -22 -128 -21 -72 1 -85 -1 -76 -12 18 -21 89 -37 141 -31 58
      7 109 33 173 87 28 23 68 51 90 62 22 12 97 36 167 54 118 30 168 48 168 59 0
      3 -33 2 -73 -1 -55 -5 -95 -2 -153 12 l-79 18 85 6 c47 4 103 13 125 20 53 17
      162 72 232 117 96 61 219 114 281 120 52 6 56 5 43 -10 -7 -10 -19 -17 -26
      -17 -24 0 -196 -116 -280 -190 -48 -41 -160 -154 -250 -251 -178 -192 -283
      -292 -401 -380 -154 -115 -328 -197 -527 -249 -62 -16 -191 -41 -287 -55 -215
      -32 -281 -47 -378 -86 -105 -42 -183 -91 -262 -166 l-67 -63 -99 0 c-111 0
      -197 -17 -294 -57 -132 -54 -241 -137 -332 -252 -62 -78 -115 -173 -155 -281
      -13 -36 -35 -83 -48 -106 -37 -63 -109 -123 -198 -164 -183 -84 -283 -197
      -322 -362 -16 -67 -20 -158 -7 -158 4 0 20 20 35 44 36 57 93 109 156 140 27
      14 98 39 157 55 155 43 245 90 325 170 80 80 127 167 168 313 16 57 39 128 51
      158 30 75 99 177 159 233 90 84 218 155 314 174 l29 6 -26 -41 c-37 -59 -75
      -177 -82 -258 -3 -38 -1 -109 5 -159 23 -177 24 -199 7 -257 -20 -72 -84 -144
      -165 -187 -33 -17 -69 -43 -81 -58 -11 -14 -27 -51 -35 -82 -63 -233 -110
      -333 -197 -417 -33 -31 -59 -64 -60 -77 -1 -12 -2 -31 -2 -42 -1 -17 -10 -21
      -57 -25 -30 -3 -67 -13 -82 -23 -15 -9 -38 -40 -52 -67 -27 -53 -52 -176 -42
      -203 3 -9 16 -17 27 -17 12 0 55 16 97 35 55 25 95 54 151 108 43 41 96 86
      119 100 23 15 53 41 67 60 14 18 42 71 63 118 21 47 56 116 78 154 46 80 171
      215 257 280 33 25 129 88 212 140 83 52 177 115 208 140 68 53 138 139 175
      213 14 29 39 64 56 78 62 52 169 95 301 119 44 8 185 26 311 40 127 14 281 37
      344 51 193 43 349 106 471 189 50 34 62 38 125 40 56 1 84 8 135 33 36 17 148
      81 250 142 192 116 258 150 292 150 17 0 19 -4 13 -32 -11 -52 -54 -123 -101
      -168 -24 -23 -45 -49 -46 -58 -1 -10 -2 -26 -2 -37 -1 -18 -7 -20 -53 -17 -35
      3 -59 -1 -76 -13 -36 -23 -97 -144 -104 -206 l-6 -52 53 6 c69 8 187 64 242
      115 24 22 61 49 83 60 22 11 48 29 58 40 10 11 34 68 53 128 19 60 55 145 78
      189 24 44 46 94 50 112 10 46 -10 108 -44 137 -17 14 -45 28 -63 31 -22 4 -78
      -5 -168 -28 -73 -19 -154 -38 -177 -42 l-44 -7 15 23 c29 47 38 101 41 246 3
      166 16 221 69 299 36 54 96 99 145 109 32 7 32 6 32 -31 0 -21 9 -57 21 -80
      24 -51 71 -95 137 -128 26 -13 80 -58 120 -99 70 -73 72 -76 72 -125 0 -44 4
      -54 31 -76 17 -14 34 -26 39 -26 5 0 15 -3 24 -6 10 -4 16 -1 16 9 0 8 -16 24
      -35 36 -33 19 -35 24 -35 70 0 42 -5 57 -32 88 -75 90 -126 136 -178 163 -30
      15 -67 41 -82 57 -32 34 -58 92 -58 130 0 15 11 52 25 80 13 29 20 55 15 58
      -4 3 -24 -13 -43 -35 -22 -27 -42 -40 -58 -40 -41 0 -126 -49 -164 -93 -20
      -23 -46 -64 -60 -92 -30 -65 -48 -165 -43 -249 3 -65 3 -65 -17 -46 -36 34
      -96 53 -166 53 -63 -1 -139 -23 -139 -40 0 -5 42 -7 94 -5 55 3 108 0 128 -7
      53 -17 80 -52 85 -108 4 -37 -1 -58 -19 -92 -15 -28 -33 -47 -48 -52 -107 -29
      -140 -42 -169 -63 -41 -31 -81 -84 -81 -109 0 -16 10 -10 50 27 28 26 70 56
      93 66 23 10 94 28 157 40 63 12 168 34 232 51 64 16 133 29 153 29 25 0 43 -8
      60 -25 39 -38 34 -88 -20 -192 -24 -49 -58 -131 -75 -183 -17 -52 -38 -105
      -46 -117 -8 -13 -33 -32 -57 -44 -23 -12 -63 -41 -88 -65 -47 -43 -87 -64
      -166 -89 -41 -13 -43 -12 -43 8 0 28 52 138 73 155 10 9 34 12 64 10 44 -3 48
      -5 53 -33 l6 -30 21 34 c17 26 19 39 12 64 -5 18 -9 35 -9 40 0 4 22 30 49 57
      52 52 111 157 111 197 0 13 -5 33 -10 44 -16 29 -79 25 -148 -10 -31 -16 -140
      -79 -241 -140 -100 -61 -208 -119 -237 -131 -30 -11 -72 -20 -94 -20 -54 0
      -91 34 -121 111 -26 69 -83 135 -124 145 -15 4 -31 2 -37 -4 -7 -7 -2 -15 18
      -25 45 -23 72 -57 100 -128 14 -35 34 -75 44 -89 l18 -26 -71 -46 c-123 -78
      -265 -132 -442 -168 -55 -12 -212 -34 -350 -50 -137 -17 -274 -35 -303 -41
      -75 -15 -186 -54 -238 -83 -24 -14 -44 -23 -44 -21 0 2 22 54 49 116 27 62 47
      117 44 122 -10 17 -45 -29 -88 -118 -24 -49 -66 -138 -93 -196 -39 -83 -63
      -121 -115 -176 -40 -42 -107 -96 -164 -133 -296 -192 -360 -237 -433 -309 -91
      -90 -175 -214 -226 -332 -19 -46 -45 -99 -56 -117 -12 -19 -44 -49 -72 -67
      -28 -18 -64 -47 -81 -64 -26 -28 -30 -30 -37 -14 -3 10 -7 32 -7 48 -1 20 6
      34 19 43 14 8 20 23 20 49 0 31 9 46 65 104 48 49 76 91 105 151 21 46 52 133
      68 194 17 61 35 121 41 133 7 11 35 33 63 47 62 32 141 104 174 160 13 22 29
      67 35 98 8 45 7 80 -7 168 -21 137 -15 256 17 353 34 101 125 233 213 306 82
      69 218 139 326 168 41 11 154 32 250 46 96 14 222 38 280 52 246 59 454 165
      656 334 44 37 163 154 265 261 237 248 295 305 399 384 76 58 231 145 300 169
      20 7 11 10 -42 12 -38 2 -68 8 -68 12 0 12 161 31 260 31 67 0 81 3 72 12 -8
      8 -53 14 -126 16 -133 5 -225 -11 -389 -68 -62 -21 -130 -41 -152 -44 -29 -5
      -34 -4 -19 3 11 5 55 32 98 59 42 28 102 60 133 72 31 12 91 25 134 31 136 17
      319 -15 447 -78 48 -24 54 -25 69 -11 14 15 12 18 -28 39 -67 34 -176 68 -268
      84 -78 14 -180 18 -226 9z m-2608 -1700 c-32 -8 -100 -35 -150 -61 -74 -38
      -110 -65 -183 -138 -74 -73 -98 -106 -132 -175 -23 -47 -58 -141 -77 -210 -20
      -69 -52 -153 -72 -188 -49 -88 -127 -163 -215 -206 -40 -20 -122 -50 -181 -66
      -60 -17 -131 -42 -158 -55 -27 -14 -68 -42 -91 -63 -38 -34 -40 -35 -34 -12 4
      14 23 57 42 96 47 99 123 167 257 233 57 28 125 69 150 92 34 29 58 65 88 127
      134 282 150 311 222 388 38 41 99 96 134 121 114 81 265 131 398 131 l60 0
      -58 -14z m-610 -1736 c11 -62 11 -63 -15 -86 -25 -21 -122 -72 -138 -72 -15 0
      6 101 31 150 25 50 49 68 91 69 17 1 22 -8 31 -61z M4925 3814 c-60 -40 -83
      -63 -126 -126 -21 -31 -52 -62 -69 -69 -16 -8 -30 -17 -30 -21 0 -14 55 -9 77
      7 12 8 42 43 66 78 25 35 57 71 71 81 25 16 26 16 26 -7 0 -13 -13 -51 -30
      -83 -16 -32 -27 -60 -25 -62 2 -2 13 2 25 8 12 6 28 27 36 45 7 19 24 37 36
      41 13 3 35 15 51 26 15 11 27 17 27 13 0 -10 -32 -69 -51 -94 -11 -13 -19 -19
      -19 -12 0 6 -7 11 -15 11 -8 0 -15 -4 -15 -8 0 -4 36 -75 79 -158 59 -111 85
      -172 100 -237 11 -48 41 -157 66 -243 25 -86 45 -170 45 -187 0 -44 -45 -116
      -72 -117 -11 0 -10 88 1 94 5 4 11 1 13 -6 2 -6 10 -8 16 -4 14 9 16 52 2 61
      -16 10 -49 -13 -66 -47 -11 -22 -14 -45 -10 -75 5 -39 4 -43 -15 -43 -18 0
      -19 -2 -9 -15 18 -22 62 -18 101 8 45 30 79 92 79 143 0 23 -24 127 -54 231
      -30 104 -59 215 -65 247 -6 32 -27 85 -49 124 -22 37 -54 95 -71 129 l-31 63
      35 45 c31 41 65 126 65 162 0 17 -15 17 -30 -2 -7 -8 -35 -28 -62 -45 l-50
      -31 6 36 c4 20 10 43 13 51 9 23 -28 17 -72 -12z M4910 3371 c0 -16 73 -71 93
      -71 11 0 32 -8 48 -17 15 -9 31 -14 34 -11 8 7 -14 61 -28 70 -7 4 -28 8 -47
      8 -19 0 -46 7 -60 15 -30 17 -40 18 -40 6z M3545 3162 c-57 -20 -93 -43 -174
      -115 -66 -58 -137 -94 -204 -103 -26 -4 -50 -10 -53 -15 -8 -13 44 -22 93 -15
      24 3 64 14 88 25 23 10 80 53 126 96 46 42 105 88 131 101 43 22 70 44 51 44
      -4 -1 -31 -8 -58 -18z M1457 1888 c-17 -26 -36 -89 -71 -235 -14 -58 -42 -138
      -65 -183 -22 -44 -65 -114 -96 -155 -59 -78 -149 -165 -223 -217 -67 -46 -166
      -89 -276 -118 -75 -21 -96 -30 -82 -36 29 -11 167 12 236 40 96 38 167 85 256
      169 131 123 221 257 267 397 14 41 33 122 41 180 9 58 21 120 27 138 6 18 9
      36 6 39 -3 2 -12 -6 -20 -19z"/>
    </g>
    <g opacity="0.25000000" transform="translate(0,430) scale(0.100000,-0.100000)">
      <path d="M4265 3844 c-156 -31 -187 -43 -303 -121 -70 -47 -93 -57 -137 -61
      -34 -3 -71 2 -101 12 -26 9 -52 16 -58 16 -18 0 39 -53 74 -68 19 -8 69 -17
      110 -21 l75 -6 -87 -48 c-136 -75 -188 -91 -298 -91 -87 -1 -101 2 -164 32
      -37 17 -70 32 -72 32 -2 0 -4 -4 -4 -9 0 -5 14 -24 31 -41 35 -34 121 -81 187
      -100 41 -13 57 -30 27 -30 -36 0 -132 -46 -188 -92 -34 -27 -80 -60 -102 -71
      -33 -18 -55 -22 -127 -21 -49 1 -88 -2 -88 -7 0 -4 20 -15 45 -25 32 -12 61
      -15 99 -11 62 6 115 31 176 82 23 20 62 47 85 61 23 13 95 38 159 54 64 17
      132 37 151 45 48 19 46 36 -2 23 -46 -13 -161 -5 -223 15 l-45 15 65 1 c121 2
      188 28 435 169 49 29 117 61 149 72 60 20 116 26 116 13 0 -5 -35 -27 -78 -51
      -42 -23 -108 -66 -147 -94 -38 -29 -140 -124 -225 -212 -285 -295 -404 -411
      -494 -478 -168 -126 -356 -214 -559 -263 -56 -14 -178 -36 -271 -50 -209 -31
      -277 -47 -375 -86 -102 -41 -204 -106 -271 -173 l-55 -56 -100 0 c-122 0 -237
      -26 -339 -75 -39 -20 -103 -59 -141 -88 -134 -102 -231 -242 -315 -455 -46
      -117 -105 -180 -219 -234 -47 -22 -114 -60 -147 -84 -95 -67 -161 -167 -189
      -286 -16 -67 -20 -158 -7 -158 4 0 20 20 35 44 39 62 100 114 171 146 34 15
      106 40 160 55 55 15 130 42 166 60 81 41 165 116 215 191 39 59 84 173 105
      264 6 30 34 100 60 155 58 120 129 203 235 274 71 47 157 86 218 98 l29 6 -26
      -41 c-41 -65 -76 -184 -83 -275 -3 -52 1 -120 11 -186 9 -58 16 -119 16 -136
      0 -17 -7 -54 -15 -82 -20 -67 -86 -140 -164 -182 -33 -17 -69 -43 -81 -58 -11
      -14 -27 -51 -35 -82 -35 -130 -69 -230 -98 -286 -17 -33 -58 -86 -89 -117 -60
      -59 -78 -91 -78 -134 0 -22 -4 -24 -47 -24 -30 0 -60 -7 -80 -20 -18 -10 -42
      -39 -54 -62 -29 -56 -49 -132 -49 -185 0 -40 2 -43 27 -43 14 0 63 18 107 39
      61 29 98 56 146 106 36 36 77 73 92 81 67 35 100 78 164 212 35 73 83 161 107
      195 25 34 81 97 126 140 77 73 171 140 394 277 49 30 116 80 150 110 54 49
      119 137 169 228 9 17 36 43 60 58 62 40 171 80 264 98 44 8 168 24 275 36 107
      11 237 28 289 36 107 17 248 54 328 84 80 31 191 88 247 128 44 32 57 35 120
      37 51 1 85 8 125 27 31 14 146 79 256 146 205 123 261 152 296 152 17 0 19 -5
      13 -32 -12 -55 -45 -110 -96 -161 -36 -36 -51 -60 -55 -88 -6 -33 -10 -38 -25
      -34 -35 11 -78 8 -102 -8 -34 -22 -97 -147 -104 -208 l-6 -52 53 6 c69 8 187
      64 242 115 24 22 61 49 83 60 22 11 48 29 59 40 10 12 35 73 56 137 21 63 56
      148 78 188 22 39 43 86 46 104 4 17 2 49 -4 71 -11 44 -55 88 -98 99 -16 4
      -82 -7 -177 -30 -82 -20 -166 -39 -185 -43 -30 -6 -33 -5 -22 8 6 8 19 35 28
      59 11 31 16 88 18 194 3 168 16 222 69 301 36 54 96 99 145 109 32 7 32 6 32
      -31 0 -21 9 -57 21 -80 24 -51 71 -95 137 -128 26 -13 80 -58 120 -99 70 -73
      72 -76 72 -125 0 -44 4 -54 31 -76 17 -14 34 -26 39 -26 5 0 15 -3 24 -6 10
      -4 16 -1 16 9 0 8 -16 24 -35 36 -33 19 -35 24 -35 70 0 42 -5 57 -32 88 -75
      90 -127 136 -179 163 -31 16 -69 44 -86 63 -58 66 -65 135 -22 218 10 21 15
      40 10 44 -5 3 -25 -13 -44 -35 -22 -26 -42 -40 -58 -40 -41 0 -122 -45 -161
      -88 -20 -23 -46 -59 -58 -81 -32 -64 -52 -166 -48 -253 3 -76 3 -77 -17 -59
      -11 10 -36 27 -55 36 -46 24 -160 24 -217 0 -24 -9 -41 -20 -38 -25 2 -4 48
      -5 102 -3 76 4 107 1 136 -11 21 -9 46 -31 57 -49 11 -17 20 -48 20 -68 0 -48
      -39 -121 -70 -130 -14 -4 -47 -13 -73 -19 -26 -7 -68 -26 -92 -42 -46 -30 -85
      -82 -85 -113 0 -13 13 -5 50 29 28 26 70 56 93 66 23 10 85 26 137 35 52 9
      157 32 233 51 76 19 154 34 173 34 24 0 43 -8 59 -25 39 -38 34 -87 -20 -192
      -24 -48 -58 -131 -76 -183 -17 -52 -37 -105 -45 -117 -8 -13 -36 -34 -62 -47
      -26 -13 -60 -38 -77 -56 -35 -37 -125 -85 -178 -95 -30 -6 -37 -4 -37 9 0 24
      54 139 73 154 10 9 34 12 64 10 44 -3 48 -5 53 -33 l6 -30 22 35 c12 19 20 41
      17 48 -20 53 -17 61 35 113 55 55 110 155 110 200 0 14 -6 34 -14 44 -19 27
      -71 23 -137 -10 -30 -15 -137 -77 -238 -138 -100 -60 -208 -121 -240 -133 -66
      -28 -127 -30 -160 -8 -12 9 -41 54 -63 101 -30 64 -51 92 -81 114 -41 29 -71
      37 -82 19 -3 -5 7 -16 22 -24 44 -22 71 -57 99 -127 14 -35 34 -75 44 -89 l18
      -26 -56 -36 c-131 -83 -281 -142 -459 -178 -54 -12 -210 -34 -348 -50 -137
      -17 -274 -35 -303 -41 -75 -15 -186 -54 -238 -83 -24 -14 -44 -23 -44 -20 0 2
      14 35 31 72 52 113 69 161 59 167 -14 8 -55 -52 -96 -140 -114 -249 -135 -285
      -196 -351 -41 -44 -105 -94 -183 -145 -66 -43 -160 -104 -209 -135 -121 -79
      -228 -174 -297 -264 -56 -72 -86 -126 -164 -293 -28 -61 -45 -84 -77 -105 -22
      -15 -62 -46 -88 -70 -46 -41 -48 -42 -54 -20 -11 43 -6 73 14 86 14 8 20 23
      20 49 0 31 9 46 65 104 48 49 76 91 105 151 21 46 53 135 70 197 17 62 35 122
      41 132 5 11 33 31 61 45 28 14 75 49 105 76 58 56 99 129 108 198 4 25 0 87
      -9 142 -29 180 -16 307 44 432 43 90 127 193 205 254 85 65 204 124 305 151
      41 11 155 32 252 46 97 14 228 38 290 54 249 64 444 165 643 331 45 37 171
      161 280 275 245 255 296 304 393 378 71 53 195 123 282 157 l35 14 -67 4 c-38
      1 -68 7 -68 11 0 12 161 31 260 31 67 0 81 3 72 12 -8 8 -53 14 -126 16 -132
      5 -221 -11 -388 -67 -62 -21 -129 -42 -148 -46 -30 -6 -24 0 42 43 42 28 90
      58 105 65 49 25 122 47 194 57 129 18 316 -14 447 -78 49 -24 54 -24 69 -9 9
      9 15 18 12 20 -2 2 -42 20 -89 40 -47 20 -131 45 -187 56 -91 19 -205 25 -258
      15z m-2608 -1700 c-32 -8 -100 -35 -150 -61 -73 -38 -111 -66 -183 -138 -80
      -78 -98 -103 -137 -185 -24 -52 -57 -140 -72 -195 -37 -139 -85 -231 -155
      -303 -70 -72 -164 -121 -300 -158 -119 -31 -206 -71 -258 -118 l-41 -37 11 38
      c19 70 71 153 130 208 40 37 92 71 161 104 56 27 123 68 149 91 48 42 71 83
      171 302 48 103 102 181 179 254 113 109 221 167 368 198 36 8 92 14 125 14
      l60 0 -58 -14z m-617 -1702 c0 -15 5 -43 10 -62 9 -32 8 -37 -17 -58 -34 -27
      -133 -76 -140 -68 -11 11 9 97 35 148 18 36 35 55 52 59 50 14 60 11 60 -19z
      M4930 3819 c-51 -31 -87 -67 -131 -131 -21 -31 -52 -62 -69 -69 -16 -8 -30
      -17 -30 -21 0 -14 55 -8 77 7 12 9 40 42 63 74 22 31 55 68 72 81 l31 23 -7
      -39 c-4 -22 -18 -59 -32 -83 -13 -24 -22 -46 -19 -49 9 -9 52 27 64 55 8 18
      29 36 59 50 25 12 47 21 49 19 1 -1 -13 -27 -32 -57 -19 -30 -35 -48 -35 -41
      0 14 -30 17 -30 3 0 -5 36 -76 79 -158 59 -110 84 -170 100 -235 11 -47 41
      -157 66 -244 25 -87 45 -171 45 -187 0 -16 -5 -38 -11 -50 -15 -28 -50 -67
      -61 -67 -9 0 -11 61 -2 85 5 12 9 13 14 5 4 -7 13 -9 19 -6 14 9 15 53 1 61
      -16 10 -49 -13 -66 -47 -11 -22 -14 -45 -10 -75 5 -39 4 -43 -15 -43 -18 0
      -19 -2 -9 -15 19 -23 69 -18 107 11 42 32 73 92 73 142 0 22 -22 118 -50 215
      -27 96 -57 208 -65 248 -10 47 -31 100 -59 149 -24 41 -55 99 -70 128 l-27 52
      31 39 c17 20 39 61 50 89 20 52 26 92 14 92 -3 0 -23 -13 -43 -28 -20 -15 -49
      -36 -65 -46 l-29 -18 7 26 c3 14 9 37 12 51 5 20 2 25 -12 25 -11 0 -35 -10
      -54 -21z M4910 3371 c0 -14 72 -71 90 -71 8 0 28 -7 44 -15 15 -8 33 -15 38
      -15 15 0 0 53 -19 68 -9 6 -33 12 -52 12 -20 1 -47 7 -61 15 -30 17 -40 18
      -40 6z M3555 3166 c-64 -20 -95 -40 -170 -106 -38 -34 -87 -71 -109 -82 -21
      -11 -64 -25 -96 -31 -31 -7 -56 -16 -56 -22 1 -17 108 -11 158 8 30 12 80 48
      135 99 49 44 109 91 135 104 26 13 49 28 53 34 8 12 0 12 -50 -4z M1461 1897
      c-17 -21 -40 -93 -63 -197 -11 -52 -33 -128 -50 -169 -33 -84 -99 -190 -167
      -270 -74 -87 -179 -169 -276 -216 -49 -24 -131 -54 -182 -66 -51 -12 -90 -26
      -87 -30 9 -15 87 -10 166 10 140 36 255 109 381 240 43 46 101 117 128 159 27
      42 63 112 79 154 17 43 41 139 55 215 13 76 27 148 31 161 7 25 2 28 -15 9z"/>
    </g>
    <g opacity="0.33333333" transform="translate(0,430) scale(0.100000,-0.100000)">
      <path d="M4210 3835 c-81 -16 -157 -49 -240 -106 -36 -25 -78 -50 -93 -57 -38
      -16 -105 -15 -157 3 -23 8 -47 15 -53 15 -6 0 2 -14 18 -30 35 -36 107 -60
      184 -60 l56 0 -50 -32 c-135 -85 -275 -127 -384 -114 -31 4 -85 20 -120 36
      -35 17 -66 28 -68 26 -10 -10 20 -47 60 -75 44 -30 160 -81 184 -81 7 0 13 -4
      13 -10 0 -5 -8 -10 -17 -10 -37 -1 -134 -49 -195 -97 -101 -81 -120 -88 -220
      -87 -49 1 -88 -2 -88 -7 0 -4 20 -15 45 -25 32 -12 61 -15 99 -11 62 6 115 31
      176 82 23 20 62 47 85 60 23 14 93 38 157 54 132 34 188 55 188 72 0 7 -7 8
      -17 4 -41 -17 -134 -17 -210 1 l-78 18 85 6 c47 4 103 13 125 20 59 19 141 60
      241 121 49 29 125 68 169 86 77 31 145 43 145 24 0 -5 -13 -14 -28 -20 -53
      -22 -190 -116 -272 -186 -45 -38 -169 -162 -274 -275 -106 -113 -230 -237
      -277 -276 -172 -146 -341 -242 -531 -305 -101 -33 -264 -66 -481 -98 -76 -12
      -181 -35 -234 -53 -53 -17 -133 -54 -179 -82 -46 -28 -110 -77 -143 -108 l-58
      -57 -99 1 c-158 0 -290 -40 -427 -128 -165 -107 -266 -240 -357 -469 -16 -41
      -41 -92 -54 -113 -37 -59 -94 -104 -196 -154 -52 -26 -122 -68 -154 -95 -65
      -53 -127 -146 -152 -228 -20 -65 -31 -195 -16 -195 5 0 22 20 35 43 34 58 98
      114 164 144 30 14 102 38 159 54 58 16 138 46 177 66 94 47 203 155 245 244
      17 35 47 120 67 189 20 69 54 159 76 201 22 41 62 101 91 133 28 32 82 80 121
      107 64 45 206 109 242 109 12 0 10 -8 -9 -37 -34 -53 -74 -176 -82 -257 -5
      -45 -1 -117 11 -214 17 -138 17 -151 2 -203 -22 -73 -85 -145 -166 -188 -33
      -17 -69 -43 -81 -58 -11 -14 -27 -51 -36 -82 -41 -149 -69 -231 -97 -286 -17
      -33 -57 -85 -89 -116 -58 -57 -78 -91 -78 -135 0 -22 -4 -24 -47 -24 -71 0
      -108 -27 -144 -104 -20 -44 -32 -87 -36 -135 l-6 -71 30 0 c17 0 67 18 111 40
      58 29 98 59 144 106 35 36 75 72 90 80 68 36 100 78 164 212 35 73 83 161 108
      195 51 72 156 175 241 238 34 24 130 87 214 139 84 52 180 120 214 150 54 49
      119 137 169 228 36 67 188 133 371 162 67 11 208 29 312 40 220 23 348 48 478
      91 106 36 240 101 311 152 44 32 54 35 95 30 78 -9 170 32 426 192 127 79 236
      135 264 135 20 0 22 -4 16 -32 -11 -52 -57 -129 -93 -157 -39 -30 -62 -70 -62
      -106 0 -14 -1 -25 -3 -25 -1 0 -17 4 -36 10 -49 14 -91 -7 -128 -66 -36 -57
      -63 -132 -63 -174 0 -27 3 -30 30 -30 39 0 143 35 195 65 22 14 54 38 70 56
      17 17 51 42 77 55 25 13 55 35 66 49 12 15 35 72 52 128 18 56 54 144 81 196
      28 54 49 106 49 125 0 17 -8 47 -18 66 -20 40 -74 80 -109 80 -13 0 -86 -15
      -161 -34 -75 -19 -155 -37 -176 -41 -34 -6 -38 -4 -28 8 6 7 19 34 28 58 12
      32 17 86 19 194 3 168 15 223 68 301 36 55 96 99 145 108 31 5 32 5 32 -30 0
      -77 59 -158 149 -204 34 -17 84 -57 129 -103 70 -73 72 -76 72 -125 0 -44 4
      -54 31 -76 17 -14 34 -26 39 -26 5 0 15 -3 24 -6 10 -4 16 -1 16 9 0 8 -16 24
      -35 36 -33 19 -35 24 -35 70 0 42 -5 57 -32 88 -75 90 -127 136 -179 163 -31
      16 -69 44 -86 63 -58 66 -65 135 -22 218 10 21 15 40 10 44 -5 3 -25 -13 -44
      -35 -22 -26 -42 -40 -58 -40 -41 0 -122 -45 -161 -88 -20 -23 -46 -59 -58 -81
      -32 -64 -52 -166 -48 -253 3 -76 3 -77 -17 -59 -11 10 -36 27 -55 37 -47 24
      -151 24 -213 0 -26 -10 -45 -21 -42 -26 2 -4 45 -5 95 -2 71 4 100 1 136 -13
      53 -20 84 -62 84 -115 0 -19 -11 -55 -23 -80 -17 -32 -32 -47 -53 -52 -16 -4
      -47 -12 -70 -18 -81 -20 -174 -103 -174 -155 0 -13 13 -6 48 28 27 24 64 52
      81 62 18 9 88 27 155 40 66 13 177 37 246 54 69 17 140 31 158 31 22 0 41 -8
      57 -25 39 -38 34 -87 -20 -191 -24 -48 -58 -130 -76 -183 -17 -53 -38 -106
      -45 -118 -8 -13 -33 -32 -57 -44 -23 -12 -60 -38 -82 -60 -42 -40 -127 -84
      -185 -95 -32 -7 -33 -7 -26 22 14 55 54 132 76 144 11 6 40 10 63 8 38 -3 43
      -6 47 -33 l6 -30 22 35 c12 19 20 41 17 48 -20 53 -17 61 35 113 56 56 110
      155 110 202 0 15 -9 36 -21 48 -37 37 -79 19 -369 -154 -102 -61 -211 -121
      -242 -134 -32 -13 -75 -23 -96 -23 -20 0 -48 7 -61 16 -12 9 -41 54 -63 100
      -21 46 -53 95 -69 109 -36 30 -76 42 -91 27 -7 -7 -2 -15 18 -25 45 -23 72
      -57 99 -126 15 -35 34 -75 43 -89 16 -24 15 -25 -13 -48 -49 -39 -195 -111
      -293 -144 -49 -16 -132 -39 -184 -49 -88 -18 -148 -27 -478 -66 -74 -9 -173
      -25 -220 -36 -47 -11 -120 -37 -163 -57 -42 -21 -77 -36 -77 -35 0 2 23 54 51
      115 32 70 47 114 41 120 -14 14 -54 -42 -98 -137 -118 -257 -134 -285 -203
      -358 -49 -51 -105 -94 -190 -147 -205 -127 -333 -220 -411 -299 -42 -42 -97
      -108 -123 -148 -26 -39 -68 -118 -93 -174 -25 -57 -55 -116 -66 -131 -10 -15
      -38 -39 -61 -52 -23 -14 -58 -41 -77 -61 -30 -31 -35 -33 -42 -18 -3 10 -7 32
      -7 48 -1 20 6 34 19 43 14 8 20 23 20 49 0 31 9 46 65 104 48 49 76 91 105
      151 21 46 53 135 70 197 17 62 35 122 41 132 5 11 35 32 67 48 72 37 149 112
      178 175 13 28 26 73 29 100 4 30 0 91 -9 146 -20 119 -20 217 -1 298 17 70 57
      157 106 229 98 143 285 265 473 308 33 8 139 26 234 40 304 45 493 104 685
      213 54 31 144 93 200 137 58 47 214 197 361 349 155 160 294 293 345 332 78
      59 201 128 291 164 l35 14 -62 4 c-35 1 -63 7 -63 11 0 13 61 21 203 28 75 3
      124 10 119 15 -16 16 -155 25 -237 16 -95 -10 -122 -17 -280 -68 -184 -59
      -191 -59 -100 1 90 59 156 90 230 108 28 7 100 13 160 12 126 0 229 -23 337
      -73 64 -29 70 -30 85 -15 9 9 15 18 12 20 -2 2 -42 20 -89 40 -104 44 -263 77
      -362 76 -40 0 -102 -7 -138 -14z m-2520 -1682 c-53 -8 -148 -47 -224 -92 -108
      -64 -222 -184 -275 -290 -22 -44 -55 -131 -72 -193 -17 -62 -42 -137 -56 -165
      -33 -70 -93 -150 -146 -191 -23 -19 -63 -45 -88 -58 -26 -12 -102 -39 -169
      -59 -67 -20 -145 -47 -172 -61 -27 -14 -66 -41 -88 -60 l-39 -35 11 38 c19 70
      60 137 122 198 46 46 85 73 161 109 55 26 119 64 142 83 24 19 56 53 72 76 15
      23 51 95 78 159 28 65 66 143 84 174 48 81 159 196 239 249 38 26 96 57 128
      70 78 32 184 53 257 53 33 0 49 -3 35 -5z m-638 -1815 c-4 -11 -79 -54 -126
      -73 l-39 -16 7 48 c9 66 52 152 79 158 63 13 61 14 72 -50 6 -33 9 -63 7 -67z
      M4919 3811 c-52 -34 -97 -80 -132 -137 -14 -23 -40 -48 -56 -55 -36 -16 -36
      -35 0 -31 36 5 69 32 114 95 22 31 53 66 69 79 l29 22 -7 -40 c-4 -21 -18 -59
      -32 -83 -13 -24 -22 -46 -19 -49 9 -9 52 27 64 55 8 18 29 36 59 50 25 12 47
      21 49 19 2 -1 -10 -23 -26 -48 -23 -37 -34 -45 -50 -41 -12 3 -21 1 -21 -5 0
      -5 35 -77 79 -158 55 -105 83 -171 95 -224 10 -41 39 -151 67 -244 27 -93 49
      -182 49 -198 0 -16 -5 -39 -11 -51 -15 -28 -50 -67 -61 -67 -9 0 -11 61 -2 85
      5 13 8 14 15 3 6 -9 11 -10 19 -2 14 14 9 56 -6 61 -7 2 -25 -7 -40 -21 -26
      -22 -29 -30 -29 -85 1 -53 -2 -61 -18 -61 -16 0 -17 -3 -7 -15 7 -8 27 -15 44
      -15 39 0 97 45 120 94 9 19 16 54 16 78 0 25 -22 121 -50 214 -27 93 -56 202
      -64 241 -11 52 -36 110 -86 203 l-70 131 30 38 c17 21 39 61 50 89 20 52 26
      92 14 92 -3 0 -23 -13 -43 -28 -20 -15 -49 -36 -65 -46 l-29 -18 7 26 c3 14 9
      37 12 51 5 20 2 25 -13 25 -10 0 -39 -13 -64 -29z M4910 3372 c0 -15 68 -72
      86 -72 9 0 31 -7 50 -16 19 -9 37 -14 40 -11 4 3 2 18 -3 34 -10 28 -16 31
      -98 51 -22 5 -48 13 -57 17 -10 4 -18 3 -18 -3z M3555 3166 c-64 -20 -95 -40
      -170 -106 -38 -35 -93 -74 -122 -87 -28 -13 -74 -26 -103 -30 -30 -3 -49 -10
      -47 -17 2 -6 26 -12 54 -14 82 -5 149 27 248 118 48 43 111 91 141 107 29 15
      54 31 54 36 0 9 -6 8 -55 -7z M1462 1897 c-17 -20 -41 -92 -58 -172 -29 -140
      -80 -266 -147 -365 -80 -118 -206 -236 -318 -299 -63 -35 -170 -74 -253 -91
      -81 -17 -62 -34 28 -27 168 15 322 100 477 265 48 51 107 128 137 178 29 49
      64 124 78 168 13 43 32 124 40 180 8 56 20 116 26 134 11 37 7 50 -10 29z"/>
    </g>
    <g opacity="0.50000000" transform="translate(0,430) scale(0.100000,-0.100000)">
      <path d="M4223 3840 c-79 -15 -158 -47 -231 -97 -98 -66 -136 -83 -185 -83
      -24 0 -65 7 -91 16 -26 9 -50 13 -54 9 -9 -8 33 -42 78 -62 19 -9 68 -18 109
      -22 l74 -6 -77 -44 c-194 -111 -343 -127 -489 -54 -27 13 -51 22 -54 20 -10
      -11 19 -48 60 -76 46 -31 157 -81 182 -81 28 0 15 -18 -17 -24 -53 -10 -129
      -50 -183 -95 -27 -23 -68 -52 -90 -64 -33 -18 -55 -22 -127 -20 -49 0 -88 -3
      -88 -7 0 -5 20 -16 45 -25 53 -21 133 -17 185 8 20 10 58 35 85 58 27 22 68
      51 90 65 23 13 93 37 157 53 132 34 188 55 188 72 0 7 -7 8 -17 4 -41 -17
      -134 -17 -210 1 l-78 18 90 7 c112 8 190 37 340 128 61 36 146 80 190 98 76
      31 145 43 145 25 0 -5 -18 -17 -39 -27 -64 -28 -174 -105 -266 -184 -48 -41
      -165 -158 -260 -261 -95 -102 -206 -215 -246 -251 -100 -89 -223 -179 -311
      -227 -179 -99 -362 -153 -658 -197 -96 -14 -201 -32 -232 -40 -157 -40 -309
      -121 -413 -221 l-50 -49 -100 -1 c-55 -1 -131 -9 -169 -18 -138 -33 -272 -105
      -379 -205 -96 -89 -174 -214 -242 -386 -16 -38 -38 -86 -50 -105 -35 -56 -95
      -104 -186 -147 -46 -22 -112 -61 -147 -87 -69 -51 -128 -132 -163 -225 -23
      -60 -39 -211 -22 -211 5 0 24 22 41 49 41 62 93 108 157 137 27 13 100 37 160
      54 160 46 227 82 316 170 90 89 120 146 174 330 20 69 55 159 76 201 22 42 65
      104 95 137 30 34 88 83 128 110 71 47 220 111 232 99 4 -3 -3 -22 -15 -41 -35
      -57 -71 -176 -78 -256 -3 -48 1 -122 12 -204 9 -71 14 -147 11 -169 -9 -55
      -52 -131 -98 -172 -20 -19 -59 -46 -87 -59 -27 -14 -59 -37 -70 -52 -12 -15
      -28 -52 -37 -83 -42 -155 -58 -202 -91 -271 -25 -52 -54 -92 -94 -131 -59 -57
      -79 -91 -79 -135 0 -22 -4 -24 -49 -24 -33 0 -58 -7 -81 -22 -55 -38 -100
      -149 -100 -248 0 -37 2 -40 29 -40 16 0 66 19 111 41 60 30 101 60 149 109 36
      37 82 76 101 88 19 11 47 33 62 49 14 15 54 86 87 156 33 71 80 157 105 190
      52 74 167 186 256 249 36 25 119 78 184 118 66 39 145 91 177 115 75 59 136
      128 179 204 19 35 45 75 57 91 31 37 151 95 251 120 46 12 199 34 341 50 286
      32 415 56 549 99 103 34 244 103 316 155 44 31 55 34 91 29 25 -3 63 1 96 10
      52 16 173 82 364 199 161 99 255 139 255 108 0 -5 -9 -34 -21 -65 -13 -36 -38
      -73 -69 -104 -26 -26 -52 -57 -59 -69 -6 -11 -11 -32 -11 -45 0 -24 -2 -24
      -40 -16 -30 7 -48 6 -69 -5 -15 -8 -40 -33 -54 -55 -37 -56 -67 -135 -67 -176
      0 -32 2 -35 30 -35 38 0 143 35 190 62 19 12 53 38 75 59 22 21 56 45 76 53
      20 8 48 29 62 45 14 17 39 75 57 133 18 57 54 145 81 197 27 51 49 106 49 122
      0 40 -22 89 -52 117 -14 12 -41 25 -60 28 -22 4 -86 -7 -184 -30 -212 -52
      -198 -50 -189 -29 35 82 38 104 39 243 1 123 5 155 24 212 13 37 36 85 53 107
      34 47 90 86 137 95 31 5 32 5 32 -30 0 -47 24 -102 63 -142 18 -19 57 -46 87
      -62 33 -17 84 -58 128 -103 70 -73 72 -76 72 -125 0 -56 14 -76 67 -98 18 -8
      35 -14 38 -14 3 0 5 7 5 15 0 9 -16 25 -35 36 -32 19 -35 25 -35 70 0 40 -6
      55 -32 86 -74 88 -126 136 -181 165 -32 17 -71 46 -87 64 -16 19 -34 51 -40
      73 -12 45 -5 90 22 144 11 22 16 42 13 45 -4 4 -24 -12 -45 -35 -24 -28 -46
      -43 -61 -43 -41 0 -122 -45 -163 -90 -46 -51 -82 -126 -96 -200 -5 -29 -10
      -86 -10 -127 l0 -74 -33 25 c-41 31 -119 49 -177 41 -52 -8 -120 -34 -120 -45
      0 -5 43 -6 95 -3 76 5 103 2 141 -12 52 -20 84 -62 84 -113 0 -18 -11 -55 -25
      -81 -22 -45 -28 -50 -67 -56 -24 -3 -71 -20 -106 -37 -43 -20 -73 -43 -93 -70
      -16 -23 -29 -49 -29 -60 0 -10 2 -18 5 -18 3 0 20 16 37 35 51 58 102 82 240
      109 69 14 184 39 253 56 70 16 140 30 157 30 17 0 39 -10 53 -25 38 -37 34
      -91 -14 -179 -22 -39 -58 -125 -80 -190 -23 -66 -47 -126 -53 -133 -6 -8 -30
      -24 -52 -35 -23 -11 -59 -37 -81 -59 -41 -39 -127 -84 -183 -95 -20 -4 -32 -3
      -32 4 0 21 40 117 60 142 16 21 27 25 74 25 55 0 56 0 56 -30 l0 -29 22 21
      c14 15 21 32 19 55 -4 77 -3 80 42 122 50 45 107 152 107 199 0 15 -9 36 -21
      48 -16 16 -27 19 -52 13 -46 -10 -144 -61 -297 -155 -74 -45 -175 -102 -224
      -126 -102 -49 -157 -56 -198 -24 -14 11 -37 48 -53 83 -34 79 -68 124 -105
      143 -31 16 -70 20 -70 7 0 -5 21 -23 46 -40 32 -23 51 -47 65 -80 10 -26 30
      -68 44 -95 14 -26 25 -49 25 -52 0 -12 -126 -86 -213 -123 -103 -46 -236 -84
      -372 -107 -49 -8 -188 -26 -308 -40 -120 -13 -257 -34 -305 -45 -48 -11 -122
      -38 -165 -58 -42 -21 -77 -37 -77 -35 0 1 23 52 51 113 34 74 48 115 41 122
      -14 14 -53 -41 -98 -137 -114 -249 -134 -285 -196 -351 -64 -68 -133 -118
      -293 -214 -127 -77 -274 -189 -341 -263 -77 -84 -139 -182 -192 -302 -24 -55
      -53 -112 -64 -128 -11 -15 -33 -34 -50 -43 -17 -9 -52 -36 -78 -60 -46 -43
      -48 -44 -54 -22 -10 41 -6 64 14 83 13 12 20 31 20 53 0 30 10 46 64 101 39
      41 78 94 100 139 20 40 52 128 71 195 19 67 40 132 46 144 7 12 37 35 68 52
      73 39 148 113 177 175 13 28 26 73 29 100 4 30 0 91 -9 146 -9 52 -16 124 -16
      160 0 127 41 250 120 365 75 109 218 220 347 269 98 37 165 52 331 76 81 12
      189 30 240 41 197 40 414 129 561 229 33 22 92 66 133 99 68 55 128 114 468
      464 74 77 173 168 220 203 77 59 200 128 290 164 l35 14 -62 4 c-35 1 -63 7
      -63 11 0 12 64 20 208 28 68 3 119 10 115 14 -5 5 -42 13 -82 19 -50 7 -99 7
      -153 0 -95 -12 -127 -19 -283 -70 -184 -59 -191 -59 -100 1 147 96 220 119
      386 119 84 0 137 -6 195 -21 43 -11 108 -33 143 -50 62 -28 101 -31 101 -6 0
      15 -134 72 -230 98 -86 23 -268 33 -347 19z m-2572 -1696 c-75 -20 -129 -45
      -208 -97 -115 -75 -199 -168 -256 -282 -20 -39 -50 -123 -67 -185 -18 -63 -50
      -149 -71 -191 -22 -41 -62 -99 -90 -127 -28 -29 -79 -68 -112 -87 -34 -18
      -116 -49 -183 -68 -66 -19 -144 -47 -172 -61 -29 -15 -70 -42 -92 -62 -34 -31
      -38 -32 -33 -12 3 13 19 51 34 86 19 43 48 83 91 125 48 48 87 74 163 111 55
      26 119 64 142 83 24 19 56 53 72 76 15 23 51 95 78 159 28 65 66 143 84 174
      48 80 159 196 237 248 37 24 95 55 129 69 55 22 86 31 188 51 11 2 43 4 70 4
      l50 1 -54 -15z m-599 -1806 c-4 -11 -79 -54 -126 -73 l-39 -16 7 48 c9 66 52
      152 79 158 63 13 61 14 72 -50 6 -33 9 -63 7 -67z M4919 3811 c-52 -33 -97
      -80 -132 -137 -14 -23 -39 -47 -56 -54 -17 -7 -31 -16 -31 -21 0 -33 76 -6
      111 41 13 17 48 57 77 89 l54 56 -7 -40 c-4 -22 -18 -59 -32 -83 -13 -24 -22
      -46 -19 -49 10 -10 53 25 65 54 8 17 29 36 57 49 27 13 44 17 44 10 0 -6 -11
      -28 -25 -48 -18 -27 -30 -35 -45 -31 -11 3 -20 1 -20 -5 0 -5 35 -77 79 -158
      43 -82 81 -165 85 -184 4 -19 34 -132 68 -251 66 -238 68 -263 22 -319 -14
      -16 -30 -30 -35 -30 -12 0 -11 71 1 90 8 13 10 12 10 -3 0 -11 6 -17 13 -14
      16 5 16 69 0 74 -7 3 -27 -9 -44 -27 -29 -29 -31 -35 -27 -85 4 -48 2 -55 -13
      -55 -12 0 -16 -5 -13 -15 4 -10 20 -15 45 -15 28 0 47 8 73 30 18 17 41 45 50
      64 9 19 16 54 16 78 0 24 -20 114 -45 199 -25 85 -55 194 -65 242 -16 67 -37
      118 -90 218 l-70 130 30 38 c17 21 39 61 50 89 20 52 26 92 14 92 -3 0 -23
      -13 -43 -28 -20 -15 -49 -36 -65 -46 l-29 -18 7 26 c3 14 9 37 12 51 5 20 2
      25 -13 25 -10 0 -39 -13 -64 -29z M4910 3372 c0 -15 68 -72 86 -72 9 0 31 -7
      50 -16 19 -9 37 -14 40 -11 4 3 2 18 -3 34 -10 28 -16 31 -98 51 -22 5 -48 13
      -57 17 -10 4 -18 3 -18 -3z M3560 3171 c-53 -16 -108 -51 -175 -111 -38 -35
      -93 -74 -122 -87 -28 -13 -74 -26 -103 -30 -30 -3 -49 -10 -47 -17 2 -6 26
      -12 54 -14 82 -5 149 27 248 118 48 43 111 91 141 107 70 37 73 55 4 34z
      M1462 1898 c-19 -24 -40 -87 -57 -168 -36 -175 -96 -307 -200 -436 -98 -124
      -220 -219 -341 -268 -34 -14 -100 -35 -148 -47 -51 -13 -83 -25 -79 -32 3 -6
      34 -8 77 -4 86 6 213 51 293 103 32 21 105 85 163 144 75 75 120 131 158 195
      29 49 64 125 78 169 13 43 32 124 40 180 8 56 20 116 26 134 11 36 7 50 -10
      30z"/>
    </g>
    <g opacity="1.00000000" transform="translate(0,430) scale(0.100000,-0.100000)">
      <path d="M4223 3840 c-79 -15 -158 -48 -231 -97 -89 -61 -139 -83 -187 -83
      -22 0 -61 8 -87 17 -82 29 -74 -8 10 -49 30 -14 74 -24 121 -28 l74 -5 -77
      -44 c-42 -24 -107 -55 -144 -69 -52 -19 -87 -25 -157 -26 -78 -1 -99 3 -155
      27 -36 16 -73 31 -84 34 -18 6 -18 5 0 -22 25 -39 121 -98 193 -121 34 -11 61
      -22 61 -25 0 -4 -17 -10 -37 -14 -52 -9 -120 -46 -178 -95 -28 -23 -68 -51
      -90 -63 -33 -17 -56 -21 -127 -20 -49 0 -88 -3 -88 -7 0 -14 79 -40 122 -40
      22 0 58 5 78 11 21 7 73 38 117 71 43 33 91 66 106 74 15 8 82 28 148 45 67
      16 134 36 150 45 37 19 38 37 2 27 -44 -12 -152 -9 -218 7 l-60 14 90 7 c50 4
      104 12 120 17 63 21 127 53 227 113 118 72 248 129 296 129 17 0 32 -3 32 -7
      0 -5 -30 -24 -67 -43 -146 -75 -233 -153 -618 -551 -88 -91 -197 -193 -243
      -228 -151 -114 -288 -186 -467 -244 -108 -35 -183 -52 -355 -77 -80 -11 -170
      -25 -200 -31 -75 -14 -204 -56 -265 -87 -70 -35 -151 -92 -210 -148 l-50 -47
      -105 -2 c-126 -3 -229 -28 -345 -86 -165 -81 -293 -215 -380 -394 -29 -60 -65
      -139 -81 -175 -44 -99 -89 -141 -227 -212 -90 -47 -136 -78 -181 -123 -65 -64
      -106 -137 -131 -231 -16 -63 -20 -164 -7 -164 5 0 23 22 41 50 39 60 100 112
      164 139 26 11 96 35 155 52 59 17 135 44 169 60 76 36 173 124 223 200 40 62
      64 123 104 268 15 52 46 131 69 175 74 144 228 273 386 326 35 11 66 19 68 16
      3 -3 -4 -21 -16 -40 -12 -19 -33 -67 -47 -108 -34 -100 -40 -212 -20 -362 10
      -67 14 -137 11 -160 -10 -56 -51 -130 -97 -171 -20 -19 -59 -45 -85 -59 -83
      -42 -87 -49 -142 -250 -34 -124 -87 -223 -152 -286 -30 -30 -61 -65 -67 -77
      -7 -12 -12 -35 -12 -51 0 -29 -1 -30 -62 -34 -56 -4 -64 -8 -94 -42 -18 -21
      -40 -59 -49 -84 -9 -26 -19 -77 -22 -115 l-6 -67 30 0 c17 0 68 19 114 42 60
      30 101 60 148 108 36 36 82 76 101 88 19 11 47 33 62 49 15 15 51 80 81 144
      30 64 70 140 89 170 47 74 138 170 225 239 39 32 136 97 215 145 78 48 169
      108 200 132 78 60 145 138 193 225 45 80 82 112 182 152 88 36 224 61 488 90
      259 29 389 54 520 97 111 37 189 74 284 135 69 45 79 48 141 48 58 1 78 7 151
      43 46 23 136 74 199 114 217 135 340 193 340 159 0 -5 -9 -34 -21 -65 -13 -36
      -38 -73 -69 -104 -26 -26 -52 -57 -59 -69 -6 -11 -11 -32 -11 -46 0 -23 -2
      -24 -36 -14 -26 7 -44 6 -66 -3 -54 -22 -128 -158 -128 -236 l0 -36 48 6 c78
      9 178 55 235 107 29 26 68 54 88 63 19 8 47 28 61 45 15 18 39 74 57 130 17
      54 53 142 81 196 27 54 50 112 50 128 0 39 -22 88 -52 116 -41 37 -83 38 -220
      3 -119 -30 -218 -51 -218 -46 0 1 10 24 22 51 19 43 22 69 24 204 1 130 5 164
      23 215 25 70 63 128 106 161 17 12 49 27 73 32 l42 10 0 -34 c0 -47 25 -102
      63 -142 18 -19 57 -46 87 -62 35 -18 83 -57 129 -105 65 -69 72 -81 68 -109
      -9 -62 18 -98 91 -120 32 -11 29 19 -5 41 -16 10 -31 22 -35 28 -4 5 -8 29 -8
      52 0 30 -7 51 -27 75 -60 75 -131 141 -174 163 -61 31 -106 70 -126 108 -22
      44 -19 125 7 177 12 23 18 45 15 48 -4 4 -24 -12 -45 -35 -24 -28 -46 -43 -61
      -43 -41 0 -122 -45 -163 -90 -46 -51 -82 -126 -96 -200 -5 -29 -10 -86 -10
      -127 l0 -74 -32 25 c-45 33 -112 49 -171 42 -55 -8 -127 -34 -127 -47 0 -4 44
      -5 98 -2 86 5 104 3 145 -15 36 -16 51 -30 62 -56 8 -20 15 -47 15 -61 0 -14
      -11 -48 -25 -74 -22 -45 -28 -50 -67 -56 -24 -3 -71 -20 -106 -37 -43 -20 -73
      -43 -93 -70 -27 -39 -38 -78 -21 -78 4 0 19 16 35 35 46 58 99 81 267 115 85
      17 199 42 252 56 53 13 111 24 128 24 19 0 40 -9 55 -25 38 -37 34 -90 -14
      -178 -22 -40 -58 -126 -81 -191 -22 -66 -46 -126 -52 -134 -6 -7 -32 -24 -57
      -37 -26 -12 -62 -39 -81 -59 -36 -36 -122 -81 -179 -92 -19 -4 -31 -2 -31 4 0
      21 40 117 60 142 16 21 27 25 74 25 55 0 56 0 56 -30 l1 -30 24 27 c20 24 23
      34 18 80 -5 52 -5 54 34 85 23 18 55 60 76 101 44 83 48 133 15 156 -12 9 -30
      16 -38 16 -27 0 -168 -73 -319 -165 -78 -48 -181 -105 -228 -127 -71 -34 -93
      -39 -130 -35 -24 2 -52 12 -62 21 -10 10 -31 45 -46 79 -34 78 -68 123 -105
      142 -31 16 -70 20 -70 7 0 -5 20 -22 43 -39 30 -20 51 -47 66 -79 12 -27 33
      -71 47 -98 l26 -49 -24 -19 c-38 -30 -138 -85 -214 -117 -84 -36 -221 -73
      -354 -95 -52 -9 -176 -25 -275 -36 -99 -11 -219 -27 -266 -35 -98 -17 -215
      -56 -271 -91 -21 -14 -38 -22 -38 -20 0 3 23 55 51 115 50 111 56 150 17 114
      -25 -23 -46 -63 -123 -234 -34 -75 -78 -160 -99 -188 -53 -71 -140 -147 -243
      -210 -204 -126 -322 -210 -404 -291 -94 -92 -161 -188 -215 -308 -67 -147 -78
      -164 -124 -195 -25 -16 -64 -48 -86 -69 l-42 -40 -7 42 c-6 34 -3 45 14 64 13
      13 21 36 21 56 0 28 11 45 64 99 39 41 78 94 100 139 20 40 52 128 71 195 19
      67 40 132 46 143 6 12 36 35 66 50 115 60 197 170 209 281 3 26 -1 92 -10 145
      -20 120 -20 202 -2 289 15 69 58 164 108 236 40 59 122 138 193 186 70 48 183
      97 277 120 37 10 132 26 210 38 197 28 311 52 436 94 131 44 241 97 347 166
      121 79 209 154 356 306 469 483 514 520 784 639 15 6 4 10 -42 12 -35 2 -63 7
      -63 11 0 11 69 20 213 28 65 3 114 10 110 14 -4 4 -39 13 -78 19 -111 18 -227
      0 -440 -69 -66 -22 -133 -42 -150 -45 -28 -6 -28 -5 10 17 22 13 65 40 95 61
      30 20 90 48 133 61 64 21 99 25 191 25 87 0 136 -6 208 -24 52 -13 118 -36
      147 -50 52 -27 91 -28 91 -2 0 16 -126 69 -226 96 -90 24 -270 34 -351 20z
      m-2571 -1694 c-72 -18 -183 -75 -263 -135 -78 -59 -167 -168 -208 -254 -16
      -34 -46 -118 -66 -187 -20 -69 -53 -155 -72 -193 -44 -83 -138 -173 -225 -216
      -35 -17 -108 -43 -163 -57 -116 -30 -199 -70 -255 -120 l-40 -36 20 58 c27 78
      72 146 132 198 27 24 96 66 153 94 57 28 122 67 144 87 22 20 53 57 69 83 16
      26 51 98 77 161 27 63 70 146 96 186 59 87 166 190 247 238 71 42 184 84 256
      96 28 5 74 9 101 9 l50 0 -53 -12z m-607 -1743 c4 -32 8 -60 9 -63 2 -7 -101
      -67 -136 -79 l-31 -11 7 46 c7 53 35 122 60 147 10 9 32 17 51 17 32 0 33 -1
      40 -57z M4919 3812 c-48 -31 -105 -90 -134 -140 -10 -17 -34 -39 -52 -49 -41
      -22 -45 -48 -5 -38 42 10 68 31 111 88 21 28 53 66 71 82 l33 30 -7 -40 c-4
      -22 -19 -59 -33 -83 -13 -24 -22 -46 -19 -49 10 -10 57 28 67 55 7 17 26 35
      55 48 27 13 44 17 44 10 0 -6 -11 -28 -25 -48 -18 -27 -30 -35 -45 -31 -11 3
      -20 0 -20 -5 0 -6 34 -76 76 -154 62 -115 82 -164 104 -253 15 -60 46 -176 70
      -256 33 -111 41 -154 36 -182 -7 -36 -49 -97 -67 -97 -12 0 -11 71 1 90 8 13
      10 12 10 -2 0 -25 19 -22 29 5 9 24 -3 57 -20 57 -6 0 -24 -14 -41 -30 -28
      -28 -30 -35 -26 -85 4 -48 2 -55 -13 -55 -12 0 -16 -5 -13 -15 4 -10 20 -15
      45 -15 29 0 47 8 75 32 20 18 43 47 50 65 8 18 14 52 14 75 0 24 -23 121 -50
      217 -27 96 -56 204 -64 240 -9 44 -37 109 -85 199 l-71 133 30 38 c17 21 39
      61 50 89 20 52 26 92 14 92 -3 0 -23 -13 -43 -28 -20 -15 -49 -36 -64 -46 -28
      -17 -29 -17 -24 1 3 10 8 33 12 51 6 27 4 32 -12 32 -11 0 -39 -13 -64 -28z
      M4910 3371 c0 -18 71 -70 105 -77 19 -3 38 -10 41 -15 3 -5 12 -9 20 -9 19 0
      18 30 -2 58 -11 15 -25 22 -50 22 -19 0 -51 7 -71 15 -19 8 -37 15 -39 15 -2
      0 -4 -4 -4 -9z M3560 3171 c-53 -17 -111 -53 -177 -111 -37 -34 -91 -72 -119
      -86 -27 -13 -74 -27 -102 -31 -77 -9 -60 -28 24 -27 50 0 80 6 111 22 24 12
      80 56 125 98 46 41 107 86 136 101 69 34 71 55 2 34z M1442 1863 c-11 -27 -29
      -91 -40 -144 -39 -182 -109 -326 -222 -454 -143 -162 -262 -235 -464 -286 -51
      -13 -83 -25 -79 -32 11 -17 144 0 228 30 44 16 112 50 151 76 83 56 224 197
      281 282 85 126 120 221 153 413 11 64 23 127 26 140 12 41 -13 23 -34 -25z"/>
    </g>
  </g>
</svg>
