<?xml version="1.0" encoding="UTF-8"?>
<svg xmlns="http://www.w3.org/2000/svg" viewBox="0 0 600 430" width="600" height="430" fill="none">
  <title>Layered spline reconstruction</title>
  <g fill="#f1ead8" stroke="none">
    <g opacity="0.25000000" transform="translate(0,430) scale(0.100000,-0.100000)">
      <path d="M4245 3840 c-32 -6 -75 -15 -95 -21 -52 -17 -129 -57 -181 -94 -26
      -18 -61 -41 -79 -50 -41 -21 -124 -22 -174 -1 -21 9 -44 16 -50 16 -6 0 4 -14
      21 -30 42 -38 130 -64 199 -58 30 3 54 4 54 2 0 -1 -44 -27 -97 -57 -137 -77
      -187 -92 -308 -92 -92 0 -105 2 -165 32 -35 17 -67 30 -69 27 -3 -2 11 -20 30
      -40 38 -39 151 -100 205 -110 19 -3 34 -10 34 -14 0 -4 -16 -11 -35 -14 -60
      -12 -118 -41 -185 -96 -100 -80 -112 -85 -218 -85 -77 0 -89 -2 -75 -13 20
      -14 79 -32 109 -32 48 0 120 32 187 83 40 30 91 64 114 76 22 11 90 32 150 47
      94 23 163 47 163 58 0 2 -33 1 -74 -2 -49 -3 -99 1 -150 12 -41 10 -77 20 -80
      24 -2 4 35 7 83 7 106 1 183 25 302 95 46 28 130 73 187 102 75 37 118 53 158
      56 29 2 54 0 54 -5 0 -5 -33 -25 -73 -45 -40 -20 -111 -64 -157 -99 -47 -35
      -146 -127 -220 -204 -287 -297 -428 -433 -515 -497 -93 -70 -233 -147 -345
      -192 -71 -29 -213 -70 -300 -86 -30 -6 -131 -22 -224 -36 -179 -27 -294 -58
      -391 -106 -76 -39 -169 -105 -220 -157 l-39 -41 -88 0 c-103 0 -215 -21 -306
      -57 -140 -56 -287 -178 -375 -311 -25 -37 -62 -105 -82 -152 -102 -240 -121
      -263 -283 -344 -121 -61 -213 -136 -257 -212 -15 -25 -35 -71 -46 -102 -22
      -63 -37 -202 -23 -202 5 0 18 16 28 35 26 49 117 132 168 155 24 10 93 33 153
      50 162 47 242 88 323 168 83 82 127 166 173 327 17 61 49 148 71 195 33 69 57
      100 127 170 64 64 107 96 166 127 44 23 104 48 133 56 28 9 52 14 52 13 0 -2
      -11 -24 -25 -48 -36 -65 -64 -152 -76 -237 -8 -58 -7 -102 7 -209 9 -74 14
      -156 11 -183 -3 -26 -13 -63 -23 -81 -26 -52 -93 -116 -162 -155 -35 -19 -69
      -45 -77 -57 -8 -12 -26 -66 -40 -121 -30 -114 -67 -212 -103 -270 -14 -22 -51
      -68 -83 -102 -49 -51 -59 -67 -59 -97 0 -42 -17 -54 -76 -53 -22 0 -52 -8 -67
      -18 -15 -9 -38 -40 -51 -68 -28 -58 -53 -175 -42 -202 5 -13 13 -16 37 -11 70
      14 162 69 249 149 49 45 107 96 131 112 23 17 50 46 60 65 10 19 43 87 73 150
      68 141 154 252 270 346 47 38 147 107 223 154 76 46 171 109 212 139 83 61
      145 135 195 231 28 53 44 71 88 97 135 82 221 102 568 138 299 31 470 68 646
      142 49 20 123 60 166 89 73 49 80 51 141 51 53 -1 76 5 140 35 41 20 154 83
      249 141 197 119 243 143 278 148 22 4 25 1 24 -28 -2 -47 -41 -116 -95 -169
      -42 -41 -49 -54 -49 -86 l0 -38 -56 6 c-53 7 -57 5 -89 -26 -40 -38 -83 -129
      -91 -194 -6 -44 -6 -46 18 -46 34 0 125 28 178 55 25 13 59 37 75 55 17 18 56
      45 87 61 32 16 65 40 74 54 8 13 33 76 55 140 21 64 57 149 79 189 32 58 40
      83 40 123 0 65 -31 113 -85 131 -35 11 -51 9 -179 -22 -78 -19 -161 -38 -184
      -42 l-44 -7 23 44 c20 39 24 64 30 214 5 124 11 184 24 220 34 95 89 161 157
      189 56 24 68 21 68 -16 0 -18 11 -56 24 -84 25 -54 68 -93 140 -128 23 -12 75
      -56 116 -99 72 -76 73 -79 71 -125 -1 -39 3 -52 22 -70 26 -24 87 -41 87 -24
      0 7 -13 18 -30 27 -16 8 -34 24 -40 35 -6 11 -8 31 -4 44 3 13 0 35 -7 48 -7
      12 -40 55 -75 94 -38 42 -83 80 -111 95 -63 31 -123 86 -140 126 -18 45 -16
      101 7 152 11 24 18 46 16 48 -8 8 -27 -8 -46 -39 -15 -25 -26 -31 -61 -34 -51
      -5 -117 -41 -154 -86 -69 -81 -113 -235 -101 -350 3 -32 2 -58 -3 -58 -5 0
      -11 6 -14 14 -3 7 -25 23 -49 35 -33 16 -62 21 -114 20 -70 -1 -135 -17 -141
      -35 -2 -7 22 -7 69 -2 40 4 89 5 108 1 83 -14 130 -61 130 -130 0 -43 -26
      -110 -52 -130 -7 -6 -33 -13 -56 -17 -80 -12 -167 -68 -198 -128 -26 -50 -14
      -52 34 -6 26 25 65 55 88 66 22 11 92 30 155 42 63 12 175 36 251 54 75 19
      148 31 162 29 29 -6 63 -43 72 -79 4 -16 -11 -61 -49 -141 -30 -65 -67 -155
      -81 -200 -15 -45 -36 -94 -48 -108 -11 -14 -35 -32 -53 -39 -18 -8 -57 -36
      -88 -64 -32 -29 -77 -58 -108 -69 -59 -22 -109 -35 -109 -30 0 2 9 30 20 62
      11 32 31 73 46 92 24 31 28 33 85 32 58 -2 60 -2 55 -25 -4 -13 -2 -24 3 -24
      20 0 33 42 26 85 -6 42 -4 45 53 108 37 41 66 86 80 122 12 31 22 65 22 74 0
      26 -32 51 -66 51 -36 0 -128 -47 -314 -160 -194 -119 -286 -162 -345 -162 -35
      0 -53 6 -72 24 -14 13 -40 55 -58 93 -18 39 -43 81 -55 94 -26 27 -86 54 -100
      46 -6 -4 9 -21 32 -38 32 -24 54 -54 83 -113 22 -45 46 -89 54 -98 12 -14 11
      -19 -5 -31 -44 -35 -154 -96 -223 -125 -159 -65 -305 -96 -640 -135 -124 -14
      -259 -33 -300 -41 -83 -17 -188 -54 -239 -85 l-33 -19 6 22 c4 13 25 61 46
      107 21 46 39 90 39 97 0 26 -20 14 -47 -28 -15 -24 -55 -106 -88 -184 -34 -77
      -76 -161 -94 -187 -58 -85 -147 -161 -303 -258 -84 -52 -182 -115 -218 -142
      -90 -65 -213 -189 -265 -267 -24 -37 -69 -120 -100 -185 -31 -66 -66 -130 -77
      -143 -12 -12 -41 -33 -64 -47 -22 -13 -55 -40 -72 -59 -29 -33 -30 -33 -36
      -13 -11 42 -6 77 15 98 13 13 18 27 14 39 -3 11 -1 28 4 39 6 10 37 45 69 78
      70 69 119 164 157 303 14 52 34 115 43 140 15 37 27 50 80 80 78 46 142 107
      173 168 21 41 24 60 23 147 0 55 -4 150 -9 212 -9 134 2 207 49 308 81 173
      223 303 416 382 88 36 173 55 370 84 80 11 191 31 248 44 135 32 294 93 408
      156 185 102 297 202 694 615 84 88 183 179 235 217 89 66 257 157 289 157 9 0
      16 5 16 11 0 8 -12 10 -33 6 -37 -6 -87 2 -87 13 0 12 143 30 242 30 68 0 89
      3 81 11 -18 18 -184 23 -270 9 -43 -6 -147 -34 -230 -61 -165 -53 -228 -64
      -158 -27 22 11 54 31 70 44 50 38 157 83 236 100 53 11 100 14 165 10 100 -7
      215 -34 290 -68 27 -12 56 -25 66 -29 9 -4 24 -2 35 6 16 12 12 16 -52 45
      -147 67 -355 101 -490 80z m-2574 -1695 c-123 -27 -266 -110 -356 -206 -64
      -68 -110 -134 -141 -205 -13 -30 -38 -105 -55 -167 -17 -62 -47 -143 -67 -182
      -48 -91 -137 -180 -223 -222 -36 -18 -110 -44 -165 -59 -119 -31 -204 -70
      -262 -120 l-43 -36 7 28 c15 63 59 139 116 200 50 53 80 74 167 117 58 29 121
      64 140 77 54 40 99 111 157 247 79 187 147 282 269 380 128 102 291 162 440
      162 l80 -1 -64 -13z m-622 -1737 c9 -53 8 -64 -6 -80 -17 -19 -129 -78 -148
      -78 -9 0 -10 13 -4 48 16 102 64 172 117 172 29 0 30 -3 41 -62z M4930 3814
      c-61 -34 -86 -59 -127 -122 -19 -30 -51 -63 -71 -75 -29 -17 -33 -23 -19 -25
      36 -7 78 21 117 78 37 55 92 110 110 110 14 0 -10 -84 -36 -123 -14 -22 -23
      -41 -21 -44 10 -10 57 30 63 53 4 15 25 34 60 53 30 16 54 26 54 23 0 -4 -14
      -31 -31 -60 -25 -45 -33 -51 -45 -41 -8 6 -17 9 -20 6 -3 -3 31 -73 75 -157
      59 -111 86 -173 100 -234 11 -46 41 -155 66 -242 25 -87 45 -177 45 -199 0
      -27 -9 -53 -25 -78 -14 -20 -32 -37 -39 -37 -19 0 -28 43 -15 76 7 21 12 25
      18 15 5 -8 14 -10 20 -7 16 10 14 53 -3 59 -23 9 -55 -21 -67 -62 -8 -29 -9
      -48 -1 -70 10 -28 9 -31 -9 -31 -31 0 -17 -24 15 -28 41 -5 99 38 126 93 18
      36 21 57 17 93 -3 26 -28 124 -56 219 -27 94 -55 198 -61 229 -8 35 -41 113
      -84 195 -66 124 -71 137 -55 147 19 12 74 120 83 165 4 15 2 27 -3 27 -6 0
      -36 -18 -67 -40 -32 -22 -61 -40 -65 -40 -4 0 -3 15 2 32 11 40 12 68 2 68 -5
      0 -28 -12 -53 -26z M4920 3361 c13 -25 71 -61 98 -61 11 0 27 -7 36 -15 8 -8
      17 -15 20 -15 3 0 6 11 6 23 0 33 -30 57 -71 57 -19 0 -47 7 -63 15 -15 8 -30
      15 -32 15 -3 0 0 -9 6 -19z M3541 3160 c-56 -20 -87 -41 -177 -120 -30 -26
      -74 -57 -97 -68 -23 -11 -69 -25 -102 -32 -54 -11 -58 -14 -35 -22 34 -13 104
      -1 167 27 29 13 86 56 131 98 44 41 101 84 126 96 25 13 46 27 46 32 0 5 -1 9
      -2 9 -2 -1 -27 -9 -57 -20z M1448 1867 c-9 -18 -23 -66 -33 -107 -30 -132 -66
      -243 -101 -310 -47 -90 -121 -186 -201 -260 -119 -111 -244 -179 -401 -217
      -39 -9 -69 -21 -66 -25 8 -13 106 0 189 23 88 26 171 72 255 142 70 57 158
      154 207 227 45 66 88 156 111 231 11 36 28 114 37 175 10 60 21 119 26 132 13
      34 -5 26 -23 -11z"/>
    </g>
    <g opacity="0.33333333" transform="translate(0,430) scale(0.100000,-0.100000)">
      <path d="M4244 3840 c-28 -4 -69 -13 -90 -20 -57 -19 -132 -57 -188 -97 -27
      -20 -64 -42 -82 -49 -44 -18 -126 -18 -171 1 -19 8 -40 15 -46 15 -18 0 27
      -41 68 -63 30 -16 60 -21 122 -21 46 -1 83 -2 83 -2 0 -1 -39 -24 -87 -52 -49
      -27 -115 -60 -148 -72 -33 -12 -94 -24 -135 -27 -55 -4 -92 -1 -135 11 -33 10
      -75 26 -94 37 -18 11 -36 17 -39 14 -3 -3 10 -22 29 -41 36 -39 151 -100 206
      -110 36 -7 45 -24 13 -24 -41 0 -128 -43 -203 -101 -42 -33 -96 -67 -120 -75
      -30 -12 -62 -14 -116 -10 -61 5 -72 4 -62 -8 6 -7 32 -19 56 -26 81 -23 167 4
      260 81 27 22 71 52 97 65 25 13 94 35 152 49 59 13 123 33 144 44 l37 19 -82
      -5 c-61 -4 -101 -1 -160 13 l-78 19 90 7 c129 9 187 31 374 142 121 71 229
      116 280 116 23 0 41 -3 41 -8 0 -4 -31 -22 -69 -41 -38 -18 -109 -63 -158
      -100 -48 -36 -151 -131 -228 -211 -296 -306 -413 -419 -511 -491 -119 -89
      -260 -164 -401 -212 -118 -42 -244 -69 -438 -97 -77 -11 -178 -29 -225 -41
      -48 -11 -133 -44 -197 -75 -86 -42 -129 -71 -185 -123 l-73 -68 -125 -6 c-144
      -6 -223 -27 -339 -88 -97 -52 -182 -120 -245 -196 -71 -85 -109 -152 -165
      -286 -26 -63 -63 -135 -81 -161 -37 -51 -86 -86 -205 -143 -104 -50 -204 -142
      -245 -227 -16 -33 -36 -88 -45 -121 -16 -63 -20 -155 -7 -155 4 0 16 16 27 36
      25 47 112 126 168 152 25 12 101 38 169 57 67 20 150 51 183 68 33 18 90 62
      127 98 49 50 76 88 106 150 22 46 52 129 67 184 14 55 44 138 67 185 34 68 60
      102 128 171 71 71 101 93 180 131 52 26 111 50 131 53 l36 7 -40 -81 c-25 -53
      -44 -111 -55 -171 -14 -83 -14 -100 1 -227 9 -76 17 -152 17 -169 0 -17 -7
      -52 -17 -79 -11 -34 -34 -67 -72 -105 -31 -30 -79 -67 -108 -82 -29 -15 -59
      -39 -68 -52 -9 -13 -29 -75 -46 -138 -16 -62 -47 -151 -69 -196 -29 -60 -59
      -103 -105 -151 -56 -58 -65 -73 -65 -104 0 -26 -6 -39 -20 -47 -11 -6 -30 -8
      -43 -5 -13 4 -40 0 -60 -8 -23 -10 -44 -30 -61 -59 -30 -52 -58 -156 -54 -201
      3 -29 6 -32 36 -30 60 2 159 60 251 147 48 44 101 88 118 97 16 9 42 32 56 50
      14 19 43 75 65 124 78 180 159 287 303 404 52 43 163 119 245 169 82 50 175
      112 206 137 71 55 129 128 173 215 28 55 42 70 89 99 71 42 162 76 263 96 43
      8 182 26 308 40 127 14 275 35 330 46 121 24 281 77 367 120 35 17 90 50 123
      73 55 38 65 41 126 41 60 0 76 5 170 52 57 29 163 89 234 133 134 83 235 137
      270 142 12 2 21 -4 23 -14 6 -31 -45 -126 -99 -183 -38 -41 -52 -63 -53 -87
      l-2 -33 -55 3 c-49 3 -58 1 -83 -25 -38 -36 -87 -143 -94 -199 -4 -41 -3 -44
      20 -44 34 0 125 28 178 55 25 13 65 41 90 63 25 21 64 49 87 60 23 12 50 34
      61 49 11 16 32 68 47 118 15 49 47 130 72 180 25 49 50 103 54 119 11 36 -4
      94 -32 129 -11 15 -37 32 -58 38 -32 10 -55 7 -177 -24 -76 -19 -158 -38 -181
      -42 l-42 -7 21 44 c19 37 23 68 29 213 7 178 15 218 63 300 32 52 72 90 118
      109 56 24 68 21 68 -16 0 -47 41 -129 81 -162 19 -16 52 -37 74 -47 22 -10 75
      -53 117 -96 77 -77 78 -79 78 -130 0 -45 4 -54 31 -77 29 -25 79 -36 79 -17 0
      5 -16 18 -35 30 -32 19 -35 24 -35 69 0 41 -6 55 -37 93 -76 91 -120 132 -174
      159 -30 16 -72 46 -92 69 -55 61 -61 132 -17 213 11 21 16 39 11 42 -9 6 -42
      -27 -58 -58 -7 -12 -24 -19 -53 -21 -56 -5 -126 -49 -172 -110 -21 -28 -48
      -79 -60 -115 -17 -50 -22 -89 -23 -165 l0 -101 -43 30 c-38 27 -54 31 -120 34
      -75 3 -152 -13 -159 -34 -2 -5 36 -7 89 -5 50 2 108 -2 128 -8 53 -16 82 -51
      87 -108 4 -37 -1 -58 -19 -93 -15 -27 -34 -48 -49 -52 -13 -4 -51 -15 -84 -25
      -46 -13 -72 -29 -112 -68 -35 -34 -53 -59 -53 -75 0 -22 4 -21 48 22 26 26 67
      56 92 67 25 11 86 27 135 36 50 9 155 32 233 51 79 19 161 34 181 34 42 0 65
      -19 82 -68 10 -30 6 -42 -45 -150 -30 -64 -67 -153 -81 -197 -14 -44 -32 -90
      -40 -102 -9 -13 -33 -32 -55 -43 -22 -11 -65 -43 -94 -69 -49 -44 -113 -77
      -188 -95 -26 -6 -26 -6 -16 32 13 47 52 125 71 140 8 7 38 11 70 9 53 -2 56
      -3 50 -24 -7 -29 13 -30 28 -2 6 13 8 39 4 64 -6 42 -4 45 54 110 38 42 67 86
      80 121 12 30 21 62 21 70 0 8 -5 24 -10 35 -8 14 -21 19 -48 19 -20 0 -55 -9
      -77 -19 -22 -10 -125 -68 -228 -130 -103 -62 -216 -125 -250 -142 -76 -36
      -142 -39 -181 -8 -14 11 -44 58 -66 104 -40 84 -71 117 -122 130 -37 9 -44
      -11 -10 -29 42 -22 75 -65 102 -132 13 -33 32 -69 44 -82 12 -14 17 -26 10
      -30 -127 -89 -252 -147 -396 -186 -130 -35 -229 -52 -488 -81 -124 -14 -269
      -36 -323 -50 -54 -13 -129 -39 -167 -58 -64 -30 -70 -31 -64 -13 4 12 24 59
      45 105 22 46 39 93 39 104 0 20 0 20 -21 1 -20 -18 -51 -79 -150 -294 -44 -96
      -97 -170 -167 -235 -20 -19 -81 -63 -136 -97 -249 -159 -336 -221 -406 -289
      -42 -41 -97 -104 -123 -140 -26 -37 -76 -128 -112 -203 -58 -123 -69 -139
      -112 -168 -26 -18 -66 -50 -89 -71 -34 -31 -43 -35 -48 -21 -12 32 -6 74 15
      95 13 13 19 28 15 42 -3 11 -1 27 4 36 5 9 35 43 68 77 73 75 118 164 166 332
      20 68 41 132 46 143 6 10 34 31 62 45 66 33 152 115 178 168 11 23 24 66 30
      95 7 39 6 78 -5 152 -19 126 -19 239 0 314 8 33 31 92 51 132 104 207 306 353
      564 408 36 7 119 21 184 30 175 24 295 50 427 94 134 45 230 91 344 165 128
      84 249 190 420 372 217 230 324 334 414 402 75 57 268 162 296 162 8 0 15 4
      15 10 0 5 -25 9 -55 8 -50 -1 -75 5 -64 16 10 10 168 26 252 26 70 0 88 3 79
      12 -7 7 -56 13 -120 16 -132 5 -219 -10 -407 -74 -73 -24 -143 -44 -156 -44
      -19 0 -12 7 30 30 30 17 62 36 70 44 26 22 113 63 176 82 45 14 90 18 180 17
      98 -1 136 -6 210 -28 50 -14 114 -38 144 -51 49 -23 55 -24 69 -10 14 14 10
      18 -49 45 -83 37 -186 68 -274 80 -79 12 -146 12 -221 1z m-2561 -1690 c-57
      -12 -151 -51 -221 -91 -31 -19 -95 -72 -142 -119 -59 -59 -97 -107 -122 -155
      -20 -38 -53 -126 -73 -195 -19 -69 -52 -158 -71 -198 -46 -94 -126 -176 -220
      -224 -38 -21 -121 -51 -184 -68 -124 -34 -187 -64 -251 -119 -39 -33 -41 -33
      -35 -10 4 13 23 56 42 95 46 96 125 170 242 225 48 23 110 59 137 79 28 20 63
      56 79 78 15 23 52 98 82 167 56 131 96 200 159 275 79 95 208 187 315 226 76
      27 162 42 235 42 65 0 67 -1 28 -8z m-635 -1742 c8 -51 7 -66 -4 -79 -18 -21
      -139 -82 -152 -78 -14 6 14 125 39 165 22 36 48 52 85 53 18 1 23 -7 32 -61z
      M4925 3814 c-58 -39 -92 -72 -126 -126 -17 -26 -47 -58 -67 -70 l-37 -23 27
      -3 c15 -2 39 5 53 14 15 10 44 43 66 75 21 31 52 67 68 78 16 12 32 21 35 21
      10 0 -26 -105 -46 -133 -11 -16 -18 -31 -14 -34 10 -11 56 27 62 52 4 17 24
      34 60 54 30 16 54 26 54 23 0 -4 -14 -31 -31 -61 -23 -39 -34 -50 -42 -42 -13
      13 -27 14 -27 3 0 -5 34 -71 76 -148 63 -117 81 -160 109 -269 19 -71 50 -184
      69 -250 20 -66 36 -134 36 -152 0 -17 -4 -43 -10 -57 -10 -28 -45 -66 -60 -66
      -13 0 -13 87 -1 94 5 4 11 1 13 -6 2 -6 10 -8 16 -4 14 9 16 52 2 61 -15 10
      -49 -13 -65 -45 -17 -34 -19 -73 -5 -101 9 -16 7 -19 -10 -19 -33 0 -18 -25
      16 -28 42 -4 94 34 122 88 12 24 22 61 22 81 0 20 -23 114 -50 208 -28 95 -58
      207 -66 249 -10 47 -29 99 -49 132 -18 30 -49 88 -69 127 l-36 73 30 41 c27
      37 70 136 70 159 0 16 -20 11 -53 -14 -18 -13 -45 -32 -61 -42 l-29 -18 7 38
      c4 20 10 44 13 52 9 23 -28 17 -72 -12z M4910 3371 c0 -5 17 -23 37 -40 21
      -17 49 -31 64 -31 15 0 32 -7 39 -15 18 -22 30 -18 30 8 0 33 -30 57 -71 57
      -19 0 -47 7 -63 15 -15 8 -30 15 -32 15 -2 0 -4 -4 -4 -9z M3545 3162 c-57
      -20 -97 -46 -172 -114 -72 -65 -123 -89 -238 -113 -27 -6 -28 -8 -11 -17 26
      -15 117 -2 172 23 25 12 84 57 131 100 47 43 105 88 129 100 24 11 44 25 44
      30 0 5 -1 9 -2 9 -2 -1 -26 -8 -53 -18z M1444 1863 c-8 -21 -26 -86 -39 -144
      -13 -59 -37 -142 -54 -185 -56 -146 -182 -310 -315 -410 -84 -64 -197 -117
      -305 -144 -50 -12 -91 -27 -91 -32 0 -17 131 0 208 26 38 13 84 31 103 41 56
      29 160 110 220 172 86 88 137 159 184 254 47 92 77 194 95 324 6 44 15 92 20
      108 14 41 -7 33 -26 -10z"/>
    </g>
    <g opacity="0.50000000" transform="translate(0,430) scale(0.100000,-0.100000)">
      <path d="M4265 3844 c-156 -31 -185 -43 -301 -121 -71 -47 -93 -57 -139 -61
      -34 -3 -71 1 -101 12 -26 9 -52 16 -57 16 -6 0 -2 -9 9 -21 34 -38 95 -61 174
      -68 l75 -6 -45 -26 c-155 -91 -261 -124 -372 -116 -46 3 -86 14 -133 36 -37
      17 -69 31 -71 31 -12 0 0 -22 29 -50 35 -36 152 -96 204 -106 36 -7 45 -24 13
      -24 -41 0 -133 -44 -193 -92 -34 -27 -80 -60 -102 -71 -33 -18 -55 -22 -128
      -21 -72 1 -85 -1 -76 -12 18 -21 89 -37 141 -31 58 7 109 33 173 87 28 23 68
      51 90 62 22 12 97 36 167 54 118 30 168 48 168 59 0 3 -33 2 -73 -1 -55 -5
      -95 -2 -153 12 l-79 18 85 6 c47 4 103 13 125 20 53 17 162 72 232 117 97 62
      219 114 281 120 68 7 64 -2 -23 -48 -150 -80 -268 -181 -490 -420 -178 -192
      -283 -292 -401 -380 -154 -115 -328 -197 -527 -249 -62 -16 -191 -41 -287 -55
      -215 -32 -281 -47 -378 -86 -105 -42 -183 -91 -262 -166 l-67 -63 -97 0 c-53
      0 -129 -7 -169 -16 -98 -21 -258 -101 -338 -167 -118 -98 -213 -238 -276 -407
      -13 -36 -35 -83 -48 -106 -37 -63 -109 -123 -198 -164 -183 -84 -283 -197
      -322 -362 -16 -67 -20 -158 -7 -158 4 0 20 20 35 44 36 57 93 109 156 140 27
      14 98 39 157 55 155 43 245 90 325 170 80 80 127 167 168 313 38 136 62 195
      111 272 47 75 124 149 210 205 61 40 147 77 203 88 l29 6 -26 -41 c-39 -62
      -74 -178 -81 -268 -4 -51 -1 -117 9 -188 9 -60 16 -124 16 -141 0 -17 -7 -54
      -15 -82 -20 -67 -86 -140 -164 -182 -33 -17 -69 -43 -81 -58 -11 -14 -27 -51
      -35 -82 -9 -31 -23 -83 -32 -116 -8 -33 -35 -100 -58 -150 -34 -70 -57 -103
      -104 -148 -35 -33 -62 -67 -63 -80 -1 -12 -2 -31 -2 -42 -1 -17 -10 -21 -57
      -25 -30 -3 -67 -13 -83 -23 -15 -10 -39 -43 -53 -73 -28 -61 -50 -171 -40
      -197 3 -9 16 -17 27 -17 12 0 55 16 97 35 55 25 95 54 151 108 43 41 96 86
      119 100 23 15 53 42 67 60 15 19 43 72 63 118 19 46 54 115 77 153 48 81 173
      217 258 281 33 25 129 88 212 140 83 52 177 115 208 140 69 54 138 139 175
      217 20 40 41 65 74 88 64 44 157 79 264 101 49 10 194 29 320 43 127 15 275
      35 330 47 125 25 282 77 372 122 37 19 93 52 123 72 50 34 62 38 125 40 56 1
      84 8 135 33 36 17 148 81 250 142 191 116 258 150 291 150 12 0 19 -7 19 -18
      0 -35 -59 -137 -105 -181 -25 -23 -46 -50 -47 -59 -1 -10 -2 -26 -2 -37 -1
      -18 -7 -20 -53 -17 -35 3 -59 -1 -76 -13 -36 -23 -97 -144 -104 -206 l-6 -52
      53 6 c69 8 187 64 242 115 24 22 61 49 83 60 22 11 48 29 58 40 10 11 34 68
      53 128 19 60 55 145 78 189 24 44 46 94 50 112 10 46 -10 108 -44 137 -17 14
      -45 28 -63 31 -22 4 -78 -5 -168 -28 -73 -19 -154 -38 -177 -42 l-44 -7 15 23
      c29 47 38 98 41 245 3 167 16 222 69 300 36 54 96 99 145 109 32 7 32 6 32
      -31 0 -21 9 -57 21 -80 24 -51 71 -95 137 -128 26 -13 80 -58 120 -99 70 -73
      72 -76 72 -125 0 -44 4 -54 31 -76 17 -14 34 -26 39 -26 5 0 15 -3 24 -6 10
      -4 16 -1 16 9 0 8 -16 24 -35 36 -33 19 -35 24 -35 71 0 48 -3 54 -73 133 -49
      55 -92 92 -129 112 -32 17 -69 42 -84 55 -33 31 -64 95 -64 135 0 17 11 53 24
      82 13 28 22 54 18 57 -8 9 -62 -45 -62 -61 0 -8 -12 -13 -33 -13 -18 0 -56
      -12 -85 -26 -92 -46 -160 -149 -182 -276 -7 -37 -10 -96 -8 -132 3 -65 3 -65
      -17 -46 -35 33 -97 53 -160 52 -63 0 -136 -20 -142 -37 -2 -7 28 -10 91 -7 55
      3 108 0 128 -7 53 -17 80 -52 85 -108 4 -37 -1 -58 -19 -92 -15 -28 -33 -47
      -48 -52 -107 -29 -140 -42 -169 -63 -41 -31 -81 -84 -81 -109 0 -16 10 -10 50
      27 28 26 70 56 93 66 23 10 94 28 157 40 63 12 168 34 232 51 64 16 133 29
      153 29 25 0 43 -8 60 -25 39 -38 34 -88 -20 -192 -24 -49 -58 -131 -75 -183
      -17 -52 -38 -105 -46 -117 -8 -13 -33 -32 -57 -44 -23 -12 -63 -41 -88 -65
      -47 -43 -87 -64 -166 -89 -41 -13 -43 -12 -43 8 0 28 52 138 72 155 10 8 36
      12 67 10 45 -3 51 -5 51 -25 0 -13 4 -23 10 -23 5 0 16 12 23 28 9 16 11 37 6
      52 -4 14 -7 31 -8 38 -1 7 21 35 48 62 52 52 111 157 111 197 0 13 -5 33 -10
      44 -8 14 -21 19 -51 19 -22 0 -59 -9 -82 -21 -23 -12 -129 -73 -235 -136 -106
      -64 -219 -126 -250 -139 -72 -30 -131 -31 -165 -3 -15 11 -44 58 -66 103 -29
      64 -48 90 -77 110 -21 14 -46 26 -56 26 -30 0 -30 -19 0 -34 43 -22 77 -67
      102 -132 11 -32 29 -69 40 -84 l18 -26 -71 -45 c-84 -54 -141 -80 -256 -120
      -118 -40 -296 -73 -566 -104 -126 -14 -257 -32 -290 -40 -83 -19 -170 -50
      -221 -79 -24 -14 -44 -23 -44 -21 0 2 22 54 49 116 27 62 47 117 44 122 -10
      17 -45 -29 -88 -118 -24 -49 -66 -138 -93 -196 -39 -83 -63 -121 -115 -176
      -40 -42 -107 -96 -164 -133 -296 -192 -360 -237 -433 -309 -91 -90 -175 -214
      -226 -332 -19 -46 -45 -99 -56 -117 -12 -19 -44 -49 -72 -67 -28 -18 -64 -47
      -81 -64 -26 -28 -30 -30 -37 -14 -3 10 -7 32 -7 48 -1 20 6 34 19 43 14 8 20
      23 20 49 0 31 9 46 65 104 48 49 76 91 105 151 21 46 52 133 68 194 17 61 35
      121 41 133 7 11 35 33 63 47 62 32 141 104 174 160 13 22 29 67 35 98 8 45 7
      80 -7 168 -21 137 -15 256 17 353 34 101 125 233 213 306 82 69 218 139 326
      168 41 11 154 32 250 46 96 14 222 38 280 52 247 59 454 165 656 334 44 37
      161 152 260 256 240 252 323 332 424 404 76 55 215 131 281 154 18 7 8 10 -43
      12 -38 2 -68 8 -68 12 0 12 161 31 260 31 65 0 81 3 72 12 -7 7 -56 13 -124
      16 -134 5 -225 -11 -391 -68 -62 -21 -130 -41 -152 -45 l-40 -6 35 19 c19 10
      64 37 99 60 34 23 88 51 118 62 30 11 88 25 129 31 132 18 323 -15 452 -78 48
      -24 54 -25 69 -11 14 15 12 18 -28 39 -67 34 -176 68 -268 84 -78 14 -180 18
      -226 9z m-2608 -1700 c-32 -8 -100 -35 -150 -61 -74 -38 -110 -65 -183 -138
      -74 -73 -98 -106 -132 -175 -23 -47 -58 -141 -77 -210 -20 -69 -52 -153 -72
      -188 -49 -88 -127 -163 -215 -206 -40 -20 -122 -50 -181 -66 -60 -17 -131 -42
      -158 -55 -27 -14 -68 -42 -91 -63 -38 -34 -40 -35 -34 -12 4 14 23 57 42 96
      47 99 123 167 257 233 57 28 125 69 150 92 34 29 58 65 88 127 134 282 150
      311 222 388 38 41 99 96 134 121 114 81 265 131 398 131 l60 0 -58 -14z m-610
      -1736 c11 -62 11 -63 -15 -86 -25 -21 -122 -72 -138 -72 -14 0 6 101 29 147
      24 48 55 73 93 73 17 0 22 -10 31 -62z M4925 3814 c-58 -39 -92 -72 -126 -126
      -17 -26 -47 -58 -67 -70 l-37 -23 28 -3 c16 -2 39 4 52 12 13 9 42 43 64 75
      23 33 54 69 70 80 16 12 32 21 35 21 9 0 -21 -88 -43 -126 -12 -20 -20 -39
      -17 -41 11 -11 49 21 62 52 7 19 24 37 36 41 13 3 35 15 51 26 15 11 27 17 27
      13 0 -10 -32 -69 -51 -94 -11 -13 -19 -19 -19 -12 0 6 -7 11 -15 11 -8 0 -15
      -4 -15 -8 0 -4 36 -75 79 -158 58 -109 85 -173 99 -235 12 -47 41 -155 66
      -241 25 -86 46 -171 46 -190 0 -45 -44 -117 -72 -118 -11 0 -10 88 1 94 5 4
      11 1 13 -6 2 -6 10 -8 16 -4 14 9 16 52 2 61 -15 10 -49 -13 -65 -45 -17 -34
      -19 -73 -5 -101 9 -17 7 -19 -16 -19 -22 0 -25 -2 -14 -15 18 -22 62 -18 101
      8 45 30 79 92 79 143 0 23 -24 127 -54 231 -30 104 -59 216 -65 247 -6 32 -26
      83 -45 114 -18 32 -50 90 -70 129 l-36 73 35 45 c31 41 65 126 65 162 0 17
      -15 17 -30 -2 -7 -8 -35 -28 -62 -45 l-50 -31 6 36 c4 20 10 43 13 51 9 23
      -28 17 -72 -12z M4910 3371 c0 -16 73 -71 93 -71 11 0 32 -8 48 -17 15 -9 31
      -14 34 -11 8 7 -14 61 -28 70 -7 4 -28 8 -47 8 -19 0 -46 7 -60 15 -30 17 -40
      18 -40 6z M3545 3162 c-57 -20 -93 -43 -174 -115 -66 -58 -137 -94 -204 -103
      -26 -4 -50 -10 -53 -15 -8 -13 44 -22 93 -15 24 3 64 14 88 25 23 10 80 53
      126 96 46 42 105 88 131 101 43 22 70 44 51 44 -4 -1 -31 -8 -58 -18z M1455
      1887 c-8 -13 -33 -96 -55 -183 -45 -179 -86 -270 -175 -389 -59 -78 -149 -165
      -223 -217 -68 -47 -169 -90 -277 -119 -74 -20 -95 -29 -81 -35 29 -11 167 12
      236 40 94 37 165 84 255 169 131 121 222 256 268 397 14 41 33 122 41 180 9
      58 21 120 27 138 6 18 9 36 6 39 -3 2 -13 -6 -22 -20z"/>
    </g>
    <g opacity="1.00000000" transform="translate(0,430) scale(0.100000,-0.100000)">
      <path d="M4207 3835 c-80 -16 -162 -52 -228 -99 -74 -54 -124 -76 -172 -76
      -25 0 -64 7 -87 15 -23 8 -47 15 -53 15 -19 0 37 -52 73 -68 19 -8 68 -17 109
      -21 l74 -6 -77 -44 c-42 -24 -107 -55 -144 -69 -53 -20 -87 -25 -162 -26 -88
      -1 -100 2 -164 32 -38 18 -71 30 -73 28 -10 -10 20 -47 60 -75 44 -30 160 -81
      184 -81 26 0 12 -18 -19 -24 -53 -10 -129 -50 -183 -95 -27 -23 -68 -52 -90
      -64 -33 -18 -55 -22 -127 -21 -49 1 -88 -2 -88 -7 0 -4 20 -15 45 -25 32 -12
      61 -15 99 -11 62 6 115 31 176 82 23 20 62 47 85 60 23 14 93 38 157 54 132
      34 188 55 188 72 0 7 -7 8 -17 4 -41 -17 -134 -17 -210 1 l-78 18 85 6 c47 4
      103 13 125 20 59 19 141 60 241 121 105 63 236 119 282 119 17 0 32 -3 32 -7
      0 -5 -37 -28 -83 -53 -45 -25 -115 -71 -157 -104 -41 -32 -145 -131 -230 -220
      -273 -284 -379 -385 -488 -467 -122 -90 -283 -174 -422 -219 -101 -33 -258
      -65 -484 -99 -83 -13 -180 -35 -238 -55 -54 -18 -133 -55 -177 -81 -43 -26
      -105 -73 -138 -105 l-60 -57 -99 0 c-55 -1 -129 -8 -167 -17 -92 -22 -193 -66
      -269 -117 -162 -110 -259 -239 -348 -464 -16 -41 -41 -92 -54 -113 -37 -58
      -95 -105 -187 -149 -46 -22 -112 -61 -147 -87 -69 -51 -128 -132 -163 -225
      -23 -62 -39 -211 -21 -211 5 0 22 20 35 43 34 57 97 114 161 143 28 12 100 37
      161 55 60 17 141 47 180 66 92 47 201 156 243 244 17 35 47 120 67 189 20 69
      54 159 76 201 22 41 62 101 91 133 28 32 82 80 121 107 64 45 206 109 242 109
      12 0 10 -8 -9 -37 -36 -55 -75 -181 -82 -265 -4 -48 0 -119 11 -202 9 -71 14
      -147 11 -168 -9 -58 -49 -129 -95 -171 -22 -20 -62 -48 -90 -61 -27 -14 -59
      -37 -70 -52 -12 -15 -28 -52 -37 -83 -42 -155 -58 -202 -91 -271 -25 -52 -54
      -92 -94 -131 -59 -57 -79 -91 -79 -135 0 -22 -4 -24 -49 -24 -33 0 -58 -7 -81
      -22 -55 -38 -100 -149 -100 -248 0 -37 2 -40 29 -40 16 0 66 18 111 41 60 30
      98 58 143 106 34 35 74 71 89 79 68 36 100 78 164 212 35 73 83 161 108 195
      51 72 156 175 241 238 34 24 130 87 215 139 112 69 175 115 230 170 43 43 90
      102 110 138 19 35 45 76 57 92 30 36 150 95 247 120 43 11 197 33 341 49 289
      33 419 56 553 100 103 34 244 103 316 154 44 32 54 35 95 30 78 -9 170 32 426
      192 127 79 236 135 264 135 20 0 22 -4 16 -32 -12 -53 -44 -107 -89 -152 -50
      -48 -66 -75 -66 -111 0 -20 -4 -25 -17 -21 -10 2 -28 7 -40 11 -12 3 -35 -1
      -51 -9 -52 -27 -122 -162 -122 -236 0 -27 3 -30 30 -30 39 0 143 35 195 65 22
      14 54 38 70 56 17 17 51 42 77 55 25 13 55 35 66 49 12 15 35 72 52 128 18 56
      54 144 81 196 28 54 49 106 49 125 0 17 -8 47 -18 66 -20 42 -75 80 -112 80
      -15 0 -88 -15 -161 -34 -74 -19 -152 -37 -173 -41 -34 -6 -38 -4 -28 8 6 7 19
      34 28 58 12 32 17 85 18 194 2 125 6 160 24 210 12 33 35 78 50 100 33 47 95
      91 140 99 31 5 32 5 32 -30 0 -77 59 -158 149 -204 34 -17 84 -57 129 -103 70
      -73 72 -76 72 -125 0 -44 4 -54 31 -76 17 -14 34 -26 39 -26 5 0 15 -3 24 -6
      10 -4 16 -1 16 9 0 8 -16 24 -35 36 -33 19 -35 24 -35 70 0 42 -5 57 -32 88
      -74 88 -126 136 -181 165 -32 17 -71 46 -87 64 -35 40 -54 103 -44 147 3 18
      15 49 26 70 11 22 16 42 13 45 -4 4 -24 -12 -45 -35 -24 -28 -46 -43 -61 -43
      -41 0 -122 -45 -161 -88 -20 -23 -46 -59 -58 -81 -32 -64 -52 -166 -48 -253 3
      -76 3 -77 -17 -59 -11 10 -36 27 -55 37 -48 24 -151 25 -213 1 -26 -10 -45
      -22 -42 -27 2 -4 45 -5 95 -2 71 4 100 1 136 -13 53 -20 84 -62 84 -115 0 -19
      -11 -55 -23 -80 -22 -42 -27 -46 -88 -61 -35 -9 -79 -23 -96 -33 -45 -23 -101
      -81 -109 -112 -4 -14 -4 -27 -1 -31 3 -3 20 11 38 31 54 62 103 84 265 116 82
      16 194 41 249 55 55 14 114 25 133 25 22 0 41 -8 57 -25 39 -38 34 -87 -20
      -191 -24 -48 -58 -130 -76 -183 -17 -53 -38 -106 -45 -118 -8 -13 -33 -32 -57
      -44 -23 -12 -60 -38 -82 -60 -41 -39 -127 -84 -183 -95 -20 -4 -32 -3 -32 4 0
      26 43 122 65 146 21 23 31 26 75 24 48 -3 50 -4 50 -33 l0 -29 22 21 c14 15
      21 32 19 55 -4 76 -3 79 44 124 50 48 105 151 105 197 0 15 -9 36 -21 48 -16
      16 -27 19 -52 13 -46 -10 -123 -50 -324 -171 -98 -58 -204 -117 -235 -130 -32
      -13 -75 -23 -96 -23 -20 0 -48 7 -61 16 -12 9 -41 54 -63 100 -21 46 -53 95
      -69 109 -36 30 -76 42 -91 27 -7 -7 -2 -15 18 -25 45 -23 72 -57 99 -126 15
      -35 34 -75 43 -89 16 -24 15 -25 -13 -48 -40 -32 -169 -99 -249 -129 -81 -31
      -196 -60 -311 -79 -49 -9 -188 -27 -308 -41 -120 -13 -257 -34 -305 -45 -48
      -11 -122 -38 -165 -58 -42 -21 -77 -37 -77 -35 0 1 23 52 51 113 34 74 48 115
      41 122 -14 14 -53 -41 -98 -137 -118 -258 -134 -285 -204 -358 -47 -49 -105
      -95 -187 -146 -296 -185 -383 -253 -485 -381 -61 -75 -93 -132 -183 -323 -19
      -41 -39 -67 -67 -85 -22 -15 -62 -46 -88 -70 -46 -41 -48 -42 -54 -20 -11 43
      -6 73 14 86 14 8 20 23 20 49 0 31 9 46 65 104 48 49 76 91 105 151 21 46 53
      135 70 198 18 63 36 123 41 133 6 9 35 30 67 46 72 37 149 112 178 175 13 28
      26 73 29 100 4 30 0 91 -9 146 -20 119 -20 217 -1 298 17 70 57 157 106 229
      68 99 190 198 314 254 88 39 191 64 393 94 95 14 224 39 286 54 252 64 461
      173 655 342 36 31 116 108 176 170 335 346 397 406 475 465 77 59 200 128 290
      164 l35 14 -62 4 c-35 1 -63 7 -63 11 0 12 64 20 208 28 68 3 119 10 114 15
      -4 4 -42 12 -83 17 -47 6 -103 6 -154 0 -97 -12 -126 -19 -280 -69 -184 -59
      -191 -59 -100 1 147 96 220 119 386 119 84 0 136 -6 195 -21 43 -11 110 -34
      147 -51 63 -29 69 -30 84 -15 9 9 15 18 12 20 -2 2 -36 17 -76 35 -39 17 -109
      41 -155 53 -106 27 -268 34 -361 14z m-2555 -1691 c-124 -33 -248 -110 -349
      -217 -89 -94 -140 -192 -184 -349 -17 -62 -42 -137 -56 -165 -33 -70 -93 -150
      -146 -191 -23 -19 -63 -45 -88 -58 -26 -12 -102 -39 -169 -59 -67 -20 -145
      -47 -172 -61 -27 -14 -66 -40 -88 -60 -34 -31 -38 -32 -33 -12 3 13 19 51 34
      86 19 43 48 83 91 125 48 48 87 74 163 111 55 26 119 64 142 83 24 19 56 53
      72 76 15 23 51 95 78 159 28 65 66 143 84 175 48 82 190 222 274 271 109 63
      233 99 350 100 l50 1 -53 -15z m-600 -1806 c-4 -11 -79 -54 -126 -73 l-39 -16
      7 48 c9 66 52 152 79 158 63 13 61 14 72 -50 6 -33 9 -63 7 -67z M4919 3811
      c-52 -34 -97 -80 -132 -137 -14 -23 -40 -48 -56 -55 -17 -8 -30 -18 -28 -24 2
      -5 7 -9 10 -7 4 1 17 2 28 2 22 0 75 50 118 111 13 19 38 45 54 58 l30 25 -7
      -40 c-4 -21 -19 -58 -33 -82 -13 -24 -22 -46 -19 -49 10 -10 53 25 65 54 8 18
      29 36 59 50 25 12 47 21 49 19 2 -1 -10 -23 -26 -48 -23 -37 -34 -45 -50 -41
      -12 3 -21 1 -21 -5 0 -5 35 -77 79 -158 43 -82 84 -174 90 -204 7 -30 38 -143
      68 -251 61 -216 63 -244 17 -299 -14 -16 -30 -30 -35 -30 -12 0 -11 71 1 90 6
      10 10 11 10 3 0 -7 7 -13 16 -13 11 0 14 8 12 32 -2 17 -8 33 -14 35 -7 2 -25
      -7 -40 -21 -26 -22 -29 -30 -29 -85 1 -52 -2 -61 -17 -61 -11 0 -15 -5 -12
      -15 4 -10 19 -15 43 -15 26 0 47 9 72 30 20 16 44 45 53 64 9 19 16 54 16 78
      0 25 -22 121 -50 214 -27 93 -56 202 -64 241 -11 52 -36 110 -86 203 l-70 131
      30 38 c17 21 39 61 50 89 20 52 26 92 14 92 -3 0 -23 -13 -43 -28 -20 -15 -49
      -36 -65 -46 l-29 -18 7 26 c3 14 9 37 12 51 5 20 2 25 -13 25 -10 0 -39 -13
      -64 -29z M4910 3372 c0 -15 68 -72 86 -72 9 0 31 -7 50 -16 19 -9 37 -14 40
      -11 4 3 2 18 -3 34 -10 28 -16 31 -98 51 -22 5 -48 13 -57 17 -10 4 -18 3 -18
      -3z M3555 3166 c-64 -20 -95 -40 -170 -106 -38 -35 -93 -74 -122 -87 -28 -13
      -74 -26 -103 -30 -30 -3 -49 -10 -47 -17 2 -6 26 -12 54 -14 82 -5 149 27 248
      118 48 43 111 91 141 107 29 15 54 31 54 36 0 9 -6 8 -55 -7z M1462 1897 c-17
      -20 -41 -92 -58 -172 -29 -140 -80 -266 -147 -365 -80 -118 -206 -236 -318
      -299 -63 -35 -170 -74 -253 -91 -81 -17 -62 -34 29 -27 75 7 188 42 253 80
      124 71 279 228 360 363 29 49 64 124 78 168 13 43 32 124 40 180 8 56 20 116
      26 134 11 37 7 50 -10 29z"/>
    </g>
  </g>
</svg>
