<?xml version="1.0" encoding="UTF-8"?>
<svg xmlns="http://www.w3.org/2000/svg" viewBox="0 0 600 430" width="600" height="430" fill="none">
  <title>Layered spline reconstruction</title>
  <g fill="#f1ead8" stroke="none">
    <g opacity="0.12500000" transform="translate(0,430) scale(0.100000,-0.100000)">
      <path d="M4252 3840 c-35 -5 -80 -14 -100 -21 -54 -17 -130 -57 -183 -94 -95
      -68 -143 -81 -216 -61 -107 31 -102 31 -66 -3 42 -39 128 -65 199 -59 30 3 54
      4 54 3 0 -1 -37 -24 -82 -50 -45 -27 -111 -60 -147 -74 -55 -20 -84 -25 -171
      -25 -98 -1 -110 1 -172 31 -38 17 -68 28 -68 23 0 -4 21 -26 46 -48 45 -41
      174 -102 213 -102 37 0 22 -17 -20 -24 -54 -9 -142 -55 -204 -106 -81 -68 -99
      -75 -203 -75 -77 0 -90 -2 -75 -13 10 -7 36 -17 58 -24 58 -16 137 3 200 48
      27 19 74 53 103 74 36 26 78 44 135 59 121 31 216 61 221 70 3 4 -30 6 -74 3
      -54 -3 -100 1 -149 13 -39 9 -73 20 -75 24 -2 3 35 6 82 6 70 0 102 6 165 29
      42 15 114 51 160 78 45 28 124 71 175 96 64 31 110 47 148 50 30 2 54 1 54 -4
      0 -5 -38 -29 -85 -53 -47 -24 -122 -74 -167 -110 -46 -36 -139 -124 -208 -196
      -262 -273 -418 -423 -505 -488 -94 -71 -259 -161 -372 -203 -108 -41 -247 -72
      -463 -104 -233 -35 -353 -71 -475 -141 -43 -24 -108 -72 -145 -106 l-68 -63
      -86 0 c-48 0 -121 -7 -163 -16 -169 -35 -301 -111 -430 -248 -71 -75 -91 -105
      -142 -209 -32 -67 -72 -151 -87 -186 -16 -35 -47 -83 -70 -106 -26 -27 -83
      -64 -153 -100 -127 -65 -208 -133 -258 -217 -18 -29 -42 -89 -53 -132 -20 -80
      -27 -166 -12 -166 4 0 16 16 26 35 28 52 119 133 178 159 29 13 98 36 153 50
      146 40 235 87 316 168 82 82 124 162 174 338 20 69 53 157 73 195 25 48 63 97
      122 155 63 64 105 96 165 127 73 38 185 78 185 67 0 -2 -13 -28 -29 -57 -16
      -28 -39 -85 -52 -126 -26 -89 -30 -200 -10 -344 8 -54 11 -120 8 -147 -3 -27
      -15 -66 -26 -87 -25 -50 -105 -125 -168 -157 -27 -13 -57 -36 -66 -50 -9 -14
      -28 -67 -41 -118 -29 -112 -68 -218 -98 -267 -12 -20 -51 -66 -85 -103 -52
      -55 -63 -73 -63 -101 0 -19 -6 -39 -13 -45 -7 -6 -34 -11 -59 -10 -27 0 -55
      -6 -71 -17 -15 -9 -38 -40 -51 -68 -27 -56 -52 -177 -42 -203 8 -22 46 -14
      133 28 45 22 92 56 138 101 39 38 94 84 123 103 29 19 63 51 74 71 12 20 41
      78 64 129 22 50 63 125 90 165 57 86 151 183 246 254 37 28 126 86 198 130 72
      44 160 102 196 129 75 56 139 132 185 221 17 33 41 68 53 78 33 28 145 83 204
      101 80 23 144 33 395 61 264 29 403 54 526 95 120 39 206 79 293 137 68 45 77
      48 139 49 55 1 80 7 141 36 41 20 151 81 243 137 191 116 250 147 285 152 22
      4 25 1 24 -28 -2 -47 -41 -116 -95 -169 -42 -41 -49 -54 -49 -86 l0 -38 -53 6
      c-50 6 -56 4 -89 -25 -40 -35 -85 -128 -94 -195 -6 -44 -6 -46 18 -46 33 0
      124 27 173 52 22 11 61 40 86 63 25 23 66 52 91 63 26 11 54 32 63 46 9 14 35
      78 57 143 21 65 57 150 79 189 31 56 39 82 39 121 0 65 -31 113 -85 131 -35
      11 -51 9 -179 -22 -78 -20 -161 -38 -184 -42 l-44 -7 23 44 c20 39 24 63 29
      214 8 210 25 267 104 353 35 38 95 72 126 72 16 0 20 -6 20 -33 0 -37 40 -125
      69 -151 10 -9 45 -31 78 -49 39 -21 86 -60 133 -110 70 -75 74 -81 71 -123 -1
      -35 3 -49 23 -69 26 -26 72 -42 84 -30 4 4 -2 12 -12 19 -11 6 -31 21 -44 34
      -18 18 -22 29 -17 52 4 16 1 39 -6 52 -7 13 -40 54 -73 91 -38 42 -83 80 -117
      99 -101 53 -149 117 -149 195 0 21 9 58 20 82 11 24 18 46 15 49 -7 8 -35 -19
      -50 -48 -11 -21 -21 -26 -55 -27 -49 -2 -116 -39 -154 -84 -70 -83 -112 -225
      -102 -341 3 -38 2 -68 -3 -68 -5 0 -11 6 -14 14 -3 7 -25 23 -49 35 -33 16
      -62 21 -114 20 -70 -1 -135 -17 -141 -35 -2 -7 20 -8 64 -2 110 14 180 -5 222
      -58 37 -46 24 -139 -27 -196 -8 -10 -25 -18 -38 -18 -39 0 -134 -40 -170 -73
      -35 -30 -64 -75 -64 -98 0 -7 25 11 55 40 30 29 70 58 88 66 18 7 73 21 123
      30 49 9 164 34 256 56 177 42 195 42 233 -1 32 -35 25 -92 -23 -180 -22 -41
      -57 -124 -78 -185 -20 -60 -46 -121 -58 -133 -12 -13 -35 -30 -52 -37 -17 -7
      -56 -35 -87 -63 -50 -46 -113 -77 -191 -96 -21 -5 -27 -4 -24 6 3 7 13 37 22
      66 19 55 78 128 96 117 5 -3 28 -7 51 -7 38 0 40 -2 35 -24 -8 -30 9 -32 25
      -3 7 13 8 39 4 67 -6 44 -5 46 44 96 51 52 96 130 107 185 5 23 2 37 -11 51
      -39 43 -99 20 -364 -140 -271 -164 -359 -193 -417 -139 -15 13 -41 56 -59 94
      -18 39 -45 82 -61 97 -30 28 -83 53 -92 43 -3 -3 17 -26 45 -50 38 -33 56 -58
      68 -95 9 -27 28 -66 41 -86 14 -20 21 -40 17 -43 -5 -3 -30 -21 -57 -39 -64
      -46 -195 -105 -297 -136 -127 -38 -270 -63 -519 -91 -124 -15 -258 -33 -299
      -41 -86 -18 -188 -55 -239 -86 l-34 -21 7 24 c4 13 25 62 46 108 39 84 46 111
      30 111 -17 0 -70 -95 -126 -225 -31 -71 -72 -155 -92 -185 -20 -30 -61 -79
      -91 -108 -30 -29 -100 -80 -154 -115 -241 -151 -318 -207 -406 -291 -51 -50
      -113 -120 -137 -156 -24 -36 -69 -120 -100 -185 -31 -66 -66 -130 -77 -143
      -12 -12 -41 -33 -64 -47 -22 -13 -55 -40 -72 -59 -23 -27 -32 -31 -36 -20 -3
      9 -6 32 -6 51 0 22 7 41 17 48 12 9 16 24 15 48 -2 31 5 42 65 103 81 81 129
      172 168 314 46 167 52 178 125 222 36 22 84 58 107 80 23 22 54 68 68 101 25
      55 27 66 21 156 -3 53 -9 142 -12 199 -7 121 5 198 47 290 36 81 103 175 163
      230 66 61 171 126 257 160 87 35 179 56 304 72 154 20 343 60 454 96 198 65
      366 161 542 309 48 41 152 144 230 227 209 223 346 355 437 421 84 61 245 147
      275 147 9 0 17 5 17 11 0 8 -13 9 -39 5 -23 -3 -52 -1 -68 6 -27 11 -24 12 47
      24 41 7 120 13 175 13 73 1 96 4 88 12 -18 18 -184 23 -270 9 -43 -6 -147 -34
      -230 -61 -84 -27 -163 -49 -175 -49 -15 0 -3 12 43 40 105 66 200 109 279 126
      134 28 327 2 476 -66 54 -24 65 -26 81 -15 16 12 11 17 -52 45 -145 66 -345
      99 -483 80z m-2580 -1695 c-74 -16 -147 -48 -227 -99 -119 -76 -222 -198 -272
      -318 -14 -35 -39 -110 -55 -166 -16 -57 -45 -136 -65 -175 -45 -91 -135 -180
      -223 -224 -36 -17 -114 -45 -174 -62 -60 -17 -132 -42 -161 -55 -28 -14 -70
      -43 -94 -65 l-42 -39 6 32 c14 62 67 154 123 210 42 42 87 72 165 112 60 30
      124 67 143 82 54 42 93 105 145 229 26 64 63 140 81 170 53 88 125 168 201
      227 132 101 283 155 432 154 l80 0 -63 -13z m-628 -1702 c18 -102 19 -100 -16
      -126 -41 -31 -112 -67 -132 -67 -11 0 -13 8 -9 38 10 64 43 141 70 162 14 11
      38 20 54 20 22 0 28 -5 33 -27z M4945 3823 c-57 -30 -108 -77 -142 -131 -19
      -29 -51 -63 -71 -75 -29 -17 -33 -23 -19 -25 36 -7 78 21 117 79 22 31 56 71
      77 88 20 17 38 29 39 28 2 -1 -2 -23 -7 -47 -6 -25 -21 -62 -34 -82 -14 -20
      -21 -39 -16 -42 12 -8 61 39 61 58 0 8 25 28 55 45 53 28 56 29 49 8 -4 -12
      -18 -39 -32 -59 -20 -31 -28 -36 -39 -27 -34 29 -19 -10 55 -149 62 -114 86
      -171 102 -238 11 -49 41 -158 65 -242 25 -84 45 -172 45 -196 0 -28 -8 -55
      -23 -77 -12 -19 -30 -35 -39 -37 -21 -4 -31 39 -17 74 7 21 12 25 18 15 12
      -19 31 -4 31 25 0 17 -5 24 -20 24 -47 0 -82 -77 -61 -133 9 -24 8 -27 -10
      -27 -31 0 -17 -24 15 -28 40 -5 99 38 125 90 11 25 21 58 21 75 0 16 -25 117
      -55 223 -30 107 -60 219 -66 249 -7 34 -39 109 -83 190 l-72 135 24 23 c24 24
      65 108 76 156 4 17 2 27 -5 27 -6 0 -28 -13 -48 -29 -35 -27 -74 -51 -85 -51
      -2 0 0 15 5 32 11 40 12 68 2 68 -5 -1 -21 -8 -38 -17z M4920 3365 c0 -19 69
      -65 97 -65 12 0 28 -7 37 -15 8 -8 17 -15 20 -15 3 0 6 11 6 23 0 33 -30 57
      -71 57 -19 0 -46 7 -61 14 -24 13 -28 13 -28 1z M3550 3163 c-59 -21 -101 -49
      -180 -118 -36 -32 -83 -66 -105 -75 -22 -10 -67 -24 -100 -31 l-60 -12 34 -9
      c40 -11 114 3 170 31 21 11 75 53 119 94 45 41 102 85 127 97 25 12 45 26 45
      31 0 5 -1 9 -2 8 -2 0 -23 -8 -48 -16z M1441 1845 c-12 -31 -28 -90 -37 -133
      -9 -42 -25 -104 -36 -137 -44 -134 -138 -276 -253 -383 -123 -115 -224 -171
      -393 -216 -47 -12 -80 -26 -74 -30 20 -12 159 13 235 42 134 52 270 162 378
      305 69 92 118 184 147 278 11 36 28 114 37 175 10 60 21 119 26 132 5 13 5 22
      -1 22 -4 0 -18 -25 -29 -55z"/>
    </g>
    <g opacity="0.14285714" transform="translate(0,430) scale(0.100000,-0.100000)">
      <path d="M4245 3840 c-32 -6 -75 -15 -95 -21 -52 -17 -129 -57 -181 -94 -26
      -18 -61 -41 -79 -50 -41 -21 -124 -22 -174 -1 -21 9 -44 16 -50 16 -6 0 4 -14
      21 -30 42 -38 130 -64 199 -58 30 3 54 4 54 3 0 -2 -40 -26 -89 -54 -49 -28
      -116 -61 -148 -72 -32 -11 -94 -23 -139 -26 -61 -4 -94 -1 -135 12 -30 9 -69
      26 -88 37 -18 10 -36 16 -39 13 -3 -3 10 -22 29 -41 36 -39 151 -100 206 -110
      18 -3 33 -10 33 -14 0 -4 -16 -11 -35 -14 -61 -12 -118 -41 -190 -100 -90 -72
      -145 -91 -239 -82 -64 5 -69 4 -51 -9 21 -17 79 -35 111 -35 48 0 120 32 187
      83 40 30 91 64 114 76 22 11 90 32 150 47 94 23 163 47 163 58 0 2 -33 1 -74
      -2 -49 -3 -99 1 -150 12 -41 10 -77 20 -80 24 -2 4 35 7 83 7 106 1 183 25
      302 95 46 28 130 73 187 102 75 37 118 53 158 56 29 2 54 0 54 -5 0 -5 -33
      -25 -73 -45 -40 -20 -111 -64 -157 -99 -47 -35 -146 -127 -220 -204 -287 -297
      -428 -433 -515 -497 -98 -73 -237 -150 -355 -196 -83 -32 -240 -74 -340 -91
      -36 -6 -128 -20 -205 -32 -217 -33 -349 -81 -480 -174 -33 -24 -78 -62 -100
      -84 l-39 -41 -88 0 c-103 0 -215 -21 -306 -57 -35 -14 -97 -48 -138 -74 -138
      -91 -252 -230 -320 -391 -99 -235 -120 -261 -282 -342 -121 -61 -213 -136
      -257 -212 -15 -25 -35 -71 -46 -102 -23 -68 -37 -202 -21 -202 6 0 14 9 17 20
      4 11 31 47 61 80 34 36 76 69 108 84 30 14 102 39 162 57 162 46 244 89 324
      168 81 81 126 167 171 326 17 61 49 148 71 195 33 69 57 100 127 170 64 64
      107 96 166 127 77 40 190 80 183 65 -2 -4 -15 -29 -29 -57 -35 -65 -65 -164
      -74 -240 -4 -39 0 -108 10 -190 10 -72 15 -153 12 -181 -3 -29 -13 -67 -22
      -85 -27 -53 -94 -117 -163 -156 -35 -19 -69 -45 -77 -57 -8 -12 -26 -64 -39
      -116 -14 -52 -31 -113 -39 -136 -31 -87 -81 -169 -143 -235 -54 -57 -64 -74
      -64 -103 0 -42 -17 -54 -76 -53 -22 0 -52 -8 -67 -18 -15 -9 -38 -40 -51 -68
      -28 -58 -53 -175 -42 -202 5 -13 13 -16 37 -11 70 14 162 69 249 149 49 45
      108 96 131 112 44 31 54 49 138 225 31 64 76 137 115 186 36 45 103 112 150
      150 47 38 147 107 223 154 76 46 171 109 212 139 40 30 94 80 118 110 24 31
      59 85 78 121 27 53 42 71 86 97 121 73 227 101 479 128 361 39 467 57 628 111
      124 42 203 80 288 139 57 40 66 42 126 42 57 -1 77 5 149 40 46 22 155 83 242
      136 179 110 241 143 277 148 22 4 25 1 24 -28 -2 -47 -41 -116 -95 -169 -42
      -41 -49 -54 -49 -86 l0 -38 -56 6 c-53 7 -57 5 -89 -26 -40 -38 -83 -129 -91
      -194 -6 -44 -6 -46 18 -46 34 0 125 28 178 55 25 13 59 37 75 55 17 18 56 45
      87 61 32 16 65 40 74 54 8 13 33 76 55 140 21 64 57 149 79 189 32 58 40 83
      40 123 0 65 -31 113 -85 131 -35 11 -51 9 -179 -22 -78 -19 -161 -38 -184 -42
      l-44 -7 23 44 c20 39 24 64 30 214 5 124 11 184 24 220 34 95 89 161 157 189
      56 24 68 21 68 -16 0 -18 11 -56 24 -84 25 -54 68 -93 140 -128 23 -12 75 -56
      116 -99 72 -76 73 -79 71 -125 -1 -39 3 -52 22 -70 26 -24 87 -41 87 -24 0 7
      -13 18 -30 27 -16 8 -34 24 -40 35 -6 11 -8 31 -4 44 3 13 0 35 -7 48 -7 12
      -41 56 -77 96 -41 46 -83 82 -116 98 -62 31 -114 78 -132 121 -19 45 -17 100
      6 152 11 24 18 46 16 48 -8 8 -27 -8 -46 -39 -15 -25 -26 -31 -61 -34 -51 -5
      -117 -41 -154 -86 -69 -81 -113 -235 -101 -350 3 -32 2 -58 -3 -58 -5 0 -11 6
      -14 14 -3 7 -25 23 -49 35 -33 16 -62 21 -114 20 -70 -1 -135 -17 -141 -35 -2
      -7 23 -7 74 -2 58 6 89 5 128 -7 28 -8 61 -25 74 -39 31 -33 38 -95 17 -150
      -9 -24 -24 -50 -34 -58 -9 -9 -37 -18 -60 -22 -80 -12 -167 -68 -198 -128 -26
      -50 -14 -52 34 -6 26 25 65 55 87 66 22 11 92 30 155 42 63 12 177 36 253 55
      91 22 147 31 165 26 29 -8 72 -62 72 -91 0 -9 -22 -61 -48 -116 -27 -54 -63
      -143 -81 -196 -18 -53 -41 -109 -53 -123 -11 -14 -35 -32 -53 -39 -18 -8 -57
      -36 -88 -64 -32 -29 -77 -58 -108 -69 -59 -22 -109 -35 -109 -30 0 2 9 30 20
      62 11 32 32 73 46 92 24 32 28 33 85 31 57 -2 60 -3 54 -25 -3 -13 -1 -23 4
      -23 20 0 33 42 26 85 -6 42 -4 45 53 108 37 41 66 86 80 122 12 31 22 65 22
      74 0 27 -33 51 -67 51 -37 0 -127 -47 -314 -161 -74 -45 -170 -99 -213 -121
      -61 -29 -92 -38 -131 -38 -43 0 -55 4 -77 27 -14 16 -39 57 -56 93 -16 36 -40
      76 -52 89 -26 27 -86 54 -100 46 -6 -4 9 -21 32 -38 32 -24 54 -54 83 -113 22
      -45 46 -89 54 -98 12 -14 11 -19 -5 -31 -44 -35 -154 -96 -223 -125 -161 -66
      -309 -97 -646 -135 -127 -14 -274 -36 -328 -50 -54 -13 -129 -39 -167 -58 -64
      -30 -70 -31 -64 -13 3 12 24 59 45 105 21 46 39 90 39 97 0 26 -20 14 -47 -28
      -15 -24 -55 -106 -88 -184 -34 -77 -76 -161 -94 -187 -53 -77 -139 -154 -251
      -224 -270 -169 -366 -241 -464 -352 -69 -77 -102 -130 -170 -273 -35 -73 -74
      -142 -87 -154 -13 -11 -41 -31 -61 -43 -20 -12 -50 -37 -66 -56 -29 -32 -30
      -33 -36 -12 -11 42 -6 77 15 98 13 13 18 27 14 39 -3 11 -1 28 4 39 6 10 37
      45 69 78 70 69 119 164 157 303 14 52 34 115 43 140 15 37 27 50 80 80 78 46
      142 107 173 168 21 41 24 60 23 147 0 55 -4 150 -9 212 -9 134 2 207 49 308
      61 131 155 235 286 317 62 39 159 80 240 102 30 9 134 27 230 41 96 15 221 37
      278 50 135 32 294 93 408 156 185 102 297 202 694 615 84 88 183 179 235 217
      89 66 257 157 289 157 9 0 16 5 16 11 0 8 -12 10 -33 6 -37 -6 -87 2 -87 13 0
      12 143 30 242 30 72 0 89 3 80 12 -18 18 -193 23 -276 8 -39 -7 -140 -34 -223
      -61 -166 -53 -228 -64 -158 -27 22 11 54 31 70 44 50 38 157 83 236 100 53 11
      100 14 165 10 100 -7 215 -34 290 -68 27 -12 56 -25 66 -29 9 -4 24 -2 35 6
      16 12 12 16 -52 45 -147 67 -355 101 -490 80z m-2574 -1695 c-123 -27 -266
      -110 -356 -206 -64 -68 -110 -134 -141 -205 -13 -30 -38 -105 -55 -167 -17
      -62 -47 -143 -67 -182 -48 -91 -137 -180 -224 -223 -36 -17 -111 -44 -165 -58
      -118 -31 -203 -70 -261 -120 l-43 -36 7 28 c15 63 59 139 117 200 49 53 78 74
      156 111 53 26 117 62 144 81 26 19 61 54 78 79 17 25 56 102 85 171 79 186
      147 282 269 379 128 102 291 162 440 162 l80 -1 -64 -13z m-622 -1737 c9 -53
      8 -64 -6 -80 -17 -19 -129 -78 -148 -78 -9 0 -10 13 -4 48 16 102 64 172 117
      172 29 0 30 -3 41 -62z M4943 3824 c-51 -25 -109 -80 -142 -135 -17 -27 -48
      -60 -69 -72 -28 -17 -33 -23 -19 -25 36 -7 78 21 117 78 37 55 92 110 110 110
      14 0 -10 -84 -36 -123 -14 -22 -23 -41 -20 -44 10 -11 56 27 62 52 4 17 24 34
      60 54 30 16 54 26 54 23 0 -4 -14 -31 -31 -60 -25 -45 -33 -51 -45 -41 -8 6
      -17 9 -20 6 -3 -3 30 -73 75 -156 64 -121 85 -171 105 -254 13 -56 43 -165 65
      -241 23 -76 41 -158 41 -180 0 -28 -8 -54 -25 -79 -27 -39 -54 -49 -57 -19 -2
      24 1 54 8 72 4 12 7 12 13 1 5 -7 14 -10 20 -7 16 10 14 53 -3 59 -23 9 -55
      -21 -67 -62 -8 -29 -9 -48 -1 -70 10 -28 9 -31 -9 -31 -31 0 -17 -24 15 -28
      41 -5 99 38 126 93 18 36 21 57 17 93 -3 26 -28 124 -56 219 -27 94 -55 198
      -61 229 -8 35 -41 113 -84 195 -66 124 -71 137 -55 147 19 12 74 120 83 165 4
      15 2 27 -3 27 -6 0 -36 -18 -67 -40 -32 -22 -61 -40 -65 -40 -5 0 -2 20 5 44
      13 42 12 56 -3 56 -3 0 -20 -7 -38 -16z M4920 3361 c13 -25 71 -61 98 -61 11
      0 27 -7 36 -15 8 -8 17 -15 20 -15 3 0 6 11 6 23 0 33 -30 57 -71 57 -19 0
      -47 7 -63 15 -15 8 -30 15 -32 15 -3 0 0 -9 6 -19z M3541 3160 c-56 -20 -87
      -41 -177 -120 -30 -26 -74 -57 -97 -68 -23 -11 -69 -25 -102 -32 -54 -11 -58
      -14 -35 -22 34 -13 104 -1 167 27 29 13 86 56 131 98 44 41 101 84 126 96 25
      13 46 27 46 32 0 5 -1 9 -2 9 -2 -1 -27 -9 -57 -20z M1442 1853 c-11 -27 -28
      -86 -37 -133 -41 -204 -119 -351 -260 -496 -49 -50 -121 -112 -160 -136 -81
      -52 -169 -89 -272 -113 -40 -10 -70 -22 -67 -27 8 -13 105 -1 189 23 39 12 97
      36 130 54 114 64 249 192 334 318 18 27 50 86 72 131 27 58 45 117 59 197 12
      63 27 140 34 172 7 31 9 57 6 57 -4 0 -17 -21 -28 -47z"/>
    </g>
    <g opacity="0.16666667" transform="translate(0,430) scale(0.100000,-0.100000)">
      <path d="M4223 3836 c-83 -16 -183 -60 -256 -112 -28 -20 -65 -43 -83 -50 -44
      -18 -126 -18 -171 1 -19 8 -40 15 -46 15 -18 0 27 -41 68 -63 31 -16 59 -21
      122 -21 46 -1 83 -2 83 -2 0 -1 -39 -24 -87 -52 -49 -27 -115 -60 -148 -72
      -33 -12 -94 -24 -135 -27 -55 -4 -92 -1 -135 11 -33 10 -75 26 -94 37 -18 11
      -36 17 -39 14 -3 -3 10 -22 29 -41 36 -39 151 -100 206 -110 36 -7 45 -24 13
      -24 -41 0 -128 -43 -203 -101 -42 -33 -96 -67 -120 -75 -30 -11 -62 -14 -114
      -10 -40 3 -73 3 -73 0 0 -3 21 -14 47 -26 35 -15 58 -19 96 -15 62 8 118 35
      182 88 27 22 70 51 96 64 25 13 95 36 155 50 60 15 125 35 144 45 l35 18 -81
      -5 c-59 -4 -102 -1 -160 13 l-79 18 90 7 c127 10 189 33 351 130 130 78 231
      122 290 127 30 2 54 0 54 -5 0 -5 -33 -25 -73 -45 -40 -20 -111 -64 -157 -99
      -47 -35 -148 -129 -225 -209 -294 -304 -413 -419 -511 -491 -55 -42 -145 -98
      -200 -126 -176 -90 -353 -142 -604 -178 -229 -32 -346 -62 -460 -120 -80 -40
      -138 -81 -200 -140 l-55 -53 -125 -5 c-144 -6 -223 -26 -340 -89 -41 -22 -102
      -62 -136 -90 -61 -49 -136 -135 -188 -214 -14 -22 -51 -99 -81 -170 -31 -71
      -67 -146 -82 -167 -15 -21 -45 -51 -67 -67 -23 -15 -83 -49 -135 -75 -103 -51
      -195 -130 -237 -201 -13 -22 -33 -67 -44 -100 -24 -69 -39 -204 -22 -204 6 0
      14 9 17 20 12 38 112 136 167 162 30 15 110 43 178 63 69 20 152 51 185 68 33
      18 90 62 127 98 49 50 76 88 106 150 22 46 52 129 67 184 14 55 44 138 67 185
      33 68 57 101 127 171 73 73 102 94 181 132 52 25 112 49 133 53 l37 6 -25 -43
      c-33 -58 -71 -179 -80 -255 -4 -37 -1 -101 7 -160 7 -55 13 -135 13 -179 -1
      -57 -6 -90 -19 -114 -30 -56 -95 -119 -162 -156 -35 -20 -71 -46 -79 -58 -7
      -12 -28 -74 -45 -137 -17 -63 -48 -153 -70 -198 -29 -60 -59 -103 -105 -151
      -56 -58 -65 -73 -65 -104 0 -20 -6 -39 -12 -43 -7 -5 -33 -8 -59 -9 -26 -1
      -58 -9 -72 -18 -14 -9 -37 -41 -52 -70 -28 -58 -52 -175 -41 -202 5 -14 14
      -16 39 -11 68 13 161 69 241 146 45 43 95 85 113 93 44 23 86 78 118 155 45
      108 103 209 167 288 32 40 98 105 146 143 48 38 148 107 222 152 74 46 166
      105 204 133 37 27 90 76 117 109 28 32 65 89 83 125 28 56 43 72 87 99 74 44
      131 67 214 86 104 24 111 25 360 52 127 14 275 35 330 46 121 24 281 77 367
      120 35 17 90 50 123 73 55 38 65 41 125 41 54 0 78 6 144 38 43 20 158 85 255
      144 171 104 277 157 293 147 27 -17 -24 -126 -93 -199 -42 -44 -51 -61 -51
      -89 l0 -36 -55 6 c-51 7 -56 5 -88 -26 -40 -38 -86 -137 -93 -197 -4 -40 -3
      -43 20 -43 33 0 124 28 173 52 22 12 59 38 82 59 22 21 64 49 92 64 30 15 60
      39 71 58 11 18 32 70 46 117 14 47 48 130 76 185 57 112 64 160 32 216 -11 19
      -37 43 -58 53 l-39 19 -171 -41 c-94 -23 -179 -42 -188 -42 -14 0 -14 5 5 43
      18 35 22 68 28 212 4 113 12 184 22 211 40 107 90 170 159 198 56 24 68 21 68
      -16 0 -47 41 -129 81 -162 19 -16 54 -39 79 -50 26 -12 76 -53 118 -97 70 -73
      72 -77 72 -126 0 -45 4 -54 31 -77 29 -25 79 -36 79 -17 0 5 -16 18 -35 30
      -35 20 -38 29 -35 87 1 25 -13 46 -75 117 -56 64 -91 95 -134 116 -31 16 -74
      47 -94 70 -20 22 -39 55 -43 75 -8 44 2 101 24 138 16 28 12 45 -8 33 -6 -4
      -20 -21 -30 -37 -15 -25 -26 -31 -60 -33 -56 -5 -126 -49 -172 -110 -21 -28
      -48 -79 -60 -115 -16 -49 -22 -90 -22 -165 l-1 -101 -43 30 c-38 27 -54 31
      -120 34 -80 3 -152 -13 -160 -37 -3 -9 2 -11 15 -7 11 4 56 7 99 7 85 2 136
      -14 167 -49 10 -11 21 -38 24 -60 10 -71 -36 -162 -82 -162 -12 0 -47 -8 -76
      -17 -39 -12 -69 -32 -106 -70 -33 -32 -53 -60 -53 -74 0 -21 5 -18 48 23 26
      26 68 56 94 68 26 11 95 29 153 40 58 11 161 33 229 50 68 16 141 30 163 30
      45 0 66 -18 84 -68 10 -30 6 -42 -44 -150 -31 -64 -67 -152 -81 -196 -14 -43
      -32 -89 -41 -102 -8 -13 -33 -33 -55 -44 -22 -11 -65 -43 -94 -69 -49 -44
      -113 -77 -188 -95 -26 -6 -26 -6 -16 32 13 47 52 125 71 140 8 7 38 11 70 9
      53 -2 56 -3 50 -24 -7 -29 13 -30 28 -2 6 13 8 39 4 64 -6 42 -4 45 54 110 38
      42 67 86 80 121 12 30 21 63 21 74 0 28 -28 50 -63 50 -18 0 -50 -9 -73 -19
      -22 -10 -121 -67 -220 -126 -98 -59 -210 -123 -249 -141 -84 -41 -148 -45
      -189 -13 -14 11 -44 58 -66 104 -40 84 -71 117 -122 130 -36 9 -44 -11 -11
      -29 43 -22 69 -55 103 -131 17 -38 39 -78 47 -88 15 -16 15 -19 -3 -32 -44
      -35 -154 -96 -223 -125 -85 -35 -219 -72 -336 -94 -44 -8 -186 -27 -315 -41
      -129 -15 -277 -38 -328 -51 -51 -13 -125 -38 -163 -57 -63 -30 -69 -31 -63
      -13 4 12 24 59 45 105 22 46 39 90 39 97 0 27 -21 13 -49 -31 -16 -25 -50 -95
      -77 -157 -59 -139 -87 -191 -131 -245 -60 -75 -116 -122 -223 -190 -277 -174
      -379 -251 -467 -354 -71 -83 -101 -132 -168 -272 -34 -73 -73 -141 -86 -153
      -13 -11 -40 -30 -59 -42 -19 -11 -48 -34 -64 -51 -22 -23 -32 -28 -38 -19 -15
      25 -8 78 13 99 13 13 18 27 14 39 -3 11 -2 27 4 37 5 10 36 45 69 79 73 75
      118 164 166 332 20 68 40 131 46 142 5 10 38 34 73 53 71 40 151 120 173 173
      29 70 34 128 19 230 -19 126 -19 244 0 319 35 136 121 268 233 361 79 65 190
      123 297 157 45 14 164 37 265 52 102 15 234 39 295 55 137 34 295 96 401 156
      178 100 283 194 689 615 77 79 175 171 217 202 93 70 195 128 266 153 28 10
      52 22 52 26 0 4 -25 7 -55 6 -50 -1 -75 5 -64 16 9 9 166 26 245 26 46 0 84 4
      84 9 0 24 -206 28 -315 6 -40 -9 -134 -36 -208 -60 -74 -25 -145 -45 -158 -45
      -19 0 -11 7 30 30 30 17 62 36 70 44 26 22 113 63 176 82 79 24 263 24 355 0
      74 -20 152 -47 194 -70 21 -10 35 -12 48 -5 10 5 18 12 18 15 0 12 -142 68
      -230 91 -119 30 -251 37 -347 19z m-2540 -1686 c-56 -12 -151 -51 -221 -91
      -31 -19 -96 -73 -144 -121 -70 -71 -95 -104 -127 -170 -22 -46 -53 -132 -70
      -193 -17 -60 -47 -143 -67 -183 -46 -94 -126 -176 -220 -224 -38 -21 -121 -51
      -184 -68 -123 -33 -187 -64 -250 -117 -22 -19 -40 -32 -40 -29 0 19 47 128 70
      161 48 70 123 131 216 175 49 24 112 60 140 81 28 20 65 60 83 88 18 28 54
      101 80 163 69 167 138 266 250 361 62 53 153 108 221 133 76 27 162 42 235 42
      65 0 67 -1 28 -8z m-635 -1742 c8 -53 7 -66 -6 -80 -16 -20 -128 -78 -147 -78
      -9 0 -10 12 -4 48 14 75 28 109 59 142 19 20 38 30 58 30 28 0 30 -2 40 -62z
      M4925 3814 c-58 -39 -92 -72 -126 -126 -17 -26 -47 -58 -67 -70 -33 -20 -35
      -23 -15 -26 37 -5 81 26 123 87 22 33 53 69 69 80 16 12 32 21 35 21 10 0 -26
      -105 -46 -133 -11 -16 -18 -31 -14 -34 10 -11 56 27 62 52 4 17 24 34 60 54
      30 16 54 26 54 23 0 -4 -14 -31 -31 -61 -23 -39 -34 -50 -42 -42 -13 13 -27
      14 -27 3 0 -5 35 -74 79 -154 56 -104 83 -166 95 -219 10 -41 39 -150 67 -244
      27 -93 49 -184 49 -202 0 -17 -4 -43 -10 -57 -10 -28 -45 -66 -60 -66 -13 0
      -13 87 -1 94 5 4 11 1 13 -6 2 -6 10 -8 16 -4 15 9 16 52 2 61 -17 10 -56 -20
      -70 -55 -10 -25 -11 -42 -3 -71 9 -36 8 -39 -9 -39 -30 0 -16 -25 16 -28 41
      -5 104 41 127 91 10 23 19 58 19 78 0 19 -22 112 -50 205 -27 93 -56 201 -64
      240 -11 49 -37 114 -86 207 l-71 136 30 41 c27 38 71 136 71 160 0 18 -18 10
      -76 -30 -32 -22 -61 -40 -65 -40 -5 0 -5 10 0 23 4 12 11 34 15 50 5 22 3 27
      -11 27 -10 0 -36 -12 -58 -26z M4910 3371 c0 -5 17 -23 37 -40 21 -17 49 -31
      64 -31 15 0 32 -7 39 -15 18 -22 30 -18 30 8 0 33 -30 57 -71 57 -19 0 -47 7
      -63 15 -15 8 -30 15 -32 15 -2 0 -4 -4 -4 -9z M3543 3161 c-53 -18 -92 -44
      -175 -118 -59 -52 -132 -90 -190 -99 -24 -4 -49 -10 -57 -14 -23 -12 43 -23
      92 -15 23 4 61 16 85 28 24 11 82 55 129 98 47 43 105 88 129 100 24 11 44 25
      44 30 0 5 -1 9 -2 9 -2 -1 -26 -9 -55 -19z M1444 1863 c-8 -21 -26 -86 -39
      -144 -13 -59 -37 -142 -54 -185 -17 -44 -52 -113 -79 -154 -59 -91 -153 -194
      -236 -256 -84 -64 -197 -117 -305 -144 -50 -12 -91 -27 -91 -32 0 -15 124 0
      200 24 36 11 83 30 105 41 109 54 262 194 345 318 24 34 59 98 80 143 40 85
      62 169 81 300 6 44 15 90 20 103 15 39 -9 26 -27 -14z"/>
    </g>
    <g opacity="0.20000000" transform="translate(0,430) scale(0.100000,-0.100000)">
      <path d="M4244 3840 c-97 -14 -177 -49 -296 -128 -58 -39 -79 -46 -128 -50
      -40 -3 -73 1 -100 12 -22 9 -46 16 -52 16 -19 0 25 -41 67 -63 30 -16 60 -21
      122 -21 46 -1 83 -2 83 -2 0 -1 -39 -24 -87 -51 -49 -28 -115 -60 -147 -72
      -32 -12 -93 -25 -135 -28 -57 -4 -92 -1 -136 11 -33 10 -75 26 -94 37 -18 11
      -36 17 -39 14 -3 -3 10 -22 29 -41 36 -39 151 -100 206 -110 18 -3 33 -10 33
      -14 0 -4 -17 -10 -37 -13 -53 -9 -128 -49 -193 -102 -85 -70 -112 -80 -212
      -79 -67 0 -85 -2 -78 -11 6 -7 31 -18 55 -25 81 -23 167 4 260 81 27 22 71 52
      97 65 25 13 94 35 152 49 59 13 123 33 144 44 l37 19 -82 -5 c-61 -4 -101 -1
      -160 13 l-78 19 90 7 c50 3 113 14 140 23 63 22 137 59 243 123 109 66 220
      112 272 112 24 0 39 -4 35 -10 -3 -5 -35 -24 -71 -42 -106 -53 -231 -154 -379
      -308 -297 -307 -414 -419 -512 -493 -112 -83 -299 -179 -428 -221 -116 -37
      -196 -54 -415 -87 -107 -16 -231 -41 -275 -55 -143 -46 -247 -105 -340 -194
      l-60 -58 -125 -5 c-138 -5 -217 -25 -330 -82 -140 -70 -277 -204 -353 -345
      -20 -36 -52 -106 -72 -157 -41 -103 -85 -171 -136 -209 -19 -14 -75 -46 -126
      -71 -98 -49 -166 -100 -215 -161 -39 -47 -82 -142 -97 -210 -13 -60 -15 -142
      -3 -142 4 0 20 20 35 44 36 57 93 109 154 139 26 14 104 41 173 62 69 20 152
      51 185 68 82 44 181 145 227 233 20 38 51 122 68 185 17 62 50 152 72 199 34
      68 59 102 128 171 71 70 102 93 180 132 52 25 112 49 132 53 l37 6 -29 -53
      c-17 -30 -39 -82 -49 -115 -30 -96 -35 -184 -17 -321 9 -67 16 -137 16 -155 0
      -19 -7 -56 -17 -83 -11 -34 -34 -67 -72 -105 -31 -30 -79 -67 -108 -82 -29
      -15 -59 -39 -68 -52 -9 -13 -29 -75 -45 -138 -17 -63 -49 -153 -74 -203 -33
      -67 -60 -105 -105 -149 -54 -51 -61 -63 -61 -97 0 -28 -5 -41 -20 -49 -11 -6
      -30 -8 -43 -5 -13 4 -40 0 -60 -8 -23 -10 -44 -30 -61 -59 -30 -52 -58 -156
      -54 -201 2 -24 8 -33 26 -35 12 -2 56 13 98 33 55 27 99 59 158 115 44 42 95
      85 113 93 46 24 87 79 123 166 45 108 110 215 177 294 32 37 99 100 150 140
      50 39 154 109 230 155 76 46 166 106 201 133 74 59 139 139 180 223 25 51 39
      67 86 95 71 42 162 76 263 96 43 8 180 26 305 40 125 13 273 34 330 45 124 25
      284 77 370 121 35 17 90 50 123 73 55 38 65 41 126 41 60 0 77 5 170 52 57 28
      156 84 219 124 217 136 310 176 310 132 0 -36 -51 -125 -101 -178 -37 -39 -52
      -63 -54 -87 l-3 -33 -54 3 c-48 3 -57 1 -82 -25 -38 -36 -87 -143 -94 -199 -5
      -43 -4 -44 25 -44 34 0 120 28 178 58 22 11 60 38 85 60 25 21 64 49 87 60 23
      12 50 34 61 49 11 16 32 69 47 118 15 50 49 133 75 185 26 52 51 109 55 126 8
      40 -19 107 -52 134 -14 11 -39 22 -57 25 -20 4 -80 -6 -166 -28 -74 -20 -154
      -38 -177 -42 l-42 -7 22 44 c18 37 22 67 28 213 7 178 15 217 63 300 32 52 72
      90 118 109 54 23 68 21 68 -10 0 -47 22 -103 56 -142 18 -21 54 -49 81 -63 26
      -13 85 -60 131 -104 82 -80 82 -80 82 -131 0 -46 4 -55 31 -78 29 -25 79 -36
      79 -17 0 5 -16 18 -35 30 -32 19 -35 24 -35 69 0 41 -6 55 -37 93 -76 91 -120
      132 -174 159 -30 16 -72 46 -92 69 -55 61 -61 132 -17 213 11 21 16 39 11 42
      -9 6 -56 -41 -63 -63 -2 -7 -21 -14 -46 -16 -23 -2 -62 -15 -87 -29 -83 -49
      -144 -149 -165 -270 -7 -37 -10 -95 -8 -130 l4 -63 -44 31 c-38 27 -53 31
      -120 34 -75 3 -152 -13 -159 -34 -2 -5 36 -7 89 -5 50 2 108 -2 128 -8 53 -16
      82 -51 87 -108 4 -37 -1 -58 -19 -93 -15 -27 -34 -48 -49 -52 -13 -4 -50 -15
      -82 -23 -46 -13 -70 -27 -113 -69 -36 -35 -54 -60 -54 -76 0 -22 4 -21 48 22
      26 26 67 56 92 67 25 11 86 27 135 36 50 9 156 32 237 51 80 20 163 34 184 32
      27 -2 43 -11 57 -31 12 -15 21 -41 20 -60 0 -18 -22 -75 -48 -126 -25 -51 -60
      -134 -76 -185 -17 -50 -37 -101 -45 -113 -8 -13 -33 -32 -56 -44 -22 -11 -62
      -41 -88 -65 -43 -41 -124 -82 -192 -98 -26 -6 -26 -6 -16 32 13 47 52 125 71
      140 8 7 38 11 69 9 50 -2 54 -4 50 -24 -2 -13 1 -23 6 -23 21 0 34 42 28 87
      -5 42 -4 45 54 108 37 42 66 86 79 121 12 30 21 62 21 70 0 8 -5 24 -10 35
      -15 27 -72 25 -135 -5 -27 -12 -126 -69 -220 -126 -93 -57 -202 -118 -242
      -137 -85 -39 -147 -44 -186 -13 -14 11 -44 58 -66 104 -41 85 -73 118 -123
      131 -37 9 -44 -11 -10 -29 42 -22 75 -65 102 -132 13 -33 32 -70 42 -83 17
      -23 17 -24 -5 -40 -87 -66 -213 -126 -351 -167 -116 -35 -261 -60 -516 -89
      -124 -15 -254 -33 -290 -40 -84 -18 -172 -49 -227 -80 l-44 -24 7 22 c4 12 24
      60 45 106 22 46 39 93 39 104 0 20 0 20 -21 2 -20 -19 -41 -59 -152 -296 -45
      -96 -67 -129 -125 -190 -45 -48 -107 -98 -172 -139 -256 -162 -340 -223 -416
      -298 -79 -77 -138 -154 -182 -237 -12 -22 -41 -84 -66 -137 -38 -84 -51 -102
      -92 -130 -27 -18 -67 -50 -90 -71 -34 -31 -43 -35 -48 -21 -12 32 -6 74 15 95
      15 15 19 28 15 45 -5 20 5 36 57 92 99 105 134 175 187 368 15 55 33 110 39
      122 6 12 35 34 63 48 57 29 138 101 168 149 11 17 27 59 35 93 15 57 15 72 1
      167 -20 133 -20 244 -1 320 8 33 31 92 51 132 69 138 188 254 336 329 94 48
      215 80 386 105 208 29 318 53 453 98 129 44 228 91 334 158 155 100 290 223
      530 483 146 158 261 263 363 333 62 42 228 127 248 127 7 0 16 5 20 11 4 7 -8
      10 -37 9 -68 -3 -89 -1 -89 8 0 13 152 32 255 32 68 0 86 3 77 12 -7 7 -56 13
      -120 16 -132 5 -219 -10 -407 -74 -73 -24 -143 -44 -156 -44 -19 0 -14 6 26
      29 28 15 77 45 110 65 33 20 92 47 130 59 58 18 91 22 190 20 97 -1 137 -6
      210 -28 50 -14 114 -38 144 -51 49 -23 55 -24 69 -10 14 14 10 18 -49 45 -89
      40 -183 68 -274 80 -84 12 -144 12 -221 1z m-2559 -1690 c-58 -12 -134 -42
      -212 -85 -93 -52 -227 -188 -275 -280 -20 -38 -55 -133 -78 -210 -23 -77 -56
      -167 -73 -200 -18 -33 -57 -85 -87 -115 -30 -30 -87 -72 -126 -92 -38 -20
      -121 -51 -184 -68 -124 -34 -187 -64 -251 -119 -39 -33 -41 -33 -35 -10 4 13
      23 56 42 95 46 96 125 170 242 225 48 23 110 59 137 79 28 20 63 56 79 78 15
      23 52 98 82 167 29 69 69 149 87 178 72 111 177 213 282 272 110 62 226 94
      340 93 62 0 65 -1 30 -8z m-638 -1742 c7 -42 7 -67 1 -75 -13 -16 -105 -68
      -137 -78 -24 -7 -24 -7 -18 46 4 29 17 74 30 99 24 46 55 70 93 70 17 0 22 -9
      31 -62z M4925 3814 c-58 -39 -92 -72 -126 -126 -17 -26 -47 -58 -67 -70 l-37
      -23 27 -3 c15 -2 39 5 53 14 15 10 44 43 66 75 21 31 52 67 68 78 16 12 32 21
      35 21 9 0 -21 -88 -43 -126 -12 -20 -20 -39 -17 -42 10 -10 56 29 62 53 4 17
      24 34 60 54 30 16 54 26 54 23 0 -4 -14 -31 -31 -61 -23 -39 -34 -50 -42 -42
      -15 15 -29 14 -25 -1 2 -7 38 -78 80 -158 57 -107 82 -168 97 -230 11 -47 41
      -155 66 -240 24 -85 45 -169 45 -187 0 -17 -4 -43 -10 -57 -10 -28 -45 -66
      -60 -66 -13 0 -13 87 -1 94 5 4 11 1 13 -6 2 -6 10 -8 16 -4 14 9 16 52 2 61
      -15 10 -49 -13 -65 -45 -17 -34 -19 -73 -5 -101 9 -16 7 -19 -10 -19 -33 0
      -18 -25 16 -28 64 -6 144 83 144 163 0 22 -24 126 -54 230 -30 105 -59 217
      -66 250 -7 33 -27 85 -45 115 -18 30 -49 88 -69 127 l-36 73 34 47 c30 42 66
      126 66 153 0 16 -20 11 -53 -14 -18 -13 -45 -32 -61 -42 l-29 -18 7 38 c4 20
      10 44 13 52 9 23 -28 17 -72 -12z M4910 3371 c0 -5 17 -23 37 -40 21 -17 49
      -31 64 -31 15 0 32 -7 39 -15 7 -8 16 -15 21 -15 15 0 10 48 -7 64 -8 9 -32
      16 -52 16 -20 1 -48 7 -62 15 -30 17 -40 18 -40 6z M3545 3162 c-58 -20 -97
      -46 -174 -116 -61 -55 -144 -97 -208 -104 -24 -2 -46 -8 -49 -13 -8 -14 43
      -22 93 -14 26 4 67 16 91 27 23 11 81 56 128 99 47 42 105 87 129 98 40 19 67
      41 48 41 -4 -1 -31 -8 -58 -18z M1444 1863 c-8 -21 -26 -85 -39 -143 -27 -122
      -62 -220 -106 -297 -50 -87 -142 -196 -226 -268 -93 -80 -221 -145 -345 -176
      -49 -12 -88 -26 -88 -32 0 -15 130 1 203 25 84 27 130 52 207 109 73 53 156
      137 220 219 50 65 121 204 143 280 9 30 25 111 36 179 12 67 24 127 27 132 3
      5 0 9 -5 9 -6 0 -18 -17 -27 -37z"/>
    </g>
    <g opacity="0.25000000" transform="translate(0,430) scale(0.100000,-0.100000)">
      <path d="M4236 3839 c-66 -11 -143 -36 -186 -61 -19 -12 -65 -41 -102 -66 -54
      -36 -78 -46 -122 -50 -35 -3 -72 1 -102 12 -26 9 -52 16 -57 16 -6 0 -2 -9 9
      -21 34 -38 95 -61 174 -68 l75 -6 -70 -40 c-95 -55 -158 -81 -233 -95 -88 -18
      -169 -8 -248 29 -37 17 -69 29 -72 26 -3 -3 10 -22 29 -41 36 -39 151 -100
      206 -110 18 -3 33 -10 33 -14 0 -4 -17 -10 -37 -13 -52 -9 -128 -48 -188 -98
      -27 -22 -68 -51 -90 -62 -33 -18 -56 -22 -128 -21 -72 1 -85 -1 -76 -12 18
      -21 89 -37 141 -31 26 3 62 14 80 23 18 9 60 38 93 64 33 26 78 56 100 67 22
      11 90 32 150 47 61 15 126 36 145 46 l35 18 -81 -5 c-62 -4 -100 -1 -155 13
      l-74 19 85 6 c47 3 103 12 125 19 53 17 151 67 253 128 110 67 220 112 273
      112 27 0 39 -4 34 -9 -6 -6 -37 -24 -70 -42 -151 -80 -259 -173 -489 -419
      -235 -252 -370 -372 -523 -464 -128 -76 -304 -146 -453 -180 -36 -8 -156 -28
      -268 -46 -112 -17 -232 -40 -266 -51 -145 -44 -272 -118 -361 -208 l-49 -51
      -99 0 c-54 0 -130 -7 -170 -16 -97 -22 -225 -83 -314 -149 -83 -63 -168 -161
      -221 -255 -20 -36 -55 -111 -78 -168 -65 -158 -103 -201 -240 -268 -51 -24
      -118 -64 -150 -88 -91 -68 -152 -163 -179 -278 -16 -67 -20 -158 -7 -158 4 0
      20 20 35 44 36 57 93 109 154 140 26 13 98 38 158 55 158 45 244 90 325 170
      81 79 127 165 168 313 37 131 71 213 116 281 45 68 125 144 206 196 61 39 147
      77 202 88 l28 5 -30 -53 c-71 -128 -91 -266 -66 -443 9 -60 16 -124 16 -141 0
      -58 -29 -131 -71 -179 -22 -25 -72 -64 -110 -87 -38 -22 -77 -51 -85 -65 -9
      -13 -30 -75 -46 -137 -16 -62 -49 -152 -73 -202 -33 -69 -58 -104 -104 -147
      -53 -51 -60 -63 -63 -100 l-3 -43 -55 -5 c-31 -3 -68 -13 -84 -23 -15 -10 -39
      -43 -53 -73 -28 -61 -50 -171 -40 -197 3 -9 16 -17 27 -17 12 0 55 16 97 35
      55 25 95 54 151 108 43 41 96 86 119 100 23 15 53 42 67 60 15 19 43 72 63
      118 44 102 103 200 162 271 90 106 201 191 451 345 47 28 111 72 142 97 68 55
      135 137 174 215 16 31 38 64 49 73 40 34 133 77 219 102 59 17 174 36 352 56
      145 16 310 39 366 50 124 25 283 77 370 121 35 17 93 51 129 76 59 39 70 43
      105 37 73 -11 183 39 466 214 169 105 248 134 248 94 0 -35 -59 -137 -105
      -181 -25 -23 -46 -50 -47 -59 -1 -10 -2 -26 -2 -37 -1 -18 -7 -20 -53 -17 -36
      3 -59 -1 -77 -13 -34 -22 -97 -150 -103 -209 -6 -45 -5 -46 23 -46 71 0 201
      58 267 119 23 21 60 48 82 59 22 11 48 29 58 39 9 11 33 68 52 126 19 58 54
      146 79 194 25 48 48 100 51 114 10 41 -12 105 -45 132 -16 14 -43 28 -60 32
      -20 4 -78 -5 -172 -29 -79 -19 -160 -38 -180 -41 l-36 -7 21 44 c19 37 23 67
      28 213 7 169 14 207 53 284 23 43 74 99 105 115 14 8 41 17 59 21 32 7 32 6
      32 -31 0 -21 9 -57 21 -80 24 -51 71 -95 137 -128 26 -13 80 -58 120 -99 70
      -73 72 -76 72 -125 0 -44 4 -54 31 -76 17 -14 34 -26 39 -26 5 0 15 -3 24 -6
      10 -4 16 -1 16 9 0 8 -16 24 -35 36 -33 19 -35 24 -35 71 0 48 -3 54 -73 133
      -49 55 -91 92 -130 113 -31 16 -72 45 -91 63 -39 38 -61 104 -52 153 3 18 15
      50 26 70 11 21 16 39 11 42 -9 6 -55 -41 -64 -65 -4 -12 -13 -15 -31 -12 -38
      8 -129 -41 -171 -90 -20 -23 -46 -64 -60 -92 -30 -65 -48 -165 -43 -249 3 -65
      3 -65 -17 -46 -53 49 -174 67 -259 38 -70 -24 -53 -34 48 -30 55 3 108 0 128
      -7 53 -17 80 -52 85 -108 4 -37 -1 -58 -19 -93 -15 -28 -34 -48 -49 -52 -112
      -31 -139 -41 -168 -62 -41 -31 -81 -84 -81 -109 0 -16 10 -10 50 27 28 26 70
      56 93 66 23 10 94 28 157 40 63 12 168 35 232 51 64 16 135 29 157 29 31 0 44
      -6 60 -26 33 -42 27 -91 -24 -193 -25 -49 -59 -131 -75 -182 -17 -52 -38 -104
      -46 -116 -8 -13 -33 -32 -57 -44 -23 -12 -63 -41 -89 -66 -47 -43 -101 -72
      -172 -92 -33 -9 -36 -8 -36 12 0 27 51 138 72 154 9 8 37 12 70 10 50 -2 54
      -4 50 -24 -6 -32 15 -29 31 5 10 18 11 36 6 57 -5 17 -7 37 -4 45 3 8 25 35
      50 59 46 45 105 151 105 191 0 12 -5 30 -10 41 -8 14 -21 19 -48 19 -20 0 -57
      -10 -82 -21 -25 -11 -132 -72 -238 -136 -106 -64 -219 -126 -250 -139 -71 -29
      -131 -31 -165 -4 -14 11 -44 58 -66 104 -41 85 -73 118 -123 131 -37 9 -44
      -11 -10 -29 42 -22 77 -67 102 -132 11 -31 30 -68 41 -82 l20 -26 -68 -44
      c-81 -53 -160 -90 -268 -125 -139 -46 -280 -71 -565 -102 -80 -9 -184 -23
      -231 -30 -98 -17 -212 -54 -275 -89 -24 -14 -44 -23 -44 -21 0 2 22 55 49 117
      27 62 47 117 43 122 -12 20 -64 -63 -133 -216 -40 -88 -85 -179 -101 -203 -46
      -70 -156 -166 -268 -235 -193 -117 -310 -202 -389 -279 -91 -89 -172 -208
      -226 -331 -20 -47 -46 -100 -57 -119 -12 -18 -44 -48 -72 -66 -28 -18 -64 -47
      -80 -64 -22 -23 -32 -28 -38 -19 -4 7 -8 29 -8 48 0 24 6 39 20 48 14 8 20 23
      20 49 0 31 9 46 64 102 86 90 129 177 180 367 13 50 29 101 35 113 7 11 35 33
      63 47 62 32 141 104 174 160 13 22 29 67 35 99 8 45 7 79 -5 157 -9 54 -16
      131 -16 171 0 138 46 266 139 389 59 77 167 166 263 214 37 19 105 45 150 58
      46 13 164 36 263 51 287 42 423 80 601 164 118 57 227 128 340 222 44 37 161
      152 260 256 240 252 323 332 424 404 76 55 215 131 281 154 18 7 8 10 -43 12
      -38 2 -68 8 -68 12 0 12 161 31 260 31 65 0 81 3 72 12 -7 7 -56 13 -124 16
      -134 5 -225 -11 -391 -68 -62 -21 -130 -41 -152 -45 l-40 -6 50 28 c28 16 72
      44 100 61 112 72 245 100 399 83 99 -11 231 -48 298 -83 36 -19 41 -19 55 -5
      14 14 11 17 -28 38 -110 56 -296 100 -413 98 -33 -1 -83 -5 -110 -10z m-2579
      -1695 c-32 -8 -100 -35 -150 -61 -74 -38 -110 -65 -183 -138 -74 -73 -98 -106
      -132 -175 -23 -47 -58 -141 -77 -210 -20 -69 -52 -153 -72 -188 -48 -88 -127
      -163 -215 -206 -40 -20 -122 -50 -182 -67 -59 -16 -130 -41 -157 -55 -28 -13
      -68 -41 -91 -62 -38 -34 -40 -35 -34 -12 4 14 23 57 42 96 48 100 122 167 261
      235 73 36 122 68 154 99 50 50 73 90 134 235 22 50 54 117 73 149 44 74 167
      204 240 252 113 75 261 122 387 122 l60 0 -58 -14z m-610 -1736 c11 -62 11
      -63 -15 -86 -25 -21 -122 -72 -138 -72 -14 0 6 101 29 147 24 48 55 73 93 73
      17 0 22 -10 31 -62z M4925 3814 c-58 -39 -92 -72 -126 -126 -17 -26 -47 -58
      -67 -70 l-37 -23 27 -3 c15 -2 39 5 53 14 15 10 44 43 66 75 21 31 52 67 68
      78 16 12 32 21 35 21 9 0 -21 -88 -43 -126 -12 -20 -20 -39 -17 -41 11 -11 49
      21 62 52 7 19 24 37 36 41 13 3 35 15 51 26 15 11 27 17 27 13 0 -10 -32 -69
      -51 -93 -10 -13 -20 -18 -24 -12 -9 14 -27 13 -23 -2 2 -7 37 -78 80 -158 56
      -106 82 -168 96 -230 12 -47 41 -156 66 -242 25 -86 46 -170 46 -187 0 -16 -4
      -40 -9 -53 -11 -27 -48 -68 -61 -68 -13 0 -13 87 -1 94 5 4 11 1 13 -6 2 -6
      10 -8 16 -4 14 9 16 52 2 61 -15 10 -49 -13 -65 -45 -17 -34 -19 -73 -5 -101
      9 -17 7 -19 -16 -19 -22 0 -25 -2 -14 -15 18 -22 62 -18 101 8 45 30 79 92 79
      143 0 23 -24 127 -54 231 -30 104 -59 216 -65 247 -6 32 -26 83 -45 114 -18
      32 -50 90 -71 131 -36 73 -36 73 -17 95 32 36 60 89 73 139 6 26 9 51 5 54 -3
      4 -16 -3 -29 -14 -12 -11 -42 -33 -66 -48 l-44 -27 7 37 c4 20 10 43 13 51 9
      23 -28 17 -72 -12z M4910 3371 c0 -16 73 -71 93 -71 11 0 32 -8 48 -17 15 -9
      31 -14 34 -11 8 7 -14 61 -28 70 -7 4 -28 8 -47 8 -19 0 -46 7 -60 15 -30 17
      -40 18 -40 6z M3545 3162 c-58 -20 -97 -46 -174 -115 -62 -57 -136 -94 -204
      -103 -26 -4 -50 -10 -53 -15 -8 -13 44 -22 93 -15 24 3 64 14 88 25 23 10 80
      53 126 96 46 42 105 88 131 101 43 22 70 44 51 44 -4 -1 -31 -8 -58 -18z
      M1455 1887 c-8 -13 -25 -64 -36 -113 -33 -143 -76 -270 -116 -341 -53 -96
      -141 -203 -230 -278 -43 -37 -114 -84 -161 -108 -46 -22 -129 -53 -185 -68
      -76 -20 -97 -29 -83 -35 30 -12 165 12 240 42 90 36 169 88 256 170 119 113
      206 239 256 370 14 37 34 121 45 188 11 67 25 136 31 154 5 18 8 36 5 39 -3 2
      -13 -6 -22 -20z"/>
    </g>
    <g opacity="0.33333333" transform="translate(0,430) scale(0.100000,-0.100000)">
      <path d="M4265 3844 c-156 -31 -185 -43 -301 -121 -71 -47 -93 -57 -139 -61
      -34 -3 -71 1 -101 12 -26 9 -52 16 -58 16 -18 0 39 -53 74 -68 19 -8 69 -17
      110 -21 l75 -6 -87 -48 c-136 -75 -188 -91 -298 -91 -87 -1 -101 2 -164 32
      -37 17 -70 32 -72 32 -2 0 -4 -4 -4 -9 0 -5 14 -24 31 -41 34 -33 118 -79 184
      -100 49 -15 67 -30 37 -30 -43 0 -134 -43 -195 -92 -34 -27 -80 -60 -102 -71
      -33 -18 -55 -22 -127 -21 -49 1 -88 -2 -88 -6 0 -17 69 -35 130 -35 73 1 118
      20 190 80 23 20 62 47 85 61 23 13 95 38 159 54 64 17 132 37 151 45 48 19 46
      36 -2 23 -46 -13 -161 -5 -223 15 l-45 15 65 1 c121 2 189 28 435 169 104 60
      200 95 247 90 32 -3 30 -5 -52 -51 -47 -26 -116 -71 -155 -99 -38 -29 -140
      -125 -225 -213 -389 -401 -485 -487 -656 -585 -106 -61 -251 -118 -381 -151
      -61 -15 -190 -40 -285 -54 -213 -32 -279 -47 -376 -86 -105 -42 -183 -91 -262
      -166 l-67 -63 -99 0 c-121 0 -234 -25 -337 -76 -203 -98 -354 -274 -443 -511
      -14 -37 -36 -86 -49 -109 -37 -63 -108 -122 -198 -163 -182 -85 -283 -198
      -322 -363 -16 -67 -20 -158 -7 -158 4 0 20 20 35 44 39 62 100 114 171 146 34
      15 106 40 160 55 145 39 228 84 311 169 81 82 122 159 161 299 35 128 70 211
      120 288 51 77 119 143 204 198 61 40 147 77 203 88 l29 6 -26 -41 c-37 -59
      -75 -177 -82 -258 -3 -38 -1 -109 5 -159 23 -177 24 -199 7 -257 -20 -72 -84
      -144 -165 -187 -33 -17 -69 -43 -81 -58 -11 -14 -27 -51 -35 -82 -35 -130 -69
      -230 -98 -286 -17 -33 -58 -86 -89 -117 -60 -59 -78 -91 -78 -134 0 -22 -4
      -24 -47 -24 -30 0 -60 -7 -80 -20 -18 -10 -42 -39 -54 -62 -29 -56 -49 -132
      -49 -185 0 -40 2 -43 27 -43 14 0 63 18 107 39 61 29 98 56 146 106 36 36 84
      78 107 92 24 13 54 39 69 55 14 17 52 87 84 155 33 69 79 152 103 186 25 34
      81 97 126 140 77 73 180 146 395 277 112 69 229 183 276 270 19 35 51 81 72
      101 45 46 163 96 283 120 49 10 178 27 285 39 107 11 238 28 290 36 107 17
      248 54 328 84 76 29 178 82 242 125 49 34 62 38 125 40 50 1 85 9 125 27 31
      14 146 79 256 146 205 123 261 152 296 152 17 0 19 -5 13 -32 -11 -52 -54
      -123 -101 -168 -32 -30 -46 -53 -50 -79 l-6 -38 -49 5 c-34 3 -56 0 -72 -11
      -35 -22 -97 -147 -104 -208 l-6 -52 53 6 c69 8 187 64 242 115 24 22 61 49 83
      60 22 11 48 29 59 40 10 12 35 73 56 137 21 63 56 148 78 188 22 39 43 86 46
      104 4 17 2 49 -4 71 -11 44 -55 88 -98 99 -17 4 -79 -7 -172 -30 -80 -19 -162
      -38 -183 -42 -38 -6 -38 -6 -24 17 30 47 39 103 41 246 3 165 16 219 69 298
      36 54 96 99 145 109 32 7 32 6 32 -31 0 -21 9 -57 21 -80 24 -51 71 -95 137
      -128 26 -13 80 -58 120 -99 70 -73 72 -76 72 -125 0 -44 4 -54 31 -76 17 -14
      34 -26 39 -26 5 0 15 -3 24 -6 10 -4 16 -1 16 9 0 8 -16 24 -35 36 -33 19 -35
      24 -35 70 0 42 -5 57 -32 88 -75 90 -127 136 -179 163 -31 16 -69 44 -86 63
      -58 66 -65 135 -22 218 10 21 15 40 10 44 -5 3 -25 -13 -44 -35 -22 -26 -42
      -40 -58 -40 -42 0 -124 -46 -163 -91 -21 -24 -46 -61 -57 -81 -31 -60 -51
      -165 -47 -250 3 -76 3 -77 -17 -59 -11 10 -36 27 -55 36 -47 24 -160 24 -218
      0 -24 -10 -40 -20 -37 -24 4 -3 50 -4 104 -3 115 4 160 -10 191 -60 11 -18 20
      -49 20 -69 0 -48 -39 -121 -70 -130 -14 -4 -47 -13 -73 -19 -26 -7 -68 -26
      -92 -42 -46 -30 -85 -82 -85 -113 0 -13 13 -5 50 29 28 26 70 56 93 66 23 10
      85 26 137 35 52 9 157 32 233 51 76 19 154 34 173 34 24 0 43 -8 59 -25 39
      -38 34 -87 -20 -192 -24 -48 -58 -131 -76 -183 -17 -52 -37 -105 -45 -117 -8
      -13 -36 -34 -62 -47 -26 -13 -60 -38 -77 -56 -35 -37 -125 -85 -178 -95 -32
      -6 -37 -5 -37 11 0 26 53 136 73 152 10 9 34 12 64 10 44 -3 48 -5 53 -33 l6
      -30 21 34 c17 26 19 39 12 64 -5 18 -9 35 -9 40 0 4 23 31 51 59 54 54 109
      154 109 199 0 14 -6 34 -14 44 -19 27 -74 21 -143 -14 -32 -16 -141 -79 -242
      -140 -101 -61 -208 -120 -238 -131 -29 -11 -72 -20 -95 -20 -33 0 -46 6 -72
      33 -17 18 -40 57 -50 87 -30 85 -126 164 -158 132 -7 -7 -2 -15 18 -25 45 -23
      72 -57 100 -128 14 -35 34 -75 44 -89 l18 -26 -56 -36 c-127 -82 -281 -142
      -459 -178 -54 -12 -210 -34 -348 -50 -137 -17 -274 -35 -303 -41 -75 -15 -186
      -54 -238 -83 -24 -14 -44 -23 -44 -20 0 2 14 35 31 72 52 113 69 161 59 167
      -14 8 -55 -52 -96 -140 -114 -249 -134 -285 -196 -351 -60 -64 -155 -134 -298
      -219 -193 -116 -343 -249 -433 -383 -27 -40 -68 -117 -92 -172 -24 -55 -53
      -114 -65 -130 -12 -17 -40 -41 -63 -54 -23 -14 -58 -41 -77 -61 -30 -31 -35
      -33 -42 -18 -3 10 -7 32 -7 48 -1 20 6 34 19 43 14 8 20 23 20 49 0 31 9 46
      65 104 48 49 76 91 105 151 21 46 53 135 70 197 17 62 35 122 41 132 5 11 33
      31 61 45 28 14 75 49 105 76 58 56 99 129 108 198 4 25 0 87 -9 142 -29 180
      -16 307 44 432 43 90 126 193 205 254 83 64 201 123 305 151 41 11 155 32 252
      46 97 14 228 38 290 54 249 65 444 165 644 331 44 38 168 159 275 271 236 247
      299 307 398 382 68 52 226 139 291 162 20 7 11 10 -42 12 -38 2 -68 8 -68 12
      0 12 161 31 260 31 67 0 81 3 72 12 -8 8 -53 14 -126 16 -133 5 -221 -11 -390
      -68 -62 -21 -131 -41 -152 -45 -31 -4 -34 -3 -16 5 12 5 48 27 80 48 106 73
      161 94 284 112 127 19 316 -14 446 -78 49 -24 54 -24 69 -9 9 9 15 18 12 20
      -15 10 -94 43 -154 64 -122 41 -297 63 -380 47z m-2608 -1700 c-32 -8 -100
      -35 -150 -61 -74 -38 -110 -65 -183 -138 -79 -78 -98 -104 -137 -185 -24 -52
      -57 -140 -72 -195 -37 -139 -86 -234 -155 -305 -70 -70 -166 -120 -300 -156
      -119 -31 -206 -71 -258 -118 l-41 -37 11 38 c19 70 71 153 130 208 40 37 92
      71 161 104 56 27 123 68 149 91 48 42 71 83 171 302 48 103 102 181 179 254
      113 109 221 167 368 198 36 8 92 14 125 14 l60 0 -58 -14z m-610 -1736 c11
      -62 11 -63 -15 -86 -31 -26 -132 -76 -139 -68 -3 2 -2 26 2 53 9 65 53 145 85
      154 53 15 56 12 67 -53z M4927 3816 c-54 -33 -84 -63 -128 -128 -21 -31 -52
      -62 -69 -69 -16 -8 -30 -17 -30 -21 0 -14 55 -9 77 7 12 8 42 43 66 78 25 35
      58 72 73 82 l27 17 -7 -38 c-4 -22 -18 -59 -32 -83 -13 -24 -22 -46 -19 -49
      10 -10 52 28 65 57 7 17 18 31 24 31 6 0 28 11 49 25 20 14 37 23 37 20 0 -10
      -32 -69 -51 -94 -11 -13 -19 -19 -19 -12 0 6 -7 11 -15 11 -8 0 -15 -4 -15 -9
      0 -5 36 -76 79 -158 59 -111 84 -170 100 -235 11 -48 41 -158 66 -244 25 -86
      45 -169 45 -186 0 -16 -5 -39 -11 -51 -15 -28 -50 -67 -61 -67 -11 0 -10 87 1
      94 5 4 11 1 13 -6 2 -6 10 -8 16 -4 14 9 16 52 2 61 -16 10 -49 -13 -66 -47
      -11 -22 -14 -45 -10 -75 5 -39 4 -43 -15 -43 -18 0 -19 -2 -9 -15 18 -22 62
      -18 101 8 45 30 79 92 79 143 0 23 -25 128 -55 234 -30 106 -59 217 -64 246
      -6 29 -30 88 -54 131 -25 43 -56 102 -71 130 l-26 53 35 45 c40 53 82 175 59
      175 -3 0 -23 -13 -43 -28 -20 -15 -49 -36 -65 -46 l-29 -18 7 26 c3 14 9 37
      12 51 5 20 2 25 -12 25 -11 0 -36 -11 -57 -24z M4910 3371 c0 -16 74 -71 95
      -71 12 0 30 -7 41 -15 10 -8 25 -15 33 -15 9 0 11 8 7 28 -4 15 -14 33 -23 40
      -9 6 -33 12 -52 12 -20 1 -47 7 -61 15 -30 17 -40 18 -40 6z M3553 3166 c-56
      -18 -104 -49 -177 -114 -34 -30 -78 -63 -100 -74 -21 -11 -64 -25 -96 -31 -31
      -7 -56 -16 -56 -22 1 -17 108 -11 158 8 30 12 80 48 135 99 49 44 109 91 135
      104 26 13 49 28 53 34 8 13 1 12 -52 -4z M1461 1897 c-17 -21 -40 -93 -63
      -197 -11 -52 -33 -128 -50 -169 -33 -84 -99 -190 -167 -270 -118 -138 -279
      -237 -458 -282 -50 -13 -89 -27 -87 -31 9 -14 89 -9 166 11 128 33 227 91 342
      200 117 112 203 238 252 367 13 36 35 127 49 202 13 75 27 147 31 160 7 25 2
      28 -15 9z"/>
    </g>
    <g opacity="0.50000000" transform="translate(0,430) scale(0.100000,-0.100000)">
      <path d="M4207 3835 c-83 -17 -160 -51 -241 -108 -33 -24 -74 -48 -89 -55 -38
      -16 -106 -15 -157 3 -23 8 -47 15 -53 15 -6 0 2 -14 18 -30 35 -36 107 -60
      184 -60 l56 0 -50 -32 c-135 -85 -275 -127 -384 -114 -31 4 -85 20 -120 36
      -35 17 -66 28 -68 26 -10 -10 20 -47 60 -75 44 -30 160 -81 184 -81 7 0 13 -4
      13 -10 0 -5 -8 -10 -17 -10 -37 -1 -134 -49 -195 -97 -101 -81 -120 -88 -220
      -87 -49 1 -88 -2 -88 -7 0 -4 20 -15 45 -25 32 -12 61 -15 99 -11 62 6 115 31
      176 82 23 20 62 47 85 60 23 14 93 38 157 54 132 34 188 55 188 72 0 7 -7 8
      -17 4 -41 -17 -134 -17 -210 1 l-78 18 85 6 c47 4 103 13 125 20 59 19 141 60
      241 121 105 63 236 119 282 119 17 0 32 -3 32 -7 0 -5 -35 -27 -78 -51 -42
      -23 -108 -66 -147 -94 -38 -29 -144 -129 -235 -222 -311 -321 -386 -393 -496
      -475 -124 -92 -284 -176 -424 -221 -103 -34 -266 -67 -483 -99 -76 -12 -181
      -35 -234 -53 -53 -17 -133 -54 -179 -82 -46 -28 -110 -76 -142 -107 l-58 -57
      -100 0 c-157 0 -290 -39 -427 -128 -165 -107 -266 -240 -357 -469 -16 -41 -41
      -92 -54 -113 -37 -59 -94 -104 -196 -154 -52 -26 -122 -68 -154 -95 -65 -53
      -127 -146 -152 -228 -20 -65 -31 -195 -16 -195 5 0 22 20 35 43 34 57 97 114
      161 143 28 12 100 37 161 55 60 17 141 47 180 66 92 47 201 156 243 244 17 35
      47 120 67 189 20 69 54 159 76 201 22 41 62 101 91 133 28 32 82 80 121 107
      64 45 206 109 242 109 12 0 10 -8 -9 -37 -34 -53 -74 -176 -82 -257 -5 -45 -1
      -117 11 -215 18 -142 18 -149 0 -204 -23 -74 -84 -143 -164 -186 -33 -17 -69
      -43 -81 -58 -11 -14 -27 -51 -36 -82 -42 -155 -58 -202 -91 -271 -25 -52 -54
      -92 -94 -131 -59 -57 -79 -91 -79 -135 0 -22 -4 -24 -47 -24 -71 0 -108 -27
      -144 -104 -20 -44 -32 -87 -36 -135 l-6 -71 30 0 c17 0 67 18 111 40 58 29 98
      59 144 106 35 36 75 72 90 80 68 36 100 78 164 212 35 73 83 161 108 195 51
      72 156 175 241 238 34 24 130 87 214 139 84 52 180 120 214 150 54 49 119 137
      169 228 36 67 188 133 371 162 67 11 208 29 312 40 220 23 348 48 478 91 106
      36 240 101 311 152 44 32 54 35 95 30 78 -9 170 32 426 192 127 79 236 135
      264 135 20 0 22 -4 16 -32 -11 -52 -57 -129 -93 -157 -39 -30 -62 -70 -62
      -106 0 -14 -1 -25 -3 -25 -1 0 -17 4 -36 10 -49 14 -91 -7 -128 -66 -36 -57
      -63 -132 -63 -174 0 -27 3 -30 30 -30 39 0 143 35 195 65 22 14 54 38 70 56
      17 17 51 42 77 55 25 13 55 35 66 49 12 15 35 72 52 128 18 56 54 144 81 196
      28 54 49 106 49 125 0 17 -8 47 -18 66 -20 40 -74 80 -109 80 -13 0 -86 -15
      -161 -34 -75 -19 -155 -37 -176 -41 -34 -6 -38 -4 -28 8 6 7 19 34 28 58 12
      32 17 85 18 194 2 125 6 160 24 210 12 33 35 78 50 100 33 47 95 91 140 99 31
      5 32 5 32 -30 0 -77 59 -158 149 -204 34 -17 84 -57 129 -103 70 -73 72 -76
      72 -125 0 -44 4 -54 31 -76 17 -14 34 -26 39 -26 5 0 15 -3 24 -6 10 -4 16 -1
      16 9 0 8 -16 24 -35 36 -33 19 -35 24 -35 70 0 42 -5 57 -32 88 -74 88 -126
      136 -181 165 -32 17 -71 46 -87 64 -16 19 -34 52 -40 75 -13 46 -6 87 21 141
      10 20 15 39 10 43 -5 3 -25 -13 -44 -35 -22 -26 -42 -40 -58 -40 -41 0 -122
      -45 -161 -88 -20 -23 -46 -59 -58 -81 -32 -64 -52 -166 -48 -253 3 -76 3 -77
      -17 -59 -11 10 -36 27 -55 37 -47 24 -151 24 -213 0 -26 -10 -45 -21 -42 -26
      2 -4 45 -5 95 -2 71 4 100 1 136 -13 53 -20 84 -62 84 -115 0 -19 -11 -55 -23
      -80 -17 -32 -32 -47 -53 -52 -16 -4 -47 -12 -70 -18 -81 -20 -174 -103 -174
      -155 0 -13 13 -6 48 28 27 24 64 52 81 62 18 9 88 27 155 40 66 13 177 37 246
      54 69 17 140 31 158 31 22 0 41 -8 57 -25 39 -38 34 -87 -20 -191 -24 -48 -58
      -130 -76 -183 -17 -53 -38 -106 -45 -118 -8 -13 -33 -32 -57 -44 -23 -12 -60
      -38 -82 -60 -41 -39 -127 -84 -183 -95 -20 -4 -32 -3 -32 4 0 26 43 122 65
      146 21 23 31 26 75 24 48 -3 50 -4 50 -33 l0 -29 21 21 c22 22 27 52 15 95 -7
      24 -1 33 44 79 56 56 110 155 110 202 0 15 -9 36 -21 48 -37 37 -79 19 -369
      -154 -102 -61 -211 -121 -242 -134 -32 -13 -75 -23 -96 -23 -20 0 -48 7 -61
      16 -12 9 -41 54 -63 100 -21 46 -53 95 -69 109 -36 30 -76 42 -91 27 -7 -7 -2
      -15 18 -25 45 -23 72 -57 99 -126 15 -35 34 -75 43 -89 16 -24 15 -25 -13 -48
      -42 -34 -187 -107 -270 -137 -98 -35 -276 -73 -425 -91 -69 -8 -186 -22 -260
      -31 -74 -9 -173 -25 -220 -36 -47 -11 -120 -37 -163 -57 -42 -21 -77 -36 -77
      -35 0 2 23 54 51 115 32 70 47 114 41 120 -14 14 -54 -42 -98 -137 -118 -257
      -134 -285 -203 -358 -49 -51 -105 -94 -190 -147 -205 -127 -333 -220 -411
      -299 -42 -42 -97 -108 -123 -148 -26 -39 -68 -118 -93 -174 -25 -57 -55 -116
      -66 -131 -10 -15 -38 -39 -61 -52 -23 -14 -58 -41 -77 -61 -30 -31 -35 -33
      -42 -18 -3 10 -7 32 -7 48 -1 20 6 34 19 43 14 8 20 23 20 49 0 31 9 46 65
      104 48 49 76 91 105 151 21 46 53 135 70 197 17 62 35 122 41 132 5 11 35 32
      67 48 72 37 149 112 178 175 13 28 26 73 29 100 4 30 0 91 -9 146 -20 119 -20
      217 -1 298 17 70 57 157 106 229 68 99 190 198 314 254 88 39 191 64 393 94
      305 45 492 103 685 213 54 31 144 93 200 137 58 47 214 197 361 349 155 160
      294 293 345 332 78 59 201 128 291 164 l35 14 -62 4 c-35 1 -63 7 -63 11 0 13
      61 21 203 28 70 3 124 10 119 15 -4 4 -42 12 -83 17 -47 6 -103 6 -154 0 -97
      -12 -126 -19 -280 -69 -184 -59 -191 -59 -100 1 90 59 157 90 229 108 27 7 99
      12 160 12 126 -1 228 -23 339 -73 63 -29 69 -30 84 -15 9 9 15 18 12 20 -2 2
      -42 20 -89 40 -104 44 -263 77 -362 76 -40 0 -104 -7 -141 -14z m-2555 -1691
      c-124 -33 -248 -110 -349 -217 -89 -94 -140 -192 -184 -349 -17 -62 -42 -137
      -56 -165 -33 -70 -93 -150 -146 -191 -23 -19 -63 -45 -88 -58 -26 -12 -102
      -39 -169 -59 -67 -20 -145 -47 -172 -61 -27 -14 -66 -41 -88 -60 l-39 -35 11
      38 c19 70 60 137 122 198 46 46 85 73 161 109 55 26 119 64 142 83 24 19 56
      53 72 76 15 23 51 95 78 159 28 65 66 143 84 174 48 81 159 196 239 249 38 26
      96 57 128 70 75 31 182 53 252 54 l55 0 -53 -15z m-600 -1806 c-4 -11 -79 -54
      -126 -73 l-39 -16 7 48 c9 66 52 152 79 158 63 13 61 14 72 -50 6 -33 9 -63 7
      -67z M4919 3811 c-52 -34 -97 -80 -132 -137 -14 -23 -40 -48 -56 -55 -36 -16
      -36 -35 0 -31 36 5 69 32 114 95 22 31 53 66 69 79 l29 22 -7 -40 c-4 -21 -18
      -59 -32 -83 -13 -24 -22 -46 -19 -49 9 -9 52 27 64 55 8 18 29 36 59 50 25 12
      47 21 49 19 2 -1 -10 -23 -26 -48 -23 -37 -34 -45 -50 -41 -12 3 -21 1 -21 -5
      0 -5 35 -77 79 -158 55 -105 83 -171 95 -224 10 -41 39 -151 67 -245 27 -93
      49 -182 49 -198 0 -16 -5 -38 -11 -50 -15 -28 -50 -67 -61 -67 -9 0 -11 61 -2
      85 5 13 8 14 15 3 6 -9 11 -10 19 -2 14 14 9 56 -6 61 -7 2 -25 -7 -40 -21
      -26 -22 -29 -30 -29 -85 1 -53 -2 -61 -18 -61 -16 0 -17 -3 -7 -15 7 -8 27
      -15 44 -15 39 0 97 45 120 94 9 19 16 54 16 78 0 25 -22 121 -50 214 -27 93
      -56 202 -64 241 -11 52 -36 110 -86 203 l-70 131 30 38 c17 21 39 61 50 89 20
      52 26 92 14 92 -3 0 -23 -13 -43 -28 -20 -15 -49 -36 -65 -46 l-29 -18 7 26
      c3 14 9 37 12 51 5 20 2 25 -13 25 -10 0 -39 -13 -64 -29z M4910 3372 c0 -15
      68 -72 86 -72 9 0 31 -7 50 -16 19 -9 37 -14 40 -11 4 3 2 18 -3 34 -10 28
      -16 31 -98 51 -22 5 -48 13 -57 17 -10 4 -18 3 -18 -3z M3555 3166 c-64 -20
      -95 -40 -170 -106 -38 -35 -93 -74 -122 -87 -28 -13 -74 -26 -103 -30 -30 -3
      -49 -10 -47 -17 2 -6 26 -12 54 -14 82 -5 149 27 248 118 48 43 111 91 141
      107 29 15 54 31 54 36 0 9 -6 8 -55 -7z M1462 1897 c-17 -20 -41 -92 -58 -172
      -29 -140 -80 -266 -147 -365 -80 -118 -206 -236 -318 -299 -63 -35 -170 -74
      -253 -91 -81 -17 -62 -34 28 -27 116 10 241 62 347 143 89 68 209 204 267 300
      29 49 64 124 78 168 13 43 32 124 40 180 8 56 20 116 26 134 11 37 7 50 -10
      29z"/>
    </g>
    <g opacity="1.00000000" transform="translate(0,430) scale(0.100000,-0.100000)">
      <path d="M4223 3840 c-79 -15 -158 -47 -231 -97 -98 -66 -136 -83 -184 -83
      -24 0 -64 8 -90 17 -82 29 -74 -8 10 -49 30 -14 74 -24 121 -28 l74 -5 -77
      -44 c-194 -110 -343 -127 -488 -55 -26 13 -52 24 -58 24 -6 0 -3 -12 7 -27 25
      -37 121 -97 192 -119 34 -11 61 -22 61 -25 0 -4 -15 -10 -32 -13 -53 -10 -129
      -50 -183 -95 -27 -23 -68 -52 -90 -64 -33 -17 -56 -21 -127 -20 -49 0 -88 -3
      -88 -7 0 -5 20 -16 45 -25 53 -21 133 -17 185 8 20 10 58 35 85 58 27 22 68
      51 90 65 23 13 93 37 157 53 132 34 188 55 188 72 0 7 -7 8 -17 4 -40 -17
      -132 -17 -209 1 l-79 18 90 7 c113 8 187 36 349 132 66 39 151 83 190 98 68
      27 136 38 136 22 0 -5 -30 -24 -67 -43 -146 -75 -236 -156 -618 -551 -187
      -194 -326 -302 -490 -383 -186 -91 -315 -127 -608 -171 -98 -14 -202 -33 -232
      -40 -157 -41 -306 -122 -410 -220 l-50 -48 -105 -3 c-128 -3 -234 -29 -345
      -84 -165 -83 -294 -216 -380 -395 -29 -60 -65 -139 -81 -175 -42 -95 -92 -144
      -204 -200 -52 -26 -123 -69 -158 -94 -69 -51 -128 -132 -163 -225 -23 -60 -39
      -211 -22 -211 5 0 24 22 42 50 33 52 94 106 147 133 17 9 87 32 155 52 68 20
      153 51 189 68 43 21 90 57 141 107 90 89 120 146 174 330 20 69 55 161 78 205
      74 143 228 272 386 325 35 11 66 19 68 16 3 -3 -4 -21 -16 -40 -12 -19 -33
      -67 -47 -108 -35 -101 -41 -213 -19 -362 10 -67 14 -136 11 -159 -9 -52 -49
      -126 -90 -165 -17 -17 -58 -46 -91 -64 -33 -19 -70 -49 -82 -67 -13 -19 -27
      -52 -33 -75 -28 -117 -55 -198 -87 -266 -25 -51 -54 -92 -93 -130 -31 -30 -62
      -65 -68 -77 -7 -12 -12 -35 -12 -51 0 -29 -1 -30 -62 -34 -56 -4 -65 -8 -92
      -40 -40 -47 -66 -117 -73 -201 l-6 -67 30 0 c17 0 68 19 113 41 60 30 101 60
      149 109 36 37 82 76 101 88 19 11 47 33 62 49 15 15 51 80 81 144 30 64 71
      142 92 174 47 74 130 162 222 235 39 32 136 97 215 145 78 48 161 101 183 118
      98 74 170 158 218 254 15 28 39 61 53 72 45 35 144 78 229 99 86 22 155 32
      426 62 97 10 222 28 277 40 194 39 366 107 499 198 52 35 65 40 100 35 23 -3
      63 1 94 10 52 16 173 82 364 199 161 99 255 139 255 108 0 -5 -9 -34 -21 -65
      -13 -36 -38 -73 -69 -104 -26 -26 -52 -57 -59 -69 -6 -11 -11 -32 -11 -46 0
      -23 -2 -24 -36 -14 -50 13 -88 -4 -124 -57 -39 -57 -70 -137 -70 -182 l0 -36
      48 6 c78 9 178 55 235 107 29 26 68 54 88 63 19 8 47 28 61 45 15 18 39 74 57
      130 17 54 53 142 81 196 27 54 50 112 50 128 0 39 -22 88 -52 116 -14 12 -41
      25 -60 28 -22 4 -86 -7 -184 -30 -180 -44 -194 -47 -194 -42 0 2 10 25 22 52
      19 43 22 69 23 204 2 131 6 164 24 215 40 110 106 181 181 195 l40 7 0 -34 c0
      -46 25 -101 63 -141 18 -19 57 -46 87 -62 33 -17 84 -58 128 -103 67 -69 73
      -79 71 -114 -1 -21 1 -48 5 -61 7 -22 38 -42 84 -56 36 -12 27 22 -13 45 -32
      19 -35 25 -35 69 0 38 -6 56 -27 82 -62 78 -132 141 -186 170 -32 17 -71 46
      -87 64 -16 19 -34 51 -40 73 -12 45 -5 90 22 144 11 22 16 42 13 45 -4 4 -24
      -12 -45 -35 -24 -28 -46 -43 -61 -43 -41 0 -122 -45 -163 -90 -46 -51 -82
      -126 -96 -200 -5 -29 -10 -86 -10 -127 l0 -74 -32 25 c-45 33 -112 49 -171 42
      -56 -8 -127 -34 -127 -47 0 -5 43 -6 95 -2 77 5 103 3 141 -12 52 -20 84 -62
      84 -113 0 -18 -11 -55 -25 -81 -22 -45 -28 -50 -67 -56 -24 -3 -71 -20 -106
      -37 -43 -20 -73 -43 -93 -70 -27 -39 -38 -78 -21 -78 4 0 19 16 35 35 47 59
      99 81 267 115 85 17 199 42 252 56 53 13 111 24 128 24 19 0 40 -9 55 -25 38
      -37 34 -91 -14 -179 -22 -39 -58 -125 -80 -190 -23 -66 -47 -126 -53 -133 -6
      -8 -30 -24 -52 -35 -23 -11 -59 -37 -81 -59 -41 -39 -127 -84 -183 -95 -20 -4
      -32 -3 -32 4 0 21 40 117 60 142 16 21 27 25 74 25 55 0 56 0 56 -30 l1 -30
      25 29 c20 22 24 35 18 55 -14 51 -7 72 39 115 51 47 107 153 107 203 0 22 -7
      37 -22 47 -12 9 -30 16 -38 16 -27 0 -169 -73 -310 -160 -74 -46 -175 -103
      -224 -127 -102 -49 -157 -56 -198 -24 -14 11 -37 48 -53 83 -34 79 -68 124
      -105 143 -31 16 -70 20 -70 7 0 -5 20 -22 43 -39 30 -20 51 -47 66 -79 12 -27
      33 -71 47 -97 13 -26 22 -52 19 -57 -10 -17 -138 -88 -220 -124 -90 -39 -236
      -79 -365 -101 -47 -8 -168 -24 -270 -35 -102 -11 -223 -28 -270 -36 -106 -19
      -218 -56 -270 -89 -22 -14 -40 -23 -40 -21 0 3 23 55 51 115 28 61 47 116 44
      122 -13 20 -51 -31 -100 -134 -127 -271 -133 -282 -196 -350 -63 -69 -131
      -120 -294 -217 -49 -30 -133 -87 -186 -127 -166 -125 -261 -244 -347 -437 -25
      -56 -54 -113 -64 -129 -11 -15 -33 -34 -50 -43 -17 -9 -53 -36 -79 -61 l-47
      -44 -7 41 c-6 34 -3 45 14 64 13 13 21 36 21 56 0 28 11 45 64 99 39 41 78 94
      100 139 20 40 52 128 71 195 19 67 40 132 46 144 7 12 38 36 70 53 115 61 190
      163 204 274 4 30 0 91 -9 148 -9 54 -16 126 -16 160 1 125 41 249 120 363 42
      61 123 139 195 188 70 48 184 98 275 120 36 9 130 26 210 37 80 12 187 30 237
      40 199 41 413 129 566 231 101 68 216 169 348 305 68 71 183 189 254 262 72
      74 168 162 215 198 79 59 206 131 290 164 l35 14 -62 4 c-35 1 -63 7 -63 11 0
      11 62 19 208 27 68 4 119 11 115 15 -5 5 -42 13 -82 19 -50 7 -99 7 -153 0
      -95 -12 -127 -19 -283 -70 -66 -21 -133 -41 -150 -44 l-30 -6 30 17 c17 10 59
      37 94 61 36 23 100 53 143 67 65 21 99 25 192 25 87 0 136 -6 208 -24 52 -13
      118 -36 147 -50 51 -27 91 -28 91 -3 0 16 -127 71 -225 97 -91 24 -271 34
      -352 20z m-2572 -1696 c-74 -20 -129 -45 -209 -97 -114 -74 -223 -199 -271
      -310 -11 -25 -36 -101 -56 -169 -20 -67 -52 -153 -71 -189 -46 -88 -129 -169
      -218 -213 -39 -20 -116 -48 -171 -62 -116 -30 -199 -70 -255 -120 l-39 -35 9
      33 c21 71 66 146 124 203 47 47 87 73 178 118 90 44 127 69 160 106 49 54 69
      91 127 229 22 51 54 118 73 149 47 79 158 195 236 247 37 24 95 55 129 69 55
      22 86 31 188 51 11 2 43 4 70 4 l50 1 -54 -15z m-606 -1741 c4 -32 8 -60 9
      -63 2 -7 -101 -67 -136 -79 l-31 -11 7 46 c7 53 35 122 60 147 10 9 32 17 51
      17 32 0 33 -1 40 -57z M4919 3812 c-48 -31 -105 -90 -134 -140 -10 -17 -34
      -39 -52 -49 -18 -10 -33 -21 -33 -25 0 -33 76 -4 111 42 13 17 48 57 77 89
      l54 56 -7 -40 c-4 -22 -18 -59 -32 -83 -13 -24 -22 -46 -19 -49 10 -10 57 28
      67 55 7 17 26 35 55 48 27 13 44 17 44 10 0 -6 -11 -28 -25 -48 -18 -27 -30
      -35 -45 -31 -11 3 -20 0 -20 -6 0 -6 35 -77 79 -158 43 -82 82 -164 85 -183 4
      -19 34 -132 68 -251 66 -238 68 -263 22 -319 -14 -16 -30 -30 -35 -30 -12 0
      -11 71 1 90 8 13 10 12 10 -3 0 -11 6 -17 13 -14 16 5 16 69 0 74 -7 3 -27 -9
      -44 -27 -29 -29 -31 -35 -27 -85 4 -48 2 -55 -13 -55 -12 0 -16 -5 -13 -15 4
      -10 20 -15 45 -15 28 0 47 8 73 30 18 17 41 45 50 64 9 19 16 54 16 78 0 24
      -20 114 -45 199 -25 85 -55 193 -65 241 -15 66 -37 120 -90 219 l-70 130 30
      38 c17 21 39 61 50 89 20 52 26 92 14 92 -3 0 -23 -13 -43 -28 -20 -15 -49
      -36 -65 -46 l-29 -18 7 26 c3 14 9 37 12 51 5 20 2 25 -13 25 -10 0 -39 -13
      -64 -28z M4910 3372 c0 -18 68 -70 101 -77 19 -4 41 -12 51 -18 9 -6 20 -8 24
      -4 4 4 3 20 -2 35 -9 26 -17 30 -99 50 -22 5 -48 13 -57 17 -10 4 -18 3 -18
      -3z M3560 3171 c-53 -16 -108 -51 -175 -111 -38 -35 -93 -74 -122 -87 -28 -13
      -74 -26 -103 -30 -76 -9 -58 -28 26 -27 50 0 80 6 111 22 24 12 80 56 125 98
      46 41 107 86 136 101 69 34 71 55 2 34z M1441 1858 c-11 -29 -30 -93 -40 -143
      -25 -116 -52 -192 -97 -274 -48 -88 -105 -163 -182 -239 -119 -116 -233 -180
      -404 -222 -106 -27 -107 -45 -4 -37 87 6 214 51 293 104 32 21 93 71 136 112
      134 128 223 263 266 406 12 38 30 121 41 185 10 63 22 125 26 138 3 12 2 22
      -4 22 -5 0 -19 -24 -31 -52z"/>
    </g>
  </g>
</svg>
