<?xml version="1.0" encoding="UTF-8"?>
<svg xmlns="http://www.w3.org/2000/svg" viewBox="0 0 980 190" width="980" height="190" fill="none">
  <title>Layered spline reconstruction</title>
  <g fill="#f1ead8" stroke="none">
    <g opacity="0.12500000" transform="translate(0,190) scale(0.100000,-0.100000)">
      <path d="M2665 1631 c-61 -22 -87 -35 -143 -73 l-42 -29 -66 32 c-36 17 -110
      40 -163 51 -80 17 -121 19 -241 15 -109 -4 -170 -12 -245 -31 -113 -28 -179
      -52 -268 -98 -115 -57 -202 -120 -293 -212 -73 -73 -99 -109 -133 -177 -30
      -61 -44 -103 -48 -145 -3 -33 0 -79 7 -104 16 -59 80 -123 140 -141 25 -8 90
      -14 145 -14 76 0 118 6 175 24 154 48 285 133 387 252 28 34 66 91 84 127 27
      54 33 79 34 130 0 59 -2 66 -32 92 -18 16 -49 32 -70 36 -62 12 -160 -11 -258
      -60 -96 -49 -189 -121 -261 -206 -48 -56 -99 -138 -92 -146 3 -2 21 20 41 50
      53 80 165 187 252 241 87 54 181 92 240 95 81 5 106 0 132 -26 22 -22 25 -32
      21 -69 -3 -24 -15 -63 -27 -87 -27 -55 -100 -140 -185 -215 -168 -150 -397
      -236 -541 -203 -64 14 -120 51 -141 92 -24 46 -21 139 6 211 28 73 122 200
      197 264 122 105 275 191 421 237 136 43 259 59 407 53 103 -4 147 -10 212 -31
      44 -15 91 -34 103 -44 l22 -18 -56 -43 c-104 -80 -268 -264 -430 -481 -258
      -346 -374 -477 -516 -581 -49 -37 -146 -84 -209 -103 -61 -18 -187 -21 -242
      -6 -41 12 -89 51 -89 74 0 12 7 14 29 10 21 -5 34 0 50 17 11 12 21 31 21 40
      0 10 -12 27 -27 38 -30 24 -55 21 -90 -12 -17 -15 -23 -32 -23 -62 0 -52 26
      -87 83 -117 32 -16 66 -22 142 -26 81 -4 118 0 185 17 100 25 206 73 304 139
      86 57 231 200 307 302 31 41 116 163 189 270 160 235 242 342 333 435 l68 70
      29 -32 c16 -18 34 -49 39 -70 17 -59 13 -144 -9 -209 -44 -126 -163 -264 -277
      -321 -52 -25 -69 -28 -155 -28 -54 0 -98 -3 -98 -6 0 -11 49 -28 97 -34 65 -9
      183 17 263 57 37 19 92 59 127 94 45 44 73 83 100 139 29 63 37 92 41 154 3
      61 0 87 -17 132 -12 32 -40 78 -62 103 l-41 46 24 20 c12 11 60 38 106 61 45
      23 82 45 82 50 0 5 -1 9 -2 9 -2 -1 -26 -9 -53 -19z M5632 1479 c-78 -13 -194
      -54 -260 -91 -74 -42 -157 -125 -185 -185 -15 -33 -21 -68 -22 -114 0 -55 4
      -72 28 -108 15 -23 48 -55 72 -70 25 -16 73 -34 107 -41 35 -6 71 -14 80 -17
      14 -3 7 -18 -36 -82 -30 -43 -64 -105 -76 -137 -12 -32 -25 -89 -28 -127 -6
      -85 14 -142 68 -191 21 -19 58 -40 82 -47 95 -25 265 11 385 83 84 50 197 160
      227 220 32 64 35 129 7 157 -11 11 -38 25 -61 31 -32 9 -53 8 -102 -5 -33 -8
      -87 -29 -120 -47 -94 -50 -227 -183 -277 -275 -20 -38 6 -26 30 14 13 21 44
      60 69 87 101 109 242 193 342 203 44 4 57 2 81 -17 32 -25 35 -64 10 -118 -25
      -53 -126 -156 -205 -209 -140 -93 -310 -128 -398 -83 -56 29 -75 62 -73 130 1
      39 10 76 31 122 35 76 73 135 150 229 l54 66 68 7 c88 8 275 57 403 105 191
      71 337 155 444 255 62 57 103 123 103 165 0 12 -14 36 -31 53 -30 31 -30 31
      -117 25 -48 -3 -116 -15 -152 -27 -36 -12 -107 -41 -158 -65 -192 -91 -376
      -218 -570 -394 l-114 -103 -50 6 c-143 19 -238 97 -238 195 0 15 14 55 31 89
      38 76 115 147 219 201 41 22 109 50 150 62 59 17 111 22 239 26 120 4 159 8
      146 16 -25 13 -286 18 -353 6z m939 -49 c29 -16 25 -69 -9 -116 -82 -113 -324
      -260 -565 -343 -114 -39 -286 -81 -329 -81 -19 1 -7 16 65 86 104 100 239 209
      355 288 98 66 224 132 302 157 62 20 151 24 181 9z M9163 1263 c-29 -14 -92
      -61 -141 -104 -105 -91 -234 -232 -412 -449 -70 -85 -149 -175 -176 -200 -72
      -67 -184 -155 -221 -174 -39 -19 -73 -21 -73 -3 0 7 13 33 28 58 30 47 218
      279 236 291 13 9 5 10 -49 8 -32 -1 -46 -8 -67 -33 -24 -29 -27 -30 -28 -11 0
      11 -8 28 -18 37 -31 28 -91 21 -172 -19 -52 -26 -99 -62 -169 -130 -144 -139
      -221 -195 -297 -218 -13 -4 -26 -1 -32 7 -17 21 15 74 147 236 64 80 121 151
      127 160 7 9 32 15 75 16 80 3 79 3 79 15 0 6 -25 10 -55 10 -30 0 -55 3 -55 7
      0 3 34 46 75 95 l75 88 -48 0 -48 0 -77 -94 -77 -95 -57 -3 c-70 -4 -84 -25
      -19 -30 l46 -3 -79 -95 c-44 -52 -123 -132 -178 -178 -110 -93 -216 -153 -236
      -133 -19 19 20 80 149 233 l114 138 -48 0 c-47 0 -50 -1 -99 -63 -65 -79 -137
      -147 -233 -220 -80 -59 -163 -102 -180 -92 -6 3 -10 12 -10 19 0 7 39 57 86
      112 91 105 124 158 124 198 0 13 -7 32 -16 40 -8 9 -30 16 -48 16 -45 0 -144
      -52 -204 -106 -28 -24 -53 -44 -57 -44 -3 0 12 21 34 48 65 75 259 327 256
      330 -2 2 -19 0 -39 -4 -32 -5 -52 -24 -135 -123 -116 -136 -284 -302 -394
      -390 -88 -69 -126 -91 -157 -91 -48 0 -16 55 153 260 l87 105 -42 3 c-37 3
      -46 -1 -70 -27 -23 -26 -28 -28 -28 -13 0 11 -9 27 -20 37 -15 13 -31 16 -67
      13 -27 -3 -75 -18 -108 -34 -73 -36 -193 -146 -223 -207 -29 -58 -30 -129 -2
      -157 11 -11 32 -20 47 -20 36 0 100 32 150 75 23 19 43 35 45 35 2 0 2 -17 0
      -38 -3 -28 1 -42 17 -56 15 -14 29 -17 55 -12 49 9 165 89 271 188 l89 83
      -129 -155 c-240 -288 -311 -375 -319 -387 -5 -10 4 -13 36 -13 l43 0 175 211
      c96 116 209 244 253 284 43 40 110 94 148 120 67 45 131 67 142 48 8 -13 -17
      -48 -104 -147 -78 -87 -109 -137 -109 -175 0 -28 34 -61 63 -61 47 1 159 65
      240 139 l39 36 -21 -40 c-11 -22 -21 -54 -21 -72 0 -43 36 -68 83 -59 43 8
      141 67 210 126 38 33 48 38 35 19 -9 -14 -19 -41 -23 -60 -5 -27 -1 -41 16
      -63 19 -24 27 -28 60 -23 56 7 116 39 192 102 63 52 67 54 60 28 -4 -15 -8
      -43 -7 -62 1 -46 36 -75 82 -67 35 5 95 39 147 81 l31 24 -4 -33 c-3 -25 2
      -40 17 -55 12 -12 31 -21 43 -21 37 0 100 37 191 110 85 69 86 69 71 34 -8
      -20 -14 -54 -12 -77 2 -32 9 -45 29 -56 35 -19 81 -9 158 37 73 42 224 179
      215 194 -4 5 -25 -8 -48 -30 -63 -60 -152 -130 -196 -152 -22 -11 -53 -20 -70
      -20 -25 0 -30 4 -30 24 0 27 71 138 157 246 48 60 83 91 176 153 203 135 368
      277 451 388 53 71 65 112 40 140 -9 10 -27 19 -38 19 -12 -1 -44 -12 -73 -27z
      m93 -17 c23 -59 -216 -296 -471 -469 -33 -22 -53 -32 -45 -21 8 10 68 84 135
      164 219 263 359 383 381 326z m-2778 -603 c5 -34 -31 -94 -107 -175 -73 -78
      -162 -145 -196 -149 -37 -3 -45 1 -45 24 0 35 52 116 124 194 83 89 150 135
      191 131 22 -2 31 -9 33 -25z m1750 -7 c3 -20 -7 -44 -33 -82 -43 -63 -180
      -196 -225 -219 -17 -9 -43 -15 -58 -13 -22 2 -26 7 -24 28 5 42 63 128 142
      209 41 42 91 84 110 94 19 9 46 16 60 15 19 -2 26 -9 28 -32z M4692 1249
      c-100 -50 -328 -279 -531 -534 -36 -44 -87 -104 -115 -133 -58 -61 -233 -209
      -286 -241 -42 -25 -90 -28 -90 -5 0 22 55 101 164 234 l94 115 -41 3 c-36 3
      -46 -1 -69 -27 -30 -34 -40 -39 -32 -17 3 8 -4 24 -16 36 -19 19 -31 22 -74
      18 -79 -7 -158 -52 -265 -152 -175 -162 -316 -255 -345 -226 -14 14 5 45 81
      131 36 41 76 98 90 127 22 47 23 57 13 83 -7 17 -23 32 -37 35 -13 4 -44 -1
      -68 -11 -47 -17 -146 -86 -179 -123 -11 -12 -22 -22 -26 -22 -5 0 1 17 11 37
      10 21 19 47 19 58 0 29 -28 65 -51 65 -46 0 -98 -37 -224 -160 -160 -154 -245
      -220 -286 -220 -17 0 -29 5 -29 13 0 22 51 95 158 227 56 69 102 127 102 130
      0 3 -20 4 -45 2 -35 -3 -50 -11 -70 -34 -22 -26 -25 -27 -25 -9 0 27 -37 51
      -77 51 -69 0 -192 -67 -269 -147 -25 -27 -57 -69 -70 -95 -31 -60 -32 -130 -4
      -158 11 -11 31 -20 45 -20 33 0 114 41 158 80 19 16 37 30 39 30 2 0 2 -16 0
      -35 -5 -44 19 -75 58 -75 58 0 132 52 290 205 85 83 173 159 194 169 49 23 64
      11 42 -33 -9 -17 -73 -99 -141 -181 l-125 -150 47 0 c47 0 49 1 116 78 38 42
      110 114 160 160 97 87 209 154 228 135 15 -15 -2 -44 -83 -138 -76 -87 -108
      -140 -108 -180 0 -33 33 -65 69 -65 47 0 147 60 240 144 25 23 32 26 25 11 -5
      -11 -9 -42 -9 -68 0 -39 5 -53 24 -68 13 -10 34 -19 47 -19 38 0 95 27 146 71
      26 21 48 39 50 39 2 0 2 -18 0 -39 -3 -33 0 -42 22 -56 18 -12 36 -15 60 -11
      44 8 133 67 229 150 l77 67 -25 -53 c-33 -70 -32 -112 1 -145 23 -23 31 -25
      74 -20 55 7 112 33 185 85 68 49 186 163 179 173 -3 5 -41 -23 -86 -62 -97
      -85 -187 -145 -241 -160 -73 -20 -90 6 -55 83 14 29 62 103 108 163 79 105 88
      114 212 195 153 100 291 211 370 300 60 65 98 131 98 167 0 26 -25 53 -49 53
      -10 0 -45 -14 -79 -31z m98 -24 c0 -52 -85 -155 -223 -270 -101 -85 -277 -212
      -277 -200 0 11 216 268 304 361 83 89 154 138 182 127 8 -3 14 -11 14 -18z
      m-2302 -582 c6 -38 -39 -106 -127 -194 -88 -89 -150 -129 -197 -129 -25 0 -26
      2 -20 33 13 69 144 227 241 292 49 32 98 32 103 -2z m1265 6 c18 -29 -30 -106
      -127 -204 -98 -99 -175 -147 -205 -128 -25 16 -16 60 25 122 46 69 167 190
      214 214 41 20 79 19 93 -4z M7602 905 c-25 -31 -18 -63 14 -71 41 -10 83 40
      64 76 -15 28 -54 25 -78 -5z"/>
    </g>
    <g opacity="0.14285714" transform="translate(0,190) scale(0.100000,-0.100000)">
      <path d="M2646 1625 c-32 -13 -83 -40 -113 -60 l-54 -36 -65 32 c-91 43 -225
      69 -360 69 -191 0 -371 -41 -543 -125 -51 -25 -127 -69 -168 -97 -40 -28 -109
      -89 -153 -135 -57 -60 -91 -107 -120 -167 -29 -58 -43 -100 -47 -142 -3 -33 0
      -79 7 -104 15 -56 80 -123 135 -140 72 -21 176 -24 266 -6 105 22 243 86 329
      154 134 107 227 249 237 362 6 57 4 61 -29 94 -22 22 -49 37 -74 42 -138 26
      -385 -102 -525 -270 -45 -56 -94 -134 -87 -142 3 -2 21 20 41 50 52 79 167
      188 254 242 104 66 187 94 274 94 62 0 73 -3 96 -26 22 -22 25 -32 21 -69 -3
      -24 -15 -64 -28 -90 -27 -56 -159 -197 -243 -261 -87 -66 -227 -131 -321 -150
      -64 -13 -91 -14 -144 -6 -75 13 -134 48 -158 94 -24 46 -22 139 5 207 66 164
      234 326 451 436 262 132 600 163 832 76 86 -33 88 -41 23 -91 -104 -80 -266
      -262 -440 -495 -96 -127 -217 -281 -269 -341 -159 -184 -293 -283 -445 -328
      -64 -19 -187 -21 -243 -4 -41 12 -88 52 -88 74 0 10 9 12 29 8 22 -5 34 -1 51
      16 11 11 20 31 18 42 -4 30 -50 62 -77 53 -38 -12 -61 -46 -61 -91 0 -50 26
      -86 83 -116 32 -16 66 -22 142 -26 81 -4 118 0 185 17 151 38 304 123 432 240
      92 84 193 213 348 441 174 256 259 368 347 459 l72 75 25 -23 c33 -31 56 -101
      56 -171 0 -31 -9 -83 -20 -116 -44 -126 -163 -264 -277 -321 -52 -25 -69 -28
      -155 -28 -54 0 -98 -3 -98 -6 0 -11 49 -28 97 -34 63 -9 181 17 258 55 116 57
      215 167 256 287 25 74 25 167 -1 237 -12 29 -39 75 -61 100 l-41 46 24 20 c12
      11 60 38 106 61 45 23 82 45 82 50 0 5 -3 9 -7 9 -5 0 -34 -11 -67 -25z M5632
      1479 c-78 -13 -199 -56 -262 -92 -30 -17 -80 -57 -111 -88 -72 -73 -104 -148
      -96 -228 7 -66 43 -122 102 -160 25 -16 73 -34 107 -41 35 -6 70 -14 79 -16
      13 -4 6 -20 -36 -83 -29 -44 -63 -105 -75 -138 -12 -32 -25 -91 -28 -130 -4
      -64 -1 -79 21 -125 31 -62 87 -104 155 -114 116 -17 276 28 398 115 86 60 169
      147 194 203 11 24 20 62 20 86 0 33 -6 48 -25 66 -28 27 -77 37 -132 29 -21
      -3 -76 -23 -123 -45 -70 -34 -100 -56 -175 -132 -49 -50 -100 -110 -113 -133
      -13 -24 -19 -43 -14 -43 5 0 26 25 47 56 47 68 144 157 220 203 70 42 148 70
      196 71 49 0 89 -32 89 -72 0 -46 -28 -95 -93 -165 -109 -116 -265 -199 -398
      -210 -52 -4 -80 -2 -114 11 -48 19 -79 53 -89 101 -8 39 17 134 54 204 33 61
      95 146 152 210 28 32 44 41 68 41 55 0 227 39 353 81 149 48 322 130 421 199
      124 86 206 186 206 250 0 12 -13 35 -29 51 -26 26 -36 29 -93 29 -35 0 -100
      -9 -144 -20 -43 -12 -137 -49 -209 -85 -210 -103 -373 -217 -568 -397 l-98
      -90 -50 6 c-82 11 -154 43 -193 86 -19 21 -38 54 -41 73 -14 71 34 168 117
      242 59 52 201 125 293 151 40 11 110 18 215 20 85 2 160 4 165 4 6 0 1 6 -10
      12 -25 15 -281 20 -353 7z m939 -49 c29 -16 25 -69 -9 -116 -82 -113 -325
      -260 -568 -344 -106 -37 -285 -80 -330 -80 -14 0 -9 10 21 41 67 69 255 228
      356 300 111 79 243 152 337 185 71 25 160 31 193 14z M9164 1264 c-97 -51
      -228 -173 -399 -369 -66 -77 -158 -185 -202 -241 -99 -122 -268 -276 -350
      -318 -38 -19 -73 -21 -73 -3 0 6 10 28 21 47 26 42 168 220 217 273 20 20 32
      37 27 38 -6 1 -28 0 -50 -1 -32 -1 -46 -8 -67 -33 -24 -29 -27 -30 -28 -11 0
      11 -8 28 -18 37 -31 28 -91 21 -171 -19 -52 -26 -102 -64 -179 -138 -121 -115
      -189 -167 -257 -197 -40 -18 -49 -19 -61 -7 -11 11 -9 21 14 60 15 26 81 115
      147 198 l120 150 57 0 c31 0 63 3 72 6 33 13 14 24 -39 24 -30 0 -55 3 -55 7
      0 3 33 45 74 94 41 48 73 89 71 91 -3 2 -25 2 -49 -2 -43 -5 -50 -10 -121 -97
      l-75 -92 -57 -3 c-70 -4 -84 -26 -19 -30 l46 -3 -80 -95 c-150 -178 -364 -339
      -411 -310 -12 8 -10 16 9 52 13 24 74 104 137 180 62 75 112 138 110 140 -3 2
      -24 2 -49 -2 -40 -5 -50 -12 -113 -85 -85 -98 -237 -225 -320 -266 -60 -30
      -83 -31 -83 -5 0 7 39 57 86 112 91 105 124 158 124 198 0 13 -7 32 -16 40 -8
      9 -30 16 -48 16 -45 0 -144 -52 -204 -106 -54 -48 -80 -60 -41 -18 34 36 278
      348 274 352 -1 1 -20 0 -41 -4 -34 -5 -47 -17 -99 -82 -33 -41 -111 -128 -173
      -193 -177 -185 -356 -329 -408 -329 -53 0 -24 49 154 265 45 55 82 102 82 105
      0 3 -20 4 -45 2 -35 -3 -50 -11 -70 -34 -21 -25 -25 -26 -25 -10 0 29 -32 52
      -73 52 -43 0 -123 -30 -175 -65 -61 -41 -150 -135 -172 -179 -27 -56 -27 -129
      0 -156 11 -11 32 -20 47 -20 36 0 100 32 151 76 l42 36 0 -40 c0 -42 23 -72
      56 -72 54 1 170 79 303 205 59 55 29 15 -145 -193 -120 -145 -223 -270 -227
      -278 -6 -11 1 -14 35 -14 l43 0 174 211 c171 206 266 305 366 379 89 66 164
      96 179 71 7 -10 -23 -49 -122 -163 -79 -91 -103 -142 -84 -183 6 -13 22 -27
      36 -31 14 -3 41 -1 60 6 44 14 142 77 196 126 l42 39 -21 -40 c-11 -22 -21
      -54 -21 -72 0 -43 36 -68 83 -59 43 8 141 67 210 126 36 31 47 37 36 20 -39
      -61 -31 -134 16 -146 14 -3 46 -1 71 6 47 13 137 71 191 123 l32 30 -10 -37
      c-21 -78 18 -134 84 -122 31 6 89 39 147 85 l26 20 -4 -34 c-3 -24 2 -39 17
      -54 12 -12 31 -21 43 -21 37 0 100 37 191 110 83 67 85 68 71 35 -8 -19 -14
      -52 -14 -74 0 -30 6 -44 22 -55 12 -9 34 -16 48 -16 33 0 121 42 174 82 66 51
      166 151 159 161 -3 5 -24 -9 -47 -31 -63 -60 -152 -130 -196 -152 -22 -11 -53
      -20 -70 -20 -25 0 -30 4 -30 24 0 27 70 137 157 246 48 61 83 91 176 153 142
      94 245 176 348 274 128 122 182 219 144 256 -9 10 -27 17 -39 17 -13 0 -45
      -12 -72 -26z m90 -20 c17 -45 -114 -194 -302 -342 -123 -98 -233 -173 -212
      -146 36 48 204 246 266 316 105 116 192 188 230 188 7 0 15 -7 18 -16z m-2776
      -605 c4 -36 -63 -132 -149 -214 -71 -67 -159 -118 -185 -108 -39 15 9 111 110
      220 83 89 150 135 191 131 24 -2 31 -8 33 -29z m1750 4 c5 -38 -28 -92 -110
      -178 -96 -101 -161 -147 -203 -143 -25 3 -30 7 -27 28 5 42 63 128 142 209 41
      42 91 84 110 94 47 23 84 19 88 -10z M4690 1248 c-103 -51 -316 -267 -546
      -553 -84 -104 -151 -170 -270 -266 -102 -83 -143 -109 -175 -109 -34 0 -37 17
      -12 58 18 28 130 171 202 257 22 27 41 52 41 55 0 3 -22 4 -48 2 -40 -3 -51
      -9 -67 -33 -21 -30 -38 -39 -29 -15 3 8 -4 24 -16 36 -19 19 -31 22 -74 18
      -28 -3 -77 -18 -110 -34 -34 -16 -97 -63 -145 -108 -124 -115 -228 -196 -288
      -223 -52 -24 -73 -24 -73 1 0 7 38 58 83 113 46 55 91 119 101 142 9 24 14 52
      10 67 -7 27 -31 44 -64 44 -34 0 -138 -60 -196 -112 -28 -27 -54 -48 -58 -48
      -3 0 3 15 14 32 25 41 26 90 2 111 -45 40 -100 10 -250 -136 -139 -134 -200
      -186 -249 -211 -39 -19 -73 -21 -73 -3 0 22 51 95 158 227 56 69 102 127 102
      130 0 3 -20 4 -45 2 -35 -3 -50 -11 -70 -34 -22 -26 -25 -27 -25 -9 0 27 -37
      51 -77 51 -45 0 -106 -25 -183 -76 -108 -71 -180 -174 -180 -259 0 -32 6 -51
      20 -65 11 -11 32 -20 46 -20 35 0 105 35 154 77 21 18 40 33 42 33 2 0 2 -16
      0 -35 -5 -44 19 -75 58 -75 58 0 131 52 290 205 87 83 174 160 195 169 48 23
      63 10 41 -33 -9 -17 -73 -99 -141 -181 l-125 -150 49 0 c45 0 51 3 83 42 55
      67 197 206 260 255 70 53 146 89 160 75 14 -14 -5 -45 -84 -137 -76 -87 -108
      -140 -108 -180 0 -32 33 -65 65 -65 14 0 42 7 62 15 40 17 127 78 182 129 25
      23 32 26 25 11 -5 -11 -9 -42 -9 -68 0 -39 5 -53 24 -68 13 -10 34 -19 47 -19
      38 0 95 27 146 71 26 21 48 39 50 39 2 0 2 -16 0 -35 -3 -25 1 -42 14 -56 15
      -17 27 -20 57 -16 51 7 129 56 232 144 l84 73 -24 -52 c-33 -70 -32 -112 1
      -145 23 -23 31 -25 74 -20 55 7 112 33 185 85 69 50 186 163 179 174 -3 4 -38
      -20 -77 -56 -97 -86 -179 -142 -237 -161 -37 -12 -54 -14 -69 -5 -12 6 -21 17
      -21 24 0 28 63 133 138 232 68 90 88 108 172 162 52 33 132 88 177 122 177
      131 323 294 323 360 0 32 -23 60 -49 60 -10 0 -46 -14 -81 -32z m100 -23 c0
      -48 -84 -152 -208 -257 -93 -79 -284 -219 -291 -213 -2 2 41 57 94 122 224
      269 321 363 376 363 20 0 29 -5 29 -15z m-2302 -586 c4 -36 -63 -132 -148
      -213 -75 -71 -134 -106 -176 -106 -25 0 -26 2 -20 33 10 47 69 132 151 215 76
      75 122 103 165 99 19 -1 26 -9 28 -28z m1262 16 c7 -8 9 -23 4 -37 -19 -64
      -154 -217 -233 -267 -59 -37 -95 -45 -111 -26 -9 11 -9 22 -1 47 16 47 102
      159 168 217 85 76 145 99 173 66z M7614 922 c-18 -12 -32 -44 -26 -64 6 -23
      47 -34 68 -17 27 22 36 47 24 69 -11 20 -45 26 -66 12z"/>
    </g>
    <g opacity="0.16666667" transform="translate(0,190) scale(0.100000,-0.100000)">
      <path d="M2646 1625 c-32 -13 -82 -39 -111 -59 l-53 -35 -78 34 c-44 18 -114
      41 -156 49 -111 23 -292 21 -423 -5 -123 -23 -217 -55 -330 -112 -120 -60
      -217 -131 -305 -224 -57 -60 -91 -107 -120 -167 -29 -58 -43 -100 -47 -142 -3
      -32 0 -78 6 -102 7 -23 26 -59 44 -79 18 -20 52 -45 76 -56 24 -11 77 -21 120
      -24 103 -7 222 17 331 68 47 22 117 65 157 95 132 101 230 249 240 363 5 51 3
      60 -21 88 -15 17 -43 37 -63 44 -48 16 -135 6 -218 -26 -91 -34 -195 -105
      -279 -191 -66 -66 -145 -178 -134 -189 3 -3 22 20 42 50 53 76 157 177 237
      231 38 25 97 57 131 72 52 21 79 26 151 27 81 0 90 -2 108 -24 10 -13 19 -37
      19 -55 0 -55 -54 -149 -132 -231 -40 -43 -99 -98 -131 -122 -74 -57 -206 -127
      -282 -149 -34 -10 -94 -18 -140 -18 -64 0 -90 5 -128 23 -28 13 -58 38 -72 59
      -20 29 -25 49 -25 100 0 36 8 85 19 117 54 154 232 329 443 436 90 45 196 82
      300 105 101 21 287 29 378 15 89 -14 186 -44 219 -70 l23 -18 -49 -36 c-100
      -73 -268 -262 -465 -522 -108 -143 -230 -298 -270 -343 -85 -95 -186 -185
      -264 -232 -29 -18 -82 -44 -116 -58 -47 -19 -86 -27 -154 -30 -104 -5 -155 7
      -197 46 -29 28 -37 55 -12 46 24 -10 64 5 76 27 27 52 -25 102 -83 78 -16 -6
      -33 -20 -38 -30 -6 -10 -10 -35 -10 -57 0 -48 27 -85 83 -114 33 -17 64 -23
      143 -26 80 -3 119 0 185 17 96 24 220 81 311 142 35 23 106 86 158 138 100
      100 162 183 375 494 132 193 255 348 321 407 l38 33 27 -32 c78 -94 62 -263
      -40 -408 -59 -84 -133 -150 -210 -189 -48 -25 -68 -29 -136 -29 -44 0 -86 2
      -94 5 -7 3 -15 0 -18 -6 -7 -20 60 -39 137 -38 205 1 402 143 471 342 16 44
      20 75 16 137 -4 90 -25 140 -84 205 l-35 40 23 19 c13 11 61 39 107 61 45 23
      82 46 82 51 0 5 -3 9 -7 9 -5 0 -34 -11 -67 -25z M5615 1476 c-142 -28 -254
      -81 -342 -160 -89 -80 -129 -190 -104 -283 6 -23 23 -56 37 -73 48 -56 102
      -80 241 -106 20 -4 18 -9 -32 -83 -29 -43 -63 -105 -75 -138 -12 -32 -25 -91
      -28 -130 -4 -64 -2 -79 22 -128 21 -42 38 -61 74 -83 43 -25 55 -27 147 -26
      88 0 109 4 180 32 98 39 182 94 257 169 69 68 108 140 108 200 0 34 -6 49 -25
      67 -14 13 -40 27 -58 30 -51 9 -131 -10 -210 -51 -52 -27 -97 -62 -162 -127
      -49 -50 -101 -111 -114 -135 -13 -24 -19 -42 -14 -40 6 2 32 33 59 69 99 130
      270 245 384 257 47 4 59 2 83 -17 19 -15 27 -30 27 -53 0 -81 -138 -233 -279
      -306 -136 -71 -256 -89 -338 -52 -41 19 -64 49 -76 102 -8 33 15 124 47 187
      25 50 124 187 169 235 18 18 36 27 57 27 56 0 232 40 355 81 148 49 321 131
      419 199 124 86 206 186 206 250 0 12 -13 35 -29 51 -26 26 -36 29 -94 29 -35
      0 -99 -9 -143 -20 -153 -39 -433 -194 -614 -339 -36 -29 -109 -93 -163 -143
      l-98 -90 -47 6 c-79 12 -143 37 -183 73 -43 39 -64 96 -54 146 12 57 58 128
      115 179 62 56 181 118 285 150 55 16 103 22 225 24 85 2 160 4 165 4 6 0 1 6
      -10 12 -30 18 -286 20 -370 4z m956 -46 c13 -7 19 -21 19 -44 0 -39 -45 -104
      -111 -157 -119 -98 -305 -197 -485 -259 -108 -37 -288 -81 -331 -80 -12 1 10
      28 72 87 286 272 597 461 763 462 29 1 62 -4 73 -9z M9164 1264 c-114 -61
      -282 -224 -498 -485 -70 -85 -145 -175 -167 -201 -46 -55 -195 -183 -264 -227
      -50 -32 -95 -41 -95 -18 0 6 10 28 21 47 26 42 199 258 228 284 11 10 18 23
      15 27 -3 5 -21 9 -41 9 -28 0 -43 -8 -69 -36 -28 -29 -34 -32 -34 -16 0 30
      -32 52 -77 52 -26 0 -65 -12 -112 -36 -52 -26 -102 -64 -179 -138 -150 -142
      -242 -206 -297 -206 -55 0 -27 52 144 265 l113 140 71 5 c44 3 72 10 75 18 3
      8 -12 12 -52 12 -31 0 -56 3 -56 7 0 3 33 45 74 94 41 48 73 89 71 91 -2 2
      -24 2 -48 0 -43 -4 -48 -7 -121 -97 l-76 -94 -57 -3 c-70 -4 -84 -26 -19 -30
      l46 -3 -78 -91 c-77 -92 -125 -138 -237 -228 -94 -76 -185 -112 -185 -72 0 21
      40 77 155 216 62 76 112 140 110 142 -3 2 -24 2 -49 -2 -40 -5 -50 -12 -113
      -85 -85 -98 -237 -225 -320 -266 -60 -30 -83 -31 -83 -5 0 7 39 57 86 112 91
      105 124 158 124 198 0 13 -7 32 -16 40 -8 9 -30 16 -48 16 -45 0 -144 -52
      -204 -106 -54 -48 -80 -60 -41 -18 38 41 277 349 274 352 -2 2 -21 1 -42 -3
      -32 -6 -47 -18 -98 -82 -33 -42 -109 -128 -170 -191 -174 -182 -360 -332 -411
      -332 -53 0 -24 49 154 265 45 55 82 102 82 105 0 3 -19 5 -41 4 -34 0 -47 -6
      -70 -32 -23 -26 -29 -29 -29 -14 0 11 -9 27 -20 37 -15 14 -31 17 -69 13 -27
      -3 -73 -17 -103 -31 -74 -37 -161 -111 -205 -174 -30 -43 -38 -65 -41 -112 -4
      -50 -1 -62 17 -80 11 -11 33 -21 48 -21 36 0 100 32 151 76 l42 36 0 -40 c0
      -44 23 -72 59 -72 49 0 164 78 296 200 38 36 57 49 41 30 -16 -19 -116 -140
      -223 -267 -106 -128 -193 -235 -193 -238 0 -3 19 -5 43 -5 l42 0 179 215 c99
      119 205 240 237 269 118 109 233 186 278 186 47 0 35 -21 -97 -172 -79 -91
      -103 -142 -84 -183 6 -13 23 -27 37 -31 48 -12 150 40 250 128 l47 41 -21 -39
      c-28 -52 -27 -98 1 -118 12 -9 33 -16 46 -16 46 0 149 62 241 144 34 30 34 30
      18 4 -9 -15 -19 -44 -23 -66 -5 -33 -2 -44 16 -62 18 -18 30 -21 66 -17 50 5
      131 51 204 115 l49 42 -10 -32 c-15 -52 -11 -77 17 -105 21 -21 32 -24 60 -20
      37 6 97 39 149 82 l30 24 -3 -39 c-3 -32 0 -41 22 -55 18 -12 36 -15 60 -11
      36 7 119 61 203 134 l53 44 -15 -35 c-8 -20 -15 -54 -15 -76 0 -30 6 -44 22
      -55 12 -9 34 -16 49 -16 14 0 58 16 96 35 45 22 101 64 156 116 48 44 84 85
      81 91 -4 5 -25 -8 -48 -29 -63 -60 -155 -132 -197 -154 -21 -10 -52 -19 -69
      -19 -25 0 -30 4 -30 23 0 29 56 117 150 236 60 77 87 100 183 163 149 99 297
      219 389 317 72 76 118 148 118 183 0 24 -28 48 -54 48 -13 0 -45 -12 -72 -26z
      m90 -20 c11 -28 -36 -98 -123 -184 -82 -81 -249 -217 -356 -290 l-50 -34 40
      50 c246 307 412 474 471 474 7 0 15 -7 18 -16z m-2776 -605 c4 -36 -63 -132
      -149 -214 -71 -67 -159 -118 -185 -108 -42 16 16 124 130 239 45 46 98 90 117
      99 19 8 45 14 59 12 19 -1 26 -9 28 -28z m1750 4 c5 -38 -28 -92 -110 -178
      -87 -92 -161 -145 -201 -145 -23 0 -27 4 -27 29 0 17 17 53 40 89 50 75 165
      192 211 215 46 23 83 19 87 -10z M4693 1251 c-70 -39 -92 -57 -202 -164 -99
      -97 -214 -227 -348 -392 -107 -132 -221 -239 -357 -334 -60 -42 -116 -55 -116
      -27 0 21 69 119 169 241 50 61 91 113 91 116 0 3 -20 5 -44 4 -34 -1 -49 -7
      -65 -25 -11 -14 -20 -28 -21 -32 0 -5 -4 -8 -10 -8 -5 0 -7 6 -4 14 3 8 -4 24
      -16 36 -19 19 -31 22 -75 18 -29 -2 -78 -17 -109 -32 -31 -15 -94 -62 -140
      -105 -125 -116 -235 -201 -293 -228 -52 -24 -73 -24 -73 1 0 6 41 61 90 121
      54 66 94 124 100 146 21 75 -24 116 -99 89 -47 -17 -116 -63 -168 -113 -44
      -42 -53 -41 -28 3 20 35 19 84 -3 103 -44 40 -102 9 -236 -121 -147 -143 -212
      -200 -258 -223 -43 -22 -78 -25 -78 -6 0 22 51 95 158 227 56 69 102 128 102
      132 0 3 -19 4 -42 1 -30 -3 -51 -14 -70 -34 -24 -25 -28 -26 -28 -11 0 29 -33
      52 -73 52 -53 0 -127 -31 -200 -83 -62 -45 -132 -125 -155 -180 -7 -15 -12
      -48 -12 -72 0 -32 6 -51 21 -66 17 -17 29 -20 61 -16 35 5 78 29 163 92 20 14
      21 13 17 -21 -5 -43 19 -74 58 -74 58 0 131 52 290 205 154 148 221 198 242
      177 6 -6 6 -18 -3 -33 -17 -33 -81 -115 -182 -234 l-85 -100 44 -3 44 -3 122
      127 c68 70 149 147 180 171 72 55 146 89 161 74 13 -13 -18 -59 -98 -151 -64
      -73 -95 -127 -95 -165 0 -32 33 -65 65 -65 14 0 42 7 62 15 40 17 127 78 182
      129 26 23 32 26 26 11 -5 -11 -10 -39 -13 -62 -3 -35 0 -46 22 -67 15 -16 36
      -26 54 -26 36 0 118 41 159 80 18 16 34 30 35 30 2 0 2 -16 0 -35 -3 -25 1
      -42 14 -56 15 -17 27 -20 57 -16 51 7 129 56 232 145 l85 73 -21 -41 c-12 -23
      -24 -61 -27 -85 -4 -37 -1 -47 21 -69 19 -19 37 -26 64 -26 43 0 120 33 190
      81 63 44 194 169 187 180 -3 5 -37 -19 -77 -54 -105 -91 -171 -137 -228 -158
      -54 -21 -83 -18 -93 7 -9 22 23 87 85 174 110 154 121 165 239 241 205 131
      380 285 449 394 17 27 31 61 31 76 0 33 -23 59 -53 59 -12 0 -45 -13 -74 -29z
      m97 -26 c0 -57 -125 -196 -291 -325 -108 -84 -209 -153 -209 -145 0 3 44 59
      97 123 219 265 320 362 374 362 19 0 29 -5 29 -15z m-2302 -586 c4 -36 -63
      -132 -148 -213 -76 -71 -139 -109 -173 -104 -17 2 -22 9 -20 32 3 41 64 129
      147 211 76 76 126 107 166 103 19 -2 26 -10 28 -29z m1262 16 c7 -8 9 -23 4
      -37 -18 -59 -132 -193 -214 -252 -25 -18 -61 -38 -79 -45 -28 -9 -38 -9 -48 2
      -11 10 -11 20 -2 48 18 51 66 116 140 191 95 94 169 129 199 93z M7614 922
      c-19 -12 -34 -50 -28 -66 8 -22 51 -31 70 -15 27 22 36 47 24 69 -11 20 -45
      26 -66 12z"/>
    </g>
    <g opacity="0.20000000" transform="translate(0,190) scale(0.100000,-0.100000)">
      <path d="M2646 1625 c-32 -13 -83 -40 -112 -59 l-54 -36 -49 25 c-93 47 -186
      67 -337 72 -106 4 -166 1 -240 -11 -54 -10 -138 -30 -186 -46 -110 -37 -242
      -104 -333 -168 -140 -98 -253 -237 -294 -359 -12 -34 -21 -86 -21 -115 0 -29
      9 -71 19 -93 22 -49 76 -98 128 -116 23 -9 81 -14 148 -14 88 0 124 5 180 23
      107 36 185 77 272 146 86 69 162 161 201 246 14 30 28 80 30 110 3 46 0 60
      -19 84 -12 16 -37 35 -55 42 -49 21 -113 17 -201 -11 -141 -44 -308 -174 -400
      -311 -53 -79 -56 -84 -45 -84 5 0 21 18 35 39 37 55 110 137 171 189 68 58
      167 115 246 142 49 17 82 21 134 18 57 -3 72 -8 87 -27 11 -13 19 -37 19 -55
      0 -55 -54 -149 -132 -231 -40 -43 -99 -98 -131 -122 -74 -57 -206 -127 -282
      -149 -34 -10 -94 -18 -140 -18 -64 0 -90 5 -128 23 -66 32 -91 71 -95 151 -3
      47 2 81 16 122 27 77 82 156 164 238 195 193 474 313 763 327 71 3 150 1 193
      -6 87 -14 188 -46 221 -70 l23 -18 -33 -23 c-51 -36 -213 -196 -283 -280 -35
      -41 -125 -158 -201 -260 -76 -102 -169 -222 -207 -267 -176 -211 -329 -330
      -487 -377 -70 -21 -200 -21 -249 -1 -67 28 -112 88 -58 78 32 -6 64 12 72 41
      13 55 -41 89 -96 61 -50 -26 -57 -108 -13 -157 10 -11 36 -30 58 -41 30 -16
      64 -22 137 -25 153 -7 286 30 438 121 94 56 160 109 240 193 81 86 163 194
      315 419 151 222 232 329 320 421 l76 79 28 -33 c80 -94 64 -263 -38 -409 -27
      -38 -71 -89 -98 -112 -26 -24 -75 -57 -108 -74 -52 -27 -71 -31 -140 -32 -44
      0 -87 2 -95 5 -9 3 -15 -1 -15 -10 0 -23 81 -42 156 -36 110 10 224 58 306
      129 59 52 120 142 143 213 18 53 21 82 18 143 -5 86 -27 138 -85 202 -30 33
      -34 42 -22 50 59 39 149 89 172 94 15 4 27 13 27 21 0 8 -3 14 -7 14 -5 0 -34
      -11 -67 -25z M5625 1479 c-83 -16 -199 -58 -261 -95 -76 -45 -135 -103 -168
      -165 -15 -26 -29 -70 -33 -96 -3 -26 0 -67 6 -91 23 -82 110 -150 216 -167 92
      -14 89 -6 30 -94 -29 -43 -63 -105 -76 -138 -17 -44 -23 -79 -23 -143 -1 -68
      3 -93 20 -125 13 -25 39 -51 69 -70 46 -28 54 -30 149 -29 89 0 110 4 181 32
      44 17 106 49 138 70 81 53 172 146 202 206 15 30 25 67 25 93 0 34 -6 49 -26
      68 -63 59 -195 34 -338 -64 -56 -39 -174 -166 -205 -221 -13 -23 -19 -41 -14
      -39 6 2 32 33 59 69 99 130 270 245 384 257 47 4 59 2 83 -17 19 -15 27 -30
      27 -53 0 -81 -138 -233 -279 -306 -136 -71 -256 -89 -338 -52 -41 19 -64 49
      -76 102 -8 33 15 124 47 187 26 50 125 188 170 235 18 18 37 27 57 27 59 0
      235 41 368 86 229 77 425 188 531 300 51 54 80 106 80 144 0 12 -13 35 -29 51
      -26 26 -36 29 -94 29 -35 0 -99 -9 -143 -20 -43 -11 -137 -49 -209 -84 -209
      -101 -420 -252 -602 -429 l-61 -60 -49 7 c-80 12 -144 37 -184 73 -43 39 -64
      96 -54 146 12 56 58 128 114 178 66 59 158 108 271 145 75 24 103 28 240 31
      85 2 157 6 160 11 3 4 -15 10 -40 14 -64 9 -266 7 -325 -3z m949 -55 c53 -52
      -29 -160 -209 -276 -93 -61 -209 -118 -326 -161 -112 -42 -260 -82 -339 -91
      l-55 -7 90 87 c109 104 241 211 355 288 101 68 245 141 315 161 71 19 150 19
      169 -1z M9175 1271 c-118 -53 -318 -256 -627 -634 -85 -103 -223 -229 -317
      -289 -45 -28 -91 -37 -91 -17 0 26 64 115 192 266 43 51 78 95 78 98 0 3 -20
      5 -44 5 -39 0 -48 -4 -75 -37 -26 -32 -31 -34 -31 -17 0 32 -32 54 -77 54 -26
      0 -66 -13 -114 -37 -54 -27 -100 -62 -169 -128 -153 -148 -249 -215 -305 -215
      -29 0 -32 17 -10 61 9 16 72 100 141 187 l126 157 71 5 c44 3 72 10 75 18 3 8
      -12 12 -52 12 -31 0 -56 3 -56 6 0 3 34 45 75 94 41 48 72 89 70 91 -2 3 -24
      3 -49 1 -44 -4 -48 -7 -121 -97 l-75 -94 -57 -3 c-70 -4 -84 -25 -20 -30 l45
      -3 -76 -92 c-81 -96 -166 -175 -268 -249 -75 -54 -125 -76 -144 -64 -12 8 -12
      14 2 42 9 18 70 99 137 181 67 81 121 149 121 152 0 2 -21 2 -47 -1 -41 -5
      -53 -12 -82 -47 -89 -109 -269 -265 -356 -310 -44 -22 -79 -25 -83 -7 -1 9 38
      63 88 120 49 58 97 119 105 137 18 36 19 67 5 94 -25 45 -157 3 -253 -81 -25
      -22 -48 -40 -51 -40 -3 0 30 44 72 98 43 53 109 137 147 186 l69 89 -44 -7
      c-24 -4 -45 -8 -45 -9 0 -1 -34 -42 -75 -92 -105 -129 -259 -284 -375 -380
      -116 -95 -161 -125 -192 -125 -28 0 -30 20 -6 58 17 27 146 191 210 266 18 22
      33 43 33 48 0 4 -18 8 -39 8 -32 0 -44 -6 -70 -35 -24 -28 -31 -32 -31 -17 0
      10 -9 27 -20 37 -15 14 -31 17 -69 13 -27 -3 -73 -17 -103 -31 -115 -57 -229
      -177 -248 -262 -12 -53 7 -107 42 -119 39 -14 97 7 157 54 28 22 53 40 56 40
      3 0 5 -15 5 -33 0 -38 25 -67 59 -67 49 0 164 78 296 200 l69 65 -75 -90
      c-196 -234 -369 -445 -369 -450 0 -3 20 -5 43 -5 l44 0 108 133 c199 241 278
      329 357 396 128 108 233 163 252 132 7 -10 -23 -49 -122 -163 -79 -91 -103
      -142 -84 -183 6 -13 23 -27 37 -31 48 -12 150 40 250 128 l47 41 -21 -39 c-26
      -48 -27 -95 -3 -117 10 -10 31 -17 46 -17 50 0 150 59 245 144 34 30 34 30 18
      4 -9 -15 -19 -44 -23 -66 -5 -32 -2 -44 15 -61 13 -13 34 -21 54 -21 44 0 118
      38 195 100 l63 51 -7 -50 c-6 -44 -4 -52 19 -75 15 -14 35 -26 47 -26 32 0 89
      27 145 69 l50 38 -3 -38 c-3 -31 0 -40 22 -54 18 -12 36 -15 60 -11 41 8 115
      56 199 129 56 48 59 49 43 20 -9 -18 -16 -52 -16 -76 0 -52 22 -77 67 -77 54
      0 164 65 256 151 48 44 84 85 81 90 -3 5 -35 -17 -72 -49 -133 -116 -190 -152
      -242 -152 -25 0 -30 4 -30 23 0 29 54 114 147 232 58 75 85 99 185 166 158
      106 299 221 390 318 72 76 118 148 118 183 0 23 -28 48 -53 48 -12 0 -40 -9
      -62 -19z m74 -25 c20 -24 -21 -89 -117 -185 -48 -47 -136 -125 -197 -172 -133
      -103 -216 -160 -194 -133 8 10 46 57 84 104 150 184 310 351 368 382 18 9 35
      17 38 18 4 0 12 -6 18 -14z m-2785 -582 c44 -17 -7 -109 -123 -225 -78 -79
      -141 -119 -186 -119 -19 0 -25 5 -25 20 0 30 26 76 82 147 81 102 178 181 225
      183 6 0 18 -3 27 -6z m1764 -21 c5 -35 -32 -95 -113 -181 -83 -89 -158 -142
      -198 -142 -23 0 -27 4 -27 29 0 17 16 53 40 88 51 77 157 186 207 212 48 26
      87 24 91 -6z M4706 1260 c-59 -30 -132 -89 -224 -180 -84 -83 -261 -286 -359
      -410 -115 -145 -363 -350 -425 -350 -16 0 -28 5 -28 13 0 22 51 95 158 227 56
      69 102 128 102 133 0 4 -18 7 -40 7 -32 0 -45 -6 -67 -30 l-27 -31 -13 25 c-8
      14 -25 29 -39 32 -39 10 -100 -2 -160 -31 -29 -14 -91 -61 -136 -102 -127
      -117 -238 -204 -292 -229 -48 -22 -76 -22 -76 0 0 6 41 60 90 121 54 65 94
      124 100 146 19 70 -19 111 -87 94 -40 -10 -107 -51 -162 -101 -27 -24 -52 -44
      -55 -44 -4 0 0 13 9 30 20 39 19 83 -3 103 -44 40 -101 10 -241 -126 -184
      -179 -260 -237 -311 -237 -11 0 -20 6 -20 13 0 22 51 95 158 227 56 69 102
      129 102 133 0 5 -17 7 -37 6 -26 -2 -48 -12 -71 -33 -22 -21 -32 -25 -32 -15
      0 26 -34 49 -73 49 -53 0 -127 -31 -200 -83 -65 -46 -137 -130 -156 -180 -6
      -16 -11 -48 -11 -73 0 -31 6 -50 21 -65 17 -17 29 -20 61 -16 35 5 78 29 163
      92 20 14 21 13 17 -21 -5 -43 19 -74 58 -74 57 0 131 52 291 205 87 84 175
      160 195 170 44 21 62 9 43 -26 -17 -33 -81 -115 -182 -234 l-85 -100 44 -3 45
      -3 121 126 c133 138 213 205 284 236 52 23 74 15 55 -19 -6 -12 -45 -60 -86
      -109 -41 -48 -82 -102 -90 -120 -21 -43 -19 -79 6 -104 17 -17 29 -20 61 -16
      48 6 131 56 206 122 33 29 52 42 47 30 -4 -11 -10 -39 -13 -62 -3 -35 0 -46
      22 -67 15 -16 36 -26 54 -26 36 0 118 41 160 80 l32 31 0 -39 c0 -26 7 -45 20
      -57 42 -38 135 4 280 127 44 38 80 67 80 65 0 -2 -7 -19 -16 -37 -9 -18 -19
      -52 -22 -76 -4 -36 -1 -46 21 -68 19 -19 37 -26 64 -26 43 0 120 33 190 81 65
      45 194 169 187 180 -3 6 -36 -17 -72 -49 -102 -90 -187 -149 -240 -166 -76
      -26 -104 -4 -77 60 22 53 142 221 195 273 25 26 88 73 140 106 119 75 268 194
      342 272 71 75 118 149 118 184 0 33 -24 59 -53 59 -12 -1 -39 -9 -61 -20z m84
      -38 c0 -53 -128 -194 -285 -316 -118 -92 -220 -163 -210 -146 15 26 186 232
      264 319 97 108 164 161 202 161 21 0 29 -5 29 -18z m-2302 -583 c4 -36 -63
      -132 -148 -213 -76 -71 -139 -109 -173 -104 -17 2 -22 9 -20 32 1 16 19 54 39
      85 46 69 167 190 214 214 19 9 46 16 60 15 19 -2 26 -10 28 -29z m1263 15 c11
      -14 9 -25 -16 -72 -17 -32 -65 -93 -110 -139 -57 -58 -98 -90 -139 -109 -52
      -23 -60 -25 -73 -11 -13 13 -13 20 6 62 26 59 108 162 169 213 84 70 136 88
      163 56z M7612 923 c-21 -8 -33 -52 -21 -74 15 -28 57 -21 83 14 16 21 18 32
      10 45 -11 17 -48 25 -72 15z"/>
    </g>
    <g opacity="0.25000000" transform="translate(0,190) scale(0.100000,-0.100000)">
      <path d="M2649 1626 c-58 -23 -122 -59 -151 -83 -14 -13 -23 -11 -66 11 -28
      14 -86 36 -129 48 -69 20 -99 23 -263 22 -167 0 -195 -3 -283 -27 -109 -29
      -242 -83 -332 -136 -185 -107 -329 -262 -381 -410 -53 -151 -11 -276 111 -327
      54 -22 177 -29 261 -15 38 7 102 25 142 41 188 76 352 228 418 388 13 32 24
      78 24 105 0 40 -5 53 -34 84 -30 33 -39 37 -94 41 -114 8 -265 -55 -400 -168
      -61 -51 -138 -142 -181 -212 -35 -58 -9 -45 34 17 20 30 78 93 126 140 73 68
      109 94 194 136 89 45 114 53 177 57 56 3 82 0 105 -12 20 -10 34 -26 38 -45
      14 -66 -29 -153 -134 -264 -44 -46 -114 -108 -156 -136 -87 -61 -196 -113
      -275 -132 -71 -17 -186 -15 -230 4 -44 19 -87 59 -100 92 -17 44 -11 130 12
      192 11 32 38 83 58 113 53 78 191 207 283 264 209 130 462 196 697 183 111 -7
      207 -30 280 -67 43 -22 43 -22 22 -39 -139 -106 -286 -267 -483 -531 -188
      -251 -268 -348 -370 -448 -86 -84 -150 -132 -231 -173 -79 -40 -158 -59 -245
      -59 -79 0 -132 16 -170 52 -32 30 -29 45 6 40 20 -3 35 2 50 17 12 12 21 30
      21 41 0 24 -34 60 -55 60 -31 0 -73 -30 -83 -59 -24 -68 34 -148 124 -170 23
      -6 82 -11 129 -11 212 0 431 104 621 294 102 102 171 193 364 476 144 211 222
      312 314 405 l59 59 27 -33 c32 -38 50 -99 50 -168 -1 -105 -83 -261 -187 -353
      -27 -23 -75 -56 -108 -73 -52 -27 -71 -31 -140 -32 -44 0 -87 2 -95 5 -9 3
      -15 -1 -15 -10 0 -10 19 -20 54 -29 44 -12 68 -13 133 -3 115 17 215 67 299
      151 44 44 77 89 100 136 32 65 34 77 34 170 0 85 -3 106 -23 143 -13 24 -39
      60 -58 82 l-35 38 33 25 c35 27 115 69 161 86 16 6 25 15 22 21 -3 5 -9 10
      -13 10 -4 0 -32 -11 -63 -24z M5610 1475 c-36 -7 -87 -21 -115 -30 -131 -45
      -249 -133 -299 -224 -33 -61 -44 -142 -26 -195 16 -49 63 -102 113 -127 32
      -17 148 -48 180 -49 4 0 -8 -21 -28 -47 -20 -26 -55 -85 -78 -131 -37 -75 -41
      -92 -44 -170 -3 -76 -1 -93 20 -132 15 -30 40 -55 70 -74 38 -23 62 -30 120
      -34 48 -3 94 1 137 12 173 43 353 175 421 308 11 21 19 58 19 83 0 35 -6 52
      -23 69 -54 54 -179 38 -303 -39 -78 -49 -206 -177 -242 -243 -13 -23 -19 -42
      -14 -42 5 0 26 25 47 55 45 67 128 144 210 197 72 47 183 83 227 74 42 -8 68
      -33 68 -66 0 -49 -49 -127 -125 -198 -118 -110 -277 -182 -400 -182 -67 1
      -129 30 -150 71 -33 63 -14 165 50 275 27 46 150 203 167 215 6 4 40 9 76 13
      80 7 263 54 382 98 115 42 308 140 379 194 82 62 158 148 172 194 9 30 9 46 0
      68 -7 16 -24 34 -37 41 -39 17 -140 13 -227 -10 -43 -12 -140 -52 -215 -90
      -212 -105 -358 -208 -555 -390 l-98 -91 -47 6 c-78 11 -137 35 -180 72 -46 39
      -68 95 -57 147 12 56 58 128 114 178 90 80 231 143 379 169 35 6 116 10 180 9
      117 -1 153 9 77 23 -65 11 -275 7 -345 -7z m964 -51 c43 -43 -5 -125 -126
      -216 -143 -108 -294 -185 -486 -247 -111 -36 -299 -78 -308 -68 -6 6 170 169
      261 242 105 84 280 199 367 240 43 20 99 43 125 50 69 19 148 19 167 -1z
      M9183 1275 c-122 -53 -315 -246 -634 -635 -85 -104 -205 -215 -308 -284 -54
      -37 -101 -47 -101 -23 0 20 84 135 184 255 47 56 86 105 86 107 0 3 -20 5 -44
      5 -39 0 -48 -4 -75 -37 -26 -32 -31 -34 -31 -17 0 12 -8 28 -18 37 -23 21 -76
      22 -131 3 -58 -21 -147 -84 -211 -151 -68 -71 -189 -169 -241 -195 -49 -25
      -89 -26 -89 -2 0 27 34 76 164 239 l121 152 69 3 c43 2 71 8 73 15 3 8 -14 13
      -53 15 l-58 3 77 91 c41 51 74 94 72 96 -2 2 -24 2 -49 0 -44 -4 -48 -7 -121
      -97 l-76 -94 -56 -3 c-34 -2 -58 -8 -61 -15 -2 -9 10 -13 43 -13 l46 0 -59
      -72 c-33 -40 -77 -91 -99 -114 -56 -57 -158 -141 -227 -186 -60 -38 -116 -50
      -116 -24 0 20 41 78 161 223 60 72 109 134 109 137 0 3 -19 6 -41 6 -38 0 -46
      -5 -88 -52 -81 -93 -164 -172 -246 -234 -89 -68 -128 -90 -165 -95 -16 -3 -26
      1 -28 12 -1 8 38 61 87 118 49 56 96 117 105 136 19 38 20 68 6 96 -8 14 -21
      19 -51 19 -49 0 -139 -45 -203 -102 -24 -21 -47 -38 -50 -38 -3 0 30 44 72 98
      43 53 109 137 147 186 l69 89 -43 -7 c-30 -5 -50 -15 -65 -34 -66 -84 -216
      -249 -297 -327 -91 -88 -241 -210 -286 -234 -32 -16 -63 -14 -63 5 0 9 20 45
      45 80 53 73 205 257 217 262 4 2 6 8 2 13 -3 5 -22 9 -44 9 -31 0 -44 -6 -69
      -35 -24 -28 -31 -32 -31 -17 0 29 -33 52 -73 52 -55 0 -135 -34 -209 -90 -73
      -56 -133 -130 -155 -192 -25 -73 5 -138 65 -138 34 0 86 24 139 65 l48 37 3
      -34 c2 -18 11 -41 19 -51 33 -36 93 -16 204 68 41 32 103 85 138 119 l64 61
      -75 -90 c-285 -343 -368 -444 -368 -449 0 -3 20 -6 43 -6 l44 0 108 133 c199
      241 278 329 357 396 43 36 106 83 140 104 69 41 108 48 108 18 0 -10 -38 -61
      -85 -112 -86 -94 -125 -157 -125 -197 0 -29 34 -62 63 -62 12 0 46 11 76 25
      54 26 110 64 170 119 l33 31 -21 -40 c-26 -49 -27 -96 -3 -118 10 -10 32 -17
      49 -17 49 0 150 61 242 144 l33 31 -21 -40 c-12 -22 -21 -52 -21 -67 0 -38 32
      -68 73 -68 44 0 118 38 194 99 l62 50 -6 -47 c-4 -38 -1 -52 17 -74 13 -17 31
      -28 46 -28 36 0 91 26 149 69 l50 38 -3 -37 c-3 -30 1 -41 19 -54 13 -9 33
      -16 44 -16 37 1 100 36 183 104 45 37 82 64 82 61 0 -4 -5 -15 -10 -25 -6 -10
      -11 -37 -12 -59 -3 -97 79 -107 209 -25 63 40 205 173 197 185 -3 5 -39 -21
      -80 -57 -141 -123 -243 -173 -261 -128 -3 9 1 31 10 48 8 18 57 88 107 155 85
      113 99 127 198 193 158 106 257 183 355 277 95 91 167 189 167 226 0 30 -25
      55 -53 55 -12 -1 -37 -7 -54 -15z m66 -28 c8 -10 6 -23 -7 -49 -10 -19 -36
      -56 -56 -82 -61 -73 -272 -250 -426 -356 l-35 -24 40 49 c174 218 367 425 425
      455 19 11 38 19 41 20 4 0 12 -6 18 -13z m-2785 -583 c44 -17 -7 -110 -124
      -226 -43 -42 -96 -86 -119 -97 -48 -25 -91 -28 -91 -6 0 52 96 186 193 268 69
      59 105 75 141 61z m1764 -21 c5 -35 -32 -95 -113 -181 -83 -89 -158 -142 -198
      -142 -23 0 -27 4 -27 29 0 17 16 53 39 87 49 74 162 188 210 214 47 25 85 22
      89 -7z M4721 1269 c-45 -18 -148 -98 -227 -176 -91 -90 -243 -261 -363 -411
      -127 -158 -371 -362 -433 -362 -16 0 -28 5 -28 13 0 22 52 97 158 226 56 68
      102 128 102 133 0 4 -18 8 -40 8 -32 0 -45 -6 -67 -30 l-27 -31 -13 25 c-8 14
      -25 29 -39 32 -39 10 -100 -2 -159 -31 -29 -14 -91 -60 -137 -101 -118 -108
      -221 -191 -270 -219 -41 -24 -98 -34 -98 -17 0 14 39 67 99 137 64 74 101 137
      101 173 0 31 -35 62 -69 62 -35 0 -112 -40 -169 -88 -24 -21 -53 -44 -64 -52
      -20 -14 -20 -14 -4 17 21 42 20 86 -2 106 -10 10 -30 17 -43 17 -37 0 -105
      -48 -184 -129 -88 -90 -226 -211 -268 -233 -38 -21 -77 -23 -77 -5 0 21 51 93
      159 227 55 69 101 128 101 133 0 4 -17 7 -37 7 -28 0 -45 -8 -70 -32 -23 -22
      -33 -27 -33 -17 0 9 -9 24 -20 34 -15 14 -31 17 -70 13 -73 -7 -174 -62 -246
      -133 -33 -34 -70 -82 -83 -108 -13 -27 -23 -67 -24 -94 0 -37 4 -50 24 -66 37
      -30 90 -17 174 41 l71 49 -4 -34 c-5 -42 20 -73 58 -73 57 0 131 52 287 202
      145 139 221 197 243 183 23 -14 -23 -80 -215 -307 l-57 -68 46 0 c46 0 46 1
      188 144 148 150 249 226 300 226 15 0 28 -4 28 -8 0 -12 -48 -76 -113 -150
      -61 -70 -87 -116 -87 -156 0 -14 10 -36 21 -47 17 -17 29 -20 61 -16 48 6 131
      55 204 120 47 43 53 45 44 22 -5 -14 -10 -42 -10 -61 0 -44 37 -84 78 -84 36
      0 117 40 160 79 l32 30 0 -38 c0 -44 24 -71 61 -71 13 0 44 9 68 20 47 22 92
      55 189 138 34 29 62 52 62 49 0 -2 -7 -19 -16 -37 -9 -18 -19 -52 -22 -76 -4
      -36 -1 -46 21 -68 19 -19 37 -26 64 -26 75 0 219 88 331 203 30 30 50 57 45
      60 -6 4 -32 -14 -59 -40 -71 -66 -156 -130 -212 -159 -54 -28 -109 -34 -122
      -14 -13 21 7 71 65 155 95 139 143 194 206 233 124 76 274 189 362 272 99 93
      167 187 167 231 0 51 -42 71 -99 48z m69 -47 c0 -51 -127 -192 -280 -312 -107
      -85 -225 -166 -215 -149 16 26 188 234 269 323 45 49 101 104 126 122 50 38
      100 45 100 16z m-2302 -583 c4 -36 -63 -132 -148 -213 -97 -92 -181 -131 -196
      -92 -3 8 9 43 28 78 37 71 173 214 228 241 19 9 46 16 60 15 19 -2 26 -10 28
      -29z m1261 12 c15 -28 -26 -103 -102 -186 -69 -75 -119 -115 -178 -139 -30
      -12 -39 -13 -54 -2 -17 12 -16 15 4 61 12 26 46 78 77 116 110 135 225 203
      253 150z M7600 910 c-11 -11 -20 -25 -20 -31 0 -24 22 -49 44 -49 25 0 66 38
      66 61 0 40 -57 52 -90 19z"/>
    </g>
    <g opacity="0.33333333" transform="translate(0,190) scale(0.100000,-0.100000)">
      <path d="M2654 1629 c-28 -10 -79 -36 -114 -58 l-64 -38 -60 28 c-102 47 -170
      61 -331 66 -115 4 -171 1 -239 -11 -49 -10 -125 -29 -170 -43 -83 -26 -218
      -89 -297 -138 -77 -49 -177 -136 -227 -199 -65 -82 -79 -106 -108 -182 -55
      -148 -12 -278 111 -330 54 -22 177 -29 261 -15 38 7 102 25 142 41 188 76 352
      228 418 388 13 31 24 77 24 100 0 24 -8 57 -17 73 -9 16 -33 36 -52 45 -25 12
      -51 15 -100 11 -36 -2 -93 -14 -125 -26 -154 -54 -319 -196 -415 -353 -35 -58
      -9 -45 34 17 20 30 77 93 125 139 72 68 108 93 195 136 91 46 116 54 179 58
      54 3 80 0 103 -12 20 -10 34 -26 38 -45 14 -66 -29 -153 -134 -264 -81 -85
      -184 -163 -276 -210 -82 -41 -184 -68 -260 -69 -38 0 -89 5 -113 12 -55 17
      -109 70 -118 116 -12 67 1 140 41 220 70 144 260 313 446 398 159 73 351 116
      514 116 44 -1 114 -7 155 -14 78 -14 174 -47 203 -69 14 -11 7 -19 -57 -72
      -113 -93 -245 -242 -404 -455 -80 -107 -182 -240 -228 -295 -93 -114 -237
      -257 -304 -302 -114 -77 -222 -113 -339 -113 -77 0 -131 17 -168 52 -32 30
      -29 45 6 40 20 -3 35 2 50 17 12 12 21 30 21 41 0 24 -34 60 -55 60 -34 0 -74
      -30 -85 -64 -9 -27 -8 -41 3 -69 18 -42 68 -81 122 -96 64 -18 208 -13 294 9
      102 26 178 60 281 127 97 64 248 211 333 325 32 43 116 163 187 268 150 221
      232 329 324 424 57 59 68 67 82 55 30 -25 57 -94 62 -159 3 -52 -1 -80 -21
      -137 -29 -83 -96 -183 -163 -242 -67 -59 -164 -104 -235 -109 -32 -2 -72 0
      -88 6 -21 7 -33 8 -37 1 -10 -17 9 -29 69 -41 44 -9 73 -9 129 0 43 7 104 27
      148 49 99 48 194 142 241 238 32 65 34 76 34 170 0 85 -3 106 -23 143 -13 24
      -39 60 -58 82 l-35 38 33 26 c18 13 68 41 111 61 42 21 74 41 71 46 -3 5 -8 9
      -12 8 -4 0 -30 -9 -58 -20z M5645 1483 c-127 -18 -285 -87 -367 -162 -30 -27
      -66 -72 -82 -100 -33 -61 -44 -142 -26 -195 16 -49 63 -102 113 -127 32 -17
      148 -48 180 -49 4 0 -8 -21 -28 -47 -20 -26 -55 -86 -78 -132 -41 -82 -42 -88
      -42 -181 0 -88 2 -100 27 -137 17 -26 45 -50 79 -67 41 -20 68 -26 119 -26 36
      0 93 7 125 15 88 23 191 75 265 134 111 89 170 178 170 256 0 35 -6 52 -24 70
      -13 13 -40 27 -61 31 -49 9 -152 -17 -224 -58 -66 -37 -227 -195 -259 -255
      -13 -24 -20 -43 -15 -43 5 0 29 28 53 62 57 77 175 180 254 218 34 17 86 35
      116 42 45 9 61 9 85 -3 16 -8 34 -26 39 -41 7 -19 5 -39 -9 -75 -13 -34 -40
      -70 -94 -123 -121 -119 -255 -187 -385 -197 -59 -5 -81 -2 -118 15 -62 27 -82
      65 -76 146 5 77 48 168 128 274 95 125 99 128 173 135 86 8 283 58 394 101
      114 43 260 116 343 171 36 24 93 72 127 107 71 74 94 128 74 176 -7 16 -24 34
      -37 41 -42 19 -145 13 -238 -14 -95 -28 -264 -109 -390 -187 -115 -72 -255
      -182 -369 -288 l-97 -92 -64 11 c-35 6 -80 18 -100 26 -55 23 -104 72 -116
      115 -20 76 14 157 103 243 68 65 175 122 297 158 59 17 107 23 225 25 83 2
      152 7 155 11 3 4 -13 11 -35 15 -42 7 -259 8 -310 1z m927 -60 c10 -9 18 -27
      18 -40 0 -37 -52 -105 -122 -161 -131 -103 -303 -193 -490 -256 -105 -35 -301
      -80 -321 -73 -12 4 147 151 270 249 102 83 243 177 325 219 140 71 280 98 320
      62z M9183 1275 c-122 -53 -336 -267 -609 -605 -100 -123 -221 -239 -331 -313
      -56 -37 -103 -48 -103 -24 0 19 83 134 184 255 47 56 86 104 86 107 0 3 -20 5
      -44 5 -39 0 -48 -4 -75 -37 -26 -32 -31 -34 -31 -17 0 12 -9 29 -20 39 -15 14
      -31 17 -69 13 -79 -8 -155 -53 -266 -159 -160 -153 -253 -219 -310 -219 -17 0
      -25 5 -25 18 0 27 36 80 165 241 l120 149 69 4 c42 2 71 8 73 15 3 8 -14 13
      -53 15 l-58 3 78 93 c43 52 76 95 74 97 -1 2 -24 1 -50 -2 -46 -5 -50 -9 -123
      -99 l-76 -93 -56 -3 c-70 -4 -84 -25 -19 -30 l44 -3 -77 -91 c-42 -50 -108
      -119 -147 -153 -98 -88 -209 -161 -245 -161 -18 0 -29 5 -29 14 0 20 41 78
      161 223 60 72 109 134 109 137 0 3 -20 6 -44 6 -42 0 -45 -2 -118 -88 -114
      -133 -320 -292 -380 -292 -16 0 -28 5 -28 13 0 7 40 59 89 115 49 56 96 117
      105 136 19 39 20 69 6 97 -24 45 -142 10 -240 -70 -60 -50 -81 -60 -49 -25 15
      16 81 99 148 184 107 138 118 155 98 158 -13 2 -32 -1 -43 -5 -11 -4 -66 -62
      -121 -128 -144 -172 -341 -358 -477 -449 -46 -31 -86 -35 -86 -8 0 20 97 151
      198 269 39 44 68 84 65 87 -4 3 -23 6 -44 6 -30 0 -43 -7 -68 -35 -24 -28 -31
      -32 -31 -17 0 10 -9 27 -20 37 -15 14 -31 17 -69 13 -27 -3 -73 -17 -103 -31
      -80 -40 -167 -114 -209 -179 -42 -65 -55 -120 -40 -161 6 -15 22 -32 35 -38
      45 -21 95 -2 206 78 22 17 24 17 17 1 -3 -10 -1 -31 4 -47 21 -59 85 -53 186
      18 38 27 106 84 153 127 74 70 60 50 -136 -184 -120 -145 -221 -268 -223 -273
      -2 -6 16 -9 43 -7 l46 3 188 225 c194 233 298 335 414 403 70 41 108 48 108
      18 0 -10 -34 -56 -76 -102 -42 -46 -89 -104 -105 -128 -16 -25 -29 -58 -29
      -73 0 -35 32 -68 66 -68 39 0 127 47 199 107 36 29 65 52 65 49 0 -2 -7 -17
      -15 -32 -21 -41 -19 -87 5 -109 15 -13 30 -16 60 -12 48 6 130 53 200 115 28
      24 50 41 50 39 0 -3 -7 -18 -15 -33 -21 -41 -19 -80 6 -105 17 -17 30 -20 65
      -16 49 5 133 52 200 110 l43 38 -5 -48 c-5 -40 -2 -53 16 -75 37 -48 91 -36
      195 42 l51 37 -4 -34 c-3 -23 1 -40 13 -53 38 -42 110 -16 235 85 47 39 80 60
      76 49 -16 -37 -24 -87 -19 -103 25 -70 96 -67 213 7 64 41 202 171 194 184 -3
      4 -40 -22 -82 -59 -141 -123 -241 -172 -259 -127 -3 9 1 31 10 48 8 18 56 88
      107 154 88 118 96 125 223 211 73 50 168 119 213 155 103 83 232 219 264 279
      20 37 22 51 14 74 -7 21 -17 29 -39 30 -17 2 -45 -4 -62 -12z m65 -28 c20 -23
      -27 -97 -118 -187 -89 -88 -192 -172 -326 -268 l-79 -55 40 49 c178 221 368
      424 425 455 19 10 38 18 41 19 4 0 11 -6 17 -13z m-2775 -598 c16 -25 -23 -93
      -98 -176 -76 -84 -174 -153 -216 -153 -35 0 -37 17 -10 75 24 50 115 161 173
      208 81 67 129 81 151 46z m1755 -6 c5 -35 -32 -95 -113 -181 -84 -90 -158
      -142 -200 -142 -26 0 -27 2 -22 35 3 19 21 58 41 87 45 68 158 183 205 208 47
      25 85 22 89 -7z M4692 1253 c-28 -16 -81 -53 -117 -83 -75 -62 -225 -223 -354
      -379 -47 -58 -109 -132 -137 -165 -53 -64 -224 -214 -309 -272 -50 -34 -105
      -45 -105 -21 0 6 10 28 21 47 26 43 199 258 228 284 11 10 18 23 15 27 -3 5
      -25 9 -49 9 -37 0 -47 -4 -66 -31 l-22 -31 -14 26 c-7 14 -25 29 -39 32 -39
      10 -100 -2 -158 -30 -29 -14 -87 -56 -130 -93 -42 -38 -109 -96 -149 -131 -40
      -35 -94 -76 -122 -93 -48 -27 -105 -39 -105 -20 0 11 32 55 109 148 65 79 91
      126 91 163 0 29 -35 60 -67 60 -40 -1 -100 -31 -162 -81 -29 -24 -63 -51 -74
      -59 -19 -14 -19 -14 -3 17 9 18 16 45 16 61 0 34 -27 62 -59 62 -44 0 -101
      -42 -230 -169 -137 -135 -237 -211 -277 -211 -42 0 -31 26 64 150 37 47 90
      113 119 148 29 35 53 67 53 73 0 5 -17 9 -37 9 -28 0 -45 -8 -70 -32 -23 -22
      -33 -27 -33 -17 0 9 -9 24 -20 34 -16 14 -30 17 -75 12 -73 -7 -173 -63 -246
      -137 -31 -32 -66 -79 -79 -105 -14 -29 -23 -67 -23 -93 0 -36 5 -49 24 -65 37
      -30 90 -17 174 41 l71 49 -4 -34 c-5 -41 20 -73 57 -73 31 0 94 29 140 63 18
      14 94 85 169 157 131 127 197 176 219 162 21 -13 -12 -65 -140 -217 l-125
      -150 43 -3 44 -3 143 145 c148 150 249 226 300 226 15 0 28 -4 28 -8 0 -12
      -48 -76 -113 -150 -61 -70 -87 -116 -87 -156 0 -14 10 -36 21 -47 17 -17 29
      -20 61 -16 48 6 131 55 204 120 47 43 53 45 44 22 -5 -14 -10 -42 -10 -61 0
      -24 8 -43 25 -59 13 -14 36 -25 50 -25 36 0 89 24 146 66 l49 36 0 -35 c0 -41
      25 -67 64 -67 44 0 134 53 228 135 l86 74 -19 -50 c-26 -67 -24 -105 6 -134
      17 -18 35 -25 62 -25 75 0 217 86 326 198 64 64 64 95 1 36 -68 -64 -168 -141
      -218 -168 -52 -28 -121 -35 -129 -13 -9 23 18 81 71 158 96 138 141 188 204
      227 133 81 288 201 384 297 56 55 111 119 123 142 23 47 27 93 9 111 -19 19
      -62 14 -116 -15z m98 -31 c0 -50 -126 -191 -280 -312 -83 -66 -220 -162 -220
      -155 0 2 46 60 102 127 219 264 316 358 371 358 19 0 27 -5 27 -18z m-2302
      -580 c2 -12 -8 -43 -23 -68 -38 -65 -141 -172 -209 -216 -61 -40 -103 -48
      -112 -24 -10 27 59 136 135 215 42 43 94 88 116 100 51 27 89 24 93 -7z m1260
      -5 c5 -40 -39 -108 -128 -198 -49 -51 -95 -87 -129 -103 -30 -13 -60 -22 -67
      -19 -44 17 21 139 132 248 73 73 126 106 164 102 19 -1 26 -8 28 -30z M7600
      910 c-11 -11 -20 -25 -20 -31 0 -24 22 -49 44 -49 25 0 66 38 66 61 0 40 -57
      52 -90 19z"/>
    </g>
    <g opacity="0.50000000" transform="translate(0,190) scale(0.100000,-0.100000)">
      <path d="M2654 1629 c-28 -10 -79 -36 -114 -58 l-64 -38 -60 28 c-104 48 -170
      61 -331 66 -115 4 -172 1 -240 -12 -187 -35 -372 -111 -514 -212 -83 -60 -176
      -154 -226 -229 -53 -80 -85 -171 -85 -243 0 -45 7 -71 28 -112 23 -45 37 -59
      85 -83 47 -24 74 -30 143 -34 96 -5 176 8 277 45 160 60 331 207 401 345 66
      131 60 225 -18 262 -72 34 -205 11 -326 -56 -83 -46 -175 -123 -238 -199 -60
      -71 -109 -149 -94 -149 5 0 26 24 46 54 50 72 188 203 259 245 31 18 85 44
      119 58 74 30 175 41 217 23 16 -6 34 -24 41 -40 25 -61 -20 -157 -127 -270
      -118 -125 -257 -216 -397 -259 -45 -14 -95 -21 -150 -21 -68 0 -91 4 -132 25
      -27 14 -58 38 -69 53 -16 22 -20 43 -20 108 0 73 4 87 38 156 25 52 62 103
      113 157 41 44 106 103 143 130 129 96 298 169 476 207 39 8 122 17 185 20 80
      4 140 1 195 -9 82 -15 178 -47 208 -70 15 -11 8 -19 -56 -70 -106 -85 -240
      -237 -405 -457 -80 -107 -183 -240 -228 -295 -93 -114 -237 -257 -304 -302
      -111 -75 -222 -113 -331 -113 -35 0 -82 5 -103 11 -37 10 -96 57 -96 76 0 5
      13 8 29 5 20 -3 35 2 50 17 12 12 21 30 21 41 0 23 -33 60 -54 60 -36 0 -68
      -22 -82 -56 -12 -28 -13 -43 -4 -68 15 -46 59 -85 115 -102 62 -18 212 -18
      293 1 162 38 345 149 483 292 96 99 180 209 319 418 131 197 246 348 329 433
      61 63 74 72 87 61 30 -25 57 -94 62 -159 3 -49 -1 -80 -18 -129 -63 -186 -243
      -348 -401 -359 -32 -2 -72 0 -88 6 -21 7 -33 8 -37 1 -10 -17 9 -29 69 -41 44
      -9 73 -9 129 0 43 7 104 27 148 49 98 48 194 142 240 237 29 58 35 82 38 156
      4 79 2 94 -22 147 -15 32 -43 74 -62 94 l-36 37 34 25 c18 14 68 42 111 62 42
      21 74 41 71 46 -3 5 -8 9 -12 8 -4 0 -30 -9 -58 -20z M5640 1483 c-73 -12
      -182 -48 -243 -80 -38 -20 -93 -58 -121 -84 -29 -26 -64 -70 -80 -98 -33 -61
      -44 -142 -26 -195 16 -49 63 -102 113 -127 32 -17 148 -48 180 -49 4 0 -10
      -24 -32 -52 -22 -29 -57 -89 -78 -133 -36 -75 -38 -85 -38 -176 0 -87 2 -99
      27 -136 17 -26 45 -50 79 -67 42 -21 67 -26 125 -26 80 0 176 25 266 71 65 33
      157 103 206 157 50 56 82 124 82 177 0 35 -6 52 -24 70 -13 13 -41 27 -61 31
      -21 4 -61 1 -92 -6 -106 -23 -222 -101 -319 -212 -53 -60 -101 -138 -86 -138
      5 0 32 31 60 69 57 78 180 182 259 218 28 13 75 29 105 35 43 9 59 8 83 -3 16
      -8 34 -26 39 -41 29 -83 -132 -263 -309 -344 -125 -57 -228 -69 -302 -33 -24
      12 -50 34 -58 50 -22 42 -19 121 9 189 29 71 97 175 165 251 49 55 51 56 118
      62 91 9 281 59 406 107 128 50 264 119 342 175 130 93 207 197 191 259 -9 35
      -41 63 -82 69 -44 7 -140 -8 -224 -34 -86 -28 -274 -122 -380 -191 -118 -76
      -248 -179 -358 -283 l-92 -87 -61 11 c-86 15 -161 52 -194 95 -23 30 -28 47
      -28 91 0 44 7 65 34 111 63 105 199 195 369 245 59 17 108 22 225 25 83 2 152
      7 155 11 3 4 -13 11 -35 15 -42 7 -273 8 -315 1z m928 -59 c12 -8 22 -25 22
      -38 0 -36 -54 -108 -122 -162 -139 -111 -302 -195 -510 -263 -114 -37 -295
      -77 -305 -67 -4 4 153 150 243 224 169 141 392 274 514 306 73 19 130 20 158
      0z M9141 1253 c-118 -69 -335 -295 -588 -609 -80 -99 -214 -222 -314 -290 -52
      -35 -83 -42 -95 -23 -8 14 64 118 176 252 49 59 90 109 90 112 0 3 -20 5 -44
      5 -38 0 -48 -5 -75 -35 -25 -29 -31 -32 -31 -16 0 59 -86 68 -186 21 -45 -22
      -95 -60 -166 -128 -167 -158 -256 -222 -313 -222 -32 0 -33 22 -2 71 12 20 76
      104 142 187 l120 151 69 3 c43 2 71 8 73 15 3 8 -14 13 -53 15 l-57 3 78 93
      c43 51 75 95 72 99 -3 3 -26 2 -51 -1 -42 -7 -50 -13 -121 -101 l-77 -94 -56
      -3 c-33 -2 -57 -8 -60 -15 -2 -9 10 -13 43 -13 l46 0 -63 -76 c-132 -160 -345
      -334 -409 -334 -18 0 -29 5 -29 14 0 20 41 76 161 222 60 73 109 135 109 138
      0 3 -20 6 -44 6 -43 0 -46 -2 -108 -76 -35 -42 -97 -106 -138 -141 -108 -93
      -216 -163 -251 -163 -16 0 -29 3 -29 6 0 15 30 56 90 124 37 41 79 93 93 115
      31 45 36 105 11 126 -9 7 -30 13 -48 12 -38 -1 -141 -51 -188 -91 -58 -49 -75
      -58 -47 -27 15 17 81 100 148 185 107 138 118 155 98 158 -13 2 -32 -1 -43 -5
      -12 -4 -56 -51 -100 -103 -153 -185 -331 -355 -478 -459 -60 -41 -106 -53
      -106 -27 0 8 16 37 35 66 39 58 193 248 219 269 9 7 16 17 16 22 0 5 -20 9
      -44 9 -38 0 -48 -5 -75 -35 -24 -28 -31 -32 -31 -17 0 31 -32 52 -82 52 -56 0
      -140 -41 -224 -109 -68 -55 -119 -125 -135 -185 -22 -81 20 -136 94 -122 20 4
      67 27 103 52 36 25 63 40 59 34 -3 -6 -1 -26 5 -45 21 -63 83 -59 186 14 38
      26 105 81 148 122 l80 74 -100 -120 c-54 -66 -151 -182 -214 -258 -63 -76
      -116 -143 -118 -148 -2 -5 17 -9 42 -9 44 0 46 2 108 78 283 349 402 471 540
      555 69 41 108 48 108 18 0 -11 -35 -57 -77 -103 -90 -97 -133 -162 -133 -198
      0 -14 7 -36 16 -49 14 -20 23 -23 59 -18 49 5 138 56 208 117 46 41 60 43 32
      6 -22 -29 -19 -89 5 -111 15 -13 30 -16 60 -12 48 6 130 53 200 115 l49 43
      -14 -35 c-8 -20 -15 -47 -15 -61 0 -35 33 -65 73 -65 45 0 140 49 203 104 l51
      45 -5 -47 c-3 -38 0 -53 18 -75 37 -47 91 -35 195 43 l51 37 -4 -34 c-5 -42
      20 -73 60 -73 41 0 96 31 186 104 l78 63 -15 -54 c-14 -51 -13 -55 6 -81 39
      -52 116 -38 228 43 71 51 181 160 168 168 -4 3 -43 -26 -87 -64 -98 -86 -164
      -128 -210 -136 -28 -4 -37 -2 -42 12 -4 10 1 33 12 54 10 20 59 89 108 154 85
      113 96 123 210 200 67 44 162 113 211 152 114 92 243 226 275 287 20 38 22 52
      14 75 -7 22 -16 29 -44 31 -26 2 -52 -7 -99 -35z m108 -42 c-26 -75 -234 -270
      -449 -421 -41 -29 -68 -44 -59 -34 9 10 60 73 115 139 54 66 143 166 197 222
      101 104 170 151 193 132 9 -7 10 -18 3 -38z m-2776 -562 c17 -28 -28 -103
      -117 -193 -87 -89 -162 -139 -198 -134 -19 2 -23 9 -21 32 3 41 64 130 147
      211 99 98 163 126 189 84z m1755 -6 c5 -33 -30 -90 -100 -167 -82 -90 -171
      -156 -210 -156 -29 0 -30 2 -25 35 3 18 23 60 45 92 48 69 157 180 204 205 44
      23 82 20 86 -9z M4694 1255 c-108 -54 -298 -246 -537 -542 -76 -94 -145 -165
      -226 -235 -64 -55 -138 -113 -166 -129 -52 -30 -95 -38 -95 -16 0 27 90 149
      212 288 32 37 58 69 58 73 0 3 -22 6 -49 6 -44 0 -52 -4 -72 -31 l-21 -30 -19
      30 c-17 28 -23 31 -71 31 -89 -1 -173 -49 -311 -179 -91 -85 -185 -160 -234
      -185 -34 -17 -83 -22 -83 -7 0 11 31 53 112 151 38 46 73 99 80 122 10 33 9
      45 -3 67 -31 55 -105 37 -223 -54 -68 -51 -81 -59 -70 -37 30 59 7 122 -45
      122 -44 0 -103 -43 -233 -171 -139 -137 -234 -209 -274 -209 -48 0 -29 33 121
      221 59 73 109 139 112 146 4 9 -6 13 -33 13 -29 0 -46 -7 -71 -32 -23 -22 -33
      -27 -33 -17 0 9 -9 24 -20 34 -16 14 -30 17 -75 12 -34 -3 -78 -18 -117 -39
      -75 -40 -176 -136 -208 -198 -14 -27 -24 -64 -24 -93 -1 -40 3 -52 24 -69 18
      -15 34 -19 62 -15 39 5 99 37 153 82 l31 24 -4 -35 c-3 -24 1 -41 14 -55 15
      -17 27 -20 57 -16 21 3 63 20 93 39 31 18 113 89 182 157 70 68 145 137 166
      153 43 31 76 36 76 12 0 -22 -43 -81 -164 -224 l-105 -125 44 -3 44 -3 143
      145 c148 150 249 226 300 226 15 0 28 -3 28 -6 0 -14 -25 -48 -94 -129 -41
      -48 -82 -102 -90 -120 -9 -18 -16 -47 -16 -64 0 -41 37 -66 87 -58 46 8 129
      58 200 122 32 28 51 40 44 28 -6 -12 -11 -40 -11 -63 0 -77 68 -112 143 -74
      18 9 53 32 80 51 l47 35 0 -35 c0 -41 25 -67 64 -67 43 0 135 54 229 135 l86
      74 -20 -42 c-10 -23 -19 -59 -19 -80 0 -52 35 -87 87 -87 43 0 119 33 191 81
      52 36 192 167 192 181 0 18 -22 6 -72 -41 -129 -120 -228 -181 -292 -181 -34
      0 -36 2 -36 33 0 37 42 109 141 239 51 66 78 90 187 162 70 47 163 114 207
      149 100 81 218 204 245 256 22 45 26 91 8 109 -19 19 -60 14 -114 -13z m92
      -29 c3 -8 -1 -27 -10 -43 -46 -90 -208 -238 -436 -398 l-55 -39 29 40 c47 62
      173 211 260 306 109 121 196 176 212 134z m-2298 -584 c2 -12 -8 -42 -21 -65
      -38 -64 -141 -171 -208 -216 -63 -42 -105 -52 -115 -27 -8 21 31 92 92 168 82
      102 174 170 224 165 18 -1 26 -9 28 -25z m1260 -5 c5 -41 -40 -110 -128 -198
      -79 -80 -141 -119 -185 -119 -21 0 -25 5 -25 28 0 60 138 229 239 293 27 18
      56 29 71 27 19 -2 26 -10 28 -31z M7594 905 c-14 -21 -15 -31 -6 -50 15 -32
      54 -33 82 -3 36 39 20 78 -32 78 -18 0 -33 -8 -44 -25z"/>
    </g>
    <g opacity="1.00000000" transform="translate(0,190) scale(0.100000,-0.100000)">
      <path d="M2654 1629 c-28 -10 -79 -37 -115 -58 l-64 -39 -45 23 c-72 37 -178
      65 -275 73 -185 17 -396 -17 -577 -90 -217 -89 -396 -233 -496 -399 -36 -59
      -62 -148 -62 -209 0 -44 7 -71 28 -111 23 -45 37 -59 86 -84 49 -25 72 -30
      150 -33 71 -3 112 1 175 17 46 11 116 36 156 56 85 41 202 130 263 201 24 27
      59 82 79 122 43 86 54 162 30 209 -45 87 -212 83 -377 -9 -81 -45 -184 -131
      -243 -203 -57 -71 -103 -145 -88 -145 5 0 30 29 55 63 55 78 174 191 249 236
      31 18 85 44 119 58 74 30 175 41 217 23 16 -6 35 -25 41 -40 10 -23 9 -39 -4
      -83 -9 -30 -35 -81 -59 -113 -63 -85 -183 -192 -284 -252 -117 -70 -220 -102
      -326 -102 -58 0 -94 6 -122 19 -46 20 -92 70 -101 108 -4 13 -4 52 -1 85 8 92
      61 190 157 291 44 46 112 107 152 134 98 68 235 135 339 167 99 30 258 56 347
      56 121 0 259 -29 345 -72 l37 -18 -88 -74 c-48 -41 -123 -114 -166 -163 -43
      -48 -153 -187 -244 -308 -91 -121 -195 -256 -232 -300 -81 -96 -205 -217 -276
      -268 -61 -44 -145 -84 -217 -103 -62 -17 -167 -18 -221 -3 -37 10 -96 57 -96
      76 0 5 13 8 29 5 20 -3 35 2 50 17 12 12 21 30 21 41 0 23 -33 60 -54 60 -36
      0 -68 -22 -82 -56 -12 -28 -13 -43 -4 -68 15 -46 59 -85 115 -102 69 -20 216
      -18 307 5 41 11 105 33 141 49 104 47 237 145 330 241 95 99 180 210 317 416
      129 194 245 347 329 433 80 82 84 83 124 8 18 -33 22 -58 22 -126 0 -77 -4
      -92 -36 -160 -20 -41 -59 -102 -85 -134 -27 -33 -77 -79 -112 -103 -77 -52
      -156 -77 -226 -70 -28 2 -59 8 -70 12 -14 6 -17 4 -14 -11 4 -22 63 -42 128
      -43 65 -1 160 24 232 60 86 43 185 145 228 233 29 58 35 82 38 156 4 79 2 94
      -22 147 -15 32 -43 74 -62 94 l-35 36 27 22 c15 12 65 40 111 63 45 23 80 45
      77 49 -3 5 -8 9 -12 8 -4 0 -30 -9 -58 -20z M5640 1483 c-70 -12 -178 -47
      -239 -77 -37 -19 -93 -57 -122 -84 -30 -28 -67 -73 -83 -101 -33 -61 -44 -142
      -26 -196 17 -52 71 -109 128 -133 26 -11 75 -26 109 -32 l62 -12 -39 -52 c-21
      -28 -56 -87 -77 -131 -36 -75 -38 -85 -38 -176 0 -88 2 -99 28 -138 40 -60
      109 -91 202 -91 83 0 151 17 243 60 128 60 269 188 302 275 16 43 15 101 -3
      129 -22 33 -78 50 -141 42 -65 -9 -175 -63 -246 -121 -30 -25 -76 -70 -101
      -100 -51 -62 -95 -135 -81 -135 5 0 33 32 62 71 59 79 170 173 252 213 29 14
      78 31 108 38 45 9 61 9 85 -3 16 -8 34 -26 39 -41 21 -61 -64 -184 -189 -273
      -157 -113 -341 -154 -435 -99 -16 10 -36 32 -46 49 -26 49 -15 135 30 225 37
      74 124 196 170 239 19 18 46 27 117 37 51 8 142 28 203 45 126 35 300 104 396
      156 193 106 320 234 320 321 0 39 -40 78 -89 86 -45 7 -130 -7 -221 -36 -97
      -31 -272 -118 -390 -196 -126 -82 -234 -168 -351 -280 l-87 -83 -63 10 c-75
      12 -166 56 -192 92 -45 62 -37 147 22 232 39 57 132 129 218 168 34 16 97 39
      140 51 65 19 104 22 230 23 98 0 152 4 150 10 -2 6 -17 13 -33 16 -32 7 -285
      9 -324 2z m928 -59 c12 -8 22 -25 22 -38 0 -32 -50 -104 -103 -148 -70 -58
      -195 -136 -294 -184 -121 -58 -335 -129 -448 -147 -49 -9 -91 -14 -93 -12 -4
      4 198 186 280 252 105 84 245 175 338 221 138 67 251 89 298 56z M9165 1268
      c-113 -59 -308 -253 -547 -543 -93 -113 -187 -216 -233 -255 -158 -133 -213
      -166 -237 -142 -15 15 33 87 162 241 55 66 100 123 100 126 0 3 -20 5 -44 5
      -38 0 -48 -5 -75 -35 -25 -29 -31 -32 -31 -16 0 33 -28 51 -79 51 -75 0 -157
      -47 -270 -154 -167 -159 -260 -226 -316 -226 -52 0 -27 49 115 225 45 55 95
      119 113 142 32 41 33 42 101 45 43 2 71 8 73 15 3 8 -14 13 -52 15 l-56 3 76
      92 c41 50 75 95 75 98 0 3 -21 5 -47 3 -47 -3 -49 -4 -127 -100 l-79 -98 -58
      0 c-46 0 -59 -3 -59 -15 0 -11 12 -15 46 -15 l46 0 -47 -57 c-111 -133 -242
      -253 -350 -322 -51 -32 -105 -41 -105 -18 0 20 42 79 160 221 58 70 107 131
      108 137 2 5 -16 9 -41 9 -44 0 -46 -2 -117 -85 -72 -84 -211 -205 -304 -264
      -46 -28 -106 -42 -106 -23 0 13 31 53 96 127 90 102 114 141 114 186 0 30 -6
      42 -25 55 -23 15 -29 15 -77 -1 -51 -16 -150 -74 -162 -94 -4 -6 -16 -16 -27
      -22 -11 -6 6 23 38 63 33 40 96 120 141 178 76 96 81 105 59 108 -12 2 -32 -1
      -43 -5 -12 -4 -56 -51 -100 -103 -43 -52 -113 -130 -154 -174 -82 -86 -249
      -234 -323 -284 -55 -38 -107 -52 -107 -29 0 8 15 38 34 65 38 56 196 251 220
      271 9 8 16 17 16 22 0 5 -19 9 -42 9 -34 0 -49 -6 -75 -32 -24 -23 -33 -27
      -33 -16 0 30 -29 48 -79 48 -69 0 -173 -55 -254 -133 -67 -64 -101 -119 -112
      -178 -8 -44 8 -86 39 -100 14 -7 40 -9 60 -5 20 4 64 26 99 50 l62 42 1 -34
      c2 -77 77 -81 183 -8 36 24 102 78 146 118 51 47 68 59 46 33 -18 -22 -68 -83
      -111 -135 -43 -52 -125 -151 -182 -220 l-105 -125 46 -3 c40 -3 49 0 71 26 14
      16 98 116 186 223 167 201 284 314 396 382 69 41 108 48 108 18 0 -11 -35 -57
      -77 -103 -42 -45 -89 -103 -105 -127 -33 -53 -36 -100 -8 -126 41 -38 148 5
      261 104 50 43 51 44 35 13 -22 -43 -21 -95 4 -117 15 -13 30 -16 60 -12 48 6
      130 53 200 115 l49 43 -14 -35 c-8 -20 -15 -47 -15 -61 0 -35 33 -65 73 -65
      45 0 140 49 203 104 l51 45 -5 -47 c-3 -38 0 -53 18 -75 15 -18 31 -27 51 -27
      36 0 100 31 154 75 l41 33 -4 -35 c-5 -42 20 -73 60 -73 41 0 96 31 186 104
      l78 63 -15 -54 c-14 -51 -13 -55 6 -81 18 -23 28 -27 70 -27 39 1 63 9 108 35
      32 19 96 70 141 114 77 72 96 96 76 96 -4 0 -41 -30 -82 -66 -98 -87 -168
      -133 -213 -141 -29 -4 -38 -2 -43 12 -4 10 1 33 12 54 10 20 59 89 108 154 85
      113 95 123 210 199 67 45 159 111 206 148 112 89 254 238 282 294 17 36 20 52
      12 73 -7 23 -16 28 -44 30 -20 2 -52 -6 -75 -19z m89 -26 c13 -21 -44 -98
      -142 -194 -99 -96 -199 -178 -330 -271 l-54 -38 92 113 c115 142 292 332 344
      369 38 28 80 38 90 21z m-2784 -587 c7 -8 9 -23 4 -37 -12 -40 -65 -111 -135
      -179 -76 -76 -148 -122 -181 -117 -19 2 -23 9 -21 32 3 40 60 123 141 205 65
      66 129 110 163 111 9 0 22 -7 29 -15z m1758 -13 c5 -35 -44 -108 -132 -198
      -80 -80 -145 -124 -186 -124 -53 0 3 112 118 232 42 44 92 88 112 99 47 25 84
      21 88 -9z M4694 1255 c-27 -14 -83 -54 -126 -90 -84 -71 -270 -275 -422 -464
      -145 -179 -384 -381 -453 -381 -13 0 -23 6 -23 14 0 7 12 31 26 52 34 50 208
      267 229 284 8 7 15 16 15 21 0 5 -22 9 -49 9 -44 0 -52 -4 -72 -31 l-21 -30
      -19 30 c-17 28 -23 31 -73 31 -84 0 -168 -48 -306 -175 -136 -125 -249 -205
      -291 -205 -16 0 -29 4 -29 9 0 11 31 53 112 151 38 46 73 99 80 122 10 33 9
      45 -3 67 -8 14 -23 27 -33 29 -36 7 -85 -9 -142 -48 -33 -21 -76 -53 -96 -70
      l-38 -32 15 29 c19 37 19 88 -1 107 -8 9 -27 16 -40 16 -43 0 -102 -38 -187
      -122 -137 -134 -210 -200 -256 -230 -48 -30 -91 -37 -91 -15 0 19 67 112 171
      240 49 60 89 113 89 118 0 5 -17 9 -37 9 -28 0 -45 -8 -70 -32 -23 -22 -33
      -27 -33 -17 0 29 -34 49 -82 49 -66 0 -175 -58 -253 -134 -34 -33 -73 -81 -85
      -106 -14 -27 -24 -64 -24 -93 -1 -40 3 -52 24 -69 18 -15 34 -19 62 -15 39 5
      99 37 153 82 l31 24 -4 -35 c-5 -43 19 -74 60 -74 16 0 50 11 76 24 55 28 114
      78 262 221 58 56 116 110 130 119 31 20 60 21 60 0 0 -22 -43 -81 -164 -224
      -58 -69 -106 -127 -106 -130 0 -3 21 -4 46 -1 44 3 51 8 187 146 147 149 249
      225 299 225 15 0 28 -3 28 -8 0 -12 -30 -52 -90 -122 -31 -36 -69 -84 -84
      -106 -20 -31 -27 -52 -24 -80 2 -29 9 -42 29 -53 17 -9 37 -12 62 -7 40 8 163
      86 216 138 24 23 31 27 23 11 -7 -12 -12 -40 -12 -63 0 -77 68 -112 143 -74
      18 9 53 32 80 51 l47 35 0 -35 c0 -41 25 -67 64 -67 43 0 135 54 229 135 l86
      74 -20 -42 c-10 -23 -19 -61 -19 -84 0 -33 5 -46 26 -62 70 -55 204 3 367 158
      42 40 77 78 77 82 0 21 -29 6 -70 -37 -57 -58 -151 -129 -212 -160 -26 -13
      -63 -24 -83 -24 -33 0 -35 2 -35 33 0 38 45 113 143 240 52 67 79 91 195 168
      74 49 166 116 206 148 94 77 210 200 236 250 22 45 26 91 8 109 -19 19 -60 14
      -114 -13z m92 -30 c3 -8 -5 -34 -19 -57 -28 -49 -182 -201 -272 -269 -102 -78
      -211 -153 -199 -138 56 75 239 291 301 355 106 111 174 150 189 109z m-2312
      -561 c25 -10 19 -46 -16 -99 -96 -145 -282 -285 -313 -235 -11 17 34 101 91
      171 57 70 118 124 169 152 33 18 46 20 69 11z m1274 -29 c3 -35 -35 -98 -110
      -180 -62 -68 -161 -135 -199 -135 -25 0 -29 4 -29 28 0 60 139 230 239 294 27
      17 56 28 71 26 20 -2 26 -9 28 -33z M7623 930 c-12 -5 -27 -19 -33 -31 -17
      -31 2 -69 35 -69 32 0 67 35 63 62 -4 29 -38 48 -65 38z"/>
    </g>
  </g>
</svg>
