<?xml version="1.0" encoding="UTF-8"?>
<svg xmlns="http://www.w3.org/2000/svg" viewBox="0 0 980 190" width="980" height="190" fill="none">
  <title>Layered spline reconstruction</title>
  <g fill="#f1ead8" stroke="none">
    <g opacity="0.25000000" transform="translate(0,190) scale(0.100000,-0.100000)">
      <path d="M2646 1625 c-32 -13 -83 -40 -113 -60 l-54 -36 -65 32 c-36 17 -107
      39 -157 50 -115 23 -280 25 -408 3 -177 -30 -358 -104 -507 -207 -40 -27 -108
      -88 -152 -134 -57 -60 -91 -107 -120 -167 -29 -58 -43 -100 -47 -142 -3 -33 0
      -79 7 -104 16 -59 80 -123 140 -141 25 -8 89 -14 145 -14 76 1 118 6 175 24
      41 12 104 38 141 56 191 97 353 293 366 445 6 57 4 61 -29 94 -22 22 -49 37
      -74 42 -138 26 -385 -102 -525 -270 -45 -56 -94 -134 -87 -142 3 -2 21 20 41
      50 52 79 167 188 254 242 104 66 187 94 274 94 62 0 73 -3 96 -26 22 -22 25
      -32 21 -69 -9 -78 -45 -134 -162 -250 -77 -76 -136 -124 -191 -157 -87 -51
      -201 -92 -281 -103 -68 -9 -159 9 -206 40 -51 34 -72 77 -71 150 2 185 195
      410 473 550 262 132 600 163 832 76 86 -33 88 -41 23 -91 -104 -80 -266 -262
      -440 -495 -257 -341 -368 -467 -506 -567 -52 -38 -144 -83 -208 -102 -64 -19
      -187 -21 -243 -4 -41 12 -88 52 -88 74 0 10 9 12 29 8 22 -5 34 -1 51 16 11
      11 20 31 18 42 -4 30 -50 62 -77 53 -38 -12 -61 -46 -61 -91 0 -50 26 -86 83
      -116 32 -16 66 -22 142 -26 81 -4 118 0 185 17 151 38 304 123 432 240 92 85
      194 213 348 441 172 253 258 367 347 459 l72 75 25 -23 c33 -31 56 -101 56
      -171 0 -31 -9 -83 -20 -116 -44 -126 -163 -264 -277 -321 -52 -25 -69 -28
      -155 -28 -54 0 -98 -3 -98 -6 0 -11 49 -28 97 -34 64 -9 182 17 259 56 118 59
      214 167 255 286 25 74 25 167 -1 237 -12 29 -39 75 -61 100 l-41 46 24 20 c12
      11 60 38 106 61 45 23 82 45 82 50 0 5 -3 9 -7 9 -5 0 -34 -11 -67 -25z M5632
      1479 c-78 -13 -199 -56 -262 -92 -30 -17 -80 -57 -111 -88 -72 -73 -104 -148
      -96 -228 7 -66 43 -122 102 -160 25 -16 73 -34 107 -41 35 -6 70 -14 79 -16
      13 -4 6 -20 -36 -83 -29 -44 -63 -105 -75 -138 -12 -32 -25 -91 -28 -130 -4
      -64 -1 -79 21 -125 31 -62 87 -104 155 -114 116 -17 276 28 398 115 86 60 169
      147 194 203 11 24 20 62 20 86 0 33 -6 48 -25 66 -28 27 -77 37 -132 29 -21
      -3 -76 -23 -123 -45 -70 -34 -100 -56 -175 -132 -49 -50 -100 -110 -113 -133
      -13 -24 -19 -43 -14 -43 5 0 26 25 47 56 47 68 144 157 220 203 70 42 148 70
      196 71 49 0 89 -32 89 -72 0 -46 -28 -95 -93 -165 -109 -116 -270 -201 -398
      -211 -109 -8 -180 28 -199 99 -9 31 -8 53 5 101 8 33 29 86 45 117 33 61 94
      146 152 210 28 32 44 41 68 41 56 0 230 40 354 81 232 77 440 193 544 303 53
      56 82 108 82 146 0 12 -13 35 -29 51 -26 26 -36 29 -93 29 -35 0 -100 -9 -144
      -20 -95 -25 -304 -126 -433 -210 -110 -72 -243 -178 -359 -285 l-83 -77 -50 6
      c-82 11 -154 43 -193 86 -19 21 -38 54 -41 73 -14 71 34 168 117 242 59 52
      201 125 293 151 40 11 110 18 215 20 85 2 160 4 165 4 6 0 1 6 -10 12 -25 15
      -281 20 -353 7z m939 -49 c29 -16 25 -69 -9 -116 -82 -113 -325 -260 -568
      -344 -106 -37 -285 -80 -330 -80 -14 0 -9 10 21 41 70 72 257 229 362 304 112
      80 258 159 343 186 62 20 151 24 181 9z M9164 1264 c-97 -52 -228 -173 -398
      -369 -67 -77 -157 -184 -200 -238 -44 -54 -104 -121 -135 -149 -82 -74 -181
      -153 -218 -172 -38 -19 -73 -21 -73 -3 0 6 10 28 21 47 26 42 168 220 217 273
      20 20 32 37 27 38 -6 1 -28 0 -50 -1 -32 -1 -46 -8 -67 -33 -24 -29 -27 -30
      -28 -11 0 11 -8 28 -18 37 -31 28 -91 21 -171 -19 -52 -26 -102 -64 -179 -138
      -121 -115 -189 -167 -257 -197 -40 -18 -49 -19 -61 -7 -11 11 -9 21 16 63 15
      28 81 115 145 195 64 80 118 147 121 149 2 2 27 3 56 2 59 -1 88 6 88 20 0 5
      -25 9 -55 9 -30 0 -55 3 -55 7 0 3 34 46 75 95 l75 88 -48 0 -48 0 -77 -94
      -77 -95 -57 -3 c-70 -4 -84 -25 -19 -30 l46 -3 -80 -95 c-150 -178 -364 -339
      -411 -310 -12 8 -10 16 9 52 13 24 74 105 138 180 l114 138 -47 0 c-48 0 -49
      -1 -118 -82 -85 -99 -237 -227 -322 -269 -60 -30 -83 -31 -83 -5 0 7 39 57 86
      112 91 105 124 158 124 198 0 13 -7 32 -16 40 -8 9 -30 16 -48 16 -45 0 -144
      -52 -204 -106 -54 -48 -80 -60 -41 -18 34 36 278 348 274 352 -1 1 -20 0 -41
      -4 -34 -5 -47 -17 -99 -82 -33 -42 -111 -129 -174 -194 -180 -186 -356 -328
      -407 -328 -53 0 -24 51 149 260 48 58 87 107 87 110 0 3 -20 4 -45 2 -35 -3
      -50 -11 -70 -34 -21 -25 -25 -26 -25 -10 0 10 -9 27 -20 37 -15 13 -31 16 -67
      13 -27 -3 -75 -17 -107 -33 -72 -34 -197 -150 -225 -209 -28 -56 -28 -129 -1
      -156 11 -11 32 -20 47 -20 36 0 100 32 150 75 23 19 43 35 45 35 2 0 2 -16 0
      -35 -3 -25 1 -42 13 -55 10 -11 28 -20 39 -20 56 1 170 77 305 205 59 55 29
      15 -145 -193 -120 -145 -223 -270 -227 -278 -6 -11 1 -14 35 -14 l43 0 173
      210 c96 115 204 238 242 274 80 75 158 135 217 165 62 31 102 27 83 -9 -5 -9
      -50 -64 -100 -121 -98 -112 -122 -160 -102 -204 6 -13 22 -27 36 -31 14 -3 41
      -1 60 6 44 14 142 77 196 126 l42 39 -21 -40 c-11 -22 -21 -54 -21 -72 0 -43
      36 -68 83 -59 43 8 141 67 210 126 36 31 47 37 36 20 -39 -61 -31 -134 16
      -146 14 -3 46 -1 71 6 47 13 137 71 191 123 l32 30 -10 -37 c-21 -78 18 -134
      84 -122 31 6 89 39 147 85 l26 20 -4 -34 c-3 -24 2 -39 17 -54 12 -12 31 -21
      43 -21 37 0 100 37 191 110 83 67 85 68 71 35 -8 -19 -14 -52 -14 -74 0 -30 6
      -44 22 -55 12 -9 34 -16 48 -16 33 0 121 42 174 82 66 51 166 151 159 161 -3
      5 -24 -9 -47 -31 -63 -60 -152 -130 -196 -152 -22 -11 -53 -20 -70 -20 -25 0
      -30 4 -30 24 0 27 70 137 157 246 48 61 83 91 176 153 142 94 245 176 348 274
      128 122 182 219 144 256 -9 10 -27 17 -39 17 -13 0 -45 -12 -72 -26z m90 -20
      c17 -45 -114 -194 -302 -342 -123 -98 -233 -173 -212 -146 35 46 203 246 266
      316 105 116 192 188 230 188 7 0 15 -7 18 -16z m-2776 -601 c5 -34 -31 -94
      -108 -175 -72 -78 -160 -144 -195 -148 -37 -4 -45 0 -45 23 0 35 52 116 124
      194 83 89 150 135 191 131 22 -2 31 -9 33 -25z m1750 0 c5 -38 -28 -92 -110
      -178 -96 -101 -161 -147 -203 -143 -25 3 -30 7 -27 28 5 42 63 128 142 209 41
      42 91 84 110 94 47 23 84 19 88 -10z M4691 1249 c-102 -51 -322 -273 -548
      -554 -83 -104 -150 -170 -269 -266 -102 -83 -143 -109 -175 -109 -34 0 -37 17
      -12 58 18 28 130 171 202 257 22 27 41 52 41 55 0 3 -22 4 -48 2 -40 -3 -51
      -9 -67 -33 -21 -30 -38 -39 -29 -15 3 8 -4 24 -16 36 -19 19 -31 22 -74 18
      -28 -3 -77 -17 -110 -34 -35 -17 -99 -65 -155 -117 -200 -185 -351 -276 -351
      -213 0 7 38 58 84 114 94 113 123 172 107 215 -14 36 -51 44 -106 22 -47 -17
      -146 -86 -179 -123 -29 -33 -38 -26 -16 10 24 40 25 76 4 106 -36 51 -98 19
      -252 -131 -139 -134 -200 -186 -249 -211 -39 -19 -73 -21 -73 -3 0 22 51 95
      158 227 56 69 102 127 102 130 0 3 -20 4 -45 2 -35 -3 -50 -11 -70 -34 -22
      -26 -25 -27 -25 -9 0 27 -37 51 -77 51 -45 0 -106 -25 -183 -76 -108 -71 -180
      -174 -180 -259 0 -32 6 -51 20 -65 11 -11 32 -20 46 -20 35 0 105 35 154 77
      21 18 40 33 42 33 2 0 2 -16 0 -35 -5 -44 19 -75 58 -75 58 0 131 52 290 205
      87 83 174 160 195 169 48 23 63 10 41 -33 -9 -17 -73 -99 -141 -181 l-125
      -150 47 0 c47 0 49 1 122 83 40 45 112 117 160 160 92 83 204 148 222 130 15
      -15 -2 -44 -83 -138 -76 -87 -108 -140 -108 -180 0 -32 33 -65 65 -65 14 0 42
      7 62 15 40 17 127 78 182 129 25 23 32 26 25 11 -5 -11 -9 -42 -9 -68 0 -39 5
      -53 24 -68 13 -10 34 -19 47 -19 38 0 95 27 146 71 26 21 48 39 50 39 2 0 2
      -16 0 -35 -3 -25 1 -42 14 -56 15 -17 27 -20 57 -16 51 7 129 56 232 144 l84
      73 -24 -52 c-33 -70 -32 -112 1 -145 23 -23 31 -25 74 -20 55 7 112 33 185 85
      69 50 186 163 179 174 -3 4 -38 -20 -77 -56 -97 -86 -179 -142 -237 -161 -37
      -12 -54 -14 -69 -5 -12 6 -21 17 -21 24 0 27 63 133 137 232 68 90 87 107 172
      162 53 33 133 88 178 122 177 131 323 294 323 360 0 32 -23 60 -49 60 -10 0
      -46 -14 -80 -31z m99 -26 c0 -46 -85 -151 -208 -255 -93 -79 -284 -219 -291
      -213 -6 7 238 296 324 382 80 80 135 116 162 106 7 -3 13 -12 13 -20z m-2302
      -580 c6 -38 -37 -104 -126 -193 -89 -90 -151 -130 -198 -130 -25 0 -26 2 -20
      33 4 17 23 57 43 87 47 71 171 196 214 215 47 20 83 16 87 -12z m1262 12 c7
      -8 9 -23 4 -37 -19 -64 -154 -217 -233 -267 -59 -37 -95 -45 -111 -26 -9 11
      -9 22 -1 47 16 47 102 159 168 217 85 76 145 99 173 66z M7614 922 c-18 -12
      -32 -44 -26 -64 6 -23 47 -34 68 -17 27 22 36 47 24 69 -11 20 -45 26 -66 12z"/>
    </g>
    <g opacity="0.33333333" transform="translate(0,190) scale(0.100000,-0.100000)">
      <path d="M2646 1625 c-32 -13 -83 -40 -112 -59 l-54 -36 -49 25 c-27 13 -82
      34 -123 46 -54 16 -111 23 -218 26 -122 5 -164 2 -258 -16 -131 -25 -223 -57
      -342 -116 -110 -56 -197 -118 -277 -197 -81 -79 -145 -174 -172 -255 -12 -34
      -21 -86 -21 -115 1 -92 51 -168 135 -204 22 -9 78 -19 125 -21 92 -5 183 10
      280 49 183 73 352 230 415 386 31 78 33 140 3 177 -12 15 -36 34 -54 41 -19 8
      -55 14 -81 14 -68 0 -198 -49 -282 -104 -88 -59 -185 -153 -238 -232 -53 -79
      -56 -84 -45 -84 5 0 21 17 35 38 98 148 264 280 417 332 49 17 82 21 134 18
      57 -3 72 -8 87 -27 11 -13 19 -37 19 -55 0 -55 -54 -149 -132 -231 -40 -43
      -99 -98 -131 -122 -74 -57 -206 -127 -282 -149 -34 -10 -94 -18 -140 -18 -64
      0 -90 5 -128 23 -66 32 -91 71 -95 151 -3 47 2 81 16 122 27 76 81 156 162
      236 192 193 476 315 765 329 71 3 150 1 193 -6 87 -14 188 -46 221 -70 l23
      -18 -33 -23 c-51 -36 -213 -196 -283 -280 -35 -41 -125 -158 -201 -260 -76
      -102 -169 -222 -207 -267 -176 -211 -329 -330 -487 -377 -30 -9 -90 -16 -133
      -16 -84 0 -136 16 -175 52 -26 24 -31 50 -8 42 24 -10 64 5 76 27 27 52 -25
      102 -83 78 -16 -6 -33 -20 -38 -30 -6 -10 -10 -35 -10 -57 0 -48 27 -85 83
      -114 33 -17 64 -23 143 -26 80 -3 119 0 185 17 97 24 221 81 311 142 87 59
      232 206 315 319 38 52 118 167 178 255 149 221 231 329 320 421 l76 79 28 -33
      c80 -94 64 -263 -38 -409 -27 -38 -71 -89 -98 -113 -26 -23 -80 -58 -120 -77
      -65 -31 -79 -34 -140 -31 -37 2 -75 6 -83 8 -9 3 -15 -1 -15 -10 0 -8 19 -20
      45 -28 85 -25 233 3 339 65 99 58 184 161 222 271 16 44 20 75 16 137 -4 90
      -25 140 -84 206 -30 33 -34 42 -22 50 59 39 149 89 172 94 15 4 27 13 27 21 0
      8 -3 14 -7 14 -5 0 -34 -11 -67 -25z M5615 1475 c-83 -15 -185 -52 -247 -88
      -69 -40 -141 -110 -171 -166 -15 -28 -30 -72 -34 -98 -7 -60 10 -123 43 -163
      48 -56 102 -80 241 -106 20 -4 18 -9 -32 -83 -29 -43 -63 -105 -75 -138 -12
      -32 -25 -91 -28 -130 -4 -64 -2 -79 22 -128 21 -42 38 -61 74 -83 43 -25 55
      -27 147 -26 88 0 109 4 180 32 98 39 182 94 257 169 69 68 108 140 108 200 0
      34 -6 49 -26 68 -14 13 -42 26 -62 30 -52 8 -123 -10 -206 -52 -51 -27 -96
      -62 -161 -127 -49 -50 -101 -111 -114 -135 -13 -24 -19 -42 -14 -40 6 2 32 33
      59 69 99 130 270 245 384 257 47 4 59 2 83 -17 19 -15 27 -30 27 -53 0 -81
      -138 -233 -279 -306 -136 -71 -256 -89 -338 -52 -41 19 -64 49 -76 102 -8 33
      15 124 47 187 26 50 125 188 170 235 18 18 37 27 57 27 56 0 232 40 354 81
      148 49 321 131 419 199 124 86 206 186 206 250 0 12 -13 35 -29 51 -26 26 -36
      29 -94 29 -35 0 -99 -9 -143 -20 -98 -25 -291 -118 -421 -202 -119 -76 -260
      -188 -371 -292 l-82 -78 -48 6 c-79 12 -143 37 -183 73 -43 39 -64 96 -54 146
      12 56 58 128 114 178 66 59 158 108 271 145 75 24 103 28 240 31 85 2 157 6
      160 11 15 22 -263 28 -375 7z m956 -45 c28 -15 24 -66 -7 -112 -52 -74 -192
      -177 -349 -255 -154 -77 -384 -152 -515 -167 l-55 -7 90 87 c109 104 241 211
      355 288 101 68 245 141 315 161 61 16 140 19 166 5z M9175 1271 c-118 -53
      -318 -256 -627 -634 -85 -103 -223 -229 -317 -289 -45 -28 -91 -37 -91 -17 0
      26 64 115 192 266 43 51 78 95 78 98 0 3 -19 5 -41 5 -35 0 -47 -6 -75 -36
      -28 -29 -34 -32 -34 -16 0 30 -32 52 -77 52 -26 0 -65 -13 -113 -36 -51 -26
      -100 -63 -168 -128 -157 -150 -251 -216 -307 -216 -55 0 -27 51 144 265 l113
      140 71 5 c44 3 72 10 75 18 3 8 -12 12 -52 12 -31 0 -56 3 -56 6 0 4 34 46 75
      94 41 48 72 89 70 91 -2 2 -24 3 -49 1 -44 -4 -48 -7 -121 -97 l-75 -94 -57
      -3 c-34 -2 -58 -8 -61 -15 -2 -9 10 -13 43 -13 l46 0 -63 -77 c-78 -97 -140
      -158 -244 -239 -114 -89 -194 -122 -194 -79 0 19 45 81 163 225 60 73 107 133
      105 135 -2 1 -24 -1 -49 -4 -44 -6 -52 -12 -116 -86 -85 -98 -237 -225 -320
      -266 -60 -30 -83 -31 -83 -5 0 7 41 59 90 117 50 57 97 118 105 136 18 36 19
      67 5 94 -25 45 -157 3 -253 -81 -25 -22 -48 -40 -51 -40 -3 0 29 44 72 98 43
      53 109 137 147 186 l69 89 -44 -7 c-24 -4 -45 -8 -45 -9 0 -1 -34 -42 -75 -92
      -144 -176 -360 -383 -491 -471 -54 -36 -99 -45 -99 -19 0 9 8 28 17 43 17 27
      146 191 210 266 18 22 33 43 33 48 0 4 -18 8 -39 8 -32 0 -44 -6 -70 -35 -24
      -28 -31 -32 -31 -17 0 10 -9 27 -20 37 -15 14 -31 17 -69 13 -27 -3 -73 -17
      -103 -31 -114 -57 -229 -177 -248 -261 -5 -21 -4 -52 1 -71 16 -58 62 -70 134
      -35 23 11 60 36 83 56 l42 36 0 -40 c0 -44 23 -72 59 -72 49 0 164 78 296 200
      l69 65 -75 -90 c-196 -234 -369 -445 -369 -450 0 -3 20 -5 43 -5 l44 0 108
      133 c199 241 278 329 357 396 128 108 233 163 252 132 7 -10 -23 -49 -122
      -163 -79 -91 -103 -142 -84 -183 6 -13 23 -27 37 -31 48 -12 150 40 250 128
      l47 41 -21 -39 c-26 -48 -27 -95 -3 -117 10 -10 31 -17 46 -17 50 0 150 59
      245 144 34 30 34 30 18 4 -9 -15 -19 -44 -23 -66 -5 -32 -2 -44 15 -61 13 -13
      34 -21 54 -21 44 0 118 38 195 100 l63 51 -7 -50 c-6 -44 -4 -52 19 -75 15
      -14 35 -26 47 -26 32 0 89 27 145 69 l50 38 -3 -38 c-3 -31 0 -40 22 -54 18
      -12 36 -15 60 -11 39 8 114 56 198 128 l58 50 -15 -36 c-21 -49 -19 -109 3
      -129 10 -10 32 -17 49 -17 54 0 164 65 256 151 48 44 84 85 81 90 -3 5 -35
      -17 -72 -49 -133 -116 -190 -152 -242 -152 -25 0 -30 4 -30 23 0 29 54 114
      147 232 58 75 85 99 185 166 158 106 299 221 390 318 72 76 118 148 118 183 0
      23 -28 48 -53 48 -12 0 -40 -9 -62 -19z m74 -25 c20 -24 -23 -92 -118 -186
      -82 -81 -249 -217 -356 -290 l-50 -34 40 50 c203 253 360 420 430 457 17 9 33
      16 36 17 4 0 12 -6 18 -14z m-2771 -604 c5 -35 -44 -108 -132 -198 -83 -83
      -145 -124 -191 -124 -19 0 -25 5 -25 20 0 12 7 35 16 53 45 86 186 235 249
      263 16 8 41 13 55 11 18 -1 26 -9 28 -25z m1750 1 c5 -37 -26 -88 -109 -176
      -86 -93 -161 -147 -202 -147 -23 0 -27 4 -27 29 0 17 16 53 40 88 51 77 157
      186 207 212 49 26 87 24 91 -6z M4706 1260 c-58 -29 -132 -88 -225 -181 -84
      -83 -260 -284 -358 -409 -115 -145 -363 -350 -425 -350 -17 0 -28 5 -28 14 0
      21 69 119 169 241 50 61 91 113 91 116 0 3 -18 6 -40 7 -31 2 -45 -4 -65 -25
      -14 -16 -25 -31 -25 -35 0 -5 -4 -8 -10 -8 -5 0 -7 6 -4 14 3 8 -4 24 -16 36
      -19 19 -31 22 -75 18 -29 -3 -78 -17 -110 -33 -32 -15 -90 -58 -129 -95 -111
      -104 -246 -211 -300 -236 -48 -22 -76 -22 -76 0 0 7 41 61 90 121 54 66 94
      124 100 146 19 70 -19 111 -87 94 -36 -8 -141 -76 -178 -115 -16 -16 -33 -30
      -37 -30 -5 0 -2 13 7 30 20 39 19 83 -3 103 -44 40 -102 9 -236 -121 -147
      -143 -212 -200 -258 -223 -43 -22 -78 -25 -78 -6 0 22 51 95 158 227 56 69
      102 129 102 133 0 5 -19 6 -42 2 -25 -4 -55 -18 -70 -33 -21 -19 -28 -22 -28
      -10 0 25 -34 48 -73 48 -53 0 -127 -31 -200 -83 -65 -46 -137 -130 -156 -180
      -6 -16 -11 -48 -11 -73 0 -31 6 -50 21 -65 17 -17 29 -20 61 -16 35 5 78 29
      163 92 20 14 21 13 17 -21 -5 -43 19 -74 58 -74 57 0 131 52 291 205 87 84
      175 160 195 170 44 21 62 9 43 -26 -17 -33 -81 -115 -182 -234 l-85 -100 44
      -3 44 -3 122 127 c68 70 149 147 180 171 70 53 146 89 160 75 14 -14 0 -37
      -83 -134 -78 -91 -109 -144 -109 -183 0 -14 10 -35 21 -46 17 -17 29 -20 61
      -16 48 6 131 56 206 122 33 29 52 42 47 30 -4 -11 -10 -39 -13 -62 -3 -35 0
      -46 22 -67 15 -16 36 -26 54 -26 36 0 118 41 160 80 l32 31 0 -39 c0 -26 7
      -45 20 -57 43 -39 138 5 285 132 84 73 85 73 64 32 -12 -22 -24 -60 -27 -84
      -4 -37 -1 -47 21 -69 19 -19 37 -26 64 -26 43 0 120 33 190 81 63 44 194 169
      187 180 -3 5 -37 -19 -77 -54 -40 -34 -96 -79 -125 -101 -61 -44 -146 -79
      -172 -71 -45 14 -30 64 57 189 98 142 130 174 252 253 64 41 154 106 201 143
      154 123 270 261 270 321 0 33 -24 59 -53 59 -12 -1 -39 -9 -61 -20z m84 -35
      c0 -56 -123 -194 -280 -316 -107 -83 -220 -162 -220 -155 0 8 184 231 269 325
      97 108 164 161 202 161 19 0 29 -5 29 -15z m-2302 -586 c4 -36 -63 -132 -148
      -213 -76 -71 -139 -109 -173 -104 -17 2 -22 9 -20 32 1 16 19 54 39 85 46 69
      167 190 214 214 19 9 46 16 60 15 19 -2 26 -10 28 -29z m1263 15 c11 -14 9
      -25 -16 -72 -17 -32 -65 -93 -110 -139 -57 -58 -98 -90 -139 -109 -52 -23 -60
      -25 -73 -11 -13 13 -13 20 6 62 26 59 108 162 169 213 84 70 136 88 163 56z
      M7608 918 c-9 -7 -19 -23 -22 -34 -8 -27 18 -56 47 -52 11 2 29 15 40 29 15
      22 17 30 8 48 -13 24 -49 28 -73 9z"/>
    </g>
    <g opacity="0.50000000" transform="translate(0,190) scale(0.100000,-0.100000)">
      <path d="M2654 1629 c-28 -10 -79 -36 -114 -58 l-64 -38 -60 28 c-34 16 -90
      36 -126 46 -52 14 -102 18 -250 17 -167 0 -194 -3 -283 -27 -184 -49 -365
      -140 -487 -244 -71 -61 -139 -136 -177 -197 -14 -21 -36 -67 -49 -102 -55
      -148 -12 -278 111 -330 54 -22 177 -29 261 -15 38 7 102 25 142 41 188 76 352
      228 418 388 13 32 24 78 24 105 0 40 -5 53 -34 85 l-35 37 -83 -1 c-59 0 -100
      -6 -142 -22 -156 -57 -320 -197 -415 -354 -35 -58 -9 -45 34 17 20 30 77 93
      125 138 70 67 109 94 193 137 91 46 114 53 179 58 56 3 82 0 105 -12 20 -10
      34 -26 38 -45 14 -66 -29 -153 -134 -264 -44 -46 -114 -108 -156 -136 -87 -61
      -196 -113 -275 -132 -72 -17 -186 -15 -231 5 -51 22 -97 71 -105 112 -12 67 1
      140 41 221 31 63 58 98 139 179 61 61 132 120 179 149 211 129 462 195 697
      182 64 -4 133 -15 175 -28 68 -21 151 -57 143 -63 -1 -2 -35 -30 -73 -62 -115
      -96 -244 -242 -401 -452 -189 -252 -292 -378 -391 -475 -90 -88 -153 -136
      -235 -178 -79 -40 -158 -59 -245 -59 -79 0 -132 16 -170 52 -32 30 -29 45 6
      40 20 -3 35 2 50 17 12 12 21 30 21 41 0 24 -34 60 -55 60 -34 0 -74 -30 -85
      -64 -9 -27 -8 -41 3 -69 18 -42 68 -81 122 -96 22 -6 80 -11 128 -11 99 0 208
      24 303 66 156 69 339 224 471 399 33 44 124 174 203 290 154 226 231 326 324
      420 l59 59 27 -33 c32 -38 50 -99 50 -168 -1 -105 -83 -261 -186 -352 -26 -23
      -77 -56 -113 -74 -55 -27 -77 -32 -136 -32 -38 0 -79 2 -90 5 -13 3 -20 0 -20
      -10 0 -10 19 -20 54 -29 44 -12 68 -13 135 -3 114 16 212 66 297 151 44 44 77
      89 100 136 32 65 34 77 34 170 0 85 -3 106 -23 143 -13 24 -39 60 -58 82 l-35
      38 33 25 c35 27 115 69 161 86 16 6 25 15 22 21 -3 5 -9 10 -13 9 -4 0 -30 -9
      -58 -20z M5627 1480 c-71 -12 -175 -48 -241 -83 -78 -42 -155 -113 -190 -176
      -33 -61 -44 -142 -26 -195 16 -49 63 -102 113 -127 32 -17 148 -48 180 -49 4
      0 -8 -21 -28 -47 -20 -26 -55 -85 -78 -131 -36 -74 -41 -93 -45 -170 -3 -77
      -1 -92 20 -132 16 -29 41 -55 71 -74 38 -23 62 -30 120 -34 87 -5 171 14 272
      62 39 18 99 56 135 85 111 89 170 178 170 256 0 35 -6 52 -23 69 -13 13 -42
      27 -65 31 -54 9 -151 -16 -222 -58 -67 -39 -227 -196 -258 -254 -13 -24 -20
      -43 -15 -43 5 0 29 28 53 61 49 68 138 150 215 198 65 41 176 75 217 67 42 -8
      68 -33 68 -66 0 -49 -49 -127 -125 -198 -118 -110 -277 -182 -400 -182 -65 1
      -129 30 -149 69 -25 48 -20 123 14 204 28 68 106 183 176 260 28 30 39 35 100
      40 81 8 264 55 384 99 115 41 307 140 378 193 86 65 158 146 173 193 9 32 9
      47 0 70 -7 16 -24 34 -37 41 -39 17 -140 13 -227 -10 -43 -12 -140 -52 -215
      -90 -212 -105 -358 -208 -555 -390 l-98 -91 -47 6 c-85 12 -142 37 -187 80
      -48 47 -62 93 -46 154 24 89 124 193 240 251 70 35 167 67 249 81 35 6 116 10
      180 9 117 -1 153 9 77 23 -53 9 -267 8 -328 -2z m947 -56 c43 -43 -5 -125
      -126 -216 -128 -97 -255 -164 -430 -229 -82 -30 -242 -71 -328 -84 l-45 -7 30
      32 c41 44 227 206 300 262 80 60 218 149 282 182 134 67 282 95 317 60z M9163
      1265 c-28 -14 -84 -54 -124 -89 -110 -93 -239 -233 -415 -446 -155 -189 -258
      -289 -381 -373 -56 -37 -103 -48 -103 -24 0 20 84 135 184 255 47 56 86 105
      86 107 0 3 -20 5 -44 5 -39 0 -48 -4 -75 -37 -26 -32 -31 -34 -31 -17 0 12 -9
      29 -20 39 -15 14 -31 17 -69 13 -79 -8 -155 -53 -266 -159 -160 -153 -253
      -219 -310 -219 -31 0 -33 22 -4 70 12 19 76 103 143 187 l121 152 69 3 c43 2
      71 8 73 15 3 8 -14 13 -53 15 l-58 3 78 93 c43 52 76 95 74 96 -1 1 -24 1 -50
      -2 -46 -4 -49 -6 -123 -97 l-76 -94 -56 -3 c-70 -4 -84 -25 -19 -30 l44 -3
      -77 -91 c-42 -50 -108 -119 -147 -153 -98 -88 -209 -161 -245 -161 -18 0 -29
      5 -29 14 0 20 41 78 161 223 60 72 109 134 109 137 0 3 -19 6 -41 6 -38 0 -46
      -5 -87 -52 -81 -93 -187 -191 -271 -252 -78 -56 -147 -90 -163 -79 -5 2 -8 10
      -8 17 0 7 40 59 89 115 49 56 96 117 105 136 19 38 20 68 6 96 -8 14 -21 19
      -51 19 -49 0 -139 -45 -203 -102 -24 -21 -47 -38 -50 -38 -3 0 39 55 92 123
      54 67 119 150 146 185 43 57 45 62 24 61 -13 -1 -32 -4 -44 -7 -11 -4 -56 -50
      -99 -102 -149 -180 -357 -378 -499 -474 -45 -31 -86 -35 -86 -8 0 20 97 151
      198 269 39 44 68 84 65 87 -4 3 -23 6 -44 6 -30 0 -43 -7 -68 -35 -24 -28 -31
      -32 -31 -17 0 10 -9 27 -20 37 -15 14 -31 17 -69 13 -27 -3 -73 -17 -103 -31
      -80 -39 -178 -126 -217 -192 -27 -45 -35 -68 -35 -108 0 -40 5 -53 23 -68 13
      -11 35 -19 50 -19 35 1 97 30 146 70 l40 32 6 -42 c3 -23 12 -46 20 -51 19
      -12 52 -11 86 2 39 15 165 111 247 188 l70 66 -75 -90 c-243 -291 -369 -444
      -369 -450 0 -3 20 -5 45 -3 l45 3 188 225 c194 233 298 335 414 403 70 41 108
      48 108 18 0 -10 -38 -61 -85 -112 -86 -94 -125 -157 -125 -197 0 -29 34 -62
      63 -62 36 0 137 54 205 109 34 28 62 49 62 47 0 -2 -7 -17 -15 -32 -20 -39
      -19 -87 3 -107 10 -10 32 -17 48 -17 43 0 119 41 197 105 37 31 67 54 67 51 0
      -2 -7 -17 -15 -32 -8 -16 -15 -41 -15 -56 0 -38 32 -68 73 -68 44 0 118 38
      194 99 l62 50 -6 -47 c-4 -38 -1 -52 17 -74 13 -17 31 -28 46 -28 36 0 91 26
      149 69 l51 38 -4 -34 c-3 -23 1 -40 13 -53 38 -42 110 -16 235 85 47 39 80 60
      76 49 -16 -37 -24 -87 -19 -103 25 -70 96 -67 213 7 64 40 202 171 194 183 -3
      5 -39 -21 -80 -57 -141 -123 -243 -173 -261 -128 -3 9 1 31 10 48 8 18 57 88
      107 155 85 113 99 127 198 193 158 106 257 183 355 277 95 91 167 189 167 226
      0 30 -25 55 -54 55 -12 0 -45 -11 -73 -25z m86 -18 c8 -10 6 -23 -7 -49 -10
      -19 -36 -56 -56 -82 -61 -73 -272 -250 -426 -356 l-35 -24 40 49 c168 211 368
      425 425 456 19 10 38 18 41 19 4 0 12 -6 18 -13z m-2785 -583 c9 -3 16 -16 16
      -28 0 -53 -131 -208 -232 -276 -63 -42 -118 -53 -118 -25 0 52 96 186 193 268
      69 59 105 75 141 61z m1764 -21 c5 -35 -32 -95 -113 -181 -83 -89 -158 -142
      -198 -142 -23 0 -27 4 -27 29 0 17 16 53 39 87 49 74 162 188 210 214 47 25
      85 22 89 -7z M4694 1254 c-122 -65 -294 -241 -590 -606 -64 -78 -217 -216
      -318 -287 -60 -42 -116 -55 -116 -27 0 21 70 121 170 239 49 59 90 112 90 117
      0 6 -18 10 -39 10 -32 0 -46 -6 -70 -32 -17 -18 -31 -27 -31 -20 0 6 -9 21
      -20 32 -26 26 -83 26 -148 2 -64 -25 -109 -56 -208 -147 -109 -100 -200 -172
      -246 -196 -37 -19 -88 -26 -88 -11 0 14 39 67 99 137 64 74 101 137 101 173 0
      31 -35 62 -69 62 -35 0 -112 -40 -169 -88 -24 -21 -53 -44 -64 -52 -20 -14
      -20 -14 -4 17 21 42 20 86 -2 106 -10 10 -30 17 -43 17 -14 0 -46 -13 -71 -29
      -25 -16 -100 -83 -166 -149 -66 -66 -149 -138 -182 -161 -62 -41 -110 -53
      -110 -28 0 20 48 89 159 227 56 69 101 128 101 133 0 4 -17 7 -37 7 -28 0 -45
      -8 -70 -32 -23 -22 -33 -27 -33 -17 0 9 -9 24 -20 34 -15 14 -31 17 -70 13
      -73 -7 -174 -62 -246 -133 -33 -34 -71 -83 -84 -110 -14 -29 -23 -66 -23 -93
      0 -36 5 -49 24 -65 37 -30 90 -17 174 41 l71 49 -4 -34 c-5 -42 20 -73 58 -73
      57 0 131 52 288 202 151 145 216 194 239 180 21 -13 -12 -64 -139 -217 l-125
      -150 43 -3 43 -3 143 145 c148 150 249 226 300 226 15 0 28 -4 28 -8 0 -12
      -48 -76 -113 -150 -61 -70 -87 -116 -87 -156 0 -14 10 -36 21 -47 17 -17 29
      -20 61 -16 48 6 131 55 204 120 47 43 53 45 44 22 -5 -14 -10 -42 -10 -61 0
      -44 37 -84 78 -84 36 0 117 40 160 79 l32 30 0 -38 c0 -45 24 -71 64 -71 44 0
      134 53 228 135 l86 74 -19 -50 c-26 -67 -24 -105 6 -134 17 -18 35 -25 62 -25
      75 0 219 88 331 203 30 30 50 57 44 61 -5 3 -31 -15 -58 -40 -73 -68 -157
      -131 -212 -160 -54 -28 -109 -34 -122 -14 -13 21 7 71 65 155 95 139 143 194
      206 233 142 87 281 194 380 292 106 104 149 166 149 214 0 31 -24 56 -54 56
      -13 0 -45 -12 -72 -26z m96 -32 c0 -51 -127 -192 -280 -312 -92 -73 -220 -163
      -220 -156 0 8 191 237 279 335 42 46 96 99 121 117 50 38 100 45 100 16z
      m-2302 -583 c4 -36 -63 -132 -148 -213 -97 -92 -181 -131 -196 -92 -3 8 9 43
      28 78 37 71 173 214 228 241 19 9 46 16 60 15 19 -2 26 -10 28 -29z m1261 12
      c15 -28 -26 -103 -102 -186 -69 -75 -119 -115 -178 -139 -30 -12 -39 -13 -54
      -2 -17 12 -16 15 4 61 25 57 113 167 172 215 85 69 139 87 158 51z M7600 910
      c-11 -11 -20 -25 -20 -31 0 -24 22 -49 44 -49 25 0 66 38 66 61 0 40 -57 52
      -90 19z"/>
    </g>
    <g opacity="1.00000000" transform="translate(0,190) scale(0.100000,-0.100000)">
      <path d="M2654 1629 c-28 -10 -79 -37 -115 -58 l-64 -39 -45 23 c-25 12 -76
      33 -115 45 -56 18 -101 24 -225 27 -119 4 -176 1 -245 -12 -187 -35 -372 -111
      -514 -212 -83 -60 -176 -154 -226 -229 -53 -80 -85 -171 -85 -243 0 -45 7 -71
      28 -112 23 -45 37 -59 85 -83 47 -24 74 -30 143 -34 96 -5 176 8 277 45 160
      60 331 207 401 345 66 131 60 225 -18 262 -72 34 -205 11 -326 -56 -83 -46
      -175 -123 -238 -199 -60 -72 -109 -149 -94 -149 5 0 28 26 50 59 52 74 182
      196 255 240 31 18 85 44 119 58 74 30 175 41 217 23 16 -6 34 -24 41 -40 25
      -61 -20 -157 -127 -270 -118 -125 -257 -216 -397 -259 -89 -27 -214 -28 -271
      -2 -22 10 -53 33 -70 50 -28 31 -30 37 -30 115 0 75 3 89 38 158 45 91 148
      206 259 288 129 97 303 171 493 211 33 7 125 13 205 13 107 0 162 -4 210 -17
      66 -18 176 -64 169 -71 -2 -2 -35 -29 -74 -60 -105 -86 -241 -239 -403 -456
      -80 -107 -183 -240 -228 -295 -91 -111 -235 -254 -304 -302 -110 -75 -222
      -113 -331 -113 -35 0 -82 5 -103 11 -37 10 -96 57 -96 76 0 5 13 8 29 5 20 -3
      35 2 50 17 12 12 21 30 21 41 0 23 -33 60 -54 60 -36 0 -68 -22 -82 -56 -12
      -28 -13 -43 -4 -68 15 -46 59 -85 115 -102 62 -18 212 -18 293 1 162 38 345
      149 483 292 96 99 180 209 319 418 131 197 246 348 329 433 80 82 84 83 124 8
      17 -33 22 -58 22 -127 0 -81 -2 -90 -43 -172 -81 -163 -235 -285 -373 -295
      -32 -2 -72 0 -88 6 -21 7 -33 8 -37 1 -10 -17 9 -29 69 -41 44 -9 73 -9 129 0
      43 7 104 27 148 49 98 48 194 142 240 237 29 58 35 82 38 156 4 79 2 94 -22
      147 -15 32 -43 74 -62 94 l-36 37 34 25 c18 14 68 42 111 62 42 21 74 41 71
      46 -3 5 -8 9 -12 8 -4 0 -30 -9 -58 -20z M5640 1483 c-73 -12 -182 -48 -243
      -80 -38 -20 -93 -58 -121 -84 -29 -26 -64 -70 -80 -98 -33 -61 -44 -142 -26
      -195 16 -49 63 -102 113 -127 32 -17 148 -48 180 -49 4 0 -10 -24 -32 -52 -22
      -29 -57 -89 -78 -133 -36 -75 -38 -85 -38 -176 0 -88 2 -99 28 -138 40 -60
      109 -91 203 -91 80 0 176 25 266 71 65 33 157 103 206 157 50 56 82 124 82
      177 0 35 -6 52 -24 70 -13 13 -41 27 -61 31 -21 4 -61 1 -92 -6 -106 -23 -222
      -101 -319 -212 -53 -60 -101 -138 -86 -138 5 0 32 31 60 69 57 78 180 182 259
      218 28 13 75 29 105 35 43 9 59 8 83 -3 16 -8 34 -26 39 -41 29 -83 -132 -263
      -309 -344 -125 -57 -228 -69 -302 -33 -24 12 -50 34 -58 50 -22 42 -19 121 9
      189 29 71 97 175 165 251 49 55 51 56 118 62 91 9 281 59 406 107 128 50 264
      119 342 175 114 82 195 179 195 234 0 31 -20 68 -44 79 -38 19 -72 22 -137 11
      -94 -14 -200 -52 -321 -113 -191 -97 -373 -228 -551 -396 l-87 -82 -61 11
      c-86 15 -161 52 -194 95 -23 30 -28 47 -28 91 0 44 7 65 34 111 64 106 200
      196 374 246 67 19 105 22 232 23 98 0 152 4 150 10 -2 6 -17 13 -33 16 -32 7
      -285 9 -324 2z m928 -59 c12 -8 22 -25 22 -38 0 -36 -54 -108 -122 -162 -139
      -111 -302 -195 -510 -263 -114 -37 -295 -77 -305 -67 -4 4 153 150 243 224
      169 141 392 274 514 306 73 19 130 20 158 0z M9141 1253 c-118 -69 -335 -295
      -588 -609 -80 -99 -214 -222 -314 -290 -52 -35 -83 -42 -95 -23 -8 14 64 118
      176 252 49 59 90 109 90 112 0 3 -20 5 -44 5 -38 0 -48 -5 -75 -35 -25 -29
      -31 -32 -31 -16 0 33 -28 51 -79 51 -76 0 -156 -46 -274 -159 -166 -157 -256
      -221 -312 -221 -32 0 -33 22 -2 71 12 20 76 104 142 187 l120 151 69 3 c43 2
      71 8 73 15 3 8 -14 13 -52 15 l-56 3 77 93 c42 51 74 96 70 99 -3 3 -26 2 -51
      -1 -43 -7 -50 -13 -121 -102 l-76 -94 -59 0 c-46 0 -59 -3 -59 -15 0 -11 12
      -15 46 -15 l45 0 -63 -76 c-132 -160 -345 -334 -409 -334 -18 0 -29 5 -29 14
      0 20 41 76 161 222 60 73 109 135 109 138 0 3 -20 6 -44 6 -43 0 -46 -2 -111
      -80 -109 -131 -327 -300 -387 -300 -15 0 -28 3 -28 6 0 15 30 56 90 124 37 41
      79 93 93 115 31 45 36 105 11 126 -9 7 -30 13 -48 12 -38 -1 -141 -51 -188
      -91 -58 -48 -75 -58 -46 -27 14 17 81 100 147 185 107 138 118 155 98 158 -13
      2 -32 -1 -43 -5 -12 -4 -56 -51 -100 -103 -153 -185 -331 -355 -478 -459 -60
      -41 -106 -53 -106 -27 0 8 16 37 35 66 39 58 193 248 219 269 9 7 16 17 16 22
      0 5 -20 9 -44 9 -38 0 -48 -5 -75 -35 -24 -28 -31 -32 -31 -17 0 31 -32 52
      -81 52 -87 0 -246 -103 -316 -203 -61 -90 -66 -175 -12 -206 38 -21 89 -7 165
      45 36 25 63 40 59 34 -3 -6 -1 -26 5 -45 21 -63 83 -59 186 14 38 26 105 81
      148 122 l80 74 -116 -140 c-64 -77 -163 -196 -221 -265 l-104 -125 46 -3 c53
      -4 25 -31 256 248 167 203 286 318 397 383 70 42 108 48 108 18 0 -11 -35 -57
      -77 -103 -90 -97 -133 -162 -133 -198 0 -14 7 -36 16 -49 14 -20 23 -23 59
      -18 49 5 138 56 208 117 46 41 60 43 32 6 -22 -29 -19 -89 5 -111 15 -13 30
      -16 60 -12 48 6 130 53 200 115 l49 43 -14 -35 c-8 -20 -15 -47 -15 -61 0 -35
      33 -65 73 -65 45 0 140 49 203 104 l51 45 -5 -47 c-3 -38 0 -53 18 -75 37 -47
      91 -35 195 43 l51 37 -4 -34 c-5 -42 20 -73 60 -73 41 0 96 31 186 104 l78 63
      -15 -54 c-14 -51 -13 -55 6 -81 39 -52 116 -38 228 43 71 51 181 160 168 168
      -4 3 -43 -26 -87 -64 -98 -86 -164 -128 -210 -136 -28 -4 -37 -2 -42 12 -4 10
      1 33 12 54 10 20 59 89 108 155 86 114 94 121 222 207 73 48 172 121 221 162
      114 95 222 210 253 269 20 38 22 52 14 75 -7 22 -16 29 -44 31 -26 2 -52 -7
      -99 -35z m108 -42 c-26 -75 -234 -270 -449 -421 -41 -29 -68 -44 -59 -34 9 10
      60 73 115 139 54 66 143 166 197 222 101 104 170 151 193 132 9 -7 10 -18 3
      -38z m-2776 -562 c17 -28 -28 -103 -117 -193 -87 -89 -162 -139 -198 -134 -19
      2 -23 9 -21 32 3 41 64 130 147 211 99 98 163 126 189 84z m1755 -7 c5 -35
      -44 -108 -132 -198 -80 -81 -145 -124 -187 -124 -19 0 -21 4 -16 35 3 18 24
      60 45 92 46 67 163 183 207 207 17 9 41 15 55 13 18 -1 26 -9 28 -25z M4694
      1255 c-108 -54 -287 -235 -538 -542 -83 -101 -150 -171 -232 -240 -63 -54
      -136 -110 -162 -125 -50 -29 -92 -36 -92 -15 0 27 90 149 212 288 32 37 58 69
      58 73 0 3 -22 6 -49 6 -44 0 -52 -4 -72 -31 l-21 -30 -19 30 c-17 28 -23 31
      -71 31 -89 -1 -173 -49 -311 -179 -91 -85 -185 -160 -234 -185 -34 -17 -83
      -22 -83 -7 0 11 31 53 112 151 38 46 73 99 80 122 10 33 9 45 -3 67 -31 55
      -105 37 -223 -54 -68 -51 -81 -59 -70 -37 19 38 18 86 -4 105 -48 43 -111 8
      -275 -154 -73 -72 -158 -148 -191 -170 -58 -39 -106 -51 -106 -26 0 19 66 112
      167 235 46 57 87 110 90 118 4 11 -4 14 -33 14 -29 0 -46 -7 -71 -32 -23 -22
      -33 -27 -33 -17 0 29 -34 49 -82 49 -66 0 -175 -58 -253 -134 -34 -33 -73 -81
      -85 -106 -14 -27 -24 -64 -24 -93 -1 -40 3 -52 24 -69 18 -15 34 -19 62 -15
      39 5 99 37 153 82 l31 24 -4 -35 c-3 -24 1 -41 13 -54 49 -54 154 3 334 179
      69 68 144 137 165 153 43 31 76 36 76 12 0 -22 -43 -81 -164 -224 -58 -69
      -106 -127 -106 -130 0 -3 21 -4 46 -1 44 3 51 8 187 146 147 149 249 225 299
      225 15 0 28 -3 28 -8 0 -12 -30 -52 -90 -122 -85 -97 -110 -139 -110 -182 0
      -29 6 -41 25 -54 18 -11 37 -15 62 -11 46 8 129 58 200 122 32 28 51 40 44 28
      -6 -12 -11 -40 -11 -63 0 -77 68 -112 143 -74 18 9 53 32 80 51 l47 35 0 -35
      c0 -41 25 -67 64 -67 43 0 135 54 229 135 l86 74 -20 -42 c-10 -23 -19 -59
      -19 -80 0 -27 7 -45 25 -62 44 -45 126 -29 237 46 64 43 208 175 208 191 0 19
      -25 5 -73 -41 -123 -117 -226 -181 -291 -181 -34 0 -36 2 -36 33 0 37 42 109
      141 239 52 67 77 89 192 165 72 48 170 120 217 159 105 87 203 192 230 244 23
      44 26 90 8 108 -19 19 -60 14 -114 -13z m92 -30 c10 -25 -40 -96 -128 -182
      -84 -83 -162 -147 -298 -243 l-75 -53 29 39 c47 62 173 211 260 306 80 90 155
      148 188 148 10 0 21 -7 24 -15z m-2298 -583 c2 -12 -8 -42 -21 -65 -38 -64
      -141 -171 -208 -216 -63 -42 -105 -52 -115 -27 -8 21 31 92 92 168 82 102 174
      170 224 165 18 -1 26 -9 28 -25z m1260 -5 c5 -41 -40 -110 -128 -198 -79 -80
      -141 -119 -185 -119 -21 0 -25 5 -25 28 0 60 138 229 239 293 27 18 56 29 71
      27 19 -2 26 -10 28 -31z M7623 930 c-12 -5 -27 -19 -33 -31 -17 -31 2 -69 34
      -69 31 0 68 37 64 64 -4 27 -38 46 -65 36z"/>
    </g>
  </g>
</svg>
