<?xml version="1.0" encoding="UTF-8"?>
<svg xmlns="http://www.w3.org/2000/svg" viewBox="0 0 980 190" width="980" height="190" fill="none">
  <title>Layered spline reconstruction</title>
  <g fill="#f1ead8" stroke="none">
    <g opacity="0.08333333" transform="translate(0,190) scale(0.100000,-0.100000)">
      <path d="M2665 1631 c-61 -22 -87 -35 -143 -73 l-42 -29 -66 32 c-36 17 -110
      40 -163 51 -80 17 -121 19 -241 15 -109 -4 -170 -12 -245 -31 -113 -28 -179
      -52 -268 -98 -115 -57 -202 -120 -293 -212 -73 -73 -99 -109 -133 -177 -30
      -61 -44 -103 -48 -145 -3 -32 0 -78 6 -102 7 -24 28 -61 47 -82 50 -55 114
      -75 239 -75 76 0 118 6 175 24 101 31 195 80 271 141 86 68 153 148 197 234
      30 59 36 82 36 134 1 59 -1 66 -31 92 -18 16 -49 32 -70 36 -62 12 -160 -11
      -258 -60 -96 -49 -189 -121 -261 -206 -48 -56 -99 -138 -92 -146 3 -2 21 20
      41 50 53 80 165 187 252 241 87 54 181 92 240 95 81 5 106 0 132 -26 22 -22
      25 -32 21 -69 -3 -24 -15 -63 -27 -87 -27 -55 -100 -140 -185 -215 -168 -150
      -397 -236 -541 -203 -64 14 -120 51 -141 92 -24 46 -21 139 6 211 12 32 49 94
      81 137 94 125 221 223 392 305 51 25 131 56 179 69 126 36 245 49 383 43 91
      -4 140 -12 202 -31 44 -15 91 -34 103 -44 l22 -18 -56 -43 c-103 -80 -267
      -263 -428 -479 -88 -117 -204 -267 -259 -332 -55 -65 -137 -151 -182 -190 -87
      -75 -197 -138 -286 -164 -61 -18 -187 -21 -242 -6 -41 12 -89 51 -89 74 0 12
      7 14 29 10 21 -5 34 0 50 17 11 12 21 29 21 36 0 8 -11 25 -25 39 -19 19 -31
      23 -48 18 -12 -3 -32 -16 -44 -27 -17 -15 -23 -32 -23 -62 0 -51 25 -87 83
      -118 37 -19 57 -22 167 -22 103 0 138 4 200 23 104 33 236 104 329 179 133
      106 235 232 459 563 125 186 256 354 327 419 l48 44 28 -31 c15 -17 33 -48 38
      -69 18 -64 13 -147 -13 -217 -13 -36 -41 -91 -62 -122 -53 -77 -141 -156 -211
      -191 -52 -25 -69 -28 -155 -28 -54 0 -98 -3 -98 -6 0 -11 49 -28 97 -34 65 -9
      183 17 263 57 37 19 92 59 127 94 45 44 73 83 100 139 29 63 37 92 41 154 3
      61 0 87 -17 132 -12 32 -40 78 -62 103 l-41 46 24 20 c12 11 60 38 106 61 45
      23 82 45 82 50 0 5 -1 9 -2 9 -2 -1 -26 -9 -53 -19z M5638 1480 c-78 -13 -197
      -54 -266 -92 -73 -41 -157 -125 -183 -182 -46 -104 -34 -192 36 -261 32 -33
      60 -49 110 -64 37 -12 79 -21 94 -21 15 0 30 -3 33 -6 4 -3 -18 -42 -48 -86
      -29 -44 -63 -105 -75 -137 -12 -31 -24 -86 -27 -124 -6 -85 14 -142 68 -191
      21 -19 58 -40 82 -47 95 -25 264 11 386 83 76 45 207 174 231 229 27 58 27
      119 1 147 -11 12 -38 26 -60 32 -32 9 -54 8 -102 -5 -33 -8 -87 -29 -120 -47
      -94 -50 -227 -183 -277 -276 -20 -37 6 -25 30 15 13 21 44 60 69 87 101 109
      242 193 342 203 44 4 57 2 81 -17 31 -25 35 -61 12 -116 -21 -52 -139 -169
      -220 -219 -141 -88 -300 -119 -385 -75 -56 29 -75 62 -73 130 1 42 10 77 36
      133 37 79 56 107 145 218 l54 66 66 7 c90 9 282 59 406 105 189 71 336 155
      443 255 62 57 103 123 103 165 0 12 -14 36 -31 53 -30 31 -31 31 -117 25 -62
      -3 -113 -14 -177 -37 -230 -82 -464 -232 -703 -449 l-114 -103 -50 6 c-142 19
      -238 97 -238 194 0 41 44 126 90 176 51 55 142 114 230 149 102 40 205 57 352
      57 103 1 129 3 114 12 -25 14 -273 20 -348 8z m933 -50 c29 -16 25 -69 -9
      -116 -82 -113 -324 -260 -565 -343 -112 -38 -284 -81 -329 -81 -20 0 -17 5 22
      46 79 81 232 209 346 291 119 85 266 166 354 194 62 20 151 24 181 9z M9160
      1261 c-30 -16 -94 -63 -142 -105 -102 -89 -232 -231 -408 -446 -70 -85 -149
      -175 -176 -200 -72 -67 -184 -155 -221 -174 -36 -18 -73 -21 -73 -6 0 24 37
      78 137 203 58 73 112 138 121 145 18 14 14 15 -43 12 -31 -1 -46 -9 -67 -33
      -24 -29 -27 -30 -28 -11 0 11 -8 28 -18 37 -31 28 -91 21 -172 -19 -52 -26
      -99 -62 -169 -130 -144 -139 -221 -195 -297 -218 -13 -4 -26 -1 -32 7 -9 10
      -6 23 9 53 19 35 229 303 270 345 12 12 34 17 70 17 77 1 79 1 79 12 0 6 -25
      10 -55 10 -30 0 -55 3 -55 7 0 3 34 46 75 95 l75 88 -48 0 -48 0 -77 -94 -77
      -95 -57 -3 c-70 -4 -84 -25 -19 -30 l46 -3 -79 -95 c-44 -52 -123 -132 -178
      -178 -110 -93 -216 -153 -236 -133 -19 19 20 80 149 233 l114 138 -48 0 c-47
      0 -50 -1 -99 -63 -65 -79 -137 -147 -233 -220 -80 -59 -163 -102 -180 -92 -6
      3 -10 12 -10 19 0 7 39 57 86 112 91 105 124 158 124 198 0 13 -7 32 -16 40
      -8 9 -30 16 -48 16 -44 0 -140 -49 -203 -105 -28 -25 -54 -45 -58 -45 -3 0 12
      21 34 48 65 75 259 327 256 330 -2 2 -19 0 -39 -4 -32 -5 -52 -24 -135 -123
      -116 -136 -284 -302 -394 -390 -88 -69 -126 -91 -157 -91 -48 0 -16 55 153
      260 l87 105 -42 3 c-37 3 -46 -1 -70 -27 -23 -26 -28 -28 -28 -13 0 11 -9 27
      -20 37 -15 13 -31 16 -67 13 -27 -3 -75 -18 -108 -34 -73 -36 -193 -146 -223
      -207 -29 -58 -30 -129 -2 -157 11 -11 32 -20 47 -20 36 0 100 32 150 75 23 19
      43 35 45 35 2 0 2 -17 0 -38 -3 -28 1 -42 17 -56 15 -14 29 -17 55 -12 49 9
      164 89 271 188 l90 83 -76 -90 c-157 -188 -366 -440 -373 -452 -5 -10 4 -13
      36 -13 l43 0 175 211 c96 116 209 244 253 284 43 40 110 94 148 120 67 45 131
      67 142 48 8 -13 -17 -48 -104 -147 -78 -87 -109 -137 -109 -175 0 -28 34 -61
      63 -61 47 1 159 65 240 139 l39 36 -21 -40 c-11 -22 -21 -54 -21 -72 0 -43 36
      -68 83 -59 42 8 141 67 207 124 l49 42 -19 -42 c-11 -24 -20 -50 -20 -59 0 -9
      10 -29 22 -44 18 -23 26 -26 59 -22 56 7 116 39 192 102 63 52 67 54 60 28 -4
      -15 -8 -43 -7 -62 1 -46 36 -75 82 -67 35 5 95 38 149 82 l32 26 -6 -35 c-4
      -27 -1 -39 16 -56 11 -11 31 -21 43 -21 37 0 100 37 191 110 85 69 86 69 71
      34 -8 -20 -14 -54 -12 -77 2 -32 9 -45 29 -56 35 -19 81 -9 158 37 73 42 224
      179 215 194 -4 5 -25 -8 -48 -30 -63 -60 -152 -130 -196 -152 -22 -11 -53 -20
      -70 -20 -25 0 -30 4 -30 24 0 27 71 138 157 246 48 60 83 91 176 153 203 135
      368 277 451 388 53 71 65 112 40 140 -9 10 -27 19 -38 19 -12 -1 -46 -14 -76
      -29z m96 -15 c11 -29 -32 -93 -125 -186 -94 -94 -228 -203 -346 -283 -33 -22
      -53 -32 -45 -21 8 10 68 84 135 164 219 264 359 383 381 326z m-2778 -603 c5
      -34 -31 -94 -107 -175 -73 -78 -162 -145 -196 -149 -37 -3 -45 1 -45 24 0 36
      55 122 126 197 83 88 148 132 189 128 22 -2 31 -9 33 -25z m1750 -7 c3 -20 -7
      -44 -33 -82 -43 -63 -180 -196 -225 -219 -17 -9 -43 -15 -58 -13 -22 2 -26 7
      -24 28 5 42 63 129 142 209 41 42 91 84 110 94 19 9 46 16 60 15 19 -2 26 -9
      28 -32z M4692 1249 c-100 -50 -328 -279 -531 -534 -36 -44 -87 -104 -115 -133
      -58 -61 -233 -209 -286 -241 -19 -11 -47 -21 -62 -21 -21 0 -28 5 -28 19 0 20
      68 115 188 261 l70 85 -41 3 c-36 3 -46 -1 -69 -27 -15 -17 -29 -31 -31 -31
      -1 0 -4 10 -4 22 -3 36 -31 50 -89 45 -78 -8 -164 -57 -266 -153 -168 -157
      -314 -252 -342 -224 -14 14 5 45 81 131 36 41 76 98 90 127 22 47 23 57 13 83
      -7 17 -23 32 -37 35 -13 4 -44 -1 -68 -11 -47 -17 -146 -86 -179 -123 -11 -12
      -22 -22 -26 -22 -5 0 1 17 11 37 10 21 19 47 19 58 0 29 -28 65 -51 65 -46 0
      -98 -37 -224 -160 -160 -154 -245 -220 -286 -220 -17 0 -29 5 -29 13 0 21 39
      78 151 218 60 75 109 138 109 140 0 2 -20 3 -45 1 -35 -3 -50 -11 -70 -34 -17
      -20 -25 -24 -25 -14 0 9 -9 25 -20 36 -32 32 -86 26 -178 -20 -92 -46 -180
      -128 -218 -202 -31 -60 -32 -130 -4 -158 11 -11 30 -20 43 -20 34 0 120 44
      165 84 l40 37 -5 -41 c-4 -30 -1 -45 12 -60 10 -11 30 -20 45 -20 58 0 132 52
      289 204 160 155 221 200 242 179 8 -8 6 -19 -5 -42 -9 -17 -73 -99 -141 -181
      l-125 -150 47 0 c47 0 49 1 116 78 37 42 109 114 160 160 97 87 210 153 228
      135 15 -15 -2 -44 -83 -138 -76 -87 -108 -140 -108 -180 0 -33 33 -65 69 -65
      47 0 147 60 240 144 25 23 32 26 25 11 -5 -11 -9 -42 -9 -68 0 -39 5 -53 24
      -68 13 -10 34 -19 47 -19 38 0 95 27 146 71 26 21 48 39 50 39 2 0 2 -18 0
      -39 -3 -33 0 -42 22 -56 18 -12 36 -15 60 -11 44 8 133 67 230 151 l78 68 -21
      -41 c-12 -23 -24 -62 -27 -86 -6 -39 -3 -48 21 -71 24 -25 32 -27 75 -22 55 7
      112 33 185 85 69 50 186 163 179 174 -3 4 -35 -19 -72 -52 -87 -79 -202 -157
      -253 -170 -75 -21 -92 4 -57 82 14 29 62 103 108 163 79 105 88 114 212 195
      153 100 291 211 370 300 60 65 98 131 98 167 0 26 -25 53 -49 53 -10 0 -45
      -14 -79 -31z m98 -24 c0 -52 -85 -155 -223 -270 -101 -85 -277 -212 -277 -200
      0 11 216 268 304 361 83 89 154 138 182 127 8 -3 14 -11 14 -18z m-2302 -582
      c6 -38 -39 -106 -127 -194 -88 -89 -150 -129 -197 -129 -25 0 -26 2 -20 33 13
      69 144 227 241 292 49 32 98 32 103 -2z m1265 6 c18 -29 -30 -106 -127 -204
      -98 -99 -175 -147 -205 -128 -25 16 -16 60 25 122 46 69 167 190 214 214 41
      20 79 19 93 -4z M7607 912 c-10 -10 -17 -31 -17 -45 0 -20 6 -28 25 -33 42
      -10 85 39 65 76 -13 25 -52 26 -73 2z"/>
    </g>
    <g opacity="0.09090909" transform="translate(0,190) scale(0.100000,-0.100000)">
      <path d="M2639 1621 c-36 -15 -87 -42 -112 -60 l-47 -32 -66 32 c-36 17 -110
      40 -163 51 -80 17 -121 19 -241 15 -109 -4 -170 -12 -245 -31 -55 -14 -124
      -35 -153 -46 -163 -63 -312 -161 -420 -275 -59 -62 -93 -108 -122 -169 -29
      -58 -43 -100 -47 -142 -3 -33 0 -79 7 -104 16 -59 80 -123 140 -141 25 -8 90
      -14 145 -14 76 0 118 6 175 24 154 48 287 134 387 252 28 34 66 91 84 128 27
      53 33 78 34 129 0 59 -2 66 -32 92 -18 16 -49 32 -70 36 -62 12 -160 -11 -258
      -60 -96 -49 -189 -121 -261 -206 -48 -56 -99 -138 -92 -146 3 -2 21 20 41 50
      52 79 167 188 254 242 104 66 187 94 274 94 62 0 73 -3 96 -26 22 -22 25 -32
      21 -69 -9 -78 -45 -134 -162 -250 -124 -123 -219 -186 -351 -231 -61 -21 -100
      -27 -165 -28 -73 -1 -93 3 -134 24 -27 14 -58 37 -68 51 -29 38 -39 99 -28
      161 23 123 131 273 277 382 106 80 248 154 361 190 228 72 484 74 664 7 86
      -33 88 -41 23 -91 -104 -80 -266 -263 -440 -494 -304 -406 -432 -538 -602
      -624 -32 -16 -82 -37 -112 -46 -61 -18 -187 -21 -242 -6 -41 12 -89 51 -89 74
      0 12 7 14 29 10 21 -5 34 -1 50 15 12 12 21 30 21 40 0 11 -12 29 -27 40 -30
      24 -55 21 -90 -12 -17 -15 -23 -32 -23 -62 0 -52 26 -87 83 -117 32 -16 66
      -22 142 -26 81 -4 118 0 185 17 92 23 196 69 282 124 89 57 195 153 278 254
      44 52 147 196 231 319 164 242 288 403 364 473 l48 44 28 -31 c15 -17 33 -48
      38 -69 17 -59 13 -144 -9 -209 -44 -126 -163 -264 -277 -321 -52 -25 -69 -28
      -155 -28 -54 0 -98 -3 -98 -6 0 -11 49 -28 97 -34 64 -9 182 17 259 56 118 59
      214 167 255 286 25 74 25 167 -1 237 -12 29 -39 75 -61 100 l-41 46 24 20 c12
      11 60 38 106 61 45 23 82 45 82 50 0 5 -3 9 -7 9 -5 0 -38 -13 -74 -29z M5632
      1479 c-78 -13 -194 -54 -260 -91 -74 -42 -157 -125 -185 -185 -15 -33 -21 -68
      -22 -114 0 -55 4 -72 28 -108 15 -23 48 -55 72 -70 25 -16 73 -34 107 -41 35
      -6 71 -14 80 -17 14 -3 7 -18 -36 -82 -30 -43 -64 -105 -76 -137 -12 -32 -25
      -92 -28 -131 -4 -64 -1 -79 21 -125 44 -90 127 -127 256 -115 71 6 186 46 258
      89 84 50 197 160 227 220 32 64 35 129 7 157 -27 27 -87 42 -136 35 -22 -4
      -78 -24 -125 -46 -70 -34 -100 -56 -175 -132 -83 -84 -149 -176 -127 -176 5 0
      22 19 37 41 95 144 278 273 407 286 44 4 57 2 81 -17 52 -41 31 -113 -66 -217
      -114 -121 -271 -202 -408 -211 -59 -3 -83 -1 -110 13 -51 26 -68 44 -80 87 -8
      30 -6 53 6 100 24 95 80 189 192 323 30 36 36 38 124 51 231 35 514 139 699
      258 132 86 230 198 230 265 0 12 -14 36 -31 53 -30 31 -30 31 -117 25 -48 -3
      -116 -15 -152 -27 -102 -33 -295 -131 -410 -208 -126 -85 -214 -154 -338 -269
      l-93 -85 -50 6 c-82 11 -154 43 -193 86 -19 21 -38 54 -41 73 -14 71 34 168
      117 241 66 58 180 118 278 147 59 17 111 22 239 26 120 4 159 8 146 16 -25 13
      -286 18 -353 6z m939 -49 c29 -16 25 -69 -9 -116 -82 -113 -325 -260 -568
      -344 -108 -37 -288 -81 -331 -80 -12 1 10 28 72 87 170 162 366 308 518 385
      45 23 107 49 137 59 62 20 151 24 181 9z M9162 1263 c-68 -37 -175 -127 -277
      -235 -46 -48 -141 -157 -210 -241 -70 -83 -149 -178 -176 -209 -58 -67 -228
      -212 -281 -239 -43 -22 -78 -25 -78 -6 0 7 13 33 28 58 30 47 218 279 236 291
      13 9 5 10 -49 8 -32 -1 -46 -8 -67 -33 -24 -29 -27 -30 -28 -11 0 11 -8 28
      -18 37 -31 28 -91 21 -171 -19 -52 -26 -102 -64 -179 -138 -121 -115 -189
      -167 -257 -197 -35 -16 -49 -18 -60 -9 -8 6 -11 19 -8 28 11 31 66 106 176
      242 111 137 135 156 184 144 28 -7 73 3 73 16 0 6 -25 10 -55 10 -30 0 -55 3
      -55 7 0 3 34 46 75 95 l75 88 -48 0 -48 0 -77 -94 -77 -95 -57 -3 c-70 -4 -84
      -25 -19 -30 l46 -3 -80 -95 c-150 -178 -364 -339 -411 -310 -12 8 -10 16 9 52
      13 24 74 105 138 180 l114 138 -48 0 c-47 0 -50 -1 -100 -62 -68 -84 -130
      -142 -232 -220 -85 -63 -163 -104 -181 -93 -5 4 -9 12 -9 19 0 7 39 57 86 112
      91 105 124 158 124 198 0 13 -7 32 -16 40 -8 9 -30 16 -48 16 -45 0 -144 -52
      -204 -106 -28 -24 -53 -44 -57 -44 -3 0 12 21 34 48 61 71 259 327 256 330 -1
      1 -20 0 -41 -4 -34 -5 -47 -17 -99 -82 -33 -42 -114 -132 -180 -200 -178 -185
      -349 -322 -401 -322 -53 0 -24 51 149 260 48 58 87 107 87 110 0 3 -20 4 -45
      2 -35 -3 -50 -11 -70 -34 -21 -25 -25 -26 -25 -10 0 10 -9 27 -20 37 -15 13
      -31 16 -67 13 -27 -3 -75 -18 -108 -34 -73 -36 -193 -146 -223 -207 -29 -58
      -30 -129 -2 -157 11 -11 32 -20 47 -20 36 0 100 32 150 75 23 19 43 35 45 35
      2 0 2 -16 0 -35 -3 -25 1 -42 13 -55 10 -11 28 -20 39 -20 56 1 160 70 301
      201 68 64 48 38 -141 -189 -120 -145 -223 -270 -227 -278 -6 -11 1 -14 35 -14
      l43 0 173 210 c175 211 266 305 364 378 92 68 167 98 182 74 7 -12 -20 -49
      -105 -146 -78 -87 -109 -137 -109 -175 0 -28 34 -61 63 -61 47 1 159 65 240
      139 l39 36 -21 -40 c-11 -22 -21 -54 -21 -72 0 -43 36 -68 83 -59 43 8 141 67
      210 126 38 33 48 38 35 19 -9 -14 -19 -41 -23 -60 -5 -27 -1 -41 16 -63 19
      -24 27 -28 60 -23 56 7 116 39 190 101 l66 54 -9 -42 c-11 -53 2 -92 37 -108
      44 -20 96 3 210 93 7 5 10 -3 7 -26 -3 -24 2 -39 17 -54 12 -12 31 -21 43 -21
      37 0 100 37 191 110 83 67 85 68 71 35 -8 -19 -14 -52 -14 -74 0 -30 6 -44 22
      -55 12 -9 34 -16 48 -16 33 0 121 42 174 82 66 51 166 151 159 161 -3 5 -24
      -9 -47 -31 -63 -60 -152 -130 -196 -152 -22 -11 -53 -20 -70 -20 -25 0 -30 4
      -30 24 0 27 71 138 157 246 48 60 83 91 176 153 64 43 150 104 191 137 169
      134 296 274 311 341 5 22 2 36 -11 50 -9 10 -27 19 -39 19 -12 0 -45 -12 -73
      -27z m94 -17 c22 -58 -204 -285 -456 -458 -41 -29 -68 -43 -60 -33 33 45 202
      245 266 317 107 118 192 188 232 188 7 0 15 -6 18 -14z m-2778 -603 c5 -34
      -31 -94 -107 -175 -73 -78 -162 -145 -196 -149 -37 -3 -45 1 -45 24 0 35 52
      116 124 194 83 89 150 135 191 131 22 -2 31 -9 33 -25z m1750 0 c5 -38 -28
      -92 -110 -178 -96 -101 -161 -147 -203 -143 -25 3 -30 7 -27 28 5 42 63 128
      142 209 41 42 91 84 110 94 47 23 84 19 88 -10z M4691 1249 c-102 -51 -316
      -268 -548 -554 -89 -110 -148 -169 -268 -267 -101 -82 -143 -108 -177 -108
      -33 0 -36 18 -11 58 18 28 130 171 202 257 22 27 41 52 41 55 0 3 -22 4 -48 2
      -40 -3 -51 -9 -67 -33 -21 -30 -38 -39 -29 -15 3 8 -4 24 -16 36 -19 19 -31
      22 -74 18 -79 -7 -158 -52 -265 -152 -175 -162 -316 -255 -345 -226 -14 14 5
      45 81 131 36 41 76 98 90 127 22 47 23 57 13 83 -7 17 -23 32 -37 35 -13 4
      -44 -1 -68 -11 -47 -17 -146 -86 -179 -123 -29 -33 -38 -26 -16 10 24 40 25
      76 4 106 -36 52 -97 19 -259 -138 -160 -154 -245 -220 -286 -220 -17 0 -29 5
      -29 13 0 22 51 95 158 227 56 69 102 127 102 130 0 3 -20 4 -45 2 -35 -3 -50
      -11 -70 -34 -22 -26 -25 -27 -25 -9 0 27 -37 51 -77 51 -69 0 -192 -67 -269
      -147 -25 -27 -57 -69 -70 -95 -31 -60 -32 -130 -4 -158 11 -11 32 -20 46 -20
      35 0 105 35 154 77 21 18 40 33 42 33 2 0 2 -16 0 -35 -5 -44 19 -75 58 -75
      58 0 131 52 290 205 87 83 174 160 195 169 48 23 63 10 41 -33 -9 -17 -73 -99
      -141 -181 l-125 -150 47 0 c47 0 49 1 116 78 38 42 110 114 160 160 97 87 209
      154 228 135 15 -15 -2 -44 -83 -138 -76 -87 -108 -140 -108 -180 0 -33 33 -65
      69 -65 47 0 147 60 240 144 25 23 32 26 25 11 -5 -11 -9 -42 -9 -68 0 -39 5
      -53 24 -68 13 -10 34 -19 47 -19 38 0 95 27 146 71 26 21 48 39 50 39 2 0 2
      -18 0 -39 -3 -33 0 -42 22 -56 18 -12 36 -15 60 -11 44 8 133 67 229 150 l77
      67 -25 -53 c-33 -70 -32 -112 1 -145 23 -23 31 -25 74 -20 55 7 112 33 185 85
      68 49 186 163 179 173 -3 5 -41 -23 -86 -62 -99 -88 -182 -142 -242 -159 -37
      -10 -49 -10 -61 0 -8 7 -15 18 -15 25 0 27 60 129 135 227 70 94 88 111 174
      166 53 33 133 88 178 122 177 131 323 294 323 360 0 32 -23 60 -49 60 -10 0
      -46 -14 -80 -31z m99 -26 c0 -23 -30 -74 -74 -127 -23 -27 -87 -88 -142 -135
      -99 -84 -284 -218 -284 -206 0 11 215 268 304 361 83 89 154 138 182 127 8 -3
      14 -12 14 -20z m-2302 -580 c6 -38 -39 -106 -127 -194 -88 -89 -150 -129 -197
      -129 -25 0 -26 2 -20 33 13 69 144 227 241 292 49 32 98 32 103 -2z m1265 6
      c18 -28 -32 -107 -128 -205 -97 -98 -174 -146 -204 -127 -25 16 -16 60 25 122
      46 69 167 190 214 214 41 20 79 19 93 -4z M7614 922 c-18 -12 -32 -44 -26 -64
      6 -23 47 -34 68 -17 27 22 36 47 24 69 -11 20 -45 26 -66 12z"/>
    </g>
    <g opacity="0.10000000" transform="translate(0,190) scale(0.100000,-0.100000)">
      <path d="M2646 1625 c-32 -13 -83 -40 -113 -60 l-54 -36 -65 32 c-91 43 -225
      69 -360 69 -191 0 -371 -41 -543 -125 -51 -25 -127 -69 -168 -97 -40 -28 -109
      -89 -153 -135 -57 -60 -91 -107 -120 -167 -29 -58 -43 -100 -47 -142 -3 -33 0
      -79 7 -104 15 -56 80 -123 135 -140 72 -21 176 -24 266 -6 105 22 243 86 329
      154 134 107 227 249 237 362 6 57 4 61 -29 94 -22 22 -49 37 -74 42 -138 26
      -385 -102 -525 -270 -45 -56 -94 -134 -87 -141 3 -3 22 21 44 52 93 135 268
      272 403 313 35 11 92 20 128 20 55 0 67 -3 90 -26 22 -22 25 -32 21 -69 -3
      -24 -15 -64 -28 -90 -27 -56 -159 -198 -243 -261 -34 -25 -96 -63 -138 -84
      -128 -65 -244 -89 -339 -70 -30 6 -71 21 -92 35 -51 34 -72 77 -71 150 2 185
      195 410 473 550 158 79 351 125 531 125 52 0 122 -5 155 -11 79 -14 174 -45
      202 -67 l24 -18 -56 -44 c-105 -80 -266 -262 -441 -495 -96 -127 -217 -281
      -269 -341 -159 -184 -293 -283 -445 -328 -64 -19 -187 -21 -243 -4 -41 12 -88
      52 -88 74 0 10 9 12 29 8 22 -5 34 -1 51 16 11 11 20 31 18 42 -4 30 -50 62
      -77 53 -38 -12 -61 -46 -61 -91 0 -50 26 -86 83 -116 32 -16 66 -22 142 -26
      81 -4 118 0 185 17 151 38 304 123 432 240 92 84 193 213 348 441 174 256 259
      368 347 459 l72 75 25 -23 c33 -31 56 -101 56 -171 0 -31 -9 -83 -20 -116 -44
      -126 -163 -264 -277 -321 -52 -25 -69 -28 -155 -28 -54 0 -98 -3 -98 -6 0 -11
      49 -28 97 -34 63 -9 181 17 258 55 116 57 215 167 256 287 25 74 25 167 -1
      237 -12 29 -39 75 -61 100 l-41 46 24 20 c12 11 60 38 106 61 45 23 82 45 82
      50 0 5 -3 9 -7 9 -5 0 -34 -11 -67 -25z M5632 1479 c-78 -13 -199 -56 -262
      -92 -30 -17 -80 -57 -111 -88 -72 -73 -104 -148 -96 -228 4 -34 15 -68 32 -93
      44 -66 105 -96 252 -124 20 -4 18 -9 -32 -83 -29 -43 -63 -105 -75 -138 -12
      -32 -25 -91 -28 -130 -4 -64 -1 -79 21 -125 31 -62 87 -104 155 -114 116 -17
      276 28 398 115 86 60 169 147 194 203 11 24 20 62 20 86 0 33 -6 48 -25 66
      -28 27 -77 37 -132 29 -21 -3 -76 -23 -123 -45 -70 -34 -100 -56 -175 -132
      -49 -50 -100 -110 -113 -133 -13 -24 -19 -43 -14 -43 5 0 26 25 47 56 47 68
      144 157 220 203 70 42 148 70 196 71 49 0 89 -32 89 -72 0 -46 -28 -95 -93
      -165 -109 -116 -265 -199 -398 -210 -52 -4 -80 -2 -114 11 -49 19 -79 54 -88
      103 -8 41 16 132 53 202 33 61 95 146 152 210 28 32 44 41 68 41 56 0 232 40
      355 81 148 49 321 131 419 199 124 86 206 186 206 250 0 12 -13 35 -29 51 -26
      26 -36 29 -93 29 -35 0 -100 -9 -144 -20 -43 -12 -137 -49 -209 -85 -210 -103
      -373 -217 -568 -397 l-98 -90 -50 6 c-82 11 -154 43 -193 86 -19 21 -38 54
      -41 73 -14 71 34 168 117 242 59 52 201 125 293 151 40 11 110 18 215 20 85 2
      160 4 165 4 6 0 1 6 -10 12 -25 15 -281 20 -353 7z m939 -49 c29 -16 25 -69
      -9 -116 -82 -113 -325 -260 -568 -344 -106 -37 -285 -80 -330 -80 -14 0 -9 10
      21 41 67 69 255 228 356 300 111 79 243 152 337 185 71 25 160 31 193 14z
      M9164 1264 c-126 -67 -322 -264 -581 -585 -93 -115 -178 -199 -293 -291 -54
      -43 -102 -68 -130 -68 -11 0 -20 6 -20 13 0 6 10 28 21 47 26 42 168 220 217
      273 20 20 32 37 27 38 -6 1 -28 0 -50 -1 -32 -1 -46 -8 -67 -33 -24 -29 -27
      -30 -28 -11 0 11 -8 28 -18 37 -31 28 -91 21 -171 -19 -52 -26 -102 -64 -179
      -138 -121 -115 -189 -167 -257 -197 -40 -18 -49 -19 -61 -7 -11 11 -9 21 14
      60 15 26 81 115 147 198 l120 150 57 0 c31 0 63 3 72 6 33 13 14 24 -39 24
      -30 0 -55 3 -55 7 0 3 33 45 74 94 41 48 73 89 71 91 -3 2 -25 2 -49 -2 -43
      -5 -50 -10 -121 -97 l-75 -92 -57 -3 c-70 -4 -84 -26 -19 -30 l46 -3 -80 -95
      c-150 -178 -364 -339 -411 -310 -12 8 -10 16 9 52 13 24 74 104 137 180 62 75
      112 138 110 140 -3 2 -24 2 -49 -2 -40 -5 -50 -12 -113 -85 -85 -98 -237 -225
      -320 -266 -60 -30 -83 -31 -83 -5 0 7 39 57 86 112 91 105 124 158 124 198 0
      13 -7 32 -16 40 -8 9 -30 16 -48 16 -45 0 -144 -52 -204 -106 -54 -48 -80 -60
      -41 -18 34 36 278 348 274 352 -1 1 -20 0 -41 -4 -34 -5 -47 -17 -99 -82 -33
      -41 -111 -128 -173 -193 -177 -185 -356 -329 -408 -329 -53 0 -24 49 154 265
      45 55 82 102 82 105 0 3 -20 4 -45 2 -35 -3 -50 -11 -70 -34 -21 -25 -25 -26
      -25 -10 0 29 -32 52 -73 52 -43 0 -123 -30 -175 -65 -61 -41 -150 -135 -172
      -179 -27 -56 -27 -129 0 -156 11 -11 32 -20 47 -20 36 0 100 32 151 76 l42 36
      0 -40 c0 -42 23 -72 56 -72 53 1 166 77 299 200 38 36 56 49 40 29 -17 -20
      -114 -137 -216 -260 -102 -123 -189 -230 -193 -236 -5 -10 4 -13 36 -13 l43 0
      175 211 c172 208 266 305 365 379 89 66 164 96 179 71 7 -10 -23 -49 -122
      -163 -79 -91 -103 -142 -84 -183 6 -13 22 -27 36 -31 14 -3 41 -1 60 6 44 14
      142 77 196 126 l42 39 -21 -40 c-11 -22 -21 -54 -21 -72 0 -43 36 -68 83 -59
      43 8 141 67 210 126 36 31 47 37 36 20 -39 -61 -31 -134 16 -146 14 -3 46 -1
      71 6 47 13 137 71 191 123 l32 30 -10 -37 c-21 -78 18 -134 84 -122 31 6 89
      39 147 85 l26 20 -4 -34 c-3 -24 2 -39 17 -54 12 -12 31 -21 43 -21 37 0 100
      37 191 110 83 67 85 68 71 35 -8 -19 -14 -52 -14 -74 0 -30 6 -44 22 -55 12
      -9 34 -16 48 -16 33 0 121 42 174 82 66 51 166 151 159 161 -3 5 -24 -9 -47
      -31 -63 -60 -152 -130 -196 -152 -22 -11 -53 -20 -70 -20 -25 0 -30 4 -30 24
      0 27 70 137 157 246 48 61 83 91 176 153 142 94 245 176 348 274 128 122 182
      219 144 256 -9 10 -27 17 -39 17 -13 0 -45 -12 -72 -26z m90 -20 c17 -45 -111
      -190 -302 -342 -122 -97 -233 -174 -212 -146 39 51 205 247 266 315 111 122
      192 189 230 189 7 0 15 -7 18 -16z m-2776 -605 c4 -36 -63 -132 -149 -214 -71
      -67 -159 -118 -185 -108 -39 15 9 111 110 220 83 89 150 135 191 131 24 -2 31
      -8 33 -29z m1750 4 c5 -38 -28 -92 -110 -178 -96 -101 -161 -147 -203 -143
      -25 3 -30 7 -27 28 5 42 63 128 142 209 41 42 91 84 110 94 47 23 84 19 88
      -10z M4690 1248 c-103 -51 -311 -261 -547 -553 -83 -103 -134 -154 -238 -242
      -100 -84 -176 -133 -207 -133 -33 0 -36 18 -11 58 18 28 130 171 202 257 22
      27 41 52 41 55 0 3 -22 4 -48 2 -40 -3 -51 -9 -67 -33 -21 -30 -38 -39 -29
      -15 3 8 -4 24 -16 36 -19 19 -31 22 -74 18 -28 -3 -77 -18 -110 -34 -34 -16
      -97 -63 -145 -108 -124 -115 -228 -196 -288 -223 -52 -24 -73 -24 -73 1 0 7
      38 58 83 113 46 55 91 119 101 142 9 24 14 52 10 67 -7 27 -31 44 -64 44 -35
      0 -138 -60 -197 -113 -29 -27 -53 -45 -53 -41 1 5 7 20 15 34 20 35 19 84 -3
      103 -45 40 -100 10 -250 -136 -139 -134 -200 -186 -249 -211 -39 -19 -73 -21
      -73 -3 0 22 51 95 158 227 56 69 102 127 102 130 0 3 -20 4 -45 2 -35 -3 -50
      -11 -70 -34 -22 -26 -25 -27 -25 -9 0 27 -37 51 -77 51 -45 0 -106 -25 -183
      -76 -108 -71 -180 -174 -180 -259 0 -32 6 -51 20 -65 11 -11 32 -20 46 -20 35
      0 105 35 154 77 21 18 40 33 42 33 2 0 2 -16 0 -35 -5 -44 19 -75 58 -75 58 0
      131 52 290 205 87 83 174 160 195 169 48 23 63 10 41 -33 -9 -17 -73 -99 -141
      -181 l-125 -150 49 0 c42 0 53 4 71 28 40 51 215 224 272 269 70 53 146 89
      160 75 14 -14 -5 -45 -84 -137 -76 -87 -108 -140 -108 -180 0 -32 33 -65 65
      -65 14 0 42 7 62 15 40 17 127 78 182 129 25 23 32 26 25 11 -5 -11 -9 -42 -9
      -68 0 -39 5 -53 24 -68 13 -10 34 -19 47 -19 38 0 95 27 146 71 26 21 48 39
      50 39 2 0 2 -16 0 -35 -3 -25 1 -42 14 -56 15 -17 27 -20 57 -16 51 7 129 56
      232 144 l84 73 -24 -52 c-33 -70 -32 -112 1 -145 23 -23 31 -25 74 -20 55 7
      112 33 185 85 69 50 186 163 179 174 -3 4 -38 -20 -77 -56 -97 -86 -179 -142
      -237 -161 -37 -12 -54 -14 -69 -5 -12 6 -21 17 -21 24 0 28 63 133 138 232 68
      90 88 108 172 162 52 33 132 88 177 122 177 131 323 294 323 360 0 32 -23 60
      -49 60 -10 0 -46 -14 -81 -32z m100 -23 c0 -48 -84 -152 -208 -257 -93 -79
      -284 -219 -291 -213 -2 2 41 57 94 122 224 269 321 363 376 363 20 0 29 -5 29
      -15z m-2302 -586 c4 -36 -63 -132 -148 -213 -76 -71 -139 -109 -173 -104 -55
      8 4 121 128 246 76 75 122 103 165 99 19 -1 26 -9 28 -28z m1262 16 c7 -8 9
      -23 4 -37 -19 -64 -154 -217 -233 -267 -59 -37 -95 -45 -111 -26 -9 11 -9 22
      -1 47 16 47 102 159 168 217 85 76 145 99 173 66z M7614 922 c-18 -12 -32 -44
      -26 -64 6 -23 47 -34 68 -17 27 22 36 47 24 69 -11 20 -45 26 -66 12z"/>
    </g>
    <g opacity="0.11111111" transform="translate(0,190) scale(0.100000,-0.100000)">
      <path d="M2646 1625 c-32 -13 -82 -39 -111 -59 l-53 -35 -78 34 c-44 18 -114
      41 -156 49 -111 23 -292 21 -423 -5 -123 -23 -217 -55 -330 -112 -120 -60
      -217 -131 -305 -224 -57 -60 -91 -107 -120 -167 -29 -58 -43 -100 -47 -142 -3
      -32 0 -78 6 -102 7 -23 26 -59 44 -79 18 -20 52 -45 76 -56 24 -11 77 -21 120
      -24 103 -7 222 17 331 68 47 22 117 65 157 95 132 101 230 249 240 362 4 49 2
      61 -18 86 -27 35 -75 56 -127 56 -55 0 -147 -26 -217 -61 -80 -41 -157 -99
      -230 -175 -58 -60 -133 -169 -123 -179 3 -3 22 20 43 50 85 124 234 246 367
      303 52 21 79 26 151 27 83 0 90 -2 109 -25 15 -19 19 -35 15 -65 -7 -67 -46
      -133 -129 -221 -92 -97 -184 -167 -284 -217 -101 -51 -176 -70 -269 -71 -64 0
      -90 5 -128 23 -29 14 -58 38 -73 61 -19 29 -25 51 -25 97 -1 111 58 228 176
      347 148 150 360 263 587 312 101 21 287 29 378 15 89 -14 186 -44 219 -70 l23
      -18 -49 -36 c-97 -71 -268 -261 -437 -487 -93 -124 -201 -263 -240 -310 -177
      -212 -325 -326 -485 -374 -63 -19 -193 -21 -242 -5 -19 7 -46 23 -62 37 -29
      28 -37 55 -12 46 24 -10 64 5 76 27 16 30 3 68 -28 80 -54 20 -103 -21 -103
      -87 0 -50 26 -86 83 -116 32 -16 66 -22 142 -26 81 -4 118 0 185 17 98 24 221
      81 312 142 73 49 223 197 289 284 26 33 106 148 179 255 176 258 254 361 345
      456 l76 79 28 -33 c80 -94 64 -263 -38 -409 -59 -84 -133 -150 -210 -189 -48
      -25 -68 -29 -136 -29 -44 0 -86 2 -94 5 -7 3 -15 0 -18 -6 -7 -20 60 -39 137
      -38 162 1 322 90 415 230 49 73 75 154 75 230 0 81 -29 158 -81 218 l-41 46
      24 20 c12 11 60 38 106 61 45 23 82 45 82 50 0 5 -3 9 -7 9 -5 0 -34 -11 -67
      -25z M5632 1479 c-77 -13 -199 -56 -259 -90 -28 -16 -73 -49 -100 -73 -89 -80
      -129 -190 -104 -283 6 -23 23 -56 37 -73 48 -56 102 -80 241 -106 20 -4 18 -9
      -32 -83 -29 -43 -63 -105 -75 -138 -12 -32 -25 -91 -28 -130 -4 -64 -2 -79 22
      -128 21 -42 38 -61 74 -83 42 -24 56 -27 142 -27 80 0 107 5 173 29 43 16 111
      50 150 76 86 56 180 153 207 212 11 24 20 62 20 86 0 33 -6 48 -25 66 -14 13
      -40 27 -58 30 -51 9 -131 -10 -210 -51 -52 -27 -97 -62 -162 -127 -49 -50
      -101 -111 -114 -135 -13 -24 -19 -42 -14 -40 6 2 32 33 59 69 99 130 270 245
      384 257 47 4 59 2 83 -17 19 -15 27 -30 27 -53 0 -81 -138 -233 -279 -306
      -136 -71 -256 -89 -338 -52 -41 19 -64 49 -76 102 -8 33 15 124 47 187 25 50
      124 187 169 235 18 18 36 27 57 27 56 0 232 40 355 81 148 49 321 131 419 199
      124 86 206 186 206 250 0 12 -13 35 -29 51 -26 26 -36 29 -94 29 -35 0 -99 -9
      -143 -20 -153 -39 -433 -194 -614 -339 -36 -29 -109 -93 -163 -143 l-98 -90
      -47 6 c-79 12 -143 37 -183 73 -43 39 -64 96 -54 146 12 57 58 128 115 179 60
      54 200 127 295 154 40 11 110 18 215 20 85 2 160 4 165 4 6 0 1 6 -10 12 -25
      15 -281 20 -353 7z m939 -49 c29 -16 25 -69 -9 -116 -82 -113 -325 -260 -568
      -344 -106 -37 -285 -80 -330 -80 -14 0 -9 10 21 41 67 69 255 228 356 300 111
      79 243 152 337 185 71 25 160 31 193 14z M9164 1264 c-114 -61 -283 -225 -501
      -489 -68 -82 -142 -171 -164 -197 -46 -55 -195 -183 -264 -227 -50 -32 -95
      -41 -95 -18 0 6 10 28 21 47 26 42 168 220 216 271 19 20 31 39 26 42 -4 2
      -25 4 -47 3 -30 -2 -44 -9 -67 -37 -25 -30 -28 -31 -29 -13 0 11 -8 28 -18 37
      -31 28 -91 21 -171 -19 -52 -26 -102 -64 -179 -138 -150 -142 -242 -206 -297
      -206 -55 0 -27 52 144 265 l113 140 71 5 c44 3 72 10 75 18 3 8 -12 12 -52 12
      -31 0 -56 3 -56 7 0 3 33 45 74 94 41 48 73 89 71 91 -3 2 -25 2 -49 -2 -43
      -5 -50 -10 -121 -97 l-75 -92 -57 -3 c-70 -4 -84 -26 -19 -30 l46 -3 -83 -98
      c-76 -90 -203 -206 -287 -263 -53 -35 -104 -54 -120 -44 -12 8 -12 14 2 42 8
      18 70 99 136 180 66 80 119 148 116 150 -2 2 -23 2 -48 -2 -40 -5 -50 -12
      -113 -85 -85 -98 -237 -225 -320 -266 -60 -30 -83 -31 -83 -5 0 7 39 57 86
      112 91 105 124 158 124 198 0 13 -7 32 -16 40 -8 9 -30 16 -48 16 -45 0 -144
      -52 -204 -106 -54 -48 -80 -60 -41 -18 34 36 278 348 274 352 -1 1 -20 0 -41
      -4 -34 -5 -47 -17 -99 -82 -33 -41 -109 -127 -170 -190 -174 -182 -360 -332
      -411 -332 -53 0 -24 49 154 265 45 55 82 102 82 105 0 3 -20 4 -45 2 -35 -3
      -50 -11 -70 -34 -21 -25 -25 -26 -25 -10 0 29 -32 52 -73 52 -47 0 -121 -28
      -178 -67 -65 -45 -145 -129 -169 -177 -27 -56 -27 -129 0 -156 11 -11 32 -20
      47 -20 36 0 100 32 151 76 l42 36 0 -40 c0 -44 23 -72 59 -72 49 0 165 78 296
      200 38 36 56 49 40 29 -17 -20 -113 -136 -215 -259 -102 -122 -189 -228 -193
      -236 -6 -11 1 -14 35 -14 l43 0 179 215 c99 119 205 240 237 269 118 109 233
      186 278 186 47 0 35 -21 -97 -172 -79 -91 -103 -142 -84 -183 6 -13 22 -27 36
      -31 14 -3 41 -1 60 6 44 14 142 77 196 126 l42 39 -21 -40 c-11 -22 -21 -54
      -21 -72 0 -24 7 -37 26 -50 23 -14 32 -15 71 -5 51 14 126 61 199 125 43 37
      47 39 30 12 -11 -16 -20 -48 -20 -73 -1 -33 4 -47 19 -59 46 -34 155 8 265
      104 l48 43 -9 -36 c-21 -76 18 -132 84 -120 31 6 89 39 147 85 l25 19 -3 -38
      c-3 -32 0 -41 22 -55 18 -12 36 -15 60 -11 36 7 119 61 203 134 l53 44 -15
      -35 c-8 -20 -15 -54 -15 -76 0 -30 6 -44 22 -55 12 -9 34 -16 49 -16 14 0 58
      16 96 35 45 22 101 64 156 116 48 44 84 85 81 91 -4 5 -25 -8 -48 -30 -63 -60
      -152 -130 -196 -152 -22 -11 -53 -20 -70 -20 -25 0 -30 4 -30 24 0 27 70 137
      157 246 48 61 83 91 178 154 157 105 295 217 387 315 72 76 118 148 118 183 0
      24 -28 48 -54 48 -13 0 -45 -12 -72 -26z m90 -20 c18 -46 -121 -201 -319 -355
      -137 -106 -215 -160 -195 -134 45 59 206 249 261 310 113 125 198 195 235 195
      7 0 15 -7 18 -16z m-2776 -605 c4 -36 -63 -132 -149 -214 -71 -67 -159 -118
      -185 -108 -42 16 16 124 130 239 45 46 98 90 117 99 19 8 45 14 59 12 19 -1
      26 -9 28 -28z m1750 4 c5 -38 -28 -92 -110 -178 -87 -92 -161 -145 -201 -145
      -23 0 -27 4 -27 29 0 17 17 54 42 91 50 76 162 189 209 213 46 23 83 19 87
      -10z M4693 1251 c-70 -39 -92 -57 -202 -164 -99 -97 -214 -227 -348 -392 -107
      -132 -221 -239 -357 -334 -60 -42 -116 -55 -116 -27 0 21 69 119 169 241 50
      61 91 112 91 115 0 3 -20 4 -45 3 -34 -1 -50 -7 -65 -25 -11 -12 -19 -26 -20
      -30 0 -5 -4 -8 -10 -8 -5 0 -7 6 -4 14 3 8 -4 24 -16 36 -19 19 -31 22 -75 18
      -31 -3 -77 -17 -111 -34 -32 -16 -95 -63 -139 -104 -125 -115 -234 -201 -292
      -227 -52 -24 -73 -24 -73 1 0 6 40 60 88 119 52 63 94 123 101 146 23 77 -22
      118 -98 91 -47 -17 -116 -63 -168 -113 -44 -42 -53 -41 -28 3 20 35 19 84 -3
      103 -44 40 -102 9 -236 -121 -147 -143 -212 -200 -258 -223 -43 -22 -78 -25
      -78 -6 0 22 51 95 158 227 56 69 102 127 102 130 0 3 -20 4 -45 2 -35 -3 -50
      -11 -70 -34 -21 -25 -25 -26 -25 -10 0 29 -32 52 -73 52 -53 0 -127 -31 -200
      -83 -62 -45 -132 -125 -155 -180 -7 -15 -12 -48 -12 -72 0 -32 6 -51 20 -65
      11 -11 32 -20 47 -20 36 0 100 32 150 75 23 19 43 35 45 35 2 0 2 -16 0 -35
      -5 -44 19 -75 58 -75 58 0 131 52 290 205 154 148 221 198 242 177 6 -6 6 -18
      -3 -33 -17 -33 -81 -115 -182 -234 l-85 -100 46 -3 c41 -3 50 0 70 25 53 63
      221 228 274 270 70 53 146 89 160 75 14 -14 -5 -45 -84 -137 -76 -87 -108
      -140 -108 -180 0 -32 33 -65 65 -65 14 0 42 7 62 15 40 17 127 78 182 129 26
      23 32 26 26 11 -5 -11 -10 -39 -13 -62 -3 -35 0 -46 22 -67 14 -15 37 -26 51
      -26 14 0 42 7 61 15 35 14 116 72 122 87 2 5 7 8 11 8 4 0 5 -16 3 -35 -3 -25
      1 -42 14 -56 15 -17 27 -20 57 -16 51 7 129 56 232 145 l85 73 -21 -41 c-12
      -23 -24 -61 -27 -85 -4 -37 -1 -47 21 -69 19 -19 37 -26 64 -26 43 0 120 33
      190 81 64 44 194 169 187 180 -3 5 -35 -17 -72 -50 -102 -89 -187 -148 -241
      -166 -39 -13 -55 -14 -71 -5 -17 9 -20 17 -15 38 8 36 55 112 140 225 61 83
      80 101 165 155 52 33 132 88 177 122 177 131 323 294 323 360 0 34 -23 60 -53
      60 -12 0 -45 -13 -74 -29z m97 -26 c0 -57 -125 -196 -291 -325 -108 -84 -209
      -153 -209 -145 0 3 44 59 97 123 219 265 320 362 374 362 19 0 29 -5 29 -15z
      m-2302 -586 c4 -36 -63 -132 -148 -213 -76 -71 -139 -109 -173 -104 -17 2 -22
      9 -20 32 3 41 64 129 147 211 76 76 126 107 166 103 19 -2 26 -10 28 -29z
      m1262 16 c15 -18 6 -48 -33 -105 -69 -100 -186 -205 -256 -229 -43 -14 -63 0
      -55 38 10 43 71 129 144 201 96 96 170 132 200 95z M7614 922 c-19 -12 -34
      -50 -28 -66 8 -22 51 -31 70 -15 27 22 36 47 24 69 -11 20 -45 26 -66 12z"/>
    </g>
    <g opacity="0.12500000" transform="translate(0,190) scale(0.100000,-0.100000)">
      <path d="M2646 1625 c-32 -13 -83 -40 -112 -59 l-54 -36 -49 25 c-27 13 -82
      34 -123 46 -54 16 -111 23 -218 26 -122 5 -164 2 -258 -16 -131 -25 -223 -57
      -342 -116 -110 -56 -197 -118 -277 -197 -81 -79 -145 -174 -172 -255 -36 -106
      -25 -196 32 -260 18 -20 52 -45 76 -56 65 -28 189 -34 287 -12 104 22 232 83
      321 151 133 102 230 248 240 363 4 48 2 60 -18 85 -12 16 -37 35 -55 42 -19 8
      -55 14 -81 14 -68 0 -198 -49 -282 -104 -88 -59 -185 -153 -238 -232 -53 -79
      -56 -84 -45 -84 5 0 26 25 46 55 53 76 157 177 237 231 38 25 97 57 131 72 52
      21 79 26 151 27 81 0 90 -2 108 -24 10 -13 19 -37 19 -55 0 -55 -54 -149 -132
      -231 -40 -43 -99 -98 -131 -122 -74 -57 -206 -127 -282 -149 -34 -10 -94 -18
      -140 -18 -64 0 -90 5 -128 23 -66 32 -91 71 -95 151 -3 47 2 81 16 122 27 76
      83 158 162 237 192 192 477 314 765 328 71 3 150 1 193 -6 87 -14 188 -46 221
      -70 l23 -18 -33 -23 c-51 -36 -213 -196 -283 -280 -35 -41 -125 -158 -201
      -260 -76 -102 -169 -222 -207 -267 -176 -211 -329 -330 -487 -377 -30 -9 -90
      -16 -133 -16 -84 0 -136 16 -175 52 -26 24 -31 50 -8 42 24 -10 64 5 76 27 27
      52 -25 102 -83 78 -16 -6 -33 -20 -38 -30 -6 -10 -10 -35 -10 -57 0 -48 27
      -85 83 -114 33 -17 64 -23 143 -26 80 -3 119 0 185 17 97 24 220 81 311 142
      35 24 106 86 158 138 100 100 159 177 375 494 132 193 255 348 321 407 l38 33
      27 -32 c78 -94 62 -263 -40 -408 -59 -84 -133 -150 -210 -189 -48 -25 -68 -29
      -136 -29 -44 0 -87 2 -95 5 -9 3 -15 -1 -15 -10 0 -8 19 -20 45 -28 84 -25
      233 3 334 62 102 60 189 164 227 274 16 44 20 75 16 137 -4 90 -25 140 -84
      206 -30 33 -34 42 -22 50 59 39 149 89 172 94 15 4 27 13 27 21 0 8 -3 14 -7
      14 -5 0 -34 -11 -67 -25z M5615 1476 c-84 -17 -186 -53 -247 -89 -69 -40 -141
      -110 -171 -166 -15 -28 -30 -72 -34 -98 -7 -60 10 -123 43 -163 48 -56 102
      -80 241 -106 20 -4 18 -9 -32 -83 -29 -43 -63 -105 -75 -138 -12 -32 -25 -91
      -28 -130 -4 -64 -2 -79 22 -128 21 -42 38 -61 74 -83 43 -25 55 -27 147 -26
      88 0 109 4 180 32 98 39 182 94 257 169 69 68 108 140 108 200 0 34 -6 49 -25
      67 -14 13 -40 27 -58 30 -51 9 -131 -10 -210 -51 -52 -27 -97 -62 -162 -127
      -49 -50 -101 -111 -114 -135 -13 -24 -19 -42 -14 -40 6 2 32 33 59 69 99 130
      270 245 384 257 47 4 59 2 83 -17 19 -15 27 -30 27 -53 0 -81 -138 -233 -279
      -306 -136 -71 -256 -89 -338 -52 -41 19 -64 49 -76 102 -8 33 15 124 47 187
      26 50 125 188 170 235 18 18 37 27 57 27 56 0 232 40 354 81 148 49 321 131
      419 199 124 86 206 186 206 250 0 12 -13 35 -29 51 -26 26 -36 29 -94 29 -35
      0 -99 -9 -143 -20 -98 -25 -291 -118 -421 -202 -119 -76 -260 -188 -371 -292
      l-82 -78 -48 6 c-79 12 -143 37 -183 73 -43 39 -64 96 -54 146 12 57 58 128
      115 179 62 56 181 118 285 150 55 16 103 22 225 24 85 2 160 4 165 4 6 0 1 6
      -10 12 -30 18 -286 20 -370 4z m956 -46 c28 -15 24 -66 -7 -112 -52 -74 -192
      -177 -349 -255 -154 -77 -384 -152 -515 -167 l-55 -7 90 87 c177 169 383 321
      538 395 47 22 107 47 134 54 59 16 138 19 164 5z M9175 1271 c-59 -26 -178
      -126 -286 -238 -52 -55 -152 -169 -223 -254 -70 -85 -145 -175 -167 -201 -46
      -55 -195 -183 -264 -227 -49 -31 -95 -41 -95 -20 0 26 64 115 191 265 43 51
      75 95 72 98 -4 3 -22 6 -41 6 -27 0 -42 -8 -68 -36 -28 -29 -34 -32 -34 -16 0
      30 -32 52 -77 52 -26 0 -65 -13 -113 -36 -51 -26 -100 -63 -168 -128 -157
      -150 -251 -216 -307 -216 -55 0 -27 51 144 265 l113 140 71 5 c44 3 72 10 75
      18 3 8 -12 12 -52 12 -31 0 -56 3 -56 7 0 3 33 45 74 94 41 48 73 89 71 91 -2
      2 -24 2 -49 0 -44 -4 -48 -7 -121 -97 l-75 -94 -57 -3 c-34 -2 -58 -8 -61 -15
      -2 -9 10 -13 43 -13 l46 0 -63 -77 c-78 -97 -140 -158 -244 -239 -114 -89
      -194 -122 -194 -79 0 19 45 81 162 223 58 72 104 132 102 134 -2 2 -23 2 -48
      -2 -40 -5 -50 -12 -113 -85 -85 -98 -237 -225 -320 -266 -60 -30 -83 -31 -83
      -5 0 7 39 57 86 112 116 134 141 184 114 235 -25 45 -157 3 -253 -81 -25 -22
      -48 -40 -51 -40 -3 0 29 44 72 98 43 53 109 137 147 186 l69 89 -44 -7 c-24
      -4 -45 -8 -45 -9 0 -1 -34 -42 -75 -92 -144 -176 -360 -383 -491 -471 -54 -36
      -99 -45 -99 -19 0 9 8 28 17 43 17 27 146 191 210 266 18 22 33 43 33 48 0 5
      -18 8 -41 6 -32 -1 -47 -9 -70 -35 -23 -27 -29 -30 -29 -15 0 10 -9 27 -20 37
      -15 14 -31 17 -69 13 -27 -3 -73 -17 -103 -31 -116 -58 -232 -181 -247 -264
      -9 -46 2 -93 26 -110 9 -7 28 -13 42 -13 34 0 99 33 149 76 l42 36 0 -40 c0
      -44 23 -72 59 -72 49 0 164 78 296 200 38 36 57 49 41 30 -16 -19 -116 -140
      -223 -267 -106 -128 -193 -235 -193 -238 0 -3 20 -5 43 -5 l44 0 108 133 c199
      241 278 329 357 396 128 108 233 163 252 132 7 -10 -23 -49 -122 -163 -79 -91
      -103 -142 -84 -183 6 -13 23 -27 37 -31 48 -12 150 40 250 128 l47 41 -21 -39
      c-28 -52 -27 -98 1 -118 12 -9 33 -16 46 -16 46 0 149 62 241 144 34 30 34 30
      18 4 -9 -15 -19 -44 -23 -66 -5 -32 -2 -44 15 -61 13 -13 34 -21 54 -21 44 0
      118 38 195 100 l63 51 -7 -50 c-6 -44 -4 -52 19 -75 15 -14 35 -26 47 -26 32
      0 89 27 145 69 l50 38 -3 -38 c-3 -31 0 -40 22 -54 18 -12 36 -15 60 -11 39 8
      114 56 198 128 l58 50 -15 -36 c-21 -49 -19 -109 3 -129 10 -10 32 -17 49 -17
      54 0 164 65 256 151 48 44 84 85 81 90 -3 6 -27 -9 -52 -33 -61 -56 -158 -131
      -199 -152 -18 -9 -46 -16 -63 -16 -25 0 -30 4 -30 23 0 29 54 114 147 232 58
      75 85 99 185 166 158 106 299 221 390 318 72 76 118 148 118 183 0 23 -28 48
      -53 48 -12 0 -40 -9 -62 -19z m74 -25 c20 -24 -23 -92 -118 -186 -82 -81 -249
      -217 -356 -290 l-50 -34 40 50 c203 253 360 420 430 457 17 9 33 16 36 17 4 0
      12 -6 18 -14z m-2771 -604 c5 -35 -44 -108 -132 -198 -83 -83 -145 -124 -191
      -124 -19 0 -25 5 -25 20 0 12 7 35 16 53 45 86 186 235 249 263 16 8 41 13 55
      11 18 -1 26 -9 28 -25z m1750 1 c5 -37 -26 -88 -109 -176 -86 -93 -161 -147
      -202 -147 -23 0 -27 4 -27 29 0 17 16 53 40 88 51 77 157 186 207 212 49 26
      87 24 91 -6z M4688 1249 c-114 -62 -302 -253 -545 -554 -107 -132 -221 -238
      -357 -334 -60 -42 -116 -55 -116 -27 0 21 69 119 169 241 50 61 91 112 91 115
      0 3 -18 6 -39 8 -33 2 -45 -3 -65 -25 -14 -15 -26 -31 -26 -35 0 -5 -4 -8 -10
      -8 -5 0 -7 6 -4 14 3 8 -4 24 -16 36 -19 19 -31 22 -75 18 -29 -3 -78 -17
      -110 -33 -32 -15 -90 -58 -129 -95 -111 -104 -246 -211 -300 -236 -48 -22 -76
      -22 -76 0 0 7 41 61 90 121 54 66 94 124 100 146 21 75 -24 116 -99 89 -47
      -17 -116 -63 -168 -113 -44 -42 -53 -41 -28 3 20 35 19 84 -3 103 -44 40 -102
      9 -236 -121 -147 -143 -212 -200 -258 -223 -43 -22 -78 -25 -78 -6 0 22 51 95
      158 227 56 69 102 128 102 133 0 4 -19 5 -42 1 -29 -4 -52 -15 -70 -35 -24
      -25 -28 -26 -28 -11 0 29 -33 52 -73 52 -53 0 -127 -31 -200 -83 -65 -46 -137
      -130 -156 -180 -6 -16 -11 -48 -11 -73 0 -31 6 -50 21 -65 17 -17 29 -20 61
      -16 35 5 78 29 163 92 20 14 21 13 17 -21 -5 -43 19 -74 58 -74 57 0 131 52
      291 205 87 84 175 160 195 170 44 21 62 9 43 -26 -17 -33 -81 -115 -182 -234
      l-85 -100 44 -3 44 -3 122 127 c68 70 149 147 180 171 70 53 146 89 160 75 14
      -14 0 -37 -83 -134 -78 -91 -109 -144 -109 -183 0 -33 33 -65 68 -65 42 0 121
      44 202 112 40 33 69 52 65 42 -5 -10 -10 -38 -13 -61 -3 -35 0 -46 22 -67 15
      -16 36 -26 54 -26 36 0 118 41 160 80 l32 31 0 -39 c0 -26 7 -45 20 -57 43
      -39 138 5 285 132 84 73 85 73 64 32 -12 -22 -24 -60 -27 -84 -4 -37 -1 -47
      21 -69 19 -19 37 -26 64 -26 43 0 120 33 190 81 63 44 194 169 187 180 -3 5
      -37 -19 -77 -54 -105 -91 -171 -137 -228 -158 -54 -21 -83 -18 -93 7 -9 22 23
      87 85 174 110 154 121 165 239 241 208 133 379 284 449 394 17 27 31 61 31 76
      0 33 -24 59 -53 59 -12 0 -48 -14 -79 -31z m102 -24 c0 -56 -123 -194 -280
      -316 -107 -83 -220 -162 -220 -155 0 8 184 231 269 325 97 108 164 161 202
      161 19 0 29 -5 29 -15z m-2302 -586 c4 -36 -63 -132 -148 -213 -76 -71 -139
      -109 -173 -104 -17 2 -22 9 -20 32 1 16 19 54 39 85 46 69 167 190 214 214 19
      9 46 16 60 15 19 -2 26 -10 28 -29z m1263 15 c11 -14 9 -25 -16 -72 -17 -32
      -65 -93 -110 -139 -57 -58 -98 -90 -139 -109 -50 -23 -60 -24 -72 -12 -12 11
      -12 21 -3 49 16 48 112 171 173 223 87 74 140 93 167 60z M7608 918 c-9 -7
      -19 -23 -22 -34 -8 -27 18 -56 47 -52 11 2 29 15 40 29 15 22 17 30 8 48 -13
      24 -49 28 -73 9z"/>
    </g>
    <g opacity="0.14285714" transform="translate(0,190) scale(0.100000,-0.100000)">
      <path d="M2646 1625 c-32 -13 -83 -40 -112 -59 l-54 -36 -49 25 c-93 47 -186
      67 -337 72 -106 4 -166 1 -240 -11 -128 -22 -253 -64 -375 -127 -164 -84 -289
      -191 -373 -318 -25 -36 -54 -94 -65 -128 -12 -34 -21 -86 -21 -115 0 -29 9
      -71 19 -93 22 -49 76 -98 128 -116 23 -9 81 -14 148 -14 88 0 124 5 180 23
      107 36 185 77 272 146 86 69 162 161 201 246 15 31 28 80 30 111 4 53 2 59
      -29 94 -31 32 -41 37 -96 42 -46 4 -79 0 -134 -16 -41 -13 -105 -41 -142 -63
      -125 -73 -222 -170 -308 -305 -35 -54 -5 -37 34 20 35 51 145 165 197 206 52
      39 147 90 210 111 49 17 82 21 134 18 57 -3 72 -8 87 -27 11 -13 19 -37 19
      -55 0 -55 -54 -149 -132 -231 -40 -43 -99 -98 -131 -122 -74 -57 -206 -127
      -282 -149 -36 -10 -93 -17 -141 -17 -64 0 -92 5 -128 22 -65 32 -90 71 -94
      151 -3 47 2 81 16 122 11 31 36 81 55 110 49 74 165 187 254 249 175 120 399
      195 618 206 72 3 150 1 194 -6 82 -13 180 -44 218 -68 l25 -16 -34 -26 c-57
      -43 -217 -203 -282 -281 -35 -41 -125 -158 -201 -260 -166 -222 -250 -323
      -341 -415 -121 -119 -236 -194 -353 -229 -70 -21 -200 -21 -249 -1 -67 28
      -112 88 -58 78 32 -6 64 12 72 41 13 55 -41 89 -96 61 -50 -26 -57 -108 -13
      -157 10 -11 36 -30 58 -41 57 -29 206 -35 311 -12 170 38 335 134 480 279 98
      98 171 193 339 441 149 219 230 326 320 420 l76 80 28 -33 c35 -41 51 -93 51
      -163 -1 -111 -81 -265 -187 -359 -27 -23 -75 -56 -108 -73 -52 -27 -71 -31
      -140 -32 -44 0 -87 2 -95 5 -9 3 -15 -1 -15 -10 0 -10 19 -20 54 -29 44 -12
      68 -13 133 -3 93 13 200 61 267 118 65 56 126 145 151 220 18 53 21 82 18 143
      -5 86 -27 138 -85 202 -30 33 -34 42 -22 50 59 39 149 89 172 94 15 4 27 13
      27 21 0 8 -3 14 -7 14 -5 0 -34 -11 -67 -25z M5610 1475 c-36 -7 -87 -21 -115
      -30 -131 -44 -249 -133 -298 -224 -15 -28 -30 -72 -34 -98 -3 -26 0 -67 6 -91
      23 -82 110 -150 216 -167 92 -14 89 -6 30 -94 -29 -43 -63 -105 -76 -138 -18
      -44 -24 -78 -24 -143 0 -67 4 -93 21 -125 13 -24 39 -51 68 -69 37 -23 61 -30
      119 -34 84 -5 170 14 262 57 82 39 137 78 206 146 70 70 109 142 109 202 0 34
      -6 49 -26 68 -63 59 -195 34 -338 -64 -56 -39 -174 -166 -205 -221 -13 -23
      -19 -41 -14 -39 6 2 32 33 59 69 99 130 270 245 384 257 47 4 59 2 83 -17 19
      -15 27 -30 27 -53 0 -81 -138 -233 -279 -306 -136 -71 -256 -89 -338 -52 -41
      19 -64 49 -76 102 -8 33 15 124 47 187 25 50 125 188 169 233 20 21 38 27 91
      33 89 9 274 57 391 100 125 47 263 117 352 178 121 83 203 184 203 248 0 12
      -13 35 -29 51 -26 26 -36 29 -94 29 -35 0 -99 -9 -143 -20 -43 -11 -137 -49
      -209 -84 -209 -101 -420 -252 -602 -429 l-61 -60 -49 7 c-80 12 -144 37 -184
      73 -43 39 -64 96 -54 146 12 56 58 128 114 178 66 59 158 108 271 145 75 24
      103 28 240 31 85 2 157 6 160 11 15 22 -276 28 -380 7z m964 -51 c26 -25 19
      -67 -19 -117 -83 -109 -350 -267 -580 -343 -98 -33 -273 -74 -312 -74 -13 0
      -13 2 -2 17 8 9 61 59 119 111 113 103 287 236 386 295 81 48 184 96 242 112
      68 19 147 18 166 -1z M9175 1271 c-58 -27 -109 -67 -215 -167 -91 -87 -237
      -252 -412 -467 -85 -103 -223 -229 -317 -289 -48 -30 -91 -37 -91 -14 0 19 97
      153 191 263 44 51 79 95 79 98 0 3 -20 5 -44 5 -39 0 -48 -4 -75 -37 -26 -32
      -31 -34 -31 -17 0 32 -32 54 -77 54 -26 0 -66 -13 -114 -37 -54 -27 -100 -62
      -169 -128 -153 -148 -249 -215 -305 -215 -29 0 -32 17 -10 61 9 16 72 100 141
      187 l126 157 71 5 c44 3 72 10 75 18 3 8 -12 12 -52 12 -31 0 -56 3 -56 6 0 3
      34 45 75 94 41 48 72 89 70 91 -2 3 -24 3 -49 1 -44 -4 -48 -7 -121 -97 l-75
      -94 -57 -3 c-70 -4 -84 -25 -20 -30 l45 -3 -76 -92 c-81 -96 -166 -175 -268
      -249 -75 -54 -125 -76 -144 -64 -12 8 -12 14 2 42 9 18 70 99 137 180 67 81
      121 150 121 152 0 3 -21 3 -47 0 -41 -4 -53 -11 -82 -47 -87 -107 -269 -265
      -356 -310 -44 -22 -79 -25 -83 -7 -1 9 38 63 88 120 49 58 97 119 105 137 18
      36 19 67 5 94 -25 45 -157 3 -253 -81 -25 -22 -48 -40 -51 -40 -3 0 30 44 72
      98 43 53 109 137 147 186 l69 89 -44 -7 c-24 -4 -45 -8 -45 -9 0 -1 -34 -42
      -75 -92 -105 -129 -259 -284 -375 -380 -116 -95 -161 -125 -192 -125 -28 0
      -30 20 -6 58 20 32 161 210 210 265 18 20 33 42 33 47 0 6 -18 10 -39 10 -32
      0 -44 -6 -70 -35 -24 -28 -31 -32 -31 -17 0 29 -33 52 -73 52 -20 0 -59 -8
      -85 -18 -95 -36 -207 -130 -257 -216 -20 -33 -28 -61 -28 -98 -1 -41 3 -54 22
      -69 13 -11 34 -19 47 -19 36 0 92 26 140 65 23 19 45 35 48 35 3 0 6 -15 6
      -33 0 -38 25 -67 59 -67 49 0 164 78 296 200 l69 65 -75 -90 c-196 -234 -369
      -445 -369 -450 0 -3 20 -5 43 -5 l44 0 108 133 c199 241 278 329 357 396 128
      108 233 163 252 132 7 -10 -23 -49 -122 -163 -79 -91 -103 -142 -84 -183 6
      -13 23 -27 37 -31 48 -12 150 40 250 128 l47 41 -21 -39 c-26 -48 -27 -95 -3
      -117 10 -10 31 -17 46 -17 50 0 150 59 245 144 34 30 34 30 18 4 -9 -15 -19
      -44 -23 -66 -5 -32 -2 -44 15 -61 13 -13 34 -21 54 -21 44 0 118 38 195 100
      l63 51 -7 -48 c-5 -40 -2 -53 16 -75 13 -17 31 -28 46 -28 36 0 91 26 149 69
      l50 38 -3 -38 c-3 -31 0 -40 22 -54 18 -12 36 -15 60 -11 41 8 115 56 199 129
      56 48 59 49 43 20 -22 -44 -21 -115 2 -136 52 -47 174 8 316 144 42 39 73 75
      70 80 -3 5 -39 -21 -80 -57 -105 -91 -189 -144 -231 -144 -28 0 -33 4 -33 23
      0 29 54 114 147 232 58 75 85 99 185 166 158 106 299 221 390 318 72 76 118
      148 118 183 0 23 -28 48 -53 48 -12 0 -40 -9 -62 -19z m74 -25 c20 -24 -23
      -91 -123 -190 -79 -78 -247 -215 -366 -296 l-35 -24 40 49 c174 218 367 425
      425 455 19 11 38 19 41 20 4 0 12 -6 18 -14z m-2785 -582 c44 -17 -7 -109
      -123 -225 -78 -79 -141 -119 -186 -119 -19 0 -25 5 -25 20 0 30 26 76 82 147
      81 102 178 181 225 183 6 0 18 -3 27 -6z m1764 -21 c5 -35 -32 -95 -113 -181
      -83 -89 -158 -142 -198 -142 -23 0 -27 4 -27 29 0 17 16 53 40 88 51 77 157
      186 207 212 48 26 87 24 91 -6z M4706 1260 c-60 -30 -136 -91 -227 -182 -80
      -80 -252 -277 -371 -426 -61 -75 -220 -219 -321 -289 -60 -43 -117 -57 -117
      -30 0 22 52 97 158 226 56 68 102 128 102 133 0 4 -18 8 -40 8 -32 0 -45 -6
      -67 -30 l-27 -31 -13 25 c-8 14 -25 29 -39 32 -39 10 -100 -2 -160 -31 -29
      -14 -90 -60 -135 -101 -111 -102 -220 -190 -271 -219 -46 -27 -98 -33 -98 -12
      0 7 39 59 87 117 47 58 92 120 100 139 17 40 9 87 -17 101 -10 6 -29 10 -42
      10 -36 0 -122 -48 -182 -101 -30 -27 -57 -49 -60 -49 -4 0 0 13 9 30 20 39 19
      83 -3 103 -44 40 -101 10 -241 -126 -184 -179 -260 -237 -311 -237 -11 0 -20
      6 -20 13 0 22 51 95 158 227 56 69 102 129 102 133 0 5 -17 7 -37 6 -26 -2
      -48 -12 -71 -33 -22 -21 -32 -25 -32 -15 0 9 -9 24 -20 34 -15 14 -31 17 -69
      13 -98 -10 -236 -101 -305 -202 -33 -46 -41 -67 -44 -115 -4 -51 -1 -62 18
      -81 18 -18 30 -21 62 -17 35 5 78 29 163 92 20 14 21 13 17 -21 -5 -43 19 -74
      58 -74 57 0 131 52 291 205 87 84 175 160 195 170 44 21 62 9 43 -26 -17 -33
      -81 -115 -182 -234 l-85 -100 44 -3 45 -3 121 126 c133 138 213 205 284 236
      52 23 74 15 55 -19 -6 -12 -45 -60 -86 -109 -41 -48 -82 -102 -90 -120 -21
      -43 -19 -79 6 -104 17 -17 29 -20 61 -16 48 6 131 55 204 120 47 43 53 45 44
      22 -5 -14 -10 -42 -10 -61 0 -44 37 -84 78 -84 36 0 118 41 160 80 l32 31 0
      -39 c0 -26 7 -45 20 -57 42 -38 135 4 280 127 44 38 80 67 80 65 0 -2 -7 -19
      -16 -37 -9 -18 -19 -52 -22 -76 -4 -36 -1 -46 21 -68 19 -19 37 -26 64 -26 43
      0 120 33 190 81 65 45 194 169 187 180 -3 6 -36 -17 -72 -49 -37 -32 -96 -80
      -130 -105 -63 -46 -150 -81 -177 -71 -25 10 -26 37 -1 88 31 62 175 257 207
      280 13 10 69 47 124 83 196 129 357 272 424 378 17 27 31 61 31 76 0 33 -24
      59 -53 59 -12 -1 -39 -9 -61 -20z m84 -38 c0 -53 -128 -194 -285 -316 -118
      -92 -220 -163 -210 -146 15 26 186 232 264 319 97 108 164 161 202 161 21 0
      29 -5 29 -18z m-2302 -583 c4 -36 -63 -132 -148 -213 -76 -71 -139 -109 -173
      -104 -17 2 -22 9 -20 32 1 16 19 54 39 85 46 69 167 190 214 214 19 9 46 16
      60 15 19 -2 26 -10 28 -29z m1263 15 c11 -14 9 -24 -16 -72 -16 -31 -66 -93
      -110 -139 -57 -58 -97 -90 -139 -109 -51 -23 -60 -25 -73 -11 -13 13 -13 20 6
      62 26 59 108 162 169 213 84 70 136 88 163 56z M7612 923 c-21 -8 -33 -52 -21
      -74 15 -28 57 -21 83 14 16 21 18 32 10 45 -11 17 -48 25 -72 15z"/>
    </g>
    <g opacity="0.16666667" transform="translate(0,190) scale(0.100000,-0.100000)">
      <path d="M2649 1626 c-58 -23 -122 -59 -151 -83 -14 -13 -23 -11 -66 11 -28
      14 -86 36 -129 48 -69 20 -99 23 -263 22 -167 0 -195 -3 -283 -27 -109 -29
      -242 -83 -332 -136 -185 -107 -329 -262 -381 -410 -53 -151 -11 -276 111 -327
      54 -22 177 -29 261 -15 38 7 102 25 142 41 188 76 352 228 418 388 13 32 24
      78 24 105 0 40 -5 53 -34 84 -30 33 -39 37 -94 41 -153 11 -377 -112 -510
      -281 -59 -75 -97 -137 -84 -137 5 0 26 24 46 54 21 30 75 90 120 134 127 122
      260 192 382 200 52 3 78 0 101 -12 20 -10 34 -26 38 -45 14 -66 -29 -153 -134
      -264 -44 -46 -114 -108 -156 -136 -87 -61 -196 -113 -275 -132 -30 -7 -87 -12
      -125 -12 -51 1 -84 7 -118 23 -26 12 -57 36 -70 54 -19 26 -22 44 -22 116 1
      76 4 92 35 155 27 53 60 95 140 176 71 72 132 122 189 157 93 57 201 105 301
      134 153 44 344 59 475 38 78 -12 184 -46 213 -68 l23 -17 -49 -38 c-99 -75
      -278 -273 -426 -472 -191 -256 -294 -381 -392 -477 -90 -89 -154 -137 -236
      -179 -79 -40 -158 -59 -245 -59 -79 0 -132 16 -170 52 -32 30 -29 45 6 40 20
      -3 35 2 50 17 12 12 21 30 21 41 0 24 -34 60 -55 60 -31 0 -73 -30 -83 -59
      -13 -35 -2 -84 25 -113 10 -11 36 -30 58 -41 31 -16 64 -22 142 -25 75 -3 122
      0 175 13 168 40 332 137 474 279 101 101 168 189 364 476 145 212 223 313 314
      405 l59 59 27 -32 c80 -96 62 -268 -44 -416 -25 -35 -67 -83 -93 -106 -27 -23
      -75 -56 -108 -73 -52 -27 -71 -31 -140 -32 -44 0 -87 2 -95 5 -9 3 -15 -1 -15
      -10 0 -10 19 -20 54 -29 44 -12 68 -13 133 -3 115 17 215 67 299 151 44 44 77
      89 100 136 32 65 34 77 34 170 0 85 -3 106 -23 143 -13 24 -39 60 -58 82 l-35
      38 33 25 c38 29 150 87 167 87 6 0 11 7 11 15 0 8 -3 15 -7 15 -5 0 -33 -11
      -64 -24z M5610 1475 c-36 -7 -87 -21 -115 -30 -131 -44 -249 -133 -298 -224
      -15 -28 -30 -72 -34 -98 -3 -26 0 -67 6 -91 14 -52 61 -106 114 -133 21 -11
      69 -27 106 -35 36 -7 69 -14 73 -14 4 0 -12 -28 -36 -62 -84 -122 -116 -206
      -116 -308 1 -87 30 -145 93 -184 38 -23 62 -30 120 -34 48 -3 94 1 137 12 173
      43 353 175 421 308 11 21 19 58 19 83 0 35 -6 52 -23 69 -54 54 -179 38 -303
      -39 -79 -49 -206 -177 -243 -244 -13 -24 -19 -42 -14 -40 6 2 32 33 59 69 98
      130 272 245 387 257 43 4 57 1 80 -17 17 -14 27 -31 27 -49 0 -50 -49 -128
      -125 -199 -118 -110 -277 -182 -400 -182 -66 1 -129 30 -150 70 -9 18 -17 52
      -17 76 0 82 39 169 130 289 96 128 100 131 178 138 86 9 269 56 394 103 124
      47 296 135 370 190 81 62 157 148 171 194 9 30 9 46 0 68 -7 16 -24 34 -37 41
      -39 17 -140 13 -227 -10 -96 -26 -320 -136 -439 -216 -114 -76 -232 -171 -341
      -273 l-87 -82 -48 6 c-78 11 -137 35 -180 72 -46 39 -68 95 -57 147 12 56 58
      128 114 178 90 80 231 143 379 169 35 6 116 10 180 9 117 -1 153 9 77 23 -65
      11 -275 7 -345 -7z m964 -51 c43 -43 -5 -125 -126 -216 -143 -108 -294 -185
      -486 -247 -111 -36 -299 -78 -308 -68 -6 6 170 169 261 242 105 84 280 199
      367 240 43 20 99 43 125 50 69 19 148 19 167 -1z M9183 1275 c-122 -53 -315
      -246 -634 -635 -85 -104 -205 -215 -308 -284 -54 -37 -101 -47 -101 -23 0 20
      84 135 184 255 47 56 86 105 86 107 0 3 -20 5 -44 5 -39 0 -48 -4 -75 -37 -26
      -32 -31 -34 -31 -17 0 12 -8 28 -18 37 -23 21 -76 22 -131 3 -58 -21 -147 -84
      -211 -151 -68 -71 -189 -169 -241 -195 -47 -24 -89 -26 -89 -5 0 30 31 75 156
      233 l126 157 71 5 c44 3 72 10 75 18 3 8 -12 12 -52 12 -31 0 -56 3 -56 6 0 3
      34 45 75 94 41 48 72 89 70 91 -2 3 -24 3 -49 1 -44 -4 -48 -7 -121 -97 l-76
      -94 -56 -3 c-34 -2 -58 -8 -61 -15 -2 -9 10 -13 43 -13 l46 0 -59 -72 c-33
      -40 -77 -91 -99 -114 -56 -57 -158 -141 -227 -186 -60 -38 -116 -50 -116 -24
      0 20 41 78 161 223 60 72 109 135 109 139 0 3 -21 4 -46 1 -41 -4 -52 -11 -87
      -53 -91 -110 -266 -262 -352 -307 -44 -22 -79 -25 -83 -7 -1 9 38 63 88 120
      49 58 97 119 105 137 18 36 19 67 5 94 -8 14 -21 19 -51 19 -49 0 -139 -45
      -203 -102 -24 -21 -47 -38 -50 -38 -3 0 30 44 72 98 43 53 109 137 147 186
      l69 89 -43 -7 c-30 -5 -50 -15 -65 -34 -66 -84 -216 -249 -297 -327 -91 -88
      -241 -210 -286 -234 -32 -16 -63 -14 -63 5 0 9 20 45 45 80 53 73 205 257 217
      262 4 2 6 8 2 13 -3 5 -22 9 -44 9 -31 0 -44 -6 -69 -35 -24 -28 -31 -32 -31
      -17 0 29 -33 52 -73 52 -112 0 -288 -128 -357 -259 -7 -13 -13 -47 -13 -74 -1
      -40 3 -53 22 -68 13 -11 34 -19 47 -19 36 0 87 24 141 65 l48 37 3 -34 c2 -18
      11 -41 19 -51 33 -35 96 -14 204 69 35 27 95 78 134 114 l69 65 -75 -90 c-213
      -254 -369 -444 -369 -449 0 -3 20 -6 43 -6 l44 0 108 133 c199 241 278 329
      357 396 43 36 106 83 140 104 69 41 108 48 108 18 0 -10 -37 -60 -82 -110 -88
      -98 -128 -159 -128 -198 0 -29 33 -63 63 -63 12 0 46 11 76 25 54 26 110 64
      170 119 l33 31 -21 -40 c-26 -49 -27 -96 -3 -118 10 -10 32 -17 49 -17 48 0
      146 58 242 144 34 30 34 30 18 4 -9 -15 -19 -44 -23 -66 -5 -32 -2 -44 15 -61
      13 -13 34 -21 54 -21 44 0 118 38 194 99 l62 50 -6 -47 c-4 -38 -1 -52 17 -74
      13 -17 31 -28 46 -28 36 0 91 26 149 69 l50 38 -3 -38 c-3 -31 0 -40 22 -54
      18 -12 36 -15 60 -11 41 8 115 56 199 129 56 48 59 49 43 20 -23 -45 -24 -108
      -1 -133 48 -53 173 2 319 141 42 39 73 75 70 80 -3 5 -39 -21 -80 -57 -141
      -123 -243 -173 -261 -128 -3 9 1 31 10 48 8 18 57 88 107 155 85 113 99 127
      198 193 156 104 250 178 352 274 96 92 170 192 170 229 0 30 -25 55 -53 55
      -12 -1 -37 -7 -54 -15z m66 -28 c8 -10 6 -23 -7 -49 -10 -19 -36 -56 -56 -82
      -61 -73 -272 -250 -426 -356 l-35 -24 40 49 c174 218 367 425 425 455 19 11
      38 19 41 20 4 0 12 -6 18 -13z m-2785 -583 c44 -17 -7 -110 -124 -226 -81 -79
      -141 -118 -185 -118 -19 0 -25 5 -25 20 0 31 26 77 86 151 79 99 174 176 221
      178 6 1 18 -2 27 -5z m1764 -21 c5 -35 -32 -95 -113 -181 -83 -89 -158 -142
      -198 -142 -23 0 -27 4 -27 29 0 17 16 53 39 87 49 74 162 188 210 214 47 25
      85 22 89 -7z M4721 1269 c-45 -18 -148 -98 -227 -176 -91 -90 -243 -261 -363
      -411 -127 -158 -371 -362 -433 -362 -16 0 -28 5 -28 13 0 22 52 97 158 226 56
      68 102 128 102 133 0 4 -18 8 -40 8 -32 0 -45 -6 -67 -30 l-27 -31 -13 25 c-8
      14 -25 29 -39 32 -39 10 -100 -2 -159 -31 -29 -14 -91 -60 -137 -101 -118
      -108 -221 -191 -270 -219 -41 -24 -98 -34 -98 -17 0 14 39 67 99 137 64 74
      101 137 101 173 0 31 -35 62 -69 62 -35 0 -112 -40 -169 -88 -24 -21 -53 -44
      -64 -52 -20 -14 -20 -14 -4 17 21 42 20 86 -2 106 -24 21 -54 21 -95 0 -18 -9
      -84 -66 -147 -127 -187 -180 -260 -236 -310 -236 -11 0 -20 6 -20 13 0 21 51
      93 159 227 55 69 101 128 101 133 0 4 -17 7 -37 7 -28 0 -45 -8 -70 -32 -23
      -22 -33 -27 -33 -17 0 9 -9 24 -20 34 -42 38 -173 -2 -278 -85 -98 -77 -161
      -195 -141 -265 5 -16 17 -36 26 -43 32 -24 91 -7 168 46 l71 49 -4 -34 c-5
      -42 20 -73 58 -73 57 0 131 52 291 205 87 84 175 160 195 170 44 20 62 9 44
      -26 -12 -22 -147 -192 -235 -296 l-37 -43 47 0 c47 0 47 0 162 120 116 121
      212 204 270 234 34 17 83 22 83 8 0 -12 -48 -76 -113 -150 -61 -70 -87 -116
      -87 -156 0 -14 10 -36 21 -47 17 -17 29 -20 61 -16 48 6 131 55 204 120 47 43
      53 45 44 22 -5 -14 -10 -42 -10 -61 0 -44 37 -84 78 -84 36 0 117 40 160 79
      l32 30 0 -38 c0 -44 24 -71 61 -71 13 0 44 9 68 20 47 22 92 55 189 138 34 29
      62 52 62 49 0 -2 -7 -19 -16 -37 -9 -18 -19 -52 -22 -76 -4 -36 -1 -46 21 -68
      19 -19 37 -26 64 -26 43 0 120 33 190 81 64 44 194 169 187 180 -3 5 -42 -23
      -86 -61 -45 -39 -106 -86 -136 -106 -84 -56 -170 -76 -173 -40 -3 28 4 54 27
      93 38 65 170 239 196 257 12 10 68 47 123 83 55 36 129 89 165 117 162 126
      290 275 290 337 0 51 -42 71 -99 48z m69 -47 c0 -51 -124 -190 -277 -310 -110
      -86 -228 -169 -218 -151 16 26 188 234 269 323 45 49 101 104 126 122 50 38
      100 45 100 16z m-2302 -583 c4 -36 -63 -132 -148 -213 -97 -92 -181 -131 -196
      -92 -3 8 9 43 28 78 37 71 173 214 228 241 19 9 46 16 60 15 19 -2 26 -10 28
      -29z m1261 12 c15 -28 -26 -103 -102 -186 -69 -75 -119 -115 -178 -139 -30
      -12 -39 -13 -54 -2 -17 12 -16 15 4 60 26 60 107 163 169 214 85 71 142 90
      161 53z M7600 910 c-11 -11 -20 -25 -20 -31 0 -24 22 -49 44 -49 25 0 66 38
      66 61 0 40 -57 52 -90 19z"/>
    </g>
    <g opacity="0.20000000" transform="translate(0,190) scale(0.100000,-0.100000)">
      <path d="M2654 1629 c-28 -10 -79 -36 -114 -58 l-64 -38 -60 28 c-34 16 -90
      36 -126 46 -52 14 -102 18 -250 17 -167 0 -194 -3 -283 -27 -242 -65 -458
      -191 -591 -345 -64 -75 -93 -121 -122 -198 -55 -148 -12 -278 111 -330 54 -22
      177 -29 261 -15 38 7 102 25 142 41 188 76 352 228 418 388 13 31 24 77 24
      100 0 24 -8 57 -17 73 -9 16 -33 36 -52 45 -25 12 -51 15 -100 11 -36 -2 -93
      -14 -125 -26 -154 -54 -319 -196 -415 -353 -35 -58 -9 -45 34 17 20 30 77 93
      125 138 70 67 109 94 193 137 91 46 114 53 179 58 56 3 82 0 105 -12 20 -10
      34 -26 38 -45 14 -66 -29 -153 -134 -264 -44 -46 -114 -108 -156 -136 -88 -61
      -197 -113 -275 -131 -70 -17 -155 -17 -213 0 -59 16 -114 68 -123 116 -12 67
      1 140 41 220 28 57 61 101 124 167 93 97 206 178 322 231 159 73 351 116 514
      116 44 -1 114 -7 155 -14 78 -14 174 -47 203 -69 14 -11 7 -19 -56 -72 -116
      -96 -248 -244 -405 -454 -80 -108 -182 -241 -227 -296 -103 -125 -264 -279
      -338 -324 -102 -60 -174 -83 -273 -89 -101 -5 -148 5 -194 45 -39 32 -39 51
      -1 45 20 -3 35 2 50 17 12 12 21 30 21 41 0 24 -34 60 -55 60 -34 0 -74 -30
      -85 -64 -9 -27 -8 -41 3 -69 18 -42 68 -81 122 -96 22 -6 80 -11 128 -11 99 0
      208 24 303 66 157 69 338 223 473 401 34 46 125 176 202 289 151 223 229 325
      323 419 l59 59 27 -33 c32 -38 50 -99 50 -168 -1 -105 -83 -261 -186 -352 -26
      -23 -77 -56 -113 -74 -55 -27 -77 -32 -136 -32 -38 0 -79 2 -90 5 -13 3 -20 0
      -20 -10 0 -10 19 -20 54 -29 44 -12 68 -13 135 -3 114 16 212 66 297 151 44
      44 77 89 100 136 32 65 34 77 34 170 0 85 -3 106 -23 143 -13 24 -39 60 -58
      82 l-35 38 33 26 c18 13 68 41 111 61 42 21 74 41 71 46 -3 5 -8 9 -12 8 -4 0
      -30 -9 -58 -20z M5627 1480 c-71 -12 -175 -48 -241 -83 -78 -42 -155 -113
      -190 -176 -33 -61 -44 -142 -26 -195 16 -49 63 -102 113 -127 32 -17 148 -48
      180 -49 4 0 -8 -21 -28 -47 -20 -26 -55 -85 -78 -131 -36 -74 -41 -93 -45
      -170 -3 -77 -1 -92 20 -132 16 -29 41 -55 71 -74 38 -23 62 -30 120 -34 87 -5
      171 14 272 62 39 18 99 56 135 85 111 89 170 178 170 256 0 35 -6 52 -23 69
      -13 13 -42 27 -65 31 -54 9 -151 -16 -222 -58 -67 -39 -227 -196 -258 -254
      -13 -24 -20 -43 -15 -43 5 0 29 28 53 61 49 68 138 150 215 198 65 41 176 75
      217 67 42 -8 68 -33 68 -65 -1 -42 -35 -107 -87 -162 -121 -131 -299 -219
      -438 -219 -65 1 -129 30 -149 69 -25 48 -20 123 14 204 28 68 106 183 176 260
      28 30 39 35 100 40 81 8 264 55 384 99 115 41 307 140 378 193 86 65 158 146
      173 193 9 32 9 47 0 70 -7 16 -24 34 -37 41 -39 17 -142 13 -224 -9 -90 -25
      -283 -116 -400 -190 -118 -74 -247 -174 -367 -286 l-103 -96 -63 10 c-34 6
      -79 17 -99 26 -57 24 -106 73 -118 116 -20 75 14 157 101 241 90 86 231 152
      387 179 35 6 116 10 180 9 117 -1 153 9 77 23 -53 9 -267 8 -328 -2z m947 -56
      c56 -55 -39 -171 -239 -294 -157 -97 -376 -182 -564 -220 -57 -11 -108 -19
      -113 -18 -6 2 27 39 73 82 171 159 384 318 521 387 138 70 286 99 322 63z
      M9163 1265 c-28 -14 -84 -54 -124 -89 -110 -93 -239 -233 -415 -446 -155 -189
      -258 -289 -381 -373 -56 -37 -103 -48 -103 -24 0 19 83 134 184 255 47 56 86
      104 86 107 0 3 -20 5 -44 5 -39 0 -48 -4 -75 -37 -26 -32 -31 -34 -31 -17 0
      12 -9 29 -20 39 -15 14 -31 17 -69 13 -79 -8 -155 -53 -266 -159 -160 -153
      -253 -219 -310 -219 -17 0 -25 5 -25 18 0 27 36 80 165 241 l120 149 69 4 c42
      2 71 8 73 15 3 8 -14 13 -53 15 l-58 3 78 93 c43 52 76 95 74 96 -1 1 -24 1
      -50 -2 -46 -4 -49 -6 -123 -97 l-76 -94 -56 -3 c-70 -4 -84 -25 -19 -30 l44
      -3 -77 -91 c-42 -50 -108 -119 -147 -153 -98 -88 -209 -161 -245 -161 -18 0
      -29 5 -29 14 0 20 41 78 161 223 60 72 109 134 109 137 0 3 -20 6 -44 6 -42 0
      -45 -2 -119 -89 -107 -126 -311 -285 -377 -293 -16 -2 -26 2 -28 13 -1 8 38
      61 87 118 49 56 96 117 105 136 19 38 20 68 6 96 -8 14 -21 19 -51 19 -49 0
      -139 -45 -203 -102 -24 -21 -47 -38 -50 -38 -3 0 39 55 92 123 54 67 119 150
      146 185 43 57 45 62 24 61 -13 -1 -32 -4 -44 -7 -11 -4 -66 -61 -121 -127
      -144 -172 -341 -358 -477 -449 -46 -31 -86 -35 -86 -8 0 20 97 151 198 269 39
      44 68 84 65 87 -4 3 -23 6 -44 6 -30 0 -43 -7 -68 -35 -24 -28 -31 -32 -31
      -17 0 10 -9 27 -20 37 -15 14 -31 17 -69 13 -27 -3 -73 -17 -103 -31 -80 -39
      -178 -126 -217 -192 -27 -45 -35 -68 -35 -108 0 -40 5 -53 23 -68 13 -11 35
      -19 50 -19 35 1 97 30 146 70 l40 32 6 -42 c3 -23 12 -46 20 -51 19 -12 52
      -11 86 2 39 15 165 111 247 188 l70 66 -75 -90 c-243 -291 -369 -444 -369
      -450 0 -3 20 -5 45 -3 l45 3 188 225 c194 233 298 335 414 403 70 41 108 48
      108 18 0 -10 -34 -56 -76 -102 -42 -46 -89 -104 -105 -128 -16 -25 -29 -58
      -29 -73 0 -35 32 -68 65 -68 37 0 130 50 203 109 34 28 62 49 62 47 0 -2 -7
      -17 -15 -32 -21 -41 -19 -87 5 -109 15 -13 30 -16 60 -12 48 6 130 53 200 115
      28 24 50 41 50 39 0 -3 -7 -18 -15 -33 -21 -41 -19 -80 6 -105 17 -17 30 -20
      65 -16 49 5 133 52 200 110 l43 38 -5 -48 c-5 -40 -2 -53 16 -75 13 -17 31
      -28 46 -28 36 0 91 26 149 69 l51 38 -4 -34 c-3 -23 1 -40 13 -53 38 -42 110
      -16 235 85 47 39 80 60 76 49 -16 -37 -24 -87 -19 -103 25 -70 96 -67 213 7
      64 40 202 171 194 183 -3 5 -39 -21 -80 -57 -141 -123 -243 -173 -261 -128 -3
      9 1 31 10 48 8 18 57 88 107 155 85 113 99 127 198 193 158 106 257 183 355
      277 95 91 167 189 167 226 0 30 -25 55 -54 55 -12 0 -45 -11 -73 -25z m86 -18
      c8 -10 6 -23 -7 -49 -10 -19 -36 -56 -56 -82 -61 -73 -272 -250 -426 -356
      l-35 -24 40 49 c168 211 368 425 425 456 19 10 38 18 41 19 4 0 12 -6 18 -13z
      m-2775 -600 c9 -13 6 -27 -12 -61 -34 -63 -143 -178 -213 -225 -64 -43 -119
      -55 -119 -26 0 32 32 90 85 155 58 73 147 153 186 169 33 14 60 9 73 -12z
      m1754 -4 c5 -35 -32 -95 -113 -181 -83 -89 -158 -142 -198 -142 -23 0 -27 4
      -27 28 0 15 18 54 39 87 48 74 161 189 210 215 47 25 85 22 89 -7z M4694 1254
      c-122 -65 -294 -241 -590 -606 -64 -77 -217 -216 -319 -287 -59 -42 -115 -55
      -115 -27 0 21 70 121 170 239 49 59 90 112 90 117 0 6 -18 10 -41 10 -32 0
      -46 -6 -68 -30 l-28 -31 -11 25 c-6 14 -23 28 -37 32 -40 10 -101 -2 -160 -30
      -29 -15 -92 -61 -140 -104 -154 -137 -209 -182 -260 -212 -47 -28 -105 -40
      -105 -21 0 11 32 55 109 148 65 79 91 126 91 163 0 29 -35 60 -67 60 -40 -1
      -100 -31 -162 -81 -29 -24 -63 -51 -74 -59 -19 -14 -19 -14 -3 17 21 42 20 86
      -2 106 -10 10 -30 17 -43 17 -14 0 -46 -13 -71 -29 -25 -16 -100 -83 -166
      -149 -66 -66 -149 -138 -182 -161 -62 -41 -110 -53 -110 -28 0 20 48 89 159
      227 56 69 101 128 101 133 0 4 -17 7 -37 7 -28 0 -45 -8 -70 -32 -23 -22 -33
      -27 -33 -17 0 9 -9 24 -20 34 -15 14 -31 17 -70 13 -73 -7 -174 -62 -246 -133
      -33 -34 -71 -83 -84 -110 -14 -29 -23 -66 -23 -93 0 -36 5 -49 24 -65 37 -30
      90 -17 174 41 l71 49 -4 -34 c-5 -42 20 -73 58 -73 57 0 131 52 288 202 151
      145 216 194 239 180 21 -13 -12 -64 -139 -217 l-125 -150 43 -3 43 -3 143 145
      c148 150 249 226 300 226 15 0 28 -4 28 -8 0 -12 -48 -76 -113 -150 -61 -70
      -87 -116 -87 -156 0 -14 10 -36 21 -47 17 -17 29 -20 61 -16 48 6 131 55 204
      120 47 43 53 45 44 22 -5 -14 -10 -42 -10 -61 0 -24 8 -43 25 -59 13 -14 36
      -25 50 -25 36 0 89 24 146 66 l49 36 0 -35 c0 -41 25 -67 64 -67 44 0 134 53
      228 135 l86 74 -19 -50 c-26 -67 -24 -105 6 -134 17 -18 35 -25 62 -25 75 0
      219 88 331 203 30 30 50 57 44 61 -5 3 -31 -15 -58 -40 -71 -67 -155 -130
      -209 -159 -52 -27 -120 -34 -128 -12 -9 23 18 81 71 158 95 137 141 189 203
      227 142 87 281 194 380 292 106 104 149 166 149 214 0 31 -24 56 -54 56 -13 0
      -45 -12 -72 -26z m96 -32 c0 -50 -126 -191 -280 -312 -91 -72 -220 -163 -220
      -156 0 8 191 237 279 335 42 46 96 99 121 117 50 38 100 45 100 16z m-2302
      -580 c2 -12 -8 -43 -23 -68 -38 -65 -141 -172 -209 -216 -61 -40 -103 -48
      -112 -24 -3 8 9 43 28 78 37 71 173 214 228 241 47 23 84 19 88 -11z m1261 9
      c15 -28 -26 -103 -102 -186 -69 -75 -119 -115 -178 -139 -30 -12 -39 -13 -54
      -2 -17 12 -16 15 4 61 25 57 113 167 172 215 85 69 139 87 158 51z M7600 910
      c-11 -11 -20 -25 -20 -31 0 -24 22 -49 44 -49 25 0 66 38 66 61 0 40 -57 52
      -90 19z"/>
    </g>
    <g opacity="0.25000000" transform="translate(0,190) scale(0.100000,-0.100000)">
      <path d="M2654 1629 c-28 -10 -79 -36 -114 -58 l-64 -38 -60 28 c-34 16 -88
      36 -121 45 -80 22 -323 30 -424 14 -99 -16 -227 -53 -314 -91 -162 -71 -318
      -184 -405 -293 -65 -82 -79 -106 -108 -182 -32 -87 -32 -164 1 -230 14 -27 40
      -59 60 -73 102 -69 296 -67 466 4 162 68 315 204 383 338 46 90 57 166 33 214
      -9 17 -33 38 -53 48 -72 34 -223 5 -342 -67 -118 -71 -231 -185 -301 -300 -35
      -58 -9 -45 33 16 50 72 188 203 259 245 89 52 176 84 245 89 74 5 120 -11 134
      -47 23 -61 -21 -156 -122 -264 -122 -131 -261 -222 -405 -267 -80 -24 -189
      -28 -253 -9 -53 15 -110 71 -118 116 -12 66 1 139 41 219 70 144 260 313 446
      398 159 73 351 116 514 116 44 -1 114 -7 155 -14 78 -14 174 -47 203 -69 14
      -11 7 -19 -59 -74 -113 -92 -239 -235 -402 -453 -80 -107 -182 -240 -228 -295
      -93 -114 -237 -257 -304 -302 -115 -78 -223 -113 -341 -113 -83 0 -146 23
      -173 61 -9 13 -16 26 -16 29 0 4 13 5 29 2 20 -3 35 2 50 17 12 12 21 30 21
      41 0 24 -34 60 -55 60 -34 0 -74 -30 -85 -64 -9 -27 -8 -41 3 -69 18 -42 68
      -81 122 -96 64 -18 208 -13 294 9 102 26 178 60 281 127 97 64 248 211 333
      325 32 43 116 163 187 268 150 221 232 329 324 424 57 59 68 67 82 55 30 -25
      57 -94 62 -159 3 -52 -1 -80 -21 -137 -29 -83 -96 -183 -163 -242 -67 -59
      -164 -104 -235 -109 -32 -2 -72 0 -88 6 -21 7 -33 8 -37 1 -10 -17 9 -29 69
      -41 44 -9 73 -9 129 0 43 7 104 27 148 49 99 48 194 142 241 238 32 65 34 76
      34 170 0 85 -3 106 -23 143 -13 24 -39 60 -58 82 l-35 38 33 26 c18 13 68 41
      111 61 42 21 74 41 71 46 -3 5 -8 9 -12 8 -4 0 -30 -9 -58 -20z M5645 1483
      c-127 -18 -285 -87 -367 -162 -30 -27 -66 -72 -82 -100 -33 -61 -44 -142 -26
      -195 16 -49 63 -102 113 -127 32 -17 148 -48 180 -49 4 0 -10 -24 -32 -52 -22
      -29 -57 -89 -78 -133 -36 -75 -38 -85 -38 -176 0 -87 2 -99 27 -136 17 -26 45
      -50 79 -67 41 -20 68 -26 119 -26 36 0 93 7 125 15 88 23 191 75 265 134 111
      89 170 178 170 256 0 35 -6 52 -24 70 -13 13 -40 27 -61 31 -49 9 -152 -17
      -224 -58 -66 -37 -227 -195 -259 -255 -13 -24 -20 -43 -15 -43 5 0 29 28 53
      62 57 77 175 180 254 218 34 17 86 35 116 42 45 9 61 9 85 -3 16 -8 34 -26 39
      -41 22 -63 -64 -185 -197 -279 -95 -67 -203 -109 -292 -116 -62 -5 -80 -2
      -119 17 -61 29 -79 64 -74 144 3 41 14 82 35 126 32 65 110 177 169 243 28 30
      39 35 96 40 87 8 284 58 395 101 114 43 260 116 343 171 89 59 185 160 200
      213 10 32 10 47 1 71 -8 17 -26 35 -43 42 -45 19 -133 13 -232 -16 -101 -29
      -283 -118 -406 -197 -118 -77 -249 -180 -358 -283 l-92 -87 -66 12 c-75 12
      -148 46 -182 82 -12 14 -27 40 -32 59 -21 73 14 157 103 242 68 65 175 122
      297 158 59 17 107 23 225 25 83 2 152 7 155 11 3 4 -13 11 -35 15 -42 7 -259
      8 -310 1z m927 -60 c10 -9 18 -27 18 -40 0 -37 -52 -105 -122 -161 -131 -103
      -299 -191 -490 -255 -105 -36 -301 -81 -321 -74 -12 4 147 151 270 249 102 83
      243 177 325 219 140 71 280 98 320 62z M9183 1275 c-122 -53 -336 -266 -609
      -605 -99 -122 -226 -242 -335 -316 -52 -35 -83 -42 -95 -23 -8 14 64 118 176
      252 49 59 90 109 90 112 0 3 -20 5 -44 5 -39 0 -48 -4 -75 -37 -26 -32 -31
      -34 -31 -17 0 12 -9 29 -20 39 -15 14 -31 17 -69 13 -79 -8 -155 -53 -266
      -159 -160 -153 -253 -219 -310 -219 -32 0 -33 22 -2 72 12 20 76 104 142 186
      l120 150 69 4 c42 2 71 8 73 15 3 8 -14 13 -53 15 l-58 3 78 93 c43 52 76 96
      73 99 -3 2 -26 1 -51 -2 -42 -7 -50 -13 -121 -101 l-76 -93 -56 -3 c-70 -4
      -84 -25 -19 -30 l44 -3 -77 -91 c-42 -50 -108 -119 -147 -153 -98 -88 -209
      -161 -245 -161 -18 0 -29 5 -29 14 0 20 41 76 161 222 60 73 109 135 109 138
      0 3 -20 6 -44 6 -42 0 -45 -2 -118 -88 -114 -133 -320 -292 -380 -292 -17 0
      -28 5 -28 13 0 8 37 56 83 108 45 52 92 110 105 130 24 39 28 79 12 110 -24
      45 -142 10 -240 -70 -60 -50 -81 -60 -49 -25 15 16 81 99 148 184 107 138 118
      155 98 158 -13 2 -32 -1 -43 -5 -11 -4 -66 -62 -121 -128 -144 -172 -341 -358
      -477 -449 -42 -28 -86 -35 -86 -12 0 8 16 37 35 66 39 58 193 248 218 269 9 7
      14 17 11 22 -3 5 -22 9 -44 9 -31 0 -44 -6 -69 -35 -24 -28 -31 -32 -31 -17 0
      10 -9 27 -20 37 -15 14 -31 17 -69 13 -27 -3 -73 -17 -103 -31 -80 -40 -167
      -114 -209 -179 -42 -65 -55 -120 -40 -161 6 -15 22 -32 35 -38 45 -21 95 -2
      206 78 22 17 24 17 17 1 -3 -10 -1 -31 4 -47 21 -59 85 -53 185 18 38 26 105
      81 149 122 44 41 67 58 51 39 -16 -19 -113 -136 -215 -258 -102 -123 -188
      -228 -190 -234 -2 -5 16 -8 43 -6 l46 3 188 225 c194 233 298 335 414 403 70
      41 108 48 108 18 0 -10 -34 -56 -76 -102 -42 -46 -89 -104 -105 -128 -16 -25
      -29 -58 -29 -73 0 -15 9 -37 20 -48 23 -23 56 -26 97 -8 46 20 129 75 172 114
      23 20 41 34 41 31 0 -2 -7 -18 -15 -33 -21 -41 -19 -87 5 -109 15 -13 30 -16
      60 -12 48 6 130 53 200 115 28 24 50 41 50 39 0 -3 -7 -18 -15 -33 -33 -64 -5
      -124 58 -124 45 0 140 49 204 105 l52 46 -5 -48 c-5 -40 -2 -53 16 -75 37 -48
      91 -36 195 42 l51 37 -4 -34 c-3 -23 1 -40 13 -53 38 -42 110 -16 231 82 l80
      64 -14 -54 c-13 -51 -12 -57 6 -81 10 -14 30 -28 43 -29 35 -6 97 16 159 55
      65 42 202 172 194 185 -3 4 -40 -22 -82 -59 -141 -123 -241 -172 -259 -127 -3
      9 1 31 10 48 8 18 56 88 107 154 88 118 96 125 223 211 73 50 168 119 213 155
      103 83 232 219 264 279 20 37 22 51 14 74 -7 21 -17 29 -39 30 -17 2 -45 -4
      -62 -12z m66 -63 c-15 -42 -76 -113 -174 -202 -94 -87 -153 -133 -275 -220
      l-75 -53 40 49 c189 236 372 428 430 455 49 22 68 11 54 -29z m-2776 -563 c16
      -25 -23 -93 -98 -176 -77 -85 -174 -153 -217 -153 -29 0 -30 2 -24 33 10 48
      70 133 150 212 99 98 163 126 189 84z m1755 -6 c5 -33 -30 -91 -99 -167 -83
      -91 -172 -156 -211 -156 -29 0 -30 2 -25 35 3 18 23 60 45 92 50 73 155 179
      201 204 47 24 85 21 89 -8z M4692 1253 c-28 -16 -81 -52 -117 -82 -92 -77
      -273 -276 -444 -489 -84 -105 -257 -263 -358 -328 -52 -34 -103 -45 -103 -21
      0 6 10 28 21 47 26 43 199 258 228 284 11 10 18 23 15 27 -3 5 -25 9 -49 9
      -37 0 -47 -4 -66 -31 l-22 -31 -14 26 c-7 14 -25 29 -39 32 -41 10 -112 -4
      -166 -33 -27 -15 -83 -57 -124 -93 -41 -36 -107 -93 -147 -128 -40 -35 -94
      -76 -122 -93 -48 -27 -105 -39 -105 -20 0 11 31 53 113 153 75 92 97 143 79
      183 -6 13 -23 27 -38 31 -52 13 -101 -12 -252 -130 l-24 -19 16 31 c9 17 16
      44 16 60 0 34 -27 62 -59 62 -44 0 -103 -43 -233 -171 -139 -137 -234 -209
      -274 -209 -48 0 -29 33 121 221 59 73 109 139 112 146 4 9 -6 13 -33 13 -29 0
      -46 -7 -71 -32 -23 -22 -33 -27 -33 -17 0 9 -9 24 -20 34 -16 14 -30 17 -75
      12 -74 -8 -166 -58 -241 -132 -33 -34 -71 -83 -84 -110 -14 -29 -23 -66 -23
      -93 0 -36 5 -49 24 -65 37 -30 90 -17 174 41 l71 49 -4 -34 c-3 -23 2 -40 14
      -54 15 -17 27 -20 57 -16 21 3 62 20 92 38 30 18 118 95 196 171 137 135 203
      184 226 170 21 -13 -12 -65 -140 -217 l-125 -150 43 -3 44 -3 143 145 c148
      150 249 226 300 226 15 0 28 -4 28 -8 0 -12 -48 -76 -113 -150 -61 -70 -87
      -116 -87 -156 0 -14 10 -36 21 -47 17 -17 29 -20 61 -16 48 6 131 55 204 120
      47 43 53 45 44 22 -5 -14 -10 -42 -10 -61 0 -45 37 -84 80 -84 36 0 76 19 143
      67 l47 35 0 -35 c0 -41 25 -67 64 -67 44 0 134 54 230 137 73 63 85 70 71 44
      -9 -18 -19 -54 -22 -81 -5 -43 -3 -51 20 -74 19 -19 36 -26 64 -26 75 0 217
      86 326 198 34 34 55 62 49 66 -6 4 -35 -16 -64 -43 -79 -73 -148 -126 -202
      -155 -53 -28 -121 -35 -129 -13 -9 23 18 81 71 158 96 138 141 188 204 227
      133 81 288 201 384 297 56 55 111 119 123 142 23 47 27 93 9 111 -19 19 -62
      14 -116 -15z m98 -31 c0 -49 -129 -193 -283 -316 -75 -59 -217 -158 -217 -151
      0 2 46 60 102 127 219 264 316 358 371 358 19 0 27 -5 27 -18z m-2302 -580 c2
      -12 -8 -43 -23 -68 -38 -64 -137 -167 -207 -214 -62 -41 -104 -51 -114 -26
      -10 27 59 136 135 215 42 43 94 88 116 100 51 27 89 24 93 -7z m1260 -5 c5
      -41 -40 -110 -128 -198 -79 -80 -141 -119 -185 -119 -21 0 -25 5 -25 28 0 40
      67 140 146 217 73 73 126 106 164 102 19 -1 26 -8 28 -30z M7600 910 c-11 -11
      -20 -25 -20 -31 0 -24 22 -49 44 -49 25 0 66 38 66 61 0 40 -57 52 -90 19z"/>
    </g>
    <g opacity="0.33333333" transform="translate(0,190) scale(0.100000,-0.100000)">
      <path d="M2654 1629 c-28 -10 -79 -36 -114 -58 l-64 -38 -60 28 c-104 48 -170
      61 -331 66 -115 4 -172 1 -240 -12 -187 -35 -372 -111 -514 -212 -83 -60 -176
      -154 -226 -229 -53 -80 -85 -171 -85 -243 0 -45 7 -71 28 -112 23 -45 37 -59
      85 -83 47 -24 74 -30 143 -34 96 -5 176 8 277 45 160 60 331 207 401 346 66
      129 59 224 -18 261 -72 34 -205 11 -326 -56 -83 -46 -175 -123 -238 -199 -60
      -71 -109 -149 -94 -149 5 0 26 24 46 54 50 72 188 203 259 245 31 18 85 44
      119 58 74 30 175 41 217 23 16 -6 34 -24 41 -40 25 -61 -20 -157 -127 -270
      -118 -125 -257 -216 -397 -259 -45 -14 -95 -21 -150 -21 -68 0 -91 4 -132 25
      -27 14 -58 38 -69 53 -16 22 -20 43 -20 108 0 73 4 87 38 156 25 52 62 103
      113 157 41 44 106 103 143 130 238 177 591 266 861 217 78 -14 174 -47 203
      -69 14 -10 7 -20 -61 -75 -42 -35 -117 -107 -166 -160 -48 -53 -154 -185 -234
      -292 -80 -107 -183 -240 -228 -295 -93 -113 -237 -257 -304 -302 -111 -75
      -222 -113 -331 -113 -35 0 -82 5 -103 11 -37 10 -96 57 -96 76 0 5 13 8 29 5
      20 -3 35 2 50 17 12 12 21 30 21 41 0 23 -33 60 -54 60 -36 0 -68 -22 -82 -56
      -12 -28 -13 -43 -4 -68 15 -46 59 -85 115 -102 62 -18 212 -18 293 1 162 38
      345 149 483 292 99 103 149 169 330 435 155 228 236 333 325 423 55 56 67 65
      80 54 30 -25 57 -94 62 -159 3 -50 -1 -80 -18 -130 -28 -83 -97 -187 -163
      -245 -72 -64 -165 -108 -238 -113 -32 -2 -72 0 -88 6 -21 7 -33 8 -37 1 -10
      -17 9 -29 69 -41 44 -9 73 -9 129 0 43 7 104 27 148 49 98 48 194 142 240 237
      29 58 35 82 38 156 4 79 2 94 -22 147 -15 32 -43 74 -62 94 l-36 37 34 25 c18
      14 68 42 111 62 42 21 74 41 71 46 -3 5 -8 9 -12 8 -4 0 -30 -9 -58 -20z
      M5640 1483 c-73 -12 -182 -48 -243 -80 -38 -20 -93 -58 -121 -84 -29 -26 -64
      -70 -80 -98 -33 -61 -44 -142 -26 -195 16 -49 63 -102 113 -127 32 -17 148
      -48 180 -49 4 0 -10 -24 -32 -52 -22 -29 -57 -89 -78 -133 -36 -75 -38 -85
      -38 -176 0 -87 2 -99 27 -136 17 -26 45 -50 79 -67 42 -21 67 -26 125 -26 125
      0 267 56 385 150 110 88 169 177 169 255 0 35 -6 52 -24 70 -13 13 -41 27 -61
      31 -21 4 -61 1 -92 -6 -105 -23 -220 -99 -317 -209 -55 -64 -103 -141 -87
      -141 6 0 23 19 37 43 37 58 136 153 213 205 35 23 95 52 134 64 53 16 78 19
      106 12 22 -6 41 -19 50 -35 12 -22 13 -34 2 -68 -6 -23 -31 -65 -55 -94 -57
      -70 -146 -141 -231 -183 -133 -66 -244 -81 -322 -43 -24 12 -50 34 -58 50 -22
      42 -19 121 9 189 29 71 97 175 165 251 49 55 51 56 118 62 88 9 276 57 394
      102 124 48 280 127 353 179 131 94 208 198 192 260 -9 35 -41 63 -79 69 -44 6
      -150 -9 -227 -34 -87 -28 -275 -123 -380 -191 -118 -76 -248 -179 -358 -283
      l-92 -87 -59 10 c-78 14 -152 47 -186 82 -14 15 -30 45 -35 66 -18 77 15 152
      102 235 66 64 180 126 298 160 59 17 107 23 225 25 83 2 152 7 155 11 3 4 -13
      11 -35 15 -42 7 -273 8 -315 1z m928 -59 c12 -8 22 -25 22 -38 0 -36 -54 -108
      -122 -162 -139 -111 -302 -195 -510 -263 -114 -37 -295 -77 -305 -67 -4 4 153
      150 243 224 169 141 392 274 514 306 73 19 130 20 158 0z M9141 1253 c-118
      -69 -335 -295 -588 -609 -80 -99 -214 -222 -314 -290 -52 -35 -83 -42 -95 -23
      -8 14 64 118 176 252 49 59 90 109 90 112 0 3 -20 5 -44 5 -38 0 -48 -5 -75
      -35 -25 -29 -31 -32 -31 -16 0 59 -86 68 -186 21 -45 -22 -95 -60 -166 -128
      -167 -158 -256 -222 -313 -222 -32 0 -33 22 -2 71 12 20 76 104 142 187 l120
      151 69 3 c43 2 71 8 73 15 3 8 -14 13 -53 15 l-57 3 78 93 c42 52 74 96 71 99
      -3 3 -25 2 -50 -1 -42 -7 -50 -13 -121 -101 l-77 -94 -56 -3 c-33 -2 -57 -8
      -60 -15 -2 -9 10 -13 43 -13 l46 0 -63 -76 c-132 -160 -345 -334 -409 -334
      -18 0 -29 5 -29 14 0 20 41 76 161 222 60 73 109 135 109 138 0 3 -20 6 -44 6
      -42 0 -45 -2 -118 -88 -114 -133 -320 -292 -380 -292 -15 0 -28 3 -28 6 0 15
      30 56 90 124 37 41 79 93 93 115 31 45 36 105 11 126 -9 7 -30 13 -48 12 -40
      -1 -125 -43 -186 -91 -68 -54 -77 -59 -49 -27 15 17 81 100 148 185 107 138
      118 155 98 158 -13 2 -32 -1 -43 -5 -12 -4 -56 -51 -100 -103 -153 -185 -331
      -355 -478 -459 -60 -41 -106 -53 -106 -27 0 8 16 37 35 66 39 58 193 248 219
      269 9 7 16 17 16 22 0 5 -20 9 -44 9 -38 0 -48 -5 -75 -35 -24 -28 -31 -32
      -31 -17 0 31 -32 52 -82 52 -56 0 -140 -41 -224 -109 -100 -81 -157 -187 -137
      -255 5 -17 20 -37 34 -45 44 -25 94 -7 209 76 13 10 21 12 16 5 -4 -7 -2 -28
      4 -47 21 -63 83 -59 186 14 38 26 105 81 149 122 44 41 67 58 51 39 -16 -19
      -113 -135 -215 -258 -102 -123 -187 -227 -189 -233 -2 -5 16 -9 40 -9 l45 0
      183 221 c192 232 308 344 422 412 70 42 108 48 108 18 0 -11 -35 -57 -77 -103
      -90 -97 -133 -162 -133 -198 0 -14 7 -36 16 -49 14 -20 23 -23 59 -18 49 5
      138 56 208 117 46 41 60 43 32 6 -22 -29 -19 -89 5 -111 15 -13 30 -16 60 -12
      48 6 130 53 200 115 l49 43 -14 -35 c-8 -20 -15 -47 -15 -61 0 -35 33 -65 73
      -65 45 0 140 49 203 104 l51 45 -5 -47 c-3 -38 0 -53 18 -75 37 -47 91 -35
      195 43 l51 37 -4 -34 c-5 -42 20 -73 60 -73 41 0 96 31 186 104 l78 63 -15
      -54 c-14 -51 -13 -55 6 -81 11 -15 32 -28 47 -30 38 -5 106 20 163 59 63 43
      194 169 187 181 -3 4 -39 -21 -81 -57 -99 -87 -172 -134 -216 -142 -29 -4 -38
      -2 -43 12 -4 10 1 33 12 54 10 20 59 89 108 154 85 113 96 123 210 200 67 44
      162 113 211 152 114 92 243 226 275 287 20 38 22 52 14 75 -7 22 -16 29 -44
      31 -26 2 -52 -7 -99 -35z m108 -42 c-26 -75 -234 -270 -449 -421 -41 -29 -68
      -44 -59 -34 9 10 60 73 114 139 55 66 144 166 198 222 101 104 170 151 193
      132 9 -7 10 -18 3 -38z m-2776 -562 c17 -28 -28 -103 -117 -193 -87 -89 -162
      -139 -198 -134 -19 2 -23 9 -21 32 3 41 64 130 147 211 99 98 163 126 189 84z
      m1755 -6 c5 -33 -30 -90 -100 -167 -82 -90 -171 -156 -210 -156 -29 0 -30 2
      -25 35 3 18 23 60 45 92 48 69 157 180 204 205 44 23 82 20 86 -9z M4694 1255
      c-108 -54 -298 -246 -537 -542 -76 -94 -145 -165 -226 -235 -64 -55 -138 -113
      -166 -129 -52 -30 -95 -38 -95 -16 0 27 90 149 212 288 31 36 55 69 51 73 -3
      3 -26 6 -49 6 -36 0 -46 -5 -65 -31 -20 -29 -23 -30 -32 -13 -17 33 -39 44
      -86 44 -81 -1 -170 -53 -304 -179 -91 -85 -185 -160 -234 -185 -34 -17 -83
      -22 -83 -7 0 10 28 48 113 153 75 92 97 143 79 183 -6 13 -23 27 -38 31 -14 4
      -44 1 -65 -5 -22 -7 -77 -41 -123 -76 -68 -51 -81 -59 -70 -37 30 59 7 122
      -45 122 -44 0 -103 -43 -233 -171 -139 -137 -234 -209 -274 -209 -48 0 -29 33
      121 221 59 73 109 139 112 146 4 9 -6 13 -33 13 -29 0 -46 -7 -71 -32 -23 -22
      -33 -27 -33 -17 0 9 -9 24 -20 34 -16 14 -30 17 -75 12 -34 -3 -78 -18 -117
      -39 -75 -40 -177 -136 -208 -197 -13 -26 -23 -65 -24 -94 -1 -41 3 -52 24 -69
      18 -15 34 -19 62 -15 39 5 99 37 153 82 l31 24 -4 -35 c-3 -24 1 -41 14 -55
      15 -17 27 -20 57 -16 21 3 63 20 93 39 31 18 113 89 182 157 70 68 145 137
      166 153 43 31 76 36 76 12 0 -22 -43 -81 -164 -224 l-105 -125 44 -3 44 -3
      143 145 c148 150 249 226 300 226 15 0 28 -3 28 -6 0 -14 -25 -48 -94 -129
      -41 -48 -82 -102 -90 -120 -9 -18 -16 -47 -16 -64 0 -41 37 -66 87 -58 46 8
      129 58 200 122 32 28 51 40 44 28 -6 -12 -11 -40 -11 -63 0 -77 68 -112 143
      -74 18 9 53 32 80 51 l47 35 0 -35 c0 -41 25 -67 64 -67 44 0 134 53 229 135
      l86 75 -19 -42 c-11 -24 -20 -60 -20 -81 0 -52 35 -87 87 -87 43 0 119 33 191
      81 52 36 192 167 192 181 0 18 -22 6 -72 -41 -129 -120 -228 -181 -292 -181
      -34 0 -36 2 -36 33 0 37 42 109 142 239 51 68 77 90 186 163 70 46 163 113
      207 148 100 81 218 204 245 256 22 45 26 91 8 109 -19 19 -60 14 -114 -13z
      m92 -29 c3 -8 -1 -27 -10 -43 -46 -90 -208 -238 -436 -398 l-55 -39 29 40 c47
      62 173 211 260 306 109 121 196 176 212 134z m-2298 -584 c2 -12 -8 -42 -21
      -65 -38 -64 -141 -171 -208 -216 -63 -42 -105 -52 -115 -27 -8 21 31 92 92
      168 82 102 174 170 224 165 18 -1 26 -9 28 -25z m1260 -5 c5 -41 -40 -110
      -128 -198 -79 -80 -141 -119 -185 -119 -21 0 -25 5 -25 28 0 60 138 229 239
      293 27 18 56 29 71 27 19 -2 26 -10 28 -31z M7594 905 c-14 -21 -15 -31 -6
      -50 15 -32 54 -33 82 -3 36 39 20 78 -32 78 -18 0 -33 -8 -44 -25z"/>
    </g>
    <g opacity="0.50000000" transform="translate(0,190) scale(0.100000,-0.100000)">
      <path d="M2654 1629 c-28 -10 -79 -37 -115 -58 l-64 -39 -45 23 c-25 12 -76
      33 -115 45 -56 18 -101 24 -225 27 -119 4 -176 1 -245 -12 -187 -35 -372 -111
      -513 -212 -37 -26 -94 -75 -127 -108 -116 -116 -185 -252 -185 -364 0 -45 7
      -71 28 -112 23 -45 37 -59 85 -83 47 -24 74 -30 143 -34 46 -3 112 1 146 8
      156 30 303 112 424 235 50 51 83 95 109 149 45 90 56 166 32 213 -45 87 -212
      83 -377 -9 -81 -45 -184 -131 -243 -203 -58 -72 -103 -145 -88 -145 6 0 28 26
      50 58 49 72 180 196 254 241 31 18 85 44 119 58 74 30 175 41 217 23 16 -6 34
      -24 41 -39 14 -35 1 -95 -35 -158 -15 -26 -71 -91 -124 -143 -112 -110 -233
      -187 -354 -225 -57 -18 -100 -25 -160 -25 -94 0 -144 19 -192 69 -28 31 -30
      37 -30 115 0 75 3 89 39 162 32 64 58 97 140 179 65 64 132 119 187 153 206
      126 463 193 689 178 107 -7 190 -26 269 -61 l53 -25 -78 -65 c-44 -35 -119
      -109 -168 -162 -48 -54 -154 -186 -234 -293 -80 -107 -183 -240 -228 -295 -92
      -113 -235 -254 -307 -304 -59 -40 -143 -79 -210 -97 -62 -17 -167 -18 -221 -3
      -37 10 -96 57 -96 76 0 5 13 8 29 5 20 -3 35 2 50 17 12 12 21 30 21 41 0 23
      -33 60 -54 60 -36 0 -68 -22 -82 -56 -12 -28 -13 -43 -4 -68 15 -46 59 -85
      115 -102 27 -8 89 -14 140 -14 159 0 303 49 464 160 49 33 127 100 174 149 95
      99 180 210 317 416 129 194 245 347 329 433 80 82 84 83 124 8 17 -33 22 -58
      22 -127 0 -81 -2 -90 -43 -172 -81 -163 -235 -285 -373 -295 -32 -2 -72 0 -88
      6 -21 7 -33 8 -37 1 -10 -17 9 -29 69 -41 44 -9 73 -9 129 0 43 7 104 27 148
      49 98 48 194 142 240 237 29 58 35 82 38 156 4 79 2 94 -22 147 -15 32 -43 74
      -62 94 l-35 36 27 22 c15 12 65 40 111 63 45 23 80 45 77 49 -3 5 -8 9 -12 8
      -4 0 -30 -9 -58 -20z M5640 1483 c-70 -12 -178 -47 -239 -77 -37 -19 -93 -57
      -122 -84 -30 -28 -67 -73 -83 -101 -33 -61 -44 -142 -26 -196 17 -52 71 -109
      128 -133 26 -11 75 -26 109 -32 l62 -12 -39 -52 c-21 -28 -56 -87 -77 -131
      -36 -75 -38 -85 -38 -176 0 -88 2 -99 28 -138 40 -60 109 -91 203 -91 122 0
      268 56 381 146 75 59 118 108 148 166 29 54 33 122 10 155 -8 12 -31 27 -51
      33 -108 36 -295 -55 -428 -208 -55 -64 -103 -142 -88 -142 5 0 33 32 62 71 59
      80 179 180 257 216 28 13 75 29 105 35 43 9 59 8 83 -3 16 -8 34 -26 39 -41
      14 -39 -14 -103 -75 -171 -126 -141 -334 -240 -471 -224 -58 7 -100 30 -122
      67 -24 42 -20 120 10 193 32 75 96 173 163 248 50 56 51 56 119 62 157 15 444
      109 618 203 144 77 266 180 305 256 22 43 24 67 8 101 -21 45 -77 61 -170 46
      -94 -14 -200 -52 -321 -113 -191 -97 -373 -228 -551 -395 l-85 -82 -60 10
      c-80 13 -157 47 -187 83 -13 16 -29 46 -35 67 -7 28 -6 50 4 83 20 67 70 134
      140 185 73 55 158 95 263 125 65 19 104 22 230 23 98 0 152 4 150 10 -2 6 -17
      13 -33 16 -32 7 -285 9 -324 2z m928 -59 c12 -8 22 -25 22 -38 0 -32 -50 -104
      -103 -148 -72 -60 -196 -137 -302 -188 -123 -59 -320 -123 -439 -144 -49 -9
      -91 -14 -93 -12 -5 5 189 180 277 251 102 83 251 180 342 224 137 67 250 88
      296 55z M9141 1253 c-118 -69 -333 -293 -593 -613 -77 -96 -212 -221 -308
      -285 -53 -36 -84 -43 -95 -24 -10 15 48 98 165 238 55 66 100 123 100 126 0 3
      -20 5 -44 5 -38 0 -48 -5 -75 -35 -25 -29 -31 -32 -31 -16 0 33 -28 51 -79 51
      -75 0 -157 -47 -270 -154 -167 -159 -260 -226 -316 -226 -18 0 -25 5 -25 18 0
      25 34 74 170 246 l115 145 69 3 c43 2 71 8 73 15 3 8 -14 13 -52 15 l-56 3 76
      92 c41 50 75 95 75 98 0 3 -21 5 -47 3 -47 -3 -49 -4 -127 -100 l-79 -98 -58
      0 c-46 0 -59 -3 -59 -15 0 -11 12 -15 46 -15 l45 0 -63 -76 c-132 -160 -345
      -334 -409 -334 -18 0 -29 5 -29 14 0 7 10 29 23 48 20 28 144 182 224 277 12
      14 22 29 23 34 0 4 -20 7 -44 7 -43 0 -46 -2 -111 -80 -109 -131 -327 -300
      -387 -300 -15 0 -28 3 -28 8 0 13 30 53 95 127 89 101 115 143 115 187 0 29
      -6 41 -24 53 -16 11 -33 14 -52 9 -47 -11 -137 -60 -183 -98 -24 -20 -45 -36
      -47 -36 -2 0 22 33 54 73 32 39 95 119 140 177 76 96 81 105 59 108 -12 2 -32
      -1 -43 -5 -12 -4 -56 -51 -100 -103 -153 -185 -331 -355 -478 -459 -60 -41
      -106 -53 -106 -27 0 8 16 37 35 66 39 58 193 248 219 269 9 7 16 17 16 22 0 5
      -19 9 -42 9 -34 0 -49 -6 -75 -32 -23 -22 -33 -27 -33 -17 0 29 -34 49 -82 49
      -66 0 -172 -56 -251 -133 -67 -64 -101 -119 -112 -178 -8 -44 8 -86 39 -100
      14 -7 40 -9 60 -5 20 4 64 26 99 50 l62 42 2 -35 c4 -77 77 -79 182 -7 36 24
      102 78 146 118 51 47 68 59 46 33 -18 -22 -68 -83 -111 -135 -43 -52 -125
      -151 -182 -220 l-105 -125 46 -3 c53 -4 26 -30 256 248 167 203 286 318 397
      383 70 42 108 48 108 18 0 -11 -35 -57 -77 -103 -90 -97 -133 -162 -133 -198
      0 -14 7 -36 16 -49 14 -20 23 -23 60 -18 50 5 131 51 205 116 50 43 51 44 35
      13 -22 -43 -21 -95 4 -117 15 -13 30 -16 60 -12 48 6 130 53 200 115 l49 43
      -14 -35 c-8 -20 -15 -47 -15 -61 0 -35 33 -65 73 -65 45 0 140 49 203 104 l51
      45 -5 -47 c-3 -38 0 -53 18 -75 15 -18 31 -27 51 -27 36 0 100 31 154 75 l41
      33 -4 -35 c-5 -42 20 -73 60 -73 41 0 96 31 186 104 l78 63 -15 -54 c-14 -51
      -13 -55 6 -81 18 -23 28 -27 70 -27 39 1 63 9 108 35 32 19 96 70 141 114 77
      72 96 96 77 96 -5 0 -43 -32 -87 -70 -97 -86 -163 -129 -210 -137 -28 -4 -37
      -2 -42 12 -4 10 1 33 12 54 10 20 59 89 108 154 85 113 95 123 210 199 67 45
      159 111 206 148 112 89 254 238 282 294 17 36 20 52 12 73 -7 22 -16 29 -44
      31 -26 2 -52 -7 -99 -35z m113 -11 c3 -5 -4 -27 -15 -50 -27 -53 -217 -237
      -344 -331 -157 -117 -172 -127 -154 -105 167 203 224 268 297 345 48 51 105
      105 126 121 38 27 80 37 90 20z m-2784 -587 c18 -22 -1 -65 -61 -142 -55 -68
      -148 -152 -200 -179 -17 -8 -40 -14 -52 -12 -17 2 -22 9 -20 32 3 41 64 130
      147 211 69 68 123 104 157 105 9 0 22 -7 29 -15z m1758 -13 c5 -35 -44 -108
      -132 -198 -80 -80 -145 -124 -186 -124 -53 0 3 112 118 232 42 44 92 88 112
      99 47 25 84 21 88 -9z M4705 1261 c-105 -47 -298 -240 -549 -548 -83 -101
      -150 -171 -232 -240 -63 -54 -136 -110 -162 -125 -50 -29 -92 -36 -92 -15 0
      27 90 149 212 288 32 37 58 69 58 73 0 3 -22 6 -49 6 -44 0 -52 -4 -72 -31
      l-21 -30 -19 30 c-17 28 -23 31 -73 31 -83 0 -169 -49 -307 -177 -134 -123
      -248 -203 -290 -203 -16 0 -29 4 -29 9 0 11 31 53 112 151 38 46 73 99 80 122
      10 33 9 45 -3 67 -8 14 -23 27 -33 29 -36 7 -85 -9 -142 -48 -33 -21 -76 -53
      -96 -70 l-38 -32 15 29 c31 60 9 123 -44 123 -42 0 -105 -43 -190 -128 -118
      -118 -198 -190 -250 -223 -47 -31 -91 -38 -91 -16 0 19 66 112 167 235 46 57
      87 110 90 118 4 11 -4 14 -33 14 -29 0 -46 -7 -71 -32 -23 -22 -33 -27 -33
      -17 0 29 -34 49 -82 49 -66 0 -175 -58 -253 -134 -34 -33 -73 -81 -85 -106
      -14 -27 -24 -64 -24 -93 -1 -40 3 -52 24 -69 18 -15 34 -19 62 -15 39 5 99 37
      153 82 l31 24 -4 -35 c-5 -45 19 -74 62 -74 55 0 150 68 305 216 81 78 157
      147 169 153 29 16 52 14 52 -5 0 -22 -43 -81 -164 -224 -58 -69 -106 -127
      -106 -130 0 -3 21 -4 46 -1 44 3 51 8 187 146 147 149 249 225 299 225 15 0
      28 -3 28 -8 0 -12 -30 -52 -90 -122 -31 -36 -69 -84 -84 -106 -20 -31 -27 -52
      -24 -80 2 -29 9 -42 29 -53 17 -9 37 -12 62 -7 40 8 163 86 216 138 24 23 31
      27 23 11 -7 -12 -12 -40 -12 -63 0 -77 68 -112 143 -74 18 9 53 32 80 51 l47
      35 0 -35 c0 -41 25 -67 64 -67 43 0 135 54 229 135 l86 74 -20 -42 c-10 -23
      -19 -61 -19 -84 0 -33 5 -46 26 -62 70 -55 204 3 367 158 42 40 77 78 77 82 0
      21 -27 5 -91 -55 -68 -65 -160 -132 -212 -154 -15 -7 -43 -12 -62 -12 -33 0
      -35 2 -35 33 0 38 45 113 143 240 52 68 79 91 191 165 72 48 169 119 216 158
      105 87 203 192 230 244 23 44 26 90 8 108 -17 17 -57 15 -103 -7z m81 -36 c10
      -26 -41 -98 -137 -190 -95 -91 -152 -138 -289 -235 l-75 -53 29 39 c47 62 173
      211 260 306 80 90 155 148 188 148 10 0 21 -7 24 -15z m-2312 -561 c40 -15 2
      -94 -98 -201 -94 -102 -209 -168 -231 -133 -11 17 34 101 91 171 57 70 118
      124 169 152 33 18 46 20 69 11z m1274 -27 c5 -41 -40 -110 -128 -198 -79 -80
      -141 -119 -185 -119 -21 0 -25 5 -25 28 0 60 139 230 239 294 27 17 56 28 71
      26 19 -2 26 -10 28 -31z M7623 930 c-12 -5 -27 -19 -33 -31 -17 -31 2 -69 35
      -69 32 0 67 35 63 62 -4 29 -38 48 -65 38z"/>
    </g>
    <g opacity="1.00000000" transform="translate(0,190) scale(0.100000,-0.100000)">
      <path d="M2654 1629 c-28 -10 -79 -37 -115 -58 l-64 -39 -45 23 c-25 13 -77
      33 -115 44 -179 54 -442 42 -657 -29 -105 -35 -259 -117 -351 -186 -86 -65
      -162 -146 -215 -228 -42 -66 -72 -160 -72 -225 0 -45 7 -71 28 -112 23 -45 37
      -59 86 -84 49 -25 72 -30 150 -33 71 -3 112 1 175 17 46 11 116 36 156 56 85
      41 202 130 263 201 24 27 59 82 79 122 63 125 55 220 -21 256 -19 9 -59 16
      -89 16 -147 0 -343 -112 -477 -271 -59 -72 -107 -149 -92 -149 6 0 31 29 56
      63 55 78 174 191 249 236 85 50 175 83 244 89 80 6 119 -9 133 -52 8 -24 7
      -44 -5 -83 -8 -28 -35 -77 -58 -110 -63 -84 -184 -191 -284 -251 -117 -70
      -220 -102 -326 -102 -58 0 -94 6 -122 19 -46 20 -92 70 -101 108 -4 13 -4 52
      -1 85 8 92 61 190 157 291 44 46 112 107 152 134 98 68 236 135 339 167 128
      39 277 59 394 52 111 -6 237 -34 295 -67 l38 -21 -87 -73 c-48 -40 -122 -113
      -165 -162 -43 -48 -153 -187 -244 -308 -91 -121 -195 -256 -232 -300 -81 -96
      -205 -217 -277 -268 -64 -47 -161 -91 -231 -106 -67 -14 -156 -14 -206 0 -37
      10 -96 57 -96 76 0 5 13 8 29 5 20 -3 35 2 50 17 12 12 21 30 21 41 0 11 -9
      29 -20 40 -39 39 -100 17 -120 -44 -8 -24 -8 -41 0 -62 18 -46 60 -83 114 -99
      71 -21 216 -19 308 4 41 11 104 33 139 49 150 67 307 196 436 357 35 44 131
      179 213 300 162 239 246 349 341 445 51 52 63 59 75 49 9 -7 25 -31 37 -53 18
      -33 22 -57 21 -126 0 -76 -4 -93 -36 -160 -19 -41 -58 -102 -84 -134 -27 -33
      -77 -79 -112 -103 -77 -52 -156 -77 -226 -70 -28 2 -59 8 -70 12 -14 6 -17 4
      -15 -10 2 -10 20 -24 39 -31 78 -28 212 -9 322 47 86 44 185 145 229 234 32
      65 34 76 34 170 0 85 -3 107 -23 145 -13 25 -39 61 -59 81 l-34 36 27 22 c15
      12 65 40 111 63 45 23 80 45 77 49 -3 5 -8 9 -12 8 -4 0 -30 -9 -58 -20z
      M5640 1483 c-71 -12 -179 -47 -243 -79 -81 -41 -182 -136 -212 -199 -27 -57
      -31 -136 -11 -190 10 -24 34 -59 55 -78 42 -38 120 -71 193 -81 l48 -7 -39
      -52 c-49 -65 -96 -158 -111 -219 -7 -26 -11 -79 -8 -117 3 -58 9 -78 33 -112
      17 -23 48 -52 70 -63 50 -26 157 -33 234 -16 68 15 182 66 247 111 69 47 159
      142 184 193 25 54 28 117 7 150 -22 33 -78 50 -141 42 -68 -9 -177 -63 -254
      -127 -60 -49 -138 -143 -168 -201 -26 -51 2 -29 55 41 58 78 173 176 253 215
      29 14 78 31 108 38 45 9 61 9 85 -3 16 -8 34 -26 39 -41 21 -61 -64 -184 -189
      -273 -157 -113 -341 -154 -435 -99 -16 10 -36 32 -46 49 -26 49 -15 134 29
      221 36 71 137 214 175 248 14 12 53 23 113 32 124 19 290 66 424 120 129 53
      216 99 302 160 120 86 193 177 193 242 0 38 -40 78 -85 86 -19 4 -63 2 -97 -4
      -155 -27 -345 -113 -542 -244 -108 -72 -293 -224 -369 -303 -36 -38 -40 -39
      -90 -35 -61 5 -144 34 -181 63 -61 48 -74 134 -35 217 28 57 106 135 182 181
      72 43 201 87 297 102 41 6 123 9 183 7 74 -3 106 -1 104 6 -2 6 -17 14 -33 17
      -32 7 -285 9 -324 2z m928 -59 c12 -8 22 -25 22 -37 0 -30 -31 -78 -82 -128
      -59 -57 -204 -152 -315 -205 -160 -76 -318 -125 -512 -158 l-33 -6 23 25 c47
      51 236 213 324 279 98 74 244 163 321 197 112 48 212 61 252 33z M9165 1268
      c-112 -58 -308 -253 -547 -543 -93 -113 -187 -216 -233 -255 -157 -132 -213
      -166 -237 -142 -7 7 -6 16 1 30 16 31 104 145 188 244 40 47 73 89 73 92 0 3
      -19 6 -42 6 -34 0 -49 -6 -75 -32 -24 -23 -33 -27 -33 -16 0 30 -29 48 -79 48
      -75 0 -157 -47 -270 -154 -167 -159 -260 -226 -316 -226 -18 0 -25 5 -25 18 0
      23 57 105 159 230 42 52 87 109 101 127 24 32 29 34 94 37 43 2 71 8 73 15 3
      8 -14 13 -52 15 l-56 3 76 92 c41 50 75 95 75 98 0 3 -21 5 -47 3 -47 -3 -49
      -4 -127 -100 l-79 -98 -58 0 c-46 0 -59 -3 -59 -15 0 -11 12 -15 46 -15 l46 0
      -48 -57 c-110 -133 -240 -253 -349 -322 -52 -33 -105 -41 -105 -17 0 17 84
      130 194 261 42 50 76 93 76 98 0 4 -20 7 -44 7 -43 0 -46 -2 -116 -85 -72 -84
      -211 -205 -304 -264 -46 -28 -106 -42 -106 -23 0 13 31 53 96 127 90 102 114
      141 114 186 0 30 -6 42 -25 55 -23 15 -29 15 -77 -1 -51 -16 -150 -74 -162
      -94 -4 -6 -17 -16 -29 -22 -20 -11 -20 -9 4 17 14 16 75 92 134 169 60 77 113
      142 117 143 4 2 8 8 8 13 0 10 -47 11 -71 1 -9 -4 -51 -50 -95 -102 -43 -52
      -110 -128 -149 -169 -78 -82 -243 -228 -321 -284 -59 -42 -114 -59 -114 -34 0
      8 15 38 34 65 38 56 196 251 220 271 9 8 16 17 16 22 0 5 -19 9 -42 9 -34 0
      -49 -6 -75 -32 -24 -23 -33 -27 -33 -16 0 30 -29 48 -79 48 -107 0 -291 -134
      -346 -251 -13 -30 -25 -64 -25 -76 0 -37 18 -73 44 -84 14 -7 40 -9 60 -5 20
      4 64 26 99 50 l62 42 1 -34 c2 -77 77 -81 183 -8 36 24 102 78 146 118 51 47
      68 59 46 33 -18 -22 -68 -83 -111 -135 -43 -52 -125 -151 -182 -220 l-105
      -125 46 -3 c40 -3 49 0 71 26 14 16 98 116 186 223 167 201 284 314 396 382
      69 41 108 48 108 18 0 -11 -35 -57 -77 -103 -42 -45 -89 -103 -105 -127 -33
      -53 -36 -100 -8 -126 41 -38 148 5 261 104 50 43 51 44 35 13 -22 -43 -21 -95
      4 -117 15 -13 30 -16 60 -12 48 6 130 53 200 115 l49 43 -14 -35 c-8 -20 -15
      -47 -15 -61 0 -35 33 -65 73 -65 45 0 140 49 203 104 l51 45 -5 -47 c-3 -38 0
      -53 18 -75 15 -18 31 -27 51 -27 36 0 100 31 154 75 l41 33 -4 -35 c-5 -42 20
      -73 60 -73 41 0 96 31 186 104 l78 63 -15 -54 c-14 -51 -13 -55 6 -81 18 -23
      28 -27 70 -27 39 1 63 9 108 35 32 19 96 70 141 114 77 72 96 96 76 96 -4 0
      -41 -30 -82 -66 -98 -87 -168 -133 -213 -141 -29 -4 -38 -2 -43 12 -4 10 1 33
      12 54 10 20 59 89 108 154 85 113 95 123 210 199 67 45 159 111 206 148 107
      85 252 235 279 288 24 46 27 82 9 100 -18 18 -68 14 -113 -10z m89 -26 c13
      -21 -44 -98 -142 -194 -99 -96 -199 -178 -330 -271 l-54 -38 92 113 c115 142
      292 332 344 369 38 28 80 38 90 21z m-2784 -587 c7 -8 9 -23 4 -37 -12 -40
      -65 -111 -135 -179 -76 -76 -148 -122 -181 -117 -19 2 -23 9 -21 32 3 40 60
      123 141 205 65 66 129 110 163 111 9 0 22 -7 29 -15z m1758 -8 c7 -35 -43
      -111 -127 -197 -84 -85 -149 -130 -191 -130 -51 0 1 109 108 222 37 39 87 84
      112 100 49 32 93 34 98 5z M4694 1255 c-27 -14 -83 -54 -126 -90 -84 -71 -270
      -275 -422 -464 -65 -80 -138 -156 -215 -222 -153 -132 -236 -181 -256 -149 -3
      5 -1 20 6 32 15 29 127 173 201 260 32 37 58 69 58 72 0 4 -22 6 -49 6 -44 0
      -52 -4 -72 -31 l-21 -30 -19 30 c-17 28 -23 31 -73 31 -79 0 -169 -49 -281
      -152 -170 -157 -268 -228 -317 -228 -15 0 -28 4 -28 9 0 11 31 53 112 151 38
      46 73 99 80 122 10 33 9 45 -3 67 -8 14 -23 27 -33 29 -36 7 -85 -9 -142 -48
      -33 -21 -76 -53 -96 -70 l-38 -32 15 29 c19 37 19 88 -1 107 -8 9 -27 16 -40
      16 -47 0 -107 -42 -233 -165 -132 -130 -188 -178 -233 -201 -34 -18 -68 -18
      -68 -1 0 19 67 112 171 240 49 60 89 113 89 118 0 5 -18 9 -39 9 -32 0 -46 -6
      -70 -32 -21 -23 -31 -28 -31 -17 0 29 -34 49 -82 49 -66 0 -175 -58 -253 -134
      -34 -33 -73 -81 -85 -106 -14 -27 -24 -64 -24 -93 -1 -40 3 -52 24 -69 18 -15
      34 -19 62 -15 39 5 99 37 153 82 l30 24 -3 -38 c-5 -46 16 -71 59 -71 16 0 51
      11 77 24 55 28 114 78 262 221 58 56 116 110 130 119 31 20 60 21 60 0 0 -22
      -43 -81 -164 -224 -58 -69 -106 -127 -106 -130 0 -3 21 -4 46 -1 44 3 51 8
      187 146 147 149 249 225 299 225 15 0 28 -3 28 -8 0 -12 -30 -52 -90 -122 -84
      -96 -110 -139 -110 -181 0 -64 51 -86 127 -54 42 18 146 90 187 131 23 23 27
      25 17 7 -6 -12 -11 -40 -11 -63 0 -77 68 -112 143 -74 18 9 53 32 80 51 l47
      35 0 -35 c0 -41 25 -67 64 -67 43 0 135 54 229 135 l86 74 -20 -42 c-10 -23
      -19 -61 -19 -84 0 -33 5 -46 26 -62 70 -55 204 3 367 158 42 40 77 78 77 82 0
      21 -29 6 -70 -37 -57 -58 -151 -129 -212 -160 -26 -13 -63 -24 -83 -24 -33 0
      -35 2 -35 33 0 38 45 113 143 240 52 67 79 91 195 168 74 49 166 116 206 148
      94 77 210 200 236 250 22 45 26 91 8 109 -19 19 -60 14 -114 -13z m92 -30 c10
      -26 -41 -98 -137 -190 -95 -91 -152 -138 -288 -234 -61 -44 -70 -48 -53 -24
      40 56 231 279 298 349 97 101 165 138 180 99z m-2307 -564 c22 -14 4 -64 -48
      -133 -56 -74 -122 -137 -188 -178 -47 -30 -87 -38 -98 -20 -11 17 34 101 91
      171 57 70 118 124 169 152 34 18 54 21 74 8z m1269 -26 c3 -35 -26 -84 -106
      -174 -62 -71 -163 -141 -203 -141 -25 0 -29 4 -29 29 0 58 140 229 240 293 26
      17 55 28 70 26 20 -2 26 -9 28 -33z M7623 930 c-12 -5 -27 -19 -33 -31 -17
      -31 2 -69 35 -69 32 0 67 35 63 62 -4 29 -38 48 -65 38z"/>
    </g>
  </g>
</svg>
