<?xml version="1.0" encoding="UTF-8"?>
<!-- v3: longer profile, cleaner head/neck, calmer mane, clearer jumping leg geometry. -->
<svg xmlns="http://www.w3.org/2000/svg"
     viewBox="0 0 640 360"
     fill="none"
     stroke="#f1ead8"
     stroke-width="3.1"
     stroke-linecap="round"
     stroke-linejoin="round"
     vector-effect="non-scaling-stroke">
  <path d="M 95 230 C 126 213, 154 196, 186 179 C 231 155, 280 147, 332 150 C 363 151, 392 147, 416 132 C 440 116, 461 102, 485 96 C 499 92, 511 95, 520 104 C 529 113, 531 126, 525 138 C 518 151, 505 158, 491 157" />
  <path d="M 491 157 C 482 153, 474 145, 470 134 C 467 124, 461 117, 452 114" />
  <path d="M 520 104 C 526 98, 531 91, 535 82" />
  <path d="M 505 99 C 507 91, 510 84, 517 78" />
  <path d="M 452 114 C 438 121, 424 134, 410 154" />
  <path d="M 410 154 C 417 174, 414 194, 398 211 C 369 240, 317 252, 262 245 C 224 240, 196 225, 174 205" />
  <path d="M 174 205 C 148 201, 123 208, 104 226" />
  <path d="M 104 226 C 72 231, 48 245, 31 268" />
  <path d="M 110 232 C 82 247, 61 265, 48 289" />
  <path d="M 122 236 C 99 254, 81 275, 72 299" />
  <path d="M 190 207 C 176 231, 159 256, 133 282 C 121 294, 108 302, 94 306 C 90 296, 94 288, 106 282" />
  <path d="M 220 220 C 211 246, 195 273, 169 298 C 156 311, 142 319, 126 322 C 122 312, 127 304, 140 299" />
  <path d="M 395 211 C 408 226, 411 244, 401 259 C 392 272, 375 268, 374 252 C 373 240, 383 229, 394 222" />
  <path d="M 418 202 C 435 215, 443 231, 438 248 C 434 261, 419 264, 411 253 C 404 243, 409 229, 421 218" />
  <path d="M 342 151 C 333 168, 319 181, 300 190" />
  <path d="M 299 190 C 321 199, 346 199, 369 190" />
  <path d="M 229 190 C 223 207, 219 225, 220 240" />
  <path d="M 464 106 C 456 96, 454 88, 461 81" />
  <path d="M 446 116 C 438 106, 436 98, 443 91" />
  <path d="M 428 128 C 420 119, 419 111, 426 105" />
  <circle cx="507" cy="122" r="1.9" fill="#f1ead8" stroke="none" />
  <path d="M 520 142 C 523 140, 526 141, 527 144" />
</svg>
